<svg width="330" height="341" viewBox="0 0 330 341" fill="none" xmlns="http://www.w3.org/2000/svg">
<g clip-path="url(#clip0_11063_123171)">
<path d="M178.559 189.536L81.7864 74.155C109.817 50.6348 141.98 38.9219 178.559 38.9219V189.536Z" fill="#BCE4E5"/>
<path d="M178.559 189.527L29.456 210.497C22.0646 157.766 41.7357 107.655 82.4946 73.4375L178.559 189.527Z" fill="#E6E8C7"/>
<path d="M178.559 189.539L288.675 292.263C231.976 353.094 136.69 356.424 75.8826 299.702C49.1272 274.741 34.1791 244.609 29.0783 208.36L178.559 189.539Z" fill="#FFE5C2"/>
<path d="M178.559 189.536V38.9219C261.707 38.9219 329.127 106.342 329.127 189.536C329.127 229.469 315.524 263.403 288.297 292.591L178.559 189.536Z" fill="#FDE3D7"/>
<path d="M329.102 189.497C329.102 272.692 261.659 340.112 178.488 340.112C95.317 340.112 27.897 272.692 27.897 189.497C27.897 106.303 95.317 38.9062 178.488 38.9062C261.659 38.9062 329.102 106.326 329.102 189.521V189.497Z" stroke="#6D6E71" stroke-linejoin="bevel"/>
<path d="M178.488 38.8672V189.505" stroke="#6D6E71" stroke-linejoin="bevel"/>
<path d="M82.4945 73.4375L178.559 189.527" stroke="#6D6E71" stroke-linejoin="bevel"/>
<path d="M29.0778 208.36L178.559 189.539" stroke="#6D6E71" stroke-linejoin="bevel"/>
<path d="M288.296 292.617L178.559 189.539" stroke="#6D6E71" stroke-linejoin="bevel"/>
<text fill="#222222" xml:space="preserve" style="white-space: pre" font-family="Pretendard" font-size="24" letter-spacing="-0.5px"><tspan x="210.004" y="157.531">&#xbc8c;&#xc9d1; &#xc81c;&#xac70;&#10;</tspan><tspan x="221.945" y="193.531">(37%)</tspan></text>
<text fill="#222222" xml:space="preserve" style="white-space: pre" font-family="Pretendard" font-size="24" letter-spacing="-0.5px"><tspan x="130.008" y="255.531">&#xd654;&#xc7ac;&#10;</tspan><tspan x="118.207" y="291.531">(36%)</tspan></text>
<text fill="#222222" xml:space="preserve" style="white-space: pre" font-family="Pretendard" font-size="24" letter-spacing="-0.5px"><tspan x="41.2656" y="144.531">&#xad50;&#xd1b5;&#xc0ac;&#xace0;&#10;</tspan><tspan x="51.8516" y="180.531">(16%)</tspan></text>
</g>
<path d="M101.5 40.5L101.823 40.1179L101.683 40H101.5V40.5ZM140 73L138.041 67.5689L134.317 71.9806L140 73ZM78 41H101.5V40H78V41ZM101.177 40.8821L136.239 70.4793L136.884 69.7152L101.823 40.1179L101.177 40.8821Z" fill="#EC008C"/>
<text fill="#222222" xml:space="preserve" style="white-space: pre" font-family="Pretendard" font-size="24" letter-spacing="-0.5px"><tspan x="0.00390625" y="26.5312">&#xc704;&#xce58; &#xd655;&#xc778;&#10;</tspan><tspan x="15.4492" y="62.5312">(11%)</tspan></text>
<defs>
<clipPath id="clip0_11063_123171">
<rect width="303" height="303" fill="white" transform="translate(27 38)"/>
</clipPath>
</defs>
</svg>
