<svg width="25" height="26" viewBox="0 0 25 26" fill="none" xmlns="http://www.w3.org/2000/svg">
<g clip-path="url(#clip0_13382_24043)">
<rect width="24.2667" height="24.2667" transform="translate(0.366211 0.867188)" fill="white"/>
<path fill-rule="evenodd" clip-rule="evenodd" d="M1.29209 21.2668C0.511037 22.0478 0.511037 23.3142 1.29209 24.0952C2.07313 24.8763 3.33946 24.8763 4.12051 24.0952L12.3899 15.8259L20.8559 24.2919C21.637 25.073 22.9033 25.073 23.6843 24.2919C24.4654 23.5109 24.4654 22.2445 23.6843 21.4635L15.2183 12.9974L23.6843 4.5314C24.4654 3.75035 24.4654 2.48402 23.6843 1.70297C22.9033 0.921925 21.637 0.921925 20.8559 1.70297L12.3899 10.169L4.12051 1.89968C3.33946 1.11863 2.07313 1.11863 1.29209 1.89968C0.511037 2.68072 0.511037 3.94705 1.29209 4.7281L9.56143 12.9974L1.29209 21.2668Z" fill="url(#paint0_linear_13382_24043)"/>
</g>
<defs>
<linearGradient id="paint0_linear_13382_24043" x1="0.706299" y1="12.9974" x2="24.2701" y2="12.9974" gradientUnits="userSpaceOnUse">
<stop stop-color="#3B71FE"/>
<stop offset="1" stop-color="#07BBA9"/>
</linearGradient>
<clipPath id="clip0_13382_24043">
<rect width="24.2667" height="24.2667" fill="white" transform="translate(0.366211 0.867188)"/>
</clipPath>
</defs>
</svg>
