<svg width="505" height="420" viewBox="0 0 505 420" fill="none" xmlns="http://www.w3.org/2000/svg">
<g clip-path="url(#clip0_12_10306)">
<mask id="mask0_12_10306" style="mask-type:luminance" maskUnits="userSpaceOnUse" x="0" y="0" width="505" height="420">
<path d="M504.5 0H0.5V420H504.5V0Z" fill="white"/>
</mask>
<g mask="url(#mask0_12_10306)">
<path d="M503.762 417.426V419.257H501.9" stroke="#009FE8" stroke-width="1.47648" stroke-miterlimit="10"/>
<path d="M498.206 419.262H4.93164" stroke="#009FE8" stroke-width="1.47648" stroke-miterlimit="10" stroke-dasharray="3.69 3.69"/>
<path d="M3.0997 419.257H1.23828V417.426" stroke="#009FE8" stroke-width="1.47648" stroke-miterlimit="10"/>
<path d="M1.23828 413.738V4.42773" stroke="#009FE8" stroke-width="1.47648" stroke-miterlimit="10" stroke-dasharray="3.66 3.66"/>
<path d="M1.23828 2.5967V0.736328H3.0997" stroke="#009FE8" stroke-width="1.47648" stroke-miterlimit="10"/>
<path d="M6.79297 0.736328H500.068" stroke="#009FE8" stroke-width="1.47648" stroke-miterlimit="10" stroke-dasharray="3.69 3.69"/>
<path d="M501.9 0.736328H503.762V2.5967" stroke="#009FE8" stroke-width="1.47648" stroke-miterlimit="10"/>
<path d="M503.761 6.26367V415.604" stroke="#009FE8" stroke-width="1.47648" stroke-miterlimit="10" stroke-dasharray="3.66 3.66"/>
<path d="M43.1045 419.256V417.484" stroke="#009FE8" stroke-width="0.885889" stroke-miterlimit="10"/>
</g>
<path d="M43.1055 413.942V4.27734" stroke="#009FE8" stroke-width="0.885889" stroke-miterlimit="10" stroke-dasharray="3.54 3.54"/>
<path d="M43.1055 2.50908V0.737305" stroke="#009FE8" stroke-width="0.885889" stroke-miterlimit="10"/>
<mask id="mask1_12_10306" style="mask-type:luminance" maskUnits="userSpaceOnUse" x="0" y="0" width="505" height="420">
<path d="M504.5 0H0.5V420H504.5V0Z" fill="white"/>
</mask>
<g mask="url(#mask1_12_10306)">
<path d="M85.0029 419.26V417.488" stroke="#009FE8" stroke-width="0.885889" stroke-miterlimit="10"/>
</g>
<path d="M85.0029 413.942V4.27734" stroke="#009FE8" stroke-width="0.885889" stroke-miterlimit="10" stroke-dasharray="3.54 3.54"/>
<path d="M85.0029 2.50908V0.737305" stroke="#009FE8" stroke-width="0.885889" stroke-miterlimit="10"/>
<mask id="mask2_12_10306" style="mask-type:luminance" maskUnits="userSpaceOnUse" x="0" y="0" width="505" height="420">
<path d="M504.5 0H0.5V420H504.5V0Z" fill="white"/>
</mask>
<g mask="url(#mask2_12_10306)">
<path d="M126.87 419.26V417.488" stroke="#009FE8" stroke-width="0.885889" stroke-miterlimit="10"/>
</g>
<path d="M126.869 413.942V4.27734" stroke="#009FE8" stroke-width="0.885889" stroke-miterlimit="10" stroke-dasharray="3.54 3.54"/>
<path d="M126.869 2.50908V0.737305" stroke="#009FE8" stroke-width="0.885889" stroke-miterlimit="10"/>
<mask id="mask3_12_10306" style="mask-type:luminance" maskUnits="userSpaceOnUse" x="0" y="0" width="505" height="420">
<path d="M504.5 0H0.5V420H504.5V0Z" fill="white"/>
</mask>
<g mask="url(#mask3_12_10306)">
<path d="M168.736 419.26V417.488" stroke="#009FE8" stroke-width="0.885889" stroke-miterlimit="10"/>
</g>
<path d="M168.736 413.942V4.27734" stroke="#009FE8" stroke-width="0.885889" stroke-miterlimit="10" stroke-dasharray="3.54 3.54"/>
<path d="M168.736 2.50908V0.737305" stroke="#009FE8" stroke-width="0.885889" stroke-miterlimit="10"/>
<mask id="mask4_12_10306" style="mask-type:luminance" maskUnits="userSpaceOnUse" x="0" y="0" width="505" height="420">
<path d="M504.5 0H0.5V420H504.5V0Z" fill="white"/>
</mask>
<g mask="url(#mask4_12_10306)">
<path d="M210.634 419.26V417.488" stroke="#009FE8" stroke-width="0.885889" stroke-miterlimit="10"/>
</g>
<path d="M210.634 413.942V4.27734" stroke="#009FE8" stroke-width="0.885889" stroke-miterlimit="10" stroke-dasharray="3.54 3.54"/>
<path d="M210.634 2.50908V0.737305" stroke="#009FE8" stroke-width="0.885889" stroke-miterlimit="10"/>
<mask id="mask5_12_10306" style="mask-type:luminance" maskUnits="userSpaceOnUse" x="0" y="0" width="505" height="420">
<path d="M504.5 0H0.5V420H504.5V0Z" fill="white"/>
</mask>
<g mask="url(#mask5_12_10306)">
<path d="M252.5 419.26V417.488" stroke="#009FE8" stroke-width="0.885889" stroke-miterlimit="10"/>
</g>
<path d="M252.5 413.942V4.27734" stroke="#009FE8" stroke-width="0.885889" stroke-miterlimit="10" stroke-dasharray="3.54 3.54"/>
<path d="M252.5 2.50908V0.737305" stroke="#009FE8" stroke-width="0.885889" stroke-miterlimit="10"/>
<mask id="mask6_12_10306" style="mask-type:luminance" maskUnits="userSpaceOnUse" x="0" y="0" width="505" height="420">
<path d="M504.5 0H0.5V420H504.5V0Z" fill="white"/>
</mask>
<g mask="url(#mask6_12_10306)">
<path d="M294.397 419.26V417.488" stroke="#009FE8" stroke-width="0.885889" stroke-miterlimit="10"/>
</g>
<path d="M294.397 413.942V4.27734" stroke="#009FE8" stroke-width="0.885889" stroke-miterlimit="10" stroke-dasharray="3.54 3.54"/>
<path d="M294.397 2.50908V0.737305" stroke="#009FE8" stroke-width="0.885889" stroke-miterlimit="10"/>
<mask id="mask7_12_10306" style="mask-type:luminance" maskUnits="userSpaceOnUse" x="0" y="0" width="505" height="420">
<path d="M504.5 0H0.5V420H504.5V0Z" fill="white"/>
</mask>
<g mask="url(#mask7_12_10306)">
<path d="M336.265 419.26V417.488" stroke="#009FE8" stroke-width="0.885889" stroke-miterlimit="10"/>
</g>
<path d="M336.264 413.942V4.27734" stroke="#009FE8" stroke-width="0.885889" stroke-miterlimit="10" stroke-dasharray="3.54 3.54"/>
<path d="M336.264 2.50908V0.737305" stroke="#009FE8" stroke-width="0.885889" stroke-miterlimit="10"/>
<mask id="mask8_12_10306" style="mask-type:luminance" maskUnits="userSpaceOnUse" x="0" y="0" width="505" height="420">
<path d="M504.5 0H0.5V420H504.5V0Z" fill="white"/>
</mask>
<g mask="url(#mask8_12_10306)">
<path d="M378.131 419.26V417.488" stroke="#009FE8" stroke-width="0.885889" stroke-miterlimit="10"/>
</g>
<path d="M378.131 413.942V4.27734" stroke="#009FE8" stroke-width="0.885889" stroke-miterlimit="10" stroke-dasharray="3.54 3.54"/>
<path d="M378.131 2.50908V0.737305" stroke="#009FE8" stroke-width="0.885889" stroke-miterlimit="10"/>
<mask id="mask9_12_10306" style="mask-type:luminance" maskUnits="userSpaceOnUse" x="0" y="0" width="505" height="420">
<path d="M504.5 0H0.5V420H504.5V0Z" fill="white"/>
</mask>
<g mask="url(#mask9_12_10306)">
<path d="M420.028 419.26V417.488" stroke="#009FE8" stroke-width="0.885889" stroke-miterlimit="10"/>
</g>
<path d="M420.028 413.942V4.27734" stroke="#009FE8" stroke-width="0.885889" stroke-miterlimit="10" stroke-dasharray="3.54 3.54"/>
<path d="M420.028 2.50908V0.737305" stroke="#009FE8" stroke-width="0.885889" stroke-miterlimit="10"/>
<mask id="mask10_12_10306" style="mask-type:luminance" maskUnits="userSpaceOnUse" x="0" y="0" width="505" height="420">
<path d="M504.5 0H0.5V420H504.5V0Z" fill="white"/>
</mask>
<g mask="url(#mask10_12_10306)">
<path d="M461.895 419.26V417.488" stroke="#009FE8" stroke-width="0.885889" stroke-miterlimit="10"/>
</g>
<path d="M461.895 413.942V4.27734" stroke="#009FE8" stroke-width="0.885889" stroke-miterlimit="10" stroke-dasharray="3.54 3.54"/>
<path d="M461.895 2.50908V0.737305" stroke="#009FE8" stroke-width="0.885889" stroke-miterlimit="10"/>
<mask id="mask11_12_10306" style="mask-type:luminance" maskUnits="userSpaceOnUse" x="0" y="0" width="505" height="420">
<path d="M504.5 0H0.5V420H504.5V0Z" fill="white"/>
</mask>
<g mask="url(#mask11_12_10306)">
<path d="M503.761 126.301H501.988" stroke="#009FE8" stroke-width="0.885889" stroke-miterlimit="10"/>
</g>
<path d="M498.443 126.294H4.78418" stroke="#009FE8" stroke-width="0.885889" stroke-miterlimit="10" stroke-dasharray="3.54 3.54"/>
<mask id="mask12_12_10306" style="mask-type:luminance" maskUnits="userSpaceOnUse" x="0" y="0" width="505" height="420">
<path d="M504.5 0H0.5V420H504.5V0Z" fill="white"/>
</mask>
<g mask="url(#mask12_12_10306)">
<path d="M3.01106 126.301H1.23828" stroke="#009FE8" stroke-width="0.885889" stroke-miterlimit="10"/>
<path d="M503.761 168.151H501.988" stroke="#009FE8" stroke-width="0.885889" stroke-miterlimit="10"/>
</g>
<path d="M498.443 168.145H4.78418" stroke="#009FE8" stroke-width="0.885889" stroke-miterlimit="10" stroke-dasharray="3.54 3.54"/>
<mask id="mask13_12_10306" style="mask-type:luminance" maskUnits="userSpaceOnUse" x="0" y="0" width="505" height="420">
<path d="M504.5 0H0.5V420H504.5V0Z" fill="white"/>
</mask>
<g mask="url(#mask13_12_10306)">
<path d="M3.01106 168.15H1.23828" stroke="#009FE8" stroke-width="0.885889" stroke-miterlimit="10"/>
<path d="M503.761 210.021H501.988" stroke="#009FE8" stroke-width="0.885889" stroke-miterlimit="10"/>
</g>
<path d="M498.443 210.02H4.78418" stroke="#009FE8" stroke-width="0.885889" stroke-miterlimit="10" stroke-dasharray="3.54 3.54"/>
<mask id="mask14_12_10306" style="mask-type:luminance" maskUnits="userSpaceOnUse" x="0" y="0" width="505" height="420">
<path d="M504.5 0H0.5V420H504.5V0Z" fill="white"/>
</mask>
<g mask="url(#mask14_12_10306)">
<path d="M3.01106 210.014H1.23828" stroke="#009FE8" stroke-width="0.885889" stroke-miterlimit="10"/>
<path d="M503.761 251.864H501.988" stroke="#009FE8" stroke-width="0.885889" stroke-miterlimit="10"/>
</g>
<path d="M498.443 251.855H4.78418" stroke="#009FE8" stroke-width="0.885889" stroke-miterlimit="10" stroke-dasharray="3.54 3.54"/>
<mask id="mask15_12_10306" style="mask-type:luminance" maskUnits="userSpaceOnUse" x="0" y="0" width="505" height="420">
<path d="M504.5 0H0.5V420H504.5V0Z" fill="white"/>
</mask>
<g mask="url(#mask15_12_10306)">
<path d="M3.01106 251.855H1.23828" stroke="#009FE8" stroke-width="0.885889" stroke-miterlimit="10"/>
<path d="M503.761 293.706H501.988" stroke="#009FE8" stroke-width="0.885889" stroke-miterlimit="10"/>
</g>
<path d="M498.443 293.706H4.78418" stroke="#009FE8" stroke-width="0.885889" stroke-miterlimit="10" stroke-dasharray="3.54 3.54"/>
<mask id="mask16_12_10306" style="mask-type:luminance" maskUnits="userSpaceOnUse" x="0" y="0" width="505" height="420">
<path d="M504.5 0H0.5V420H504.5V0Z" fill="white"/>
</mask>
<g mask="url(#mask16_12_10306)">
<path d="M3.01106 293.699H1.23828" stroke="#009FE8" stroke-width="0.885889" stroke-miterlimit="10"/>
<path d="M503.761 335.55H501.988" stroke="#009FE8" stroke-width="0.885889" stroke-miterlimit="10"/>
</g>
<path d="M498.443 335.542H4.78418" stroke="#009FE8" stroke-width="0.885889" stroke-miterlimit="10" stroke-dasharray="3.54 3.54"/>
<mask id="mask17_12_10306" style="mask-type:luminance" maskUnits="userSpaceOnUse" x="0" y="0" width="505" height="420">
<path d="M504.5 0H0.5V420H504.5V0Z" fill="white"/>
</mask>
<g mask="url(#mask17_12_10306)">
<path d="M3.01106 335.541H1.23828" stroke="#009FE8" stroke-width="0.885889" stroke-miterlimit="10"/>
<path d="M503.761 377.392H501.988" stroke="#009FE8" stroke-width="0.885889" stroke-miterlimit="10"/>
</g>
<path d="M498.443 377.393H4.78418" stroke="#009FE8" stroke-width="0.885889" stroke-miterlimit="10" stroke-dasharray="3.54 3.54"/>
<mask id="mask18_12_10306" style="mask-type:luminance" maskUnits="userSpaceOnUse" x="0" y="0" width="505" height="420">
<path d="M504.5 0H0.5V420H504.5V0Z" fill="white"/>
</mask>
<g mask="url(#mask18_12_10306)">
<path d="M3.01106 377.395H1.23828" stroke="#009FE8" stroke-width="0.885889" stroke-miterlimit="10"/>
<path d="M503.761 84.4648H501.988" stroke="#009FE8" stroke-width="0.885889" stroke-miterlimit="10"/>
</g>
<path d="M498.443 84.458H4.78418" stroke="#009FE8" stroke-width="0.885889" stroke-miterlimit="10" stroke-dasharray="3.54 3.54"/>
<mask id="mask19_12_10306" style="mask-type:luminance" maskUnits="userSpaceOnUse" x="0" y="0" width="505" height="420">
<path d="M504.5 0H0.5V420H504.5V0Z" fill="white"/>
</mask>
<g mask="url(#mask19_12_10306)">
<path d="M3.01106 84.46H1.23828" stroke="#009FE8" stroke-width="0.885889" stroke-miterlimit="10"/>
<path d="M503.761 42.5898H501.988" stroke="#009FE8" stroke-width="0.885889" stroke-miterlimit="10"/>
</g>
<path d="M498.443 42.5879H4.78418" stroke="#009FE8" stroke-width="0.885889" stroke-miterlimit="10" stroke-dasharray="3.54 3.54"/>
<mask id="mask20_12_10306" style="mask-type:luminance" maskUnits="userSpaceOnUse" x="0" y="0" width="505" height="420">
<path d="M504.5 0H0.5V420H504.5V0Z" fill="white"/>
</mask>
<g mask="url(#mask20_12_10306)">
<path d="M3.01106 42.5898H1.23828" stroke="#009FE8" stroke-width="0.885889" stroke-miterlimit="10"/>
</g>
<path d="M252.5 55.4248V377.386" stroke="#E3007F" stroke-width="2" stroke-linejoin="round"/>
<path d="M252.501 335.544L126.87 293.7L85.0029 251.857V126.297L168.737 84.4238L252.501 126.297" stroke="#231815" stroke-width="2" stroke-linejoin="round"/>
<circle cx="252.5" cy="126" r="8" fill="#222222"/>
<circle cx="336.5" cy="84" r="8" fill="#222222"/>
<circle cx="420.5" cy="126" r="8" fill="#222222"/>
<circle cx="420.5" cy="252" r="8" fill="#222222"/>
<circle cx="378.5" cy="294" r="8" fill="#222222"/>
<circle cx="252.5" cy="336" r="8" fill="#222222"/>
<path d="M336.5 84L253 126" stroke="#222222" stroke-width="4"/>
<path d="M258.18 49.1172H255.203V40.0703H244.562V37.6562H258.18V49.1172Z" fill="#222222"/>
<path d="M259.414 396.789H245.586V385.656H248.586V394.398H259.414V396.789Z" fill="#222222"/>
</g>
<defs>
<clipPath id="clip0_12_10306">
<rect width="504" height="420" fill="white" transform="translate(0.5)"/>
</clipPath>
</defs>
</svg>
