<svg width="30" height="50" viewBox="0 0 30 50" fill="none" xmlns="http://www.w3.org/2000/svg">
<g clip-path="url(#clip0_13203_25649)">
<path d="M15.0033 39.2274C22.8618 39.2274 29.2313 32.8579 29.2313 24.9994C29.2313 17.141 22.8618 10.7715 15.0033 10.7715C7.14488 10.7715 0.775391 17.141 0.775391 24.9994C0.775391 32.8579 7.14488 39.2274 15.0033 39.2274Z" fill="white"/>
<path d="M15.0033 39.2274C22.8618 39.2274 29.2313 32.8579 29.2313 24.9994C29.2313 17.141 22.8618 10.7715 15.0033 10.7715C7.14488 10.7715 0.775391 17.141 0.775391 24.9994C0.775391 32.8579 7.14488 39.2274 15.0033 39.2274Z" stroke="#231F20" stroke-width="1.51654"/>
<path d="M22.5307 25H7.47559" stroke="#911C1A" stroke-width="3.03309" stroke-linecap="round" stroke-linejoin="round"/>
</g>
<defs>
<clipPath id="clip0_13203_25649">
<rect width="30" height="30" fill="white" transform="translate(0 10)"/>
</clipPath>
</defs>
</svg>
