<svg width="31" height="49" viewBox="0 0 31 49" fill="none" xmlns="http://www.w3.org/2000/svg">
<g clip-path="url(#clip0_13203_25636)">
<path d="M15.2279 38.4559C23.0864 38.4559 29.4559 32.0864 29.4559 24.2279C29.4559 16.3695 23.0864 10 15.2279 10C7.36949 10 1 16.3695 1 24.2279C1 32.0864 7.36949 38.4559 15.2279 38.4559Z" fill="white"/>
<path d="M15.2279 38.4559C23.0864 38.4559 29.4559 32.0864 29.4559 24.2279C29.4559 16.3695 23.0864 10 15.2279 10C7.36949 10 1 16.3695 1 24.2279C1 32.0864 7.36949 38.4559 15.2279 38.4559Z" stroke="#231F20" stroke-width="1.51654"/>
<path d="M15.2295 16.7012V31.7563" stroke="#911C1A" stroke-width="3.03309" stroke-linecap="round" stroke-linejoin="round"/>
<path d="M22.7553 24.2285H7.7002" stroke="#911C1A" stroke-width="3.03309" stroke-linecap="round" stroke-linejoin="round"/>
</g>
<defs>
<clipPath id="clip0_13203_25636">
<rect width="30.4559" height="48.4559" fill="white"/>
</clipPath>
</defs>
</svg>
