<svg width="551" height="218" viewBox="0 0 551 218" fill="none" xmlns="http://www.w3.org/2000/svg">
<mask id="mask0_460_1095" style="mask-type:alpha" maskUnits="userSpaceOnUse" x="0" y="0" width="551" height="218">
<path d="M550.5 0H0.5V218H550.5V0Z" fill="black"/>
</mask>
<g mask="url(#mask0_460_1095)">
<path d="M149.471 63.6758H46.4453V204.186H149.471V63.6758Z" fill="#F1E2D6"/>
<path d="M29.4453 199.406C33.8167 201.102 39.6453 202.479 46.4453 203.406" stroke="#00AEEF" stroke-width="2" stroke-miterlimit="10"/>
<path d="M46.4453 186.406C40.1478 187.124 34.6638 188.145 30.4453 189.406" stroke="#00AEEF" stroke-width="2" stroke-miterlimit="10"/>
<path d="M149.471 186.627H46.4453" stroke="#231F20" stroke-width="0.681537" stroke-miterlimit="10" stroke-dasharray="3.41 2.5"/>
<path d="M149.471 169.064H46.4453" stroke="#231F20" stroke-width="0.681537" stroke-miterlimit="10" stroke-dasharray="3.41 2.5"/>
<path d="M149.471 151.504H46.4453" stroke="#231F20" stroke-width="0.681537" stroke-miterlimit="10" stroke-dasharray="3.41 2.5"/>
<path d="M149.471 133.941H46.4453" stroke="#231F20" stroke-width="0.681537" stroke-miterlimit="10" stroke-dasharray="3.41 2.5"/>
<path d="M149.471 116.389H46.4453" stroke="#231F20" stroke-width="0.681537" stroke-miterlimit="10" stroke-dasharray="3.41 2.5"/>
<path d="M149.471 98.8281H46.4453" stroke="#231F20" stroke-width="0.681537" stroke-miterlimit="10" stroke-dasharray="3.41 2.5"/>
<path d="M149.471 81.2676H46.4453" stroke="#231F20" stroke-width="0.681537" stroke-miterlimit="10" stroke-dasharray="3.41 2.5"/>
<path d="M149.471 63.6758H46.4453" stroke="#231F20" stroke-width="0.681537" stroke-miterlimit="10" stroke-dasharray="3.41 2.5"/>
<path d="M149.471 46.1133H46.4453" stroke="#231F20" stroke-width="0.681537" stroke-miterlimit="10" stroke-dasharray="3.41 2.5"/>
<path d="M149.471 28.5605H46.4453" stroke="#231F20" stroke-width="0.681537" stroke-miterlimit="10" stroke-dasharray="3.41 2.5"/>
<path d="M149.471 11H46.4453V204.193H149.471V11Z" stroke="#58595B" stroke-width="1.13589" stroke-miterlimit="10"/>
<path d="M357.408 63.6758H254.383V204.186H357.408V63.6758Z" fill="#F1E2D6"/>
<path d="M357.408 186.627H254.383" stroke="#231F20" stroke-width="0.681537" stroke-miterlimit="10" stroke-dasharray="3.41 2.5"/>
<path d="M357.408 169.064H254.383" stroke="#231F20" stroke-width="0.681537" stroke-miterlimit="10" stroke-dasharray="3.41 2.5"/>
<path d="M357.408 151.504H254.383" stroke="#231F20" stroke-width="0.681537" stroke-miterlimit="10" stroke-dasharray="3.41 2.5"/>
<path d="M357.408 133.941H254.383" stroke="#231F20" stroke-width="0.681537" stroke-miterlimit="10" stroke-dasharray="3.41 2.5"/>
<path d="M357.408 116.389H254.383" stroke="#231F20" stroke-width="0.681537" stroke-miterlimit="10" stroke-dasharray="3.41 2.5"/>
<path d="M357.408 98.8281H254.383" stroke="#231F20" stroke-width="0.681537" stroke-miterlimit="10" stroke-dasharray="3.41 2.5"/>
<path d="M357.408 81.2676H254.383" stroke="#231F20" stroke-width="0.681537" stroke-miterlimit="10" stroke-dasharray="3.41 2.5"/>
<path d="M357.408 63.6758H254.383" stroke="#231F20" stroke-width="0.681537" stroke-miterlimit="10" stroke-dasharray="3.41 2.5"/>
<path d="M357.408 46.1133H254.383" stroke="#231F20" stroke-width="0.681537" stroke-miterlimit="10" stroke-dasharray="3.41 2.5"/>
<path d="M357.408 28.5605H254.383" stroke="#231F20" stroke-width="0.681537" stroke-miterlimit="10" stroke-dasharray="3.41 2.5"/>
<path d="M357.408 11H254.383V204.193H357.408V11Z" stroke="#58595B" stroke-width="1.13589" stroke-miterlimit="10"/>
<path d="M252.044 151.498H359.727C363.271 151.498 366.156 154.383 366.156 157.927V197.729C366.156 201.273 363.271 204.158 359.727 204.158H252.044C248.5 204.158 245.615 201.273 245.615 197.729V157.927C245.615 154.383 248.5 151.498 252.044 151.498Z" stroke="#ED1C24" stroke-width="2.27179"/>
<path d="M252.044 98.8145H359.727C363.271 98.8145 366.156 101.7 366.156 105.244V145.045C366.156 148.589 363.271 151.474 359.727 151.474H252.044C248.5 151.474 245.615 148.589 245.615 145.045V105.244C245.615 101.7 248.5 98.8145 252.044 98.8145Z" stroke="#ED1C24" stroke-width="2.27179"/>
<path d="M252.044 46.1094H359.727C363.271 46.1094 366.156 48.9946 366.156 52.5385V92.3403C366.156 95.8842 363.271 98.7695 359.727 98.7695H252.044C248.5 98.7695 245.615 95.8842 245.615 92.3403V52.5385C245.615 48.9946 248.5 46.1094 252.044 46.1094Z" stroke="#ED1C24" stroke-width="2.27179"/>
<path d="M548.535 151.504H445.486V204.187H548.535V151.504Z" fill="#F1E2D6"/>
<path d="M548.535 186.627H445.486" stroke="#231F20" stroke-width="0.681537" stroke-miterlimit="10" stroke-dasharray="3.41 2.5"/>
<path d="M548.512 151.496H445.486V204.179H548.512V151.496Z" stroke="#58595B" stroke-width="1.13589" stroke-miterlimit="10"/>
<path d="M548.535 186.627H445.486" stroke="#231F20" stroke-width="0.681537" stroke-miterlimit="10" stroke-dasharray="3.41 2.5"/>
<path d="M548.535 169.064H445.486" stroke="#231F20" stroke-width="0.681537" stroke-miterlimit="10" stroke-dasharray="3.41 2.5"/>
<path d="M548.535 91.416H445.486V144.099H548.535V91.416Z" fill="#F1E2D6"/>
<path d="M548.512 91.418H445.486V144.101H548.512V91.418Z" stroke="#58595B" stroke-width="1.13589" stroke-miterlimit="10"/>
<path d="M548.535 126.543H445.486" stroke="#231F20" stroke-width="0.681537" stroke-miterlimit="10" stroke-dasharray="3.41 2.5"/>
<path d="M548.535 108.977H445.486" stroke="#231F20" stroke-width="0.681537" stroke-miterlimit="10" stroke-dasharray="3.41 2.5"/>
<path d="M548.535 48.8945H445.486V84.0164H548.535V48.8945Z" fill="#F1E2D6"/>
<path d="M548.512 31.3281H445.486V84.0109H548.512V31.3281Z" stroke="#58595B" stroke-width="1.13589" stroke-miterlimit="10"/>
<path d="M548.535 66.4551H445.486" stroke="#231F20" stroke-width="0.681537" stroke-miterlimit="10" stroke-dasharray="3.41 2.5"/>
<path d="M548.535 48.8945H445.486" stroke="#231F20" stroke-width="0.681537" stroke-miterlimit="10" stroke-dasharray="3.41 2.5"/>
<path d="M209.311 119.018L219.852 107.591L209.311 96.1641" stroke="#6B9BD2" stroke-width="5.67947" stroke-linecap="round" stroke-linejoin="round"/>
<path d="M195.748 107.594H213.059" stroke="#6B9BD2" stroke-width="11.3589" stroke-linecap="round"/>
<path d="M409.182 119.018L419.723 107.614L409.182 96.1641" stroke="#6B9BD2" stroke-width="5.67947" stroke-linecap="round" stroke-linejoin="round"/>
<path d="M395.619 107.594H412.953" stroke="#6B9BD2" stroke-width="11.3589" stroke-linecap="round"/>
</g>
<path d="M18.7715 158.445V174H15.5273V161.518H15.4414L11.875 163.752V160.895L15.7207 158.445H18.7715Z" fill="#222222"/>
<path d="M5.5 182H26.5" stroke="#222222" stroke-width="2" stroke-linecap="square"/>
<path d="M13.8652 190.445V206H10.6211V193.518H10.5352L6.96875 195.752V192.895L10.8145 190.445H13.8652ZM23.6777 190.445V206H20.4336V193.518H20.3477L16.7812 195.752V192.895L20.627 190.445H23.6777Z" fill="#222222"/>
<path d="M167.914 22H164.375V8.38281H164.281L160.391 10.8203V7.70312L164.586 5.03125H167.914V22Z" fill="#231F20"/>
<path d="M167.188 208.234C165.773 208.234 164.555 207.895 163.531 207.215C162.516 206.527 161.734 205.531 161.188 204.227C160.641 202.922 160.367 201.352 160.367 199.516C160.367 197.68 160.641 196.109 161.188 194.805C161.734 193.5 162.516 192.508 163.531 191.828C164.555 191.141 165.773 190.797 167.188 190.797C168.594 190.797 169.809 191.141 170.832 191.828C171.855 192.508 172.641 193.504 173.188 194.816C173.734 196.121 174.008 197.688 174.008 199.516C174.008 201.359 173.734 202.934 173.188 204.238C172.641 205.543 171.855 206.535 170.832 207.215C169.816 207.895 168.602 208.234 167.188 208.234ZM167.188 205.328C167.844 205.328 168.41 205.117 168.887 204.695C169.371 204.273 169.742 203.637 170 202.785C170.266 201.934 170.398 200.883 170.398 199.633C170.398 197.688 170.117 196.211 169.555 195.203C168.992 194.188 168.203 193.68 167.188 193.68C166.172 193.68 165.383 194.188 164.82 195.203C164.258 196.211 163.977 197.688 163.977 199.633C163.977 200.883 164.105 201.934 164.363 202.785C164.629 203.637 165 204.273 165.477 204.695C165.961 205.117 166.531 205.328 167.188 205.328Z" fill="#231F20"/>
</svg>
