<svg width="30" height="30" viewBox="0 0 30 30" fill="none" xmlns="http://www.w3.org/2000/svg">
<path fill-rule="evenodd" clip-rule="evenodd" d="M7.91442 4.24138V5.37923H2.55556C1.69645 5.37923 1 6.07396 1 6.93095C1 7.78795 1.69645 8.48268 2.55556 8.48268H3.76628V25.7586C3.76628 26.8964 4.23134 27.9793 5.04587 28.7715C5.85907 29.5624 6.95379 30 8.08726 30H21.9144C23.0479 30 24.1426 29.5624 24.9558 28.7715C25.7703 27.9793 26.2354 26.8964 26.2354 25.7586V8.48268H27.4444C28.3036 8.48268 29 7.78795 29 6.93095C29 6.07396 28.3036 5.37923 27.4444 5.37923H22.0873V4.24138C22.0873 3.10364 21.6222 2.02068 20.8077 1.22847C19.9945 0.437561 18.8997 0 17.7663 0H12.2354C11.1019 0 10.0072 0.437561 9.19402 1.22847C8.37949 2.02068 7.91442 3.10364 7.91442 4.24138ZM12.2354 3.10345C11.902 3.10345 11.5899 3.23263 11.3659 3.45054C11.1432 3.66715 11.0255 3.95244 11.0255 4.24138V5.37923H18.9762V4.24138C18.9762 3.95244 18.8585 3.66715 18.6358 3.45054C18.4118 3.23263 18.0997 3.10345 17.7663 3.10345H12.2354ZM9.90039 12.1037C10.7595 12.1037 11.4559 12.7984 11.4559 13.6554V21.7244C11.4559 22.5814 10.7595 23.2761 9.90039 23.2761C9.04128 23.2761 8.34484 22.5814 8.34484 21.7244V13.6554C8.34484 12.7984 9.04128 12.1037 9.90039 12.1037ZM15.4329 12.1037C16.2921 12.1037 16.9885 12.7984 16.9885 13.6554V21.7244C16.9885 22.5814 16.2921 23.2761 15.4329 23.2761C14.5738 23.2761 13.8774 22.5814 13.8774 21.7244V13.6554C13.8774 12.7984 14.5738 12.1037 15.4329 12.1037ZM22.3889 13.6554C22.3889 12.7984 21.6924 12.1037 20.8333 12.1037C19.9742 12.1037 19.2778 12.7984 19.2778 13.6554V21.7244C19.2778 22.5814 19.9742 23.2761 20.8333 23.2761C21.6924 23.2761 22.3889 22.5814 22.3889 21.7244V13.6554Z" fill="#222222"/>
</svg>
