<svg width="24" height="24" viewBox="0 0 24 24" fill="none" xmlns="http://www.w3.org/2000/svg">
<path fill-rule="evenodd" clip-rule="evenodd" d="M12 2.40039C12.6628 2.40039 13.2 2.93765 13.2 3.60039V10.8004L20.4 10.8004C21.0628 10.8004 21.6 11.3376 21.6 12.0004C21.6 12.6631 21.0628 13.2004 20.4 13.2004H13.2V20.4004C13.2 21.0631 12.6628 21.6004 12 21.6004C11.3373 21.6004 10.8 21.0631 10.8 20.4004V13.2004L3.60002 13.2004C2.93728 13.2004 2.40002 12.6631 2.40002 12.0004C2.40002 11.3376 2.93728 10.8004 3.60002 10.8004L10.8 10.8004V3.60039C10.8 2.93765 11.3373 2.40039 12 2.40039Z" fill="#222222"/>
</svg>
