<svg width="525" height="307" viewBox="0 0 525 307" fill="none" xmlns="http://www.w3.org/2000/svg">
<path d="M522.921 245.489V158.571V110.283V47.6385C522.921 23.1029 503.083 3.26562 478.287 3.26562H166.633C142.097 3.26562 121.999 23.1029 121.999 47.6385V51.2927H69.5345C36.6464 51.2927 10.0227 77.9164 10.0227 110.544V238.442C10.0227 271.069 36.6464 305.001 69.5345 305.001H463.409C496.297 304.74 522.921 278.116 522.921 245.489Z" stroke="#FCE4D6" stroke-width="3.91525"/>
<path d="M74.2327 86.7864C133.223 86.7864 145.49 66.9491 145.49 42.4135C145.49 17.878 131.917 3 74.2327 3C16.548 3 2.97515 17.878 2.97515 42.4135C2.71413 66.9491 15.2429 86.7864 74.2327 86.7864Z" fill="#FDE8D0"/>
<path d="M74.2327 86.7864C133.223 86.7864 145.49 66.9491 145.49 42.4135C145.49 17.878 131.917 3 74.2327 3C16.548 3 2.97515 17.878 2.97515 42.4135C2.71413 66.9491 15.2429 86.7864 74.2327 86.7864Z" stroke="white" stroke-width="5.22034"/>
<path d="M134.789 48.1562C134.789 48.1562 129.568 68.5156 89.6328 75.824C89.6328 75.824 132.701 81.3054 134.789 48.1562Z" fill="#FAD09E"/>
<path d="M134.789 48.1562C134.789 48.1562 129.568 68.5156 89.6328 75.824C89.6328 75.824 132.701 81.3054 134.789 48.1562Z" stroke="#FAD09E" stroke-width="1.30508" stroke-linecap="round" stroke-linejoin="round"/>
</svg>
