<svg width="660" height="201" viewBox="0 0 660 201" fill="none" xmlns="http://www.w3.org/2000/svg">
<path d="M197.828 0.984375C166.146 3.66923 139.835 11.7238 125.873 22.1947" stroke="#00A0E9" stroke-miterlimit="10" stroke-dasharray="2.93 2.93"/>
<path d="M249.914 0.984375C279.447 3.66923 304.148 11.7238 317.304 22.1947" stroke="#00A0E9" stroke-miterlimit="10" stroke-dasharray="2.93 2.93"/>
<path d="M120.235 200.205C151.917 196.983 178.228 187.854 192.189 175.504" stroke="#00A0E9" stroke-miterlimit="10" stroke-dasharray="2.93 2.93"/>
<path d="M68.1492 200.205C38.6159 196.983 13.9152 187.854 0.75946 175.504" stroke="#00A0E9" stroke-miterlimit="10" stroke-dasharray="2.93 2.93"/>
<path d="M192.189 175.501H0.75946L125.874 23.2695H317.304L192.189 175.501Z" stroke="black" stroke-miterlimit="10" stroke-linejoin="round"/>
<path d="M633.848 66.2222C617.739 42.5955 596.26 27.0234 576.124 22.9961" stroke="#00A0E9" stroke-miterlimit="10" stroke-dasharray="2.93 2.93"/>
<path d="M652.105 175.505C661.234 156.443 661.502 128.789 651.3 100.598" stroke="#00A0E9" stroke-miterlimit="10" stroke-dasharray="2.93 2.93"/>
<path d="M409.931 131.203C426.309 155.904 448.325 172.281 468.729 176.309" stroke="#00A0E9" stroke-miterlimit="10" stroke-dasharray="2.93 2.93"/>
<path d="M393.017 24.082C384.425 42.0705 383.888 67.3082 391.943 93.6197" stroke="#00A0E9" stroke-miterlimit="10" stroke-dasharray="2.93 2.93"/>
<path d="M468.998 175.766H652.105L576.123 23.5352H393.285L468.998 175.766Z" stroke="black" stroke-miterlimit="10" stroke-linejoin="round"/>
</svg>
