<svg width="660" height="201" viewBox="0 0 660 201" fill="none" xmlns="http://www.w3.org/2000/svg">
<path d="M197.828 0.78125C166.146 3.4661 139.835 11.5207 125.873 21.9916" stroke="#00A0E9" stroke-miterlimit="10" stroke-dasharray="2.93 2.93"/>
<path d="M249.914 0.78125C279.447 3.4661 304.148 11.5207 317.304 21.9916" stroke="#00A0E9" stroke-miterlimit="10" stroke-dasharray="2.93 2.93"/>
<path d="M120.235 200.001C151.917 196.78 178.228 187.651 192.189 175.301" stroke="#00A0E9" stroke-miterlimit="10" stroke-dasharray="2.93 2.93"/>
<path d="M68.1492 200.001C38.6159 196.78 13.9152 187.651 0.75946 175.301" stroke="#00A0E9" stroke-miterlimit="10" stroke-dasharray="2.93 2.93"/>
<path d="M192.189 175.295H0.75946L125.874 23.332H317.304L192.189 175.295Z" stroke="black" stroke-miterlimit="10" stroke-linejoin="round"/>
<path d="M633.848 66.023C617.739 42.3963 596.26 26.8242 576.124 22.7969" stroke="#00A0E9" stroke-miterlimit="10" stroke-dasharray="2.93 2.93"/>
<path d="M652.105 175.294C661.234 156.232 661.502 128.578 651.3 100.387" stroke="#00A0E9" stroke-miterlimit="10" stroke-dasharray="2.93 2.93"/>
<path d="M409.931 131.258C426.309 155.958 448.325 172.336 468.729 176.363" stroke="#00A0E9" stroke-miterlimit="10" stroke-dasharray="2.93 2.93"/>
<path d="M393.017 23.8711C384.425 41.8596 383.888 67.0972 391.943 93.4088" stroke="#00A0E9" stroke-miterlimit="10" stroke-dasharray="2.93 2.93"/>
<path d="M468.998 175.563H652.105L576.123 23.332H393.285L468.998 175.563Z" stroke="black" stroke-miterlimit="10" stroke-linejoin="round"/>
<path d="M170.442 23.8711V175.297" stroke="#00A0E9" stroke-miterlimit="10" stroke-linejoin="round"/>
<path d="M431.678 100.389L594.917 60.9219" stroke="#00A0E9" stroke-miterlimit="10" stroke-linejoin="round"/>
</svg>
