<svg width="1408" height="520" viewBox="0 0 1408 520" fill="none" xmlns="http://www.w3.org/2000/svg">
<g clip-path="url(#clip0_126_2157)">
<path d="M573.212 479.91C573.212 457.859 555.419 440 533.434 440C522.309 440 512.241 444.622 505.011 452.016C497.782 444.622 487.747 440 476.589 440C465.432 440 455.396 444.622 448.167 452.016C440.971 444.622 430.902 440 419.778 440C397.793 440 380 457.859 380 479.91C380 501.961 397.793 519.82 419.778 519.82C430.902 519.82 440.971 515.198 448.2 507.804C455.429 515.198 465.465 519.82 476.622 519.82C487.78 519.82 497.815 515.198 505.044 507.804C512.274 515.198 522.309 519.82 533.467 519.82C555.419 519.82 573.245 501.961 573.245 479.91" fill="#FBB785"/>
<path d="M541.853 502.291L543.536 506.417" stroke="#FEE0C8" stroke-width="4.95161" stroke-linecap="round" stroke-linejoin="round"/>
<path d="M557.301 488.162L561.328 490.506" stroke="#FEE0C8" stroke-width="4.95161" stroke-linecap="round" stroke-linejoin="round"/>
<path d="M550.37 496.58L553.836 500.607" stroke="#FEE0C8" stroke-width="4.95161" stroke-linecap="round" stroke-linejoin="round"/>
</g>
<g clip-path="url(#clip1_126_2157)">
<path d="M139 28.7119C139 12.8479 126.199 0 110.383 0C102.38 0 95.1363 3.32479 89.9353 8.64446C84.7344 3.32479 77.5149 0 69.4879 0C61.4609 0 54.2413 3.32479 49.0404 8.64446C43.8632 3.32479 36.62 0 28.6167 0C12.8002 0 -0.000244141 12.8479 -0.000244141 28.7119C-0.000244141 44.5759 12.8002 57.4239 28.6167 57.4239C36.62 57.4239 43.8632 54.0991 49.0642 48.7794C54.2651 54.0991 61.4846 57.4239 69.5116 57.4239C77.5386 57.4239 84.7582 54.0991 89.9591 48.7794C95.16 54.0991 102.38 57.4239 110.407 57.4239C126.199 57.4239 139.024 44.5759 139.024 28.7119" fill="#FBB785"/>
<path d="M116.439 44.8125L117.651 47.7811" stroke="#FEE0C8" stroke-width="3.56228" stroke-linecap="round" stroke-linejoin="round"/>
<path d="M127.553 34.6484L130.451 36.3346" stroke="#FEE0C8" stroke-width="3.56228" stroke-linecap="round" stroke-linejoin="round"/>
<path d="M122.566 40.7051L125.06 43.6024" stroke="#FEE0C8" stroke-width="3.56228" stroke-linecap="round" stroke-linejoin="round"/>
</g>
<g clip-path="url(#clip2_126_2157)">
<path d="M1407.69 254.883C1407.69 207.954 1369.83 169.947 1323.04 169.947C1299.36 169.947 1277.93 179.783 1262.55 195.519C1247.16 179.783 1225.81 169.947 1202.06 169.947C1178.32 169.947 1156.96 179.783 1141.57 195.519C1126.26 179.783 1104.83 169.947 1081.16 169.947C1034.37 169.947 996.5 207.954 996.5 254.883C996.5 301.813 1034.37 339.82 1081.16 339.82C1104.83 339.82 1126.26 329.984 1141.64 314.247C1157.03 329.984 1178.39 339.82 1202.13 339.82C1225.88 339.82 1247.23 329.984 1262.62 314.247C1278 329.984 1299.36 339.82 1323.11 339.82C1369.83 339.82 1407.76 301.813 1407.76 254.883" fill="#FBB785"/>
<path d="M1340.96 302.516L1344.54 311.297" stroke="#FEE0C8" stroke-width="10.538" stroke-linecap="round" stroke-linejoin="round"/>
<path d="M1373.83 272.447L1382.4 277.435" stroke="#FEE0C8" stroke-width="10.538" stroke-linecap="round" stroke-linejoin="round"/>
<path d="M1359.08 290.361L1366.45 298.932" stroke="#FEE0C8" stroke-width="10.538" stroke-linecap="round" stroke-linejoin="round"/>
</g>
<g clip-path="url(#clip3_126_2157)">
<path d="M85.4359 21.6182L85.1165 39.7952L82.3191 39.7442L82.4468 32.3865L76.7114 32.2843L76.7625 29.4358L82.4979 29.5379L82.6384 21.6055H85.4359V21.6182ZM67.5526 36.7679L67.757 23.2788L76.7242 23.4321L76.6731 26.1657L70.7844 26.0635L70.6311 34.7369C70.6694 35.5671 71.0782 36.027 71.768 36.1292C73.8373 36.2825 75.9322 36.1036 78.0399 35.6566L77.9888 38.4157C74.8337 39.0033 72.0873 39.1693 69.7625 38.8883C68.4851 38.6456 67.7443 37.9303 67.5271 36.7679" fill="#00646B"/>
<path d="M97.7909 27.2516L97.9442 32.6038L100.742 32.5272L100.793 34.4304L97.9952 34.5071L98.1358 39.3739L96.2708 39.425L95.9259 27.3283L97.7909 27.2516ZM86.9971 30.3173L94.3164 30.1129L94.3675 31.9268L87.0482 32.1312L86.9971 30.3173ZM87.1376 28.8483L87.0865 27.0089L93.4861 26.8301L93.5372 28.6695L87.1376 28.8483ZM90.7015 35.1075C89.654 35.3374 89.1942 35.8611 89.2836 36.6786C89.3985 37.3684 89.8967 37.7261 90.7909 37.7772C92.0555 37.7644 92.6814 37.2151 92.6814 36.1549C92.5792 35.2607 91.9277 34.9031 90.6887 35.1075M90.7781 33.2169C93.1285 33.1148 94.3803 34.0345 94.508 36.0399C94.4952 38.1604 93.3584 39.3483 91.0974 39.591C89.0409 39.6549 87.8529 38.7991 87.508 37.0618C87.2653 34.8009 88.3639 33.5235 90.7781 33.2297" fill="#9E280E"/>
<path d="M113.541 27.9039L113.247 33.2433L116.044 33.3966L115.942 35.2999L113.145 35.1466L112.876 40.0006L111.012 39.8984L111.676 27.8145L113.541 27.9039ZM102.172 37.5864L102.645 28.6064L108.623 28.9385L108.521 30.7524L104.599 30.5353L104.28 36.309C104.28 36.8582 104.548 37.1776 105.008 37.267C106.375 37.4203 107.78 37.3564 109.198 37.1137L109.095 38.9531C106.975 39.2597 105.148 39.3108 103.603 39.0553C102.76 38.8637 102.274 38.3655 102.172 37.5864Z" fill="#9E280E"/>
<path d="M29.2699 32.3739C29.9341 32.4761 30.2918 32.3228 30.3301 31.9013V31.1093C30.2918 30.675 29.9341 30.4962 29.2954 30.509L20.1494 30.394L20.175 27.6349L31.2115 27.7626C32.5527 27.686 33.268 28.248 33.4086 29.4487C33.4596 30.3685 33.2936 31.6841 32.987 33.4597C32.6805 34.4688 31.9268 34.9542 30.7516 34.9287L23.0363 34.8393V35.6695C23.0746 36.2827 23.4834 36.5893 24.237 36.602C27.1239 36.8192 30.2662 36.7681 33.6513 36.436L33.6257 38.9779C29.9469 39.2973 26.1659 39.3484 22.2954 39.1185C21.018 38.9141 20.2899 38.1987 20.0728 36.9469C19.894 34.9798 19.8556 33.4214 19.9834 32.259L29.2699 32.3739ZM23.4961 12.0382L23.4195 16.5473C23.4706 17.4031 23.841 17.8119 24.5436 17.7863C27.8009 18.1312 30.8921 18.144 33.779 17.7863L33.7534 20.3922C32.144 20.6477 30.4323 20.7754 28.5673 20.7882L28.5418 22.8703L35.2991 22.9469L35.2735 25.6805L18.4761 25.4761L18.5016 22.7809L25.5783 22.8703V20.6987C24.5819 20.6604 23.5728 20.5582 22.487 20.4177C21.0308 20.2772 20.3155 19.5619 20.2644 18.3356L20.3666 12.0254L23.5089 12.0637L23.4961 12.0382Z" fill="#00646B"/>
<path d="M48.3935 26.8178L47.7676 39.6809L45.8132 39.5915L46.4263 26.7539L48.4062 26.8305L48.3935 26.8178ZM39.5157 29.7174C38.4555 29.8579 37.8935 31.1864 37.8679 33.6645C37.8168 35.7466 38.2511 36.8324 39.1964 36.8962C40.4738 36.9601 41.1763 35.7977 41.3041 33.3835C41.4062 30.9054 40.7931 29.6791 39.5157 29.7046M39.7584 27.6481C42.3004 27.6481 43.5139 29.5897 43.3862 33.4346C43.1307 37.0751 41.7895 38.9017 39.3497 38.9145C37.1143 38.9145 35.9391 37.2539 35.7986 33.9455C35.8241 29.9218 37.1398 27.8397 39.7584 27.6608" fill="#9E280E"/>
<path d="M57.706 35.3372C58.1531 35.3755 58.383 35.2478 58.3958 34.9412V34.6602C58.3447 34.3792 58.1147 34.2514 57.6932 34.277L51.5874 34.3536L51.5618 32.5398L58.9195 32.4376C59.8136 32.3865 60.299 32.7441 60.414 33.5489C60.4651 34.162 60.3757 34.954 60.1969 35.9503C60.0052 36.6529 59.5071 36.985 58.7279 36.985L53.5801 37.0489V37.3938C53.6312 37.8025 53.8994 38.0069 54.4104 37.9941C56.3392 38.0963 58.4341 37.9941 60.6823 37.7259L60.7078 39.3993C58.268 39.6803 55.7388 39.7697 53.1585 39.6803C52.3027 39.6036 51.8045 39.1438 51.6385 38.2879C51.4852 37.1383 51.4341 36.1803 51.5107 35.4011L57.706 35.3244V35.3372ZM50.3611 29.3591L61.5636 29.193L61.5892 31.0069L50.3866 31.1602L50.3611 29.3591ZM57.6293 23.2916C57.9742 23.3044 58.1658 23.1383 58.1914 22.7679C58.1914 22.423 57.9487 22.2569 57.5016 22.2697L51.5235 22.3463L51.4979 20.5836L58.664 20.4941C59.4943 20.4941 59.9925 20.8646 60.133 21.6821L60.1585 23.662C60.1074 24.5562 59.6348 25.016 58.7151 25.016L53.4268 25.0799C53.3885 25.3098 53.3885 25.5142 53.4523 25.6675C53.4906 25.8463 53.7717 25.9485 54.2315 25.9868C56.9523 26.1146 59.0472 25.9868 60.4779 25.642L60.5034 27.4558C58.4085 27.9157 55.8921 28.0434 52.9669 27.8646C52.1111 27.7879 51.6257 27.3281 51.4596 26.4978L51.4213 23.3682L57.6166 23.2916H57.6293Z" fill="#9E280E"/>
</g>
<defs>
<clipPath id="clip0_126_2157">
<rect width="193.212" height="79.82" fill="white" transform="translate(380 440)"/>
</clipPath>
<clipPath id="clip1_126_2157">
<rect width="139" height="57.4239" fill="white"/>
</clipPath>
<clipPath id="clip2_126_2157">
<rect width="411.192" height="169.872" fill="white" transform="translate(996.5 169.947)"/>
</clipPath>
<clipPath id="clip3_126_2157">
<rect width="97.5785" height="28" fill="white" transform="translate(18.4512 12)"/>
</clipPath>
</defs>
</svg>
