<svg width="216" height="216" viewBox="0 0 216 216" fill="none" xmlns="http://www.w3.org/2000/svg">
<ellipse cx="108" cy="204" rx="36" ry="4" fill="black"/>
<path d="M156.596 116.649C157.437 105.729 164.792 103.713 169.955 101.527L165.291 91.4366L170.075 62.9646C176.96 70.1158 180.478 76.6812 183.324 84.1464C189.295 99.8084 186.609 115.221 183.324 119.758C165.216 134.411 157.454 124.195 156.596 116.649Z" fill="#2AC4A4"/>
<path d="M59.401 116.649C58.56 105.729 53.3474 104.581 48.184 102.395L50.7053 91.4366L45.9222 62.9646C39.0364 70.1158 35.5184 76.6812 32.6725 84.1464C26.7018 99.8084 29.3875 115.221 32.6725 119.758C50.7811 134.411 58.5427 124.195 59.401 116.649Z" fill="#2AC4A4"/>
<path d="M135.242 189.346L135.443 120.192L113.871 131.556V194.535C113.871 203.606 122.897 203.587 128.437 203.862C141.232 203.862 143.229 200.155 143.229 196.856C143.229 191.579 138.274 189.621 135.242 189.346Z" fill="#2AC4A4" stroke="#0A0508" stroke-width="2.93578" stroke-linecap="round" stroke-linejoin="round"/>
<path d="M80.757 189.346L80.5567 120.192L102.128 131.556V194.535C102.128 203.606 93.1026 203.587 87.5623 203.862C74.7676 203.862 72.7704 200.155 72.7705 196.856C72.7705 191.579 77.7256 189.621 80.757 189.346Z" fill="#2AC4A4" stroke="#0A0508" stroke-width="2.93578" stroke-linecap="round" stroke-linejoin="round"/>
<circle cx="108" cy="71.3854" r="62.3854" fill="#2AC4A4" stroke="black" stroke-width="2.93578"/>
<path d="M123.779 64.7815C117.617 68.7761 108 68.4445 108 68.4445C108 68.4445 98.3821 68.7761 92.2197 64.7815" stroke="black" stroke-width="2.93578" stroke-linecap="round"/>
<circle cx="97.3567" cy="41.2951" r="2.93578" fill="black"/>
<circle cx="117.907" cy="41.2952" r="2.93578" fill="black"/>
<path d="M105.43 41.6622L110.568 41.6622" stroke="black" stroke-width="2.93578" stroke-linecap="round"/>
<circle cx="93.687" cy="41.2948" r="11.7431" stroke="black" stroke-width="2.93578"/>
<circle cx="93.687" cy="41.2948" r="11.7431" stroke="black" stroke-width="2.93578"/>
<circle cx="122.311" cy="41.2946" r="11.7431" stroke="black" stroke-width="2.93578"/>
<circle cx="122.311" cy="41.2946" r="11.7431" stroke="black" stroke-width="2.93578"/>
<mask id="path-13-inside-1_113_8" fill="white">
<path d="M150.684 102.55L167.921 92.8734L174.502 106.996L183.782 126.913C181.658 133.185 174.47 134.257 171.141 134.009L159.172 115.602L150.684 102.55Z"/>
</mask>
<path d="M150.684 102.55L167.921 92.8734L174.502 106.996L183.782 126.913C181.658 133.185 174.47 134.257 171.141 134.009L159.172 115.602L150.684 102.55Z" fill="#C7C7CD"/>
<path d="M158.655 116.98C160.838 117.802 164.302 118.314 167.682 117.142C171.161 115.935 174.339 113.014 175.912 107.391L173.092 106.602C171.754 111.384 169.216 113.499 166.732 114.361C164.149 115.257 161.403 114.869 159.689 114.224L158.655 116.98ZM150.684 102.55L149.261 99.9822L146.514 101.524L148.231 104.164L150.684 102.55ZM167.921 92.8734L170.575 91.6201L169.244 88.7641L166.498 90.3059L167.921 92.8734ZM171.141 134.009L168.687 135.623L169.476 136.836L170.917 136.944L171.141 134.009ZM159.172 115.602L156.718 117.216L159.172 115.602ZM174.502 106.996L177.155 105.743L177.155 105.743L174.502 106.996ZM183.782 126.913L186.555 127.854L186.934 126.732L186.435 125.66L183.782 126.913ZM152.108 105.117L169.345 95.4409L166.498 90.3059L149.261 99.9822L152.108 105.117ZM173.595 132.396L161.626 113.988L156.718 117.216L168.687 135.623L173.595 132.396ZM161.626 113.988L153.138 100.936L148.231 104.164L156.718 117.216L161.626 113.988ZM165.268 94.1267L171.848 108.25L177.155 105.743L170.575 91.6201L165.268 94.1267ZM171.848 108.25L181.128 128.167L186.435 125.66L177.155 105.743L171.848 108.25ZM170.917 136.944C172.951 137.095 176.048 136.852 179.018 135.628C182.047 134.381 185.147 132.012 186.555 127.854L181.009 125.973C180.293 128.087 178.737 129.39 176.809 130.184C174.822 131.003 172.66 131.172 171.366 131.075L170.917 136.944Z" fill="black" mask="url(#path-13-inside-1_113_8)"/>
<path d="M170.389 79.9306C171.73 91.0526 163.858 101.148 152.826 102.495C141.794 103.842 131.75 95.9353 130.409 84.8133C129.067 73.6914 136.939 63.5962 147.971 62.2489C159.003 60.9016 169.047 68.8087 170.389 79.9306Z" fill="#FFDE6A" stroke="black" stroke-width="2.93578"/>
<path d="M186.221 113.612C184.028 111.407 179.15 105.772 175.069 103.139L167.211 104.057L158.81 107.548C154.85 113.612 152.811 126.363 169.038 128.862C172.571 128.862 176.682 129.339 183.845 118.021L186.221 113.612Z" fill="#2AC4A4"/>
<path d="M173.83 102.765C170.103 102.101 159.253 103.811 156.597 111.739C155.076 116.28 155.073 124.149 163.163 127.604C171.254 131.058 182.403 125.734 186.837 111.74C188.906 105.212 186.782 89.0548 178.295 74.9222C173.565 67.0436 170.721 62.416 169.102 58.542" stroke="black" stroke-width="2.93578" stroke-linecap="round"/>
<path d="M29.7786 113.612C31.9715 111.407 36.8499 105.772 40.9311 103.139L48.789 104.057L57.1899 107.548C61.1493 113.612 63.189 126.363 46.9616 128.862C43.4285 128.862 39.3177 129.339 32.1543 118.021L29.7786 113.612Z" fill="#2AC4A4"/>
<path d="M42.1703 102.765C45.8972 102.101 56.7472 103.811 59.4035 111.739C60.9247 116.28 60.9271 124.149 52.8369 127.604C44.7466 131.058 33.5968 125.734 29.1629 111.74C27.0945 105.212 29.2184 89.0548 37.7048 74.9222C42.4355 67.0436 45.279 62.416 46.8978 58.542" stroke="black" stroke-width="2.93578" stroke-linecap="round"/>
<path d="M50.1014 96.3397C49.184 97.4406 48.2666 101.294 49.5509 103.679" stroke="black" stroke-width="2.93578"/>
</svg>
