<svg width="40" height="40" viewBox="0 0 40 40" fill="none" xmlns="http://www.w3.org/2000/svg">
<g id="ic-sound">
<path id="Union" fill-rule="evenodd" clip-rule="evenodd" d="M23 10.0037C23 8.31065 21.0276 7.38346 19.724 8.46365L13.5551 13.575C13.1963 13.8723 12.745 14.0349 12.2791 14.0349H7C5.89543 14.0349 5 14.9304 5 16.0349V24.4635C5 25.5681 5.89543 26.4635 7 26.4635H12.2791C12.745 26.4635 13.1963 26.6262 13.5551 26.9235L19.724 32.0348C21.0276 33.115 23 32.1878 23 30.4947V10.0037ZM26.4403 12.5357C26.8347 12.149 27.4678 12.1552 27.8545 12.5495C29.7992 14.5327 31 17.2525 31 20.2507C31 23.3276 29.7354 26.1109 27.7 28.1062C27.3057 28.4928 26.6725 28.4865 26.2859 28.0921C25.8993 27.6977 25.9056 27.0646 26.3 26.678C27.9674 25.0434 29 22.7685 29 20.2507C29 17.797 28.0194 15.5743 26.4265 13.9498C26.0398 13.5555 26.046 12.9223 26.4403 12.5357ZM32.2187 8.42973C31.8347 8.03282 31.2016 8.02237 30.8047 8.4064C30.4077 8.79042 30.3973 9.4235 30.7813 9.82042C33.3939 12.5207 35 16.1964 35 20.2494C35 24.3023 33.3939 27.9781 30.7813 30.6784C30.3973 31.0753 30.4077 31.7084 30.8047 32.0924C31.2016 32.4764 31.8347 32.466 32.2187 32.0691C35.1776 29.0108 37 24.8419 37 20.2494C37 15.6569 35.1776 11.488 32.2187 8.42973Z" fill="url(#paint0_linear_5792_20719)"/>
</g>
<defs>
<linearGradient id="paint0_linear_5792_20719" x1="21" y1="7.99988" x2="21" y2="32.4986" gradientUnits="userSpaceOnUse">
<stop stop-color="#3B71FE"/>
<stop offset="1" stop-color="#07BBA9"/>
</linearGradient>
</defs>
</svg>
