<svg width="40" height="40" viewBox="0 0 40 40" fill="none" xmlns="http://www.w3.org/2000/svg">
<path fill-rule="evenodd" clip-rule="evenodd" d="M4 20C4 11.1634 11.1634 4 20 4C28.8366 4 36 11.1634 36 20C36 28.8366 28.8366 36 20 36H7.2C5.43269 36 4 34.5673 4 32.8V20ZM13.6 18.4C13.6 17.5163 14.3163 16.8 15.2 16.8H24.8C25.6837 16.8 26.4 17.5163 26.4 18.4C26.4 19.2837 25.6837 20 24.8 20H15.2C14.3163 20 13.6 19.2837 13.6 18.4ZM15.2 23.2C14.3163 23.2 13.6 23.9163 13.6 24.8C13.6 25.6837 14.3163 26.4 15.2 26.4H20C20.8837 26.4 21.6 25.6837 21.6 24.8C21.6 23.9163 20.8837 23.2 20 23.2H15.2Z" fill="url(#paint0_linear_4581_5762)"/>
<defs>
<linearGradient id="paint0_linear_4581_5762" x1="20" y1="4" x2="20" y2="36" gradientUnits="userSpaceOnUse">
<stop stop-color="#3B71FE"/>
<stop offset="1" stop-color="#07BBA9"/>
</linearGradient>
</defs>
</svg>
