<svg width="67" height="69" viewBox="0 0 67 69" fill="none" xmlns="http://www.w3.org/2000/svg">
<g id="face_01">
<path id="Vector" d="M62.136 32.0074C62.9412 34.289 63.7465 36.6153 64.7754 39.1206C66.8781 44.31 66.2517 49.5442 62.8965 54.2416C57.5281 61.8021 45.4939 67.1258 33.6833 67.1258C21.8281 67.1258 9.83859 61.8021 4.47017 54.2416C1.07017 49.5442 0.443852 44.31 2.54648 39.1206C3.57543 36.5706 4.42543 34.1995 5.23069 31.9179C7.10964 26.5048 8.7649 21.8521 12.0307 17.9153C15.4754 13.71 20.5307 10.6679 27.8228 8.43109C28.3596 7.76004 29.4333 6.28372 29.8807 4.71793C30.1044 4.00214 30.7307 3.51004 31.4912 3.4653H31.5807C32.6991 3.4653 33.6386 4.18109 34.2202 5.38898C35.5623 4.00214 35.9202 3.24161 36.2781 2.16793C36.5018 1.45214 37.2175 0.960035 37.9781 1.00477C38.7833 1.00477 39.4544 1.54161 39.6333 2.2574C40.3044 4.67319 40.5281 6.77583 40.3044 8.69951C47.1044 10.9364 51.8912 13.8442 55.2017 17.9153C55.2017 17.9153 57.7965 20.3758 62.0465 32.0074" fill="white"/>
<path id="Vector_2" d="M62.136 32.0074C62.9412 34.289 63.7465 36.6153 64.7754 39.1206C66.8781 44.31 66.2517 49.5442 62.8965 54.2416C57.5281 61.8021 45.4939 67.1258 33.6833 67.1258C21.8281 67.1258 9.83859 61.8021 4.47017 54.2416C1.07017 49.5442 0.443852 44.31 2.54648 39.1206C3.57543 36.5706 4.42543 34.1995 5.23069 31.9179C7.10964 26.5048 8.7649 21.8521 12.0307 17.9153C15.4754 13.71 20.5307 10.6679 27.8228 8.43109C28.3596 7.76004 29.4333 6.28372 29.8807 4.71793C30.1044 4.00214 30.7307 3.51004 31.4912 3.4653H31.5807C32.6991 3.4653 33.6386 4.18109 34.2202 5.38898C35.5623 4.00214 35.9202 3.24161 36.2781 2.16793C36.5018 1.45214 37.2175 0.960035 37.9781 1.00477C38.7833 1.00477 39.4544 1.54161 39.6333 2.2574C40.3044 4.67319 40.5281 6.77583 40.3044 8.69951C47.1044 10.9364 51.8912 13.8442 55.2017 17.9153C55.2017 17.9153 57.7965 20.3758 62.0465 32.0074H62.136Z" stroke="#595757" stroke-width="2" stroke-linecap="round" stroke-linejoin="round"/>
<path id="Vector_3" d="M26.4765 38.5846C26.4765 38.5846 26.6107 32.5898 22.6292 32.5898C18.6476 32.5898 18.7818 38.5846 18.7818 38.5846" stroke="#595757" stroke-width="2" stroke-linecap="round" stroke-linejoin="round"/>
<path id="Vector_4" d="M40.8393 38.5846C40.8393 38.5846 40.5262 32.5898 44.6867 32.5898C48.8472 32.5898 48.5341 38.5846 48.5341 38.5846" stroke="#595757" stroke-width="2" stroke-linecap="round" stroke-linejoin="round"/>
<path id="Vector_5" d="M33.5491 57.2875C32.2964 57.2875 31.1333 57.019 30.0596 56.4375C24.6017 53.5743 21.5596 49.4138 21.4701 49.2348C21.2464 48.9217 21.2464 48.5638 21.3807 48.2059C21.5149 47.8927 30.2833 45.5664 33.5491 45.5664C36.8149 45.5664 45.7622 47.8927 45.8964 48.2059C46.0754 48.519 46.0307 48.9217 45.807 49.2348C45.6728 49.4138 42.7201 53.5296 37.307 56.3927C36.9043 56.6164 35.428 57.2875 33.5043 57.2875H33.5491Z" stroke="#595757" stroke-width="2" stroke-linecap="round" stroke-linejoin="round"/>
<path id="Vector_6" d="M44.5972 49.0078C44.5972 49.0078 36.3209 53.2131 33.6814 53.2131C31.0419 53.2131 22.8998 49.142 22.7656 49.0526" stroke="#595757" stroke-width="2" stroke-linecap="round" stroke-linejoin="round"/>
</g>
</svg>
