<svg width="40" height="40" viewBox="0 0 40 40" fill="none" xmlns="http://www.w3.org/2000/svg">
<path fill-rule="evenodd" clip-rule="evenodd" d="M7 10.6667C7 8.64162 8.64162 7 10.6667 7H16C16.5523 7 17 7.44772 17 8C17 8.55228 16.5523 9 16 9H10.6667C9.74619 9 9 9.74619 9 10.6667V16C9 16.5523 8.55228 17 8 17C7.44772 17 7 16.5523 7 16V10.6667ZM23 8C23 7.44772 23.4477 7 24 7H29.3333C31.3584 7 33 8.64162 33 10.6667V16C33 16.5523 32.5523 17 32 17C31.4477 17 31 16.5523 31 16V10.6667C31 9.74619 30.2538 9 29.3333 9H24C23.4477 9 23 8.55228 23 8ZM8 23C8.55228 23 9 23.4477 9 24V29.3333C9 30.2538 9.74619 31 10.6667 31H16C16.5523 31 17 31.4477 17 32C17 32.5523 16.5523 33 16 33H10.6667C8.64162 33 7 31.3584 7 29.3333V24C7 23.4477 7.44772 23 8 23ZM32 23C32.5523 23 33 23.4477 33 24V29.3333C33 31.3584 31.3584 33 29.3333 33H24C23.4477 33 23 32.5523 23 32C23 31.4477 23.4477 31 24 31H29.3333C30.2538 31 31 30.2538 31 29.3333V24C31 23.4477 31.4477 23 32 23Z" fill="white"/>
</svg>
