<svg width="40" height="40" viewBox="0 0 40 40" fill="none" xmlns="http://www.w3.org/2000/svg">
<path fill-rule="evenodd" clip-rule="evenodd" d="M8 4C5.79086 4 4 5.79086 4 8V32C4 34.2091 5.79086 36 8 36H32C34.2091 36 36 34.2091 36 32V8C36 5.79086 34.2091 4 32 4H8ZM14.1666 9.92625C14.1666 9.4147 13.7519 9 13.2404 9C12.7288 9 12.3141 9.4147 12.3141 9.92625V12.515H9.63035C9.1188 12.515 8.7041 12.9297 8.7041 13.4412C8.7041 13.9528 9.1188 14.3675 9.63035 14.3675H12.3141V17.3362C12.3141 17.8478 12.7288 18.2625 13.2404 18.2625C13.7519 18.2625 14.1666 17.8478 14.1666 17.3362V14.3675H16.8504C17.3619 14.3675 17.7766 13.9528 17.7766 13.4412C17.7766 12.9297 17.3619 12.515 16.8504 12.515H14.1666V9.92625ZM22.384 13.7261C22.384 13.2146 22.7987 12.7999 23.3102 12.7999H30.7202C31.2318 12.7999 31.6465 13.2146 31.6465 13.7261C31.6465 14.2377 31.2318 14.6524 30.7202 14.6524H23.3102C22.7987 14.6524 22.384 14.2377 22.384 13.7261ZM27.0152 23.8199C27.6973 23.8199 28.2502 23.267 28.2502 22.5849C28.2502 21.9028 27.6973 21.3499 27.0152 21.3499C26.3332 21.3499 25.7802 21.9028 25.7802 22.5849C25.7802 23.267 26.3332 23.8199 27.0152 23.8199ZM22.384 26.0553C22.384 25.5437 22.7987 25.129 23.3102 25.129H30.7202C31.2318 25.129 31.6465 25.5437 31.6465 26.0553C31.6465 26.5668 31.2318 26.9815 30.7202 26.9815H23.3102C22.7987 26.9815 22.384 26.5668 22.384 26.0553ZM27.0152 30.7607C27.6973 30.7607 28.2502 30.2078 28.2502 29.5257C28.2502 28.8436 27.6973 28.2907 27.0152 28.2907C26.3332 28.2907 25.7802 28.8436 25.7802 29.5257C25.7802 30.2078 26.3332 30.7607 27.0152 30.7607ZM10.9434 22.2437C10.5455 21.8458 9.90042 21.8458 9.50252 22.2437C9.10463 22.6416 9.10463 23.2867 9.50252 23.6846L11.6639 25.8459L9.50252 28.0073C9.10463 28.4052 9.10463 29.0503 9.50252 29.4482C9.90042 29.8461 10.5455 29.8461 10.9434 29.4482L13.1048 27.2868L15.2661 29.4482C15.664 29.8461 16.3092 29.8461 16.7071 29.4482C17.105 29.0503 17.105 28.4052 16.7071 28.0073L14.5457 25.8459L16.7071 23.6846C17.105 23.2867 17.105 22.6416 16.7071 22.2437C16.3092 21.8458 15.664 21.8458 15.2662 22.2437L13.1048 24.405L10.9434 22.2437Z" fill="url(#paint0_linear_4581_5768)"/>
<defs>
<linearGradient id="paint0_linear_4581_5768" x1="4" y1="20" x2="36" y2="20" gradientUnits="userSpaceOnUse">
<stop stop-color="#3B71FE"/>
<stop offset="1" stop-color="#07BBA9"/>
</linearGradient>
</defs>
</svg>
