<svg width="126" height="127" viewBox="0 0 126 127" fill="none" xmlns="http://www.w3.org/2000/svg">
<g style="mix-blend-mode:multiply">
<path d="M105.3 19.7445C105.19 21.1156 104.13 22.396 103.073 23.6231C98.8316 28.5497 94.6522 33.5262 90.2985 38.3711C75.9737 54.3099 60.652 70.6281 45.8921 86.1553C41.3994 90.8811 36.7998 95.4833 32.2804 100.181C29.3038 103.275 26.37 105.28 23.4308 107.241C21.934 108.24 21.1449 108.096 20.9033 107.286C20.3206 105.341 20.9215 102.701 23.7088 98.7847C25.319 96.5222 27.112 94.3696 29.1745 92.3452C37.56 84.1116 45.9584 75.8983 54.3332 67.6454C59.2418 62.8084 64.1386 57.942 69.0023 53.0301C76.5849 45.3703 84.7869 36.9693 92.3535 29.2857C94.2085 27.402 96.1159 25.5817 97.9314 23.6594C100.338 21.1111 102.317 19.8737 104.03 19.7932C104.435 19.7739 104.836 19.7603 105.301 19.7422L105.3 19.7445Z" fill="#CC0000" fill-opacity="0.7"/>
<path d="M106.179 19.9897C106.077 20.8117 105.722 21.5599 105.301 22.2214C104.85 22.9283 104.28 23.6008 103.755 24.2106C102.625 25.5231 101.498 26.841 100.369 28.1604C97.2718 31.7822 94.1653 35.4145 90.9679 38.9727L90.9679 38.9727C76.6347 54.9208 61.3063 71.2461 46.5444 86.7753L45.8921 86.1553L46.5444 86.7754C43.994 89.4581 41.3957 92.1148 38.8024 94.7664C36.834 96.7791 34.8685 98.7889 32.929 100.805C29.8796 103.974 26.8749 106.025 23.9303 107.989M106.179 19.9897L23.9303 107.989M106.179 19.9897L106.747 18.7851L105.266 18.8429C105.14 18.8478 105.017 18.8524 104.898 18.8569C104.582 18.8689 104.285 18.8801 103.988 18.8942C101.899 18.9924 99.7064 20.4691 97.277 23.0415C96.1481 24.2369 94.9968 25.3791 93.833 26.5336C93.1299 27.2312 92.4222 27.9332 91.7122 28.6542C88.7715 31.6404 85.7365 34.7332 82.6799 37.8481C77.8669 42.7529 73 47.7124 68.3628 52.3969C63.5024 57.3054 58.6083 62.1691 53.7015 67.0044L54.3332 67.6454L53.7015 67.0044C48.2132 72.4128 42.7155 77.8034 37.2171 83.1948C34.3258 86.0298 31.4343 88.865 28.5439 91.703C26.4395 93.7687 24.6127 95.9625 22.9756 98.2628C20.1441 102.241 19.335 105.186 20.041 107.544L106.179 19.9897ZM23.9303 107.989C23.145 108.513 22.3755 108.862 21.6696 108.841C21.2858 108.83 20.9135 108.708 20.6064 108.446C20.309 108.193 20.1369 107.865 20.0412 107.544L23.9303 107.989Z" stroke="#CC0000" stroke-opacity="0.7" stroke-width="1.8"/>
</g>
</svg>
