<svg width="126" height="126" viewBox="0 0 126 126" fill="none" xmlns="http://www.w3.org/2000/svg">
<g style="mix-blend-mode:multiply">
<mask id="path-2-outside-1_4272_10830" maskUnits="userSpaceOnUse" x="8.79883" y="15.9012" width="109" height="93" fill="black">
<rect fill="white" x="8.79883" y="15.9012" width="109" height="93"/>
<path d="M102.895 77.5719L104.191 76.1026C103.865 76.7618 103.566 77.3778 103.248 77.9476C102.914 78.5144 102.6 79.0442 102.297 79.5524C102.141 79.805 101.994 80.0514 101.846 80.2947C101.687 80.5319 101.532 80.766 101.377 80.9939C101.066 81.4498 100.767 81.8933 100.468 82.3276C100.181 82.7681 99.8662 83.1901 99.5556 83.6182C99.245 84.0463 98.9382 84.4806 98.6276 84.9303C98.0025 85.8267 97.3153 86.7661 96.6086 87.8596L96.6979 87.5854C96.4223 87.8688 96.4261 88.2014 95.7079 89.2364C95.3507 89.7538 94.811 90.4469 93.9141 91.374C93.4676 91.8391 92.9589 92.372 92.3222 92.9634C91.6854 93.5547 90.9594 94.217 90.109 94.9531L90.0702 94.9316C89.8722 95.1595 89.9499 95.1995 89.4451 95.5907C89.8567 95.2642 90.2799 94.9377 90.6837 94.6051C90.1867 95.332 89.8295 96.0158 89.0452 96.9244C88.8316 97.0908 88.6958 97.1092 88.6181 97.0938L86.6574 99.3023L85.7915 99.8228C85.2945 100.559 86.0905 100.568 84.1181 102.161C85.1121 101.711 83.4852 103.162 83.8735 103.054C83.7454 103.116 83.4813 103.279 83.2639 103.405C82.2932 104.477 80.4567 106.504 80.1617 107.101C80.1617 107.101 81.3575 106.202 82.7165 105.176C84.0754 104.157 85.6285 103.026 86.3429 102.583C84.8247 104.009 86.0128 103.002 86.4089 102.78L86.4166 102.629C87.3524 101.791 87.5776 101.924 88.0668 101.517C88.0474 101.508 88.0124 101.508 87.9813 101.505L87.9581 101.579C87.8765 101.597 87.8765 101.557 87.8998 101.495C87.8416 101.477 87.8416 101.415 88.0901 101.178L88.0707 101.24C88.3968 100.849 89.0297 100.22 89.3131 99.9491L89.5072 100.054C89.7907 99.1945 94.1975 95.8679 94.9973 94.9377C95.5254 94.5465 95.9563 94.0168 96.3873 93.4469C96.8222 92.8771 97.2648 92.2734 97.8123 91.7221C99.3847 89.8647 98.8567 90.9243 99.7885 90.0588C100.864 88.9314 99.3653 90.1851 99.7303 89.7015C100.204 89.2733 100.647 88.8298 101.109 88.3924C100.499 89.2456 100.961 88.8483 101.155 88.7312C101.637 88.109 102.374 87.3606 102.914 86.6614C103.465 85.9683 103.881 85.3615 103.815 85.0751C104.168 84.6654 104.436 84.3574 104.646 84.1141C104.859 83.8738 105.022 83.7014 105.158 83.5566C105.434 83.2701 105.605 83.0976 105.861 82.7249C105.62 82.9467 105.224 83.4211 105.135 83.3933C105.779 82.7619 105.31 83.0391 105.081 83.3102C105.209 83.0237 105.55 82.5494 105.981 81.995C106.389 81.4282 106.882 80.7783 107.356 80.1469C107.841 79.5216 108.249 78.8994 108.532 78.4158C108.816 77.9322 108.971 77.5842 108.886 77.4856L108.971 77.5133C108.757 77.1376 108.191 77.4394 108.412 76.6016C108.559 76.4476 108.691 76.2874 108.831 76.1273L109.056 75.2864C109.425 74.7905 109.398 75.08 109.441 75.0923C109.666 74.4209 110.054 73.6508 110.408 72.8315C110.598 72.4249 110.792 72.0091 110.986 71.5964C111.083 71.39 111.18 71.1836 111.273 70.9804C111.359 70.774 111.437 70.5676 111.514 70.3674C110.998 70.8695 110.419 71.3438 109.864 71.8182C110.058 71.4978 110.291 71.1159 110.532 70.7155C110.749 70.3089 110.971 69.8838 111.165 69.4865C111.549 68.6918 111.829 68.0173 111.701 67.8478L112.279 67.0809C112.652 66.4156 112.807 65.9474 112.904 65.6178C112.993 65.2852 112.99 65.088 112.951 64.9371C112.877 64.6383 112.706 64.5459 112.92 64.0007C113.149 63.548 113.335 63.0859 113.545 62.6239C113.463 63.0952 113.397 63.5695 113.292 64.0377C113.747 62.6455 113.949 62.0849 114.329 60.9576C114.325 60.9576 114.325 60.9452 114.321 60.9452C114.294 61.0222 114.271 61.0715 114.248 61.0808L114.263 60.8806C114.104 60.6927 114.03 59.9411 114.116 58.9339C114.17 58.2193 114.154 57.5786 114.131 56.8332C114.127 56.0878 114.135 55.2377 114.263 54.0827L113.828 53.5313C113.871 52.9553 113.863 52.3824 113.879 51.8034L114.189 51.7787C114.286 52.6227 114.446 53.8393 114.519 55.1207C114.539 55.441 114.558 55.7644 114.578 56.0878C114.585 56.4113 114.589 56.7347 114.597 57.0489C114.62 57.6803 114.585 58.2901 114.57 58.8353L114.71 58.8785C114.737 58.2316 114.741 57.5386 114.702 56.901C114.69 56.5838 114.675 56.2788 114.663 55.9985C114.644 55.7213 114.632 55.4687 114.632 55.2531C114.655 55.0437 114.741 54.671 114.842 54.4431C114.939 54.2151 115.067 54.135 115.199 54.5231L114.834 53.7315C114.636 51.5662 114.426 50.482 114.248 49.3731C114.154 48.8187 114.077 48.255 113.941 47.5528C113.82 46.8474 113.65 46.0004 113.374 44.873L113.355 45.2858C112.974 44.4264 112.586 43.5825 112.722 43.2837C112.264 41.9561 111.685 40.6286 111.18 39.4027C110.637 38.183 110.136 37.0741 109.771 36.1932L109.208 35.9807C109.037 35.7188 108.952 35.3369 108.804 35.0196C108.657 34.7024 108.474 34.4437 108.16 34.4252L107.682 33.917L107.177 33.4241C106.649 32.7311 106.11 32.4323 105.597 31.5884C105.597 31.5853 105.593 31.5853 105.593 31.5853C105.562 31.5329 105.531 31.4775 105.496 31.4251C105.488 31.4313 105.484 31.4405 105.481 31.4467C104.824 30.689 104.762 30.7321 104.681 30.7475C104.638 30.7567 104.595 30.7567 104.463 30.6458C104.335 30.535 104.129 30.3132 103.726 29.8943C103.353 29.2536 102.774 29.5709 101.943 28.8039C101.769 28.4651 101.602 28.114 101.4 27.7844C101.023 27.424 100.697 27.156 100.383 26.9312C100.06 26.7156 99.7419 26.5462 99.4003 26.3644C99.0547 26.1827 98.6859 25.9856 98.216 25.7546C97.7424 25.5236 97.2182 25.2063 96.5077 24.8367C95.2846 23.9742 94.7877 23.3829 95.9563 23.5523C94.3955 23.2627 95.1953 23.4814 93.3588 22.8377C93.188 22.5759 93.3899 22.6313 93.8597 22.6867C93.6811 22.5759 93.5297 22.4896 93.4016 22.4188C93.2695 22.3541 93.1569 22.311 93.0638 22.274C92.8735 22.2032 92.7493 22.1816 92.6367 22.1693C92.4076 22.1416 92.2135 22.1539 91.6155 21.9167C91.0991 22.0492 90.4663 22.311 90.0663 22.2001C90.21 22.274 90.342 22.3664 90.4779 22.4527C89.8179 22.2863 89.1112 22.1477 88.4201 21.9383C88.0707 21.8397 87.7212 21.7196 87.364 21.6056C87.0029 21.5009 86.6418 21.3808 86.2769 21.2483L86.3933 21.122C85.842 21.0081 85.2984 20.8879 84.7471 20.7801L84.7083 20.5768L82.336 20.161L82.6427 20.275C82.5029 20.2534 82.2855 20.2195 82.0176 20.1764C81.7497 20.1425 81.4352 20.1025 81.1052 20.0594C80.4451 19.9701 79.7307 19.8499 79.2143 19.7329L79.2725 19.6312C77.8127 19.3232 76.4343 19.1877 74.9977 19.2093C74.2794 19.2062 73.5456 19.2093 72.773 19.2555C72.0042 19.2986 71.1927 19.2986 70.323 19.3386L70.7773 19.1076C69.5775 18.932 70.4628 19.4495 69.0417 19.391L68.9563 19.1292C67.7294 19.508 67.3411 19.1384 66.4598 19.0676L66.9024 19.3817L65.2794 19.431C63.4934 19.5019 64.1185 19.1169 64.3515 18.9012L63.1867 19.3109L62.8916 19.0368C62.0762 19.4865 61.9908 19.083 60.4921 19.5111C60.3368 19.4156 60.7095 19.2924 60.1737 19.3232C59.3545 19.585 58.5585 19.89 57.7703 20.1918L59.2263 19.7144L59.1642 20.1857C58.4304 20.5029 57.9024 20.5922 57.417 20.6446C56.9317 20.697 56.493 20.7124 55.9649 20.9064C56.2018 20.8079 56.4386 20.7001 56.6832 20.6076C54.9166 21.122 54.7574 20.9649 53.7013 21.1066C54.0508 21.1097 54.5749 21.119 53.8683 21.3438C53.3519 21.507 53.5227 21.2699 53.0024 21.3592C53.0024 21.5163 52.6996 21.7196 52.2492 21.9044C51.7988 22.0923 51.1931 22.2494 50.603 22.3726C50.5991 22.3294 50.603 22.2832 50.6651 22.234C50.3972 22.3695 50.2846 22.4896 49.7526 22.582L49.8963 22.1785L49.0771 22.7791C48.3898 22.9024 47.5706 23.4167 47.5473 23.1919C47.656 23.1272 47.7686 23.0718 47.8773 23.0102C47.062 23.2689 46.2738 23.5707 45.4701 23.848L44.2703 24.2761C43.8743 24.4239 43.4899 24.5934 43.0978 24.7504L42.8765 24.5441C42.6396 25.0646 40.2557 25.5112 40.7022 25.8501C39.6927 26.0503 37.499 27.6304 37.6465 26.9558C36.9049 27.3162 36.307 27.7074 35.7324 28.0647C35.1655 28.4343 34.6219 28.7731 34.0939 29.1581C33.5658 29.5431 33.0184 29.9374 32.3816 30.3501C32.0671 30.5596 31.7216 30.7629 31.3605 30.9908C31.0071 31.2249 30.6266 31.4682 30.2073 31.7239C29.4696 31.9611 28.3203 32.6264 27.2177 33.5104C26.6547 33.9416 26.0684 34.4005 25.5171 34.8533C24.989 35.3277 24.4804 35.7866 24.0145 36.1839C23.8048 36.3903 23.599 36.5905 23.401 36.7907C23.3001 36.8893 23.203 36.9879 23.102 37.0833C23.0127 37.185 22.9196 37.2866 22.8303 37.3852C22.4731 37.7856 22.1314 38.1706 21.7975 38.5464C21.4674 38.9253 21.1335 39.2857 20.8268 39.6553C20.5356 40.0341 20.2444 40.4068 19.9571 40.7826C19.6698 41.1553 19.3786 41.5311 19.0874 41.9099C18.7884 42.2857 18.5477 42.6985 18.2642 43.105C17.7207 43.9274 17.0995 44.7745 16.5636 45.7724C16.0356 46.2868 15.527 46.909 15.1154 47.6113C14.7233 48.3259 14.3699 49.099 14.0244 49.8783C13.838 50.2633 13.7293 50.676 13.5856 51.0703C13.4497 51.4676 13.31 51.8619 13.1624 52.2438C13.0887 52.4348 13.011 52.6227 12.9372 52.8106C12.8557 52.9954 12.7858 53.1802 12.7237 53.365C12.5956 53.7315 12.4519 54.0827 12.2927 54.4153L12.3587 55.2192C12.2306 55.4349 12.1141 55.6689 12.0054 55.9184C11.8967 56.1679 11.8268 56.439 11.7491 56.7193C11.6754 56.9996 11.6016 57.2953 11.5395 57.5971C11.4929 57.9021 11.4424 58.2131 11.3919 58.5304C11.2793 59.1649 11.2444 59.8302 11.1396 60.4925C11.0736 61.1578 10.9571 61.8262 10.829 62.4822C10.9532 63.1321 10.9881 63.4679 10.9998 63.6157C11.0153 63.4956 11.0774 63.3139 11.2716 63.2584C11.124 64.0069 11.3686 65.51 10.9881 65.4176L10.9144 65.2297C10.7164 65.1804 10.8095 65.7503 10.9221 66.4371C11.0425 67.1209 11.2211 67.9156 11.1163 68.3499C11.2211 68.1836 11.3453 68.0173 11.4579 67.854C11.489 68.3253 11.5744 68.7934 11.6327 69.2616L11.4851 68.8951C12.5063 71.8798 13.1857 74.0112 13.97 76.1026C14.1719 76.6232 14.3738 77.1406 14.6223 77.6581C14.7427 77.9168 14.8669 78.1786 14.995 78.4405C15.1387 78.6992 15.2824 78.961 15.4299 79.229C16.0278 80.2947 16.8238 81.3912 17.8993 82.5586C17.014 82.0843 18.835 83.4365 18.4623 83.7014C18.9321 85.2014 20.458 85.9098 21.5179 86.7476C21.5373 86.7353 21.5723 86.7322 21.6538 86.7692C22.1624 87.3329 22.7371 87.8565 23.2845 88.3986C22.5391 88.0875 22.9429 88.3092 23.37 88.5249C23.8087 88.7343 24.263 88.9438 23.5796 88.6696C24.6396 89.7415 25.9442 90.7949 27.404 91.8114C28.8717 92.8217 30.5335 93.755 32.3078 94.602C34.0745 95.4459 35.9847 96.1821 37.9222 96.7673C38.8928 97.0569 39.848 97.3772 40.8303 97.5959C41.8048 97.8392 42.7639 98.101 43.7345 98.2766L43.4317 98.0918C44.4101 98.2735 45.5089 98.4799 46.565 98.5815C47.6172 98.7047 48.5995 98.8618 49.3411 99.0035C50.0827 99.1606 50.9213 99.1575 51.6396 99.0898C52.3579 99.0066 52.9558 98.8896 53.247 98.8896C53.6586 98.8495 54.0624 98.8464 54.4196 98.868C54.7768 98.8742 55.0952 98.905 55.3398 98.9419C55.829 99.0158 56.0309 99.1175 55.6776 99.1113C56.559 99.0713 57.4093 98.9512 58.3295 98.7972C59.2535 98.6524 60.2591 98.5631 61.4666 98.5446C61.6841 98.6308 62.2005 98.6154 62.8528 98.5507C63.505 98.4891 64.2855 98.3321 65.0426 98.1996C65.4192 98.1318 65.7919 98.0672 66.1375 98.0056C66.483 97.9378 66.8014 97.8762 67.0732 97.8362C67.6207 97.7499 67.9934 97.7345 68.04 97.8485L68.0555 97.8054C71.1655 97.6667 73.8213 96.5948 77.0711 96.1513C77.0711 96.1513 77.0245 96.1975 76.9274 96.2529C77.9253 95.794 78.8882 95.2827 79.8588 94.8022C80.8256 94.3094 81.7691 93.7981 82.7165 93.2991L80.3131 92.2703C79.3385 92.3104 78.364 92.3165 77.3933 92.3319C76.4266 92.3535 75.4598 92.3412 74.4969 92.3319C69.7173 93.4993 64.8523 94.3402 59.964 94.7868C56.0387 94.8792 52.1521 94.6544 48.4442 94.0383L46.7397 93.832L45.0663 93.5363L44.2276 93.3884L43.4084 93.1944L41.7699 92.8093L40.178 92.3319L39.3782 92.0948L38.6094 91.8206L37.8406 91.5434L37.0913 91.2354C36.8428 91.1307 36.5865 91.0352 36.3419 90.9243L35.612 90.5855C31.7177 88.7744 28.2854 86.2887 25.5054 83.381C25.0084 83.0237 24.4804 82.6787 23.9951 82.2999C23.7 81.8009 23.3661 81.3019 23.0477 80.7814C22.706 80.2701 22.3876 79.7341 22.0382 79.1982C21.3743 78.114 20.6715 76.9928 20.0775 75.8193L19.8445 75.3819L19.6348 74.9383C19.4951 74.6396 19.3475 74.347 19.2194 74.0451C18.9748 73.4414 18.7146 72.8438 18.5244 72.234C18.1051 71.0235 17.8488 69.8037 17.7479 68.6333L17.3479 68.584C17.0723 67.2719 17.3557 67.3335 17.3712 67.0039C16.9131 63.9545 16.9752 60.8344 17.6003 57.8066C18.2837 54.7726 19.4213 51.7726 21.0287 48.9727C22.6051 46.1575 24.7017 43.5609 27.0391 41.2169C27.3303 40.9243 27.6215 40.6286 27.9088 40.336C28.2155 40.0557 28.5339 39.7816 28.8445 39.5074C29.159 39.2333 29.4696 38.9592 29.7802 38.6881L30.2461 38.2815L30.7431 37.8996C31.4071 37.3944 32.0632 36.8924 32.7155 36.3934C33.4105 35.9314 34.0978 35.4724 34.7811 35.0196C35.3557 34.7147 36.4856 34.074 37.5494 33.4211C38.0736 33.0884 38.6327 32.8019 39.1103 32.5617C39.5878 32.3245 39.9877 32.1397 40.244 32.0627C43.7695 29.6787 48.1841 27.8367 52.5249 26.5739L52.3773 26.6571C53.0374 26.4106 53.7207 26.2135 54.4002 26.0102C54.4973 26.0102 54.5244 26.041 54.4662 26.0811C55.0175 25.8562 55.6698 25.6375 56.3959 25.4712C57.1219 25.3018 57.8907 25.1016 58.7061 24.9845C60.3213 24.7012 62.0296 24.5287 63.5128 24.3839L63.3459 24.4363C67.6478 23.9034 71.9265 23.7186 76.0965 23.9989C80.2549 24.3069 84.3083 25.0461 88.0512 26.3306C89.8955 27.0082 91.7087 27.7567 93.3783 28.6807C95.0517 29.5986 96.6125 30.652 98.0374 31.8225C100.895 34.1634 103.201 36.9848 104.871 40.0957C106.238 43.0496 107.558 46.2961 108.35 49.7982C109.146 53.2911 109.398 57.0334 108.723 60.6588C108.653 60.822 108.571 61.1947 108.478 61.7245C108.358 62.2512 108.253 62.9381 108.066 63.7174C107.985 64.1085 107.896 64.5275 107.779 64.9587C107.67 65.393 107.562 65.8457 107.422 66.3078C107.356 66.5388 107.29 66.7729 107.224 67.01C107.154 67.2472 107.065 67.4875 106.987 67.7308C106.824 68.2175 106.661 68.7072 106.498 69.2C106.35 69.6959 106.148 70.1795 105.962 70.66C105.776 71.1405 105.589 71.6149 105.411 72.0769C105.038 72.9978 104.622 73.8541 104.296 74.6211C104.137 75.0061 103.951 75.3542 103.795 75.6776C103.636 76.001 103.496 76.2905 103.372 76.5431C103.12 77.0513 102.953 77.4117 102.895 77.5719Z"/>
</mask>
<path d="M102.895 77.5719L104.191 76.1026C103.865 76.7618 103.566 77.3778 103.248 77.9476C102.914 78.5144 102.6 79.0442 102.297 79.5524C102.141 79.805 101.994 80.0514 101.846 80.2947C101.687 80.5319 101.532 80.766 101.377 80.9939C101.066 81.4498 100.767 81.8933 100.468 82.3276C100.181 82.7681 99.8662 83.1901 99.5556 83.6182C99.245 84.0463 98.9382 84.4806 98.6276 84.9303C98.0025 85.8267 97.3153 86.7661 96.6086 87.8596L96.6979 87.5854C96.4223 87.8688 96.4261 88.2014 95.7079 89.2364C95.3507 89.7538 94.811 90.4469 93.9141 91.374C93.4676 91.8391 92.9589 92.372 92.3222 92.9634C91.6854 93.5547 90.9594 94.217 90.109 94.9531L90.0702 94.9316C89.8722 95.1595 89.9499 95.1995 89.4451 95.5907C89.8567 95.2642 90.2799 94.9377 90.6837 94.6051C90.1867 95.332 89.8295 96.0158 89.0452 96.9244C88.8316 97.0908 88.6958 97.1092 88.6181 97.0938L86.6574 99.3023L85.7915 99.8228C85.2945 100.559 86.0905 100.568 84.1181 102.161C85.1121 101.711 83.4852 103.162 83.8735 103.054C83.7454 103.116 83.4813 103.279 83.2639 103.405C82.2932 104.477 80.4567 106.504 80.1617 107.101C80.1617 107.101 81.3575 106.202 82.7165 105.176C84.0754 104.157 85.6285 103.026 86.3429 102.583C84.8247 104.009 86.0128 103.002 86.4089 102.78L86.4166 102.629C87.3524 101.791 87.5776 101.924 88.0668 101.517C88.0474 101.508 88.0124 101.508 87.9813 101.505L87.9581 101.579C87.8765 101.597 87.8765 101.557 87.8998 101.495C87.8416 101.477 87.8416 101.415 88.0901 101.178L88.0707 101.24C88.3968 100.849 89.0297 100.22 89.3131 99.9491L89.5072 100.054C89.7907 99.1945 94.1975 95.8679 94.9973 94.9377C95.5254 94.5465 95.9563 94.0168 96.3873 93.4469C96.8222 92.8771 97.2648 92.2734 97.8123 91.7221C99.3847 89.8647 98.8567 90.9243 99.7885 90.0588C100.864 88.9314 99.3653 90.1851 99.7303 89.7015C100.204 89.2733 100.647 88.8298 101.109 88.3924C100.499 89.2456 100.961 88.8483 101.155 88.7312C101.637 88.109 102.374 87.3606 102.914 86.6614C103.465 85.9683 103.881 85.3615 103.815 85.0751C104.168 84.6654 104.436 84.3574 104.646 84.1141C104.859 83.8738 105.022 83.7014 105.158 83.5566C105.434 83.2701 105.605 83.0976 105.861 82.7249C105.62 82.9467 105.224 83.4211 105.135 83.3933C105.779 82.7619 105.31 83.0391 105.081 83.3102C105.209 83.0237 105.55 82.5494 105.981 81.995C106.389 81.4282 106.882 80.7783 107.356 80.1469C107.841 79.5216 108.249 78.8994 108.532 78.4158C108.816 77.9322 108.971 77.5842 108.886 77.4856L108.971 77.5133C108.757 77.1376 108.191 77.4394 108.412 76.6016C108.559 76.4476 108.691 76.2874 108.831 76.1273L109.056 75.2864C109.425 74.7905 109.398 75.08 109.441 75.0923C109.666 74.4209 110.054 73.6508 110.408 72.8315C110.598 72.4249 110.792 72.0091 110.986 71.5964C111.083 71.39 111.18 71.1836 111.273 70.9804C111.359 70.774 111.437 70.5676 111.514 70.3674C110.998 70.8695 110.419 71.3438 109.864 71.8182C110.058 71.4978 110.291 71.1159 110.532 70.7155C110.749 70.3089 110.971 69.8838 111.165 69.4865C111.549 68.6918 111.829 68.0173 111.701 67.8478L112.279 67.0809C112.652 66.4156 112.807 65.9474 112.904 65.6178C112.993 65.2852 112.99 65.088 112.951 64.9371C112.877 64.6383 112.706 64.5459 112.92 64.0007C113.149 63.548 113.335 63.0859 113.545 62.6239C113.463 63.0952 113.397 63.5695 113.292 64.0377C113.747 62.6455 113.949 62.0849 114.329 60.9576C114.325 60.9576 114.325 60.9452 114.321 60.9452C114.294 61.0222 114.271 61.0715 114.248 61.0808L114.263 60.8806C114.104 60.6927 114.03 59.9411 114.116 58.9339C114.17 58.2193 114.154 57.5786 114.131 56.8332C114.127 56.0878 114.135 55.2377 114.263 54.0827L113.828 53.5313C113.871 52.9553 113.863 52.3824 113.879 51.8034L114.189 51.7787C114.286 52.6227 114.446 53.8393 114.519 55.1207C114.539 55.441 114.558 55.7644 114.578 56.0878C114.585 56.4113 114.589 56.7347 114.597 57.0489C114.62 57.6803 114.585 58.2901 114.57 58.8353L114.71 58.8785C114.737 58.2316 114.741 57.5386 114.702 56.901C114.69 56.5838 114.675 56.2788 114.663 55.9985C114.644 55.7213 114.632 55.4687 114.632 55.2531C114.655 55.0437 114.741 54.671 114.842 54.4431C114.939 54.2151 115.067 54.135 115.199 54.5231L114.834 53.7315C114.636 51.5662 114.426 50.482 114.248 49.3731C114.154 48.8187 114.077 48.255 113.941 47.5528C113.82 46.8474 113.65 46.0004 113.374 44.873L113.355 45.2858C112.974 44.4264 112.586 43.5825 112.722 43.2837C112.264 41.9561 111.685 40.6286 111.18 39.4027C110.637 38.183 110.136 37.0741 109.771 36.1932L109.208 35.9807C109.037 35.7188 108.952 35.3369 108.804 35.0196C108.657 34.7024 108.474 34.4437 108.16 34.4252L107.682 33.917L107.177 33.4241C106.649 32.7311 106.11 32.4323 105.597 31.5884C105.597 31.5853 105.593 31.5853 105.593 31.5853C105.562 31.5329 105.531 31.4775 105.496 31.4251C105.488 31.4313 105.484 31.4405 105.481 31.4467C104.824 30.689 104.762 30.7321 104.681 30.7475C104.638 30.7567 104.595 30.7567 104.463 30.6458C104.335 30.535 104.129 30.3132 103.726 29.8943C103.353 29.2536 102.774 29.5709 101.943 28.8039C101.769 28.4651 101.602 28.114 101.4 27.7844C101.023 27.424 100.697 27.156 100.383 26.9312C100.06 26.7156 99.7419 26.5462 99.4003 26.3644C99.0547 26.1827 98.6859 25.9856 98.216 25.7546C97.7424 25.5236 97.2182 25.2063 96.5077 24.8367C95.2846 23.9742 94.7877 23.3829 95.9563 23.5523C94.3955 23.2627 95.1953 23.4814 93.3588 22.8377C93.188 22.5759 93.3899 22.6313 93.8597 22.6867C93.6811 22.5759 93.5297 22.4896 93.4016 22.4188C93.2695 22.3541 93.1569 22.311 93.0638 22.274C92.8735 22.2032 92.7493 22.1816 92.6367 22.1693C92.4076 22.1416 92.2135 22.1539 91.6155 21.9167C91.0991 22.0492 90.4663 22.311 90.0663 22.2001C90.21 22.274 90.342 22.3664 90.4779 22.4527C89.8179 22.2863 89.1112 22.1477 88.4201 21.9383C88.0707 21.8397 87.7212 21.7196 87.364 21.6056C87.0029 21.5009 86.6418 21.3808 86.2769 21.2483L86.3933 21.122C85.842 21.0081 85.2984 20.8879 84.7471 20.7801L84.7083 20.5768L82.336 20.161L82.6427 20.275C82.5029 20.2534 82.2855 20.2195 82.0176 20.1764C81.7497 20.1425 81.4352 20.1025 81.1052 20.0594C80.4451 19.9701 79.7307 19.8499 79.2143 19.7329L79.2725 19.6312C77.8127 19.3232 76.4343 19.1877 74.9977 19.2093C74.2794 19.2062 73.5456 19.2093 72.773 19.2555C72.0042 19.2986 71.1927 19.2986 70.323 19.3386L70.7773 19.1076C69.5775 18.932 70.4628 19.4495 69.0417 19.391L68.9563 19.1292C67.7294 19.508 67.3411 19.1384 66.4598 19.0676L66.9024 19.3817L65.2794 19.431C63.4934 19.5019 64.1185 19.1169 64.3515 18.9012L63.1867 19.3109L62.8916 19.0368C62.0762 19.4865 61.9908 19.083 60.4921 19.5111C60.3368 19.4156 60.7095 19.2924 60.1737 19.3232C59.3545 19.585 58.5585 19.89 57.7703 20.1918L59.2263 19.7144L59.1642 20.1857C58.4304 20.5029 57.9024 20.5922 57.417 20.6446C56.9317 20.697 56.493 20.7124 55.9649 20.9064C56.2018 20.8079 56.4386 20.7001 56.6832 20.6076C54.9166 21.122 54.7574 20.9649 53.7013 21.1066C54.0508 21.1097 54.5749 21.119 53.8683 21.3438C53.3519 21.507 53.5227 21.2699 53.0024 21.3592C53.0024 21.5163 52.6996 21.7196 52.2492 21.9044C51.7988 22.0923 51.1931 22.2494 50.603 22.3726C50.5991 22.3294 50.603 22.2832 50.6651 22.234C50.3972 22.3695 50.2846 22.4896 49.7526 22.582L49.8963 22.1785L49.0771 22.7791C48.3898 22.9024 47.5706 23.4167 47.5473 23.1919C47.656 23.1272 47.7686 23.0718 47.8773 23.0102C47.062 23.2689 46.2738 23.5707 45.4701 23.848L44.2703 24.2761C43.8743 24.4239 43.4899 24.5934 43.0978 24.7504L42.8765 24.5441C42.6396 25.0646 40.2557 25.5112 40.7022 25.8501C39.6927 26.0503 37.499 27.6304 37.6465 26.9558C36.9049 27.3162 36.307 27.7074 35.7324 28.0647C35.1655 28.4343 34.6219 28.7731 34.0939 29.1581C33.5658 29.5431 33.0184 29.9374 32.3816 30.3501C32.0671 30.5596 31.7216 30.7629 31.3605 30.9908C31.0071 31.2249 30.6266 31.4682 30.2073 31.7239C29.4696 31.9611 28.3203 32.6264 27.2177 33.5104C26.6547 33.9416 26.0684 34.4005 25.5171 34.8533C24.989 35.3277 24.4804 35.7866 24.0145 36.1839C23.8048 36.3903 23.599 36.5905 23.401 36.7907C23.3001 36.8893 23.203 36.9879 23.102 37.0833C23.0127 37.185 22.9196 37.2866 22.8303 37.3852C22.4731 37.7856 22.1314 38.1706 21.7975 38.5464C21.4674 38.9253 21.1335 39.2857 20.8268 39.6553C20.5356 40.0341 20.2444 40.4068 19.9571 40.7826C19.6698 41.1553 19.3786 41.5311 19.0874 41.9099C18.7884 42.2857 18.5477 42.6985 18.2642 43.105C17.7207 43.9274 17.0995 44.7745 16.5636 45.7724C16.0356 46.2868 15.527 46.909 15.1154 47.6113C14.7233 48.3259 14.3699 49.099 14.0244 49.8783C13.838 50.2633 13.7293 50.676 13.5856 51.0703C13.4497 51.4676 13.31 51.8619 13.1624 52.2438C13.0887 52.4348 13.011 52.6227 12.9372 52.8106C12.8557 52.9954 12.7858 53.1802 12.7237 53.365C12.5956 53.7315 12.4519 54.0827 12.2927 54.4153L12.3587 55.2192C12.2306 55.4349 12.1141 55.6689 12.0054 55.9184C11.8967 56.1679 11.8268 56.439 11.7491 56.7193C11.6754 56.9996 11.6016 57.2953 11.5395 57.5971C11.4929 57.9021 11.4424 58.2131 11.3919 58.5304C11.2793 59.1649 11.2444 59.8302 11.1396 60.4925C11.0736 61.1578 10.9571 61.8262 10.829 62.4822C10.9532 63.1321 10.9881 63.4679 10.9998 63.6157C11.0153 63.4956 11.0774 63.3139 11.2716 63.2584C11.124 64.0069 11.3686 65.51 10.9881 65.4176L10.9144 65.2297C10.7164 65.1804 10.8095 65.7503 10.9221 66.4371C11.0425 67.1209 11.2211 67.9156 11.1163 68.3499C11.2211 68.1836 11.3453 68.0173 11.4579 67.854C11.489 68.3253 11.5744 68.7934 11.6327 69.2616L11.4851 68.8951C12.5063 71.8798 13.1857 74.0112 13.97 76.1026C14.1719 76.6232 14.3738 77.1406 14.6223 77.6581C14.7427 77.9168 14.8669 78.1786 14.995 78.4405C15.1387 78.6992 15.2824 78.961 15.4299 79.229C16.0278 80.2947 16.8238 81.3912 17.8993 82.5586C17.014 82.0843 18.835 83.4365 18.4623 83.7014C18.9321 85.2014 20.458 85.9098 21.5179 86.7476C21.5373 86.7353 21.5723 86.7322 21.6538 86.7692C22.1624 87.3329 22.7371 87.8565 23.2845 88.3986C22.5391 88.0875 22.9429 88.3092 23.37 88.5249C23.8087 88.7343 24.263 88.9438 23.5796 88.6696C24.6396 89.7415 25.9442 90.7949 27.404 91.8114C28.8717 92.8217 30.5335 93.755 32.3078 94.602C34.0745 95.4459 35.9847 96.1821 37.9222 96.7673C38.8928 97.0569 39.848 97.3772 40.8303 97.5959C41.8048 97.8392 42.7639 98.101 43.7345 98.2766L43.4317 98.0918C44.4101 98.2735 45.5089 98.4799 46.565 98.5815C47.6172 98.7047 48.5995 98.8618 49.3411 99.0035C50.0827 99.1606 50.9213 99.1575 51.6396 99.0898C52.3579 99.0066 52.9558 98.8896 53.247 98.8896C53.6586 98.8495 54.0624 98.8464 54.4196 98.868C54.7768 98.8742 55.0952 98.905 55.3398 98.9419C55.829 99.0158 56.0309 99.1175 55.6776 99.1113C56.559 99.0713 57.4093 98.9512 58.3295 98.7972C59.2535 98.6524 60.2591 98.5631 61.4666 98.5446C61.6841 98.6308 62.2005 98.6154 62.8528 98.5507C63.505 98.4891 64.2855 98.3321 65.0426 98.1996C65.4192 98.1318 65.7919 98.0672 66.1375 98.0056C66.483 97.9378 66.8014 97.8762 67.0732 97.8362C67.6207 97.7499 67.9934 97.7345 68.04 97.8485L68.0555 97.8054C71.1655 97.6667 73.8213 96.5948 77.0711 96.1513C77.0711 96.1513 77.0245 96.1975 76.9274 96.2529C77.9253 95.794 78.8882 95.2827 79.8588 94.8022C80.8256 94.3094 81.7691 93.7981 82.7165 93.2991L80.3131 92.2703C79.3385 92.3104 78.364 92.3165 77.3933 92.3319C76.4266 92.3535 75.4598 92.3412 74.4969 92.3319C69.7173 93.4993 64.8523 94.3402 59.964 94.7868C56.0387 94.8792 52.1521 94.6544 48.4442 94.0383L46.7397 93.832L45.0663 93.5363L44.2276 93.3884L43.4084 93.1944L41.7699 92.8093L40.178 92.3319L39.3782 92.0948L38.6094 91.8206L37.8406 91.5434L37.0913 91.2354C36.8428 91.1307 36.5865 91.0352 36.3419 90.9243L35.612 90.5855C31.7177 88.7744 28.2854 86.2887 25.5054 83.381C25.0084 83.0237 24.4804 82.6787 23.9951 82.2999C23.7 81.8009 23.3661 81.3019 23.0477 80.7814C22.706 80.2701 22.3876 79.7341 22.0382 79.1982C21.3743 78.114 20.6715 76.9928 20.0775 75.8193L19.8445 75.3819L19.6348 74.9383C19.4951 74.6396 19.3475 74.347 19.2194 74.0451C18.9748 73.4414 18.7146 72.8438 18.5244 72.234C18.1051 71.0235 17.8488 69.8037 17.7479 68.6333L17.3479 68.584C17.0723 67.2719 17.3557 67.3335 17.3712 67.0039C16.9131 63.9545 16.9752 60.8344 17.6003 57.8066C18.2837 54.7726 19.4213 51.7726 21.0287 48.9727C22.6051 46.1575 24.7017 43.5609 27.0391 41.2169C27.3303 40.9243 27.6215 40.6286 27.9088 40.336C28.2155 40.0557 28.5339 39.7816 28.8445 39.5074C29.159 39.2333 29.4696 38.9592 29.7802 38.6881L30.2461 38.2815L30.7431 37.8996C31.4071 37.3944 32.0632 36.8924 32.7155 36.3934C33.4105 35.9314 34.0978 35.4724 34.7811 35.0196C35.3557 34.7147 36.4856 34.074 37.5494 33.4211C38.0736 33.0884 38.6327 32.8019 39.1103 32.5617C39.5878 32.3245 39.9877 32.1397 40.244 32.0627C43.7695 29.6787 48.1841 27.8367 52.5249 26.5739L52.3773 26.6571C53.0374 26.4106 53.7207 26.2135 54.4002 26.0102C54.4973 26.0102 54.5244 26.041 54.4662 26.0811C55.0175 25.8562 55.6698 25.6375 56.3959 25.4712C57.1219 25.3018 57.8907 25.1016 58.7061 24.9845C60.3213 24.7012 62.0296 24.5287 63.5128 24.3839L63.3459 24.4363C67.6478 23.9034 71.9265 23.7186 76.0965 23.9989C80.2549 24.3069 84.3083 25.0461 88.0512 26.3306C89.8955 27.0082 91.7087 27.7567 93.3783 28.6807C95.0517 29.5986 96.6125 30.652 98.0374 31.8225C100.895 34.1634 103.201 36.9848 104.871 40.0957C106.238 43.0496 107.558 46.2961 108.35 49.7982C109.146 53.2911 109.398 57.0334 108.723 60.6588C108.653 60.822 108.571 61.1947 108.478 61.7245C108.358 62.2512 108.253 62.9381 108.066 63.7174C107.985 64.1085 107.896 64.5275 107.779 64.9587C107.67 65.393 107.562 65.8457 107.422 66.3078C107.356 66.5388 107.29 66.7729 107.224 67.01C107.154 67.2472 107.065 67.4875 106.987 67.7308C106.824 68.2175 106.661 68.7072 106.498 69.2C106.35 69.6959 106.148 70.1795 105.962 70.66C105.776 71.1405 105.589 71.6149 105.411 72.0769C105.038 72.9978 104.622 73.8541 104.296 74.6211C104.137 75.0061 103.951 75.3542 103.795 75.6776C103.636 76.001 103.496 76.2905 103.372 76.5431C103.12 77.0513 102.953 77.4117 102.895 77.5719Z" fill="#CC0000" fill-opacity="0.7"/>
<path d="M102.895 77.5719L104.191 76.1026C103.865 76.7618 103.566 77.3778 103.248 77.9476C102.914 78.5144 102.6 79.0442 102.297 79.5524C102.141 79.805 101.994 80.0514 101.846 80.2947C101.687 80.5319 101.532 80.766 101.377 80.9939C101.066 81.4498 100.767 81.8933 100.468 82.3276C100.181 82.7681 99.8662 83.1901 99.5556 83.6182C99.245 84.0463 98.9382 84.4806 98.6276 84.9303C98.0025 85.8267 97.3153 86.7661 96.6086 87.8596L96.6979 87.5854C96.4223 87.8688 96.4261 88.2014 95.7079 89.2364C95.3507 89.7538 94.811 90.4469 93.9141 91.374C93.4676 91.8391 92.9589 92.372 92.3222 92.9634C91.6854 93.5547 90.9594 94.217 90.109 94.9531L90.0702 94.9316C89.8722 95.1595 89.9499 95.1995 89.4451 95.5907C89.8567 95.2642 90.2799 94.9377 90.6837 94.6051C90.1867 95.332 89.8295 96.0158 89.0452 96.9244C88.8316 97.0908 88.6958 97.1092 88.6181 97.0938L86.6574 99.3023L85.7915 99.8228C85.2945 100.559 86.0905 100.568 84.1181 102.161C85.1121 101.711 83.4852 103.162 83.8735 103.054C83.7454 103.116 83.4813 103.279 83.2639 103.405C82.2932 104.477 80.4567 106.504 80.1617 107.101C80.1617 107.101 81.3575 106.202 82.7165 105.176C84.0754 104.157 85.6285 103.026 86.3429 102.583C84.8247 104.009 86.0128 103.002 86.4089 102.78L86.4166 102.629C87.3524 101.791 87.5776 101.924 88.0668 101.517C88.0474 101.508 88.0124 101.508 87.9813 101.505L87.9581 101.579C87.8765 101.597 87.8765 101.557 87.8998 101.495C87.8416 101.477 87.8416 101.415 88.0901 101.178L88.0707 101.24C88.3968 100.849 89.0297 100.22 89.3131 99.9491L89.5072 100.054C89.7907 99.1945 94.1975 95.8679 94.9973 94.9377C95.5254 94.5465 95.9563 94.0168 96.3873 93.4469C96.8222 92.8771 97.2648 92.2734 97.8123 91.7221C99.3847 89.8647 98.8567 90.9243 99.7885 90.0588C100.864 88.9314 99.3653 90.1851 99.7303 89.7015C100.204 89.2733 100.647 88.8298 101.109 88.3924C100.499 89.2456 100.961 88.8483 101.155 88.7312C101.637 88.109 102.374 87.3606 102.914 86.6614C103.465 85.9683 103.881 85.3615 103.815 85.0751C104.168 84.6654 104.436 84.3574 104.646 84.1141C104.859 83.8738 105.022 83.7014 105.158 83.5566C105.434 83.2701 105.605 83.0976 105.861 82.7249C105.62 82.9467 105.224 83.4211 105.135 83.3933C105.779 82.7619 105.31 83.0391 105.081 83.3102C105.209 83.0237 105.55 82.5494 105.981 81.995C106.389 81.4282 106.882 80.7783 107.356 80.1469C107.841 79.5216 108.249 78.8994 108.532 78.4158C108.816 77.9322 108.971 77.5842 108.886 77.4856L108.971 77.5133C108.757 77.1376 108.191 77.4394 108.412 76.6016C108.559 76.4476 108.691 76.2874 108.831 76.1273L109.056 75.2864C109.425 74.7905 109.398 75.08 109.441 75.0923C109.666 74.4209 110.054 73.6508 110.408 72.8315C110.598 72.4249 110.792 72.0091 110.986 71.5964C111.083 71.39 111.18 71.1836 111.273 70.9804C111.359 70.774 111.437 70.5676 111.514 70.3674C110.998 70.8695 110.419 71.3438 109.864 71.8182C110.058 71.4978 110.291 71.1159 110.532 70.7155C110.749 70.3089 110.971 69.8838 111.165 69.4865C111.549 68.6918 111.829 68.0173 111.701 67.8478L112.279 67.0809C112.652 66.4156 112.807 65.9474 112.904 65.6178C112.993 65.2852 112.99 65.088 112.951 64.9371C112.877 64.6383 112.706 64.5459 112.92 64.0007C113.149 63.548 113.335 63.0859 113.545 62.6239C113.463 63.0952 113.397 63.5695 113.292 64.0377C113.747 62.6455 113.949 62.0849 114.329 60.9576C114.325 60.9576 114.325 60.9452 114.321 60.9452C114.294 61.0222 114.271 61.0715 114.248 61.0808L114.263 60.8806C114.104 60.6927 114.03 59.9411 114.116 58.9339C114.17 58.2193 114.154 57.5786 114.131 56.8332C114.127 56.0878 114.135 55.2377 114.263 54.0827L113.828 53.5313C113.871 52.9553 113.863 52.3824 113.879 51.8034L114.189 51.7787C114.286 52.6227 114.446 53.8393 114.519 55.1207C114.539 55.441 114.558 55.7644 114.578 56.0878C114.585 56.4113 114.589 56.7347 114.597 57.0489C114.62 57.6803 114.585 58.2901 114.57 58.8353L114.71 58.8785C114.737 58.2316 114.741 57.5386 114.702 56.901C114.69 56.5838 114.675 56.2788 114.663 55.9985C114.644 55.7213 114.632 55.4687 114.632 55.2531C114.655 55.0437 114.741 54.671 114.842 54.4431C114.939 54.2151 115.067 54.135 115.199 54.5231L114.834 53.7315C114.636 51.5662 114.426 50.482 114.248 49.3731C114.154 48.8187 114.077 48.255 113.941 47.5528C113.82 46.8474 113.65 46.0004 113.374 44.873L113.355 45.2858C112.974 44.4264 112.586 43.5825 112.722 43.2837C112.264 41.9561 111.685 40.6286 111.18 39.4027C110.637 38.183 110.136 37.0741 109.771 36.1932L109.208 35.9807C109.037 35.7188 108.952 35.3369 108.804 35.0196C108.657 34.7024 108.474 34.4437 108.16 34.4252L107.682 33.917L107.177 33.4241C106.649 32.7311 106.11 32.4323 105.597 31.5884C105.597 31.5853 105.593 31.5853 105.593 31.5853C105.562 31.5329 105.531 31.4775 105.496 31.4251C105.488 31.4313 105.484 31.4405 105.481 31.4467C104.824 30.689 104.762 30.7321 104.681 30.7475C104.638 30.7567 104.595 30.7567 104.463 30.6458C104.335 30.535 104.129 30.3132 103.726 29.8943C103.353 29.2536 102.774 29.5709 101.943 28.8039C101.769 28.4651 101.602 28.114 101.4 27.7844C101.023 27.424 100.697 27.156 100.383 26.9312C100.06 26.7156 99.7419 26.5462 99.4003 26.3644C99.0547 26.1827 98.6859 25.9856 98.216 25.7546C97.7424 25.5236 97.2182 25.2063 96.5077 24.8367C95.2846 23.9742 94.7877 23.3829 95.9563 23.5523C94.3955 23.2627 95.1953 23.4814 93.3588 22.8377C93.188 22.5759 93.3899 22.6313 93.8597 22.6867C93.6811 22.5759 93.5297 22.4896 93.4016 22.4188C93.2695 22.3541 93.1569 22.311 93.0638 22.274C92.8735 22.2032 92.7493 22.1816 92.6367 22.1693C92.4076 22.1416 92.2135 22.1539 91.6155 21.9167C91.0991 22.0492 90.4663 22.311 90.0663 22.2001C90.21 22.274 90.342 22.3664 90.4779 22.4527C89.8179 22.2863 89.1112 22.1477 88.4201 21.9383C88.0707 21.8397 87.7212 21.7196 87.364 21.6056C87.0029 21.5009 86.6418 21.3808 86.2769 21.2483L86.3933 21.122C85.842 21.0081 85.2984 20.8879 84.7471 20.7801L84.7083 20.5768L82.336 20.161L82.6427 20.275C82.5029 20.2534 82.2855 20.2195 82.0176 20.1764C81.7497 20.1425 81.4352 20.1025 81.1052 20.0594C80.4451 19.9701 79.7307 19.8499 79.2143 19.7329L79.2725 19.6312C77.8127 19.3232 76.4343 19.1877 74.9977 19.2093C74.2794 19.2062 73.5456 19.2093 72.773 19.2555C72.0042 19.2986 71.1927 19.2986 70.323 19.3386L70.7773 19.1076C69.5775 18.932 70.4628 19.4495 69.0417 19.391L68.9563 19.1292C67.7294 19.508 67.3411 19.1384 66.4598 19.0676L66.9024 19.3817L65.2794 19.431C63.4934 19.5019 64.1185 19.1169 64.3515 18.9012L63.1867 19.3109L62.8916 19.0368C62.0762 19.4865 61.9908 19.083 60.4921 19.5111C60.3368 19.4156 60.7095 19.2924 60.1737 19.3232C59.3545 19.585 58.5585 19.89 57.7703 20.1918L59.2263 19.7144L59.1642 20.1857C58.4304 20.5029 57.9024 20.5922 57.417 20.6446C56.9317 20.697 56.493 20.7124 55.9649 20.9064C56.2018 20.8079 56.4386 20.7001 56.6832 20.6076C54.9166 21.122 54.7574 20.9649 53.7013 21.1066C54.0508 21.1097 54.5749 21.119 53.8683 21.3438C53.3519 21.507 53.5227 21.2699 53.0024 21.3592C53.0024 21.5163 52.6996 21.7196 52.2492 21.9044C51.7988 22.0923 51.1931 22.2494 50.603 22.3726C50.5991 22.3294 50.603 22.2832 50.6651 22.234C50.3972 22.3695 50.2846 22.4896 49.7526 22.582L49.8963 22.1785L49.0771 22.7791C48.3898 22.9024 47.5706 23.4167 47.5473 23.1919C47.656 23.1272 47.7686 23.0718 47.8773 23.0102C47.062 23.2689 46.2738 23.5707 45.4701 23.848L44.2703 24.2761C43.8743 24.4239 43.4899 24.5934 43.0978 24.7504L42.8765 24.5441C42.6396 25.0646 40.2557 25.5112 40.7022 25.8501C39.6927 26.0503 37.499 27.6304 37.6465 26.9558C36.9049 27.3162 36.307 27.7074 35.7324 28.0647C35.1655 28.4343 34.6219 28.7731 34.0939 29.1581C33.5658 29.5431 33.0184 29.9374 32.3816 30.3501C32.0671 30.5596 31.7216 30.7629 31.3605 30.9908C31.0071 31.2249 30.6266 31.4682 30.2073 31.7239C29.4696 31.9611 28.3203 32.6264 27.2177 33.5104C26.6547 33.9416 26.0684 34.4005 25.5171 34.8533C24.989 35.3277 24.4804 35.7866 24.0145 36.1839C23.8048 36.3903 23.599 36.5905 23.401 36.7907C23.3001 36.8893 23.203 36.9879 23.102 37.0833C23.0127 37.185 22.9196 37.2866 22.8303 37.3852C22.4731 37.7856 22.1314 38.1706 21.7975 38.5464C21.4674 38.9253 21.1335 39.2857 20.8268 39.6553C20.5356 40.0341 20.2444 40.4068 19.9571 40.7826C19.6698 41.1553 19.3786 41.5311 19.0874 41.9099C18.7884 42.2857 18.5477 42.6985 18.2642 43.105C17.7207 43.9274 17.0995 44.7745 16.5636 45.7724C16.0356 46.2868 15.527 46.909 15.1154 47.6113C14.7233 48.3259 14.3699 49.099 14.0244 49.8783C13.838 50.2633 13.7293 50.676 13.5856 51.0703C13.4497 51.4676 13.31 51.8619 13.1624 52.2438C13.0887 52.4348 13.011 52.6227 12.9372 52.8106C12.8557 52.9954 12.7858 53.1802 12.7237 53.365C12.5956 53.7315 12.4519 54.0827 12.2927 54.4153L12.3587 55.2192C12.2306 55.4349 12.1141 55.6689 12.0054 55.9184C11.8967 56.1679 11.8268 56.439 11.7491 56.7193C11.6754 56.9996 11.6016 57.2953 11.5395 57.5971C11.4929 57.9021 11.4424 58.2131 11.3919 58.5304C11.2793 59.1649 11.2444 59.8302 11.1396 60.4925C11.0736 61.1578 10.9571 61.8262 10.829 62.4822C10.9532 63.1321 10.9881 63.4679 10.9998 63.6157C11.0153 63.4956 11.0774 63.3139 11.2716 63.2584C11.124 64.0069 11.3686 65.51 10.9881 65.4176L10.9144 65.2297C10.7164 65.1804 10.8095 65.7503 10.9221 66.4371C11.0425 67.1209 11.2211 67.9156 11.1163 68.3499C11.2211 68.1836 11.3453 68.0173 11.4579 67.854C11.489 68.3253 11.5744 68.7934 11.6327 69.2616L11.4851 68.8951C12.5063 71.8798 13.1857 74.0112 13.97 76.1026C14.1719 76.6232 14.3738 77.1406 14.6223 77.6581C14.7427 77.9168 14.8669 78.1786 14.995 78.4405C15.1387 78.6992 15.2824 78.961 15.4299 79.229C16.0278 80.2947 16.8238 81.3912 17.8993 82.5586C17.014 82.0843 18.835 83.4365 18.4623 83.7014C18.9321 85.2014 20.458 85.9098 21.5179 86.7476C21.5373 86.7353 21.5723 86.7322 21.6538 86.7692C22.1624 87.3329 22.7371 87.8565 23.2845 88.3986C22.5391 88.0875 22.9429 88.3092 23.37 88.5249C23.8087 88.7343 24.263 88.9438 23.5796 88.6696C24.6396 89.7415 25.9442 90.7949 27.404 91.8114C28.8717 92.8217 30.5335 93.755 32.3078 94.602C34.0745 95.4459 35.9847 96.1821 37.9222 96.7673C38.8928 97.0569 39.848 97.3772 40.8303 97.5959C41.8048 97.8392 42.7639 98.101 43.7345 98.2766L43.4317 98.0918C44.4101 98.2735 45.5089 98.4799 46.565 98.5815C47.6172 98.7047 48.5995 98.8618 49.3411 99.0035C50.0827 99.1606 50.9213 99.1575 51.6396 99.0898C52.3579 99.0066 52.9558 98.8896 53.247 98.8896C53.6586 98.8495 54.0624 98.8464 54.4196 98.868C54.7768 98.8742 55.0952 98.905 55.3398 98.9419C55.829 99.0158 56.0309 99.1175 55.6776 99.1113C56.559 99.0713 57.4093 98.9512 58.3295 98.7972C59.2535 98.6524 60.2591 98.5631 61.4666 98.5446C61.6841 98.6308 62.2005 98.6154 62.8528 98.5507C63.505 98.4891 64.2855 98.3321 65.0426 98.1996C65.4192 98.1318 65.7919 98.0672 66.1375 98.0056C66.483 97.9378 66.8014 97.8762 67.0732 97.8362C67.6207 97.7499 67.9934 97.7345 68.04 97.8485L68.0555 97.8054C71.1655 97.6667 73.8213 96.5948 77.0711 96.1513C77.0711 96.1513 77.0245 96.1975 76.9274 96.2529C77.9253 95.794 78.8882 95.2827 79.8588 94.8022C80.8256 94.3094 81.7691 93.7981 82.7165 93.2991L80.3131 92.2703C79.3385 92.3104 78.364 92.3165 77.3933 92.3319C76.4266 92.3535 75.4598 92.3412 74.4969 92.3319C69.7173 93.4993 64.8523 94.3402 59.964 94.7868C56.0387 94.8792 52.1521 94.6544 48.4442 94.0383L46.7397 93.832L45.0663 93.5363L44.2276 93.3884L43.4084 93.1944L41.7699 92.8093L40.178 92.3319L39.3782 92.0948L38.6094 91.8206L37.8406 91.5434L37.0913 91.2354C36.8428 91.1307 36.5865 91.0352 36.3419 90.9243L35.612 90.5855C31.7177 88.7744 28.2854 86.2887 25.5054 83.381C25.0084 83.0237 24.4804 82.6787 23.9951 82.2999C23.7 81.8009 23.3661 81.3019 23.0477 80.7814C22.706 80.2701 22.3876 79.7341 22.0382 79.1982C21.3743 78.114 20.6715 76.9928 20.0775 75.8193L19.8445 75.3819L19.6348 74.9383C19.4951 74.6396 19.3475 74.347 19.2194 74.0451C18.9748 73.4414 18.7146 72.8438 18.5244 72.234C18.1051 71.0235 17.8488 69.8037 17.7479 68.6333L17.3479 68.584C17.0723 67.2719 17.3557 67.3335 17.3712 67.0039C16.9131 63.9545 16.9752 60.8344 17.6003 57.8066C18.2837 54.7726 19.4213 51.7726 21.0287 48.9727C22.6051 46.1575 24.7017 43.5609 27.0391 41.2169C27.3303 40.9243 27.6215 40.6286 27.9088 40.336C28.2155 40.0557 28.5339 39.7816 28.8445 39.5074C29.159 39.2333 29.4696 38.9592 29.7802 38.6881L30.2461 38.2815L30.7431 37.8996C31.4071 37.3944 32.0632 36.8924 32.7155 36.3934C33.4105 35.9314 34.0978 35.4724 34.7811 35.0196C35.3557 34.7147 36.4856 34.074 37.5494 33.4211C38.0736 33.0884 38.6327 32.8019 39.1103 32.5617C39.5878 32.3245 39.9877 32.1397 40.244 32.0627C43.7695 29.6787 48.1841 27.8367 52.5249 26.5739L52.3773 26.6571C53.0374 26.4106 53.7207 26.2135 54.4002 26.0102C54.4973 26.0102 54.5244 26.041 54.4662 26.0811C55.0175 25.8562 55.6698 25.6375 56.3959 25.4712C57.1219 25.3018 57.8907 25.1016 58.7061 24.9845C60.3213 24.7012 62.0296 24.5287 63.5128 24.3839L63.3459 24.4363C67.6478 23.9034 71.9265 23.7186 76.0965 23.9989C80.2549 24.3069 84.3083 25.0461 88.0512 26.3306C89.8955 27.0082 91.7087 27.7567 93.3783 28.6807C95.0517 29.5986 96.6125 30.652 98.0374 31.8225C100.895 34.1634 103.201 36.9848 104.871 40.0957C106.238 43.0496 107.558 46.2961 108.35 49.7982C109.146 53.2911 109.398 57.0334 108.723 60.6588C108.653 60.822 108.571 61.1947 108.478 61.7245C108.358 62.2512 108.253 62.9381 108.066 63.7174C107.985 64.1085 107.896 64.5275 107.779 64.9587C107.67 65.393 107.562 65.8457 107.422 66.3078C107.356 66.5388 107.29 66.7729 107.224 67.01C107.154 67.2472 107.065 67.4875 106.987 67.7308C106.824 68.2175 106.661 68.7072 106.498 69.2C106.35 69.6959 106.148 70.1795 105.962 70.66C105.776 71.1405 105.589 71.6149 105.411 72.0769C105.038 72.9978 104.622 73.8541 104.296 74.6211C104.137 75.0061 103.951 75.3542 103.795 75.6776C103.636 76.001 103.496 76.2905 103.372 76.5431C103.12 77.0513 102.953 77.4117 102.895 77.5719Z" stroke="#CC0000" stroke-opacity="0.7" stroke-width="3.6" mask="url(#path-2-outside-1_4272_10830)"/>
</g>
</svg>
