<svg width="126" height="127" viewBox="0 0 126 127" fill="none" xmlns="http://www.w3.org/2000/svg">
<g style="mix-blend-mode:multiply">
<path d="M79.037 23.7642C78.7452 22.7198 78.4478 21.6005 78.1195 20.495C76.9833 16.6576 76.0113 12.7723 75.5162 8.74801C75.192 6.11138 75.1259 3.51914 76.4124 1.17241C76.5668 0.890288 76.8109 0.669286 77.0331 0.447198C77.095 0.384582 77.2293 0.422183 77.496 0.398438C76.886 3.87363 78.0181 6.92831 79.3494 9.86253C81.1184 13.7646 82.8834 17.6871 84.9165 21.4042C93.7378 37.5308 101.331 54.4547 109.022 71.3147C110.703 75.0034 112.28 78.7599 114.007 82.4177C115.899 86.422 115.376 90.1619 113.579 93.9067C112.815 95.5004 111.747 96.4187 110.205 96.473C108.384 96.5368 106.559 96.5036 104.736 96.4905C92.869 96.4085 81.0032 96.2659 69.1372 96.2517C59.2004 96.2415 49.2603 96.27 39.3285 96.4906C32.8439 96.6362 26.3695 97.1609 19.8904 97.5061C19.0815 97.5501 18.264 97.4826 17.4598 97.5705C15.1017 97.8286 13.6544 96.268 12.4975 94.1566C12.0595 93.3556 11.7403 92.4661 11.3723 91.6114C10.4489 89.4646 10.6477 87.4629 11.9177 85.6264C12.8066 84.342 13.6937 83.054 14.6313 81.8193C20.7453 73.7562 27.5398 66.5354 34.7142 59.7968C47.0063 48.2524 59.9187 37.71 73.1301 27.6617C74.9755 26.2586 76.9692 25.1162 79.0368 23.7605L79.037 23.7642ZM22.081 87.1416C22.9242 87.2724 23.3971 87.4195 23.8645 87.4054C25.6882 87.347 27.5103 87.241 29.3327 87.1423C39.4642 86.5958 49.6072 86.6411 59.7487 86.8699C69.0809 87.0822 78.4113 87.4687 87.7425 87.7874C94.0301 88.0024 100.318 88.2376 106.606 88.4508C107.085 88.4675 107.637 88.623 108.015 87.7575C107.86 87.3484 107.698 86.8001 107.458 86.3059C102.411 75.9182 97.3843 65.5152 92.2876 55.1603C88.5134 47.4907 84.9602 39.6961 81.9079 31.5985C81.6663 30.9576 81.3434 30.3599 81.1079 29.849C80.6459 29.7455 80.3368 29.5855 80.0601 29.6371C79.6777 29.707 79.265 29.8512 78.9549 30.1093C77.7204 31.1323 76.5192 32.2109 75.3064 33.2717C65.0364 42.2518 54.8473 51.3556 45.0231 61.0008C37.7486 68.1426 30.7608 75.6486 24.3942 83.9146C23.6685 84.8561 22.9981 85.858 22.081 87.1416Z" fill="#CC0000" fill-opacity="0.7"/>
</g>
</svg>
