<svg width="545" height="72" viewBox="0 0 545 72" fill="none" xmlns="http://www.w3.org/2000/svg">
<g clip-path="url(#clip0_190_439)">
<path d="M20.5 72.375C40.5 36.697 106.5 31.8147 123.5 57.7309V72.375H20.5Z" fill="#FEF3F2"/>
<rect x="123.5" y="57" width="28" height="15" fill="#FEF3F2"/>
<g clip-path="url(#clip1_190_439)">
<path fill-rule="evenodd" clip-rule="evenodd" d="M123.855 20.4024C132.837 17.2027 142.616 21.938 145.787 30.8388L145.795 30.8612L145.795 30.8612L149.493 41.3338C149.494 41.338 149.496 41.3422 149.497 41.3464C152.688 50.3248 147.953 60.096 139.056 63.2654C130.075 66.4652 120.296 61.7298 117.125 52.829L117.117 52.8066L117.117 52.8066L113.419 42.334C113.418 42.3296 113.416 42.3253 113.414 42.321C110.224 33.3427 114.959 23.5718 123.855 20.4024ZM129.616 36.3783C129.609 36.3779 129.592 36.3769 129.551 36.3913C129.5 36.4095 129.477 36.4278 129.463 36.4403C129.445 36.4568 129.427 36.48 129.413 36.5084C129.4 36.5367 129.396 36.5595 129.395 36.5728L129.395 36.573C129.395 36.5801 129.393 36.5976 129.408 36.6379L129.416 36.6603L129.416 36.6603L133.115 47.1371C133.133 47.1854 133.151 47.208 133.163 47.2214C133.179 47.2395 133.202 47.2574 133.231 47.271C133.259 47.2846 133.282 47.2887 133.295 47.2895L133.295 47.2895C133.302 47.2899 133.32 47.2909 133.36 47.2765C133.411 47.2583 133.435 47.24 133.449 47.2275C133.467 47.211 133.485 47.1879 133.498 47.1594C133.512 47.1311 133.516 47.1083 133.517 47.095C133.517 47.088 133.518 47.0705 133.504 47.0299L133.496 47.0075L133.496 47.0075L129.797 36.5307C129.779 36.4824 129.761 36.4598 129.749 36.4464C129.733 36.4284 129.709 36.4104 129.681 36.3968C129.653 36.3832 129.63 36.3791 129.617 36.3783L129.616 36.3783Z" fill="#FEF3F2"/>
<path fill-rule="evenodd" clip-rule="evenodd" d="M113.885 8.89781C118.077 6.80172 123.174 8.50094 125.27 12.6931L128.043 18.2377C130.139 22.4298 128.44 27.5275 124.247 29.6236C120.055 31.7197 114.958 30.0205 112.861 25.8283L110.089 20.2837C107.993 16.0915 109.692 10.9939 113.885 8.89781Z" fill="#FEF3F2"/>
<path fill-rule="evenodd" clip-rule="evenodd" d="M101.625 20.662C103.974 16.6063 109.166 15.2229 113.222 17.5721L118.399 20.5707C122.455 22.9199 123.838 28.1122 121.489 32.1679C119.14 36.2237 113.947 37.6071 109.892 35.2579L104.715 32.2593C100.659 29.9101 99.2756 24.7178 101.625 20.662Z" fill="#FEF3F2"/>
<path fill-rule="evenodd" clip-rule="evenodd" d="M116.783 14.692C117.775 14.1959 118.981 14.598 119.477 15.5902L122.25 21.1348C122.746 22.1269 122.343 23.3333 121.351 23.8294C120.359 24.3255 119.153 23.9233 118.657 22.9312L115.884 17.3866C115.388 16.3945 115.79 15.188 116.783 14.692Z" fill="#EF8586"/>
<path fill-rule="evenodd" clip-rule="evenodd" d="M107.232 23.9093C107.788 22.9495 109.017 22.6221 109.976 23.1781L115.153 26.1767C116.113 26.7326 116.441 27.9615 115.885 28.9213C115.329 29.8812 114.1 30.2086 113.14 29.6526L107.963 26.654C107.003 26.098 106.676 24.8692 107.232 23.9093Z" fill="#EF8586"/>
<path d="M122.289 29.9807C120.196 30.7162 119.121 33.0075 119.856 35.1009L128.032 58.2126L144.411 52.4135L136.235 29.3017C135.5 27.2084 133.208 26.1334 131.115 26.8689L122.289 30.0089V29.9807Z" fill="#FCD57F"/>
<path d="M129.363 57.8158L140.226 66.5852L143.14 52.9219L129.363 57.8158Z" fill="white"/>
<path fill-rule="evenodd" clip-rule="evenodd" d="M144.069 51.8567C144.454 52.1945 144.626 52.7142 144.52 53.2153L141.606 66.8787C141.503 67.3594 141.159 67.7525 140.695 67.9168C140.232 68.0811 139.717 67.993 139.334 67.6842L128.471 58.9148C128.073 58.5931 127.879 58.0812 127.965 57.5764C128.052 57.0717 128.404 56.6528 128.886 56.4814L142.663 51.5875C143.146 51.416 143.683 51.519 144.069 51.8567ZM132.215 58.3011L139.319 64.0368L141.225 55.1002L132.215 58.3011Z" fill="#FCD57F"/>
<path fill-rule="evenodd" clip-rule="evenodd" d="M131.163 32.0591C131.532 31.9291 131.936 32.1223 132.066 32.4906L138.515 50.765C138.645 51.1333 138.452 51.5373 138.084 51.6673C137.716 51.7973 137.312 51.6041 137.182 51.2357L130.732 32.9613C130.602 32.593 130.795 32.1891 131.163 32.0591Z" fill="white"/>
<path fill-rule="evenodd" clip-rule="evenodd" d="M125.226 34.2905C125.594 34.1605 125.998 34.3537 126.128 34.722L132.578 52.9964C132.708 53.3647 132.515 53.7687 132.146 53.8987C131.778 54.0287 131.374 53.8355 131.244 53.4672L124.794 35.1928C124.664 34.8245 124.858 34.4205 125.226 34.2905Z" fill="white"/>
<path d="M135.334 63.2776L140.228 66.5874L141.954 60.9297L135.334 63.2776Z" fill="#FCD57F"/>
<path d="M122.289 29.9807C120.196 30.7162 119.121 33.0075 119.856 35.1009L128.032 58.2126L144.411 52.4135L136.235 29.3017C135.5 27.2084 133.208 26.1334 131.115 26.8689L122.289 30.0089V29.9807Z" fill="#EF8586"/>
<path d="M129.363 57.8158L140.226 66.5852L143.14 52.9219L129.363 57.8158Z" fill="white"/>
<path fill-rule="evenodd" clip-rule="evenodd" d="M144.069 51.8567C144.454 52.1945 144.626 52.7142 144.52 53.2153L141.606 66.8787C141.503 67.3594 141.159 67.7525 140.695 67.9168C140.232 68.0811 139.717 67.993 139.334 67.6842L128.471 58.9148C128.073 58.5931 127.879 58.0812 127.965 57.5764C128.052 57.0717 128.404 56.6528 128.886 56.4814L142.663 51.5875C143.146 51.416 143.683 51.519 144.069 51.8567ZM132.215 58.3011L139.319 64.0368L141.225 55.1002L132.215 58.3011Z" fill="#EF8586"/>
<path fill-rule="evenodd" clip-rule="evenodd" d="M131.163 32.0591C131.532 31.9291 131.936 32.1223 132.066 32.4906L138.515 50.765C138.645 51.1333 138.452 51.5373 138.084 51.6673C137.716 51.7973 137.312 51.6041 137.182 51.2357L130.732 32.9613C130.602 32.593 130.795 32.1891 131.163 32.0591Z" fill="white"/>
<path fill-rule="evenodd" clip-rule="evenodd" d="M125.226 34.2905C125.594 34.1605 125.998 34.3537 126.128 34.722L132.578 52.9964C132.708 53.3647 132.515 53.7687 132.146 53.8987C131.778 54.0287 131.374 53.8355 131.244 53.4672L124.794 35.1928C124.664 34.8245 124.858 34.4205 125.226 34.2905Z" fill="white"/>
<path d="M135.334 63.2776L140.228 66.5874L141.954 60.9297L135.334 63.2776Z" fill="#EF8586"/>
</g>
<path d="M144.5 32C144.5 14.3269 158.827 0 176.5 0H512.5C530.173 0 544.5 14.3269 544.5 32V72H144.5V32Z" fill="#FEF3F2"/>
</g>
<defs>
<clipPath id="clip0_190_439">
<rect width="524" height="72" fill="white" transform="translate(20.5)"/>
</clipPath>
<clipPath id="clip1_190_439">
<rect width="50.0424" height="60" fill="white" transform="translate(100.48 8)"/>
</clipPath>
</defs>
</svg>
