<svg width="400" height="156" viewBox="0 0 400 156" fill="none" xmlns="http://www.w3.org/2000/svg">
<g clip-path="url(#clip0_11088_186162)">
<path d="M-85.155 -28.3359V93.3705C-7.99899 97.6824 26.4414 134.985 26.4414 134.985C62.2028 99.2237 74.001 89.554 247.726 89.554C393.359 89.554 408.955 -28.3359 408.955 -28.3359" fill="#B9ABF9"/>
<mask id="mask0_11088_186162" style="mask-type:luminance" maskUnits="userSpaceOnUse" x="-86" y="-29" width="495" height="164">
<path d="M-85.1553 -28.3359V93.3705C-7.99931 97.6824 26.4411 134.985 26.4411 134.985C62.2025 99.2237 74.0007 89.554 247.725 89.554C393.358 89.554 408.955 -28.3359 408.955 -28.3359" fill="white"/>
</mask>
<g mask="url(#mask0_11088_186162)">
<g opacity="0.3">
<path d="M13.9455 -0.078125L9.39505 6.34389" stroke="white" stroke-width="3.66972" stroke-linecap="round" stroke-linejoin="round"/>
<path d="M30.6241 -0.078125L26.0737 6.34389" stroke="white" stroke-width="3.66972" stroke-linecap="round" stroke-linejoin="round"/>
<path d="M47.3027 -0.078125L42.7523 6.34389" stroke="white" stroke-width="3.66972" stroke-linecap="round" stroke-linejoin="round"/>
<path d="M63.9813 -0.078125L59.4309 6.34389" stroke="white" stroke-width="3.66972" stroke-linecap="round" stroke-linejoin="round"/>
<path d="M80.66 -0.078125L76.1095 6.34389" stroke="white" stroke-width="3.66972" stroke-linecap="round" stroke-linejoin="round"/>
<path d="M97.3385 -0.078125L92.7881 6.34389" stroke="white" stroke-width="3.66972" stroke-linecap="round" stroke-linejoin="round"/>
<path d="M114.019 -0.078125L109.469 6.34389" stroke="white" stroke-width="3.66972" stroke-linecap="round" stroke-linejoin="round"/>
<path d="M130.698 -0.078125L126.147 6.34389" stroke="white" stroke-width="3.66972" stroke-linecap="round" stroke-linejoin="round"/>
<path d="M147.376 -0.078125L142.826 6.34389" stroke="white" stroke-width="3.66972" stroke-linecap="round" stroke-linejoin="round"/>
<path d="M164.055 -0.078125L159.504 6.34389" stroke="white" stroke-width="3.66972" stroke-linecap="round" stroke-linejoin="round"/>
<path d="M180.733 -0.078125L176.183 6.34389" stroke="white" stroke-width="3.66972" stroke-linecap="round" stroke-linejoin="round"/>
<path d="M197.412 -0.078125L192.862 6.34389" stroke="white" stroke-width="3.66972" stroke-linecap="round" stroke-linejoin="round"/>
<path d="M214.092 -0.078125L209.56 6.34389" stroke="white" stroke-width="3.66972" stroke-linecap="round" stroke-linejoin="round"/>
<path d="M230.771 -0.078125L226.238 6.34389" stroke="white" stroke-width="3.66972" stroke-linecap="round" stroke-linejoin="round"/>
<path d="M247.449 -0.078125L242.917 6.34389" stroke="white" stroke-width="3.66972" stroke-linecap="round" stroke-linejoin="round"/>
<path d="M264.128 -0.078125L259.596 6.34389" stroke="white" stroke-width="3.66972" stroke-linecap="round" stroke-linejoin="round"/>
<path d="M280.806 -0.078125L276.274 6.34389" stroke="white" stroke-width="3.66972" stroke-linecap="round" stroke-linejoin="round"/>
<path d="M297.487 -0.078125L292.955 6.34389" stroke="white" stroke-width="3.66972" stroke-linecap="round" stroke-linejoin="round"/>
<path d="M314.165 -0.078125L309.633 6.34389" stroke="white" stroke-width="3.66972" stroke-linecap="round" stroke-linejoin="round"/>
<path d="M330.844 -0.078125L326.312 6.34389" stroke="white" stroke-width="3.66972" stroke-linecap="round" stroke-linejoin="round"/>
<path d="M347.523 -0.078125L342.991 6.34389" stroke="white" stroke-width="3.66972" stroke-linecap="round" stroke-linejoin="round"/>
<path d="M364.201 -0.078125L359.669 6.34389" stroke="white" stroke-width="3.66972" stroke-linecap="round" stroke-linejoin="round"/>
<path d="M380.88 -0.078125L376.348 6.34389" stroke="white" stroke-width="3.66972" stroke-linecap="round" stroke-linejoin="round"/>
<path d="M397.56 -0.078125L393.028 6.34389" stroke="white" stroke-width="3.66972" stroke-linecap="round" stroke-linejoin="round"/>
<path d="M393.028 20.7656L397.56 27.1876" stroke="white" stroke-width="3.66972" stroke-linecap="round" stroke-linejoin="round"/>
<path d="M376.348 20.7656L380.88 27.1876" stroke="white" stroke-width="3.66972" stroke-linecap="round" stroke-linejoin="round"/>
<path d="M359.669 20.7656L364.201 27.1876" stroke="white" stroke-width="3.66972" stroke-linecap="round" stroke-linejoin="round"/>
<path d="M342.991 20.7656L347.523 27.1876" stroke="white" stroke-width="3.66972" stroke-linecap="round" stroke-linejoin="round"/>
<path d="M326.312 20.7656L330.844 27.1876" stroke="white" stroke-width="3.66972" stroke-linecap="round" stroke-linejoin="round"/>
<path d="M309.633 20.7656L314.165 27.1876" stroke="white" stroke-width="3.66972" stroke-linecap="round" stroke-linejoin="round"/>
<path d="M292.955 20.7656L297.487 27.1876" stroke="white" stroke-width="3.66972" stroke-linecap="round" stroke-linejoin="round"/>
<path d="M276.256 20.7656L280.807 27.1876" stroke="white" stroke-width="3.66972" stroke-linecap="round" stroke-linejoin="round"/>
<path d="M259.578 20.7656L264.128 27.1876" stroke="white" stroke-width="3.66972" stroke-linecap="round" stroke-linejoin="round"/>
<path d="M242.899 20.7656L247.45 27.1876" stroke="white" stroke-width="3.66972" stroke-linecap="round" stroke-linejoin="round"/>
<path d="M226.221 20.7656L230.771 27.1876" stroke="white" stroke-width="3.66972" stroke-linecap="round" stroke-linejoin="round"/>
<path d="M209.542 20.7656L214.092 27.1876" stroke="white" stroke-width="3.66972" stroke-linecap="round" stroke-linejoin="round"/>
<path d="M192.862 20.7656L197.412 27.1876" stroke="white" stroke-width="3.66972" stroke-linecap="round" stroke-linejoin="round"/>
<path d="M176.183 20.7656L180.733 27.1876" stroke="white" stroke-width="3.66972" stroke-linecap="round" stroke-linejoin="round"/>
<path d="M159.504 20.7656L164.055 27.1876" stroke="white" stroke-width="3.66972" stroke-linecap="round" stroke-linejoin="round"/>
<path d="M142.826 20.7656L147.376 27.1876" stroke="white" stroke-width="3.66972" stroke-linecap="round" stroke-linejoin="round"/>
<path d="M126.147 20.7656L130.698 27.1876" stroke="white" stroke-width="3.66972" stroke-linecap="round" stroke-linejoin="round"/>
<path d="M109.469 20.7656L114.019 27.1876" stroke="white" stroke-width="3.66972" stroke-linecap="round" stroke-linejoin="round"/>
<path d="M92.7881 20.7656L97.3385 27.1876" stroke="white" stroke-width="3.66972" stroke-linecap="round" stroke-linejoin="round"/>
<path d="M76.1095 20.7656L80.66 27.1876" stroke="white" stroke-width="3.66972" stroke-linecap="round" stroke-linejoin="round"/>
<path d="M59.4309 20.7656L63.9813 27.1876" stroke="white" stroke-width="3.66972" stroke-linecap="round" stroke-linejoin="round"/>
<path d="M42.7523 20.7656L47.3027 27.1876" stroke="white" stroke-width="3.66972" stroke-linecap="round" stroke-linejoin="round"/>
<path d="M26.0737 20.7656L30.6241 27.1876" stroke="white" stroke-width="3.66972" stroke-linecap="round" stroke-linejoin="round"/>
<path d="M9.39505 20.7656L13.9455 27.1876" stroke="white" stroke-width="3.66972" stroke-linecap="round" stroke-linejoin="round"/>
<path d="M13.9455 41.6094L9.39505 48.0314" stroke="white" stroke-width="3.66972" stroke-linecap="round" stroke-linejoin="round"/>
<path d="M30.6241 41.6094L26.0737 48.0314" stroke="white" stroke-width="3.66972" stroke-linecap="round" stroke-linejoin="round"/>
<path d="M47.3027 41.6094L42.7523 48.0314" stroke="white" stroke-width="3.66972" stroke-linecap="round" stroke-linejoin="round"/>
<path d="M63.9813 41.6094L59.4309 48.0314" stroke="white" stroke-width="3.66972" stroke-linecap="round" stroke-linejoin="round"/>
<path d="M80.66 41.6094L76.1095 48.0314" stroke="white" stroke-width="3.66972" stroke-linecap="round" stroke-linejoin="round"/>
<path d="M97.3385 41.6094L92.7881 48.0314" stroke="white" stroke-width="3.66972" stroke-linecap="round" stroke-linejoin="round"/>
<path d="M114.019 41.6094L109.469 48.0314" stroke="white" stroke-width="3.66972" stroke-linecap="round" stroke-linejoin="round"/>
<path d="M130.698 41.6094L126.147 48.0314" stroke="white" stroke-width="3.66972" stroke-linecap="round" stroke-linejoin="round"/>
<path d="M147.376 41.6094L142.826 48.0314" stroke="white" stroke-width="3.66972" stroke-linecap="round" stroke-linejoin="round"/>
<path d="M164.055 41.6094L159.504 48.0314" stroke="white" stroke-width="3.66972" stroke-linecap="round" stroke-linejoin="round"/>
<path d="M180.733 41.6094L176.183 48.0314" stroke="white" stroke-width="3.66972" stroke-linecap="round" stroke-linejoin="round"/>
<path d="M197.412 41.6094L192.862 48.0314" stroke="white" stroke-width="3.66972" stroke-linecap="round" stroke-linejoin="round"/>
<path d="M214.092 41.6094L209.56 48.0314" stroke="white" stroke-width="3.66972" stroke-linecap="round" stroke-linejoin="round"/>
<path d="M230.771 41.6094L226.238 48.0314" stroke="white" stroke-width="3.66972" stroke-linecap="round" stroke-linejoin="round"/>
<path d="M247.449 41.6094L242.917 48.0314" stroke="white" stroke-width="3.66972" stroke-linecap="round" stroke-linejoin="round"/>
<path d="M264.128 41.6094L259.596 48.0314" stroke="white" stroke-width="3.66972" stroke-linecap="round" stroke-linejoin="round"/>
<path d="M280.806 41.6094L276.274 48.0314" stroke="white" stroke-width="3.66972" stroke-linecap="round" stroke-linejoin="round"/>
<path d="M297.487 41.6094L292.955 48.0314" stroke="white" stroke-width="3.66972" stroke-linecap="round" stroke-linejoin="round"/>
<path d="M314.165 41.6094L309.633 48.0314" stroke="white" stroke-width="3.66972" stroke-linecap="round" stroke-linejoin="round"/>
<path d="M330.844 41.6094L326.312 48.0314" stroke="white" stroke-width="3.66972" stroke-linecap="round" stroke-linejoin="round"/>
<path d="M347.523 41.6094L342.991 48.0314" stroke="white" stroke-width="3.66972" stroke-linecap="round" stroke-linejoin="round"/>
<path d="M364.201 41.6094L359.669 48.0314" stroke="white" stroke-width="3.66972" stroke-linecap="round" stroke-linejoin="round"/>
<path d="M380.88 41.6094L376.348 48.0314" stroke="white" stroke-width="3.66972" stroke-linecap="round" stroke-linejoin="round"/>
<path d="M397.56 41.6094L393.028 48.0314" stroke="white" stroke-width="3.66972" stroke-linecap="round" stroke-linejoin="round"/>
<path d="M393.028 62.4688L397.56 68.8908" stroke="white" stroke-width="3.66972" stroke-linecap="round" stroke-linejoin="round"/>
<path d="M376.348 62.4688L380.88 68.8908" stroke="white" stroke-width="3.66972" stroke-linecap="round" stroke-linejoin="round"/>
<path d="M359.669 62.4688L364.201 68.8908" stroke="white" stroke-width="3.66972" stroke-linecap="round" stroke-linejoin="round"/>
<path d="M342.991 62.4688L347.523 68.8908" stroke="white" stroke-width="3.66972" stroke-linecap="round" stroke-linejoin="round"/>
<path d="M326.312 62.4688L330.844 68.8908" stroke="white" stroke-width="3.66972" stroke-linecap="round" stroke-linejoin="round"/>
<path d="M309.633 62.4688L314.165 68.8908" stroke="white" stroke-width="3.66972" stroke-linecap="round" stroke-linejoin="round"/>
<path d="M292.955 62.4688L297.487 68.8908" stroke="white" stroke-width="3.66972" stroke-linecap="round" stroke-linejoin="round"/>
<path d="M276.256 62.4688L280.807 68.8908" stroke="white" stroke-width="3.66972" stroke-linecap="round" stroke-linejoin="round"/>
<path d="M259.578 62.4688L264.128 68.8908" stroke="white" stroke-width="3.66972" stroke-linecap="round" stroke-linejoin="round"/>
<path d="M242.899 62.4688L247.45 68.8908" stroke="white" stroke-width="3.66972" stroke-linecap="round" stroke-linejoin="round"/>
<path d="M226.221 62.4688L230.771 68.8908" stroke="white" stroke-width="3.66972" stroke-linecap="round" stroke-linejoin="round"/>
<path d="M209.542 62.4688L214.092 68.8908" stroke="white" stroke-width="3.66972" stroke-linecap="round" stroke-linejoin="round"/>
<path d="M192.862 62.4688L197.412 68.8908" stroke="white" stroke-width="3.66972" stroke-linecap="round" stroke-linejoin="round"/>
<path d="M176.183 62.4688L180.733 68.8908" stroke="white" stroke-width="3.66972" stroke-linecap="round" stroke-linejoin="round"/>
<path d="M159.504 62.4688L164.055 68.8908" stroke="white" stroke-width="3.66972" stroke-linecap="round" stroke-linejoin="round"/>
<path d="M142.826 62.4688L147.376 68.8908" stroke="white" stroke-width="3.66972" stroke-linecap="round" stroke-linejoin="round"/>
<path d="M126.147 62.4688L130.698 68.8908" stroke="white" stroke-width="3.66972" stroke-linecap="round" stroke-linejoin="round"/>
<path d="M109.469 62.4688L114.019 68.8908" stroke="white" stroke-width="3.66972" stroke-linecap="round" stroke-linejoin="round"/>
<path d="M92.7881 62.4688L97.3385 68.8908" stroke="white" stroke-width="3.66972" stroke-linecap="round" stroke-linejoin="round"/>
<path d="M76.1095 62.4688L80.66 68.8908" stroke="white" stroke-width="3.66972" stroke-linecap="round" stroke-linejoin="round"/>
<path d="M59.4309 62.4688L63.9813 68.8908" stroke="white" stroke-width="3.66972" stroke-linecap="round" stroke-linejoin="round"/>
<path d="M42.7523 62.4688L47.3027 68.8908" stroke="white" stroke-width="3.66972" stroke-linecap="round" stroke-linejoin="round"/>
<path d="M26.0737 62.4688L30.6241 68.8908" stroke="white" stroke-width="3.66972" stroke-linecap="round" stroke-linejoin="round"/>
<path d="M9.39505 62.4688L13.9455 68.8908" stroke="white" stroke-width="3.66972" stroke-linecap="round" stroke-linejoin="round"/>
<path d="M13.9455 83.3125L9.39505 89.7345" stroke="white" stroke-width="3.66972" stroke-linecap="round" stroke-linejoin="round"/>
<path d="M30.6241 83.3125L26.0737 89.7345" stroke="white" stroke-width="3.66972" stroke-linecap="round" stroke-linejoin="round"/>
<path d="M47.3027 83.3125L42.7523 89.7345" stroke="white" stroke-width="3.66972" stroke-linecap="round" stroke-linejoin="round"/>
<path d="M63.9813 83.3125L59.4309 89.7345" stroke="white" stroke-width="3.66972" stroke-linecap="round" stroke-linejoin="round"/>
<path d="M80.66 83.3125L76.1095 89.7345" stroke="white" stroke-width="3.66972" stroke-linecap="round" stroke-linejoin="round"/>
<path d="M97.3385 83.3125L92.7881 89.7345" stroke="white" stroke-width="3.66972" stroke-linecap="round" stroke-linejoin="round"/>
<path d="M114.019 83.3125L109.469 89.7345" stroke="white" stroke-width="3.66972" stroke-linecap="round" stroke-linejoin="round"/>
<path d="M130.698 83.3125L126.147 89.7345" stroke="white" stroke-width="3.66972" stroke-linecap="round" stroke-linejoin="round"/>
<path d="M147.376 83.3125L142.826 89.7345" stroke="white" stroke-width="3.66972" stroke-linecap="round" stroke-linejoin="round"/>
<path d="M164.055 83.3125L159.504 89.7345" stroke="white" stroke-width="3.66972" stroke-linecap="round" stroke-linejoin="round"/>
<path d="M180.733 83.3125L176.183 89.7345" stroke="white" stroke-width="3.66972" stroke-linecap="round" stroke-linejoin="round"/>
<path d="M197.412 83.3125L192.862 89.7345" stroke="white" stroke-width="3.66972" stroke-linecap="round" stroke-linejoin="round"/>
<path d="M214.092 83.3125L209.56 89.7345" stroke="white" stroke-width="3.66972" stroke-linecap="round" stroke-linejoin="round"/>
<path d="M230.771 83.3125L226.238 89.7345" stroke="white" stroke-width="3.66972" stroke-linecap="round" stroke-linejoin="round"/>
<path d="M247.449 83.3125L242.917 89.7345" stroke="white" stroke-width="3.66972" stroke-linecap="round" stroke-linejoin="round"/>
<path d="M264.128 83.3125L259.596 89.7345" stroke="white" stroke-width="3.66972" stroke-linecap="round" stroke-linejoin="round"/>
<path d="M280.806 83.3125L276.274 89.7345" stroke="white" stroke-width="3.66972" stroke-linecap="round" stroke-linejoin="round"/>
<path d="M297.487 83.3125L292.955 89.7345" stroke="white" stroke-width="3.66972" stroke-linecap="round" stroke-linejoin="round"/>
<path d="M314.165 83.3125L309.633 89.7345" stroke="white" stroke-width="3.66972" stroke-linecap="round" stroke-linejoin="round"/>
<path d="M330.844 83.3125L326.312 89.7345" stroke="white" stroke-width="3.66972" stroke-linecap="round" stroke-linejoin="round"/>
<path d="M347.523 83.3125L342.991 89.7345" stroke="white" stroke-width="3.66972" stroke-linecap="round" stroke-linejoin="round"/>
<path d="M364.201 83.3125L359.669 89.7345" stroke="white" stroke-width="3.66972" stroke-linecap="round" stroke-linejoin="round"/>
<path d="M380.88 83.3125L376.348 89.7345" stroke="white" stroke-width="3.66972" stroke-linecap="round" stroke-linejoin="round"/>
<path d="M397.56 83.3125L393.028 89.7345" stroke="white" stroke-width="3.66972" stroke-linecap="round" stroke-linejoin="round"/>
<path d="M393.028 104.164L397.56 110.586" stroke="white" stroke-width="3.66972" stroke-linecap="round" stroke-linejoin="round"/>
<path d="M376.348 104.164L380.88 110.586" stroke="white" stroke-width="3.66972" stroke-linecap="round" stroke-linejoin="round"/>
<path d="M359.669 104.164L364.201 110.586" stroke="white" stroke-width="3.66972" stroke-linecap="round" stroke-linejoin="round"/>
<path d="M342.991 104.164L347.523 110.586" stroke="white" stroke-width="3.66972" stroke-linecap="round" stroke-linejoin="round"/>
<path d="M326.312 104.164L330.844 110.586" stroke="white" stroke-width="3.66972" stroke-linecap="round" stroke-linejoin="round"/>
<path d="M309.633 104.164L314.165 110.586" stroke="white" stroke-width="3.66972" stroke-linecap="round" stroke-linejoin="round"/>
<path d="M292.955 104.164L297.487 110.586" stroke="white" stroke-width="3.66972" stroke-linecap="round" stroke-linejoin="round"/>
<path d="M276.256 104.164L280.807 110.586" stroke="white" stroke-width="3.66972" stroke-linecap="round" stroke-linejoin="round"/>
<path d="M259.578 104.164L264.128 110.586" stroke="white" stroke-width="3.66972" stroke-linecap="round" stroke-linejoin="round"/>
<path d="M242.899 104.164L247.45 110.586" stroke="white" stroke-width="3.66972" stroke-linecap="round" stroke-linejoin="round"/>
<path d="M226.221 104.164L230.771 110.586" stroke="white" stroke-width="3.66972" stroke-linecap="round" stroke-linejoin="round"/>
<path d="M209.542 104.164L214.092 110.586" stroke="white" stroke-width="3.66972" stroke-linecap="round" stroke-linejoin="round"/>
<path d="M192.862 104.164L197.412 110.586" stroke="white" stroke-width="3.66972" stroke-linecap="round" stroke-linejoin="round"/>
<path d="M176.183 104.164L180.733 110.586" stroke="white" stroke-width="3.66972" stroke-linecap="round" stroke-linejoin="round"/>
<path d="M159.504 104.164L164.055 110.586" stroke="white" stroke-width="3.66972" stroke-linecap="round" stroke-linejoin="round"/>
<path d="M142.826 104.164L147.376 110.586" stroke="white" stroke-width="3.66972" stroke-linecap="round" stroke-linejoin="round"/>
<path d="M126.147 104.164L130.698 110.586" stroke="white" stroke-width="3.66972" stroke-linecap="round" stroke-linejoin="round"/>
<path d="M109.469 104.164L114.019 110.586" stroke="white" stroke-width="3.66972" stroke-linecap="round" stroke-linejoin="round"/>
<path d="M92.7881 104.164L97.3385 110.586" stroke="white" stroke-width="3.66972" stroke-linecap="round" stroke-linejoin="round"/>
<path d="M76.1095 104.164L80.66 110.586" stroke="white" stroke-width="3.66972" stroke-linecap="round" stroke-linejoin="round"/>
<path d="M59.4309 104.164L63.9813 110.586" stroke="white" stroke-width="3.66972" stroke-linecap="round" stroke-linejoin="round"/>
<path d="M42.7523 104.164L47.3027 110.586" stroke="white" stroke-width="3.66972" stroke-linecap="round" stroke-linejoin="round"/>
<path d="M26.0737 104.164L30.6241 110.586" stroke="white" stroke-width="3.66972" stroke-linecap="round" stroke-linejoin="round"/>
<path d="M9.39505 104.164L13.9455 110.586" stroke="white" stroke-width="3.66972" stroke-linecap="round" stroke-linejoin="round"/>
<path d="M13.9455 125.008L9.39505 131.43" stroke="white" stroke-width="3.66972" stroke-linecap="round" stroke-linejoin="round"/>
<path d="M30.6241 125.008L26.0737 131.43" stroke="white" stroke-width="3.66972" stroke-linecap="round" stroke-linejoin="round"/>
<path d="M47.3027 125.008L42.7523 131.43" stroke="white" stroke-width="3.66972" stroke-linecap="round" stroke-linejoin="round"/>
<path d="M63.9813 125.008L59.4309 131.43" stroke="white" stroke-width="3.66972" stroke-linecap="round" stroke-linejoin="round"/>
<path d="M80.66 125.008L76.1095 131.43" stroke="white" stroke-width="3.66972" stroke-linecap="round" stroke-linejoin="round"/>
<path d="M97.3385 125.008L92.7881 131.43" stroke="white" stroke-width="3.66972" stroke-linecap="round" stroke-linejoin="round"/>
<path d="M114.019 125.008L109.469 131.43" stroke="white" stroke-width="3.66972" stroke-linecap="round" stroke-linejoin="round"/>
<path d="M130.698 125.008L126.147 131.43" stroke="white" stroke-width="3.66972" stroke-linecap="round" stroke-linejoin="round"/>
<path d="M147.376 125.008L142.826 131.43" stroke="white" stroke-width="3.66972" stroke-linecap="round" stroke-linejoin="round"/>
<path d="M164.055 125.008L159.504 131.43" stroke="white" stroke-width="3.66972" stroke-linecap="round" stroke-linejoin="round"/>
<path d="M180.733 125.008L176.183 131.43" stroke="white" stroke-width="3.66972" stroke-linecap="round" stroke-linejoin="round"/>
<path d="M197.412 125.008L192.862 131.43" stroke="white" stroke-width="3.66972" stroke-linecap="round" stroke-linejoin="round"/>
<path d="M214.092 125.008L209.56 131.43" stroke="white" stroke-width="3.66972" stroke-linecap="round" stroke-linejoin="round"/>
<path d="M230.771 125.008L226.238 131.43" stroke="white" stroke-width="3.66972" stroke-linecap="round" stroke-linejoin="round"/>
<path d="M247.449 125.008L242.917 131.43" stroke="white" stroke-width="3.66972" stroke-linecap="round" stroke-linejoin="round"/>
<path d="M264.128 125.008L259.596 131.43" stroke="white" stroke-width="3.66972" stroke-linecap="round" stroke-linejoin="round"/>
<path d="M280.806 125.008L276.274 131.43" stroke="white" stroke-width="3.66972" stroke-linecap="round" stroke-linejoin="round"/>
<path d="M297.487 125.008L292.955 131.43" stroke="white" stroke-width="3.66972" stroke-linecap="round" stroke-linejoin="round"/>
<path d="M314.165 125.008L309.633 131.43" stroke="white" stroke-width="3.66972" stroke-linecap="round" stroke-linejoin="round"/>
<path d="M330.844 125.008L326.312 131.43" stroke="white" stroke-width="3.66972" stroke-linecap="round" stroke-linejoin="round"/>
<path d="M347.523 125.008L342.991 131.43" stroke="white" stroke-width="3.66972" stroke-linecap="round" stroke-linejoin="round"/>
<path d="M364.201 125.008L359.669 131.43" stroke="white" stroke-width="3.66972" stroke-linecap="round" stroke-linejoin="round"/>
<path d="M380.88 125.008L376.348 131.43" stroke="white" stroke-width="3.66972" stroke-linecap="round" stroke-linejoin="round"/>
<path d="M397.56 125.008L393.028 131.43" stroke="white" stroke-width="3.66972" stroke-linecap="round" stroke-linejoin="round"/>
</g>
</g>
<path d="M234.148 81.3482C234.148 81.3482 239.543 100.816 215.396 108.412C197.818 113.935 172.13 99.7152 169.469 98.8344C115.671 80.9262 91.6529 121.844 66.7355 132.192C41.8181 142.541 24.2951 125.862 19.8731 113.183C14.5153 97.7886 23.0474 84.6876 47.5061 71.495C84.7171 51.4216 133.231 46.0271 162.534 48.3941C217.433 52.8344 231.121 67.0546 234.148 81.3665" fill="#8F659D"/>
<mask id="mask1_11088_186162" style="mask-type:luminance" maskUnits="userSpaceOnUse" x="18" y="47" width="217" height="89">
<path d="M47.5246 71.4768C23.0842 84.6694 14.5337 97.7704 19.8915 113.165C24.2952 125.844 41.8365 142.523 66.7539 132.174C91.6714 121.825 115.69 80.908 169.488 98.8162C172.148 99.697 197.836 113.935 215.414 108.394C239.561 100.798 234.167 81.33 234.167 81.33C231.139 67.0181 217.451 52.7979 162.552 48.3575C158.35 48.0272 153.763 47.8438 148.864 47.8438C119.58 47.8438 79.3961 54.2658 47.5246 71.4768Z" fill="white"/>
</mask>
<g mask="url(#mask1_11088_186162)">
<g style="mix-blend-mode:multiply">
<mask id="mask2_11088_186162" style="mask-type:luminance" maskUnits="userSpaceOnUse" x="6" y="79" width="58" height="26">
<path d="M63.6336 79.0234H6.11063V104.418H63.6336V79.0234Z" fill="white"/>
</mask>
<g mask="url(#mask2_11088_186162)">
<path d="M7.9454 99.3526C7.9454 99.3526 21.7252 107.408 34.9913 98.0499C43.4316 92.1049 52.0922 85.8297 61.7803 85.8297C61.7803 85.8297 52.3491 79.0223 33.8537 81.3159C17.7803 83.2976 7.9454 99.3526 7.9454 99.3526Z" fill="#8F659D"/>
</g>
</g>
<path d="M34.6245 118.914C34.6245 118.914 23.9823 127.978 24.496 138.309" stroke="#B9ABF9" stroke-width="2.97248" stroke-linecap="round"/>
</g>
<path d="M221.377 82.7045C221.377 82.7045 227.799 87.4201 225.964 97.9522C223.872 109.879 208.991 109.842 186.79 109.585C127.725 108.888 81.707 138.484 58.6978 152.851C35.6887 167.237 26.441 145.732 26.496 136.356C26.551 125.163 43.2116 111.438 67.0098 99.0715C107.065 78.2641 143.707 69.8054 199.597 74.9247C206.643 75.5669 214.111 76.8329 221.395 82.7045" fill="#8F659D"/>
<path d="M217.542 72.7092L219.78 71.7734" stroke="white" stroke-width="2.42202" stroke-linecap="round" stroke-linejoin="round"/>
<path d="M212.643 69.8613L214.441 69.1641" stroke="white" stroke-width="2.42202" stroke-linecap="round" stroke-linejoin="round"/>
<path d="M220.955 76.6167L223.524 75.0938" stroke="white" stroke-width="2.42202" stroke-linecap="round" stroke-linejoin="round"/>
<path d="M223.267 80.7595L225.469 79.6953" stroke="white" stroke-width="2.42202" stroke-linecap="round" stroke-linejoin="round"/>
<path d="M61.6521 85.7324C61.6521 85.7324 51.854 82.5214 37.0099 90.2829C31.7622 93.0352 28.0374 93.9159 23.854 94.5031C17.2668 95.4205 10.1475 91.549 7.15671 85.604C4.31267 79.971 5.24845 71.2003 13.9273 64.1178C22.9365 56.7783 31.5053 54.1178 39.1567 52.8334C49.7806 51.0535 56.4595 56.76 57.9457 65.3471C59.1384 72.2095 55.2301 76.1545 48.4961 80.393C48.4961 80.393 57.2301 79.4939 61.6521 85.7324Z" fill="#FFE200"/>
</g>
<defs>
<clipPath id="clip0_11088_186162">
<rect width="400" height="155.963" fill="white"/>
</clipPath>
</defs>
</svg>
