<svg width="545" height="72" viewBox="0 0 545 72" fill="none" xmlns="http://www.w3.org/2000/svg">
<g clip-path="url(#clip0_13379_26838)">
<path d="M20.5 72.375C40.5 36.697 106.5 31.8147 123.5 57.7309V72.375H20.5Z" fill="#E1F3F5"/>
<rect x="123.5" y="57" width="28" height="15" fill="#EEF9FF"/>
<g clip-path="url(#clip1_13379_26838)">
<path fill-rule="evenodd" clip-rule="evenodd" d="M123.856 20.3995C132.838 17.1997 142.617 21.9351 145.788 30.8359L145.796 30.8582L145.796 30.8582L149.494 41.3309C149.495 41.3351 149.497 41.3393 149.498 41.3435C152.689 50.3219 147.954 60.093 139.057 63.2624C130.075 66.4622 120.297 61.7268 117.126 52.8261L117.118 52.8037L117.118 52.8037L113.42 42.331C113.418 42.3267 113.417 42.3224 113.415 42.3181C110.225 33.3398 114.96 23.5689 123.856 20.3995ZM129.617 36.3754C129.61 36.375 129.593 36.3739 129.552 36.3883C129.501 36.4065 129.478 36.4248 129.464 36.4374C129.446 36.4539 129.428 36.477 129.414 36.5055C129.401 36.5338 129.397 36.5566 129.396 36.5699L129.396 36.57C129.395 36.5771 129.394 36.5946 129.409 36.635L129.417 36.6574L129.417 36.6574L133.116 47.1342C133.134 47.1824 133.151 47.2051 133.164 47.2185C133.18 47.2365 133.203 47.2545 133.232 47.2681C133.26 47.2816 133.283 47.2857 133.296 47.2865L133.296 47.2865C133.303 47.287 133.321 47.288 133.361 47.2736C133.412 47.2554 133.436 47.2371 133.45 47.2245C133.468 47.2081 133.486 47.1849 133.499 47.1565C133.513 47.1281 133.517 47.1053 133.518 47.0921C133.518 47.0851 133.519 47.0676 133.505 47.0269L133.497 47.0046L133.497 47.0046L129.798 36.5278C129.78 36.4795 129.762 36.4569 129.75 36.4435C129.734 36.4254 129.71 36.4075 129.682 36.3938C129.654 36.3803 129.631 36.3762 129.618 36.3754L129.617 36.3754Z" fill="#E1F3F5"/>
<path fill-rule="evenodd" clip-rule="evenodd" d="M113.885 8.89781C118.077 6.80172 123.174 8.50094 125.27 12.6931L128.043 18.2377C130.139 22.4298 128.44 27.5275 124.247 29.6236C120.055 31.7197 114.958 30.0205 112.861 25.8283L110.089 20.2837C107.993 16.0915 109.692 10.9939 113.885 8.89781Z" fill="#E1F3F5"/>
<path fill-rule="evenodd" clip-rule="evenodd" d="M101.625 20.664C103.974 16.6083 109.166 15.2248 113.222 17.5741L118.399 20.5727C122.455 22.9219 123.838 28.1142 121.489 32.1699C119.14 36.2256 113.947 37.6091 109.892 35.2598L104.715 32.2612C100.659 29.912 99.2756 24.7197 101.625 20.664Z" fill="#E1F3F5"/>
<path fill-rule="evenodd" clip-rule="evenodd" d="M116.782 14.689C117.774 14.193 118.98 14.5951 119.476 15.5873L122.249 21.1318C122.745 22.124 122.342 23.3304 121.35 23.8265C120.358 24.3226 119.152 23.9204 118.656 22.9283L115.883 17.3837C115.387 16.3916 115.789 15.1851 116.782 14.689Z" fill="#5DBDAF"/>
<path fill-rule="evenodd" clip-rule="evenodd" d="M107.231 23.9084C107.787 22.9485 109.016 22.6211 109.975 23.1771L115.152 26.1757C116.112 26.7317 116.44 27.9605 115.884 28.9204C115.328 29.8802 114.099 30.2076 113.139 29.6516L107.962 26.653C107.002 26.0971 106.675 24.8682 107.231 23.9084Z" fill="#5DBDAF"/>
<path d="M122.29 29.9836C120.197 30.7191 119.122 33.0105 119.857 35.1038L128.033 58.2156L144.412 52.4164L136.236 29.3047C135.501 27.2113 133.209 26.1363 131.116 26.8718L122.29 30.0119V29.9836Z" fill="#FCD57F"/>
<path d="M129.362 57.8158L140.225 66.5852L143.139 52.9219L129.362 57.8158Z" fill="white"/>
<path fill-rule="evenodd" clip-rule="evenodd" d="M144.07 51.8587C144.455 52.1965 144.627 52.7162 144.521 53.2173L141.607 66.8806C141.504 67.3614 141.16 67.7544 140.696 67.9187C140.233 68.083 139.718 67.995 139.335 67.6862L128.472 58.9167C128.074 58.5951 127.88 58.0832 127.966 57.5784C128.053 57.0736 128.405 56.6548 128.887 56.4834L142.664 51.5894C143.147 51.4179 143.684 51.5209 144.07 51.8587ZM132.216 58.3031L139.32 64.0387L141.226 55.1022L132.216 58.3031Z" fill="#FCD57F"/>
<path fill-rule="evenodd" clip-rule="evenodd" d="M131.162 32.0561C131.531 31.9261 131.935 32.1193 132.065 32.4877L138.515 50.7621C138.645 51.1304 138.451 51.5343 138.083 51.6643C137.715 51.7943 137.311 51.6011 137.181 51.2328L130.731 32.9584C130.601 32.5901 130.794 32.1861 131.162 32.0561Z" fill="white"/>
<path fill-rule="evenodd" clip-rule="evenodd" d="M125.225 34.2905C125.593 34.1605 125.997 34.3537 126.127 34.722L132.577 52.9964C132.707 53.3647 132.514 53.7687 132.145 53.8987C131.777 54.0287 131.373 53.8355 131.243 53.4672L124.793 35.1928C124.663 34.8245 124.857 34.4205 125.225 34.2905Z" fill="white"/>
<path d="M135.334 63.2776L140.228 66.5874L141.954 60.9297L135.334 63.2776Z" fill="#FCD57F"/>
<path d="M122.29 29.9836C120.197 30.7191 119.122 33.0105 119.857 35.1038L128.033 58.2156L144.412 52.4164L136.236 29.3047C135.501 27.2113 133.209 26.1363 131.116 26.8718L122.29 30.0119V29.9836Z" fill="#5DBDAF"/>
<path d="M129.362 57.8158L140.225 66.5852L143.139 52.9219L129.362 57.8158Z" fill="white"/>
<path fill-rule="evenodd" clip-rule="evenodd" d="M144.07 51.8587C144.455 52.1965 144.627 52.7162 144.521 53.2173L141.607 66.8806C141.504 67.3614 141.16 67.7544 140.696 67.9187C140.233 68.083 139.718 67.995 139.335 67.6862L128.472 58.9167C128.074 58.5951 127.88 58.0832 127.966 57.5784C128.053 57.0736 128.405 56.6548 128.887 56.4834L142.664 51.5894C143.147 51.4179 143.684 51.5209 144.07 51.8587ZM132.216 58.3031L139.32 64.0387L141.226 55.1022L132.216 58.3031Z" fill="#5DBDAF"/>
<path fill-rule="evenodd" clip-rule="evenodd" d="M131.162 32.0561C131.531 31.9261 131.935 32.1193 132.065 32.4877L138.515 50.7621C138.645 51.1304 138.451 51.5343 138.083 51.6643C137.715 51.7943 137.311 51.6011 137.181 51.2328L130.731 32.9584C130.601 32.5901 130.794 32.1861 131.162 32.0561Z" fill="white"/>
<path fill-rule="evenodd" clip-rule="evenodd" d="M125.225 34.2905C125.593 34.1605 125.997 34.3537 126.127 34.722L132.577 52.9964C132.707 53.3647 132.514 53.7687 132.145 53.8987C131.777 54.0287 131.373 53.8355 131.243 53.4672L124.793 35.1928C124.663 34.8245 124.857 34.4205 125.225 34.2905Z" fill="white"/>
<path d="M135.334 63.2776L140.228 66.5874L141.954 60.9297L135.334 63.2776Z" fill="#5DBDAF"/>
</g>
<path d="M144.5 32C144.5 14.3269 158.827 0 176.5 0H512.5C530.173 0 544.5 14.3269 544.5 32V72H144.5V32Z" fill="#E1F3F5"/>
</g>
<defs>
<clipPath id="clip0_13379_26838">
<rect width="524" height="72" fill="white" transform="translate(20.5)"/>
</clipPath>
<clipPath id="clip1_13379_26838">
<rect width="50.0424" height="60" fill="white" transform="translate(100.48 8)"/>
</clipPath>
</defs>
</svg>
