<svg width="95" height="140" viewBox="0 0 95 140" fill="none" xmlns="http://www.w3.org/2000/svg">
<g id="6">
<g id="Group 1948759886">
<path id="Vector (Stroke)" fill-rule="evenodd" clip-rule="evenodd" d="M47.41 75.8479C39.2309 75.8479 32.7139 82.4338 32.7139 90.4182C32.7139 98.4026 39.2309 104.988 47.41 104.988C55.5891 104.988 62.1061 98.4026 62.1061 90.4182C62.1061 82.4338 55.5891 75.8479 47.41 75.8479ZM0 90.4182C0 64.2413 21.2889 43.134 47.41 43.134C73.5311 43.134 94.82 64.2413 94.82 90.4182C94.82 116.595 73.5311 137.702 47.41 137.702C21.2889 137.702 0 116.595 0 90.4182Z" fill="#A40000"/>
<path id="Vector (Stroke)_2" fill-rule="evenodd" clip-rule="evenodd" d="M47.4119 72.0734C37.1626 72.0734 28.9411 80.3348 28.9411 90.4183C28.9411 100.502 37.1626 108.763 47.4119 108.763C57.6612 108.763 65.8827 100.502 65.8827 90.4183C65.8827 80.3348 57.6612 72.0734 47.4119 72.0734ZM3.77658 90.4183C3.77658 66.3406 23.361 46.9088 47.4119 46.9088C71.4628 46.9088 91.0472 66.3406 91.0472 90.4183C91.0472 114.496 71.4628 133.928 47.4119 133.928C23.361 133.928 3.77658 114.496 3.77658 90.4183Z" fill="white"/>
<path id="Vector (Stroke)_3" fill-rule="evenodd" clip-rule="evenodd" d="M62.1188 4.2658C69.9026 8.85063 72.4958 18.8774 67.911 26.6611L35.9017 81.0039C31.3169 88.7877 21.2901 91.3809 13.5064 86.7961C5.72262 82.2113 3.12937 72.1845 7.7142 64.4008L39.7235 10.058C44.3083 2.27421 54.3351 -0.319032 62.1188 4.2658Z" fill="#A40000"/>
<path id="Vector (Stroke)_4" fill-rule="evenodd" clip-rule="evenodd" d="M60.1986 7.51819C66.1861 11.045 68.1809 18.7579 64.6541 24.7454L32.6448 79.0882C29.118 85.0757 21.4051 87.0705 15.4176 83.5437C9.43011 80.0169 7.43531 72.304 10.9621 66.3165L42.9714 11.9737C46.4982 5.9862 54.2111 3.9914 60.1986 7.51819Z" fill="#DC4F03"/>
<path id="Vector (Stroke)_5" fill-rule="evenodd" clip-rule="evenodd" d="M56.7443 50.2957C57.1599 50.329 57.4698 50.693 57.4364 51.1086L57.298 52.8324C57.2646 53.248 56.9007 53.5578 56.4851 53.5245C56.0695 53.4911 55.7596 53.1271 55.793 52.7115L55.9314 50.9878C55.9648 50.5722 56.3287 50.2623 56.7443 50.2957Z" fill="#B53F22"/>
<path id="Vector (Stroke)_6" fill-rule="evenodd" clip-rule="evenodd" d="M60.8166 50.7502C61.2175 50.8647 61.4497 51.2826 61.3351 51.6835L60.706 53.8854C60.5915 54.2863 60.1736 54.5184 59.7727 54.4039C59.3718 54.2893 59.1397 53.8715 59.2542 53.4706L59.8834 51.2687C59.9979 50.8678 60.4157 50.6356 60.8166 50.7502Z" fill="#B53F22"/>
<path id="Vector (Stroke)_7" fill-rule="evenodd" clip-rule="evenodd" d="M64.5649 52.1636C64.9426 52.3402 65.1056 52.7896 64.929 53.1673L64.0231 55.1049C63.8465 55.4826 63.3972 55.6457 63.0195 55.4691C62.6418 55.2925 62.4788 54.8432 62.6553 54.4655L63.5613 52.5278C63.7379 52.1501 64.1872 51.9871 64.5649 52.1636Z" fill="#B53F22"/>
<path id="Vector (Stroke)_8" fill-rule="evenodd" clip-rule="evenodd" d="M67.9891 54.4809C68.303 54.7552 68.3352 55.2321 68.0608 55.5461L66.9284 56.8421C66.6541 57.1561 66.1772 57.1882 65.8632 56.9138C65.5492 56.6395 65.5171 56.1626 65.7914 55.8486L66.9238 54.5526C67.1982 54.2387 67.6751 54.2066 67.9891 54.4809Z" fill="#B53F22"/>
</g>
</g>
</svg>
