<svg width="45" height="45" viewBox="0 0 45 45" fill="none" xmlns="http://www.w3.org/2000/svg">
<path d="M36.7743 13.0781L36.3993 10.6406C36.3993 10.6406 38.0868 9.14061 38.0868 8.95311C38.8368 8.20311 38.8368 7.26561 37.7118 7.07811L35.0868 6.70309L33.9618 4.45313C33.3993 3.51562 32.6493 3.51562 32.0868 4.45313L30.9618 6.70309L28.3368 7.07811C27.3993 7.26561 27.2118 8.20311 27.9618 8.95311L29.6493 10.6406L29.2743 13.0781C29.0868 14.2031 29.8368 14.7656 30.9618 14.2031C31.1493 14.2031 33.0243 13.0781 33.0243 13.0781C33.0243 13.0781 34.8993 14.0156 35.0868 14.2031C36.2118 14.7656 36.9618 14.3906 36.7743 13.0781Z" fill="#F59C00"/>
<path d="M33.3991 26.2034C34.1491 25.0784 34.8991 24.1409 34.8991 23.9534C36.7741 21.3284 36.0241 19.2658 33.2116 18.8908L25.8991 19.0783L21.5866 13.2658C19.7116 11.2033 17.6491 11.5783 16.5241 14.2033L14.4616 21.1409L7.52409 23.3909C5.08659 24.7034 4.89909 26.9534 7.52409 28.6409C7.71159 28.8284 12.9616 32.3909 12.9616 32.3909V39.1409C13.1491 42.5159 15.3991 43.4533 18.0241 41.3908C18.0241 41.3908 18.7741 40.8284 19.7116 40.0784" stroke="#F59C00" stroke-width="2" stroke-linecap="round" stroke-linejoin="round"/>
<path d="M25.8994 23.7671L23.8369 25.4546L27.0244 25.6421" stroke="#F59C00" stroke-width="2" stroke-linecap="round" stroke-linejoin="round"/>
<path d="M18.4001 26.7668C18.2126 26.0168 17.4626 25.4543 16.7126 25.6418C15.9626 25.8293 15.4001 26.5793 15.5876 27.3293" stroke="#F59C00" stroke-width="2" stroke-linecap="round" stroke-linejoin="round"/>
</svg>
