<svg width="40" height="40" viewBox="0 0 40 40" fill="none" xmlns="http://www.w3.org/2000/svg">
<path d="M26.4466 5.42251C27.2277 4.64147 28.494 4.64147 29.2751 5.42251L34.9319 11.0794C35.713 11.8604 35.713 13.1267 34.9319 13.9078L17.9696 30.8701L9.4843 22.3848L26.4466 5.42251Z" fill="#07BBA9"/>
<path d="M32.436 8.61011L34.9203 11.0943C35.7013 11.8754 35.7013 13.1417 34.9202 13.9227L17.9712 30.8718L14.0728 26.9733L32.436 8.61011Z" fill="#12AA9B"/>
<path d="M9.48682 22.3866L17.9721 30.8719L6.19286 34.7983C5.80198 34.9286 5.43011 34.5567 5.5604 34.1658L9.48682 22.3866Z" fill="#FFE2B6"/>
<path d="M6.6792 30.8511L9.50763 33.6795L6.21367 34.7775C5.82279 34.9078 5.45092 34.5359 5.58121 34.145L6.6792 30.8511Z" fill="black"/>
</svg>
