<svg width="544" height="72" viewBox="0 0 544 72" fill="none" xmlns="http://www.w3.org/2000/svg">
<g clip-path="url(#clip0_13397_92069)">
<path d="M20 72.375C40 36.697 106 31.8147 123 57.7309V72.375H20Z" fill="#F4ECF4"/>
<rect x="123" y="57" width="28" height="15" fill="#F4ECF4"/>
<g clip-path="url(#clip1_13397_92069)">
<path fill-rule="evenodd" clip-rule="evenodd" d="M123.356 20.3995C132.338 17.1997 142.117 21.9351 145.288 30.8359L145.296 30.8582L145.296 30.8582L148.994 41.3309C148.995 41.3351 148.997 41.3393 148.998 41.3435C152.189 50.3219 147.454 60.093 138.557 63.2624C129.575 66.4622 119.797 61.7268 116.626 52.8261L116.618 52.8037L116.618 52.8037L112.92 42.331C112.918 42.3267 112.917 42.3224 112.915 42.3181C109.725 33.3398 114.46 23.5689 123.356 20.3995ZM129.117 36.3754C129.11 36.375 129.093 36.3739 129.052 36.3883C129.001 36.4065 128.978 36.4248 128.964 36.4374C128.946 36.4539 128.928 36.477 128.914 36.5055C128.901 36.5338 128.897 36.5566 128.896 36.5699L128.896 36.57C128.895 36.5771 128.894 36.5946 128.909 36.635L128.917 36.6574L128.917 36.6574L132.616 47.1342C132.634 47.1824 132.651 47.2051 132.664 47.2185C132.68 47.2365 132.703 47.2545 132.732 47.2681C132.76 47.2816 132.783 47.2857 132.796 47.2865L132.796 47.2865C132.803 47.287 132.821 47.288 132.861 47.2736C132.912 47.2554 132.936 47.2371 132.95 47.2245C132.968 47.2081 132.986 47.1849 132.999 47.1565C133.013 47.1281 133.017 47.1053 133.018 47.0921C133.018 47.0851 133.019 47.0676 133.005 47.0269L132.997 47.0046L132.997 47.0046L129.298 36.5278C129.28 36.4795 129.262 36.4569 129.25 36.4435C129.234 36.4254 129.21 36.4075 129.182 36.3938C129.154 36.3803 129.131 36.3762 129.118 36.3754L129.117 36.3754Z" fill="#F4ECF4"/>
<path fill-rule="evenodd" clip-rule="evenodd" d="M113.385 8.89781C117.577 6.80172 122.674 8.50094 124.77 12.6931L127.543 18.2377C129.639 22.4298 127.94 27.5275 123.747 29.6236C119.555 31.7197 114.458 30.0205 112.361 25.8283L109.589 20.2837C107.493 16.0915 109.192 10.9939 113.385 8.89781Z" fill="#F4ECF4"/>
<path fill-rule="evenodd" clip-rule="evenodd" d="M101.125 20.664C103.474 16.6083 108.666 15.2248 112.722 17.5741L117.899 20.5727C121.955 22.9219 123.338 28.1142 120.989 32.1699C118.64 36.2256 113.447 37.6091 109.392 35.2598L104.215 32.2612C100.159 29.912 98.7756 24.7197 101.125 20.664Z" fill="#F4ECF4"/>
<path fill-rule="evenodd" clip-rule="evenodd" d="M116.282 14.689C117.274 14.193 118.48 14.5951 118.976 15.5873L121.749 21.1318C122.245 22.124 121.842 23.3304 120.85 23.8265C119.858 24.3226 118.652 23.9204 118.156 22.9283L115.383 17.3837C114.887 16.3916 115.289 15.1851 116.282 14.689Z" fill="#AB95C6"/>
<path fill-rule="evenodd" clip-rule="evenodd" d="M106.731 23.9084C107.287 22.9485 108.516 22.6211 109.475 23.1771L114.652 26.1757C115.612 26.7317 115.94 27.9605 115.384 28.9204C114.828 29.8802 113.599 30.2076 112.639 29.6516L107.462 26.653C106.502 26.0971 106.175 24.8682 106.731 23.9084Z" fill="#AB95C6"/>
<path d="M121.79 29.9836C119.697 30.7191 118.622 33.0105 119.357 35.1038L127.533 58.2156L143.912 52.4164L135.736 29.3047C135.001 27.2113 132.709 26.1363 130.616 26.8718L121.79 30.0119V29.9836Z" fill="#FCD57F"/>
<path d="M128.862 57.8158L139.725 66.5852L142.639 52.9219L128.862 57.8158Z" fill="white"/>
<path fill-rule="evenodd" clip-rule="evenodd" d="M143.57 51.8587C143.955 52.1965 144.127 52.7162 144.021 53.2173L141.107 66.8806C141.004 67.3614 140.66 67.7544 140.196 67.9187C139.733 68.083 139.218 67.995 138.835 67.6862L127.972 58.9167C127.574 58.5951 127.38 58.0832 127.466 57.5784C127.553 57.0736 127.905 56.6548 128.387 56.4834L142.164 51.5894C142.647 51.4179 143.184 51.5209 143.57 51.8587ZM131.716 58.3031L138.82 64.0387L140.726 55.1022L131.716 58.3031Z" fill="#FCD57F"/>
<path fill-rule="evenodd" clip-rule="evenodd" d="M130.662 32.0561C131.031 31.9261 131.435 32.1193 131.565 32.4877L138.015 50.7621C138.145 51.1304 137.951 51.5343 137.583 51.6643C137.215 51.7943 136.811 51.6011 136.681 51.2328L130.231 32.9584C130.101 32.5901 130.294 32.1861 130.662 32.0561Z" fill="white"/>
<path fill-rule="evenodd" clip-rule="evenodd" d="M124.725 34.2905C125.093 34.1605 125.497 34.3537 125.627 34.722L132.077 52.9964C132.207 53.3647 132.014 53.7687 131.645 53.8987C131.277 54.0287 130.873 53.8355 130.743 53.4672L124.293 35.1928C124.163 34.8245 124.357 34.4205 124.725 34.2905Z" fill="white"/>
<path d="M134.834 63.2776L139.728 66.5874L141.454 60.9297L134.834 63.2776Z" fill="#FCD57F"/>
<path d="M121.79 29.9836C119.697 30.7191 118.622 33.0105 119.357 35.1038L127.533 58.2156L143.912 52.4164L135.736 29.3047C135.001 27.2113 132.709 26.1363 130.616 26.8718L121.79 30.0119V29.9836Z" fill="#AB95C6"/>
<path d="M128.862 57.8158L139.725 66.5852L142.639 52.9219L128.862 57.8158Z" fill="white"/>
<path fill-rule="evenodd" clip-rule="evenodd" d="M143.57 51.8587C143.955 52.1965 144.127 52.7162 144.021 53.2173L141.107 66.8806C141.004 67.3614 140.66 67.7544 140.196 67.9187C139.733 68.083 139.218 67.995 138.835 67.6862L127.972 58.9167C127.574 58.5951 127.38 58.0832 127.466 57.5784C127.553 57.0736 127.905 56.6548 128.387 56.4834L142.164 51.5894C142.647 51.4179 143.184 51.5209 143.57 51.8587ZM131.716 58.3031L138.82 64.0387L140.726 55.1022L131.716 58.3031Z" fill="#AB95C6"/>
<path fill-rule="evenodd" clip-rule="evenodd" d="M130.662 32.0561C131.031 31.9261 131.435 32.1193 131.565 32.4877L138.015 50.7621C138.145 51.1304 137.951 51.5343 137.583 51.6643C137.215 51.7943 136.811 51.6011 136.681 51.2328L130.231 32.9584C130.101 32.5901 130.294 32.1861 130.662 32.0561Z" fill="white"/>
<path fill-rule="evenodd" clip-rule="evenodd" d="M124.725 34.2905C125.093 34.1605 125.497 34.3537 125.627 34.722L132.077 52.9964C132.207 53.3647 132.014 53.7687 131.645 53.8987C131.277 54.0287 130.873 53.8355 130.743 53.4672L124.293 35.1928C124.163 34.8245 124.357 34.4205 124.725 34.2905Z" fill="white"/>
<path d="M134.834 63.2776L139.728 66.5874L141.454 60.9297L134.834 63.2776Z" fill="#AB95C6"/>
</g>
<path d="M144 32C144 14.3269 158.327 0 176 0H512C529.673 0 544 14.3269 544 32V72H144V32Z" fill="#F4ECF4"/>
</g>
<defs>
<clipPath id="clip0_13397_92069">
<rect width="524" height="72" fill="white" transform="translate(20)"/>
</clipPath>
<clipPath id="clip1_13397_92069">
<rect width="50.0424" height="60" fill="white" transform="translate(99.9805 8)"/>
</clipPath>
</defs>
</svg>
