<svg width="106" height="28" viewBox="0 0 106 28" fill="none" xmlns="http://www.w3.org/2000/svg">
<g clip-path="url(#clip0_13217_25773)">
<path d="M15.504 0.589844C13.672 0.589844 11.1588 1.67768 9.89047 3.02565L1.52885 11.9412C0.260513 13.2892 0.307488 15.4412 1.59931 16.7419L9.8435 25.0425C11.1353 26.3432 13.6955 27.4074 15.5275 27.4074H102.103C103.935 27.4074 105.438 25.8939 105.438 24.0493V3.94795C105.438 2.10336 103.935 0.589844 102.103 0.589844H15.504Z" fill="#D0D1E7"/>
<path d="M15.504 0.589844C13.672 0.589844 11.1588 1.67768 9.89047 3.02565L1.52885 11.9412C0.260513 13.2892 0.307488 15.4412 1.59931 16.7419L9.8435 25.0425C11.1353 26.3432 13.6955 27.4074 15.5275 27.4074H102.103C103.935 27.4074 105.438 25.8939 105.438 24.0493V3.94795C105.438 2.10336 103.935 0.589844 102.103 0.589844H15.504Z" stroke="#9094C5" stroke-width="1.18243" stroke-linecap="round" stroke-linejoin="round"/>
<path d="M8.96751 16.1756C10.1654 16.1756 11.1284 15.206 11.1284 13.9999C11.1284 12.7938 10.1654 11.8242 8.96751 11.8242C7.76964 11.8242 6.80664 12.7938 6.80664 13.9999C6.80664 15.206 7.76964 16.1756 8.96751 16.1756Z" fill="white"/>
</g>
<defs>
<clipPath id="clip0_13217_25773">
<rect width="106" height="28" fill="white"/>
</clipPath>
</defs>
</svg>
