<svg width="134" height="114" viewBox="0 0 134 114" fill="none" xmlns="http://www.w3.org/2000/svg">
<path d="M76.37 57.1217L37.2461 16.8363C47.9952 6.53444 61.439 1.13477 76.37 1.13477V57.1217Z" fill="#BADAF3"/>
<path d="M76.37 57.1217L37.2461 16.8363C47.9952 6.53444 61.439 1.13477 76.37 1.13477V57.1217Z" stroke="#6D6E71" stroke-width="0.5" stroke-miterlimit="10"/>
<path d="M76.37 57.1233L20.607 64.9228C18.0007 46.5434 23.8317 29.7298 37.2461 16.8379L76.37 57.1087V57.1233Z" fill="#BCE4E5"/>
<path d="M76.37 57.1233L20.607 64.9228C18.0007 46.5434 23.8317 29.7298 37.2461 16.8379L76.37 57.1087V57.1233Z" stroke="#6D6E71" stroke-width="0.5" stroke-miterlimit="10"/>
<path d="M76.3724 57.1211L66.5951 112.259C42.0929 107.972 24.0697 89.4167 20.6094 64.9206L76.3871 57.1211H76.3724Z" fill="#E6E8C7"/>
<path d="M76.3724 57.1211L66.5951 112.259C42.0929 107.972 24.0697 89.4167 20.6094 64.9206L76.3871 57.1211H76.3724Z" stroke="#6D6E71" stroke-width="0.5" stroke-miterlimit="10"/>
<path d="M76.3671 57.1211L131.836 66.8522C126.432 97.3041 97.2175 117.644 66.5898 112.274L76.3671 57.1357V57.1211Z" fill="#FFE5C2"/>
<path d="M76.3671 57.1211L131.836 66.8522C126.432 97.3041 97.2175 117.644 66.5898 112.274L76.3671 57.1357V57.1211Z" stroke="#6D6E71" stroke-width="0.5" stroke-miterlimit="10"/>
<path d="M76.3672 57.1217V1.13477C107.466 1.13477 132.69 26.2016 132.69 57.1217C132.69 60.8385 132.484 63.1945 131.836 66.8528L76.3672 57.1217Z" fill="#FDE3D7"/>
<path d="M76.3672 57.1217V1.13477C107.466 1.13477 132.69 26.2016 132.69 57.1217C132.69 60.8385 132.484 63.1945 131.836 66.8528L76.3672 57.1217Z" stroke="#6D6E71" stroke-width="0.5" stroke-miterlimit="10"/>
<path d="M76.37 1.13477C61.439 1.13477 47.9805 6.53444 37.2461 16.8509C23.8317 29.7282 18.0007 46.5418 20.607 64.9212C24.0673 89.4173 42.0905 107.972 66.5927 112.275C97.2204 117.645 126.434 97.3047 131.838 66.8528C132.486 63.1945 132.693 60.8385 132.693 57.1217C132.693 26.2016 107.484 1.13477 76.37 1.13477Z" stroke="#6D6E71" stroke-width="0.75" stroke-linejoin="bevel"/>
<path d="M0.804688 88.4992H7.61269L22.1947 78.2734" stroke="#EC008C" stroke-miterlimit="10"/>
<path d="M26.7668 74.3049L22.6866 82.6198L21.623 78.76L17.3945 77.6706L26.7668 74.3049Z" fill="#EC008C"/>
<path d="M13.6719 34.2488H20.4799L35.8941 46.3047" stroke="#EC008C" stroke-miterlimit="10"/>
<path d="M40.8168 50.0512L31.3645 46.8492L35.587 45.6778L36.5594 41.8173L40.8168 50.0512Z" fill="#EC008C"/>
<path d="M34.7852 3.24881H57.7043L60.8963 16.8047" stroke="#EC008C" stroke-miterlimit="10"/>
<path d="M61.4881 20.9371L55.5864 13.5608L59.8233 14.6893L63.0079 11.959L61.4881 20.9371Z" fill="#EC008C"/>
</svg>
