<svg width="260" height="93" viewBox="0 0 260 93" fill="none" xmlns="http://www.w3.org/2000/svg">
<mask id="path-1-inside-1_13219_26691" fill="white">
<path d="M0 0.0585938H154V58.0586H0V0.0585938Z"/>
</mask>
<path d="M0 0.0585938H154V58.0586H0V0.0585938Z" fill="#F1E2D6"/>
<path d="M0 0.0585938V-0.941406H-1V0.0585938H0ZM0 58.0586H-1V59.0586H0V58.0586ZM0 1.05859H154V-0.941406H0V1.05859ZM154 57.0586H0V59.0586H154V57.0586ZM1 58.0586V0.0585938H-1V58.0586H1Z" fill="#6D6E71" mask="url(#path-1-inside-1_13219_26691)"/>
<mask id="path-3-inside-2_13219_26691" fill="white">
<path d="M154 0.0585938H210V58.0586H154V0.0585938Z"/>
</mask>
<path d="M154 0.0585938H210V58.0586H154V0.0585938Z" fill="#FFE5C2"/>
<path d="M154 0.0585938V-0.941406H153V0.0585938H154ZM154 58.0586H153V59.0586H154V58.0586ZM154 1.05859H210V-0.941406H154V1.05859ZM210 57.0586H154V59.0586H210V57.0586ZM155 58.0586V0.0585938H153V58.0586H155Z" fill="#6D6E71" mask="url(#path-3-inside-2_13219_26691)"/>
<mask id="path-5-inside-3_13219_26691" fill="white">
<path d="M210 0.0585938H240V58.0586H210V0.0585938Z"/>
</mask>
<path d="M210 0.0585938H240V58.0586H210V0.0585938Z" fill="#E6E8C7"/>
<path d="M210 0.0585938V-0.941406H209V0.0585938H210ZM210 58.0586H209V59.0586H210V58.0586ZM210 1.05859H240V-0.941406H210V1.05859ZM240 57.0586H210V59.0586H240V57.0586ZM211 58.0586V0.0585938H209V58.0586H211Z" fill="#6D6E71" mask="url(#path-5-inside-3_13219_26691)"/>
<mask id="path-7-inside-4_13219_26691" fill="white">
<path d="M240 0.0585938H260V58.0586H240V0.0585938Z"/>
</mask>
<path d="M240 0.0585938H260V58.0586H240V0.0585938Z" fill="#BCE4E5"/>
<path d="M240 0.0585938V-0.941406H239V0.0585938H240ZM260 0.0585938H261V-0.941406H260V0.0585938ZM260 58.0586V59.0586H261V58.0586H260ZM240 58.0586H239V59.0586H240V58.0586ZM240 1.05859H260V-0.941406H240V1.05859ZM259 0.0585938V58.0586H261V0.0585938H259ZM260 57.0586H240V59.0586H260V57.0586ZM241 58.0586V0.0585938H239V58.0586H241Z" fill="#6D6E71" mask="url(#path-7-inside-4_13219_26691)"/>
<path d="M230.736 91.7773H250.996V46.7773" stroke="#EC008C" stroke-miterlimit="10"/>
<path d="M250.488 41.0586L254.366 49.4702L250.488 47.4835L246.635 49.4702L250.488 41.0586Z" fill="#EC008C"/>
<path d="M208.204 71.0593H228.109V44.5684" stroke="#EC008C" stroke-miterlimit="10"/>
<path d="M228.092 41.0586L231.969 49.4702L228.092 47.4835L224.238 49.4702L228.092 41.0586Z" fill="#EC008C"/>
</svg>
