<svg width="260" height="72" viewBox="0 0 260 72" fill="none" xmlns="http://www.w3.org/2000/svg">
<mask id="path-1-inside-1_13219_26574" fill="white">
<path d="M0 0H80V58H0V0Z"/>
</mask>
<path d="M0 0H80V58H0V0Z" fill="#F1E2D6"/>
<path d="M0 0V-1H-1V0H0ZM0 58H-1V59H0V58ZM0 1H80V-1H0V1ZM80 57H0V59H80V57ZM1 58V0H-1V58H1Z" fill="#6D6E71" mask="url(#path-1-inside-1_13219_26574)"/>
<mask id="path-3-inside-2_13219_26574" fill="white">
<path d="M80 0H160V58H80V0Z"/>
</mask>
<path d="M80 0H160V58H80V0Z" fill="#FFE5C2"/>
<path d="M80 0V-1H79V0H80ZM80 58H79V59H80V58ZM80 1H160V-1H80V1ZM160 57H80V59H160V57ZM81 58V0H79V58H81Z" fill="#6D6E71" mask="url(#path-3-inside-2_13219_26574)"/>
<mask id="path-5-inside-3_13219_26574" fill="white">
<path d="M160 0H230V58H160V0Z"/>
</mask>
<path d="M160 0H230V58H160V0Z" fill="#E6E8C7"/>
<path d="M160 0V-1H159V0H160ZM160 58H159V59H160V58ZM160 1H230V-1H160V1ZM230 57H160V59H230V57ZM161 58V0H159V58H161Z" fill="#6D6E71" mask="url(#path-5-inside-3_13219_26574)"/>
<mask id="path-7-inside-4_13219_26574" fill="white">
<path d="M230 0H260V58H230V0Z"/>
</mask>
<path d="M230 0H260V58H230V0Z" fill="#BCE4E5"/>
<path d="M230 0V-1H229V0H230ZM260 0H261V-1H260V0ZM260 58V59H261V58H260ZM230 58H229V59H230V58ZM230 1H260V-1H230V1ZM259 0V58H261V0H259ZM260 57H230V59H260V57ZM231 58V0H229V58H231Z" fill="#6D6E71" mask="url(#path-7-inside-4_13219_26574)"/>
<path d="M221.598 71.0007H241.502V44.5098" stroke="#EC008C" stroke-width="1.37466" stroke-miterlimit="10"/>
<path d="M241.485 41L245.363 49.4116L241.485 47.4249L237.632 49.4116L241.485 41Z" fill="#EC008C"/>
</svg>
