<svg width="119" height="113" viewBox="0 0 119 113" fill="none" xmlns="http://www.w3.org/2000/svg">
<g clip-path="url(#clip0_13219_26405)">
<path d="M62.1977 56.4753L45.084 3.743C50.9093 1.84469 56.0826 1.0332 62.1977 1.0332V56.4898V56.4753Z" fill="#BADAF3"/>
<path d="M62.1977 56.4753L45.084 3.743C50.9093 1.84469 56.0826 1.0332 62.1977 1.0332V56.4898V56.4753Z" stroke="#6D6E71" stroke-width="0.724544" stroke-miterlimit="10"/>
<path d="M62.1929 56.4745L9.51855 39.3463C15.1845 21.8703 27.6177 9.42261 45.0792 3.74219L62.1929 56.4745Z" fill="#BCE4E5"/>
<path d="M62.1929 56.4745L9.51855 39.3463C15.1845 21.8703 27.6177 9.42261 45.0792 3.74219L62.1929 56.4745Z" stroke="#6D6E71" stroke-width="0.724544" stroke-miterlimit="10"/>
<path d="M62.1951 56.4739L29.6341 101.338C9.83953 86.9337 1.95649 62.647 9.52073 39.3457L62.2096 56.4739H62.1951Z" fill="#E6E8C7"/>
<path d="M62.1951 56.4739L29.6341 101.338C9.83953 86.9337 1.95649 62.647 9.52073 39.3457L62.2096 56.4739H62.1951Z" stroke="#6D6E71" stroke-width="0.724544" stroke-miterlimit="10"/>
<path d="M62.1967 56.4754L107.017 89.0654C89.0339 113.845 54.3862 119.337 29.6357 101.325L62.1967 56.4609V56.4754Z" fill="#FFE5C2"/>
<path d="M62.1967 56.4754L107.017 89.0654C89.0339 113.845 54.3862 119.337 29.6357 101.325L62.1967 56.4609V56.4754Z" stroke="#6D6E71" stroke-width="0.724544" stroke-miterlimit="10"/>
<path d="M62.1953 56.4753V1.0332C92.7856 1.0332 117.594 25.8561 117.594 56.4898C117.594 68.7346 114.203 79.168 107.016 89.0798L62.1953 56.4898V56.4753Z" fill="#FDE3D7"/>
<path d="M62.1953 56.4753V1.0332C92.7856 1.0332 117.594 25.8561 117.594 56.4898C117.594 68.7346 114.203 79.168 107.016 89.0798L62.1953 56.4898V56.4753Z" stroke="#6D6E71" stroke-width="0.724544" stroke-miterlimit="10"/>
<path d="M62.1948 1.0332C56.0797 1.0332 50.892 1.85918 45.0811 3.743C27.6196 9.42342 15.1864 21.8711 9.5205 39.3471C1.95626 62.6484 9.8393 86.9496 29.6483 101.339C54.3988 119.337 89.0464 113.845 107.03 89.0653C114.217 79.1535 117.608 68.7201 117.608 56.4753C117.593 25.8561 92.7996 1.0332 62.1948 1.0332Z" stroke="#6D6E71" stroke-width="1.08682" stroke-linejoin="bevel"/>
</g>
<path d="M2.91797 86.4992H9.72597L24.308 76.2734" stroke="#EC008C" stroke-miterlimit="10"/>
<path d="M28.884 72.3049L24.8038 80.6198L23.7401 76.76L19.5117 75.6706L28.884 72.3049Z" fill="#EC008C"/>
<path d="M0.785156 22.2488H7.59316L23.0074 34.3047" stroke="#EC008C" stroke-miterlimit="10"/>
<path d="M27.93 38.0512L18.4777 34.8492L22.7003 33.6778L23.6727 29.8173L27.93 38.0512Z" fill="#EC008C"/>
<path d="M29.8984 1.24881H52.8176L56.0095 14.8047" stroke="#EC008C" stroke-miterlimit="10"/>
<path d="M56.6053 18.9371L50.7036 11.5608L54.9405 12.6893L58.1251 9.95899L56.6053 18.9371Z" fill="#EC008C"/>
<defs>
<clipPath id="clip0_13219_26405">
<rect width="112" height="112" fill="white" transform="translate(6.14453 0.480469)"/>
</clipPath>
</defs>
</svg>
