<svg width="645" height="434" viewBox="0 0 645 434" fill="none" xmlns="http://www.w3.org/2000/svg">
<path d="M64.5996 57.4727H65.8241" stroke="#00AEEF" stroke-width="0.533246" stroke-miterlimit="10"/>
<path d="M68.2734 57.4727H640.259" stroke="#00AEEF" stroke-width="0.533246" stroke-miterlimit="10" stroke-dasharray="2.13 2.13"/>
<path d="M641.482 57.4727H642.707" stroke="#00AEEF" stroke-width="0.533246" stroke-miterlimit="10"/>
<path d="M64.5996 86.4102H65.8241" stroke="#00AEEF" stroke-width="0.533246" stroke-miterlimit="10"/>
<path d="M68.2734 86.4102H640.259" stroke="#00AEEF" stroke-width="0.533246" stroke-miterlimit="10" stroke-dasharray="2.13 2.13"/>
<path d="M641.482 86.4102H642.707" stroke="#00AEEF" stroke-width="0.533246" stroke-miterlimit="10"/>
<path d="M64.5996 115.328H65.8241" stroke="#00AEEF" stroke-width="0.533246" stroke-miterlimit="10"/>
<path d="M68.2734 115.328H640.259" stroke="#00AEEF" stroke-width="0.533246" stroke-miterlimit="10" stroke-dasharray="2.13 2.13"/>
<path d="M641.482 115.328H642.707" stroke="#00AEEF" stroke-width="0.533246" stroke-miterlimit="10"/>
<path d="M64.5996 144.246H65.8241" stroke="#00AEEF" stroke-width="0.533246" stroke-miterlimit="10"/>
<path d="M68.2734 144.246H640.259" stroke="#00AEEF" stroke-width="0.533246" stroke-miterlimit="10" stroke-dasharray="2.13 2.13"/>
<path d="M641.482 144.246H642.707" stroke="#00AEEF" stroke-width="0.533246" stroke-miterlimit="10"/>
<path d="M64.5996 173.164H65.8241" stroke="#00AEEF" stroke-width="0.533246" stroke-miterlimit="10"/>
<path d="M68.2734 173.164H640.259" stroke="#00AEEF" stroke-width="0.533246" stroke-miterlimit="10" stroke-dasharray="2.13 2.13"/>
<path d="M641.482 173.164H642.707" stroke="#00AEEF" stroke-width="0.533246" stroke-miterlimit="10"/>
<path d="M64.5996 202.104H65.8241" stroke="#00AEEF" stroke-width="0.533246" stroke-miterlimit="10"/>
<path d="M68.2734 202.104H640.259" stroke="#00AEEF" stroke-width="0.533246" stroke-miterlimit="10" stroke-dasharray="2.13 2.13"/>
<path d="M641.482 202.104H642.707" stroke="#00AEEF" stroke-width="0.533246" stroke-miterlimit="10"/>
<path d="M64.5996 231.02H65.8241" stroke="#00AEEF" stroke-width="0.533246" stroke-miterlimit="10"/>
<path d="M68.2734 231.02H640.259" stroke="#00AEEF" stroke-width="0.533246" stroke-miterlimit="10" stroke-dasharray="2.13 2.13"/>
<path d="M641.482 231.02H642.707" stroke="#00AEEF" stroke-width="0.533246" stroke-miterlimit="10"/>
<path d="M64.5996 259.963H65.8241" stroke="#00AEEF" stroke-width="0.533246" stroke-miterlimit="10"/>
<path d="M68.2734 259.963H640.259" stroke="#00AEEF" stroke-width="0.533246" stroke-miterlimit="10" stroke-dasharray="2.13 2.13"/>
<path d="M641.482 259.963H642.707" stroke="#00AEEF" stroke-width="0.533246" stroke-miterlimit="10"/>
<path d="M64.5996 288.881H65.8241" stroke="#00AEEF" stroke-width="0.533246" stroke-miterlimit="10"/>
<path d="M68.2734 288.881H640.259" stroke="#00AEEF" stroke-width="0.533246" stroke-miterlimit="10" stroke-dasharray="2.13 2.13"/>
<path d="M641.482 288.881H642.707" stroke="#00AEEF" stroke-width="0.533246" stroke-miterlimit="10"/>
<path d="M64.5996 317.799H65.8241" stroke="#00AEEF" stroke-width="0.533246" stroke-miterlimit="10"/>
<path d="M68.2734 317.799H640.259" stroke="#00AEEF" stroke-width="0.533246" stroke-miterlimit="10" stroke-dasharray="2.13 2.13"/>
<path d="M641.482 317.799H642.707" stroke="#00AEEF" stroke-width="0.533246" stroke-miterlimit="10"/>
<path d="M64.5996 346.717H65.8241" stroke="#00AEEF" stroke-width="0.533246" stroke-miterlimit="10"/>
<path d="M68.2734 346.717H640.259" stroke="#00AEEF" stroke-width="0.533246" stroke-miterlimit="10" stroke-dasharray="2.13 2.13"/>
<path d="M641.482 346.717H642.707" stroke="#00AEEF" stroke-width="0.533246" stroke-miterlimit="10"/>
<path d="M64.5996 375.654H65.8241" stroke="#00AEEF" stroke-width="0.533246" stroke-miterlimit="10"/>
<path d="M68.2734 375.654H640.259" stroke="#00AEEF" stroke-width="0.533246" stroke-miterlimit="10" stroke-dasharray="2.13 2.13"/>
<path d="M641.482 375.654H642.707" stroke="#00AEEF" stroke-width="0.533246" stroke-miterlimit="10"/>
<path d="M64.5996 404.574H65.8241" stroke="#00AEEF" stroke-width="0.533246" stroke-miterlimit="10"/>
<path d="M68.2734 404.574H640.259" stroke="#00AEEF" stroke-width="0.533246" stroke-miterlimit="10" stroke-dasharray="2.13 2.13"/>
<path d="M641.482 404.574H642.707" stroke="#00AEEF" stroke-width="0.533246" stroke-miterlimit="10"/>
<mask id="mask0_466_19532" style="mask-type:luminance" maskUnits="userSpaceOnUse" x="0" y="0" width="644" height="435">
<path d="M643.215 0.00195312H0.0117188V434.002H643.215V0.00195312Z" fill="white"/>
</mask>
<g mask="url(#mask0_466_19532)">
<path d="M93.498 433.492V432.268" stroke="#00AEEF" stroke-width="0.533246" stroke-miterlimit="10"/>
</g>
<path d="M93.5039 429.839V31.002" stroke="#00AEEF" stroke-width="0.533246" stroke-miterlimit="10" stroke-dasharray="2.13 2.13"/>
<path d="M93.5039 29.7772V28.5527" stroke="#00AEEF" stroke-width="0.533246" stroke-miterlimit="10"/>
<mask id="mask1_466_19532" style="mask-type:luminance" maskUnits="userSpaceOnUse" x="0" y="0" width="644" height="435">
<path d="M643.215 0.00195312H0.0117188V434.002H643.215V0.00195312Z" fill="white"/>
</mask>
<g mask="url(#mask1_466_19532)">
<path d="M122.396 433.492V432.268" stroke="#00AEEF" stroke-width="0.533246" stroke-miterlimit="10"/>
</g>
<path d="M122.402 429.839V31.002" stroke="#00AEEF" stroke-width="0.533246" stroke-miterlimit="10" stroke-dasharray="2.13 2.13"/>
<path d="M122.402 29.7772V28.5527" stroke="#00AEEF" stroke-width="0.533246" stroke-miterlimit="10"/>
<mask id="mask2_466_19532" style="mask-type:luminance" maskUnits="userSpaceOnUse" x="0" y="0" width="644" height="435">
<path d="M643.215 0.00195312H0.0117188V434.002H643.215V0.00195312Z" fill="white"/>
</mask>
<g mask="url(#mask2_466_19532)">
<path d="M151.318 433.492V432.268" stroke="#00AEEF" stroke-width="0.533246" stroke-miterlimit="10"/>
</g>
<path d="M151.318 429.839V31.002" stroke="#00AEEF" stroke-width="0.533246" stroke-miterlimit="10" stroke-dasharray="2.13 2.13"/>
<path d="M151.318 29.7772V28.5527" stroke="#00AEEF" stroke-width="0.533246" stroke-miterlimit="10"/>
<mask id="mask3_466_19532" style="mask-type:luminance" maskUnits="userSpaceOnUse" x="0" y="0" width="644" height="435">
<path d="M643.215 0.00195312H0.0117188V434.002H643.215V0.00195312Z" fill="white"/>
</mask>
<g mask="url(#mask3_466_19532)">
<path d="M180.217 433.492V432.268" stroke="#00AEEF" stroke-width="0.533246" stroke-miterlimit="10"/>
</g>
<path d="M180.219 429.839V31.002" stroke="#00AEEF" stroke-width="0.533246" stroke-miterlimit="10" stroke-dasharray="2.13 2.13"/>
<path d="M180.219 29.7772V28.5527" stroke="#00AEEF" stroke-width="0.533246" stroke-miterlimit="10"/>
<mask id="mask4_466_19532" style="mask-type:luminance" maskUnits="userSpaceOnUse" x="0" y="0" width="644" height="435">
<path d="M643.215 0.00195312H0.0117188V434.002H643.215V0.00195312Z" fill="white"/>
</mask>
<g mask="url(#mask4_466_19532)">
<path d="M209.115 433.492V432.268" stroke="#00AEEF" stroke-width="0.533246" stroke-miterlimit="10"/>
</g>
<path d="M209.119 429.839V31.002" stroke="#00AEEF" stroke-width="0.533246" stroke-miterlimit="10" stroke-dasharray="2.13 2.13"/>
<path d="M209.119 29.7772V28.5527" stroke="#00AEEF" stroke-width="0.533246" stroke-miterlimit="10"/>
<mask id="mask5_466_19532" style="mask-type:luminance" maskUnits="userSpaceOnUse" x="0" y="0" width="644" height="435">
<path d="M643.215 0.00195312H0.0117188V434.002H643.215V0.00195312Z" fill="white"/>
</mask>
<g mask="url(#mask5_466_19532)">
<path d="M238.037 433.492V432.268" stroke="#00AEEF" stroke-width="0.533246" stroke-miterlimit="10"/>
</g>
<path d="M238.035 429.839V31.002" stroke="#00AEEF" stroke-width="0.533246" stroke-miterlimit="10" stroke-dasharray="2.13 2.13"/>
<path d="M238.035 29.7772V28.5527" stroke="#00AEEF" stroke-width="0.533246" stroke-miterlimit="10"/>
<mask id="mask6_466_19532" style="mask-type:luminance" maskUnits="userSpaceOnUse" x="0" y="0" width="644" height="435">
<path d="M643.215 0.00195312H0.0117188V434.002H643.215V0.00195312Z" fill="white"/>
</mask>
<g mask="url(#mask6_466_19532)">
<path d="M266.939 433.492V432.268" stroke="#00AEEF" stroke-width="0.533246" stroke-miterlimit="10"/>
</g>
<path d="M266.934 429.839V31.002" stroke="#00AEEF" stroke-width="0.533246" stroke-miterlimit="10" stroke-dasharray="2.13 2.13"/>
<path d="M266.934 29.7772V28.5527" stroke="#00AEEF" stroke-width="0.533246" stroke-miterlimit="10"/>
<mask id="mask7_466_19532" style="mask-type:luminance" maskUnits="userSpaceOnUse" x="0" y="0" width="644" height="435">
<path d="M643.215 0.00195312H0.0117188V434.002H643.215V0.00195312Z" fill="white"/>
</mask>
<g mask="url(#mask7_466_19532)">
<path d="M295.836 433.492V432.268" stroke="#00AEEF" stroke-width="0.533246" stroke-miterlimit="10"/>
</g>
<path d="M295.836 429.839V31.002" stroke="#00AEEF" stroke-width="0.533246" stroke-miterlimit="10" stroke-dasharray="2.13 2.13"/>
<path d="M295.836 29.7772V28.5527" stroke="#00AEEF" stroke-width="0.533246" stroke-miterlimit="10"/>
<mask id="mask8_466_19532" style="mask-type:luminance" maskUnits="userSpaceOnUse" x="0" y="0" width="644" height="435">
<path d="M643.215 0.00195312H0.0117188V434.002H643.215V0.00195312Z" fill="white"/>
</mask>
<g mask="url(#mask8_466_19532)">
<path d="M324.732 433.492V432.268" stroke="#00AEEF" stroke-width="0.533246" stroke-miterlimit="10"/>
</g>
<path d="M324.736 429.839V31.002" stroke="#00AEEF" stroke-width="0.533246" stroke-miterlimit="10" stroke-dasharray="2.13 2.13"/>
<path d="M324.736 29.7772V28.5527" stroke="#00AEEF" stroke-width="0.533246" stroke-miterlimit="10"/>
<mask id="mask9_466_19532" style="mask-type:luminance" maskUnits="userSpaceOnUse" x="0" y="0" width="644" height="435">
<path d="M643.215 0.00195312H0.0117188V434.002H643.215V0.00195312Z" fill="white"/>
</mask>
<g mask="url(#mask9_466_19532)">
<path d="M353.654 433.492V432.268" stroke="#00AEEF" stroke-width="0.533246" stroke-miterlimit="10"/>
</g>
<path d="M353.652 429.839V31.002" stroke="#00AEEF" stroke-width="0.533246" stroke-miterlimit="10" stroke-dasharray="2.13 2.13"/>
<path d="M353.652 29.7772V28.5527" stroke="#00AEEF" stroke-width="0.533246" stroke-miterlimit="10"/>
<mask id="mask10_466_19532" style="mask-type:luminance" maskUnits="userSpaceOnUse" x="0" y="0" width="644" height="435">
<path d="M643.215 0.00195312H0.0117188V434.002H643.215V0.00195312Z" fill="white"/>
</mask>
<g mask="url(#mask10_466_19532)">
<path d="M382.555 433.492V432.268" stroke="#00AEEF" stroke-width="0.533246" stroke-miterlimit="10"/>
</g>
<path d="M382.551 429.839V31.002" stroke="#00AEEF" stroke-width="0.533246" stroke-miterlimit="10" stroke-dasharray="2.13 2.13"/>
<path d="M382.551 29.7772V28.5527" stroke="#00AEEF" stroke-width="0.533246" stroke-miterlimit="10"/>
<mask id="mask11_466_19532" style="mask-type:luminance" maskUnits="userSpaceOnUse" x="0" y="0" width="644" height="435">
<path d="M643.215 0.00195312H0.0117188V434.002H643.215V0.00195312Z" fill="white"/>
</mask>
<g mask="url(#mask11_466_19532)">
<path d="M411.447 433.492V432.268" stroke="#00AEEF" stroke-width="0.533246" stroke-miterlimit="10"/>
</g>
<path d="M411.451 429.839V31.002" stroke="#00AEEF" stroke-width="0.533246" stroke-miterlimit="10" stroke-dasharray="2.13 2.13"/>
<path d="M411.451 29.7772V28.5527" stroke="#00AEEF" stroke-width="0.533246" stroke-miterlimit="10"/>
<mask id="mask12_466_19532" style="mask-type:luminance" maskUnits="userSpaceOnUse" x="0" y="0" width="644" height="435">
<path d="M643.215 0.00195312H0.0117188V434.002H643.215V0.00195312Z" fill="white"/>
</mask>
<g mask="url(#mask12_466_19532)">
<path d="M440.369 433.492V432.268" stroke="#00AEEF" stroke-width="0.533246" stroke-miterlimit="10"/>
</g>
<path d="M440.371 429.839V31.002" stroke="#00AEEF" stroke-width="0.533246" stroke-miterlimit="10" stroke-dasharray="2.13 2.13"/>
<path d="M440.371 29.7772V28.5527" stroke="#00AEEF" stroke-width="0.533246" stroke-miterlimit="10"/>
<mask id="mask13_466_19532" style="mask-type:luminance" maskUnits="userSpaceOnUse" x="0" y="0" width="644" height="435">
<path d="M643.215 0.00195312H0.0117188V434.002H643.215V0.00195312Z" fill="white"/>
</mask>
<g mask="url(#mask13_466_19532)">
<path d="M469.27 433.492V432.268" stroke="#00AEEF" stroke-width="0.533246" stroke-miterlimit="10"/>
</g>
<path d="M469.27 429.839V31.002" stroke="#00AEEF" stroke-width="0.533246" stroke-miterlimit="10" stroke-dasharray="2.13 2.13"/>
<path d="M469.27 29.7772V28.5527" stroke="#00AEEF" stroke-width="0.533246" stroke-miterlimit="10"/>
<mask id="mask14_466_19532" style="mask-type:luminance" maskUnits="userSpaceOnUse" x="0" y="0" width="644" height="435">
<path d="M643.215 0.00195312H0.0117188V434.002H643.215V0.00195312Z" fill="white"/>
</mask>
<g mask="url(#mask14_466_19532)">
<path d="M498.172 433.492V432.268" stroke="#00AEEF" stroke-width="0.533246" stroke-miterlimit="10"/>
</g>
<path d="M498.17 429.839V31.002" stroke="#00AEEF" stroke-width="0.533246" stroke-miterlimit="10" stroke-dasharray="2.13 2.13"/>
<path d="M498.17 29.7772V28.5527" stroke="#00AEEF" stroke-width="0.533246" stroke-miterlimit="10"/>
<mask id="mask15_466_19532" style="mask-type:luminance" maskUnits="userSpaceOnUse" x="0" y="0" width="644" height="435">
<path d="M643.215 0.00195312H0.0117188V434.002H643.215V0.00195312Z" fill="white"/>
</mask>
<g mask="url(#mask15_466_19532)">
<path d="M527.064 433.492V432.268" stroke="#00AEEF" stroke-width="0.533246" stroke-miterlimit="10"/>
</g>
<path d="M527.07 429.839V31.002" stroke="#00AEEF" stroke-width="0.533246" stroke-miterlimit="10" stroke-dasharray="2.13 2.13"/>
<path d="M527.07 29.7772V28.5527" stroke="#00AEEF" stroke-width="0.533246" stroke-miterlimit="10"/>
<mask id="mask16_466_19532" style="mask-type:luminance" maskUnits="userSpaceOnUse" x="0" y="0" width="644" height="435">
<path d="M643.215 0.00195312H0.0117188V434.002H643.215V0.00195312Z" fill="white"/>
</mask>
<g mask="url(#mask16_466_19532)">
<path d="M555.984 433.492V432.268" stroke="#00AEEF" stroke-width="0.533246" stroke-miterlimit="10"/>
</g>
<path d="M555.99 429.839V31.002" stroke="#00AEEF" stroke-width="0.533246" stroke-miterlimit="10" stroke-dasharray="2.13 2.13"/>
<path d="M555.99 29.7772V28.5527" stroke="#00AEEF" stroke-width="0.533246" stroke-miterlimit="10"/>
<mask id="mask17_466_19532" style="mask-type:luminance" maskUnits="userSpaceOnUse" x="0" y="0" width="644" height="435">
<path d="M643.215 0.00195312H0.0117188V434.002H643.215V0.00195312Z" fill="white"/>
</mask>
<g mask="url(#mask17_466_19532)">
<path d="M584.887 433.492V432.268" stroke="#00AEEF" stroke-width="0.533246" stroke-miterlimit="10"/>
</g>
<path d="M584.885 429.839V31.002" stroke="#00AEEF" stroke-width="0.533246" stroke-miterlimit="10" stroke-dasharray="2.13 2.13"/>
<path d="M584.885 29.7772V28.5527" stroke="#00AEEF" stroke-width="0.533246" stroke-miterlimit="10"/>
<mask id="mask18_466_19532" style="mask-type:luminance" maskUnits="userSpaceOnUse" x="0" y="0" width="644" height="435">
<path d="M643.215 0.00195312H0.0117188V434.002H643.215V0.00195312Z" fill="white"/>
</mask>
<g mask="url(#mask18_466_19532)">
<path d="M613.785 433.492V432.268" stroke="#00AEEF" stroke-width="0.533246" stroke-miterlimit="10"/>
</g>
<path d="M613.787 429.839V31.002" stroke="#00AEEF" stroke-width="0.533246" stroke-miterlimit="10" stroke-dasharray="2.13 2.13"/>
<path d="M643.787 429.839V31.002" stroke="#00AEEF" stroke-width="0.533246" stroke-miterlimit="10" stroke-dasharray="2.13 2.13"/>
<path d="M613.787 29.7772V28.5527" stroke="#00AEEF" stroke-width="0.533246" stroke-miterlimit="10"/>
<mask id="mask19_466_19532" style="mask-type:luminance" maskUnits="userSpaceOnUse" x="0" y="0" width="644" height="435">
<path d="M643.215 0.00195312H0.0117188V434.002H643.215V0.00195312Z" fill="white"/>
</mask>
<g mask="url(#mask19_466_19532)">
<path d="M642.707 432.229V433.494H641.441" stroke="#00AEEF" stroke-width="0.888743" stroke-miterlimit="10"/>
<path d="M638.871 433.49H67.1504" stroke="#00AEEF" stroke-width="0.888743" stroke-miterlimit="10" stroke-dasharray="2.22 2.22"/>
<path d="M65.8669 433.494H64.6016V432.229" stroke="#00AEEF" stroke-width="0.888743" stroke-miterlimit="10"/>
</g>
<path d="M64.5996 429.656V31.1055" stroke="#00AEEF" stroke-width="0.888743" stroke-miterlimit="10" stroke-dasharray="2.24 2.24"/>
<path d="M64.5996 29.818V28.5527H65.8649" stroke="#00AEEF" stroke-width="0.888743" stroke-miterlimit="10"/>
<path d="M68.4375 28.5527H640.158" stroke="#00AEEF" stroke-width="0.888743" stroke-miterlimit="10" stroke-dasharray="2.22 2.22"/>
<mask id="mask20_466_19532" style="mask-type:luminance" maskUnits="userSpaceOnUse" x="0" y="0" width="644" height="435">
<path d="M643.215 0.00195312H0.0117188V434.002H643.215V0.00195312Z" fill="white"/>
</mask>
<g mask="url(#mask20_466_19532)">
<path d="M55.1797 52.2637C57.5864 54.4678 60.8295 56.2637 64.6028 57.4678" stroke="#00AEEF" stroke-width="0.888743" stroke-miterlimit="10" stroke-dasharray="2.22 1.78"/>
<path d="M64.6028 28.5527C60.0136 30.0221 56.2199 32.3487 53.752 35.2466" stroke="#00AEEF" stroke-width="0.888743" stroke-miterlimit="10" stroke-dasharray="2.22 1.78"/>
<path d="M67.4366 21.6348C66.2945 23.6756 65.3358 26.0021 64.6016 28.5531" stroke="#00AEEF" stroke-width="0.888743" stroke-miterlimit="10" stroke-dasharray="2.22 1.78"/>
<path d="M93.5015 28.5513C92.7469 25.9186 91.7474 23.5309 90.5645 21.4492" stroke="#00AEEF" stroke-width="0.888743" stroke-miterlimit="10" stroke-dasharray="2.22 1.78"/>
</g>
<path d="M295.837 259.94H209.119V173.164H295.837" stroke="#231F20" stroke-width="1.33311" stroke-linejoin="round"/>
<path d="M295.836 259.94V173.164H382.554V259.94" stroke="#231F20" stroke-width="0.888743" stroke-linejoin="round" stroke-dasharray="2.67 1.78"/>
<path d="M469.27 259.94V173.164" stroke="#231F20" stroke-width="0.888743" stroke-linejoin="round" stroke-dasharray="2.67 1.78"/>
<path d="M382.551 259.939H469.268" stroke="#231F20" stroke-width="0.888743" stroke-linejoin="round" stroke-dasharray="2.67 1.78"/>
<path d="M382.551 173.164H469.268" stroke="#231F20" stroke-width="1.33311" stroke-linejoin="round"/>
<path d="M382.554 259.939H295.836" stroke="#231F20" stroke-width="1.33311" stroke-linejoin="round"/>
</svg>
