<svg width="631" height="439" viewBox="0 0 631 439" fill="none" xmlns="http://www.w3.org/2000/svg">
<path d="M315.491 159.987C356.321 159.987 411.69 156.282 436.435 152.269C485.308 144.242 492.113 112.136 492.113 80.6477C492.113 47.3068 484.999 13.9659 424.681 7.17424C402.101 4.39583 350.135 1 315.491 1C276.825 1 230.427 4.39583 205.991 8.40909C150.313 17.053 138.559 48.5416 138.559 80.6477C138.559 108.432 149.385 141.464 186.503 149.49C213.724 155.356 261.978 159.987 315.491 159.987Z" fill="white"/>
<path d="M315.491 159.987C356.321 159.987 411.69 156.282 436.435 152.269C485.308 144.242 492.113 112.136 492.113 80.6477C492.113 47.3068 484.999 13.9659 424.681 7.17424C402.101 4.39583 350.135 1 315.491 1C276.825 1 230.427 4.39583 205.991 8.40909C150.313 17.053 138.559 48.5416 138.559 80.6477C138.559 108.432 149.385 141.464 186.503 149.49C213.724 155.356 261.978 159.987 315.491 159.987Z" stroke="#FBDFE4"/>
<path d="M315.8 437.331C399.007 437.331 494.897 441.895 542.842 435.927C630.998 425.043 630.998 323.228 630.998 254.766C630.998 191.922 632.236 132.588 565.732 108.012C518.096 90.4576 416.329 88 320.749 88C218.982 88 113.503 89.0533 63.0837 98.8837C-10.5349 113.278 0.600696 194.028 0.600696 254.766C0.600696 323.228 -12.3908 425.394 90.304 432.767C140.723 436.278 232.592 437.331 315.8 437.331Z" fill="#FEF2F5"/>
<path d="M609.554 318.297C609.554 318.297 607.698 412.454 527.583 422.95C527.274 422.95 615.74 436.534 609.554 318.297Z" fill="white"/>
</svg>
