<svg width="406" height="171" viewBox="0 0 406 171" fill="none" xmlns="http://www.w3.org/2000/svg">
<path d="M49.2743 130.83L157.12 95.9219" stroke="#E4007F" stroke-linejoin="round"/>
<path d="M382.176 144.445H370.824V155.797" stroke="#E4007F" stroke-linejoin="round"/>
<path d="M52.6798 141.339L63.4644 137.933L60.0587 127.148" stroke="#E4007F" stroke-linejoin="round"/>
<path d="M382.176 109.539V155.799H196.285" stroke="#E4007F" stroke-dasharray="4.26 4.26"/>
<path d="M196.285 155.805H382.176" stroke="#E4007F" stroke-linejoin="round"/>
<path d="M16.3531 105.859C28.5567 136.794 45.3011 160.35 61.7618 169.999" stroke="#00A0E9" stroke-miterlimit="10" stroke-dasharray="3.55 3.55"/>
<path d="M6.98739 0.5625C-0.675315 17.0231 -0.959109 44.5521 6.41979 74.6353" stroke="#00A0E9" stroke-miterlimit="10" stroke-dasharray="3.55 3.55"/>
<path d="M404.313 49.0981C401.191 34.0565 392.961 21.5691 381.892 14.7578" stroke="#00A0E9" stroke-miterlimit="10" stroke-dasharray="3.55 3.55"/>
<path d="M382.176 109.548C393.528 102.453 402.042 89.3983 404.88 73.7891" stroke="#00A0E9" stroke-miterlimit="10" stroke-dasharray="3.55 3.55"/>
<path d="M61.7615 169.71L7.27112 0.5625L157.12 95.9206L61.7615 169.71Z" stroke="black" stroke-miterlimit="10" stroke-linejoin="round"/>
<path d="M382.176 15.0391V109.262L196.285 155.806L382.176 15.0391Z" stroke="black" stroke-miterlimit="10" stroke-linejoin="round"/>
</svg>
