<svg width="107" height="108" viewBox="0 0 107 108" fill="none" xmlns="http://www.w3.org/2000/svg">
<mask id="mask0_9540_79967" style="mask-type:luminance" maskUnits="userSpaceOnUse" x="0" y="0" width="107" height="108">
<path d="M106.092 0.859375H0V108.001H106.092V0.859375Z" fill="white"/>
</mask>
<g mask="url(#mask0_9540_79967)">
<path d="M98.0763 28.7911C93.5054 20.8554 86.9265 14.2655 79.0022 9.68497C71.0779 5.10443 62.0879 2.69498 52.9375 2.69922V54.883L98.0763 80.9748C102.654 73.0427 105.064 64.0436 105.064 54.883C105.064 45.7223 102.654 36.7232 98.0763 28.7911Z" fill="#FFEF2C"/>
<path d="M53.0354 2.69922C43.8877 2.70426 34.9024 5.11916 26.9822 9.7013C19.0619 14.2834 12.4856 20.8714 7.91397 28.8035C3.3423 36.7356 0.936241 45.7324 0.9375 54.8902C0.93876 64.0479 3.34729 73.044 7.92114 80.9748L53.0354 54.883V2.69922Z" fill="#E8412C"/>
<path d="M53.0568 54.8828L7.91797 80.9747C12.4902 88.9062 19.0678 95.4928 26.9893 100.072C34.9108 104.652 43.897 107.063 53.0445 107.063C62.1919 107.063 71.1782 104.652 79.0997 100.072C87.0212 95.4928 93.5988 88.9062 98.171 80.9747L53.0568 54.8828Z" fill="#63B9E9"/>
<path d="M89.9107 17.9945C82.6201 10.6977 73.332 5.72903 63.2208 3.71659C53.1096 1.70414 42.6294 2.73835 33.1052 6.68841C23.5811 10.6385 15.4408 17.327 9.71368 25.9083C3.98652 34.4895 0.929687 44.5782 0.929688 54.8986C0.929687 65.219 3.98652 75.3077 9.71368 83.889C15.4408 92.4703 23.5811 99.1588 33.1052 103.109C42.6294 107.059 53.1096 108.093 63.2208 106.081C73.332 104.068 82.6201 99.0995 89.9107 91.8028C99.6831 82.0129 105.173 68.7389 105.173 54.8986C105.173 41.0583 99.6831 27.7844 89.9107 17.9945Z" stroke="#1D1D1B" stroke-width="0.957645" stroke-linejoin="round"/>
<path d="M53.0582 11.3125L48.1055 19.9034H51.2193V54.8808H54.8971V19.9034H58.011L53.0582 11.3125Z" fill="white"/>
<path d="M53.0582 11.3125L48.1055 19.9034H51.2193V54.8808H54.8971V19.9034H58.011L53.0582 11.3125Z" stroke="#1D1D1B" stroke-width="0.63843" stroke-linejoin="round"/>
<path d="M57.2251 54.8819C57.23 54.0497 56.9876 53.2348 56.5288 52.5408C56.0699 51.8468 55.4154 51.3051 54.6483 50.9843C53.8812 50.6636 53.0362 50.5785 52.2206 50.7396C51.405 50.9008 50.6557 51.301 50.0679 51.8895C49.48 52.478 49.0802 53.2281 48.9192 54.0446C48.7582 54.8611 48.8433 55.707 49.1637 56.475C49.4841 57.2429 50.0252 57.8982 50.7185 58.3575C51.4117 58.8168 52.2257 59.0595 53.057 59.0546C54.1624 59.0546 55.2226 58.615 56.0043 57.8325C56.786 57.0499 57.2251 55.9886 57.2251 54.8819Z" fill="#1D1D1B"/>
</g>
</svg>
