<svg class="bubble_style" width="76" height="68" viewBox="0 0 76 68" fill="none" xmlns="http://www.w3.org/2000/svg">
  <mask id="path-1-inside-1_95_1573" fill="white">
  <path fill-rule="evenodd" clip-rule="evenodd" d="M59.7333 50.0613C69.5672 45.0908 76 36.8391 76 27.5C76 12.3122 58.9868 0 38 0C17.0132 0 0 12.3122 0 27.5C0 42.6878 17.0132 55 38 55C40.7428 55 43.4178 54.7897 45.9957 54.3902L61.5 68L59.7333 50.0613Z"/>
  </mask>
  <path fill-rule="evenodd" clip-rule="evenodd" d="M59.7333 50.0613C69.5672 45.0908 76 36.8391 76 27.5C76 12.3122 58.9868 0 38 0C17.0132 0 0 12.3122 0 27.5C0 42.6878 17.0132 55 38 55C40.7428 55 43.4178 54.7897 45.9957 54.3902L61.5 68L59.7333 50.0613Z" fill="white"/>
  <path d="M59.7333 50.0613L57.7429 50.2573L57.6087 48.8942L58.8311 48.2763L59.7333 50.0613ZM45.9957 54.3902L45.6894 52.4138L46.6128 52.2707L47.3151 52.8871L45.9957 54.3902ZM61.5 68L63.4904 67.804L63.9868 72.8441L60.1806 69.5031L61.5 68ZM78 27.5C78 37.8369 70.8938 46.6613 60.6355 51.8462L58.8311 48.2763C68.2406 43.5203 74 35.8412 74 27.5H78ZM38 -2C48.868 -2 58.789 1.18501 66.0426 6.43433C73.2938 11.6819 78 19.1042 78 27.5H74C74 20.708 70.1997 14.3803 63.6975 9.6748C57.1978 4.97107 48.1188 2 38 2V-2ZM-2 27.5C-2 19.1042 2.70625 11.6819 9.95741 6.43433C17.211 1.18501 27.132 -2 38 -2V2C27.8812 2 18.8022 4.97107 12.3025 9.6748C5.80035 14.3803 2 20.708 2 27.5H-2ZM38 57C27.132 57 17.211 53.815 9.95741 48.5657C2.70625 43.3181 -2 35.8958 -2 27.5H2C2 34.292 5.80035 40.6197 12.3025 45.3252C18.8022 50.0289 27.8812 53 38 53V57ZM46.302 56.3666C43.6223 56.7819 40.8449 57 38 57V53C40.6407 53 43.2132 52.7975 45.6894 52.4138L46.302 56.3666ZM47.3151 52.8871L62.8194 66.4969L60.1806 69.5031L44.6763 55.8932L47.3151 52.8871ZM59.5096 68.196L57.7429 50.2573L61.7237 49.8652L63.4904 67.804L59.5096 68.196Z" fill="black" mask="url(#path-1-inside-1_95_1573)"/>
</svg>