<svg width="30" height="30" viewBox="0 0 30 30" fill="none" xmlns="http://www.w3.org/2000/svg">
<path d="M12.976 6.52925L12.7466 10.0757L12.7245 10.5455L12.6232 10.5561C7.6173 11.1445 3.82422 15.4126 3.82422 20.6379C3.82422 21.1534 3.86272 21.6644 3.93891 22.1679C4.25388 24.2498 4.49067 24.4511 5.9378 22.7299C6.29406 22.3061 6.69163 21.9282 7.11055 21.5682C8.61753 20.3249 10.4859 19.5988 12.4734 19.5177L12.7278 19.5123L12.7972 20.8984L12.9844 23.5435C13.0739 24.4503 14.028 25.0698 14.9062 24.5746C15.3024 24.351 15.6897 24.113 16.0778 23.8758C18.0943 22.614 19.9812 21.1642 21.8202 19.6591C22.9023 18.7573 23.851 17.9022 24.658 17.1239C25.0295 16.7587 25.4014 16.3944 25.7614 16.0178C26.2827 15.4722 26.3342 14.5686 25.7886 13.9974C24.5327 12.683 22.7573 11.0368 20.5477 9.29189C18.7569 7.89077 16.9044 6.58182 14.942 5.4323C13.9982 4.89447 13.062 5.63243 12.976 6.52925Z" fill="#222222"/>
</svg>
