<svg width="30" height="30" viewBox="0 0 30 30" fill="none" xmlns="http://www.w3.org/2000/svg">
<path d="M17.024 6.52925L17.2534 10.0757L17.2755 10.5455L17.3768 10.5561C22.3827 11.1445 26.1758 15.4126 26.1758 20.6379C26.1758 21.1534 26.1373 21.6644 26.0611 22.1679C25.7461 24.2498 25.5093 24.4511 24.0622 22.7299C23.7059 22.3061 23.3084 21.9282 22.8894 21.5682C21.3825 20.3249 19.5141 19.5988 17.5266 19.5177L17.2722 19.5123L17.2028 20.8984L17.0156 23.5435C16.9261 24.4503 15.972 25.0698 15.0938 24.5746C14.6976 24.351 14.3103 24.113 13.9222 23.8758C11.9057 22.614 10.0188 21.1642 8.17985 19.6591C7.09774 18.7573 6.14902 17.9022 5.34196 17.1239C4.97051 16.7587 4.59862 16.3944 4.23865 16.0178C3.71735 15.4722 3.66578 14.5686 4.21141 13.9974C5.46726 12.683 7.24268 11.0368 9.45228 9.29189C11.2431 7.89077 13.0956 6.58182 15.058 5.4323C16.0018 4.89447 16.938 5.63243 17.024 6.52925Z" fill="#222222"/>
</svg>
