<svg width="107" height="40" viewBox="0 0 107 40" fill="none" xmlns="http://www.w3.org/2000/svg">
<path d="M12.4721 17C5.58587 17 0 22.1475 0 28.5C0 34.8495 5.58587 40 12.4721 40H84.5279C91.4174 40 97 34.8495 97 28.5C97 22.1475 91.4174 17 84.5279 17H12.4721Z" fill="#5BB8A1"/>
<mask id="path-2-outside-1_10512_55425" maskUnits="userSpaceOnUse" x="11" y="2" width="55" height="35" fill="black">
<rect fill="white" x="11" y="2" width="55" height="35"/>
<path d="M25.9375 23.2188C31.6562 23.2188 35.0938 25.0938 35.0938 28.3438C35.0938 31.625 31.6562 33.5 25.9375 33.5312C20.2188 33.5 16.7188 31.625 16.7188 28.3438C16.7188 25.0938 20.2188 23.2188 25.9375 23.2188ZM25.9375 25.1562C21.75 25.1875 19.1562 26.3438 19.1875 28.3438C19.1562 30.3438 21.75 31.5312 25.9375 31.5312C30.1562 31.5312 32.7188 30.3438 32.7188 28.3438C32.7188 26.3438 30.1562 25.1875 25.9375 25.1562ZM34.8438 5.75V12.75H39.0312V14.8438H34.8438V22.4688H32.4062V5.75H34.8438ZM16.7188 7.5V11.75H24.8125V7.5H27.25V20.3125H14.3125V7.5H16.7188ZM16.7188 18.3125H24.8125V13.6875H16.7188V18.3125ZM43.625 7.1875V11.5H51.375V7.1875H53.7812V12.5938H60.3438V5.75H62.8125V20.9375H60.3438V14.6562H53.7812V19.9062H41.1875V7.1875H43.625ZM43.625 17.9062H51.375V13.4375H43.625V17.9062ZM47.375 22.2812V25.6875H60.3438V22.2812H62.7812V33.1562H44.9062V22.2812H47.375ZM47.375 31.125H60.3438V27.6562H47.375V31.125Z"/>
</mask>
<path d="M25.9375 23.2188C31.6562 23.2188 35.0938 25.0938 35.0938 28.3438C35.0938 31.625 31.6562 33.5 25.9375 33.5312C20.2188 33.5 16.7188 31.625 16.7188 28.3438C16.7188 25.0938 20.2188 23.2188 25.9375 23.2188ZM25.9375 25.1562C21.75 25.1875 19.1562 26.3438 19.1875 28.3438C19.1562 30.3438 21.75 31.5312 25.9375 31.5312C30.1562 31.5312 32.7188 30.3438 32.7188 28.3438C32.7188 26.3438 30.1562 25.1875 25.9375 25.1562ZM34.8438 5.75V12.75H39.0312V14.8438H34.8438V22.4688H32.4062V5.75H34.8438ZM16.7188 7.5V11.75H24.8125V7.5H27.25V20.3125H14.3125V7.5H16.7188ZM16.7188 18.3125H24.8125V13.6875H16.7188V18.3125ZM43.625 7.1875V11.5H51.375V7.1875H53.7812V12.5938H60.3438V5.75H62.8125V20.9375H60.3438V14.6562H53.7812V19.9062H41.1875V7.1875H43.625ZM43.625 17.9062H51.375V13.4375H43.625V17.9062ZM47.375 22.2812V25.6875H60.3438V22.2812H62.7812V33.1562H44.9062V22.2812H47.375ZM47.375 31.125H60.3438V27.6562H47.375V31.125Z" fill="white"/>
<path d="M25.9375 33.5312L25.9211 36.5312C25.9321 36.5313 25.943 36.5313 25.9539 36.5312L25.9375 33.5312ZM16.7188 28.3438L13.7188 28.3293C13.7187 28.3389 13.7187 28.3485 13.7188 28.358L16.7188 28.3438ZM14.3125 20.3125H11.3125C11.3125 21.9694 12.6556 23.3125 14.3125 23.3125V20.3125ZM14.3125 7.5V4.5C12.6556 4.5 11.3125 5.84315 11.3125 7.5H14.3125ZM16.7188 7.5H19.7188C19.7188 5.84315 18.3756 4.5 16.7188 4.5V7.5ZM16.7188 11.75H13.7188C13.7188 13.4069 15.0619 14.75 16.7188 14.75V11.75ZM24.8125 11.75V14.75C26.4694 14.75 27.8125 13.4069 27.8125 11.75H24.8125ZM24.8125 7.5V4.5C23.1556 4.5 21.8125 5.84315 21.8125 7.5H24.8125ZM27.25 7.5H30.25C30.25 5.84315 28.9069 4.5 27.25 4.5V7.5ZM27.25 20.3125V23.3125C28.9069 23.3125 30.25 21.9694 30.25 20.3125H27.25ZM16.7188 18.3125H13.7188C13.7188 19.9694 15.0619 21.3125 16.7188 21.3125V18.3125ZM24.8125 18.3125V21.3125C26.4694 21.3125 27.8125 19.9694 27.8125 18.3125H24.8125ZM24.8125 13.6875H27.8125C27.8125 12.0306 26.4694 10.6875 24.8125 10.6875V13.6875ZM16.7188 13.6875V10.6875C15.0619 10.6875 13.7188 12.0306 13.7188 13.6875H16.7188ZM19.1875 28.3438L22.1871 28.3906C22.1876 28.3593 22.1876 28.3279 22.1871 28.2965L19.1875 28.3438ZM32.7188 28.3438L35.7187 28.3672C35.7188 28.3515 35.7188 28.3358 35.7187 28.3201L32.7188 28.3438ZM25.9375 25.1562L25.9598 22.1563C25.9449 22.1562 25.93 22.1562 25.9151 22.1563L25.9375 25.1562ZM32.4062 22.4688H29.4062C29.4062 24.1256 30.7494 25.4688 32.4062 25.4688V22.4688ZM32.4062 5.75V2.75C30.7494 2.75 29.4062 4.09315 29.4062 5.75H32.4062ZM34.8438 5.75H37.8438C37.8438 4.09315 36.5006 2.75 34.8438 2.75V5.75ZM34.8438 12.75H31.8438C31.8438 14.4069 33.1869 15.75 34.8438 15.75V12.75ZM39.0312 12.75H42.0312C42.0312 11.0931 40.6881 9.75 39.0312 9.75V12.75ZM39.0312 14.8438V17.8438C40.6881 17.8438 42.0312 16.5006 42.0312 14.8438H39.0312ZM34.8438 14.8438V11.8438C33.1869 11.8438 31.8438 13.1869 31.8438 14.8438H34.8438ZM34.8438 22.4688V25.4688C36.5006 25.4688 37.8438 24.1256 37.8438 22.4688H34.8438ZM25.9375 26.2188C28.5298 26.2188 30.2444 26.6559 31.1982 27.1854C32.0156 27.6392 32.0938 28.0139 32.0938 28.3438H38.0938C38.0938 25.4236 36.4453 23.2358 34.1104 21.9396C31.9119 20.7191 29.0484 20.2188 25.9375 20.2188V26.2188ZM32.0938 28.3438C32.0938 28.7005 32.0036 29.0822 31.1883 29.5388C30.2329 30.074 28.5174 30.5171 25.9211 30.5313L25.9539 36.5312C29.0607 36.5142 31.9234 36.0042 34.1203 34.7737C36.4573 33.4647 38.0938 31.2683 38.0938 28.3438H32.0938ZM25.9539 30.5313C23.3497 30.5171 21.6181 30.074 20.6472 29.5342C19.8115 29.0696 19.7204 28.6797 19.7187 28.3295L13.7188 28.358C13.7327 31.289 15.3916 33.4772 17.7317 34.7783C19.9366 36.0041 22.8065 36.5142 25.9211 36.5312L25.9539 30.5313ZM19.7187 28.3582C19.7203 28.0347 19.7994 27.6517 20.6373 27.19C21.6066 26.6559 23.3374 26.2188 25.9375 26.2188V20.2188C22.8188 20.2188 19.9481 20.7191 17.7416 21.935C15.4037 23.2233 13.7329 25.4028 13.7188 28.3293L19.7187 28.3582ZM17.3125 20.3125V7.5H11.3125V20.3125H17.3125ZM14.3125 10.5H16.7188V4.5H14.3125V10.5ZM13.7188 7.5V11.75H19.7188V7.5H13.7188ZM16.7188 14.75H24.8125V8.75H16.7188V14.75ZM27.8125 11.75V7.5H21.8125V11.75H27.8125ZM24.8125 10.5H27.25V4.5H24.8125V10.5ZM24.25 7.5V20.3125H30.25V7.5H24.25ZM27.25 17.3125H14.3125V23.3125H27.25V17.3125ZM16.7188 21.3125H24.8125V15.3125H16.7188V21.3125ZM27.8125 18.3125V13.6875H21.8125V18.3125H27.8125ZM24.8125 10.6875H16.7188V16.6875H24.8125V10.6875ZM13.7188 13.6875V18.3125H19.7188V13.6875H13.7188ZM16.1879 28.2969C16.1469 30.9191 17.9377 32.5754 19.7083 33.4044C21.4366 34.2137 23.6276 34.5312 25.9375 34.5312V28.5312C24.0599 28.5312 22.8602 28.2551 22.2526 27.9706C21.9659 27.8363 21.9456 27.7629 22.0115 27.848C22.1092 27.9741 22.1904 28.1846 22.1871 28.3906L16.1879 28.2969ZM25.9375 34.5312C28.2552 34.5312 30.4423 34.2137 32.1706 33.4044C33.948 32.5722 35.6986 30.9379 35.7187 28.3672L29.7188 28.3203C29.7203 28.1329 29.797 27.9438 29.8837 27.8334C29.9413 27.7599 29.9122 27.8367 29.6263 27.9706C29.0187 28.2551 27.8229 28.5312 25.9375 28.5312V34.5312ZM35.7187 28.3201C35.6984 25.7428 33.9299 24.1215 32.1668 23.2989C30.4471 22.4966 28.2689 22.1735 25.9598 22.1563L25.9152 28.1562C27.8093 28.1702 29.0138 28.4487 29.63 28.7362C29.9206 28.8718 29.9501 28.9491 29.891 28.8744C29.8016 28.7615 29.7204 28.5654 29.7188 28.3674L35.7187 28.3201ZM25.9151 22.1563C23.614 22.1735 21.4318 22.4966 19.7121 23.2989C17.9562 24.1181 16.1465 25.7615 16.1879 28.391L22.1871 28.2965C22.1905 28.5134 22.1048 28.7311 22.0043 28.8598C21.9368 28.9461 21.9575 28.8722 22.2489 28.7362C22.8651 28.4487 24.0735 28.1702 25.9599 28.1562L25.9151 22.1563ZM35.4062 22.4688V5.75H29.4062V22.4688H35.4062ZM32.4062 8.75H34.8438V2.75H32.4062V8.75ZM31.8438 5.75V12.75H37.8438V5.75H31.8438ZM34.8438 15.75H39.0312V9.75H34.8438V15.75ZM36.0312 12.75V14.8438H42.0312V12.75H36.0312ZM39.0312 11.8438H34.8438V17.8438H39.0312V11.8438ZM31.8438 14.8438V22.4688H37.8438V14.8438H31.8438ZM34.8438 19.4688H32.4062V25.4688H34.8438V19.4688ZM43.625 7.1875H46.625C46.625 5.53065 45.2819 4.1875 43.625 4.1875V7.1875ZM43.625 11.5H40.625C40.625 13.1569 41.9681 14.5 43.625 14.5V11.5ZM51.375 11.5V14.5C53.0319 14.5 54.375 13.1569 54.375 11.5H51.375ZM51.375 7.1875V4.1875C49.7181 4.1875 48.375 5.53065 48.375 7.1875H51.375ZM53.7812 7.1875H56.7812C56.7812 5.53065 55.4381 4.1875 53.7812 4.1875V7.1875ZM53.7812 12.5938H50.7812C50.7812 14.2506 52.1244 15.5938 53.7812 15.5938V12.5938ZM60.3438 12.5938V15.5938C62.0006 15.5938 63.3438 14.2506 63.3438 12.5938H60.3438ZM60.3438 5.75V2.75C58.6869 2.75 57.3438 4.09315 57.3438 5.75H60.3438ZM62.8125 5.75H65.8125C65.8125 4.09315 64.4694 2.75 62.8125 2.75V5.75ZM62.8125 20.9375V23.9375C64.4694 23.9375 65.8125 22.5944 65.8125 20.9375H62.8125ZM60.3438 20.9375H57.3438C57.3438 22.5944 58.6869 23.9375 60.3438 23.9375V20.9375ZM60.3438 14.6562H63.3438C63.3438 12.9994 62.0006 11.6562 60.3438 11.6562V14.6562ZM53.7812 14.6562V11.6562C52.1244 11.6562 50.7812 12.9994 50.7812 14.6562H53.7812ZM53.7812 19.9062V22.9062C55.4381 22.9062 56.7812 21.5631 56.7812 19.9062H53.7812ZM41.1875 19.9062H38.1875C38.1875 21.5631 39.5306 22.9062 41.1875 22.9062V19.9062ZM41.1875 7.1875V4.1875C39.5306 4.1875 38.1875 5.53065 38.1875 7.1875H41.1875ZM43.625 17.9062H40.625C40.625 19.5631 41.9681 20.9062 43.625 20.9062V17.9062ZM51.375 17.9062V20.9062C53.0319 20.9062 54.375 19.5631 54.375 17.9062H51.375ZM51.375 13.4375H54.375C54.375 11.7806 53.0319 10.4375 51.375 10.4375V13.4375ZM43.625 13.4375V10.4375C41.9681 10.4375 40.625 11.7806 40.625 13.4375H43.625ZM44.9062 33.1562H41.9062C41.9062 34.8131 43.2494 36.1562 44.9062 36.1562V33.1562ZM44.9062 22.2812V19.2812C43.2494 19.2812 41.9062 20.6244 41.9062 22.2812H44.9062ZM47.375 22.2812H50.375C50.375 20.6244 49.0319 19.2812 47.375 19.2812V22.2812ZM47.375 25.6875H44.375C44.375 27.3444 45.7181 28.6875 47.375 28.6875V25.6875ZM60.3438 25.6875V28.6875C62.0006 28.6875 63.3438 27.3444 63.3438 25.6875H60.3438ZM60.3438 22.2812V19.2812C58.6869 19.2812 57.3438 20.6244 57.3438 22.2812H60.3438ZM62.7812 22.2812H65.7812C65.7812 20.6244 64.4381 19.2812 62.7812 19.2812V22.2812ZM62.7812 33.1562V36.1562C64.4381 36.1562 65.7812 34.8131 65.7812 33.1562H62.7812ZM47.375 31.125H44.375C44.375 32.7819 45.7181 34.125 47.375 34.125V31.125ZM60.3438 31.125V34.125C62.0006 34.125 63.3438 32.7819 63.3438 31.125H60.3438ZM60.3438 27.6562H63.3438C63.3438 25.9994 62.0006 24.6562 60.3438 24.6562V27.6562ZM47.375 27.6562V24.6562C45.7181 24.6562 44.375 25.9994 44.375 27.6562H47.375ZM40.625 7.1875V11.5H46.625V7.1875H40.625ZM43.625 14.5H51.375V8.5H43.625V14.5ZM54.375 11.5V7.1875H48.375V11.5H54.375ZM51.375 10.1875H53.7812V4.1875H51.375V10.1875ZM50.7812 7.1875V12.5938H56.7812V7.1875H50.7812ZM53.7812 15.5938H60.3438V9.59375H53.7812V15.5938ZM63.3438 12.5938V5.75H57.3438V12.5938H63.3438ZM60.3438 8.75H62.8125V2.75H60.3438V8.75ZM59.8125 5.75V20.9375H65.8125V5.75H59.8125ZM62.8125 17.9375H60.3438V23.9375H62.8125V17.9375ZM63.3438 20.9375V14.6562H57.3438V20.9375H63.3438ZM60.3438 11.6562H53.7812V17.6562H60.3438V11.6562ZM50.7812 14.6562V19.9062H56.7812V14.6562H50.7812ZM53.7812 16.9062H41.1875V22.9062H53.7812V16.9062ZM44.1875 19.9062V7.1875H38.1875V19.9062H44.1875ZM41.1875 10.1875H43.625V4.1875H41.1875V10.1875ZM43.625 20.9062H51.375V14.9062H43.625V20.9062ZM54.375 17.9062V13.4375H48.375V17.9062H54.375ZM51.375 10.4375H43.625V16.4375H51.375V10.4375ZM40.625 13.4375V17.9062H46.625V13.4375H40.625ZM47.9062 33.1562V22.2812H41.9062V33.1562H47.9062ZM44.9062 25.2812H47.375V19.2812H44.9062V25.2812ZM44.375 22.2812V25.6875H50.375V22.2812H44.375ZM47.375 28.6875H60.3438V22.6875H47.375V28.6875ZM63.3438 25.6875V22.2812H57.3438V25.6875H63.3438ZM60.3438 25.2812H62.7812V19.2812H60.3438V25.2812ZM59.7812 22.2812V33.1562H65.7812V22.2812H59.7812ZM62.7812 30.1562H44.9062V36.1562H62.7812V30.1562ZM47.375 34.125H60.3438V28.125H47.375V34.125ZM63.3438 31.125V27.6562H57.3438V31.125H63.3438ZM60.3438 24.6562H47.375V30.6562H60.3438V24.6562ZM44.375 27.6562V31.125H50.375V27.6562H44.375Z" fill="#5BB8A1" mask="url(#path-2-outside-1_10512_55425)"/>
<path d="M105.5 19.9992C105.5 30.1981 97.1999 38.4976 87 38.4976C76.8001 38.4976 68.5 30.1981 68.5 19.9992C68.5 9.80368 76.8 1.50391 87 1.50391C97.2001 1.50391 105.5 9.80367 105.5 19.9992Z" fill="white" stroke="#5BB8A1" stroke-width="3"/>
<path d="M81.3359 28L81.3125 25.4453L87.4062 19.8438C89 18.3203 89.8438 17.3828 89.8438 16.0469C89.8438 14.5469 88.6953 13.6094 87.1484 13.6094C85.5547 13.6094 84.5234 14.6172 84.5234 16.2344H81.1719C81.1484 12.9062 83.6094 10.7969 87.1953 10.7969C90.8281 10.7969 93.2422 12.8594 93.2422 15.8125C93.2422 17.7344 92.3047 19.3281 88.8125 22.4922L86.2344 25V25.0938H93.4766V28H81.3359Z" fill="#5BB8A1"/>
</svg>
