<svg width="64" height="66" viewBox="0 0 64 66" fill="none" xmlns="http://www.w3.org/2000/svg">
<path d="M63.3425 32.0518C63.3425 15.0286 49.541 1.18359 32.4742 1.18359C15.4074 1.18359 1.60596 14.985 1.60596 32.0518C1.60596 49.1186 15.4074 62.9201 32.4742 62.9201C49.541 62.9201 63.3425 49.1186 63.3425 32.0518Z" fill="#FFE17F"/>
<path d="M32.4742 1.18359C15.4509 1.18359 1.60596 14.985 1.60596 32.0518C1.60596 49.1186 15.4074 62.9201 32.4742 62.9201" fill="#ACD58A"/>
<path d="M1.60596 32.0508H4.21825" stroke="#00AEEF" stroke-width="1.30613" stroke-miterlimit="10"/>
<path d="M9.35559 32.0508H58.0743" stroke="#00AEEF" stroke-width="1.30613" stroke-miterlimit="10" stroke-dasharray="5.14 5.14"/>
<path d="M60.5996 32.0508H63.2119" stroke="#00AEEF" stroke-width="1.30613" stroke-miterlimit="10"/>
<path d="M32.4308 62.8271V60.2148" stroke="#00AEEF" stroke-width="1.30613" stroke-miterlimit="10"/>
<path d="M32.4308 55.125V6.40625" stroke="#00AEEF" stroke-width="1.30613" stroke-miterlimit="10" stroke-dasharray="5.14 5.14"/>
<path d="M32.4308 3.83104V1.21875" stroke="#00AEEF" stroke-width="1.30613" stroke-miterlimit="10"/>
<path d="M20.4143 60.4313C9.35571 55.7293 1.60596 44.8013 1.60596 32.0012C1.60596 14.9779 15.4074 1.13281 32.4742 1.13281" stroke="#EC008C" stroke-width="2.17689" stroke-miterlimit="10"/>
<path d="M32.4744 62.8761L17.2362 52.0352L19.6307 59.872L13.9708 65.7931L32.4744 62.8761Z" fill="#EC008C"/>
<path d="M32.4744 1.18359V62.8767" stroke="#231F20" stroke-width="1.74151"/>
</svg>
