<svg width="245" height="249" viewBox="0 0 245 249" fill="none" xmlns="http://www.w3.org/2000/svg">
<path d="M243.09 170.212V79.3408H1.87012V170.212V170.233H243.09V170.212Z" fill="#DDEDD9"/>
<path d="M160.894 40.3458C160.894 61.5527 143.702 78.7659 122.495 78.7659C101.267 78.7659 84.0752 61.574 84.0752 40.3458C84.0752 19.139 101.267 1.92578 122.495 1.92578C143.702 1.92578 160.894 19.139 160.894 40.3458Z" fill="#DDEDD9"/>
<path d="M160.894 209.06C160.894 230.267 143.702 247.48 122.474 247.48C101.267 247.48 84.0752 230.288 84.0752 209.06C84.0752 187.853 101.267 170.64 122.474 170.64C143.702 170.64 160.894 187.832 160.894 209.06Z" fill="#DDEDD9"/>
<path d="M160.894 40.3458C160.894 61.5527 143.702 78.7659 122.495 78.7659C101.267 78.7659 84.0752 61.574 84.0752 40.3458C84.0752 19.139 101.267 1.92578 122.495 1.92578C143.702 1.92578 160.894 19.139 160.894 40.3458Z" stroke="#1D1D1B" stroke-width="2" stroke-miterlimit="10" stroke-linejoin="round"/>
<path d="M160.894 209.06C160.894 230.267 143.702 247.48 122.474 247.48C101.267 247.48 84.0752 230.288 84.0752 209.06C84.0752 187.853 101.267 170.64 122.474 170.64C143.702 170.64 160.894 187.832 160.894 209.06Z" stroke="#1D1D1B" stroke-width="2" stroke-miterlimit="10" stroke-linejoin="round"/>
<path d="M243.09 79.3408H1.87012V170.212H243.09V79.3408Z" stroke="#1D1D1B" stroke-width="2" stroke-miterlimit="10" stroke-linecap="round" stroke-linejoin="round"/>
</svg>
