<svg width="108" height="97" viewBox="0 0 108 97" fill="none" xmlns="http://www.w3.org/2000/svg">
<mask id="mask0_10423_82858" style="mask-type:luminance" maskUnits="userSpaceOnUse" x="0" y="9" width="107" height="84">
<path d="M0.5 92.7868V9.85254H106.311V92.7868C106.311 87.8939 82.5949 84.013 53.4056 84.013C24.2163 84.013 0.5 87.8939 0.5 92.7868Z" fill="white"/>
</mask>
<g mask="url(#mask0_10423_82858)">
<path d="M106.311 9.85254H0.5V101.303H106.311V9.85254Z" fill="#E8E6F4" stroke="black" stroke-miterlimit="10" stroke-linejoin="round"/>
</g>
<path d="M0.5 92.5663V9.85352H5.99602V96.4997C2.47854 95.315 0.5 93.9795 0.5 92.5663Z" fill="#E8E6F4" stroke="black" stroke-miterlimit="10" stroke-linejoin="round"/>
<path d="M106.656 92.5663V9.85352H101.16V96.4997C104.678 95.315 106.656 93.9795 106.656 92.5663Z" fill="#E8E6F4" stroke="black" stroke-miterlimit="10" stroke-linejoin="round"/>
<path d="M0.5 9.77376C0.5 4.92511 24.2936 1 53.5779 1C82.8623 1 106.656 4.92511 106.656 9.77376C106.656 14.6224 82.8623 18.5475 53.5779 18.5475C24.2936 18.4321 0.5 14.507 0.5 9.77376Z" fill="#E8E6F4" stroke="black" stroke-miterlimit="10" stroke-linejoin="round"/>
<path d="M6.15625 88.8806C14.8771 85.9925 32.7744 84.0137 53.406 84.0137C74.4983 84.0137 92.7329 86.0819 101.226 89.0755" stroke="black" stroke-miterlimit="10" stroke-linejoin="round"/>
<path d="M16.1641 90.0878C16.1641 86.7311 32.9366 84.0137 53.5796 84.0137C74.2227 84.0137 90.9952 86.7311 90.9952 90.0878C90.9952 93.4446 74.2227 96.162 53.5796 96.162C32.9366 96.082 16.1641 93.3647 16.1641 90.0878Z" fill="#E8E6F4" stroke="black" stroke-miterlimit="10" stroke-linejoin="round"/>
</svg>
