<svg width="104" height="137" viewBox="0 0 104 137" fill="none" xmlns="http://www.w3.org/2000/svg">
<path d="M51.5098 15.5C59.0536 15.5 65.1797 21.6261 65.1797 29.1699C65.1797 36.7235 59.0539 42.8398 51.5098 42.8398C43.9562 42.8398 37.8398 36.714 37.8398 29.1699C37.8399 21.6163 43.9657 15.5 51.5098 15.5Z" fill="#D8E9F9" stroke="#1D1D1B"/>
<path d="M51.5098 93.5C59.0538 93.5 65.1797 99.6163 65.1797 107.17C65.1797 114.724 59.0539 120.84 51.5098 120.84C43.9562 120.84 37.8398 114.714 37.8398 107.17C37.8399 99.6163 43.9657 93.5 51.5098 93.5Z" fill="#D8E9F9" stroke="#1D1D1B"/>
<path d="M83.834 43.8516L95.3779 92.5518H7.63184L19.1758 43.8516H83.834Z" fill="#D8E9F9" stroke="#1D1D1B"/>
</svg>
