<svg width="109" height="146" viewBox="0 0 109 146" fill="none" xmlns="http://www.w3.org/2000/svg">
<mask id="mask0_10423_82888" style="mask-type:luminance" maskUnits="userSpaceOnUse" x="1" y="13" width="107" height="133">
<path d="M1.54492 13.4404V132.727C1.54492 139.783 25.2841 145.496 54.5014 145.496C83.7188 145.496 107.458 139.783 107.458 132.727V13.4404H1.54492Z" fill="white"/>
</mask>
<g mask="url(#mask0_10423_82888)">
<path d="M107.458 13.4404H1.54492V145.328H107.458V13.4404Z" fill="#FFEFCA" stroke="black" stroke-miterlimit="10" stroke-linejoin="round"/>
</g>
<path d="M1.54492 13.4404V132.727C1.54492 139.783 25.2841 145.496 54.5014 145.496C83.7188 145.496 107.458 139.783 107.458 132.727V13.4404H1.54492Z" stroke="black" stroke-miterlimit="10" stroke-linejoin="round"/>
<path d="M1.54492 13.4406C1.54492 6.38419 25.2841 0.671875 54.5014 0.671875C83.7188 0.671875 107.458 6.38419 107.458 13.4406C107.458 20.497 83.7188 26.2093 54.5014 26.2093C25.2841 26.0413 1.54492 20.329 1.54492 13.4406Z" fill="#FFEFCA"/>
<path d="M54.5014 26.2093C83.7188 26.2093 107.458 20.497 107.458 13.4406C107.458 6.38419 83.7188 0.671875 54.5014 0.671875C25.2841 0.671875 1.54492 6.38419 1.54492 13.4406C1.54492 20.329 25.2841 26.0413 54.5014 26.2093ZM54.5014 26.2093V145.438" stroke="black" stroke-miterlimit="10" stroke-linejoin="round"/>
</svg>
