<svg width="104" height="137" viewBox="0 0 104 137" fill="none" xmlns="http://www.w3.org/2000/svg">
<path d="M26.3662 18.5C34.43 18.5079 40.9639 25.043 40.9639 33.0977C40.9638 41.1608 34.4293 47.6953 26.3662 47.6953C18.3037 47.6951 11.7774 41.161 11.7773 33.0977C11.7773 25.1682 18.1095 18.7049 25.9902 18.5049L26.3662 18.5Z" fill="#FFEDC9" stroke="#1D1D1B"/>
<path d="M72 89.7031C80.0629 89.7032 86.5977 96.2457 86.5977 104.301C86.5976 112.364 80.0631 118.898 72 118.898C63.9369 118.898 57.4024 112.364 57.4023 104.301C57.4023 96.2456 63.937 89.7031 72 89.7031Z" fill="#FFEDC9" stroke="#1D1D1B"/>
<path d="M99.2881 48.6953V88.7119H5.5V48.6953H99.2881Z" fill="#FFEDC9" stroke="#1D1D1B"/>
</svg>
