<svg width="132" height="83" viewBox="0 0 132 83" fill="none" xmlns="http://www.w3.org/2000/svg">
<g clip-path="url(#clip0_10423_82875)">
<mask id="mask0_10423_82875" style="mask-type:luminance" maskUnits="userSpaceOnUse" x="12" y="0" width="120" height="83">
<path d="M12.5586 82.1982L119.59 82.1982C125.921 82.1982 131.047 63.9543 131.047 41.5002C131.047 19.0461 125.921 0.802113 119.59 0.802113L12.5586 0.802116L12.5586 82.1982Z" fill="white"/>
</mask>
<g mask="url(#mask0_10423_82875)">
<path d="M12.5586 0.802116L12.5586 82.1982L130.896 82.1982L130.896 0.802112L12.5586 0.802116Z" fill="#DBEDD8" stroke="black" stroke-miterlimit="10" stroke-linejoin="round"/>
</g>
<path d="M12.5586 82.1982L119.59 82.1982C125.921 82.1982 131.047 63.9543 131.047 41.5002C131.047 19.0461 125.921 0.802109 119.59 0.80211L12.5586 0.802113L12.5586 82.1982Z" stroke="black" stroke-miterlimit="10" stroke-linejoin="round"/>
<path d="M12.5604 82.1982C6.22895 82.1982 1.10351 63.9543 1.10351 41.5002C1.10351 19.0461 6.22894 0.802116 12.5604 0.802116C18.8918 0.802116 24.0172 19.0461 24.0172 41.5002C23.8665 63.9543 18.741 82.1982 12.5604 82.1982Z" fill="#DBEDD8"/>
<path d="M24.0172 41.5002C24.0172 19.0461 18.8918 0.802115 12.5604 0.802116C6.22894 0.802116 1.10351 19.0461 1.10351 41.5002C1.10351 63.9543 6.22895 82.1982 12.5604 82.1982C18.741 82.1982 23.8665 63.9543 24.0172 41.5002ZM24.0172 41.5002L130.996 41.5002" stroke="black" stroke-miterlimit="10" stroke-linejoin="round"/>
</g>
<defs>
<clipPath id="clip0_10423_82875">
<rect width="83" height="131" fill="white" transform="translate(0.5 83) rotate(-90)"/>
</clipPath>
</defs>
</svg>
