<svg width="109" height="100" viewBox="0 0 109 100" fill="none" xmlns="http://www.w3.org/2000/svg">
<g clip-path="url(#clip0_10423_82900)">
<mask id="mask0_10423_82900" style="mask-type:luminance" maskUnits="userSpaceOnUse" x="1" y="9" width="107" height="91">
<path d="M1.54492 9.20605V90.9092C1.54492 95.7423 25.2841 99.6548 54.5014 99.6548C83.7188 99.6548 107.458 95.7423 107.458 90.9092V9.20605H1.54492Z" fill="white"/>
</mask>
<g mask="url(#mask0_10423_82900)">
<path d="M107.458 9.20605H1.54492V99.5398H107.458V9.20605Z" fill="#FBDFE3" stroke="black" stroke-miterlimit="10" stroke-linejoin="round"/>
</g>
<path d="M1.54492 9.20605V90.9092C1.54492 95.7423 25.2841 99.6548 54.5014 99.6548C83.7188 99.6548 107.458 95.7423 107.458 90.9092V9.20605H1.54492Z" stroke="black" stroke-miterlimit="10" stroke-linejoin="round"/>
<path d="M1.54492 9.20662C1.54492 4.37348 25.2841 0.460938 54.5014 0.460938C83.7188 0.460937 107.458 4.37348 107.458 9.20662C107.458 14.0398 83.7188 17.9523 54.5014 17.9523C25.2841 17.8372 1.54492 13.9247 1.54492 9.20662Z" fill="#FBDFE3"/>
<path d="M54.5014 17.9523C83.7188 17.9523 107.458 14.0398 107.458 9.20662C107.458 4.37348 83.7188 0.460937 54.5014 0.460938C25.2841 0.460938 1.54492 4.37348 1.54492 9.20662C1.54492 13.9247 25.2841 17.8372 54.5014 17.9523ZM54.5014 17.9523V99.6158" stroke="black" stroke-miterlimit="10" stroke-linejoin="round"/>
</g>
<defs>
<clipPath id="clip0_10423_82900">
<rect width="108" height="100" fill="white" transform="translate(0.5)"/>
</clipPath>
</defs>
</svg>
