<svg width="104" height="137" viewBox="0 0 104 137" fill="none" xmlns="http://www.w3.org/2000/svg">
<path d="M51.8262 16.5C64.1618 16.5 74.1708 26.5089 74.1709 38.8535C74.1709 51.1894 64.1706 61.1982 51.8262 61.1982C39.4815 61.1982 29.4727 51.1977 29.4727 38.8535C29.4727 26.5091 39.4817 16.5001 51.8262 16.5Z" fill="#E8E6F4" stroke="#1D1D1B"/>
<path d="M51.8145 93.5469C59.0633 93.5469 64.9502 99.4927 64.9502 106.84C64.95 114.187 59.0632 120.132 51.8145 120.132C44.5659 120.132 38.6799 114.187 38.6797 106.84C38.6797 99.5014 44.566 93.5471 51.8145 93.5469Z" fill="#E8E6F4" stroke="#1D1D1B"/>
<path d="M94.1338 62.1992V92.5977H9.5V62.1992H94.1338Z" fill="#E8E6F4" stroke="#1D1D1B"/>
</svg>
