<svg width="90" height="131" viewBox="0 0 90 131" fill="none" xmlns="http://www.w3.org/2000/svg">
<path d="M89 70V86H0.999998V1" stroke="#00A0E9" stroke-width="2" stroke-linecap="round"/>
<path d="M44.9375 119.031C42.7083 119.031 40.651 118.474 38.7656 117.359C36.8802 116.245 35.3854 114.745 34.2812 112.859C33.1771 110.974 32.625 108.917 32.625 106.688C32.625 104.458 33.1771 102.401 34.2812 100.516C35.3854 98.6302 36.8802 97.1302 38.7656 96.0156C40.651 94.901 42.7083 94.3438 44.9375 94.3438C47.1667 94.3438 49.224 94.901 51.1094 96.0156C53.0052 97.1302 54.5052 98.6302 55.6094 100.516C56.724 102.401 57.2812 104.458 57.2812 106.688C57.2812 108.917 56.724 110.974 55.6094 112.859C54.5052 114.745 53.0052 116.245 51.1094 117.359C49.224 118.474 47.1667 119.031 44.9375 119.031ZM35 106.688C35 108.479 35.4479 110.141 36.3438 111.672C37.2396 113.193 38.4479 114.401 39.9688 115.297C41.4896 116.182 43.1458 116.625 44.9375 116.625C46.7396 116.625 48.401 116.182 49.9219 115.297C51.4427 114.401 52.651 113.193 53.5469 111.672C54.4531 110.151 54.9062 108.49 54.9062 106.688C54.9062 104.885 54.4531 103.224 53.5469 101.703C52.651 100.182 51.4427 98.9792 49.9219 98.0938C48.401 97.1979 46.7396 96.75 44.9375 96.75C43.1458 96.75 41.4896 97.1979 39.9688 98.0938C38.4479 98.9792 37.2396 100.182 36.3438 101.703C35.4479 103.224 35 104.885 35 106.688ZM41 104.438C41 103.74 41.1615 103.125 41.4844 102.594C41.8073 102.062 42.2604 101.656 42.8438 101.375C43.4375 101.083 44.1146 100.938 44.875 100.938C45.625 100.938 46.2917 101.078 46.875 101.359C47.4688 101.63 47.9271 102.01 48.25 102.5C48.5833 102.979 48.75 103.531 48.75 104.156C48.7396 104.594 48.651 105.01 48.4844 105.406C48.3177 105.802 48.026 106.245 47.6094 106.734C47.2031 107.224 46.625 107.812 45.875 108.5L44.125 110.25V110.344H48.9062V112.125H41.0938V110.562L45.0312 106.844C45.6146 106.281 46.026 105.823 46.2656 105.469C46.5156 105.115 46.6458 104.729 46.6562 104.312C46.6458 103.812 46.474 103.417 46.1406 103.125C45.8073 102.833 45.375 102.688 44.8438 102.688C44.3021 102.688 43.8698 102.844 43.5469 103.156C43.2344 103.469 43.0833 103.896 43.0938 104.438H41Z" fill="#00A0E9"/>
</svg>
