<svg width="386" height="296" viewBox="0 0 386 296" fill="none" xmlns="http://www.w3.org/2000/svg">
<path d="M80.784 20H40V132.647H80.784V20Z" fill="#CCE2F5"/>
<path d="M346 235.029H233.784V275.97H346V235.029Z" fill="#CCE2F5"/>
<path d="M80.784 132.617H40V235.029H80.784V132.617Z" fill="#CCE2F5"/>
<path d="M192.97 132.617H80.7539V235.029H192.97V132.617Z" fill="#CCE2F5"/>
<path d="M233.784 132.617H193V235.029H233.784V132.617Z" fill="#CCE2F5"/>
<path d="M346 132.617H233.784V235.029H346V132.617Z" fill="#CCE2F5"/>
<path d="M233.784 132.617H193H80.784V20H40V132.617V151.913V235.029H80.754H80.784H193H233.784V276H346V235.029V132.617H233.784Z" stroke="#231F20" stroke-width="2" stroke-linejoin="round"/>
<path d="M40 132.617H80.784" stroke="#231F20" stroke-width="2" stroke-linejoin="round" stroke-dasharray="4 4"/>
<path d="M80.7842 132.617V235.029" stroke="#231F20" stroke-width="2" stroke-linejoin="round" stroke-dasharray="4 4"/>
<path d="M193 235.029V132.617" stroke="#231F20" stroke-width="2" stroke-linejoin="round" stroke-dasharray="4 4"/>
<path d="M233.784 235.029V132.617" stroke="#231F20" stroke-width="2" stroke-linejoin="round" stroke-dasharray="4 4"/>
<path d="M233.784 235.029H346" stroke="#231F20" stroke-width="2" stroke-linejoin="round" stroke-dasharray="4 4"/>
</svg>
