<svg width="1325" height="502" viewBox="0 0 1325 502" fill="none" xmlns="http://www.w3.org/2000/svg">
<path d="M389.902 316.795C397.292 337.146 412.643 351.206 430.425 351.206C448.207 351.206 463.606 337.146 470.947 316.795" stroke="#00AEEF" stroke-miterlimit="10" stroke-dasharray="4 4"/>
<path d="M367.543 397.562C397.482 397.562 415.502 376.877 424.131 363.15" stroke="#EC008C" stroke-width="2" stroke-miterlimit="10"/>
<path d="M430.425 351.248L428.184 371.599L423.512 363.926L414.55 364.212L430.425 351.248Z" fill="#EC008C"/>
<path d="M957.455 397.869C950.257 413.836 939.959 427.848 927.469 439.001" stroke="#00AEEF" stroke-miterlimit="10" stroke-dasharray="4 4"/>
<path d="M754.75 397.869C761.949 413.836 772.246 427.848 784.737 439.001" stroke="#00AEEF" stroke-miterlimit="10" stroke-dasharray="4 4"/>
<path d="M1041.27 274.939C1004.65 282.708 974.761 297.531 957.455 316.309" stroke="#00AEEF" stroke-miterlimit="10" stroke-dasharray="4 4"/>
<path d="M1241.25 316.272C1224.47 298.066 1195.77 283.529 1160.54 275.617" stroke="#00AEEF" stroke-miterlimit="10" stroke-dasharray="4 4"/>
<path d="M1267 330.657C1260.37 324.557 1251.51 319.6 1241.26 316.264" stroke="#00AEEF" stroke-miterlimit="10" stroke-dasharray="4 4"/>
<path d="M1241.26 397.87C1251.13 394.677 1259.71 389.958 1266.24 384.191" stroke="#00AEEF" stroke-miterlimit="10" stroke-dasharray="4 4"/>
<path d="M518.86 63C498.265 74.963 481.532 92.7883 470.996 114.188" stroke="#00AEEF" stroke-miterlimit="10" stroke-dasharray="4 4"/>
<path d="M754.746 114.187C743.257 95.0749 726.38 78.5365 705.785 65.9062" stroke="#00AEEF" stroke-miterlimit="10" stroke-dasharray="4 4"/>
<path d="M59 239.158C64.6731 273.379 82.36 301.785 106.101 316.846" stroke="#00AEEF" stroke-miterlimit="10" stroke-dasharray="4 4"/>
<path d="M106.1 114.119C82.6927 128.989 65.1488 156.776 59.2373 190.329" stroke="#00AEEF" stroke-miterlimit="10" stroke-dasharray="4 4"/>
<path d="M389.902 114.119H106.102V316.775H389.902V114.119Z" fill="#FFE9C2"/>
<path d="M470.995 114.119H389.902V316.775H470.995V114.119Z" fill="#FFE9C2"/>
<path d="M754.75 316.795H470.949V397.867H754.75V316.795Z" fill="#FFE9C2"/>
<path d="M1241.26 316.795H957.455V397.867H1241.26V316.795Z" fill="#FFE9C2"/>
<path d="M957.458 316.795H754.75V397.867H957.458V316.795Z" fill="#FFE9C2"/>
<path d="M754.75 114.119H470.949V316.775H754.75V114.119Z" fill="#FFE9C2"/>
<path d="M957.455 316.775H754.747V114.119H470.947H389.902H106.102V316.775H389.902H470.947V397.846H754.747H957.455H1241.26V316.775H957.455Z" fill="#FFE9C2"/>
<path d="M957.455 316.775H754.747V114.119H470.947H389.902H106.102V316.775H389.902H470.947V397.846H754.747H957.455H1241.26V316.775H957.455Z" stroke="#231F20" stroke-width="2" stroke-linejoin="round"/>
<path d="M470.949 316.775V114.119" stroke="#231F20" stroke-width="2" stroke-dasharray="4 4"/>
<path d="M389.902 114.119V316.822" stroke="#231F20" stroke-width="2" stroke-dasharray="4 4"/>
<path d="M470.949 316.795H754.75" stroke="#231F20" stroke-width="2" stroke-dasharray="4 4"/>
<path d="M754.75 316.795V397.867" stroke="#231F20" stroke-width="2" stroke-dasharray="4 4"/>
<path d="M957.455 397.867V316.795" stroke="#231F20" stroke-width="2" stroke-dasharray="4 4"/>
<path d="M1067.61 284L1077.14 265.376V265.248H1066.07V261.344H1082.07V265.312L1072.47 284H1067.61ZM1098.27 284.32C1093.02 284.32 1089.92 280.736 1089.88 275.552C1089.92 270.368 1093.08 266.816 1098.2 266.784C1102.62 266.816 1105.56 269.376 1105.76 273.248H1101.4C1101.15 271.584 1100.03 270.432 1098.27 270.432C1096.06 270.432 1094.59 272.288 1094.62 275.488C1094.59 278.784 1096.06 280.672 1098.27 280.672C1099.93 280.672 1101.12 279.648 1101.4 277.856H1105.76C1105.56 281.696 1102.72 284.32 1098.27 284.32ZM1107.65 284V267.04H1112.07V269.984H1112.26C1112.96 268.032 1114.69 266.816 1117 266.784C1119.33 266.816 1121.06 268.032 1121.6 269.984H1121.8C1122.47 268.064 1124.42 266.816 1126.92 266.784C1130.05 266.816 1132.23 268.896 1132.23 272.608V284H1127.62V273.504C1127.62 271.552 1126.47 270.624 1124.93 270.624C1123.2 270.624 1122.18 271.84 1122.18 273.632V284H1117.7V273.376C1117.7 271.712 1116.64 270.624 1115.08 270.624C1113.51 270.624 1112.29 271.904 1112.26 273.824V284H1107.65Z" fill="#222222"/>
<path d="M34.7683 223.32C30.0323 223.32 26.5763 220.536 26.5123 216.664H31.0563C31.1523 218.392 32.7843 219.608 34.7683 219.608C37.1043 219.608 38.7683 217.944 38.7363 215.576C38.7683 213.208 37.0723 211.512 34.7043 211.544C32.9763 211.512 31.7923 212.152 31.1203 213.4H26.8963L28.1123 200.344H42.0003V204.248H31.9523L31.3763 209.944H31.5043C32.3683 208.824 34.0642 208.024 36.0483 208.024C40.2083 208.024 43.3123 211.128 43.2803 215.448C43.3123 220.056 39.8243 223.32 34.7683 223.32ZM59.597 223.32C54.349 223.32 51.245 219.736 51.213 214.552C51.245 209.368 54.413 205.816 59.533 205.784C63.949 205.816 66.893 208.376 67.085 212.248H62.733C62.477 210.584 61.357 209.432 59.597 209.432C57.389 209.432 55.917 211.288 55.949 214.488C55.917 217.784 57.389 219.672 59.597 219.672C61.261 219.672 62.445 218.648 62.733 216.856H67.085C66.893 220.696 64.045 223.32 59.597 223.32ZM68.9795 223V206.04H73.3955V208.984H73.5875C74.2915 207.032 76.0195 205.816 78.3235 205.784C80.6595 205.816 82.3875 207.032 82.9315 208.984H83.1235C83.7955 207.064 85.7475 205.816 88.2435 205.784C91.3795 205.816 93.5555 207.896 93.5555 211.608V223H88.9475V212.504C88.9475 210.552 87.7955 209.624 86.2595 209.624C84.5315 209.624 83.5075 210.84 83.5075 212.632V223H79.0275V212.376C79.0275 210.712 77.9715 209.624 76.4035 209.624C74.8355 209.624 73.6195 210.904 73.5875 212.824V223H68.9795Z" fill="#222222"/>
<path d="M1255.73 372V368.608L1263.79 361.12C1265.94 359.104 1267.06 357.856 1267.06 356.064C1267.06 354.048 1265.55 352.8 1263.47 352.8C1261.36 352.8 1259.95 354.144 1259.95 356.32H1255.47C1255.47 351.904 1258.77 349.056 1263.54 349.088C1268.37 349.056 1271.6 351.808 1271.6 355.744C1271.6 358.336 1270.35 360.448 1265.65 364.64L1262.26 367.968V368.16H1271.92V372H1255.73ZM1288.32 372.32C1283.07 372.32 1279.96 368.736 1279.93 363.552C1279.96 358.368 1283.13 354.816 1288.25 354.784C1292.67 354.816 1295.61 357.376 1295.8 361.248H1291.45C1291.2 359.584 1290.08 358.432 1288.32 358.432C1286.11 358.432 1284.64 360.288 1284.67 363.488C1284.64 366.784 1286.11 368.672 1288.32 368.672C1289.98 368.672 1291.16 367.648 1291.45 365.856H1295.8C1295.61 369.696 1292.76 372.32 1288.32 372.32ZM1297.7 372V355.04H1302.11V357.984H1302.31C1303.01 356.032 1304.74 354.816 1307.04 354.784C1309.38 354.816 1311.11 356.032 1311.65 357.984H1311.84C1312.51 356.064 1314.47 354.816 1316.96 354.784C1320.1 354.816 1322.27 356.896 1322.27 360.608V372H1317.67V361.504C1317.67 359.552 1316.51 358.624 1314.98 358.624C1313.25 358.624 1312.23 359.84 1312.23 361.632V372H1307.75V361.376C1307.75 359.712 1306.69 358.624 1305.12 358.624C1303.55 358.624 1302.34 359.904 1302.31 361.824V372H1297.7Z" fill="#222222"/>
</svg>
