<svg width="62" height="62" viewBox="0 0 62 62" fill="none" xmlns="http://www.w3.org/2000/svg">
<path d="M14.9623 1.37531H47.0377C54.7526 1.37531 61 7.6184 61 15.3279V47.3808C61 55.0903 54.7526 61.3334 47.0377 61.3334H14.9623C7.24739 61.3334 1 55.0903 1 47.3808V15.3279C1 7.6184 7.24737 1.33337 15.0042 1.33337L14.9623 1.37531Z" fill="#FFE893"/>
<path d="M14.9623 1.37531H47.0377C54.7526 1.37531 61 7.6184 61 15.3279V47.3808C61 55.0903 54.7526 61.3334 47.0377 61.3334H14.9623C7.24739 61.3334 1 55.0903 1 47.3808V15.3279C1 7.6184 7.24737 1.33337 15.0042 1.33337L14.9623 1.37531Z" stroke="white"/>
<path d="M40.8813 17.3423V27.9048H45.0688V31.1548H40.8813V45.8423H36.8813V17.3423H40.8813ZM32.9125 19.9673V23.186H23.5375V35.6548C27.6625 35.6079 31.0688 35.4204 34.85 34.7485L35.2875 38.0923C30.8813 38.8423 27.0063 38.9673 21.975 38.936H19.5688V19.9673H32.9125Z" fill="black"/>
</svg>
