<svg width="62" height="62" viewBox="0 0 62 62" fill="none" xmlns="http://www.w3.org/2000/svg">
<path d="M14.9623 1.04194H47.0377C54.7526 1.04194 61 7.28503 61 14.9945V47.0474C61 54.7569 54.7526 61 47.0377 61H14.9623C7.24739 61 1 54.7569 1 47.0474V14.9945C1 7.28503 7.24737 1 15.0042 1L14.9623 1.04194Z" fill="#FFE893"/>
<path d="M14.9623 1.04194H47.0377C54.7526 1.04194 61 7.28503 61 14.9945V47.0474C61 54.7569 54.7526 61 47.0377 61H14.9623C7.24739 61 1 54.7569 1 47.0474V14.9945C1 7.28503 7.24737 1 15.0042 1L14.9623 1.04194Z" stroke="white"/>
<path d="M40.9531 16.4375V27.3438H44.9844V30.625H40.9531V44.8125H36.9531V16.4375H40.9531ZM33.3594 19.3438C33.3281 27.8438 30.0156 35.2188 20.4531 39.9062L18.2031 36.8438C24.9375 33.4688 28.5469 28.9375 29.2969 22.5938H19.8281V19.3438H33.3594Z" fill="black"/>
</svg>
