<svg width="62" height="62" viewBox="0 0 62 62" fill="none" xmlns="http://www.w3.org/2000/svg">
<path d="M14.9623 1.04194H47.0377C54.7526 1.04194 61 7.28503 61 14.9945V47.0474C61 54.7569 54.7526 61 47.0377 61H14.9623C7.24739 61 1 54.7569 1 47.0474V14.9945C1 7.28503 7.24737 1 15.0042 1L14.9623 1.04194Z" fill="#FFE893"/>
<path d="M14.9623 1.04194H47.0377C54.7526 1.04194 61 7.28503 61 14.9945V47.0474C61 54.7569 54.7526 61 47.0377 61H14.9623C7.24739 61 1 54.7569 1 47.0474V14.9945C1 7.28503 7.24737 1 15.0042 1L14.9623 1.04194Z" stroke="white"/>
<path d="M40.8813 17.0089V27.7589H45.0688V31.0402H40.8813V45.5089H36.9438V17.0089H40.8813ZM32.7563 19.3839V30.4152H23.6V35.5714C27.7407 35.5558 31.1625 35.3683 34.9438 34.7277L35.2875 37.9152C30.9438 38.6964 27.0375 38.8839 22.0375 38.8839H19.6313V27.2589H28.7875V22.6027H19.6V19.3839H32.7563Z" fill="black"/>
</svg>
