<svg width="1635" height="469" viewBox="0 0 1635 469" fill="none" xmlns="http://www.w3.org/2000/svg">
<path d="M677.539 5.9375C675.143 5.9375 672.844 6.88801 671.15 8.57994C669.455 10.2719 668.503 12.5666 668.503 14.9593C668.503 17.3521 669.455 19.6468 671.15 21.3388C672.844 23.0307 675.143 23.9812 677.539 23.9812H957.46C959.857 23.9812 962.156 23.0307 963.85 21.3388C965.545 19.6468 966.497 17.3521 966.497 14.9593C966.497 12.5666 965.545 10.2719 963.85 8.57994C962.156 6.88801 959.857 5.9375 957.46 5.9375H677.539Z" stroke="#D7DFF3" stroke-width="1.74787"/>
<path d="M677.539 6.03125C675.143 6.03125 672.844 6.98176 671.15 8.67369C669.455 10.3656 668.503 12.6604 668.503 15.0531C668.503 17.4458 669.455 19.7406 671.15 21.4325C672.844 23.1244 675.143 24.0749 677.539 24.0749H957.46C959.857 24.0749 962.156 23.1244 963.85 21.4325C965.545 19.7406 966.497 17.4458 966.497 15.0531C966.497 12.6604 965.545 10.3656 963.85 8.67369C962.156 6.98176 959.857 6.03125 957.46 6.03125H677.539Z" fill="#D7DFF3"/>
<path d="M687.315 1C683.606 1 680.05 2.47081 677.428 5.08888C674.805 7.70694 673.332 11.2578 673.332 14.9603C673.332 18.6628 674.805 22.2137 677.428 24.8317C680.05 27.4498 683.606 28.9206 687.315 28.9206H947.398C951.106 28.9206 954.663 27.4498 957.285 24.8317C959.907 22.2137 961.381 18.6628 961.381 14.9603C961.381 11.2578 959.907 7.70694 957.285 5.08888C954.663 2.47081 951.106 1 947.398 1H687.315Z" fill="white"/>
<path d="M687.432 1C683.724 1 680.167 2.47081 677.545 5.08888C674.922 7.70694 673.449 11.2578 673.449 14.9603C673.449 18.6628 674.922 22.2137 677.545 24.8317C680.167 27.4498 683.724 28.9206 687.432 28.9206H947.515C951.223 28.9206 954.78 27.4498 957.402 24.8317C960.025 22.2137 961.498 18.6628 961.498 14.9603C961.498 11.2578 960.025 7.70694 957.402 5.08888C954.78 2.47081 951.223 1 947.515 1H687.432Z" stroke="#D7DFF3" stroke-width="1.74787"/>
<text fill="#504D7C" xml:space="preserve" style="white-space: pre" font-family="Pretendard" font-size="16.1025" font-weight="bold" letter-spacing="-0.503203px"><tspan x="708.556" y="21.4492">&#xc88b;&#xc544;&#xd558;&#xb294; &#xcc45;&#xc758; &#xc885;&#xb958;&#xbcc4; &#xd559;&#xc0dd; &#xc218;&#xc758; &#xbe44;&#xc728;</tspan></text>
<g clip-path="url(#clip0_10281_97299)">
<path d="M478.324 61.8125C474.524 61.817 470.88 63.335 468.194 66.033C465.509 68.7311 464 72.3885 464 76.2019V162.437C464 166.25 465.509 169.908 468.194 172.606C470.88 175.304 474.524 176.822 478.324 176.826H573.876V61.8125H478.324Z" fill="#E4E9F7"/>
<path d="M468.786 100.16H569.09" stroke="white" stroke-width="0.503203" stroke-miterlimit="10"/>
<path d="M468.786 138.512H569.09" stroke="white" stroke-width="0.503203" stroke-miterlimit="10"/>
<path d="M576.252 61.625V99.9742H1171V75.9975C1171 74.1065 1170.62 72.2344 1169.9 70.4883C1169.18 68.7423 1168.12 67.1565 1166.78 65.8216C1165.45 64.4868 1163.86 63.4291 1162.12 62.709C1160.38 61.9889 1158.51 61.6206 1156.63 61.625H576.252Z" fill="#EFEEEE"/>
<path d="M675.377 95.172V66.4102" stroke="white" stroke-width="0.503203" stroke-miterlimit="10"/>
<path d="M774.501 95.172V66.4102" stroke="white" stroke-width="0.503203" stroke-miterlimit="10"/>
<path d="M873.626 95.172V66.4102" stroke="white" stroke-width="0.503203" stroke-miterlimit="10"/>
<path d="M972.751 95.172V66.4102" stroke="white" stroke-width="0.503203" stroke-miterlimit="10"/>
<path d="M1071.88 95.172V66.4102" stroke="white" stroke-width="0.503203" stroke-miterlimit="10"/>
<path d="M1071.88 138.309H1171V161.389C1171 165.425 1169.4 169.296 1166.56 172.15C1163.71 175.004 1159.86 176.607 1155.83 176.607H1071.88V138.309ZM972.751 138.309H1071.88V176.607H972.751V138.309ZM873.626 138.309H972.751V176.607H873.626V138.309ZM774.502 138.309H873.626V176.607H774.502V138.309ZM675.377 138.309H774.502V176.607H675.377V138.309ZM576.252 138.309H675.377V176.607H576.252V138.309ZM1071.88 99.9766H1171V138.309H1071.88V99.9766ZM972.751 99.9766H1071.88V138.309H972.751V99.9766ZM873.626 99.9766H972.751V138.309H873.626V99.9766ZM774.502 99.9766H873.626V138.309H774.502V99.9766ZM675.377 99.9766H774.502V138.309H675.377V99.9766ZM576.252 99.9766H675.377V138.309H576.252V99.9766Z" fill="white"/>
<path d="M675.377 137.886V99.9766" stroke="#DADADA" stroke-width="0.251601" stroke-miterlimit="10"/>
<path d="M774.501 137.886V99.9766" stroke="#DADADA" stroke-width="0.251601" stroke-miterlimit="10"/>
<path d="M873.626 137.886V99.9766" stroke="#DADADA" stroke-width="0.251601" stroke-miterlimit="10"/>
<path d="M972.751 137.886V99.9766" stroke="#DADADA" stroke-width="0.251601" stroke-miterlimit="10"/>
<path d="M1071.88 137.886V99.9766" stroke="#DADADA" stroke-width="0.251601" stroke-miterlimit="10"/>
<path d="M576.252 138.305H675.377" stroke="#DADADA" stroke-width="0.251601" stroke-miterlimit="10"/>
<path d="M675.377 138.305H774.502" stroke="#DADADA" stroke-width="0.251601" stroke-miterlimit="10"/>
<path d="M675.377 176.657V138.73" stroke="#DADADA" stroke-width="0.251601" stroke-miterlimit="10"/>
<path d="M774.501 138.305H873.626" stroke="#DADADA" stroke-width="0.251601" stroke-miterlimit="10"/>
<path d="M774.501 176.657V138.73" stroke="#DADADA" stroke-width="0.251601" stroke-miterlimit="10"/>
<path d="M873.626 138.305H972.751" stroke="#DADADA" stroke-width="0.251601" stroke-miterlimit="10"/>
<path d="M873.626 176.657V138.73" stroke="#DADADA" stroke-width="0.251601" stroke-miterlimit="10"/>
<path d="M972.751 138.305H1071.88" stroke="#DADADA" stroke-width="0.251601" stroke-miterlimit="10"/>
<path d="M972.751 176.657V138.73" stroke="#DADADA" stroke-width="0.251601" stroke-miterlimit="10"/>
<path d="M1071.88 138.305H1171" stroke="#DADADA" stroke-width="0.251601" stroke-miterlimit="10"/>
<path d="M1071.88 176.657V138.73" stroke="#DADADA" stroke-width="0.251601" stroke-miterlimit="10"/>
<path d="M576.252 176.233H1156.24C1160.04 176.233 1163.68 174.72 1166.37 172.025C1169.06 169.33 1170.57 165.674 1170.58 161.861V99.4844" stroke="#DADADA" stroke-width="0.251601"/>
<text fill="black" xml:space="preserve" style="white-space: pre" font-family="Pretendard" font-size="16.1025" letter-spacing="-0.503203px"><tspan x="484.799" y="125.219">&#xd559;&#xc0dd; &#xc218;(&#xba85;)</tspan></text>
<text fill="black" xml:space="preserve" style="white-space: pre" font-family="Pretendard" font-size="16.1025" letter-spacing="-0.503203px"><tspan x="505.094" y="86.4727">&#xc885;&#xb958;</tspan></text>
<text fill="black" xml:space="preserve" style="white-space: pre" font-family="Pretendard" font-size="16.1025" letter-spacing="-0.503203px"><tspan x="605.528" y="86.4727">&#xb3d9;&#xd654;&#xcc45;</tspan></text>
<text fill="black" xml:space="preserve" style="white-space: pre" font-family="Pretendard" font-size="16.1025" letter-spacing="-0.503203px"><tspan x="616.488" y="124.715">60</tspan></text>
<text fill="black" xml:space="preserve" style="white-space: pre" font-family="Pretendard" font-size="16.1025" letter-spacing="-0.503203px"><tspan x="715.753" y="124.715">50</tspan></text>
<text fill="black" xml:space="preserve" style="white-space: pre" font-family="Pretendard" font-size="16.1025" letter-spacing="-0.503203px"><tspan x="716.327" y="163.219">25</tspan></text>
<text fill="black" xml:space="preserve" style="white-space: pre" font-family="Pretendard" font-size="16.1025" letter-spacing="-0.503203px"><tspan x="916.215" y="163.219">18</tspan></text>
<text fill="black" xml:space="preserve" style="white-space: pre" font-family="Pretendard" font-size="16.1025" letter-spacing="-0.503203px"><tspan x="916.724" y="124.977">36</tspan></text>
<text fill="black" xml:space="preserve" style="white-space: pre" font-family="Pretendard" font-size="16.1025" letter-spacing="-0.503203px"><tspan x="813.225" y="124.715">42</tspan></text>
<text fill="black" xml:space="preserve" style="white-space: pre" font-family="Pretendard" font-size="16.1025" letter-spacing="-0.503203px"><tspan x="815.228" y="163.219">21</tspan></text>
<text fill="black" xml:space="preserve" style="white-space: pre" font-family="Pretendard" font-size="16.1025" letter-spacing="-0.503203px"><tspan x="1016.58" y="163.219">6</tspan></text>
<text fill="black" xml:space="preserve" style="white-space: pre" font-family="Pretendard" font-size="16.1025" letter-spacing="-0.503203px"><tspan x="1108.48" y="163.219">100</tspan></text>
<text fill="black" xml:space="preserve" style="white-space: pre" font-family="Pretendard" font-size="16.1025" letter-spacing="-0.503203px"><tspan x="1013.49" y="124.715">12</tspan></text>
<text fill="black" xml:space="preserve" style="white-space: pre" font-family="Pretendard" font-size="16.1025" letter-spacing="-0.503203px"><tspan x="1106.78" y="124.715">200</tspan></text>
<text fill="black" xml:space="preserve" style="white-space: pre" font-family="Pretendard" font-size="16.1025" letter-spacing="-0.503203px"><tspan x="616.957" y="163.461">30</tspan></text>
<text fill="black" xml:space="preserve" style="white-space: pre" font-family="Pretendard" font-size="16.1025" letter-spacing="-0.503203px"><tspan x="705.162" y="86.4727">&#xc5ed;&#xc0ac;&#xcc45;</tspan></text>
<text fill="black" xml:space="preserve" style="white-space: pre" font-family="Pretendard" font-size="16.1025" letter-spacing="-0.503203px"><tspan x="802.28" y="86.4727">&#xc704;&#xc778;&#xc804;</tspan></text>
<text fill="black" xml:space="preserve" style="white-space: pre" font-family="Pretendard" font-size="16.1025" letter-spacing="-0.503203px"><tspan x="902.921" y="86.4727">&#xacfc;&#xd559;&#xcc45;</tspan></text>
<text fill="black" xml:space="preserve" style="white-space: pre" font-family="Pretendard" font-size="16.1025" letter-spacing="-0.503203px"><tspan x="1008.8" y="86.4727">&#xae30;&#xd0c0;</tspan></text>
<text fill="black" xml:space="preserve" style="white-space: pre" font-family="Pretendard" font-size="16.1025" letter-spacing="-0.503203px"><tspan x="1107.93" y="86.4727">&#xd569;&#xacc4;</tspan></text>
<text fill="black" xml:space="preserve" style="white-space: pre" font-family="Pretendard" font-size="16.1025" letter-spacing="-0.503203px"><tspan x="487.096" y="163.461">&#xbc31;&#xbd84;&#xc728;(%)</tspan></text>
</g>
<path d="M1425.36 217.445V235.696H192.52V217.445" stroke="#1D1D1B" stroke-width="1.48498" stroke-linejoin="bevel"/>
<path d="M315.804 235.696V217.445" stroke="#1D1D1B" stroke-width="1.48498" stroke-linejoin="bevel"/>
<path d="M439.089 235.696V217.445" stroke="#1D1D1B" stroke-width="1.48498" stroke-linejoin="bevel"/>
<path d="M562.373 235.696V217.445" stroke="#1D1D1B" stroke-width="1.48498" stroke-linejoin="bevel"/>
<path d="M685.657 235.696V217.445" stroke="#1D1D1B" stroke-width="1.48498" stroke-linejoin="bevel"/>
<path d="M808.942 235.696V217.445" stroke="#1D1D1B" stroke-width="1.48498" stroke-linejoin="bevel"/>
<path d="M932.226 235.696V217.445" stroke="#1D1D1B" stroke-width="1.48498" stroke-linejoin="bevel"/>
<path d="M1055.51 235.696V217.445" stroke="#1D1D1B" stroke-width="1.48498" stroke-linejoin="bevel"/>
<path d="M1178.79 235.696V217.445" stroke="#1D1D1B" stroke-width="1.48498" stroke-linejoin="bevel"/>
<path d="M1302.08 235.696V217.445" stroke="#1D1D1B" stroke-width="1.48498" stroke-linejoin="bevel"/>
<path d="M254.179 235.697V222.672" stroke="#1D1D1B" stroke-width="1.48498" stroke-linejoin="bevel"/>
<path d="M241.834 235.694V227.875" stroke="#1D1D1B" stroke-width="1.48498" stroke-linejoin="bevel"/>
<path d="M229.521 235.694V227.875" stroke="#1D1D1B" stroke-width="1.48498" stroke-linejoin="bevel"/>
<path d="M217.177 235.694V227.875" stroke="#1D1D1B" stroke-width="1.48498" stroke-linejoin="bevel"/>
<path d="M204.865 235.694V227.875" stroke="#1D1D1B" stroke-width="1.48498" stroke-linejoin="bevel"/>
<path d="M303.493 235.694V227.875" stroke="#1D1D1B" stroke-width="1.48498" stroke-linejoin="bevel"/>
<path d="M291.148 235.694V227.875" stroke="#1D1D1B" stroke-width="1.48498" stroke-linejoin="bevel"/>
<path d="M278.836 235.694V227.875" stroke="#1D1D1B" stroke-width="1.48498" stroke-linejoin="bevel"/>
<path d="M266.491 235.694V227.875" stroke="#1D1D1B" stroke-width="1.48498" stroke-linejoin="bevel"/>
<path d="M365.118 235.694V227.875" stroke="#1D1D1B" stroke-width="1.48498" stroke-linejoin="bevel"/>
<path d="M352.807 235.694V227.875" stroke="#1D1D1B" stroke-width="1.48498" stroke-linejoin="bevel"/>
<path d="M340.461 235.694V227.875" stroke="#1D1D1B" stroke-width="1.48498" stroke-linejoin="bevel"/>
<path d="M328.149 235.694V227.875" stroke="#1D1D1B" stroke-width="1.48498" stroke-linejoin="bevel"/>
<path d="M426.777 235.694V227.875" stroke="#1D1D1B" stroke-width="1.48498" stroke-linejoin="bevel"/>
<path d="M414.432 235.694V227.875" stroke="#1D1D1B" stroke-width="1.48498" stroke-linejoin="bevel"/>
<path d="M402.12 235.694V227.875" stroke="#1D1D1B" stroke-width="1.48498" stroke-linejoin="bevel"/>
<path d="M389.775 235.694V227.875" stroke="#1D1D1B" stroke-width="1.48498" stroke-linejoin="bevel"/>
<path d="M488.403 235.694V227.875" stroke="#1D1D1B" stroke-width="1.48498" stroke-linejoin="bevel"/>
<path d="M476.091 235.694V227.875" stroke="#1D1D1B" stroke-width="1.48498" stroke-linejoin="bevel"/>
<path d="M463.746 235.694V227.875" stroke="#1D1D1B" stroke-width="1.48498" stroke-linejoin="bevel"/>
<path d="M451.434 235.694V227.875" stroke="#1D1D1B" stroke-width="1.48498" stroke-linejoin="bevel"/>
<path d="M550.061 235.694V227.875" stroke="#1D1D1B" stroke-width="1.48498" stroke-linejoin="bevel"/>
<path d="M537.716 235.694V227.875" stroke="#1D1D1B" stroke-width="1.48498" stroke-linejoin="bevel"/>
<path d="M525.405 235.694V227.875" stroke="#1D1D1B" stroke-width="1.48498" stroke-linejoin="bevel"/>
<path d="M513.06 235.694V227.875" stroke="#1D1D1B" stroke-width="1.48498" stroke-linejoin="bevel"/>
<path d="M611.687 235.694V227.875" stroke="#1D1D1B" stroke-width="1.48498" stroke-linejoin="bevel"/>
<path d="M599.375 235.694V227.875" stroke="#1D1D1B" stroke-width="1.48498" stroke-linejoin="bevel"/>
<path d="M587.03 235.694V227.875" stroke="#1D1D1B" stroke-width="1.48498" stroke-linejoin="bevel"/>
<path d="M574.719 235.694V227.875" stroke="#1D1D1B" stroke-width="1.48498" stroke-linejoin="bevel"/>
<path d="M673.346 235.694V227.875" stroke="#1D1D1B" stroke-width="1.48498" stroke-linejoin="bevel"/>
<path d="M661.001 235.694V227.875" stroke="#1D1D1B" stroke-width="1.48498" stroke-linejoin="bevel"/>
<path d="M648.689 235.694V227.875" stroke="#1D1D1B" stroke-width="1.48498" stroke-linejoin="bevel"/>
<path d="M636.344 235.694V227.875" stroke="#1D1D1B" stroke-width="1.48498" stroke-linejoin="bevel"/>
<path d="M734.972 235.694V227.875" stroke="#1D1D1B" stroke-width="1.48498" stroke-linejoin="bevel"/>
<path d="M722.66 235.694V227.875" stroke="#1D1D1B" stroke-width="1.48498" stroke-linejoin="bevel"/>
<path d="M710.315 235.694V227.875" stroke="#1D1D1B" stroke-width="1.48498" stroke-linejoin="bevel"/>
<path d="M698.003 235.694V227.875" stroke="#1D1D1B" stroke-width="1.48498" stroke-linejoin="bevel"/>
<path d="M796.631 235.694V227.875" stroke="#1D1D1B" stroke-width="1.48498" stroke-linejoin="bevel"/>
<path d="M784.285 235.694V227.875" stroke="#1D1D1B" stroke-width="1.48498" stroke-linejoin="bevel"/>
<path d="M771.973 235.694V227.875" stroke="#1D1D1B" stroke-width="1.48498" stroke-linejoin="bevel"/>
<path d="M759.628 235.694V227.875" stroke="#1D1D1B" stroke-width="1.48498" stroke-linejoin="bevel"/>
<path d="M858.256 235.694V227.875" stroke="#1D1D1B" stroke-width="1.48498" stroke-linejoin="bevel"/>
<path d="M845.944 235.694V227.875" stroke="#1D1D1B" stroke-width="1.48498" stroke-linejoin="bevel"/>
<path d="M833.599 235.694V227.875" stroke="#1D1D1B" stroke-width="1.48498" stroke-linejoin="bevel"/>
<path d="M821.288 235.694V227.875" stroke="#1D1D1B" stroke-width="1.48498" stroke-linejoin="bevel"/>
<path d="M919.915 235.694V227.875" stroke="#1D1D1B" stroke-width="1.48498" stroke-linejoin="bevel"/>
<path d="M907.569 235.694V227.875" stroke="#1D1D1B" stroke-width="1.48498" stroke-linejoin="bevel"/>
<path d="M895.258 235.694V227.875" stroke="#1D1D1B" stroke-width="1.48498" stroke-linejoin="bevel"/>
<path d="M882.913 235.694V227.875" stroke="#1D1D1B" stroke-width="1.48498" stroke-linejoin="bevel"/>
<path d="M981.54 235.694V227.875" stroke="#1D1D1B" stroke-width="1.48498" stroke-linejoin="bevel"/>
<path d="M969.229 235.694V227.875" stroke="#1D1D1B" stroke-width="1.48498" stroke-linejoin="bevel"/>
<path d="M956.884 235.694V227.875" stroke="#1D1D1B" stroke-width="1.48498" stroke-linejoin="bevel"/>
<path d="M944.571 235.694V227.875" stroke="#1D1D1B" stroke-width="1.48498" stroke-linejoin="bevel"/>
<path d="M1043.2 235.694V227.875" stroke="#1D1D1B" stroke-width="1.48498" stroke-linejoin="bevel"/>
<path d="M1030.85 235.694V227.875" stroke="#1D1D1B" stroke-width="1.48498" stroke-linejoin="bevel"/>
<path d="M1018.54 235.694V227.875" stroke="#1D1D1B" stroke-width="1.48498" stroke-linejoin="bevel"/>
<path d="M1006.2 235.694V227.875" stroke="#1D1D1B" stroke-width="1.48498" stroke-linejoin="bevel"/>
<path d="M1104.82 235.694V227.875" stroke="#1D1D1B" stroke-width="1.48498" stroke-linejoin="bevel"/>
<path d="M1092.51 235.694V227.875" stroke="#1D1D1B" stroke-width="1.48498" stroke-linejoin="bevel"/>
<path d="M1080.17 235.694V227.875" stroke="#1D1D1B" stroke-width="1.48498" stroke-linejoin="bevel"/>
<path d="M1067.86 235.694V227.875" stroke="#1D1D1B" stroke-width="1.48498" stroke-linejoin="bevel"/>
<path d="M1166.48 235.694V227.875" stroke="#1D1D1B" stroke-width="1.48498" stroke-linejoin="bevel"/>
<path d="M1154.14 235.694V227.875" stroke="#1D1D1B" stroke-width="1.48498" stroke-linejoin="bevel"/>
<path d="M1141.83 235.694V227.875" stroke="#1D1D1B" stroke-width="1.48498" stroke-linejoin="bevel"/>
<path d="M1129.48 235.694V227.875" stroke="#1D1D1B" stroke-width="1.48498" stroke-linejoin="bevel"/>
<path d="M1228.11 235.694V227.875" stroke="#1D1D1B" stroke-width="1.48498" stroke-linejoin="bevel"/>
<path d="M1215.8 235.694V227.875" stroke="#1D1D1B" stroke-width="1.48498" stroke-linejoin="bevel"/>
<path d="M1203.45 235.694V227.875" stroke="#1D1D1B" stroke-width="1.48498" stroke-linejoin="bevel"/>
<path d="M1191.14 235.694V227.875" stroke="#1D1D1B" stroke-width="1.48498" stroke-linejoin="bevel"/>
<path d="M1289.77 235.694V227.875" stroke="#1D1D1B" stroke-width="1.48498" stroke-linejoin="bevel"/>
<path d="M1277.42 235.694V227.875" stroke="#1D1D1B" stroke-width="1.48498" stroke-linejoin="bevel"/>
<path d="M1265.11 235.694V227.875" stroke="#1D1D1B" stroke-width="1.48498" stroke-linejoin="bevel"/>
<path d="M1252.77 235.694V227.875" stroke="#1D1D1B" stroke-width="1.48498" stroke-linejoin="bevel"/>
<path d="M1351.39 235.694V227.875" stroke="#1D1D1B" stroke-width="1.48498" stroke-linejoin="bevel"/>
<path d="M1339.08 235.694V227.875" stroke="#1D1D1B" stroke-width="1.48498" stroke-linejoin="bevel"/>
<path d="M1326.74 235.694V227.875" stroke="#1D1D1B" stroke-width="1.48498" stroke-linejoin="bevel"/>
<path d="M1314.42 235.694V227.875" stroke="#1D1D1B" stroke-width="1.48498" stroke-linejoin="bevel"/>
<path d="M1413.05 235.694V227.875" stroke="#1D1D1B" stroke-width="1.48498" stroke-linejoin="bevel"/>
<path d="M1400.71 235.694V227.875" stroke="#1D1D1B" stroke-width="1.48498" stroke-linejoin="bevel"/>
<path d="M1388.4 235.694V227.875" stroke="#1D1D1B" stroke-width="1.48498" stroke-linejoin="bevel"/>
<path d="M1376.05 235.694V227.875" stroke="#1D1D1B" stroke-width="1.48498" stroke-linejoin="bevel"/>
<path d="M377.463 235.697V222.672" stroke="#1D1D1B" stroke-width="1.48498" stroke-linejoin="bevel"/>
<path d="M500.748 235.697V222.672" stroke="#1D1D1B" stroke-width="1.48498" stroke-linejoin="bevel"/>
<path d="M624.032 235.697V222.672" stroke="#1D1D1B" stroke-width="1.48498" stroke-linejoin="bevel"/>
<path d="M747.316 235.697V222.672" stroke="#1D1D1B" stroke-width="1.48498" stroke-linejoin="bevel"/>
<path d="M870.601 235.697V222.672" stroke="#1D1D1B" stroke-width="1.48498" stroke-linejoin="bevel"/>
<path d="M993.885 235.697V222.672" stroke="#1D1D1B" stroke-width="1.48498" stroke-linejoin="bevel"/>
<path d="M1117.17 235.697V222.672" stroke="#1D1D1B" stroke-width="1.48498" stroke-linejoin="bevel"/>
<path d="M1240.45 235.697V222.672" stroke="#1D1D1B" stroke-width="1.48498" stroke-linejoin="bevel"/>
<path d="M1363.74 235.697V222.672" stroke="#1D1D1B" stroke-width="1.48498" stroke-linejoin="bevel"/>
<path d="M1425.13 236.703H192.755V312.26H1425.13V236.703Z" stroke="#706F6F" stroke-width="1.48498"/>
<path d="M466.29 236.699L465.919 312.997" stroke="#706F6F" stroke-width="0.74249"/>
<path d="M883.892 235.965L883.356 312.263" stroke="#706F6F" stroke-width="0.74249"/>
<path d="M1130.15 236.699L1129.62 312.997" stroke="#706F6F" stroke-width="0.74249"/>
<path d="M1327.16 235.965L1326.63 312.263" stroke="#706F6F" stroke-width="0.74249"/>
<text fill="#1D1D1B" xml:space="preserve" style="white-space: pre" font-family="Pretendard" font-size="20.8185" font-weight="bold" letter-spacing="-0.650579px"><tspan x="186" y="216.014">0</tspan></text>
<text fill="#1D1D1B" xml:space="preserve" style="white-space: pre" font-family="Pretendard" font-size="20.8185" font-weight="bold" letter-spacing="-0.650579px"><tspan x="304.555" y="216.014">10</tspan></text>
<text fill="#1D1D1B" xml:space="preserve" style="white-space: pre" font-family="Pretendard" font-size="20.8185" font-weight="bold" letter-spacing="-0.650579px"><tspan x="425.905" y="216.014">20</tspan></text>
<text fill="#1D1D1B" xml:space="preserve" style="white-space: pre" font-family="Pretendard" font-size="20.8185" font-weight="bold" letter-spacing="-0.650579px"><tspan x="547.906" y="216.014">30</tspan></text>
<text fill="#1D1D1B" xml:space="preserve" style="white-space: pre" font-family="Pretendard" font-size="20.8185" font-weight="bold" letter-spacing="-0.650579px"><tspan x="671.588" y="216.014">40</tspan></text>
<text fill="#1D1D1B" xml:space="preserve" style="white-space: pre" font-family="Pretendard" font-size="20.8185" font-weight="bold" letter-spacing="-0.650579px"><tspan x="795.91" y="216.014">50</tspan></text>
<text fill="#1D1D1B" xml:space="preserve" style="white-space: pre" font-family="Pretendard" font-size="20.8185" font-weight="bold" letter-spacing="-0.650579px"><tspan x="919.635" y="216.014">60</tspan></text>
<text fill="#1D1D1B" xml:space="preserve" style="white-space: pre" font-family="Pretendard" font-size="20.8185" font-weight="bold" letter-spacing="-0.650579px"><tspan x="1044.7" y="216.014">70</tspan></text>
<text fill="#1D1D1B" xml:space="preserve" style="white-space: pre" font-family="Pretendard" font-size="20.8185" font-weight="bold" letter-spacing="-0.650579px"><tspan x="1165.45" y="216.014">80</tspan></text>
<text fill="#1D1D1B" xml:space="preserve" style="white-space: pre" font-family="Pretendard" font-size="20.8185" font-weight="bold" letter-spacing="-0.650579px"><tspan x="1290.07" y="216.014">90</tspan></text>
<text fill="#1D1D1B" xml:space="preserve" style="white-space: pre" font-family="Pretendard" font-size="20.8185" font-weight="bold" letter-spacing="-0.650579px"><tspan x="1378.44" y="216.014">100(%)</tspan></text>
<path d="M246 298V330M630 293V325M946 298V330M1300 298V330M1369.5 189V261.5" stroke="#3B71FE" stroke-width="2"/>
<defs>
<clipPath id="clip0_10281_97299">
<rect width="707" height="115.233" fill="white" transform="translate(464 61.6289)"/>
</clipPath>
</defs>
</svg>
