<svg width="1635" height="468" viewBox="0 0 1635 468" fill="none" xmlns="http://www.w3.org/2000/svg">
<path d="M1142.59 310.889V297.086" stroke="#231815" stroke-width="0.350344" stroke-linejoin="bevel"/>
<text fill="#231815" xml:space="preserve" style="white-space: pre" font-family="Pretendard Variable" font-size="21.0206" letter-spacing="0em"><tspan x="1271" y="192.972">25</tspan></text>
<text fill="#231815" xml:space="preserve" style="white-space: pre" font-family="Pretendard Variable" font-size="21.0206" letter-spacing="0em"><tspan x="1130" y="334.972">50</tspan></text>
<text fill="#231815" xml:space="preserve" style="white-space: pre" font-family="Pretendard Variable" font-size="21.0206" letter-spacing="0em"><tspan x="1136" y="57.9722">0</tspan></text>
<text fill="#231815" xml:space="preserve" style="white-space: pre" font-family="Pretendard Variable" font-size="21.0206" letter-spacing="0em"><tspan x="991" y="192.972">75</tspan></text>
<path d="M1142.59 62.6016V124.674V186.746M1142.59 186.746L1100 78.5M1142.59 186.746L1025.5 180M1142.59 186.746L1107.5 295M1142.59 186.746L1248.5 221.5" stroke="#727171" stroke-width="3.50344" stroke-linejoin="bevel"/>
<path d="M1142.59 76.4051V62.6016" stroke="#231815" stroke-width="3.50344" stroke-linejoin="bevel"/>
<path d="M1180.95 304.816L1176.68 291.695" stroke="#231815" stroke-width="3.50344" stroke-linejoin="bevel"/>
<path d="M1108.48 81.8001L1104.23 68.6797" stroke="#231815" stroke-width="3.50344" stroke-linejoin="bevel"/>
<path d="M1215.55 287.174L1207.44 276.016" stroke="#231815" stroke-width="3.50344" stroke-linejoin="bevel"/>
<path d="M1077.72 97.4788L1069.61 86.3203" stroke="#231815" stroke-width="3.50344" stroke-linejoin="bevel"/>
<path d="M1243.01 259.702L1231.86 251.609" stroke="#231815" stroke-width="3.50344" stroke-linejoin="bevel"/>
<path d="M1053.32 121.88L1042.16 113.77" stroke="#231815" stroke-width="3.50344" stroke-linejoin="bevel"/>
<path d="M1260.64 225.108L1247.53 220.852" stroke="#231815" stroke-width="3.50344" stroke-linejoin="bevel"/>
<path d="M1037.64 152.639L1024.52 148.383" stroke="#231815" stroke-width="3.50344" stroke-linejoin="bevel"/>
<path d="M1266.72 186.746H1252.93" stroke="#231815" stroke-width="3.50344" stroke-linejoin="bevel"/>
<path d="M1032.25 186.746H1018.44" stroke="#231815" stroke-width="3.50344" stroke-linejoin="bevel"/>
<path d="M1260.64 148.383L1247.53 152.657" stroke="#231815" stroke-width="3.50344" stroke-linejoin="bevel"/>
<path d="M1037.64 220.836L1024.52 225.11" stroke="#231815" stroke-width="3.50344" stroke-linejoin="bevel"/>
<path d="M1243.01 113.789L1231.86 121.9" stroke="#231815" stroke-width="3.50344" stroke-linejoin="bevel"/>
<path d="M1053.3 251.609L1042.16 259.72" stroke="#231815" stroke-width="3.50344" stroke-linejoin="bevel"/>
<path d="M1215.55 86.3203L1207.44 97.4788" stroke="#231815" stroke-width="3.50344" stroke-linejoin="bevel"/>
<path d="M1077.72 276.016L1069.61 287.174" stroke="#231815" stroke-width="3.50344" stroke-linejoin="bevel"/>
<path d="M1180.95 68.6797L1176.68 81.8001" stroke="#231815" stroke-width="3.50344" stroke-linejoin="bevel"/>
<path d="M1108.48 291.695L1104.23 304.816" stroke="#231815" stroke-width="3.50344" stroke-linejoin="bevel"/>
<path d="M1150.38 310.643L1149.86 302.375" stroke="#231815" stroke-width="3.50344" stroke-linejoin="bevel"/>
<path d="M1135.32 71.1158L1134.79 62.8477" stroke="#231815" stroke-width="3.50344" stroke-linejoin="bevel"/>
<path d="M1158.14 309.911L1157.11 301.695" stroke="#231815" stroke-width="3.50344" stroke-linejoin="bevel"/>
<path d="M1128.07 71.7976L1127.03 63.582" stroke="#231815" stroke-width="3.50344" stroke-linejoin="bevel"/>
<path d="M1165.85 308.683L1164.29 300.555" stroke="#231815" stroke-width="3.50344" stroke-linejoin="bevel"/>
<path d="M1120.89 72.9327L1119.33 64.8047" stroke="#231815" stroke-width="3.50344" stroke-linejoin="bevel"/>
<path d="M1173.45 306.984L1171.4 298.961" stroke="#231815" stroke-width="3.50344" stroke-linejoin="bevel"/>
<path d="M1113.77 74.5132L1111.72 66.5078" stroke="#231815" stroke-width="3.50344" stroke-linejoin="bevel"/>
<path d="M1188.29 302.167L1185.24 294.477" stroke="#231815" stroke-width="3.50344" stroke-linejoin="bevel"/>
<path d="M1099.93 79.0143L1096.9 71.3242" stroke="#231815" stroke-width="3.50344" stroke-linejoin="bevel"/>
<path d="M1195.44 299.066L1191.92 291.586" stroke="#231815" stroke-width="3.50344" stroke-linejoin="bevel"/>
<path d="M1093.26 81.9056L1089.74 74.4258" stroke="#231815" stroke-width="3.50344" stroke-linejoin="bevel"/>
<path d="M1202.39 295.526L1198.4 288.273" stroke="#231815" stroke-width="3.50344" stroke-linejoin="bevel"/>
<path d="M1086.78 85.2209L1082.79 77.9688" stroke="#231815" stroke-width="3.50344" stroke-linejoin="bevel"/>
<path d="M1209.1 291.55L1204.67 284.578" stroke="#231815" stroke-width="3.50344" stroke-linejoin="bevel"/>
<path d="M1080.51 88.9112L1076.08 81.9219" stroke="#231815" stroke-width="3.50344" stroke-linejoin="bevel"/>
<path d="M1221.71 282.392L1216.44 276.016" stroke="#231815" stroke-width="3.50344" stroke-linejoin="bevel"/>
<path d="M1068.74 97.4622L1063.46 91.0859" stroke="#231815" stroke-width="3.50344" stroke-linejoin="bevel"/>
<path d="M1227.56 277.237L1221.91 271.211" stroke="#231815" stroke-width="3.50344" stroke-linejoin="bevel"/>
<path d="M1063.29 102.276L1057.63 96.25" stroke="#231815" stroke-width="3.50344" stroke-linejoin="bevel"/>
<path d="M1233.08 271.721L1227.06 266.062" stroke="#231815" stroke-width="3.50344" stroke-linejoin="bevel"/>
<path d="M1058.14 107.431L1052.11 101.773" stroke="#231815" stroke-width="3.50344" stroke-linejoin="bevel"/>
<path d="M1238.25 265.874L1231.88 260.602" stroke="#231815" stroke-width="3.50344" stroke-linejoin="bevel"/>
<path d="M1053.32 112.894L1046.95 107.621" stroke="#231815" stroke-width="3.50344" stroke-linejoin="bevel"/>
<path d="M1247.41 253.26L1240.42 248.828" stroke="#231815" stroke-width="3.50344" stroke-linejoin="bevel"/>
<path d="M1044.77 124.668L1037.78 120.219" stroke="#231815" stroke-width="3.50344" stroke-linejoin="bevel"/>
<path d="M1251.37 246.549L1244.12 242.555" stroke="#231815" stroke-width="3.50344" stroke-linejoin="bevel"/>
<path d="M1041.06 130.918L1033.82 126.941" stroke="#231815" stroke-width="3.50344" stroke-linejoin="bevel"/>
<path d="M1254.91 239.599L1247.43 236.078" stroke="#231815" stroke-width="3.50344" stroke-linejoin="bevel"/>
<path d="M1037.77 137.404L1030.29 133.883" stroke="#231815" stroke-width="3.50344" stroke-linejoin="bevel"/>
<path d="M1258.01 232.446L1250.32 229.398" stroke="#231815" stroke-width="3.50344" stroke-linejoin="bevel"/>
<path d="M1034.88 144.095L1027.19 141.047" stroke="#231815" stroke-width="3.50344" stroke-linejoin="bevel"/>
<path d="M1262.83 217.612L1254.8 215.562" stroke="#231815" stroke-width="3.50344" stroke-linejoin="bevel"/>
<path d="M1030.37 157.93L1022.37 155.863" stroke="#231815" stroke-width="3.50344" stroke-linejoin="bevel"/>
<path d="M1264.54 209.991L1256.4 208.449" stroke="#231815" stroke-width="3.50344" stroke-linejoin="bevel"/>
<path d="M1028.78 165.024L1020.67 163.465" stroke="#231815" stroke-width="3.50344" stroke-linejoin="bevel"/>
<path d="M1265.75 202.299L1257.54 201.266" stroke="#231815" stroke-width="3.50344" stroke-linejoin="bevel"/>
<path d="M1027.64 172.223L1019.44 171.172" stroke="#231815" stroke-width="3.50344" stroke-linejoin="bevel"/>
<path d="M1266.49 194.541L1258.22 194.016" stroke="#231815" stroke-width="3.50344" stroke-linejoin="bevel"/>
<path d="M1026.96 179.459L1018.71 178.934" stroke="#231815" stroke-width="3.50344" stroke-linejoin="bevel"/>
<path d="M1266.49 178.949L1258.22 179.457" stroke="#231815" stroke-width="3.50344" stroke-linejoin="bevel"/>
<path d="M1026.96 194.016L1018.71 194.524" stroke="#231815" stroke-width="3.50344" stroke-linejoin="bevel"/>
<path d="M1265.75 171.172L1257.54 172.223" stroke="#231815" stroke-width="3.50344" stroke-linejoin="bevel"/>
<path d="M1027.66 201.25L1019.44 202.284" stroke="#231815" stroke-width="3.50344" stroke-linejoin="bevel"/>
<path d="M1264.54 163.465L1256.4 165.024" stroke="#231815" stroke-width="3.50344" stroke-linejoin="bevel"/>
<path d="M1028.8 208.449L1020.67 209.991" stroke="#231815" stroke-width="3.50344" stroke-linejoin="bevel"/>
<path d="M1262.83 155.863L1254.8 157.93" stroke="#231815" stroke-width="3.50344" stroke-linejoin="bevel"/>
<path d="M1030.37 215.547L1022.37 217.596" stroke="#231815" stroke-width="3.50344" stroke-linejoin="bevel"/>
<path d="M1258.01 141.027L1250.32 144.093" stroke="#231815" stroke-width="3.50344" stroke-linejoin="bevel"/>
<path d="M1034.88 229.383L1027.19 232.431" stroke="#231815" stroke-width="3.50344" stroke-linejoin="bevel"/>
<path d="M1254.91 133.883L1247.43 137.404" stroke="#231815" stroke-width="3.50344" stroke-linejoin="bevel"/>
<path d="M1037.77 236.078L1030.29 239.582" stroke="#231815" stroke-width="3.50344" stroke-linejoin="bevel"/>
<path d="M1251.37 126.926L1244.12 130.92" stroke="#231815" stroke-width="3.50344" stroke-linejoin="bevel"/>
<path d="M1041.06 242.555L1033.81 246.531" stroke="#231815" stroke-width="3.50344" stroke-linejoin="bevel"/>
<path d="M1247.41 120.219L1240.4 124.651" stroke="#231815" stroke-width="3.50344" stroke-linejoin="bevel"/>
<path d="M1044.77 248.812L1037.78 253.244" stroke="#231815" stroke-width="3.50344" stroke-linejoin="bevel"/>
<path d="M1238.25 107.605L1231.86 112.896" stroke="#231815" stroke-width="3.50344" stroke-linejoin="bevel"/>
<path d="M1053.32 260.582L1046.95 265.855" stroke="#231815" stroke-width="3.50344" stroke-linejoin="bevel"/>
<path d="M1233.08 101.75L1227.04 107.426" stroke="#231815" stroke-width="3.50344" stroke-linejoin="bevel"/>
<path d="M1058.14 266.047L1052.09 271.705" stroke="#231815" stroke-width="3.50344" stroke-linejoin="bevel"/>
<path d="M1227.56 96.2344L1221.91 102.278" stroke="#231815" stroke-width="3.50344" stroke-linejoin="bevel"/>
<path d="M1063.29 271.195L1057.61 277.221" stroke="#231815" stroke-width="3.50344" stroke-linejoin="bevel"/>
<path d="M1221.71 91.0859L1216.44 97.4622" stroke="#231815" stroke-width="3.50344" stroke-linejoin="bevel"/>
<path d="M1068.74 276.016L1063.46 282.374" stroke="#231815" stroke-width="3.50344" stroke-linejoin="bevel"/>
<path d="M1209.1 81.9219L1204.67 88.9112" stroke="#231815" stroke-width="3.50344" stroke-linejoin="bevel"/>
<path d="M1080.51 284.562L1076.08 291.534" stroke="#231815" stroke-width="3.50344" stroke-linejoin="bevel"/>
<path d="M1202.39 77.9453L1198.4 85.2149" stroke="#231815" stroke-width="3.50344" stroke-linejoin="bevel"/>
<path d="M1086.78 288.258L1082.79 295.51" stroke="#231815" stroke-width="3.50344" stroke-linejoin="bevel"/>
<path d="M1195.46 74.4062L1191.92 81.9036" stroke="#231815" stroke-width="3.50344" stroke-linejoin="bevel"/>
<path d="M1093.26 291.57L1089.74 299.05" stroke="#231815" stroke-width="3.50344" stroke-linejoin="bevel"/>
<path d="M1188.29 71.3086L1185.24 79.0162" stroke="#231815" stroke-width="3.50344" stroke-linejoin="bevel"/>
<path d="M1099.93 294.461L1096.89 302.151" stroke="#231815" stroke-width="3.50344" stroke-linejoin="bevel"/>
<path d="M1173.45 66.4922L1171.4 74.5151" stroke="#231815" stroke-width="3.50344" stroke-linejoin="bevel"/>
<path d="M1113.77 298.961L1111.72 306.966" stroke="#231815" stroke-width="3.50344" stroke-linejoin="bevel"/>
<path d="M1165.85 64.7891L1164.29 72.9346" stroke="#231815" stroke-width="3.50344" stroke-linejoin="bevel"/>
<path d="M1120.89 300.539L1119.33 308.667" stroke="#231815" stroke-width="3.50344" stroke-linejoin="bevel"/>
<path d="M1158.14 63.5664L1157.11 71.7995" stroke="#231815" stroke-width="3.50344" stroke-linejoin="bevel"/>
<path d="M1128.07 301.676L1127.03 309.891" stroke="#231815" stroke-width="3.50344" stroke-linejoin="bevel"/>
<path d="M1150.38 62.8281L1149.86 71.1138" stroke="#231815" stroke-width="3.50344" stroke-linejoin="bevel"/>
<path d="M1135.32 302.359L1134.79 310.61" stroke="#231815" stroke-width="3.50344" stroke-linejoin="bevel"/>
<path d="M1266.71 186.746C1266.71 255.308 1211.13 310.89 1142.57 310.89C1074.01 310.89 1018.44 255.308 1018.44 186.746C1018.44 118.184 1074.03 62.6016 1142.59 62.6016C1211.15 62.6016 1266.73 118.184 1266.73 186.728L1266.71 186.746Z" stroke="#727171" stroke-width="1.31379" stroke-linejoin="bevel"/>
<path d="M1281 93H1127M1281 232.5L1227 184.5M1281 337H1212L1174 271M966 286V253.5H1087.5M947 93L1067 147.5" stroke="#3B71FE" stroke-width="2"/>
<path d="M313.539 87.9375C311.143 87.9375 308.844 88.888 307.15 90.5799C305.455 92.2719 304.503 94.5666 304.503 96.9593C304.503 99.3521 305.455 101.647 307.15 103.339C308.844 105.031 311.143 105.981 313.539 105.981H593.46C595.857 105.981 598.156 105.031 599.85 103.339C601.545 101.647 602.497 99.3521 602.497 96.9593C602.497 94.5666 601.545 92.2719 599.85 90.5799C598.156 88.888 595.857 87.9375 593.46 87.9375H313.539Z" stroke="#D7DFF3" stroke-width="1.74787"/>
<path d="M313.539 88.0312C311.143 88.0312 308.844 88.9818 307.15 90.6737C305.455 92.3656 304.503 94.6604 304.503 97.0531C304.503 99.4458 305.455 101.741 307.15 103.433C308.844 105.124 311.143 106.075 313.539 106.075H593.46C595.857 106.075 598.156 105.124 599.85 103.433C601.545 101.741 602.497 99.4458 602.497 97.0531C602.497 94.6604 601.545 92.3656 599.85 90.6737C598.156 88.9818 595.857 88.0312 593.46 88.0312H313.539Z" fill="#D7DFF3"/>
<path d="M323.315 83C319.606 83 316.05 84.4708 313.428 87.0889C310.805 89.7069 309.332 93.2578 309.332 96.9603C309.332 100.663 310.805 104.214 313.428 106.832C316.05 109.45 319.606 110.921 323.315 110.921H583.398C587.106 110.921 590.663 109.45 593.285 106.832C595.907 104.214 597.381 100.663 597.381 96.9603C597.381 93.2578 595.907 89.7069 593.285 87.0889C590.663 84.4708 587.106 83 583.398 83H323.315Z" fill="white"/>
<path d="M323.432 83C319.724 83 316.167 84.4708 313.545 87.0889C310.922 89.7069 309.449 93.2578 309.449 96.9603C309.449 100.663 310.922 104.214 313.545 106.832C316.167 109.45 319.724 110.921 323.432 110.921H583.515C587.223 110.921 590.78 109.45 593.402 106.832C596.025 104.214 597.498 100.663 597.498 96.9603C597.498 93.2578 596.025 89.7069 593.402 87.0889C590.78 84.4708 587.223 83 583.515 83H323.432Z" stroke="#D7DFF3" stroke-width="1.74787"/>
<text fill="#504D7C" xml:space="preserve" style="white-space: pre" font-family="Pretendard" font-size="16.1025" font-weight="bold" letter-spacing="-0.503203px"><tspan x="344.556" y="103.449">&#xc88b;&#xc544;&#xd558;&#xb294; &#xcc45;&#xc758; &#xc885;&#xb958;&#xbcc4; &#xd559;&#xc0dd; &#xc218;&#xc758; &#xbe44;&#xc728;</tspan></text>
<g clip-path="url(#clip0_8177_235973)">
<path d="M114.324 143.812C110.524 143.817 106.88 145.335 104.194 148.033C101.509 150.731 100 154.389 100 158.202V244.437C100 248.25 101.509 251.908 104.194 254.606C106.88 257.304 110.524 258.822 114.324 258.826H209.876V143.812H114.324Z" fill="#E4E9F7"/>
<path d="M104.786 182.16H205.09" stroke="white" stroke-width="0.503203" stroke-miterlimit="10"/>
<path d="M104.786 220.512H205.09" stroke="white" stroke-width="0.503203" stroke-miterlimit="10"/>
<path d="M212.252 143.625V181.974H807V157.998C806.998 156.106 806.624 154.234 805.9 152.488C805.177 150.742 804.117 149.156 802.782 147.822C801.447 146.487 799.862 145.429 798.12 144.709C796.377 143.989 794.51 143.621 792.625 143.625H212.252Z" fill="#EFEEEE"/>
<path d="M311.377 177.172V148.41" stroke="white" stroke-width="0.503203" stroke-miterlimit="10"/>
<path d="M410.501 177.172V148.41" stroke="white" stroke-width="0.503203" stroke-miterlimit="10"/>
<path d="M509.626 177.172V148.41" stroke="white" stroke-width="0.503203" stroke-miterlimit="10"/>
<path d="M608.751 177.172V148.41" stroke="white" stroke-width="0.503203" stroke-miterlimit="10"/>
<path d="M707.875 177.172V148.41" stroke="white" stroke-width="0.503203" stroke-miterlimit="10"/>
<path d="M707.875 220.309H807V243.389C807 247.425 805.402 251.296 802.558 254.15C799.713 257.004 795.856 258.607 791.833 258.607H707.875V220.309ZM608.751 220.309H707.875V258.607H608.751V220.309ZM509.626 220.309H608.751V258.607H509.626V220.309ZM410.502 220.309H509.626V258.607H410.502V220.309ZM311.377 220.309H410.502V258.607H311.377V220.309ZM212.252 220.309H311.377V258.607H212.252V220.309ZM707.875 181.977H807V220.309H707.875V181.977ZM608.751 181.977H707.875V220.309H608.751V181.977ZM509.626 181.977H608.751V220.309H509.626V181.977ZM410.502 181.977H509.626V220.309H410.502V181.977ZM311.377 181.977H410.502V220.309H311.377V181.977ZM212.252 181.977H311.377V220.309H212.252V181.977Z" fill="white"/>
<path d="M311.377 219.886V181.977" stroke="#DADADA" stroke-width="0.251601" stroke-miterlimit="10"/>
<path d="M410.501 219.886V181.977" stroke="#DADADA" stroke-width="0.251601" stroke-miterlimit="10"/>
<path d="M509.626 219.886V181.977" stroke="#DADADA" stroke-width="0.251601" stroke-miterlimit="10"/>
<path d="M608.751 219.886V181.977" stroke="#DADADA" stroke-width="0.251601" stroke-miterlimit="10"/>
<path d="M707.875 219.886V181.977" stroke="#DADADA" stroke-width="0.251601" stroke-miterlimit="10"/>
<path d="M212.252 220.305H311.377" stroke="#DADADA" stroke-width="0.251601" stroke-miterlimit="10"/>
<path d="M311.377 220.305H410.502" stroke="#DADADA" stroke-width="0.251601" stroke-miterlimit="10"/>
<path d="M311.377 258.657V220.73" stroke="#DADADA" stroke-width="0.251601" stroke-miterlimit="10"/>
<path d="M410.501 220.305H509.626" stroke="#DADADA" stroke-width="0.251601" stroke-miterlimit="10"/>
<path d="M410.501 258.657V220.73" stroke="#DADADA" stroke-width="0.251601" stroke-miterlimit="10"/>
<path d="M509.626 220.305H608.751" stroke="#DADADA" stroke-width="0.251601" stroke-miterlimit="10"/>
<path d="M509.626 258.657V220.73" stroke="#DADADA" stroke-width="0.251601" stroke-miterlimit="10"/>
<path d="M608.751 220.305H707.876" stroke="#DADADA" stroke-width="0.251601" stroke-miterlimit="10"/>
<path d="M608.751 258.657V220.73" stroke="#DADADA" stroke-width="0.251601" stroke-miterlimit="10"/>
<path d="M707.875 220.305H807" stroke="#DADADA" stroke-width="0.251601" stroke-miterlimit="10"/>
<path d="M707.875 258.657V220.73" stroke="#DADADA" stroke-width="0.251601" stroke-miterlimit="10"/>
<path d="M212.252 258.233H792.237C796.038 258.233 799.683 256.72 802.372 254.025C805.061 251.33 806.574 247.674 806.579 243.861V181.484" stroke="#DADADA" stroke-width="0.251601"/>
<text fill="black" xml:space="preserve" style="white-space: pre" font-family="Pretendard" font-size="16.1025" letter-spacing="-0.503203px"><tspan x="120.799" y="207.219">&#xd559;&#xc0dd; &#xc218;(&#xba85;)</tspan></text>
<text fill="black" xml:space="preserve" style="white-space: pre" font-family="Pretendard" font-size="16.1025" letter-spacing="-0.503203px"><tspan x="141.094" y="168.473">&#xc885;&#xb958;</tspan></text>
<text fill="black" xml:space="preserve" style="white-space: pre" font-family="Pretendard" font-size="16.1025" letter-spacing="-0.503203px"><tspan x="241.528" y="168.473">&#xb3d9;&#xd654;&#xcc45;</tspan></text>
<text fill="black" xml:space="preserve" style="white-space: pre" font-family="Pretendard" font-size="16.1025" letter-spacing="-0.503203px"><tspan x="252.488" y="206.715">60</tspan></text>
<text fill="black" xml:space="preserve" style="white-space: pre" font-family="Pretendard" font-size="16.1025" letter-spacing="-0.503203px"><tspan x="351.753" y="206.715">50</tspan></text>
<text fill="black" xml:space="preserve" style="white-space: pre" font-family="Pretendard" font-size="16.1025" letter-spacing="-0.503203px"><tspan x="352.327" y="245.219">25</tspan></text>
<text fill="black" xml:space="preserve" style="white-space: pre" font-family="Pretendard" font-size="16.1025" letter-spacing="-0.503203px"><tspan x="552.215" y="245.219">18</tspan></text>
<text fill="black" xml:space="preserve" style="white-space: pre" font-family="Pretendard" font-size="16.1025" letter-spacing="-0.503203px"><tspan x="552.724" y="206.977">36</tspan></text>
<text fill="black" xml:space="preserve" style="white-space: pre" font-family="Pretendard" font-size="16.1025" letter-spacing="-0.503203px"><tspan x="449.225" y="206.715">42</tspan></text>
<text fill="black" xml:space="preserve" style="white-space: pre" font-family="Pretendard" font-size="16.1025" letter-spacing="-0.503203px"><tspan x="451.228" y="245.219">21</tspan></text>
<text fill="black" xml:space="preserve" style="white-space: pre" font-family="Pretendard" font-size="16.1025" letter-spacing="-0.503203px"><tspan x="652.579" y="245.219">6</tspan></text>
<text fill="black" xml:space="preserve" style="white-space: pre" font-family="Pretendard" font-size="16.1025" letter-spacing="-0.503203px"><tspan x="744.48" y="245.219">100</tspan></text>
<text fill="black" xml:space="preserve" style="white-space: pre" font-family="Pretendard" font-size="16.1025" letter-spacing="-0.503203px"><tspan x="649.49" y="206.715">12</tspan></text>
<text fill="black" xml:space="preserve" style="white-space: pre" font-family="Pretendard" font-size="16.1025" letter-spacing="-0.503203px"><tspan x="742.775" y="206.715">200</tspan></text>
<text fill="black" xml:space="preserve" style="white-space: pre" font-family="Pretendard" font-size="16.1025" letter-spacing="-0.503203px"><tspan x="252.957" y="245.461">30</tspan></text>
<text fill="black" xml:space="preserve" style="white-space: pre" font-family="Pretendard" font-size="16.1025" letter-spacing="-0.503203px"><tspan x="341.162" y="168.473">&#xc5ed;&#xc0ac;&#xcc45;</tspan></text>
<text fill="black" xml:space="preserve" style="white-space: pre" font-family="Pretendard" font-size="16.1025" letter-spacing="-0.503203px"><tspan x="438.28" y="168.473">&#xc704;&#xc778;&#xc804;</tspan></text>
<text fill="black" xml:space="preserve" style="white-space: pre" font-family="Pretendard" font-size="16.1025" letter-spacing="-0.503203px"><tspan x="538.921" y="168.473">&#xacfc;&#xd559;&#xcc45;</tspan></text>
<text fill="black" xml:space="preserve" style="white-space: pre" font-family="Pretendard" font-size="16.1025" letter-spacing="-0.503203px"><tspan x="644.8" y="168.473">&#xae30;&#xd0c0;</tspan></text>
<text fill="black" xml:space="preserve" style="white-space: pre" font-family="Pretendard" font-size="16.1025" letter-spacing="-0.503203px"><tspan x="743.931" y="168.473">&#xd569;&#xacc4;</tspan></text>
<text fill="black" xml:space="preserve" style="white-space: pre" font-family="Pretendard" font-size="16.1025" letter-spacing="-0.503203px"><tspan x="123.096" y="245.461">&#xbc31;&#xbd84;&#xc728;(%)</tspan></text>
</g>
<path d="M1003.04 11.9375C1000.64 11.9375 998.341 12.888 996.647 14.5799C994.952 16.2719 994 18.5666 994 20.9593C994 23.3521 994.952 25.6468 996.647 27.3388C998.341 29.0307 1000.64 29.9812 1003.04 29.9812H1282.96C1285.35 29.9812 1287.65 29.0307 1289.35 27.3388C1291.04 25.6468 1291.99 23.3521 1291.99 20.9593C1291.99 18.5666 1291.04 16.2719 1289.35 14.5799C1287.65 12.888 1285.35 11.9375 1282.96 11.9375H1003.04Z" stroke="#D7DFF3" stroke-width="1.74787"/>
<path d="M1003.04 12.0312C1000.64 12.0312 998.341 12.9818 996.647 14.6737C994.952 16.3656 994 18.6604 994 21.0531C994 23.4458 994.952 25.7406 996.647 27.4325C998.341 29.1244 1000.64 30.0749 1003.04 30.0749H1282.96C1285.35 30.0749 1287.65 29.1244 1289.35 27.4325C1291.04 25.7406 1291.99 23.4458 1291.99 21.0531C1291.99 18.6604 1291.04 16.3656 1289.35 14.6737C1287.65 12.9818 1285.35 12.0312 1282.96 12.0312H1003.04Z" fill="#D7DFF3"/>
<path d="M1012.81 7C1009.1 7 1005.55 8.47081 1002.92 11.0889C1000.3 13.7069 998.829 17.2578 998.829 20.9603C998.829 24.6628 1000.3 28.2137 1002.92 30.8317C1005.55 33.4498 1009.1 34.9206 1012.81 34.9206H1272.89C1276.6 34.9206 1280.16 33.4498 1282.78 30.8317C1285.4 28.2137 1286.88 24.6628 1286.88 20.9603C1286.88 17.2578 1285.4 13.7069 1282.78 11.0889C1280.16 8.47081 1276.6 7 1272.89 7H1012.81Z" fill="white"/>
<path d="M1012.93 7C1009.22 7 1005.66 8.47081 1003.04 11.0889C1000.42 13.7069 998.946 17.2578 998.946 20.9603C998.946 24.6628 1000.42 28.2137 1003.04 30.8317C1005.66 33.4498 1009.22 34.9206 1012.93 34.9206H1273.01C1276.72 34.9206 1280.28 33.4498 1282.9 30.8317C1285.52 28.2137 1286.99 24.6628 1286.99 20.9603C1286.99 17.2578 1285.52 13.7069 1282.9 11.0889C1280.28 8.47081 1276.72 7 1273.01 7H1012.93Z" stroke="#D7DFF3" stroke-width="1.74787"/>
<text fill="#504D7C" xml:space="preserve" style="white-space: pre" font-family="Pretendard" font-size="16.1025" font-weight="bold" letter-spacing="-0.503203px"><tspan x="1034.05" y="27.4492">&#xc88b;&#xc544;&#xd558;&#xb294; &#xcc45;&#xc758; &#xc885;&#xb958;&#xbcc4; &#xd559;&#xc0dd; &#xc218;&#xc758; &#xbe44;&#xc728;</tspan></text>
<defs>
<clipPath id="clip0_8177_235973">
<rect width="707" height="115.233" fill="white" transform="translate(100 143.629)"/>
</clipPath>
</defs>
</svg>
