<svg width="1535" height="360" viewBox="0 0 1535 360" fill="none" xmlns="http://www.w3.org/2000/svg">
<path d="M1242.59 330.889V317.086" stroke="#231815" stroke-width="0.350344" stroke-linejoin="bevel"/>
<text fill="#231815" xml:space="preserve" style="white-space: pre" font-family="Pretendard Variable" font-size="21.0206" letter-spacing="0em"><tspan x="1371" y="212.972">25</tspan></text>
<text fill="#231815" xml:space="preserve" style="white-space: pre" font-family="Pretendard Variable" font-size="21.0206" letter-spacing="0em"><tspan x="1230" y="354.972">50</tspan></text>
<text fill="#231815" xml:space="preserve" style="white-space: pre" font-family="Pretendard Variable" font-size="21.0206" letter-spacing="0em"><tspan x="1236" y="77.9722">0</tspan></text>
<text fill="#231815" xml:space="preserve" style="white-space: pre" font-family="Pretendard Variable" font-size="21.0206" letter-spacing="0em"><tspan x="1091" y="212.972">75</tspan></text>
<path d="M1242.59 82.6016V144.674V206.746M1242.59 206.746L1200 98.5M1242.59 206.746L1125.5 200M1242.59 206.746L1207.5 315M1242.59 206.746L1348.5 241.5" stroke="#727171" stroke-width="3.50344" stroke-linejoin="bevel"/>
<path d="M1242.59 96.4051V82.6016" stroke="#231815" stroke-width="3.50344" stroke-linejoin="bevel"/>
<path d="M1280.95 324.816L1276.68 311.695" stroke="#231815" stroke-width="3.50344" stroke-linejoin="bevel"/>
<path d="M1208.48 101.8L1204.23 88.6797" stroke="#231815" stroke-width="3.50344" stroke-linejoin="bevel"/>
<path d="M1315.55 307.174L1307.44 296.016" stroke="#231815" stroke-width="3.50344" stroke-linejoin="bevel"/>
<path d="M1177.72 117.479L1169.61 106.32" stroke="#231815" stroke-width="3.50344" stroke-linejoin="bevel"/>
<path d="M1343.01 279.702L1331.86 271.609" stroke="#231815" stroke-width="3.50344" stroke-linejoin="bevel"/>
<path d="M1153.32 141.88L1142.16 133.77" stroke="#231815" stroke-width="3.50344" stroke-linejoin="bevel"/>
<path d="M1360.64 245.108L1347.53 240.852" stroke="#231815" stroke-width="3.50344" stroke-linejoin="bevel"/>
<path d="M1137.64 172.639L1124.52 168.383" stroke="#231815" stroke-width="3.50344" stroke-linejoin="bevel"/>
<path d="M1366.72 206.746H1352.93" stroke="#231815" stroke-width="3.50344" stroke-linejoin="bevel"/>
<path d="M1132.25 206.746H1118.44" stroke="#231815" stroke-width="3.50344" stroke-linejoin="bevel"/>
<path d="M1360.64 168.383L1347.53 172.657" stroke="#231815" stroke-width="3.50344" stroke-linejoin="bevel"/>
<path d="M1137.64 240.836L1124.52 245.11" stroke="#231815" stroke-width="3.50344" stroke-linejoin="bevel"/>
<path d="M1343.01 133.789L1331.86 141.9" stroke="#231815" stroke-width="3.50344" stroke-linejoin="bevel"/>
<path d="M1153.3 271.609L1142.16 279.72" stroke="#231815" stroke-width="3.50344" stroke-linejoin="bevel"/>
<path d="M1315.55 106.32L1307.44 117.479" stroke="#231815" stroke-width="3.50344" stroke-linejoin="bevel"/>
<path d="M1177.72 296.016L1169.61 307.174" stroke="#231815" stroke-width="3.50344" stroke-linejoin="bevel"/>
<path d="M1280.95 88.6797L1276.68 101.8" stroke="#231815" stroke-width="3.50344" stroke-linejoin="bevel"/>
<path d="M1208.48 311.695L1204.23 324.816" stroke="#231815" stroke-width="3.50344" stroke-linejoin="bevel"/>
<path d="M1250.38 330.643L1249.86 322.375" stroke="#231815" stroke-width="3.50344" stroke-linejoin="bevel"/>
<path d="M1235.32 91.1158L1234.79 82.8477" stroke="#231815" stroke-width="3.50344" stroke-linejoin="bevel"/>
<path d="M1258.14 329.911L1257.11 321.695" stroke="#231815" stroke-width="3.50344" stroke-linejoin="bevel"/>
<path d="M1228.07 91.7976L1227.03 83.582" stroke="#231815" stroke-width="3.50344" stroke-linejoin="bevel"/>
<path d="M1265.85 328.683L1264.29 320.555" stroke="#231815" stroke-width="3.50344" stroke-linejoin="bevel"/>
<path d="M1220.89 92.9327L1219.33 84.8047" stroke="#231815" stroke-width="3.50344" stroke-linejoin="bevel"/>
<path d="M1273.45 326.984L1271.4 318.961" stroke="#231815" stroke-width="3.50344" stroke-linejoin="bevel"/>
<path d="M1213.77 94.5132L1211.72 86.5078" stroke="#231815" stroke-width="3.50344" stroke-linejoin="bevel"/>
<path d="M1288.29 322.167L1285.24 314.477" stroke="#231815" stroke-width="3.50344" stroke-linejoin="bevel"/>
<path d="M1199.93 99.0143L1196.9 91.3242" stroke="#231815" stroke-width="3.50344" stroke-linejoin="bevel"/>
<path d="M1295.44 319.066L1291.92 311.586" stroke="#231815" stroke-width="3.50344" stroke-linejoin="bevel"/>
<path d="M1193.26 101.906L1189.74 94.4258" stroke="#231815" stroke-width="3.50344" stroke-linejoin="bevel"/>
<path d="M1302.39 315.526L1298.4 308.273" stroke="#231815" stroke-width="3.50344" stroke-linejoin="bevel"/>
<path d="M1186.78 105.221L1182.79 97.9688" stroke="#231815" stroke-width="3.50344" stroke-linejoin="bevel"/>
<path d="M1309.1 311.55L1304.67 304.578" stroke="#231815" stroke-width="3.50344" stroke-linejoin="bevel"/>
<path d="M1180.51 108.911L1176.08 101.922" stroke="#231815" stroke-width="3.50344" stroke-linejoin="bevel"/>
<path d="M1321.71 302.392L1316.44 296.016" stroke="#231815" stroke-width="3.50344" stroke-linejoin="bevel"/>
<path d="M1168.74 117.462L1163.46 111.086" stroke="#231815" stroke-width="3.50344" stroke-linejoin="bevel"/>
<path d="M1327.56 297.237L1321.91 291.211" stroke="#231815" stroke-width="3.50344" stroke-linejoin="bevel"/>
<path d="M1163.29 122.276L1157.63 116.25" stroke="#231815" stroke-width="3.50344" stroke-linejoin="bevel"/>
<path d="M1333.08 291.721L1327.06 286.062" stroke="#231815" stroke-width="3.50344" stroke-linejoin="bevel"/>
<path d="M1158.14 127.431L1152.11 121.773" stroke="#231815" stroke-width="3.50344" stroke-linejoin="bevel"/>
<path d="M1338.25 285.874L1331.88 280.602" stroke="#231815" stroke-width="3.50344" stroke-linejoin="bevel"/>
<path d="M1153.32 132.894L1146.95 127.621" stroke="#231815" stroke-width="3.50344" stroke-linejoin="bevel"/>
<path d="M1347.41 273.26L1340.42 268.828" stroke="#231815" stroke-width="3.50344" stroke-linejoin="bevel"/>
<path d="M1144.77 144.668L1137.78 140.219" stroke="#231815" stroke-width="3.50344" stroke-linejoin="bevel"/>
<path d="M1351.37 266.549L1344.12 262.555" stroke="#231815" stroke-width="3.50344" stroke-linejoin="bevel"/>
<path d="M1141.06 150.918L1133.82 146.941" stroke="#231815" stroke-width="3.50344" stroke-linejoin="bevel"/>
<path d="M1354.91 259.599L1347.43 256.078" stroke="#231815" stroke-width="3.50344" stroke-linejoin="bevel"/>
<path d="M1137.77 157.404L1130.29 153.883" stroke="#231815" stroke-width="3.50344" stroke-linejoin="bevel"/>
<path d="M1358.01 252.446L1350.32 249.398" stroke="#231815" stroke-width="3.50344" stroke-linejoin="bevel"/>
<path d="M1134.88 164.095L1127.19 161.047" stroke="#231815" stroke-width="3.50344" stroke-linejoin="bevel"/>
<path d="M1362.83 237.612L1354.8 235.562" stroke="#231815" stroke-width="3.50344" stroke-linejoin="bevel"/>
<path d="M1130.37 177.93L1122.37 175.863" stroke="#231815" stroke-width="3.50344" stroke-linejoin="bevel"/>
<path d="M1364.54 229.991L1356.4 228.449" stroke="#231815" stroke-width="3.50344" stroke-linejoin="bevel"/>
<path d="M1128.78 185.024L1120.67 183.465" stroke="#231815" stroke-width="3.50344" stroke-linejoin="bevel"/>
<path d="M1365.75 222.299L1357.54 221.266" stroke="#231815" stroke-width="3.50344" stroke-linejoin="bevel"/>
<path d="M1127.64 192.223L1119.44 191.172" stroke="#231815" stroke-width="3.50344" stroke-linejoin="bevel"/>
<path d="M1366.49 214.541L1358.22 214.016" stroke="#231815" stroke-width="3.50344" stroke-linejoin="bevel"/>
<path d="M1126.96 199.459L1118.71 198.934" stroke="#231815" stroke-width="3.50344" stroke-linejoin="bevel"/>
<path d="M1366.49 198.949L1358.22 199.457" stroke="#231815" stroke-width="3.50344" stroke-linejoin="bevel"/>
<path d="M1126.96 214.016L1118.71 214.524" stroke="#231815" stroke-width="3.50344" stroke-linejoin="bevel"/>
<path d="M1365.75 191.172L1357.54 192.223" stroke="#231815" stroke-width="3.50344" stroke-linejoin="bevel"/>
<path d="M1127.66 221.25L1119.44 222.284" stroke="#231815" stroke-width="3.50344" stroke-linejoin="bevel"/>
<path d="M1364.54 183.465L1356.4 185.024" stroke="#231815" stroke-width="3.50344" stroke-linejoin="bevel"/>
<path d="M1128.8 228.449L1120.67 229.991" stroke="#231815" stroke-width="3.50344" stroke-linejoin="bevel"/>
<path d="M1362.83 175.863L1354.8 177.93" stroke="#231815" stroke-width="3.50344" stroke-linejoin="bevel"/>
<path d="M1130.37 235.547L1122.37 237.596" stroke="#231815" stroke-width="3.50344" stroke-linejoin="bevel"/>
<path d="M1358.01 161.027L1350.32 164.093" stroke="#231815" stroke-width="3.50344" stroke-linejoin="bevel"/>
<path d="M1134.88 249.383L1127.19 252.431" stroke="#231815" stroke-width="3.50344" stroke-linejoin="bevel"/>
<path d="M1354.91 153.883L1347.43 157.404" stroke="#231815" stroke-width="3.50344" stroke-linejoin="bevel"/>
<path d="M1137.77 256.078L1130.29 259.582" stroke="#231815" stroke-width="3.50344" stroke-linejoin="bevel"/>
<path d="M1351.37 146.926L1344.12 150.92" stroke="#231815" stroke-width="3.50344" stroke-linejoin="bevel"/>
<path d="M1141.06 262.555L1133.81 266.531" stroke="#231815" stroke-width="3.50344" stroke-linejoin="bevel"/>
<path d="M1347.41 140.219L1340.4 144.651" stroke="#231815" stroke-width="3.50344" stroke-linejoin="bevel"/>
<path d="M1144.77 268.812L1137.78 273.244" stroke="#231815" stroke-width="3.50344" stroke-linejoin="bevel"/>
<path d="M1338.25 127.605L1331.86 132.896" stroke="#231815" stroke-width="3.50344" stroke-linejoin="bevel"/>
<path d="M1153.32 280.582L1146.95 285.855" stroke="#231815" stroke-width="3.50344" stroke-linejoin="bevel"/>
<path d="M1333.08 121.75L1327.04 127.426" stroke="#231815" stroke-width="3.50344" stroke-linejoin="bevel"/>
<path d="M1158.14 286.047L1152.09 291.705" stroke="#231815" stroke-width="3.50344" stroke-linejoin="bevel"/>
<path d="M1327.56 116.234L1321.91 122.278" stroke="#231815" stroke-width="3.50344" stroke-linejoin="bevel"/>
<path d="M1163.29 291.195L1157.61 297.221" stroke="#231815" stroke-width="3.50344" stroke-linejoin="bevel"/>
<path d="M1321.71 111.086L1316.44 117.462" stroke="#231815" stroke-width="3.50344" stroke-linejoin="bevel"/>
<path d="M1168.74 296.016L1163.46 302.374" stroke="#231815" stroke-width="3.50344" stroke-linejoin="bevel"/>
<path d="M1309.1 101.922L1304.67 108.911" stroke="#231815" stroke-width="3.50344" stroke-linejoin="bevel"/>
<path d="M1180.51 304.562L1176.08 311.534" stroke="#231815" stroke-width="3.50344" stroke-linejoin="bevel"/>
<path d="M1302.39 97.9453L1298.4 105.215" stroke="#231815" stroke-width="3.50344" stroke-linejoin="bevel"/>
<path d="M1186.78 308.258L1182.79 315.51" stroke="#231815" stroke-width="3.50344" stroke-linejoin="bevel"/>
<path d="M1295.46 94.4062L1291.92 101.904" stroke="#231815" stroke-width="3.50344" stroke-linejoin="bevel"/>
<path d="M1193.26 311.57L1189.74 319.05" stroke="#231815" stroke-width="3.50344" stroke-linejoin="bevel"/>
<path d="M1288.29 91.3086L1285.24 99.0162" stroke="#231815" stroke-width="3.50344" stroke-linejoin="bevel"/>
<path d="M1199.93 314.461L1196.89 322.151" stroke="#231815" stroke-width="3.50344" stroke-linejoin="bevel"/>
<path d="M1273.45 86.4922L1271.4 94.5151" stroke="#231815" stroke-width="3.50344" stroke-linejoin="bevel"/>
<path d="M1213.77 318.961L1211.72 326.966" stroke="#231815" stroke-width="3.50344" stroke-linejoin="bevel"/>
<path d="M1265.85 84.7891L1264.29 92.9346" stroke="#231815" stroke-width="3.50344" stroke-linejoin="bevel"/>
<path d="M1220.89 320.539L1219.33 328.667" stroke="#231815" stroke-width="3.50344" stroke-linejoin="bevel"/>
<path d="M1258.14 83.5664L1257.11 91.7995" stroke="#231815" stroke-width="3.50344" stroke-linejoin="bevel"/>
<path d="M1228.07 321.676L1227.03 329.891" stroke="#231815" stroke-width="3.50344" stroke-linejoin="bevel"/>
<path d="M1250.38 82.8281L1249.86 91.1138" stroke="#231815" stroke-width="3.50344" stroke-linejoin="bevel"/>
<path d="M1235.32 322.359L1234.79 330.61" stroke="#231815" stroke-width="3.50344" stroke-linejoin="bevel"/>
<path d="M1366.71 206.746C1366.71 275.308 1311.13 330.89 1242.57 330.89C1174.01 330.89 1118.44 275.308 1118.44 206.746C1118.44 138.184 1174.03 82.6016 1242.59 82.6016C1311.15 82.6016 1366.73 138.184 1366.73 206.728L1366.71 206.746Z" stroke="#727171" stroke-width="1.31379" stroke-linejoin="bevel"/>
<text fill="black" xml:space="preserve" style="white-space: pre" font-family="Pretendard" font-size="24" letter-spacing="-0.5px"><tspan x="1260.89" y="160.531">&#xb3d9;&#xd654;&#xcc45;&#10;</tspan><tspan x="1259.42" y="196.531">(30%)</tspan></text>
<text fill="black" xml:space="preserve" style="white-space: pre" font-family="Pretendard" font-size="24" letter-spacing="-0.5px"><tspan x="1241.39" y="257.531">&#xc5ed;&#xc0ac;&#xcc45;&#10;</tspan><tspan x="1240.27" y="293.531">(25%)</tspan></text>
<text fill="black" xml:space="preserve" style="white-space: pre" font-family="Pretendard" font-size="24" letter-spacing="-0.5px"><tspan x="1153.39" y="234.531">&#xc704;&#xc778;&#xc804;&#10;</tspan><tspan x="1154.17" y="270.531">(21%)</tspan></text>
<text fill="black" xml:space="preserve" style="white-space: pre" font-family="Pretendard" font-size="24" letter-spacing="-0.5px"><tspan x="1153.39" y="156.531">&#xacfc;&#xd559;&#xcc45;&#10;</tspan><tspan x="1153.93" y="192.531">(18%)</tspan></text>
<text fill="black" xml:space="preserve" style="white-space: pre" font-family="Pretendard" font-size="24" letter-spacing="-0.5px"><tspan x="1069.01" y="82.5312">&#xae30;&#xd0c0;&#10;</tspan><tspan x="1064.36" y="118.531">(6%)</tspan></text>
<path d="M1119.5 74H1206L1223 112.5" stroke="black" stroke-width="2"/>
<path d="M301.918 15.0742C298.492 15.0742 295.206 16.436 292.784 18.8599C290.361 21.2838 289 24.5713 289 27.9992C289 31.4271 290.361 34.7147 292.784 37.1386C295.206 39.5625 298.492 40.9242 301.918 40.9242H702.082C705.508 40.9242 708.794 39.5625 711.216 37.1386C713.639 34.7147 715 31.4271 715 27.9992C715 24.5713 713.639 21.2838 711.216 18.8599C708.794 16.436 705.508 15.0742 702.082 15.0742H301.918Z" stroke="#D7DFF3" stroke-width="2.50405"/>
<path d="M301.918 15.207C298.492 15.207 295.206 16.5688 292.784 18.9927C290.361 21.4166 289 24.7041 289 28.132C289 31.56 290.361 34.8475 292.784 37.2714C295.206 39.6953 298.492 41.057 301.918 41.057H702.082C705.508 41.057 708.794 39.6953 711.216 37.2714C713.639 34.8475 715 31.56 715 28.132C715 24.7041 713.639 21.4166 711.216 18.9927C708.794 16.5688 705.508 15.207 702.082 15.207H301.918Z" fill="#D7DFF3"/>
<path d="M315.951 8C310.638 8 305.543 10.1071 301.786 13.8579C298.029 17.6086 295.918 22.6957 295.918 28C295.918 33.3043 298.029 38.3914 301.786 42.1421C305.543 45.8929 310.638 48 315.951 48H688.554C693.867 48 698.962 45.8929 702.719 42.1421C706.476 38.3914 708.587 33.3043 708.587 28C708.587 22.6957 706.476 17.6086 702.719 13.8579C698.962 10.1071 693.867 8 688.554 8H315.951Z" fill="white"/>
<path d="M316.06 8C310.759 8 305.674 10.1071 301.926 13.8579C298.177 17.6086 296.071 22.6957 296.071 28C296.071 33.3043 298.177 38.3914 301.926 42.1421C305.674 45.8929 310.759 48 316.06 48H687.864C693.165 48 698.25 45.8929 701.998 42.1421C705.747 38.3914 707.853 33.3043 707.853 28C707.853 22.6957 705.747 17.6086 701.998 13.8579C698.25 10.1071 693.165 8 687.864 8H316.06Z" stroke="#D7DFF3" stroke-width="2.50405"/>
<text fill="#504D7C" xml:space="preserve" style="white-space: pre" font-family="Pretendard" font-size="23.069" font-weight="bold" letter-spacing="-0.720905px"><tspan x="346.258" y="37.295">&#xc88b;&#xc544;&#xd558;&#xb294; &#xcc45;&#xc758; &#xc885;&#xb958;&#xbcc4; &#xd559;&#xc0dd; &#xc218;&#xc758; &#xbe44;&#xc728;</tspan></text>
<path d="M1012.92 14.0742C1009.49 14.0742 1006.21 15.436 1003.78 17.8599C1001.36 20.2838 1000 23.5713 1000 26.9992C1000 30.4271 1001.36 33.7147 1003.78 36.1386C1006.21 38.5625 1009.49 39.9242 1012.92 39.9242H1413.08C1416.51 39.9242 1419.79 38.5625 1422.22 36.1386C1424.64 33.7147 1426 30.4271 1426 26.9992C1426 23.5713 1424.64 20.2838 1422.22 17.8599C1419.79 15.436 1416.51 14.0742 1413.08 14.0742H1012.92Z" stroke="#D7DFF3" stroke-width="2.50405"/>
<path d="M1012.92 14.207C1009.49 14.207 1006.21 15.5688 1003.78 17.9927C1001.36 20.4166 1000 23.7041 1000 27.132C1000 30.56 1001.36 33.8475 1003.78 36.2714C1006.21 38.6953 1009.49 40.057 1012.92 40.057H1413.08C1416.51 40.057 1419.79 38.6953 1422.22 36.2714C1424.64 33.8475 1426 30.56 1426 27.132C1426 23.7041 1424.64 20.4166 1422.22 17.9927C1419.79 15.5688 1416.51 14.207 1413.08 14.207H1012.92Z" fill="#D7DFF3"/>
<path d="M1026.95 7C1021.64 7 1016.54 9.10714 1012.79 12.8579C1009.03 16.6086 1006.92 21.6957 1006.92 27C1006.92 32.3043 1009.03 37.3914 1012.79 41.1421C1016.54 44.8929 1021.64 47 1026.95 47H1399.55C1404.87 47 1409.96 44.8929 1413.72 41.1421C1417.48 37.3914 1419.59 32.3043 1419.59 27C1419.59 21.6957 1417.48 16.6086 1413.72 12.8579C1409.96 9.10714 1404.87 7 1399.55 7H1026.95Z" fill="white"/>
<path d="M1027.06 7C1021.76 7 1016.67 9.10714 1012.93 12.8579C1009.18 16.6086 1007.07 21.6957 1007.07 27C1007.07 32.3043 1009.18 37.3914 1012.93 41.1421C1016.67 44.8929 1021.76 47 1027.06 47H1398.86C1404.17 47 1409.25 44.8929 1413 41.1421C1416.75 37.3914 1418.85 32.3043 1418.85 27C1418.85 21.6957 1416.75 16.6086 1413 12.8579C1409.25 9.10714 1404.17 7 1398.86 7H1027.06Z" stroke="#D7DFF3" stroke-width="2.50405"/>
<text fill="#504D7C" xml:space="preserve" style="white-space: pre" font-family="Pretendard" font-size="23.069" font-weight="bold" letter-spacing="-0.720905px"><tspan x="1057.26" y="36.295">&#xc88b;&#xc544;&#xd558;&#xb294; &#xcc45;&#xc758; &#xc885;&#xb958;&#xbcc4; &#xd559;&#xc0dd; &#xc218;&#xc758; &#xbe44;&#xc728;</tspan></text>
<path d="M893 84.4453V102.696H72.52V84.4453" stroke="#1D1D1B" stroke-width="1.48498" stroke-linejoin="bevel"/>
<path d="M154.568 102.696V84.4453" stroke="#1D1D1B" stroke-width="1.48498" stroke-linejoin="bevel"/>
<path d="M236.616 102.696V84.4453" stroke="#1D1D1B" stroke-width="1.48498" stroke-linejoin="bevel"/>
<path d="M318.664 102.696V84.4453" stroke="#1D1D1B" stroke-width="1.48498" stroke-linejoin="bevel"/>
<path d="M400.712 102.696V84.4453" stroke="#1D1D1B" stroke-width="1.48498" stroke-linejoin="bevel"/>
<path d="M482.76 102.696V84.4453" stroke="#1D1D1B" stroke-width="1.48498" stroke-linejoin="bevel"/>
<path d="M564.808 102.696V84.4453" stroke="#1D1D1B" stroke-width="1.48498" stroke-linejoin="bevel"/>
<path d="M646.856 102.696V84.4453" stroke="#1D1D1B" stroke-width="1.48498" stroke-linejoin="bevel"/>
<path d="M728.903 102.696V84.4453" stroke="#1D1D1B" stroke-width="1.48498" stroke-linejoin="bevel"/>
<path d="M810.952 102.696V84.4453" stroke="#1D1D1B" stroke-width="1.48498" stroke-linejoin="bevel"/>
<path d="M113.555 102.697V89.6719" stroke="#1D1D1B" stroke-width="1.48498" stroke-linejoin="bevel"/>
<path d="M105.339 102.694V94.875" stroke="#1D1D1B" stroke-width="1.48498" stroke-linejoin="bevel"/>
<path d="M97.145 102.694V94.875" stroke="#1D1D1B" stroke-width="1.48498" stroke-linejoin="bevel"/>
<path d="M88.9297 102.694V94.875" stroke="#1D1D1B" stroke-width="1.48498" stroke-linejoin="bevel"/>
<path d="M80.7358 102.694V94.875" stroke="#1D1D1B" stroke-width="1.48498" stroke-linejoin="bevel"/>
<path d="M146.375 102.694V94.875" stroke="#1D1D1B" stroke-width="1.48498" stroke-linejoin="bevel"/>
<path d="M138.159 102.694V94.875" stroke="#1D1D1B" stroke-width="1.48498" stroke-linejoin="bevel"/>
<path d="M129.965 102.694V94.875" stroke="#1D1D1B" stroke-width="1.48498" stroke-linejoin="bevel"/>
<path d="M121.749 102.694V94.875" stroke="#1D1D1B" stroke-width="1.48498" stroke-linejoin="bevel"/>
<path d="M187.387 102.694V94.875" stroke="#1D1D1B" stroke-width="1.48498" stroke-linejoin="bevel"/>
<path d="M179.194 102.694V94.875" stroke="#1D1D1B" stroke-width="1.48498" stroke-linejoin="bevel"/>
<path d="M170.978 102.694V94.875" stroke="#1D1D1B" stroke-width="1.48498" stroke-linejoin="bevel"/>
<path d="M162.784 102.694V94.875" stroke="#1D1D1B" stroke-width="1.48498" stroke-linejoin="bevel"/>
<path d="M228.422 102.694V94.875" stroke="#1D1D1B" stroke-width="1.48498" stroke-linejoin="bevel"/>
<path d="M220.207 102.694V94.875" stroke="#1D1D1B" stroke-width="1.48498" stroke-linejoin="bevel"/>
<path d="M212.013 102.694V94.875" stroke="#1D1D1B" stroke-width="1.48498" stroke-linejoin="bevel"/>
<path d="M203.797 102.694V94.875" stroke="#1D1D1B" stroke-width="1.48498" stroke-linejoin="bevel"/>
<path d="M269.436 102.694V94.875" stroke="#1D1D1B" stroke-width="1.48498" stroke-linejoin="bevel"/>
<path d="M261.242 102.694V94.875" stroke="#1D1D1B" stroke-width="1.48498" stroke-linejoin="bevel"/>
<path d="M253.026 102.694V94.875" stroke="#1D1D1B" stroke-width="1.48498" stroke-linejoin="bevel"/>
<path d="M244.832 102.694V94.875" stroke="#1D1D1B" stroke-width="1.48498" stroke-linejoin="bevel"/>
<path d="M310.47 102.694V94.875" stroke="#1D1D1B" stroke-width="1.48498" stroke-linejoin="bevel"/>
<path d="M302.254 102.694V94.875" stroke="#1D1D1B" stroke-width="1.48498" stroke-linejoin="bevel"/>
<path d="M294.061 102.694V94.875" stroke="#1D1D1B" stroke-width="1.48498" stroke-linejoin="bevel"/>
<path d="M285.845 102.694V94.875" stroke="#1D1D1B" stroke-width="1.48498" stroke-linejoin="bevel"/>
<path d="M351.483 102.694V94.875" stroke="#1D1D1B" stroke-width="1.48498" stroke-linejoin="bevel"/>
<path d="M343.29 102.694V94.875" stroke="#1D1D1B" stroke-width="1.48498" stroke-linejoin="bevel"/>
<path d="M335.073 102.694V94.875" stroke="#1D1D1B" stroke-width="1.48498" stroke-linejoin="bevel"/>
<path d="M326.88 102.694V94.875" stroke="#1D1D1B" stroke-width="1.48498" stroke-linejoin="bevel"/>
<path d="M392.519 102.694V94.875" stroke="#1D1D1B" stroke-width="1.48498" stroke-linejoin="bevel"/>
<path d="M384.303 102.694V94.875" stroke="#1D1D1B" stroke-width="1.48498" stroke-linejoin="bevel"/>
<path d="M376.109 102.694V94.875" stroke="#1D1D1B" stroke-width="1.48498" stroke-linejoin="bevel"/>
<path d="M367.893 102.694V94.875" stroke="#1D1D1B" stroke-width="1.48498" stroke-linejoin="bevel"/>
<path d="M433.531 102.694V94.875" stroke="#1D1D1B" stroke-width="1.48498" stroke-linejoin="bevel"/>
<path d="M425.338 102.694V94.875" stroke="#1D1D1B" stroke-width="1.48498" stroke-linejoin="bevel"/>
<path d="M417.122 102.694V94.875" stroke="#1D1D1B" stroke-width="1.48498" stroke-linejoin="bevel"/>
<path d="M408.928 102.694V94.875" stroke="#1D1D1B" stroke-width="1.48498" stroke-linejoin="bevel"/>
<path d="M474.567 102.694V94.875" stroke="#1D1D1B" stroke-width="1.48498" stroke-linejoin="bevel"/>
<path d="M466.35 102.694V94.875" stroke="#1D1D1B" stroke-width="1.48498" stroke-linejoin="bevel"/>
<path d="M458.157 102.694V94.875" stroke="#1D1D1B" stroke-width="1.48498" stroke-linejoin="bevel"/>
<path d="M449.94 102.694V94.875" stroke="#1D1D1B" stroke-width="1.48498" stroke-linejoin="bevel"/>
<path d="M515.579 102.694V94.875" stroke="#1D1D1B" stroke-width="1.48498" stroke-linejoin="bevel"/>
<path d="M507.385 102.694V94.875" stroke="#1D1D1B" stroke-width="1.48498" stroke-linejoin="bevel"/>
<path d="M499.17 102.694V94.875" stroke="#1D1D1B" stroke-width="1.48498" stroke-linejoin="bevel"/>
<path d="M490.976 102.694V94.875" stroke="#1D1D1B" stroke-width="1.48498" stroke-linejoin="bevel"/>
<path d="M556.614 102.694V94.875" stroke="#1D1D1B" stroke-width="1.48498" stroke-linejoin="bevel"/>
<path d="M548.398 102.694V94.875" stroke="#1D1D1B" stroke-width="1.48498" stroke-linejoin="bevel"/>
<path d="M540.205 102.694V94.875" stroke="#1D1D1B" stroke-width="1.48498" stroke-linejoin="bevel"/>
<path d="M531.989 102.694V94.875" stroke="#1D1D1B" stroke-width="1.48498" stroke-linejoin="bevel"/>
<path d="M597.627 102.694V94.875" stroke="#1D1D1B" stroke-width="1.48498" stroke-linejoin="bevel"/>
<path d="M589.434 102.694V94.875" stroke="#1D1D1B" stroke-width="1.48498" stroke-linejoin="bevel"/>
<path d="M581.218 102.694V94.875" stroke="#1D1D1B" stroke-width="1.48498" stroke-linejoin="bevel"/>
<path d="M573.023 102.694V94.875" stroke="#1D1D1B" stroke-width="1.48498" stroke-linejoin="bevel"/>
<path d="M638.662 102.694V94.875" stroke="#1D1D1B" stroke-width="1.48498" stroke-linejoin="bevel"/>
<path d="M630.446 102.694V94.875" stroke="#1D1D1B" stroke-width="1.48498" stroke-linejoin="bevel"/>
<path d="M622.252 102.694V94.875" stroke="#1D1D1B" stroke-width="1.48498" stroke-linejoin="bevel"/>
<path d="M614.037 102.694V94.875" stroke="#1D1D1B" stroke-width="1.48498" stroke-linejoin="bevel"/>
<path d="M679.675 102.694V94.875" stroke="#1D1D1B" stroke-width="1.48498" stroke-linejoin="bevel"/>
<path d="M671.482 102.694V94.875" stroke="#1D1D1B" stroke-width="1.48498" stroke-linejoin="bevel"/>
<path d="M663.266 102.694V94.875" stroke="#1D1D1B" stroke-width="1.48498" stroke-linejoin="bevel"/>
<path d="M655.072 102.694V94.875" stroke="#1D1D1B" stroke-width="1.48498" stroke-linejoin="bevel"/>
<path d="M720.71 102.694V94.875" stroke="#1D1D1B" stroke-width="1.48498" stroke-linejoin="bevel"/>
<path d="M712.494 102.694V94.875" stroke="#1D1D1B" stroke-width="1.48498" stroke-linejoin="bevel"/>
<path d="M704.301 102.694V94.875" stroke="#1D1D1B" stroke-width="1.48498" stroke-linejoin="bevel"/>
<path d="M696.085 102.694V94.875" stroke="#1D1D1B" stroke-width="1.48498" stroke-linejoin="bevel"/>
<path d="M761.724 102.694V94.875" stroke="#1D1D1B" stroke-width="1.48498" stroke-linejoin="bevel"/>
<path d="M753.53 102.694V94.875" stroke="#1D1D1B" stroke-width="1.48498" stroke-linejoin="bevel"/>
<path d="M745.312 102.694V94.875" stroke="#1D1D1B" stroke-width="1.48498" stroke-linejoin="bevel"/>
<path d="M737.12 102.694V94.875" stroke="#1D1D1B" stroke-width="1.48498" stroke-linejoin="bevel"/>
<path d="M802.758 102.694V94.875" stroke="#1D1D1B" stroke-width="1.48498" stroke-linejoin="bevel"/>
<path d="M794.542 102.694V94.875" stroke="#1D1D1B" stroke-width="1.48498" stroke-linejoin="bevel"/>
<path d="M786.349 102.694V94.875" stroke="#1D1D1B" stroke-width="1.48498" stroke-linejoin="bevel"/>
<path d="M778.133 102.694V94.875" stroke="#1D1D1B" stroke-width="1.48498" stroke-linejoin="bevel"/>
<path d="M843.771 102.694V94.875" stroke="#1D1D1B" stroke-width="1.48498" stroke-linejoin="bevel"/>
<path d="M835.577 102.694V94.875" stroke="#1D1D1B" stroke-width="1.48498" stroke-linejoin="bevel"/>
<path d="M827.361 102.694V94.875" stroke="#1D1D1B" stroke-width="1.48498" stroke-linejoin="bevel"/>
<path d="M819.168 102.694V94.875" stroke="#1D1D1B" stroke-width="1.48498" stroke-linejoin="bevel"/>
<path d="M884.807 102.694V94.875" stroke="#1D1D1B" stroke-width="1.48498" stroke-linejoin="bevel"/>
<path d="M876.591 102.694V94.875" stroke="#1D1D1B" stroke-width="1.48498" stroke-linejoin="bevel"/>
<path d="M868.396 102.694V94.875" stroke="#1D1D1B" stroke-width="1.48498" stroke-linejoin="bevel"/>
<path d="M860.181 102.694V94.875" stroke="#1D1D1B" stroke-width="1.48498" stroke-linejoin="bevel"/>
<path d="M195.603 102.697V89.6719" stroke="#1D1D1B" stroke-width="1.48498" stroke-linejoin="bevel"/>
<path d="M277.651 102.697V89.6719" stroke="#1D1D1B" stroke-width="1.48498" stroke-linejoin="bevel"/>
<path d="M359.699 102.697V89.6719" stroke="#1D1D1B" stroke-width="1.48498" stroke-linejoin="bevel"/>
<path d="M441.747 102.697V89.6719" stroke="#1D1D1B" stroke-width="1.48498" stroke-linejoin="bevel"/>
<path d="M523.795 102.697V89.6719" stroke="#1D1D1B" stroke-width="1.48498" stroke-linejoin="bevel"/>
<path d="M605.843 102.697V89.6719" stroke="#1D1D1B" stroke-width="1.48498" stroke-linejoin="bevel"/>
<path d="M687.892 102.697V89.6719" stroke="#1D1D1B" stroke-width="1.48498" stroke-linejoin="bevel"/>
<path d="M769.939 102.697V89.6719" stroke="#1D1D1B" stroke-width="1.48498" stroke-linejoin="bevel"/>
<path d="M851.987 102.697V89.6719" stroke="#1D1D1B" stroke-width="1.48498" stroke-linejoin="bevel"/>
<path d="M892.844 103.703H72.6763V179.26H892.844V103.703Z" stroke="#706F6F" stroke-width="1.48498"/>
<path d="M254.719 103.699L254.472 179.997" stroke="#706F6F" stroke-width="0.74249"/>
<path d="M532.64 102.965L532.284 179.263" stroke="#706F6F" stroke-width="0.74249"/>
<path d="M696.531 103.699L696.175 179.997" stroke="#706F6F" stroke-width="0.74249"/>
<path d="M827.644 102.965L827.287 179.263" stroke="#706F6F" stroke-width="0.74249"/>
<text fill="#1D1D1B" xml:space="preserve" style="white-space: pre" font-family="Pretendard" font-size="20.8185" font-weight="bold" letter-spacing="-0.650579px"><tspan x="66" y="83.0142">0</tspan></text>
<text fill="#1D1D1B" xml:space="preserve" style="white-space: pre" font-family="Pretendard" font-size="20.8185" font-weight="bold" letter-spacing="-0.650579px"><tspan x="144.555" y="83.0142">10</tspan></text>
<text fill="#1D1D1B" xml:space="preserve" style="white-space: pre" font-family="Pretendard" font-size="20.8185" font-weight="bold" letter-spacing="-0.650579px"><tspan x="223.905" y="83.0142">20</tspan></text>
<text fill="#1D1D1B" xml:space="preserve" style="white-space: pre" font-family="Pretendard" font-size="20.8185" font-weight="bold" letter-spacing="-0.650579px"><tspan x="305.906" y="83.0142">30</tspan></text>
<text fill="#1D1D1B" xml:space="preserve" style="white-space: pre" font-family="Pretendard" font-size="20.8185" font-weight="bold" letter-spacing="-0.650579px"><tspan x="387.588" y="83.0142">40</tspan></text>
<text fill="#1D1D1B" xml:space="preserve" style="white-space: pre" font-family="Pretendard" font-size="20.8185" font-weight="bold" letter-spacing="-0.650579px"><tspan x="469.91" y="83.0142">50</tspan></text>
<text fill="#1D1D1B" xml:space="preserve" style="white-space: pre" font-family="Pretendard" font-size="20.8185" font-weight="bold" letter-spacing="-0.650579px"><tspan x="552.635" y="83.0142">60</tspan></text>
<text fill="#1D1D1B" xml:space="preserve" style="white-space: pre" font-family="Pretendard" font-size="20.8185" font-weight="bold" letter-spacing="-0.650579px"><tspan x="636.698" y="83.0142">70</tspan></text>
<text fill="#1D1D1B" xml:space="preserve" style="white-space: pre" font-family="Pretendard" font-size="20.8185" font-weight="bold" letter-spacing="-0.650579px"><tspan x="716.455" y="83.0142">80</tspan></text>
<text fill="#1D1D1B" xml:space="preserve" style="white-space: pre" font-family="Pretendard" font-size="20.8185" font-weight="bold" letter-spacing="-0.650579px"><tspan x="798.071" y="83.0142">90</tspan></text>
<text fill="#1D1D1B" xml:space="preserve" style="white-space: pre" font-family="Pretendard" font-size="20.8185" font-weight="bold" letter-spacing="-0.650579px"><tspan x="867.437" y="83.0142">100(%)</tspan></text>
<text fill="black" xml:space="preserve" style="white-space: pre" font-family="Pretendard" font-size="24" letter-spacing="-0.5px"><tspan x="131.887" y="131.531">&#xb3d9;&#xd654;&#xcc45;&#10;</tspan><tspan x="130.418" y="167.531">(30%)</tspan></text>
<text fill="black" xml:space="preserve" style="white-space: pre" font-family="Pretendard" font-size="24" letter-spacing="-0.5px"><tspan x="362.387" y="131.531">&#xc5ed;&#xc0ac;&#xcc45;&#10;</tspan><tspan x="361.27" y="167.531">(25%)</tspan></text>
<text fill="black" xml:space="preserve" style="white-space: pre" font-family="Pretendard" font-size="24" letter-spacing="-0.5px"><tspan x="583.387" y="131.531">&#xc704;&#xc778;&#xc804;&#10;</tspan><tspan x="584.168" y="167.531">(21%)</tspan></text>
<text fill="black" xml:space="preserve" style="white-space: pre" font-family="Pretendard" font-size="24" letter-spacing="-0.5px"><tspan x="732.387" y="131.531">&#xacfc;&#xd559;&#xcc45;&#10;</tspan><tspan x="732.934" y="167.531">(18%)</tspan></text>
<text fill="black" xml:space="preserve" style="white-space: pre" font-family="Pretendard" font-size="24" letter-spacing="-0.5px"><tspan x="840.008" y="131.531">&#xae30;&#xd0c0;&#10;</tspan><tspan x="835.363" y="167.531">(6%)</tspan></text>
</svg>
