<svg width="771" height="363" viewBox="0 0 771 363" fill="none" xmlns="http://www.w3.org/2000/svg">
<path d="M770.352 42.2578H666.257V109.126H770.352V42.2578Z" fill="#C7E1F5"/>
<path d="M770.266 42.3594H666.171V109.227H770.266V42.3594Z" stroke="#727171" stroke-width="0.980816" stroke-miterlimit="10"/>
<path d="M666.19 42.3594H631.485V109.227H666.19V42.3594Z" fill="#C8E7E9"/>
<path d="M666.19 42.3594H631.485V109.227H666.19V42.3594Z" stroke="#727171" stroke-width="0.980816" stroke-miterlimit="10"/>
<path d="M631.485 42.3594H575.961V109.227H631.485V42.3594Z" fill="#ECEFCD"/>
<path d="M631.485 42.3594H575.961V109.227H631.485V42.3594Z" stroke="#727171" stroke-width="0.980816" stroke-miterlimit="10"/>
<path d="M575.676 42.2578H450.762V109.126H575.676V42.2578Z" fill="#FEEBC8"/>
<path d="M575.963 42.3594H451.049V109.227H575.963V42.3594Z" stroke="#727171" stroke-width="0.980816" stroke-miterlimit="10"/>
<path d="M451.454 42.2578H76.7119V109.126H451.454V42.2578Z" fill="#FDEADF"/>
<path d="M451.047 42.3594H76.3047V109.227H451.047V42.3594Z" stroke="#727171" stroke-width="0.980816" stroke-miterlimit="10"/>
<path d="M770.427 200.434H673.265V267.301H770.427V200.434Z" fill="#C7E1F5"/>
<path d="M770.266 200.684H673.104V267.551H770.266V200.684Z" stroke="#727171" stroke-width="0.980816" stroke-miterlimit="10"/>
<path d="M673.124 200.684H652.305V267.551H673.124V200.684Z" fill="#C8E7E9"/>
<path d="M673.104 200.684H652.285V267.551H673.104V200.684Z" stroke="#727171" stroke-width="0.980816" stroke-miterlimit="10"/>
<path d="M652.303 200.684H596.779V267.551H652.303V200.684Z" fill="#ECEFCD"/>
<path d="M652.303 200.684H596.779V267.551H652.303V200.684Z" stroke="#727171" stroke-width="0.980816" stroke-miterlimit="10"/>
<path d="M596.905 200.434H492.81V267.301H596.905V200.434Z" fill="#FEEBC8"/>
<path d="M596.78 200.684H492.685V267.551H596.78V200.684Z" stroke="#727171" stroke-width="0.980816" stroke-miterlimit="10"/>
<path d="M493.092 200.434H76.7119V267.301H493.092V200.434Z" fill="#FDEADF"/>
<path d="M492.685 200.684H76.3047V267.551H492.685V200.684Z" stroke="#727171" stroke-width="0.980816" stroke-miterlimit="10"/>
<text fill="#231815" xml:space="preserve" style="white-space: pre" font-family="Pretendard" font-size="21.0478" letter-spacing="-0.438497px"><tspan x="198.524" y="67.2833">&#xc88b;&#xc544;&#xd558;&#xb294; &#xc77c;&#xc774;&#xb77c;</tspan><tspan x="254.203" y="98.8551">&#xc11c;&#10;</tspan><tspan x="235.081" y="130.427">(54%)</tspan></text>
<text fill="#231815" xml:space="preserve" style="white-space: pre" font-family="Pretendard" font-size="21.0478" letter-spacing="-0.438497px"><tspan x="699.969" y="67.2833">&#xae30;&#xd0c0;&#10;</tspan><tspan x="691.675" y="98.8551">(15%)</tspan></text>
<text fill="#231815" xml:space="preserve" style="white-space: pre" font-family="Pretendard" font-size="21.0478" letter-spacing="-0.438497px"><tspan x="703.91" y="225.459">&#xae30;&#xd0c0;&#10;</tspan><tspan x="695.329" y="257.031">(14%)</tspan></text>
<text fill="#231815" xml:space="preserve" style="white-space: pre" font-family="Pretendard" font-size="14.0319" letter-spacing="-0.438497px"><tspan x="487.154" y="59.5274">&#xc798; &#xd574;&#xb0bc; &#xc218;&#10;</tspan><tspan x="475.465" y="80.5753">&#xc788;&#xc744; &#xac83; &#xac19;&#xc544;&#xc11c;&#10;</tspan><tspan x="496.547" y="101.623">(18%)</tspan></text>
<text fill="#231815" xml:space="preserve" style="white-space: pre" font-family="Pretendard" font-size="14.0319" letter-spacing="-0.438497px"><tspan x="517.813" y="217.703">&#xc798; &#xd574;&#xb0bc; &#xc218;&#10;</tspan><tspan x="506.125" y="238.751">&#xc788;&#xc744; &#xac83; &#xac19;&#xc544;&#xc11c;&#10;</tspan><tspan x="527.275" y="259.799">(15%)</tspan></text>
<text fill="#231815" xml:space="preserve" style="white-space: pre" font-family="Pretendard" font-size="21.0478" letter-spacing="-0.438497px"><tspan x="219.548" y="225.459">&#xc88b;&#xc544;&#xd558;&#xb294; &#xc77c;&#xc774;&#xb77c;</tspan><tspan x="275.227" y="257.031">&#xc11c;&#10;</tspan><tspan x="256.227" y="288.603">(60%)</tspan></text>
<text fill="#231815" xml:space="preserve" style="white-space: pre" font-family="Pretendard" font-size="21.0478" letter-spacing="-0.438497px"><tspan x="4.87988" y="83.1037">2021&#xb144;</tspan></text>
<text fill="#231815" xml:space="preserve" style="white-space: pre" font-family="Pretendard" font-size="17.5399" letter-spacing="-0.438497px"><tspan x="339.51" y="138.099">&#xb3c8;&#xc744; &#xb9ce;&#xc774; &#xbc8c; &#xc218; &#xc788;&#xc744; &#xac83; &#xac19;&#xc544;&#xc11c;(8%)</tspan></text>
<text fill="#231815" xml:space="preserve" style="white-space: pre" font-family="Pretendard" font-size="17.5399" letter-spacing="-0.438497px"><tspan x="359.658" y="295.392">&#xb3c8;&#xc744; &#xb9ce;&#xc774; &#xbc8c; &#xc218; &#xc788;&#xc744; &#xac83; &#xac19;&#xc544;&#xc11c;(8%)</tspan></text>
<text fill="#231815" xml:space="preserve" style="white-space: pre" font-family="Pretendard" font-size="17.5399" letter-spacing="-0.438497px"><tspan x="371.922" y="166.22">&#xb098;&#xc758; &#xbc1c;&#xc804; &#xac00;&#xb2a5;&#xc131;&#xc774; &#xd074; &#xac83; &#xac19;&#xc544;&#xc11c;(5%)</tspan></text>
<text fill="#231815" xml:space="preserve" style="white-space: pre" font-family="Pretendard" font-size="17.5399" letter-spacing="-0.438497px"><tspan x="387.689" y="324.392">&#xb098;&#xc758; &#xbc1c;&#xc804; &#xac00;&#xb2a5;&#xc131;&#xc774; &#xd074; &#xac83; &#xac19;&#xc544;&#xc11c;(3%)</tspan></text>
<path d="M578.058 131.845H603.714V96.3672" stroke="#E4007F" stroke-width="0.980816" stroke-miterlimit="10"/>
<path d="M603.713 90.832L606.905 98.6549L603.713 96.7876L600.54 98.6549L603.713 90.832Z" fill="#E4007F"/>
<path d="M623.162 160.306H648.819V96.3672" stroke="#E4007F" stroke-width="0.980816" stroke-miterlimit="10"/>
<path d="M648.837 90.832L652.01 98.6549L648.837 96.7876L645.645 98.6549L648.837 90.832Z" fill="#E4007F"/>
<path d="M597.643 289.58H623.299V254.102" stroke="#E4007F" stroke-width="0.980816" stroke-miterlimit="10"/>
<path d="M623.298 248.562L626.49 256.385L623.298 254.518L620.125 256.385L623.298 248.562Z" fill="#E4007F"/>
<path d="M637.185 318.041H662.861V254.102" stroke="#E4007F" stroke-width="0.980816" stroke-miterlimit="10"/>
<path d="M662.859 248.562L666.032 256.385L662.859 254.518L659.667 256.385L662.859 248.562Z" fill="#E4007F"/>
<text fill="#231815" xml:space="preserve" style="white-space: pre" font-family="Pretendard" font-size="21.0478" letter-spacing="-0.438497px"><tspan x="0.5" y="241.276">2023&#xb144;</tspan></text>
<text fill="#231815" xml:space="preserve" style="white-space: pre" font-family="Pretendard" font-size="14.0319" letter-spacing="-0.438497px"><tspan x="661.876" y="357.422">(&#xcd9c;&#xcc98;: &#xad50;&#xc721;&#xbd80;,2024)</tspan></text>
<path d="M208.642 6.61719C203.041 6.61719 198.517 11.1576 198.517 16.779C198.517 22.4005 203.041 26.9409 208.642 26.9409H566.717C572.318 26.9409 576.843 22.3808 576.843 16.779C576.843 11.1772 572.318 6.61719 566.717 6.61719H208.642Z" fill="#D7DFF1"/>
<path d="M208.642 6.61719C203.041 6.61719 198.517 11.1576 198.517 16.779C198.517 22.4005 203.041 26.9409 208.642 26.9409H566.717C572.318 26.9409 576.843 22.3808 576.843 16.779C576.843 11.1772 572.318 6.61719 566.717 6.61719H208.642Z" stroke="#D7DFF1" stroke-width="1.96163"/>
<path d="M219.746 1.06641C211.09 1.06641 204.078 8.10304 204.078 16.7907C204.078 25.4784 211.09 32.5151 219.746 32.5151H555.631C564.288 32.5151 571.299 25.4784 571.299 16.7907C571.299 8.10304 564.288 1.06641 555.631 1.06641H219.746Z" fill="white"/>
<text fill="#4C487E" xml:space="preserve" style="white-space: pre" font-family="Pretendard" font-size="21.0478" font-weight="bold" letter-spacing="-0.438497px"><tspan x="240.303" y="24.2677">&#xd76c;&#xb9dd; &#xc9c1;&#xc5c5; &#xc120;&#xd0dd; &#xc774;&#xc720;&#xbcc4; &#xd559;&#xc0dd; &#xc218;&#xc758; &#xbe44;&#xc728;</tspan></text>
<path d="M219.746 1.06641C211.09 1.06641 204.078 8.10304 204.078 16.7907C204.078 25.4784 211.09 32.5151 219.746 32.5151H555.631C564.288 32.5151 571.299 25.4784 571.299 16.7907C571.299 8.10304 564.288 1.06641 555.631 1.06641H219.746Z" stroke="#D7DFF1" stroke-width="1.96163"/>
</svg>
