<svg width="171" height="122" viewBox="0 0 171 122" fill="none" xmlns="http://www.w3.org/2000/svg">
<path d="M38.8047 96.382H45.6127L60.1947 86.1562" stroke="#EC008C" stroke-miterlimit="10"/>
<path d="M64.7668 82.1877L60.6866 90.5026L59.623 86.6428L55.3945 85.5534L64.7668 82.1877Z" fill="#EC008C"/>
<path d="M20.2168 93.6406V94.5293H15.1992V95.8281C17.4961 95.9238 18.8496 96.6758 18.8633 97.9609C18.8496 99.3145 17.291 100.08 14.6797 100.08C12.041 100.08 10.4824 99.3145 10.4824 97.9609C10.4824 96.6758 11.8291 95.9238 14.1465 95.8281V94.5293H9.14258V93.6406H20.2168ZM14.6797 96.6484C12.7246 96.6621 11.5625 97.1406 11.5762 97.9609C11.5625 98.7676 12.7246 99.2461 14.6797 99.2461C16.6074 99.2461 17.7832 98.7676 17.7832 97.9609C17.7832 97.1406 16.6074 96.6621 14.6797 96.6484ZM19.2324 88.5273V89.4023H15.377C15.4453 90.7695 17.4551 91.8291 19.6016 92.0547L19.2051 92.9023C17.2158 92.6631 15.3496 91.7744 14.6797 90.4141C14.0166 91.7744 12.1572 92.6631 10.1543 92.9023L9.77148 92.0547C11.877 91.8291 13.9004 90.7695 13.9824 89.4023H10.1543V88.5273H19.2324ZM30.4082 88.5547V89.4297C30.4082 90.3389 30.4082 91.4258 30.1074 92.8887H31.8711V93.7637H26.8125V96.0059H30.4902V100.107H29.4102V96.8945H21.8906V96.0059H25.7461V93.7637H20.7422V92.8887H29.0273C29.3418 91.3984 29.3418 90.3389 29.3418 89.4297H22.1504V88.5547H30.4082ZM1.6084 113.227C1.62207 110.643 2.31934 108.496 3.57715 106.678H4.61621C3.68652 108.031 2.8252 110.793 2.8252 113.227C2.8252 115.66 3.68652 118.436 4.61621 119.789H3.57715C2.31934 117.957 1.62207 115.811 1.6084 113.227ZM12.0791 107.102V117H10.835V108.387H10.7803L8.37402 109.986V108.742L10.835 107.102H12.0791ZM17.5264 117.137C15.4482 117.137 13.999 115.988 14.0127 114.375C13.999 113.09 14.8877 112.037 16.0225 111.859V111.805C15.0381 111.572 14.3955 110.67 14.3955 109.59C14.3955 108.072 15.7217 106.965 17.5264 106.965C19.3311 106.965 20.6572 108.072 20.6709 109.59C20.6572 110.67 20.001 111.572 19.0303 111.805V111.859C20.1514 112.037 21.04 113.09 21.0537 114.375C21.04 115.988 19.5908 117.137 17.5264 117.137ZM17.5264 116.057C18.9482 116.057 19.8232 115.346 19.8232 114.307C19.8232 113.213 18.8525 112.406 17.5264 112.406C16.2002 112.406 15.2158 113.213 15.2432 114.307C15.2158 115.346 16.1045 116.057 17.5264 116.057ZM17.5264 111.367C18.6475 111.367 19.4678 110.684 19.4678 109.686C19.4678 108.701 18.6885 108.031 17.5264 108.031C16.3506 108.031 15.585 108.701 15.585 109.686C15.585 110.684 16.3916 111.367 17.5264 111.367ZM27.3135 111.695C26.0283 111.695 25.3311 110.738 25.3311 109.316C25.3311 107.922 26.0557 106.951 27.3135 106.951C28.6123 106.951 29.2959 107.922 29.2959 109.316C29.2959 110.738 28.585 111.695 27.3135 111.695ZM27.3135 110.848C27.9834 110.848 28.2979 110.246 28.2979 109.316C28.2979 108.4 28.0107 107.785 27.3135 107.799C26.6572 107.799 26.3291 108.4 26.3291 109.316C26.3291 110.246 26.6572 110.848 27.3135 110.848ZM33.3564 117.137C32.0713 117.15 31.3604 116.18 31.374 114.771C31.3604 113.363 32.0986 112.393 33.3564 112.393C34.6416 112.393 35.3252 113.363 35.3252 114.771C35.3252 116.18 34.6143 117.15 33.3564 117.137ZM33.3564 116.289C34.0127 116.289 34.3271 115.688 34.3271 114.771C34.3271 113.842 34.04 113.227 33.3564 113.24C32.7002 113.254 32.3584 113.842 32.3584 114.771C32.3584 115.688 32.6865 116.289 33.3564 116.289ZM26.3018 117L33.1104 107.102H34.2178L27.4092 117H26.3018ZM39.3916 113.227C39.3779 115.811 38.6807 117.957 37.4229 119.789H36.3838C37.3135 118.436 38.1748 115.66 38.1748 113.227C38.1748 110.793 37.3135 108.031 36.3838 106.678H37.4229C38.6807 108.496 39.3779 110.643 39.3916 113.227Z" fill="black"/>
<g clip-path="url(#clip0_11284_25212)">
<path d="M115.008 65.5928L82.418 20.7725C92.3152 13.5706 102.749 10.1797 115.008 10.1797V65.5928Z" fill="#BADAF3"/>
<path d="M115.008 65.5928L82.418 20.7725C92.3152 13.5706 102.749 10.1797 115.008 10.1797V65.5928Z" stroke="#6D6E71" stroke-width="0.724544" stroke-miterlimit="10"/>
<path d="M115.01 65.5937L59.6985 69.4628C58.3218 49.9291 66.5527 32.2792 82.4202 20.7734L115.01 65.5937Z" fill="#BCE4E5"/>
<path d="M115.01 65.5937L59.6985 69.4628C58.3218 49.9291 66.5527 32.2792 82.4202 20.7734L115.01 65.5937Z" stroke="#6D6E71" stroke-width="0.724544" stroke-miterlimit="10"/>
<path d="M115.008 65.5938L95.141 117.326C74.5494 109.429 61.2323 91.4455 59.6963 69.4628L115.008 65.5938Z" fill="#E6E8C7"/>
<path d="M115.008 65.5938L95.141 117.326C74.5494 109.429 61.2323 91.4455 59.6963 69.4628L115.008 65.5938Z" stroke="#6D6E71" stroke-width="0.724544" stroke-miterlimit="10"/>
<path d="M115.01 65.5938L165.264 89.011C152.845 115.631 122.588 127.847 95.1426 117.326L115.01 65.5938Z" fill="#FFE5C2"/>
<path d="M115.01 65.5938L165.264 89.011C152.845 115.631 122.588 127.847 95.1426 117.326L115.01 65.5938Z" stroke="#6D6E71" stroke-width="0.724544" stroke-miterlimit="10"/>
<path d="M115.006 65.5928V10.1797C145.625 10.1797 170.448 34.9881 170.448 65.5928C170.448 74.1569 168.883 81.243 165.26 89.0101L115.006 65.5928Z" fill="#FDE3D7"/>
<path d="M115.006 65.5928V10.1797C145.625 10.1797 170.448 34.9881 170.448 65.5928C170.448 74.1569 168.883 81.243 165.26 89.0101L115.006 65.5928Z" fill="#FDE3D7"/>
<path d="M115.006 65.5928V10.1797C145.625 10.1797 170.448 34.9881 170.448 65.5928C170.448 74.1569 168.883 81.243 165.26 89.0101L115.006 65.5928Z" stroke="#6D6E71" stroke-width="0.724544" stroke-miterlimit="10"/>
<path d="M115.006 65.5928V10.1797C145.625 10.1797 170.448 34.9881 170.448 65.5928C170.448 74.1569 168.883 81.243 165.26 89.0101L115.006 65.5928Z" stroke="#6D6E71" stroke-width="0.724544" stroke-miterlimit="10"/>
<path d="M115.01 10.1973C102.765 10.1973 92.3319 13.5881 82.4202 20.7756C66.5527 32.2814 58.3218 49.9313 59.6985 69.465C61.2345 91.4476 74.5516 109.431 95.1432 117.328C122.589 127.863 152.846 115.647 165.265 89.0132C168.887 81.246 170.452 74.16 170.452 65.5959C170.452 35.0056 145.629 10.1973 115.01 10.1973Z" stroke="#6D6E71" stroke-width="1.08682" stroke-linejoin="bevel"/>
</g>
<path d="M80.6426 32.7578V33.6465H70.6895V32.7578H75.1465V31.1582H76.1992V32.7578H80.6426ZM81.2715 40.7969V41.6855H70.1426V40.7969H75.1465V39.0879C72.9863 38.9717 71.6738 38.1309 71.6875 36.7637C71.6738 35.3145 73.2051 34.4668 75.6797 34.4805C78.127 34.4668 79.6719 35.3145 79.6719 36.7637C79.6719 38.1309 78.3457 38.9717 76.1992 39.0879V40.7969H81.2715ZM75.6797 35.3281C73.8613 35.3281 72.7539 35.8613 72.7676 36.7637C72.7539 37.6934 73.8613 38.2129 75.6797 38.2266C77.4707 38.2129 78.5781 37.6934 78.5781 36.7637C78.5781 35.8613 77.4707 35.3281 75.6797 35.3281ZM87.8809 32.6758C87.8672 34.3027 90.041 35.6836 92.1602 35.998L91.7637 36.8457C89.8633 36.5244 88.0176 35.5127 87.2793 34.043C86.541 35.5127 84.6885 36.5244 82.8223 36.8457L82.3984 35.998C84.5039 35.6836 86.6777 34.3027 86.6777 32.6758V32.5938H82.7812V31.7188H91.7637V32.5938H87.8809V32.6758ZM92.8164 37.8848V38.7734H87.7852V43.1074H86.7324V38.7734H81.7422V37.8848H92.8164ZM62.5605 58.2266C62.5742 55.6426 63.2715 53.4961 64.5293 51.6777H65.5684C64.6387 53.0312 63.7773 55.793 63.7773 58.2266C63.7773 60.6602 64.6387 63.4355 65.5684 64.7891H64.5293C63.2715 62.957 62.5742 60.8105 62.5605 58.2266ZM73.0312 52.1016V62H71.7871V53.3867H71.7324L69.3262 54.9863V53.7422L71.7871 52.1016H73.0312ZM78.6152 62.1367C76.8926 62.1094 75.0059 61.0977 75.0059 57.4336C75.0059 53.9336 76.4414 51.9648 78.7656 51.9648C80.502 51.9648 81.7188 53.0312 81.9785 54.5898H80.7617C80.5293 53.7148 79.873 53.0586 78.7656 53.0586C77.1387 53.0586 76.168 54.4531 76.168 56.832H76.291C76.8652 56.0117 77.7676 55.5195 78.834 55.5195C80.5977 55.5195 82.0605 56.8867 82.0605 58.8008C82.0605 60.6602 80.6934 62.1504 78.6152 62.1367ZM78.6152 61.0566C79.9004 61.0566 80.8574 60.0449 80.8711 58.8145C80.8574 57.5977 79.9414 56.5996 78.6426 56.5996C77.3438 56.5996 76.3457 57.6523 76.332 58.8281C76.332 59.9902 77.2891 61.0566 78.6152 61.0566ZM88.3613 56.6953C87.0762 56.6953 86.3789 55.7383 86.3789 54.3164C86.3789 52.9219 87.1035 51.9512 88.3613 51.9512C89.6602 51.9512 90.3438 52.9219 90.3438 54.3164C90.3438 55.7383 89.6328 56.6953 88.3613 56.6953ZM88.3613 55.8477C89.0312 55.8477 89.3457 55.2461 89.3457 54.3164C89.3457 53.4004 89.0586 52.7852 88.3613 52.7988C87.7051 52.7988 87.377 53.4004 87.377 54.3164C87.377 55.2461 87.7051 55.8477 88.3613 55.8477ZM94.4043 62.1367C93.1191 62.1504 92.4082 61.1797 92.4219 59.7715C92.4082 58.3633 93.1465 57.3926 94.4043 57.3926C95.6895 57.3926 96.373 58.3633 96.373 59.7715C96.373 61.1797 95.6621 62.1504 94.4043 62.1367ZM94.4043 61.2891C95.0605 61.2891 95.375 60.6875 95.375 59.7715C95.375 58.8418 95.0879 58.2266 94.4043 58.2402C93.748 58.2539 93.4062 58.8418 93.4062 59.7715C93.4062 60.6875 93.7344 61.2891 94.4043 61.2891ZM87.3496 62L94.1582 52.1016H95.2656L88.457 62H87.3496ZM100.439 58.2266C100.426 60.8105 99.7285 62.957 98.4707 64.7891H97.4316C98.3613 63.4355 99.2227 60.6602 99.2227 58.2266C99.2227 55.793 98.3613 53.0312 97.4316 51.6777H98.4707C99.7285 53.4961 100.426 55.6426 100.439 58.2266Z" fill="black"/>
<path d="M72.7852 11.1316H95.7043L98.8963 24.6875" stroke="#EC008C" stroke-miterlimit="10"/>
<path d="M99.4881 28.8199L93.5864 21.4436L97.8233 22.5721L101.008 19.8418L99.4881 28.8199Z" fill="#EC008C"/>
<path d="M16.3438 3.95312V16.1074H15.2637V3.95312H16.3438ZM12.748 5.2793C12.7344 8.7793 11.1074 11.8691 7.0332 13.8242L6.44531 12.9492C9.7334 11.3906 11.4082 9.05957 11.6543 6.1543H7.00586V5.2793H12.748ZM24.1289 5.06055V5.96289H19.5078V8.47852H23.8555V9.35352H19.5078V12.293C21.6953 12.293 23.2334 12.2041 25.0586 11.8965L25.1816 12.7852C23.2812 13.0996 21.6816 13.168 19.3848 13.1816H18.4277V5.06055H24.1289ZM27.3008 3.95312V8.84766H29.3379V9.76367H27.3008V16.1074H26.2344V3.95312H27.3008ZM30.2461 11.2266C30.2598 8.64258 30.957 6.49609 32.2148 4.67773H33.2539C32.3242 6.03125 31.4629 8.79297 31.4629 11.2266C31.4629 13.6602 32.3242 16.4355 33.2539 17.7891H32.2148C30.957 15.957 30.2598 13.8105 30.2461 11.2266ZM40.7168 5.10156V15H39.4727V6.38672H39.418L37.0117 7.98633V6.74219L39.4727 5.10156H40.7168ZM42.8555 15L42.8418 14.0977L46.2188 10.543C47.3945 9.29883 47.9551 8.62891 47.9551 7.71289C47.9551 6.70117 47.0938 6.03125 45.9863 6.03125C44.8105 6.03125 44.0586 6.7832 44.0586 7.89062H42.8965C42.8828 6.14062 44.2363 4.96484 46.0273 4.96484C47.8184 4.96484 49.1035 6.16797 49.1035 7.71289C49.1035 8.82031 48.584 9.68164 46.834 11.4863L44.5645 13.8242V13.9062H49.2812V15H42.8555ZM55.6777 9.69531C54.3926 9.69531 53.6953 8.73828 53.6953 7.31641C53.6953 5.92188 54.4199 4.95117 55.6777 4.95117C56.9766 4.95117 57.6602 5.92188 57.6602 7.31641C57.6602 8.73828 56.9492 9.69531 55.6777 9.69531ZM55.6777 8.84766C56.3477 8.84766 56.6621 8.24609 56.6621 7.31641C56.6621 6.40039 56.375 5.78516 55.6777 5.79883C55.0215 5.79883 54.6934 6.40039 54.6934 7.31641C54.6934 8.24609 55.0215 8.84766 55.6777 8.84766ZM61.7207 15.1367C60.4355 15.1504 59.7246 14.1797 59.7383 12.7715C59.7246 11.3633 60.4629 10.3926 61.7207 10.3926C63.0059 10.3926 63.6895 11.3633 63.6895 12.7715C63.6895 14.1797 62.9785 15.1504 61.7207 15.1367ZM61.7207 14.2891C62.377 14.2891 62.6914 13.6875 62.6914 12.7715C62.6914 11.8418 62.4043 11.2266 61.7207 11.2402C61.0645 11.2539 60.7227 11.8418 60.7227 12.7715C60.7227 13.6875 61.0508 14.2891 61.7207 14.2891ZM54.666 15L61.4746 5.10156H62.582L55.7734 15H54.666ZM67.7559 11.2266C67.7422 13.8105 67.0449 15.957 65.7871 17.7891H64.748C65.6777 16.4355 66.5391 13.6602 66.5391 11.2266C66.5391 8.79297 65.6777 6.03125 64.748 4.67773H65.7871C67.0449 6.49609 67.7422 8.64258 67.7559 11.2266Z" fill="black"/>
<path d="M118.588 77.4043C120.406 77.418 121.732 78.5117 121.732 80.0977C121.732 81.6836 120.406 82.7773 118.588 82.7773C116.742 82.7773 115.43 81.6836 115.43 80.0977C115.43 78.5117 116.742 77.418 118.588 77.4043ZM118.588 78.3066C117.371 78.3066 116.469 79.0449 116.482 80.0977C116.469 81.1641 117.371 81.9023 118.588 81.9023C119.791 81.9023 120.693 81.1641 120.693 80.0977C120.693 79.0449 119.791 78.3066 118.588 78.3066ZM125.178 76.9531V83.2012H124.111V76.9531H125.178ZM125.178 83.7891V86.7148H118.355V88.082H125.615V88.9434H117.303V85.9082H124.111V84.6504H117.275V83.7891H125.178ZM129.285 77.4453V78.9902H135.301V77.4453H136.367V82.2988H132.812V83.5977H137.816V84.4863H126.742V83.5977H131.746V82.2988H128.219V77.4453H129.285ZM129.285 81.4375H135.301V79.8379H129.285V81.4375ZM136.586 87.9453V88.8477H128.178V85.457H129.258V87.9453H136.586ZM106.556 102.227C106.569 99.6426 107.267 97.4961 108.524 95.6777H109.563C108.634 97.0312 107.772 99.793 107.772 102.227C107.772 104.66 108.634 107.436 109.563 108.789H108.524C107.267 106.957 106.569 104.811 106.556 102.227ZM113.526 106L113.513 105.098L116.89 101.543C118.065 100.299 118.626 99.6289 118.626 98.7129C118.626 97.7012 117.765 97.0312 116.657 97.0312C115.481 97.0312 114.729 97.7832 114.729 98.8906H113.567C113.554 97.1406 114.907 95.9648 116.698 95.9648C118.489 95.9648 119.774 97.168 119.774 98.7129C119.774 99.8203 119.255 100.682 117.505 102.486L115.235 104.824V104.906H119.952V106H113.526ZM120.778 103.977V102.965L125.235 96.1016H126.753V102.896H128.134V103.977H126.753V106H125.577V103.977H120.778ZM122.104 102.896H125.577V97.6602H125.454L122.104 102.814V102.896ZM134.366 100.695C133.081 100.695 132.384 99.7383 132.384 98.3164C132.384 96.9219 133.108 95.9512 134.366 95.9512C135.665 95.9512 136.349 96.9219 136.349 98.3164C136.349 99.7383 135.638 100.695 134.366 100.695ZM134.366 99.8477C135.036 99.8477 135.351 99.2461 135.351 98.3164C135.351 97.4004 135.063 96.7852 134.366 96.7988C133.71 96.7988 133.382 97.4004 133.382 98.3164C133.382 99.2461 133.71 99.8477 134.366 99.8477ZM140.409 106.137C139.124 106.15 138.413 105.18 138.427 103.771C138.413 102.363 139.151 101.393 140.409 101.393C141.694 101.393 142.378 102.363 142.378 103.771C142.378 105.18 141.667 106.15 140.409 106.137ZM140.409 105.289C141.065 105.289 141.38 104.688 141.38 103.771C141.38 102.842 141.093 102.227 140.409 102.24C139.753 102.254 139.411 102.842 139.411 103.771C139.411 104.688 139.739 105.289 140.409 105.289ZM133.354 106L140.163 96.1016H141.271L134.462 106H133.354ZM146.444 102.227C146.431 104.811 145.733 106.957 144.476 108.789H143.437C144.366 107.436 145.228 104.66 145.228 102.227C145.228 99.793 144.366 97.0312 143.437 95.6777H144.476C145.733 97.4961 146.431 99.6426 146.444 102.227Z" fill="black"/>
<path d="M136.473 32.1562V40.0586H130.854V32.1562H136.473ZM131.906 33.0176V39.1836H135.42V33.0176H131.906ZM140.164 30.9531V43.1348H139.084V30.9531H140.164ZM151.408 31.5547V32.4297C151.408 33.3389 151.408 34.4258 151.107 35.8887H152.871V36.7637H147.812V39.0059H151.49V43.1074H150.41V39.8945H142.891V39.0059H146.746V36.7637H141.742V35.8887H150.027C150.342 34.3984 150.342 33.3389 150.342 32.4297H143.15V31.5547H151.408ZM121.494 56.2266C121.508 53.6426 122.205 51.4961 123.463 49.6777H124.502C123.572 51.0312 122.711 53.793 122.711 56.2266C122.711 58.6602 123.572 61.4355 124.502 62.7891H123.463C122.205 60.957 121.508 58.8105 121.494 56.2266ZM131.883 60.1367C129.914 60.1367 128.506 59.084 128.438 57.5117H129.682C129.75 58.4551 130.693 59.043 131.869 59.043C133.168 59.043 134.125 58.332 134.125 57.3066C134.125 56.2266 133.264 55.4609 131.719 55.4609H130.912V54.3809H131.719C132.922 54.3809 133.756 53.7109 133.756 52.6855C133.756 51.7012 133.031 51.0312 131.91 51.0312C130.857 51.0312 129.887 51.6191 129.832 52.5898H128.643C128.711 51.0176 130.16 49.9648 131.924 49.9648C133.811 49.9648 134.959 51.1953 134.945 52.6172C134.959 53.7383 134.303 54.5723 133.264 54.8594V54.9277C134.549 55.1328 135.342 56.0488 135.328 57.3066C135.342 58.9336 133.852 60.1367 131.883 60.1367ZM136.605 60L136.592 59.0977L139.969 55.543C141.145 54.2988 141.705 53.6289 141.705 52.7129C141.705 51.7012 140.844 51.0312 139.736 51.0312C138.561 51.0312 137.809 51.7832 137.809 52.8906H136.646C136.633 51.1406 137.986 49.9648 139.777 49.9648C141.568 49.9648 142.854 51.168 142.854 52.7129C142.854 53.8203 142.334 54.6816 140.584 56.4863L138.314 58.8242V58.9062H143.031V60H136.605ZM149.428 54.6953C148.143 54.6953 147.445 53.7383 147.445 52.3164C147.445 50.9219 148.17 49.9512 149.428 49.9512C150.727 49.9512 151.41 50.9219 151.41 52.3164C151.41 53.7383 150.699 54.6953 149.428 54.6953ZM149.428 53.8477C150.098 53.8477 150.412 53.2461 150.412 52.3164C150.412 51.4004 150.125 50.7852 149.428 50.7988C148.771 50.7988 148.443 51.4004 148.443 52.3164C148.443 53.2461 148.771 53.8477 149.428 53.8477ZM155.471 60.1367C154.186 60.1504 153.475 59.1797 153.488 57.7715C153.475 56.3633 154.213 55.3926 155.471 55.3926C156.756 55.3926 157.439 56.3633 157.439 57.7715C157.439 59.1797 156.729 60.1504 155.471 60.1367ZM155.471 59.2891C156.127 59.2891 156.441 58.6875 156.441 57.7715C156.441 56.8418 156.154 56.2266 155.471 56.2402C154.814 56.2539 154.473 56.8418 154.473 57.7715C154.473 58.6875 154.801 59.2891 155.471 59.2891ZM148.416 60L155.225 50.1016H156.332L149.523 60H148.416ZM161.506 56.2266C161.492 58.8105 160.795 60.957 159.537 62.7891H158.498C159.428 61.4355 160.289 58.6602 160.289 56.2266C160.289 53.793 159.428 51.0312 158.498 49.6777H159.537C160.795 51.4961 161.492 53.6426 161.506 56.2266Z" fill="black"/>
<defs>
<clipPath id="clip0_11284_25212">
<rect width="112" height="112" fill="white" transform="translate(59 9.64453)"/>
</clipPath>
</defs>
</svg>
