<svg width="260" height="79" viewBox="0 0 260 79" fill="none" xmlns="http://www.w3.org/2000/svg">
<mask id="path-1-inside-1_11284_25292" fill="white">
<path d="M0 0H80V58H0V0Z"/>
</mask>
<path d="M0 0H80V58H0V0Z" fill="#F1E2D6"/>
<path d="M0 0V-1H-1V0H0ZM0 58H-1V59H0V58ZM0 1H80V-1H0V1ZM80 57H0V59H80V57ZM1 58V0H-1V58H1Z" fill="#6D6E71" mask="url(#path-1-inside-1_11284_25292)"/>
<path d="M32.7197 25H31.4346L35.0576 15.1016H36.3564L39.9795 25H38.6807L37.6963 22.2109H33.7178L32.7197 25ZM34.0869 21.1309H37.3135L35.7412 16.7012H35.6592L34.0869 21.1309ZM47.1084 15.3203V16.1953H40.2314V15.3203H43.1846V13.8574H44.251V15.3203H47.1084ZM43.7041 16.8242C45.3311 16.8242 46.4795 17.7129 46.4795 19.0664C46.4795 20.4336 45.3311 21.3223 43.7041 21.3223C42.0635 21.3223 40.9424 20.4336 40.9561 19.0664C40.9424 17.7129 42.0635 16.8242 43.7041 16.8242ZM43.7041 17.6309C42.6514 17.6445 41.9541 18.2188 41.9541 19.0664C41.9541 19.9277 42.6514 20.4883 43.7041 20.4883C44.7568 20.4883 45.4678 19.9277 45.4814 19.0664C45.4678 18.2188 44.7568 17.6445 43.7041 17.6309ZM50.2939 13.9531V21.8145H49.2139V20.1328H47.0947V19.2441H49.2139V17.7676H47.1084V16.8789H49.2139V13.9531H50.2939ZM46.2881 21.9375C48.8174 21.9375 50.3623 22.6895 50.3623 24.0156C50.3623 25.3145 48.8174 26.0801 46.2881 26.0801C43.7314 26.0801 42.2002 25.3145 42.2002 24.0156C42.2002 22.6895 43.7314 21.9375 46.2881 21.9375ZM46.2881 22.7715C44.4424 22.7715 43.3076 23.2227 43.3076 24.0156C43.3076 24.7812 44.4424 25.2461 46.2881 25.2461C48.1064 25.2461 49.2275 24.7812 49.2275 24.0156C49.2275 23.2227 48.1064 22.7715 46.2881 22.7715ZM19.9326 39.2266C19.9463 36.6426 20.6436 34.4961 21.9014 32.6777H22.9404C22.0107 34.0312 21.1494 36.793 21.1494 39.2266C21.1494 41.6602 22.0107 44.4355 22.9404 45.7891H21.9014C20.6436 43.957 19.9463 41.8105 19.9326 39.2266ZM30.3213 43.1367C28.3525 43.1367 26.9443 42.084 26.876 40.5117H28.1201C28.1885 41.4551 29.1318 42.043 30.3076 42.043C31.6064 42.043 32.5635 41.332 32.5635 40.3066C32.5635 39.2266 31.7021 38.4609 30.1572 38.4609H29.3506V37.3809H30.1572C31.3604 37.3809 32.1943 36.7109 32.1943 35.6855C32.1943 34.7012 31.4697 34.0312 30.3486 34.0312C29.2959 34.0312 28.3252 34.6191 28.2705 35.5898H27.0811C27.1494 34.0176 28.5986 32.9648 30.3623 32.9648C32.249 32.9648 33.3975 34.1953 33.3838 35.6172C33.3975 36.7383 32.7412 37.5723 31.7021 37.8594V37.9277C32.9873 38.1328 33.7803 39.0488 33.7666 40.3066C33.7803 41.9336 32.29 43.1367 30.3213 43.1367ZM38.2842 43.1367C36.083 43.1367 34.8252 41.291 34.8252 38.0508C34.8252 34.8379 36.1104 32.9648 38.2842 32.9648C40.458 32.9648 41.7432 34.8379 41.7432 38.0508C41.7432 41.291 40.4717 43.1367 38.2842 43.1367ZM38.2842 42.043C39.7061 42.043 40.54 40.6074 40.54 38.0508C40.54 35.4941 39.7061 34.0312 38.2842 34.0312C36.8623 34.0312 36.0146 35.4941 36.0146 38.0508C36.0146 40.6074 36.8486 42.043 38.2842 42.043ZM47.9893 37.6953C46.7041 37.6953 46.0068 36.7383 46.0068 35.3164C46.0068 33.9219 46.7314 32.9512 47.9893 32.9512C49.2881 32.9512 49.9717 33.9219 49.9717 35.3164C49.9717 36.7383 49.2607 37.6953 47.9893 37.6953ZM47.9893 36.8477C48.6592 36.8477 48.9736 36.2461 48.9736 35.3164C48.9736 34.4004 48.6865 33.7852 47.9893 33.7988C47.333 33.7988 47.0049 34.4004 47.0049 35.3164C47.0049 36.2461 47.333 36.8477 47.9893 36.8477ZM54.0322 43.1367C52.7471 43.1504 52.0361 42.1797 52.0498 40.7715C52.0361 39.3633 52.7744 38.3926 54.0322 38.3926C55.3174 38.3926 56.001 39.3633 56.001 40.7715C56.001 42.1797 55.29 43.1504 54.0322 43.1367ZM54.0322 42.2891C54.6885 42.2891 55.0029 41.6875 55.0029 40.7715C55.0029 39.8418 54.7158 39.2266 54.0322 39.2402C53.376 39.2539 53.0342 39.8418 53.0342 40.7715C53.0342 41.6875 53.3623 42.2891 54.0322 42.2891ZM46.9775 43L53.7861 33.1016H54.8936L48.085 43H46.9775ZM60.0674 39.2266C60.0537 41.8105 59.3564 43.957 58.0986 45.7891H57.0596C57.9893 44.4355 58.8506 41.6602 58.8506 39.2266C58.8506 36.793 57.9893 34.0312 57.0596 32.6777H58.0986C59.3564 34.4961 60.0537 36.6426 60.0674 39.2266Z" fill="black"/>
<mask id="path-4-inside-2_11284_25292" fill="white">
<path d="M80 0H160V58H80V0Z"/>
</mask>
<path d="M80 0H160V58H80V0Z" fill="#FFE5C2"/>
<path d="M80 0V-1H79V0H80ZM80 58H79V59H80V58ZM80 1H160V-1H80V1ZM160 57H80V59H160V57ZM81 58V0H79V58H81Z" fill="#6D6E71" mask="url(#path-4-inside-2_11284_25292)"/>
<path d="M109.633 26V14.6875H113.602C115.977 14.6875 117.086 16.0156 117.086 17.6875C117.086 19.1406 116.227 19.7969 115.242 20.0625V20.1719C116.289 20.2344 117.539 21.2031 117.539 23C117.539 24.7031 116.414 26 113.742 26H109.633ZM113.727 24.75C115.492 24.75 116.18 23.9688 116.18 22.9844C116.18 21.8281 115.258 20.8594 113.805 20.8594H111.039V24.75H113.727ZM113.555 19.6406C114.773 19.6406 115.742 18.8906 115.742 17.7031C115.742 16.7188 115.086 15.9375 113.602 15.9375H111.039V19.6406H113.555ZM126.227 14.9375V15.9375H118.367V14.9375H121.742V13.2656H122.961V14.9375H126.227ZM122.336 16.6562C124.195 16.6562 125.508 17.6719 125.508 19.2188C125.508 20.7812 124.195 21.7969 122.336 21.7969C120.461 21.7969 119.18 20.7812 119.195 19.2188C119.18 17.6719 120.461 16.6562 122.336 16.6562ZM122.336 17.5781C121.133 17.5938 120.336 18.25 120.336 19.2188C120.336 20.2031 121.133 20.8438 122.336 20.8438C123.539 20.8438 124.352 20.2031 124.367 19.2188C124.352 18.25 123.539 17.5938 122.336 17.5781ZM129.867 13.375V22.3594H128.633V20.4375H126.211V19.4219H128.633V17.7344H126.227V16.7188H128.633V13.375H129.867ZM125.289 22.5C128.18 22.5 129.945 23.3594 129.945 24.875C129.945 26.3594 128.18 27.2344 125.289 27.2344C122.367 27.2344 120.617 26.3594 120.617 24.875C120.617 23.3594 122.367 22.5 125.289 22.5ZM125.289 23.4531C123.18 23.4531 121.883 23.9688 121.883 24.875C121.883 25.75 123.18 26.2812 125.289 26.2812C127.367 26.2812 128.648 25.75 128.648 24.875C128.648 23.9688 127.367 23.4531 125.289 23.4531ZM96.8516 39.6875C96.8672 36.7344 97.6641 34.2812 99.1016 32.2031H100.289C99.2266 33.75 98.2422 36.9062 98.2422 39.6875C98.2422 42.4688 99.2266 45.6406 100.289 47.1875H99.1016C97.6641 45.0938 96.8672 42.6406 96.8516 39.6875ZM108.867 44.1562C106.617 44.1562 105.008 42.9531 104.93 41.1562H106.352C106.43 42.2344 107.508 42.9062 108.852 42.9062C110.336 42.9062 111.43 42.0938 111.43 40.9219C111.43 39.6875 110.445 38.8125 108.68 38.8125H107.758V37.5781H108.68C110.055 37.5781 111.008 36.8125 111.008 35.6406C111.008 34.5156 110.18 33.75 108.898 33.75C107.695 33.75 106.586 34.4219 106.523 35.5312H105.164C105.242 33.7344 106.898 32.5312 108.914 32.5312C111.07 32.5312 112.383 33.9375 112.367 35.5625C112.383 36.8438 111.633 37.7969 110.445 38.125V38.2031C111.914 38.4375 112.82 39.4844 112.805 40.9219C112.82 42.7812 111.117 44.1562 108.867 44.1562ZM118.039 44.1562C115.523 44.1562 114.086 42.0469 114.086 38.3438C114.086 34.6719 115.555 32.5312 118.039 32.5312C120.523 32.5312 121.992 34.6719 121.992 38.3438C121.992 42.0469 120.539 44.1562 118.039 44.1562ZM118.039 42.9062C119.664 42.9062 120.617 41.2656 120.617 38.3438C120.617 35.4219 119.664 33.75 118.039 33.75C116.414 33.75 115.445 35.4219 115.445 38.3438C115.445 41.2656 116.398 42.9062 118.039 42.9062ZM129.273 37.9375C127.805 37.9375 127.008 36.8438 127.008 35.2188C127.008 33.625 127.836 32.5156 129.273 32.5156C130.758 32.5156 131.539 33.625 131.539 35.2188C131.539 36.8438 130.727 37.9375 129.273 37.9375ZM129.273 36.9688C130.039 36.9688 130.398 36.2812 130.398 35.2188C130.398 34.1719 130.07 33.4688 129.273 33.4844C128.523 33.4844 128.148 34.1719 128.148 35.2188C128.148 36.2812 128.523 36.9688 129.273 36.9688ZM136.18 44.1562C134.711 44.1719 133.898 43.0625 133.914 41.4531C133.898 39.8438 134.742 38.7344 136.18 38.7344C137.648 38.7344 138.43 39.8438 138.43 41.4531C138.43 43.0625 137.617 44.1719 136.18 44.1562ZM136.18 43.1875C136.93 43.1875 137.289 42.5 137.289 41.4531C137.289 40.3906 136.961 39.6875 136.18 39.7031C135.43 39.7188 135.039 40.3906 135.039 41.4531C135.039 42.5 135.414 43.1875 136.18 43.1875ZM128.117 44L135.898 32.6875H137.164L129.383 44H128.117ZM143.148 39.6875C143.133 42.6406 142.336 45.0938 140.898 47.1875H139.711C140.773 45.6406 141.758 42.4688 141.758 39.6875C141.758 36.9062 140.773 33.75 139.711 32.2031H140.898C142.336 34.2812 143.133 36.7344 143.148 39.6875Z" fill="black"/>
<mask id="path-7-inside-3_11284_25292" fill="white">
<path d="M160 0H230V58H160V0Z"/>
</mask>
<path d="M160 0H230V58H160V0Z" fill="#E6E8C7"/>
<path d="M160 0V-1H159V0H160ZM160 58H159V59H160V58ZM160 1H230V-1H160V1ZM230 57H160V59H230V57ZM161 58V0H159V58H161Z" fill="#6D6E71" mask="url(#path-7-inside-3_11284_25292)"/>
<path d="M195.082 20.0508C195.082 23.1816 193.236 25.1367 190.707 25.1367C188.164 25.1367 186.332 23.1816 186.332 20.0508C186.332 16.9199 188.164 14.9648 190.707 14.9648C193.236 14.9648 195.082 16.9199 195.082 20.0508ZM193.893 20.0508C193.893 17.4941 192.498 16.1133 190.707 16.1133C188.916 16.1133 187.521 17.4941 187.521 20.0508C187.521 22.6074 188.916 23.9883 190.707 23.9883C192.498 23.9883 193.893 22.6074 193.893 20.0508ZM202.676 15.3203V16.1953H195.799V15.3203H198.752V13.8574H199.818V15.3203H202.676ZM199.271 16.8242C200.898 16.8242 202.047 17.7129 202.047 19.0664C202.047 20.4336 200.898 21.3223 199.271 21.3223C197.631 21.3223 196.51 20.4336 196.523 19.0664C196.51 17.7129 197.631 16.8242 199.271 16.8242ZM199.271 17.6309C198.219 17.6445 197.521 18.2188 197.521 19.0664C197.521 19.9277 198.219 20.4883 199.271 20.4883C200.324 20.4883 201.035 19.9277 201.049 19.0664C201.035 18.2188 200.324 17.6445 199.271 17.6309ZM205.861 13.9531V21.8145H204.781V20.1328H202.662V19.2441H204.781V17.7676H202.676V16.8789H204.781V13.9531H205.861ZM201.855 21.9375C204.385 21.9375 205.93 22.6895 205.93 24.0156C205.93 25.3145 204.385 26.0801 201.855 26.0801C199.299 26.0801 197.768 25.3145 197.768 24.0156C197.768 22.6895 199.299 21.9375 201.855 21.9375ZM201.855 22.7715C200.01 22.7715 198.875 23.2227 198.875 24.0156C198.875 24.7812 200.01 25.2461 201.855 25.2461C203.674 25.2461 204.795 24.7812 204.795 24.0156C204.795 23.2227 203.674 22.7715 201.855 22.7715ZM175.138 39.2266C175.151 36.6426 175.849 34.4961 177.106 32.6777H178.146C177.216 34.0312 176.354 36.793 176.354 39.2266C176.354 41.6602 177.216 44.4355 178.146 45.7891H177.106C175.849 43.957 175.151 41.8105 175.138 39.2266ZM182.108 43L182.095 42.0977L185.472 38.543C186.647 37.2988 187.208 36.6289 187.208 35.7129C187.208 34.7012 186.347 34.0312 185.239 34.0312C184.063 34.0312 183.312 34.7832 183.312 35.8906H182.149C182.136 34.1406 183.489 32.9648 185.28 32.9648C187.071 32.9648 188.356 34.168 188.356 35.7129C188.356 36.8203 187.837 37.6816 186.087 39.4863L183.817 41.8242V41.9062H188.534V43H182.108ZM193.052 43.1367C191.261 43.1367 189.907 42.0293 189.839 40.5117H191.028C191.124 41.4004 191.985 42.0566 193.052 42.0566C194.337 42.0566 195.267 41.1133 195.267 39.8691C195.267 38.584 194.296 37.6406 192.97 37.627C192.136 37.6133 191.493 37.873 191.124 38.5156H189.935L190.632 33.1016H195.991V34.1953H191.657L191.288 37.0938H191.384C191.821 36.752 192.491 36.5195 193.188 36.5195C195.075 36.5195 196.47 37.9141 196.47 39.8418C196.47 41.7559 195.021 43.1367 193.052 43.1367ZM202.784 37.6953C201.499 37.6953 200.802 36.7383 200.802 35.3164C200.802 33.9219 201.526 32.9512 202.784 32.9512C204.083 32.9512 204.767 33.9219 204.767 35.3164C204.767 36.7383 204.056 37.6953 202.784 37.6953ZM202.784 36.8477C203.454 36.8477 203.769 36.2461 203.769 35.3164C203.769 34.4004 203.481 33.7852 202.784 33.7988C202.128 33.7988 201.8 34.4004 201.8 35.3164C201.8 36.2461 202.128 36.8477 202.784 36.8477ZM208.827 43.1367C207.542 43.1504 206.831 42.1797 206.845 40.7715C206.831 39.3633 207.569 38.3926 208.827 38.3926C210.112 38.3926 210.796 39.3633 210.796 40.7715C210.796 42.1797 210.085 43.1504 208.827 43.1367ZM208.827 42.2891C209.483 42.2891 209.798 41.6875 209.798 40.7715C209.798 39.8418 209.511 39.2266 208.827 39.2402C208.171 39.2539 207.829 39.8418 207.829 40.7715C207.829 41.6875 208.157 42.2891 208.827 42.2891ZM201.772 43L208.581 33.1016H209.688L202.88 43H201.772ZM214.862 39.2266C214.849 41.8105 214.151 43.957 212.894 45.7891H211.854C212.784 44.4355 213.646 41.6602 213.646 39.2266C213.646 36.793 212.784 34.0312 211.854 32.6777H212.894C214.151 34.4961 214.849 36.6426 214.862 39.2266Z" fill="black"/>
<mask id="path-10-inside-4_11284_25292" fill="white">
<path d="M230 0H260V58H230V0Z"/>
</mask>
<path d="M230 0H260V58H230V0Z" fill="#BCE4E5"/>
<path d="M230 0V-1H229V0H230ZM260 0H261V-1H260V0ZM260 58V59H261V58H260ZM230 58H229V59H230V58ZM230 1H260V-1H230V1ZM259 0V58H261V0H259ZM260 57H230V59H260V57ZM231 58V0H229V58H231Z" fill="#6D6E71" mask="url(#path-10-inside-4_11284_25292)"/>
<path d="M150.322 74H149.037L152.66 64.1016H153.959L157.582 74H156.283L155.299 71.2109H151.32L150.322 74ZM151.689 70.1309H154.916L153.344 65.7012H153.262L151.689 70.1309ZM158.422 74V64.1016H161.895C163.973 64.1016 164.943 65.2637 164.943 66.7266C164.943 67.998 164.191 68.5723 163.33 68.8047V68.9004C164.246 68.9551 165.34 69.8027 165.34 71.375C165.34 72.8652 164.355 74 162.018 74H158.422ZM162.004 72.9062C163.549 72.9062 164.15 72.2227 164.15 71.3613C164.15 70.3496 163.344 69.502 162.072 69.502H159.652V72.9062H162.004ZM161.854 68.4355C162.92 68.4355 163.768 67.7793 163.768 66.7402C163.768 65.8789 163.193 65.1953 161.895 65.1953H159.652V68.4355H161.854ZM172.879 64.3203V65.1953H166.002V64.3203H168.955V62.8574H170.021V64.3203H172.879ZM169.475 65.8242C171.102 65.8242 172.25 66.7129 172.25 68.0664C172.25 69.4336 171.102 70.3223 169.475 70.3223C167.834 70.3223 166.713 69.4336 166.727 68.0664C166.713 66.7129 167.834 65.8242 169.475 65.8242ZM169.475 66.6309C168.422 66.6445 167.725 67.2188 167.725 68.0664C167.725 68.9277 168.422 69.4883 169.475 69.4883C170.527 69.4883 171.238 68.9277 171.252 68.0664C171.238 67.2188 170.527 66.6445 169.475 66.6309ZM176.064 62.9531V70.8145H174.984V69.1328H172.865V68.2441H174.984V66.7676H172.879V65.8789H174.984V62.9531H176.064ZM172.059 70.9375C174.588 70.9375 176.133 71.6895 176.133 73.0156C176.133 74.3145 174.588 75.0801 172.059 75.0801C169.502 75.0801 167.971 74.3145 167.971 73.0156C167.971 71.6895 169.502 70.9375 172.059 70.9375ZM172.059 71.7715C170.213 71.7715 169.078 72.2227 169.078 73.0156C169.078 73.7812 170.213 74.2461 172.059 74.2461C173.877 74.2461 174.998 73.7812 174.998 73.0156C174.998 72.2227 173.877 71.7715 172.059 71.7715ZM178.34 70.2266C178.354 67.6426 179.051 65.4961 180.309 63.6777H181.348C180.418 65.0312 179.557 67.793 179.557 70.2266C179.557 72.6602 180.418 75.4355 181.348 76.7891H180.309C179.051 74.957 178.354 72.8105 178.34 70.2266ZM188.811 64.1016V74H187.566V65.3867H187.512L185.105 66.9863V65.7422L187.566 64.1016H188.811ZM194.176 74.1367C192.385 74.1367 191.031 73.0293 190.963 71.5117H192.152C192.248 72.4004 193.109 73.0566 194.176 73.0566C195.461 73.0566 196.391 72.1133 196.391 70.8691C196.391 69.584 195.42 68.6406 194.094 68.627C193.26 68.6133 192.617 68.873 192.248 69.5156H191.059L191.756 64.1016H197.115V65.1953H192.781L192.412 68.0938H192.508C192.945 67.752 193.615 67.5195 194.312 67.5195C196.199 67.5195 197.594 68.9141 197.594 70.8418C197.594 72.7559 196.145 74.1367 194.176 74.1367ZM203.908 68.6953C202.623 68.6953 201.926 67.7383 201.926 66.3164C201.926 64.9219 202.65 63.9512 203.908 63.9512C205.207 63.9512 205.891 64.9219 205.891 66.3164C205.891 67.7383 205.18 68.6953 203.908 68.6953ZM203.908 67.8477C204.578 67.8477 204.893 67.2461 204.893 66.3164C204.893 65.4004 204.605 64.7852 203.908 64.7988C203.252 64.7988 202.924 65.4004 202.924 66.3164C202.924 67.2461 203.252 67.8477 203.908 67.8477ZM209.951 74.1367C208.666 74.1504 207.955 73.1797 207.969 71.7715C207.955 70.3633 208.693 69.3926 209.951 69.3926C211.236 69.3926 211.92 70.3633 211.92 71.7715C211.92 73.1797 211.209 74.1504 209.951 74.1367ZM209.951 73.2891C210.607 73.2891 210.922 72.6875 210.922 71.7715C210.922 70.8418 210.635 70.2266 209.951 70.2402C209.295 70.2539 208.953 70.8418 208.953 71.7715C208.953 72.6875 209.281 73.2891 209.951 73.2891ZM202.896 74L209.705 64.1016H210.812L204.004 74H202.896ZM215.986 70.2266C215.973 72.8105 215.275 74.957 214.018 76.7891H212.979C213.908 75.4355 214.77 72.6602 214.77 70.2266C214.77 67.793 213.908 65.0312 212.979 63.6777H214.018C215.275 65.4961 215.973 67.6426 215.986 70.2266Z" fill="black"/>
<path d="M221.598 71.0007H241.502V44.5098" stroke="#EC008C" stroke-width="1.37466" stroke-miterlimit="10"/>
<path d="M241.485 41L245.363 49.4116L241.485 47.4249L237.632 49.4116L241.485 41Z" fill="#EC008C"/>
</svg>
