<svg width="191" height="122" viewBox="0 0 191 122" fill="none" xmlns="http://www.w3.org/2000/svg">
<path d="M22.4814 82.0605V87.6523H16.8623V82.0605H22.4814ZM17.915 82.9355V86.791H21.4424V82.9355H17.915ZM25.8447 80.9531V84.6582H27.6768V85.5605H25.8447V89.8672H24.7783V80.9531H25.8447ZM26.4053 91.9453V92.8477H18.2432V89.0195H19.2959V91.9453H26.4053ZM37.376 80.9531V86.1348H39.3174V87.0371H37.376V93.1074H36.2959V80.9531H37.376ZM27.792 89.8672C28.7832 89.8672 29.9385 89.8672 31.1416 89.8262V88.4727C29.7266 88.3154 28.8037 87.4883 28.8174 86.2852C28.8037 84.918 29.9658 84.0293 31.6885 84.0293C33.3838 84.0293 34.5596 84.918 34.5732 86.2852C34.5596 87.4883 33.623 88.3154 32.2217 88.4863V89.7852C33.3564 89.7305 34.498 89.6416 35.5576 89.4844L35.626 90.3047C32.9736 90.7559 30.1025 90.7832 27.9697 90.7832L27.792 89.8672ZM35.3389 82.4434V83.3184H28.0107V82.4434H31.1416V80.9805H32.2217V82.4434H35.3389ZM31.6885 84.8633C30.5674 84.8633 29.8154 85.4375 29.8154 86.2852C29.8154 87.1328 30.5674 87.6797 31.6885 87.666C32.7959 87.6797 33.5479 87.1328 33.5479 86.2852C33.5479 85.4375 32.7959 84.8633 31.6885 84.8633ZM43.1377 83.5918C43.1377 85.0273 44.0947 86.4355 45.6396 86.9961L45.1201 87.8301C43.9307 87.3584 43.0898 86.4492 42.6592 85.3418C42.2354 86.5449 41.3809 87.5361 40.1709 88.0488L39.6377 87.2422C41.1826 86.5996 42.1123 85.1367 42.126 83.5918V83.4414H39.8838V82.5664H42.126V81.1035H43.1377V82.5664H45.3389V83.4414H43.1377V83.5918ZM49.8643 80.9668V88.4043H48.8389V85.1094H47.2529V88.3496H46.2139V81.1855H47.2529V84.2207H48.8389V80.9668H49.8643ZM49.8643 89.0605V93.1074H48.8115V89.9355H41.6748V89.0605H49.8643ZM13.6445 106.227C13.6582 103.643 14.3555 101.496 15.6133 99.6777H16.6523C15.7227 101.031 14.8613 103.793 14.8613 106.227C14.8613 108.66 15.7227 111.436 16.6523 112.789H15.6133C14.3555 110.957 13.6582 108.811 13.6445 106.227ZM20.6152 110L20.6016 109.098L23.9785 105.543C25.1543 104.299 25.7148 103.629 25.7148 102.713C25.7148 101.701 24.8535 101.031 23.7461 101.031C22.5703 101.031 21.8184 101.783 21.8184 102.891H20.6562C20.6426 101.141 21.9961 99.9648 23.7871 99.9648C25.5781 99.9648 26.8633 101.168 26.8633 102.713C26.8633 103.82 26.3438 104.682 24.5938 106.486L22.3242 108.824V108.906H27.041V110H20.6152ZM31.5723 110.137C29.3711 110.137 28.1133 108.291 28.1133 105.051C28.1133 101.838 29.3984 99.9648 31.5723 99.9648C33.7461 99.9648 35.0312 101.838 35.0312 105.051C35.0312 108.291 33.7598 110.137 31.5723 110.137ZM31.5723 109.043C32.9941 109.043 33.8281 107.607 33.8281 105.051C33.8281 102.494 32.9941 101.031 31.5723 101.031C30.1504 101.031 29.3027 102.494 29.3027 105.051C29.3027 107.607 30.1367 109.043 31.5723 109.043ZM41.2773 104.695C39.9922 104.695 39.2949 103.738 39.2949 102.316C39.2949 100.922 40.0195 99.9512 41.2773 99.9512C42.5762 99.9512 43.2598 100.922 43.2598 102.316C43.2598 103.738 42.5488 104.695 41.2773 104.695ZM41.2773 103.848C41.9473 103.848 42.2617 103.246 42.2617 102.316C42.2617 101.4 41.9746 100.785 41.2773 100.799C40.6211 100.799 40.293 101.4 40.293 102.316C40.293 103.246 40.6211 103.848 41.2773 103.848ZM47.3203 110.137C46.0352 110.15 45.3242 109.18 45.3379 107.771C45.3242 106.363 46.0625 105.393 47.3203 105.393C48.6055 105.393 49.2891 106.363 49.2891 107.771C49.2891 109.18 48.5781 110.15 47.3203 110.137ZM47.3203 109.289C47.9766 109.289 48.291 108.688 48.291 107.771C48.291 106.842 48.0039 106.227 47.3203 106.24C46.6641 106.254 46.3223 106.842 46.3223 107.771C46.3223 108.688 46.6504 109.289 47.3203 109.289ZM40.2656 110L47.0742 100.102H48.1816L41.373 110H40.2656ZM53.3555 106.227C53.3418 108.811 52.6445 110.957 51.3867 112.789H50.3477C51.2773 111.436 52.1387 108.66 52.1387 106.227C52.1387 103.793 51.2773 101.031 50.3477 99.6777H51.3867C52.6445 101.496 53.3418 103.643 53.3555 106.227Z" fill="black"/>
<path d="M10.9062 38.7812V39.5605H2.60742V35.1992H10.8379V35.9922H3.6875V36.9629H10.5098V37.7285H3.6875V38.7812H10.9062ZM12.2188 40.4629V41.2969H9.23828V42.3633H10.7969V44.9883H3.57812V46.1641H11.166V46.9707H2.51172V44.2227H9.74414V43.1562H2.48438V42.3633H4.13867V41.2969H1.1582V40.4629H12.2188ZM5.19141 42.3633H8.17188V41.2969H5.19141V42.3633ZM22.7793 34.9668V41.6387H21.7129V34.9668H22.7793ZM18.9102 35.5547V38.8359H14.4258V40.4902C16.5996 40.4766 18.2266 40.4355 20.1953 40.1074L20.3184 40.9961C18.2812 41.3242 16.6133 41.3789 14.3711 41.3926H13.3867V37.9883H17.8438V36.4434H13.3594V35.5547H18.9102ZM15.957 42.2539V43.7031H21.7129V42.2539H22.7793V46.9434H14.877V42.2539H15.957ZM15.957 46.0684H21.7129V44.5645H15.957V46.0684ZM28.1094 42.2266C28.123 39.6426 28.8203 37.4961 30.0781 35.6777H31.1172C30.1875 37.0312 29.3262 39.793 29.3262 42.2266C29.3262 44.6602 30.1875 47.4355 31.1172 48.7891H30.0781C28.8203 46.957 28.123 44.8105 28.1094 42.2266ZM38.5801 36.1016V46H37.3359V37.3867H37.2812L34.875 38.9863V37.7422L37.3359 36.1016H38.5801ZM43.9453 46.1367C42.1543 46.1367 40.8008 45.0293 40.7324 43.5117H41.9219C42.0176 44.4004 42.8789 45.0566 43.9453 45.0566C45.2305 45.0566 46.1602 44.1133 46.1602 42.8691C46.1602 41.584 45.1895 40.6406 43.8633 40.627C43.0293 40.6133 42.3867 40.873 42.0176 41.5156H40.8281L41.5254 36.1016H46.8848V37.1953H42.5508L42.1816 40.0938H42.2773C42.7148 39.752 43.3848 39.5195 44.082 39.5195C45.9688 39.5195 47.3633 40.9141 47.3633 42.8418C47.3633 44.7559 45.9141 46.1367 43.9453 46.1367ZM53.6777 40.6953C52.3926 40.6953 51.6953 39.7383 51.6953 38.3164C51.6953 36.9219 52.4199 35.9512 53.6777 35.9512C54.9766 35.9512 55.6602 36.9219 55.6602 38.3164C55.6602 39.7383 54.9492 40.6953 53.6777 40.6953ZM53.6777 39.8477C54.3477 39.8477 54.6621 39.2461 54.6621 38.3164C54.6621 37.4004 54.375 36.7852 53.6777 36.7988C53.0215 36.7988 52.6934 37.4004 52.6934 38.3164C52.6934 39.2461 53.0215 39.8477 53.6777 39.8477ZM59.7207 46.1367C58.4355 46.1504 57.7246 45.1797 57.7383 43.7715C57.7246 42.3633 58.4629 41.3926 59.7207 41.3926C61.0059 41.3926 61.6895 42.3633 61.6895 43.7715C61.6895 45.1797 60.9785 46.1504 59.7207 46.1367ZM59.7207 45.2891C60.377 45.2891 60.6914 44.6875 60.6914 43.7715C60.6914 42.8418 60.4043 42.2266 59.7207 42.2402C59.0645 42.2539 58.7227 42.8418 58.7227 43.7715C58.7227 44.6875 59.0508 45.2891 59.7207 45.2891ZM52.666 46L59.4746 36.1016H60.582L53.7734 46H52.666ZM65.7559 42.2266C65.7422 44.8105 65.0449 46.957 63.7871 48.7891H62.748C63.6777 47.4355 64.5391 44.6602 64.5391 42.2266C64.5391 39.793 63.6777 37.0312 62.748 35.6777H63.7871C65.0449 37.4961 65.7422 39.6426 65.7559 42.2266Z" fill="black"/>
<path d="M133.37 65.0045L94.2461 24.7191C104.995 14.4173 118.439 9.01758 133.37 9.01758V65.0045Z" fill="#BADAF3"/>
<path d="M133.37 65.0045L94.2461 24.7191C104.995 14.4173 118.439 9.01758 133.37 9.01758V65.0045Z" stroke="#6D6E71" stroke-width="0.5" stroke-miterlimit="10"/>
<path d="M133.37 65.0061L77.607 72.8057C75.0007 54.4263 80.8317 37.6126 94.2461 24.7207L133.37 64.9915V65.0061Z" fill="#BCE4E5"/>
<path d="M133.37 65.0061L77.607 72.8057C75.0007 54.4263 80.8317 37.6126 94.2461 24.7207L133.37 64.9915V65.0061Z" stroke="#6D6E71" stroke-width="0.5" stroke-miterlimit="10"/>
<path d="M133.372 65.0039L123.595 120.142C99.0929 115.855 81.0697 97.2996 77.6094 72.8034L133.387 65.0039H133.372Z" fill="#E6E8C7"/>
<path d="M133.372 65.0039L123.595 120.142C99.0929 115.855 81.0697 97.2996 77.6094 72.8034L133.387 65.0039H133.372Z" stroke="#6D6E71" stroke-width="0.5" stroke-miterlimit="10"/>
<path d="M133.367 65.0039L188.836 74.735C183.432 105.187 154.218 125.527 123.59 120.157L133.367 65.0185V65.0039Z" fill="#FFE5C2"/>
<path d="M133.367 65.0039L188.836 74.735C183.432 105.187 154.218 125.527 123.59 120.157L133.367 65.0185V65.0039Z" stroke="#6D6E71" stroke-width="0.5" stroke-miterlimit="10"/>
<path d="M133.367 65.0045V9.01758C164.466 9.01758 189.69 34.0844 189.69 65.0045C189.69 68.7214 189.484 71.0773 188.836 74.7356L133.367 65.0045Z" fill="#FDE3D7"/>
<path d="M133.367 65.0045V9.01758C164.466 9.01758 189.69 34.0844 189.69 65.0045C189.69 68.7214 189.484 71.0773 188.836 74.7356L133.367 65.0045Z" stroke="#6D6E71" stroke-width="0.5" stroke-miterlimit="10"/>
<path d="M133.37 9.01758C118.439 9.01758 104.98 14.4173 94.2461 24.7337C80.8317 37.611 75.0007 54.4246 77.607 72.804C81.0673 97.3001 99.0905 115.855 123.593 120.157C154.22 125.528 183.434 105.187 188.838 74.7356C189.486 71.0773 189.693 68.7214 189.693 65.0045C189.693 34.0844 164.484 9.01758 133.37 9.01758Z" stroke="#6D6E71" stroke-width="0.75" stroke-linejoin="bevel"/>
<path d="M57.8047 96.382H64.6127L79.1947 86.1562" stroke="#EC008C" stroke-miterlimit="10"/>
<path d="M83.7668 82.1877L79.6866 90.5026L78.623 86.6428L74.3945 85.5534L83.7668 82.1877Z" fill="#EC008C"/>
<path d="M70.6719 42.1316H77.4799L92.8941 54.1875" stroke="#EC008C" stroke-miterlimit="10"/>
<path d="M97.8168 57.934L88.3645 54.732L92.587 53.5606L93.5594 49.7001L97.8168 57.934Z" fill="#EC008C"/>
<path d="M91.7852 11.1316H114.704L117.896 24.6875" stroke="#EC008C" stroke-miterlimit="10"/>
<path d="M118.488 28.8199L112.586 21.4436L116.823 22.5721L120.008 19.8418L118.488 28.8199Z" fill="#EC008C"/>
<path d="M35.3438 3.95312V16.1074H34.2637V3.95312H35.3438ZM31.748 5.2793C31.7344 8.7793 30.1074 11.8691 26.0332 13.8242L25.4453 12.9492C28.7334 11.3906 30.4082 9.05957 30.6543 6.1543H26.0059V5.2793H31.748ZM43.1289 5.06055V5.96289H38.5078V8.47852H42.8555V9.35352H38.5078V12.293C40.6953 12.293 42.2334 12.2041 44.0586 11.8965L44.1816 12.7852C42.2812 13.0996 40.6816 13.168 38.3848 13.1816H37.4277V5.06055H43.1289ZM46.3008 3.95312V8.84766H48.3379V9.76367H46.3008V16.1074H45.2344V3.95312H46.3008ZM49.2461 11.2266C49.2598 8.64258 49.957 6.49609 51.2148 4.67773H52.2539C51.3242 6.03125 50.4629 8.79297 50.4629 11.2266C50.4629 13.6602 51.3242 16.4355 52.2539 17.7891H51.2148C49.957 15.957 49.2598 13.8105 49.2461 11.2266ZM59.7168 5.10156V15H58.4727V6.38672H58.418L56.0117 7.98633V6.74219L58.4727 5.10156H59.7168ZM61.8555 15L61.8418 14.0977L65.2188 10.543C66.3945 9.29883 66.9551 8.62891 66.9551 7.71289C66.9551 6.70117 66.0938 6.03125 64.9863 6.03125C63.8105 6.03125 63.0586 6.7832 63.0586 7.89062H61.8965C61.8828 6.14062 63.2363 4.96484 65.0273 4.96484C66.8184 4.96484 68.1035 6.16797 68.1035 7.71289C68.1035 8.82031 67.584 9.68164 65.834 11.4863L63.5645 13.8242V13.9062H68.2812V15H61.8555ZM74.6777 9.69531C73.3926 9.69531 72.6953 8.73828 72.6953 7.31641C72.6953 5.92188 73.4199 4.95117 74.6777 4.95117C75.9766 4.95117 76.6602 5.92188 76.6602 7.31641C76.6602 8.73828 75.9492 9.69531 74.6777 9.69531ZM74.6777 8.84766C75.3477 8.84766 75.6621 8.24609 75.6621 7.31641C75.6621 6.40039 75.375 5.78516 74.6777 5.79883C74.0215 5.79883 73.6934 6.40039 73.6934 7.31641C73.6934 8.24609 74.0215 8.84766 74.6777 8.84766ZM80.7207 15.1367C79.4355 15.1504 78.7246 14.1797 78.7383 12.7715C78.7246 11.3633 79.4629 10.3926 80.7207 10.3926C82.0059 10.3926 82.6895 11.3633 82.6895 12.7715C82.6895 14.1797 81.9785 15.1504 80.7207 15.1367ZM80.7207 14.2891C81.377 14.2891 81.6914 13.6875 81.6914 12.7715C81.6914 11.8418 81.4043 11.2266 80.7207 11.2402C80.0645 11.2539 79.7227 11.8418 79.7227 12.7715C79.7227 13.6875 80.0508 14.2891 80.7207 14.2891ZM73.666 15L80.4746 5.10156H81.582L74.7734 15H73.666ZM86.7559 11.2266C86.7422 13.8105 86.0449 15.957 84.7871 17.7891H83.748C84.6777 16.4355 85.5391 13.6602 85.5391 11.2266C85.5391 8.79297 84.6777 6.03125 83.748 4.67773H84.7871C86.0449 6.49609 86.7422 8.64258 86.7559 11.2266Z" fill="black"/>
<path d="M140.758 76.2637C140.758 77.8496 141.947 79.2715 143.738 79.8594L143.232 80.707C141.831 80.249 140.771 79.2783 140.252 78.0547C139.726 79.4492 138.604 80.5361 137.148 81.0625L136.602 80.2012C138.42 79.5859 139.691 78.0137 139.705 76.2637V75.7441H136.93V74.8555H143.492V75.7441H140.758V76.2637ZM146.145 73.9531V77.0566H147.977V77.959H146.145V81.2949H145.078V73.9531H146.145ZM142.248 81.623C144.75 81.623 146.254 82.4434 146.254 83.8379C146.254 85.2598 144.75 86.0801 142.248 86.0801C139.746 86.0801 138.215 85.2598 138.215 83.8379C138.215 82.4434 139.746 81.623 142.248 81.623ZM142.248 82.4844C140.416 82.4844 139.281 82.9902 139.295 83.8379C139.281 84.7129 140.416 85.2188 142.248 85.2188C144.094 85.2188 145.215 84.7129 145.215 83.8379C145.215 82.9902 144.094 82.4844 142.248 82.4844ZM154.572 75.1562V83.0586H148.953V75.1562H154.572ZM150.006 76.0176V82.1836H153.52V76.0176H150.006ZM158.264 73.9531V86.1348H157.184V73.9531H158.264ZM129.645 99.2266C129.658 96.6426 130.355 94.4961 131.613 92.6777H132.652C131.723 94.0312 130.861 96.793 130.861 99.2266C130.861 101.66 131.723 104.436 132.652 105.789H131.613C130.355 103.957 129.658 101.811 129.645 99.2266ZM136.615 103L136.602 102.098L139.979 98.543C141.154 97.2988 141.715 96.6289 141.715 95.7129C141.715 94.7012 140.854 94.0312 139.746 94.0312C138.57 94.0312 137.818 94.7832 137.818 95.8906H136.656C136.643 94.1406 137.996 92.9648 139.787 92.9648C141.578 92.9648 142.863 94.168 142.863 95.7129C142.863 96.8203 142.344 97.6816 140.594 99.4863L138.324 101.824V101.906H143.041V103H136.615ZM147.559 103.137C145.768 103.137 144.414 102.029 144.346 100.512H145.535C145.631 101.4 146.492 102.057 147.559 102.057C148.844 102.057 149.773 101.113 149.773 99.8691C149.773 98.584 148.803 97.6406 147.477 97.627C146.643 97.6133 146 97.873 145.631 98.5156H144.441L145.139 93.1016H150.498V94.1953H146.164L145.795 97.0938H145.891C146.328 96.752 146.998 96.5195 147.695 96.5195C149.582 96.5195 150.977 97.9141 150.977 99.8418C150.977 101.756 149.527 103.137 147.559 103.137ZM157.291 97.6953C156.006 97.6953 155.309 96.7383 155.309 95.3164C155.309 93.9219 156.033 92.9512 157.291 92.9512C158.59 92.9512 159.273 93.9219 159.273 95.3164C159.273 96.7383 158.562 97.6953 157.291 97.6953ZM157.291 96.8477C157.961 96.8477 158.275 96.2461 158.275 95.3164C158.275 94.4004 157.988 93.7852 157.291 93.7988C156.635 93.7988 156.307 94.4004 156.307 95.3164C156.307 96.2461 156.635 96.8477 157.291 96.8477ZM163.334 103.137C162.049 103.15 161.338 102.18 161.352 100.771C161.338 99.3633 162.076 98.3926 163.334 98.3926C164.619 98.3926 165.303 99.3633 165.303 100.771C165.303 102.18 164.592 103.15 163.334 103.137ZM163.334 102.289C163.99 102.289 164.305 101.688 164.305 100.771C164.305 99.8418 164.018 99.2266 163.334 99.2402C162.678 99.2539 162.336 99.8418 162.336 100.771C162.336 101.688 162.664 102.289 163.334 102.289ZM156.279 103L163.088 93.1016H164.195L157.387 103H156.279ZM169.369 99.2266C169.355 101.811 168.658 103.957 167.4 105.789H166.361C167.291 104.436 168.152 101.66 168.152 99.2266C168.152 96.793 167.291 94.0312 166.361 92.6777H167.4C168.658 94.4961 169.355 96.6426 169.369 99.2266Z" fill="black"/>
<path d="M154.458 38.0215V38.9102H149.386V43.1074H148.333V38.9102H143.329V38.0215H154.458ZM153.009 31.6367V36.3672H144.765V31.6367H153.009ZM145.817 32.5117V35.5195H151.942V32.5117H145.817ZM164.608 31.4863V32.3477C164.608 33.2637 164.608 34.3848 164.308 35.834H166.071V36.709H160.999V38.623C163.323 38.7188 164.704 39.5117 164.718 40.8379C164.704 42.2871 163.118 43.0801 160.479 43.0801C157.813 43.0801 156.214 42.2871 156.214 40.8379C156.214 39.5117 157.602 38.7256 159.946 38.623V36.709H154.942V35.834H163.228C163.542 34.3574 163.542 33.2842 163.542 32.3613H156.351V31.4863H164.608ZM160.479 39.4707C158.497 39.4844 157.294 39.9766 157.308 40.8379C157.294 41.7129 158.497 42.2188 160.479 42.2188C162.421 42.2188 163.624 41.7129 163.638 40.8379C163.624 39.9766 162.421 39.4844 160.479 39.4707ZM175.976 30.9531V36.1348H177.917V37.0371H175.976V43.1074H174.896V30.9531H175.976ZM166.392 39.8672C167.383 39.8672 168.538 39.8672 169.741 39.8262V38.4727C168.326 38.3154 167.403 37.4883 167.417 36.2852C167.403 34.918 168.565 34.0293 170.288 34.0293C171.983 34.0293 173.159 34.918 173.173 36.2852C173.159 37.4883 172.223 38.3154 170.821 38.4863V39.7852C171.956 39.7305 173.098 39.6416 174.157 39.4844L174.226 40.3047C171.573 40.7559 168.702 40.7832 166.569 40.7832L166.392 39.8672ZM173.938 32.4434V33.3184H166.61V32.4434H169.741V30.9805H170.821V32.4434H173.938ZM170.288 34.8633C169.167 34.8633 168.415 35.4375 168.415 36.2852C168.415 37.1328 169.167 37.6797 170.288 37.666C171.396 37.6797 172.147 37.1328 172.147 36.2852C172.147 35.4375 171.396 34.8633 170.288 34.8633ZM140.569 56.2266C140.583 53.6426 141.28 51.4961 142.538 49.6777H143.577C142.647 51.0312 141.786 53.793 141.786 56.2266C141.786 58.6602 142.647 61.4355 143.577 62.7891H142.538C141.28 60.957 140.583 58.8105 140.569 56.2266ZM147.54 60L147.526 59.0977L150.903 55.543C152.079 54.2988 152.64 53.6289 152.64 52.7129C152.64 51.7012 151.778 51.0312 150.671 51.0312C149.495 51.0312 148.743 51.7832 148.743 52.8906H147.581C147.567 51.1406 148.921 49.9648 150.712 49.9648C152.503 49.9648 153.788 51.168 153.788 52.7129C153.788 53.8203 153.269 54.6816 151.519 56.4863L149.249 58.8242V58.9062H153.966V60H147.54ZM158.565 60.1367C156.487 60.1367 155.038 58.9883 155.052 57.375C155.038 56.0898 155.927 55.0371 157.062 54.8594V54.8047C156.077 54.5723 155.435 53.6699 155.435 52.5898C155.435 51.0723 156.761 49.9648 158.565 49.9648C160.37 49.9648 161.696 51.0723 161.71 52.5898C161.696 53.6699 161.04 54.5723 160.069 54.8047V54.8594C161.19 55.0371 162.079 56.0898 162.093 57.375C162.079 58.9883 160.63 60.1367 158.565 60.1367ZM158.565 59.0566C159.987 59.0566 160.862 58.3457 160.862 57.3066C160.862 56.2129 159.892 55.4062 158.565 55.4062C157.239 55.4062 156.255 56.2129 156.282 57.3066C156.255 58.3457 157.144 59.0566 158.565 59.0566ZM158.565 54.3672C159.687 54.3672 160.507 53.6836 160.507 52.6855C160.507 51.7012 159.728 51.0312 158.565 51.0312C157.39 51.0312 156.624 51.7012 156.624 52.6855C156.624 53.6836 157.431 54.3672 158.565 54.3672ZM168.353 54.6953C167.067 54.6953 166.37 53.7383 166.37 52.3164C166.37 50.9219 167.095 49.9512 168.353 49.9512C169.651 49.9512 170.335 50.9219 170.335 52.3164C170.335 53.7383 169.624 54.6953 168.353 54.6953ZM168.353 53.8477C169.022 53.8477 169.337 53.2461 169.337 52.3164C169.337 51.4004 169.05 50.7852 168.353 50.7988C167.696 50.7988 167.368 51.4004 167.368 52.3164C167.368 53.2461 167.696 53.8477 168.353 53.8477ZM174.396 60.1367C173.11 60.1504 172.399 59.1797 172.413 57.7715C172.399 56.3633 173.138 55.3926 174.396 55.3926C175.681 55.3926 176.364 56.3633 176.364 57.7715C176.364 59.1797 175.653 60.1504 174.396 60.1367ZM174.396 59.2891C175.052 59.2891 175.366 58.6875 175.366 57.7715C175.366 56.8418 175.079 56.2266 174.396 56.2402C173.739 56.2539 173.397 56.8418 173.397 57.7715C173.397 58.6875 173.726 59.2891 174.396 59.2891ZM167.341 60L174.149 50.1016H175.257L168.448 60H167.341ZM180.431 56.2266C180.417 58.8105 179.72 60.957 178.462 62.7891H177.423C178.353 61.4355 179.214 58.6602 179.214 56.2266C179.214 53.793 178.353 51.0312 177.423 49.6777H178.462C179.72 51.4961 180.417 53.6426 180.431 56.2266Z" fill="black"/>
</svg>
