<svg width="174" height="123" viewBox="0 0 174 123" fill="none" xmlns="http://www.w3.org/2000/svg">
<path d="M20.4814 82.0605V87.6523H14.8623V82.0605H20.4814ZM15.915 82.9355V86.791H19.4424V82.9355H15.915ZM23.8447 80.9531V84.6582H25.6768V85.5605H23.8447V89.8672H22.7783V80.9531H23.8447ZM24.4053 91.9453V92.8477H16.2432V89.0195H17.2959V91.9453H24.4053ZM35.376 80.9531V86.1348H37.3174V87.0371H35.376V93.1074H34.2959V80.9531H35.376ZM25.792 89.8672C26.7832 89.8672 27.9385 89.8672 29.1416 89.8262V88.4727C27.7266 88.3154 26.8037 87.4883 26.8174 86.2852C26.8037 84.918 27.9658 84.0293 29.6885 84.0293C31.3838 84.0293 32.5596 84.918 32.5732 86.2852C32.5596 87.4883 31.623 88.3154 30.2217 88.4863V89.7852C31.3564 89.7305 32.498 89.6416 33.5576 89.4844L33.626 90.3047C30.9736 90.7559 28.1025 90.7832 25.9697 90.7832L25.792 89.8672ZM33.3389 82.4434V83.3184H26.0107V82.4434H29.1416V80.9805H30.2217V82.4434H33.3389ZM29.6885 84.8633C28.5674 84.8633 27.8154 85.4375 27.8154 86.2852C27.8154 87.1328 28.5674 87.6797 29.6885 87.666C30.7959 87.6797 31.5479 87.1328 31.5479 86.2852C31.5479 85.4375 30.7959 84.8633 29.6885 84.8633ZM41.1377 83.5918C41.1377 85.0273 42.0947 86.4355 43.6396 86.9961L43.1201 87.8301C41.9307 87.3584 41.0898 86.4492 40.6592 85.3418C40.2354 86.5449 39.3809 87.5361 38.1709 88.0488L37.6377 87.2422C39.1826 86.5996 40.1123 85.1367 40.126 83.5918V83.4414H37.8838V82.5664H40.126V81.1035H41.1377V82.5664H43.3389V83.4414H41.1377V83.5918ZM47.8643 80.9668V88.4043H46.8389V85.1094H45.2529V88.3496H44.2139V81.1855H45.2529V84.2207H46.8389V80.9668H47.8643ZM47.8643 89.0605V93.1074H46.8115V89.9355H39.6748V89.0605H47.8643ZM11.6445 106.227C11.6582 103.643 12.3555 101.496 13.6133 99.6777H14.6523C13.7227 101.031 12.8613 103.793 12.8613 106.227C12.8613 108.66 13.7227 111.436 14.6523 112.789H13.6133C12.3555 110.957 11.6582 108.811 11.6445 106.227ZM18.6152 110L18.6016 109.098L21.9785 105.543C23.1543 104.299 23.7148 103.629 23.7148 102.713C23.7148 101.701 22.8535 101.031 21.7461 101.031C20.5703 101.031 19.8184 101.783 19.8184 102.891H18.6562C18.6426 101.141 19.9961 99.9648 21.7871 99.9648C23.5781 99.9648 24.8633 101.168 24.8633 102.713C24.8633 103.82 24.3438 104.682 22.5938 106.486L20.3242 108.824V108.906H25.041V110H18.6152ZM29.5723 110.137C27.3711 110.137 26.1133 108.291 26.1133 105.051C26.1133 101.838 27.3984 99.9648 29.5723 99.9648C31.7461 99.9648 33.0312 101.838 33.0312 105.051C33.0312 108.291 31.7598 110.137 29.5723 110.137ZM29.5723 109.043C30.9941 109.043 31.8281 107.607 31.8281 105.051C31.8281 102.494 30.9941 101.031 29.5723 101.031C28.1504 101.031 27.3027 102.494 27.3027 105.051C27.3027 107.607 28.1367 109.043 29.5723 109.043ZM39.2773 104.695C37.9922 104.695 37.2949 103.738 37.2949 102.316C37.2949 100.922 38.0195 99.9512 39.2773 99.9512C40.5762 99.9512 41.2598 100.922 41.2598 102.316C41.2598 103.738 40.5488 104.695 39.2773 104.695ZM39.2773 103.848C39.9473 103.848 40.2617 103.246 40.2617 102.316C40.2617 101.4 39.9746 100.785 39.2773 100.799C38.6211 100.799 38.293 101.4 38.293 102.316C38.293 103.246 38.6211 103.848 39.2773 103.848ZM45.3203 110.137C44.0352 110.15 43.3242 109.18 43.3379 107.771C43.3242 106.363 44.0625 105.393 45.3203 105.393C46.6055 105.393 47.2891 106.363 47.2891 107.771C47.2891 109.18 46.5781 110.15 45.3203 110.137ZM45.3203 109.289C45.9766 109.289 46.291 108.688 46.291 107.771C46.291 106.842 46.0039 106.227 45.3203 106.24C44.6641 106.254 44.3223 106.842 44.3223 107.771C44.3223 108.688 44.6504 109.289 45.3203 109.289ZM38.2656 110L45.0742 100.102H46.1816L39.373 110H38.2656ZM51.3555 106.227C51.3418 108.811 50.6445 110.957 49.3867 112.789H48.3477C49.2773 111.436 50.1387 108.66 50.1387 106.227C50.1387 103.793 49.2773 101.031 48.3477 99.6777H49.3867C50.6445 101.496 51.3418 103.643 51.3555 106.227Z" fill="black"/>
<path d="M10.9707 24.9531V31.9668H9.89062V28.248H7.18359V27.3594H9.89062V24.9531H10.9707ZM10.9707 32.582V36.9434H3.02734V32.582H10.9707ZM4.09375 33.4434V36.0684H9.91797V33.4434H4.09375ZM5.03711 26.8125C5.02344 28.4258 6.28125 29.916 8.04492 30.5039L7.48438 31.3652C6.11719 30.8662 5.05078 29.875 4.51758 28.6309C3.99805 30.0186 2.9043 31.0918 1.46875 31.625L0.894531 30.7637C2.74023 30.1348 3.9707 28.5898 3.98438 26.7715V25.4863H5.03711V26.8125ZM13.2461 32.2266C13.2598 29.6426 13.957 27.4961 15.2148 25.6777H16.2539C15.3242 27.0312 14.4629 29.793 14.4629 32.2266C14.4629 34.6602 15.3242 37.4355 16.2539 38.7891H15.2148C13.957 36.957 13.2598 34.8105 13.2461 32.2266ZM23.7168 26.1016V36H22.4727V27.3867H22.418L20.0117 28.9863V27.7422L22.4727 26.1016H23.7168ZM25.8555 36L25.8418 35.0977L29.2188 31.543C30.3945 30.2988 30.9551 29.6289 30.9551 28.7129C30.9551 27.7012 30.0938 27.0312 28.9863 27.0312C27.8105 27.0312 27.0586 27.7832 27.0586 28.8906H25.8965C25.8828 27.1406 27.2363 25.9648 29.0273 25.9648C30.8184 25.9648 32.1035 27.168 32.1035 28.7129C32.1035 29.8203 31.584 30.6816 29.834 32.4863L27.5645 34.8242V34.9062H32.2812V36H25.8555ZM38.6777 30.6953C37.3926 30.6953 36.6953 29.7383 36.6953 28.3164C36.6953 26.9219 37.4199 25.9512 38.6777 25.9512C39.9766 25.9512 40.6602 26.9219 40.6602 28.3164C40.6602 29.7383 39.9492 30.6953 38.6777 30.6953ZM38.6777 29.8477C39.3477 29.8477 39.6621 29.2461 39.6621 28.3164C39.6621 27.4004 39.375 26.7852 38.6777 26.7988C38.0215 26.7988 37.6934 27.4004 37.6934 28.3164C37.6934 29.2461 38.0215 29.8477 38.6777 29.8477ZM44.7207 36.1367C43.4355 36.1504 42.7246 35.1797 42.7383 33.7715C42.7246 32.3633 43.4629 31.3926 44.7207 31.3926C46.0059 31.3926 46.6895 32.3633 46.6895 33.7715C46.6895 35.1797 45.9785 36.1504 44.7207 36.1367ZM44.7207 35.2891C45.377 35.2891 45.6914 34.6875 45.6914 33.7715C45.6914 32.8418 45.4043 32.2266 44.7207 32.2402C44.0645 32.2539 43.7227 32.8418 43.7227 33.7715C43.7227 34.6875 44.0508 35.2891 44.7207 35.2891ZM37.666 36L44.4746 26.1016H45.582L38.7734 36H37.666ZM50.7559 32.2266C50.7422 34.8105 50.0449 36.957 48.7871 38.7891H47.748C48.6777 37.4355 49.5391 34.6602 49.5391 32.2266C49.5391 29.793 48.6777 27.0312 47.748 25.6777H48.7871C50.0449 27.4961 50.7422 29.6426 50.7559 32.2266Z" fill="black"/>
<g clip-path="url(#clip0_11284_25059)">
<path d="M117.198 66.3581L100.084 13.6258C105.909 11.7275 111.083 10.916 117.198 10.916V66.3726V66.3581Z" fill="#BADAF3"/>
<path d="M117.198 66.3581L100.084 13.6258C105.909 11.7275 111.083 10.916 117.198 10.916V66.3726V66.3581Z" stroke="#6D6E71" stroke-width="0.724544" stroke-miterlimit="10"/>
<path d="M117.193 66.3573L64.5186 49.2291C70.1845 31.7531 82.6177 19.3054 100.079 13.625L117.193 66.3573Z" fill="#BCE4E5"/>
<path d="M117.193 66.3573L64.5186 49.2291C70.1845 31.7531 82.6177 19.3054 100.079 13.625L117.193 66.3573Z" stroke="#6D6E71" stroke-width="0.724544" stroke-miterlimit="10"/>
<path d="M117.195 66.3567L84.6341 111.22C64.8395 96.8166 56.9565 72.5298 64.5207 49.2285L117.21 66.3567H117.195Z" fill="#E6E8C7"/>
<path d="M117.195 66.3567L84.6341 111.22C64.8395 96.8166 56.9565 72.5298 64.5207 49.2285L117.21 66.3567H117.195Z" stroke="#6D6E71" stroke-width="0.724544" stroke-miterlimit="10"/>
<path d="M117.197 66.3582L162.017 98.9482C144.034 123.728 109.386 129.22 84.6357 111.208L117.197 66.3438V66.3582Z" fill="#FFE5C2"/>
<path d="M117.197 66.3582L162.017 98.9482C144.034 123.728 109.386 129.22 84.6357 111.208L117.197 66.3438V66.3582Z" stroke="#6D6E71" stroke-width="0.724544" stroke-miterlimit="10"/>
<path d="M117.195 66.3581V10.916C147.786 10.916 172.594 35.7389 172.594 66.3726C172.594 78.6174 169.203 89.0508 162.016 98.9626L117.195 66.3726V66.3581Z" fill="#FDE3D7"/>
<path d="M117.195 66.3581V10.916C147.786 10.916 172.594 35.7389 172.594 66.3726C172.594 78.6174 169.203 89.0508 162.016 98.9626L117.195 66.3726V66.3581Z" stroke="#6D6E71" stroke-width="0.724544" stroke-miterlimit="10"/>
<path d="M117.195 10.916C111.08 10.916 105.892 11.742 100.081 13.6258C82.6196 19.3062 70.1864 31.7539 64.5205 49.2299C56.9563 72.5312 64.8393 96.8324 84.6483 111.222C109.399 129.22 144.046 123.728 162.03 98.9481C169.217 89.0363 172.608 78.6029 172.608 66.3581C172.593 35.7389 147.8 10.916 117.195 10.916Z" stroke="#6D6E71" stroke-width="1.08682" stroke-linejoin="bevel"/>
</g>
<path d="M57.918 96.382H64.726L79.308 86.1562" stroke="#EC008C" stroke-miterlimit="10"/>
<path d="M83.884 82.1877L79.8038 90.5026L78.7401 86.6428L74.5117 85.5534L83.884 82.1877Z" fill="#EC008C"/>
<path d="M55.7852 32.1316H62.5932L78.0074 44.1875" stroke="#EC008C" stroke-miterlimit="10"/>
<path d="M82.93 47.934L73.4777 44.732L77.7003 43.5606L78.6727 39.7001L82.93 47.934Z" fill="#EC008C"/>
<path d="M84.8984 11.1316H107.818L111.01 24.6875" stroke="#EC008C" stroke-miterlimit="10"/>
<path d="M111.605 28.8199L105.704 21.4436L109.941 22.5721L113.125 19.8418L111.605 28.8199Z" fill="#EC008C"/>
<path d="M28.2207 3.95312V16.1074H27.1406V3.95312H28.2207ZM24.625 5.2793C24.6113 8.7793 22.9844 11.8691 18.9102 13.8242L18.3223 12.9492C21.6104 11.3906 23.2852 9.05957 23.5312 6.1543H18.8828V5.2793H24.625ZM36.0059 5.06055V5.96289H31.3848V8.47852H35.7324V9.35352H31.3848V12.293C33.5723 12.293 35.1104 12.2041 36.9355 11.8965L37.0586 12.7852C35.1582 13.0996 33.5586 13.168 31.2617 13.1816H30.3047V5.06055H36.0059ZM39.1777 3.95312V8.84766H41.2148V9.76367H39.1777V16.1074H38.1113V3.95312H39.1777ZM42.123 11.2266C42.1367 8.64258 42.834 6.49609 44.0918 4.67773H45.1309C44.2012 6.03125 43.3398 8.79297 43.3398 11.2266C43.3398 13.6602 44.2012 16.4355 45.1309 17.7891H44.0918C42.834 15.957 42.1367 13.8105 42.123 11.2266ZM52.5938 5.10156V15H51.3496V6.38672H51.2949L48.8887 7.98633V6.74219L51.3496 5.10156H52.5938ZM57.9727 15.1367C55.7715 15.1367 54.5137 13.291 54.5137 10.0508C54.5137 6.83789 55.7988 4.96484 57.9727 4.96484C60.1465 4.96484 61.4316 6.83789 61.4316 10.0508C61.4316 13.291 60.1602 15.1367 57.9727 15.1367ZM57.9727 14.043C59.3945 14.043 60.2285 12.6074 60.2285 10.0508C60.2285 7.49414 59.3945 6.03125 57.9727 6.03125C56.5508 6.03125 55.7031 7.49414 55.7031 10.0508C55.7031 12.6074 56.5371 14.043 57.9727 14.043ZM67.6777 9.69531C66.3926 9.69531 65.6953 8.73828 65.6953 7.31641C65.6953 5.92188 66.4199 4.95117 67.6777 4.95117C68.9766 4.95117 69.6602 5.92188 69.6602 7.31641C69.6602 8.73828 68.9492 9.69531 67.6777 9.69531ZM67.6777 8.84766C68.3477 8.84766 68.6621 8.24609 68.6621 7.31641C68.6621 6.40039 68.375 5.78516 67.6777 5.79883C67.0215 5.79883 66.6934 6.40039 66.6934 7.31641C66.6934 8.24609 67.0215 8.84766 67.6777 8.84766ZM73.7207 15.1367C72.4355 15.1504 71.7246 14.1797 71.7383 12.7715C71.7246 11.3633 72.4629 10.3926 73.7207 10.3926C75.0059 10.3926 75.6895 11.3633 75.6895 12.7715C75.6895 14.1797 74.9785 15.1504 73.7207 15.1367ZM73.7207 14.2891C74.377 14.2891 74.6914 13.6875 74.6914 12.7715C74.6914 11.8418 74.4043 11.2266 73.7207 11.2402C73.0645 11.2539 72.7227 11.8418 72.7227 12.7715C72.7227 13.6875 73.0508 14.2891 73.7207 14.2891ZM66.666 15L73.4746 5.10156H74.582L67.7734 15H66.666ZM79.7559 11.2266C79.7422 13.8105 79.0449 15.957 77.7871 17.7891H76.748C77.6777 16.4355 78.5391 13.6602 78.5391 11.2266C78.5391 8.79297 77.6777 6.03125 76.748 4.67773H77.7871C79.0449 6.49609 79.7422 8.64258 79.7559 11.2266Z" fill="black"/>
<path d="M114.419 91.7871V96.1074H113.339V92.6484H106.243V91.7871H114.419ZM114.419 83.9531V91.1172H113.339V89.3672H110.208C109.641 90.0576 108.745 90.4678 107.692 90.4609C105.874 90.4746 104.534 89.2715 104.534 87.5488C104.534 85.8535 105.874 84.6504 107.692 84.6504C108.738 84.6504 109.634 85.0605 110.208 85.7441H113.339V83.9531H114.419ZM107.692 85.5664C106.448 85.5664 105.56 86.4004 105.56 87.5488C105.56 88.7383 106.448 89.5586 107.692 89.5586C108.882 89.5586 109.798 88.7383 109.798 87.5488C109.798 86.4004 108.882 85.5664 107.692 85.5664ZM110.687 88.4785H113.339V86.6328H110.687C110.782 86.9199 110.837 87.2207 110.837 87.5488C110.837 87.877 110.782 88.1914 110.687 88.4785ZM120.017 87.2207C120.017 89.3672 121.438 91.5684 123.161 92.416L122.505 93.2773C121.165 92.5732 120.044 91.1377 119.511 89.4492C118.964 91.2471 117.815 92.7783 116.448 93.5098L115.765 92.6484C117.542 91.7734 118.95 89.4355 118.964 87.2207V85.0059H120.017V87.2207ZM125.349 83.9531V88.8887H127.386V89.8184H125.349V96.1074H124.282V83.9531H125.349ZM131.138 86.5918C131.138 88.0273 132.095 89.4355 133.64 89.9961L133.12 90.8301C131.931 90.3584 131.09 89.4492 130.659 88.3418C130.235 89.5449 129.381 90.5361 128.171 91.0488L127.638 90.2422C129.183 89.5996 130.112 88.1367 130.126 86.5918V86.4414H127.884V85.5664H130.126V84.1035H131.138V85.5664H133.339V86.4414H131.138V86.5918ZM137.864 83.9668V91.4043H136.839V88.1094H135.253V91.3496H134.214V84.1855H135.253V87.2207H136.839V83.9668H137.864ZM137.864 92.0605V96.1074H136.812V92.9355H129.675V92.0605H137.864ZM104.651 109.227C104.665 106.643 105.362 104.496 106.62 102.678H107.659C106.729 104.031 105.868 106.793 105.868 109.227C105.868 111.66 106.729 114.436 107.659 115.789H106.62C105.362 113.957 104.665 111.811 104.651 109.227ZM108.608 113L108.595 112.098L111.972 108.543C113.147 107.299 113.708 106.629 113.708 105.713C113.708 104.701 112.847 104.031 111.739 104.031C110.563 104.031 109.812 104.783 109.812 105.891H108.649C108.636 104.141 109.989 102.965 111.78 102.965C113.571 102.965 114.856 104.168 114.856 105.713C114.856 106.82 114.337 107.682 112.587 109.486L110.317 111.824V111.906H115.034V113H108.608ZM119.552 113.137C117.761 113.137 116.407 112.029 116.339 110.512H117.528C117.624 111.4 118.485 112.057 119.552 112.057C120.837 112.057 121.767 111.113 121.767 109.869C121.767 108.584 120.796 107.641 119.47 107.627C118.636 107.613 117.993 107.873 117.624 108.516H116.435L117.132 103.102H122.491V104.195H118.157L117.788 107.094H117.884C118.321 106.752 118.991 106.52 119.688 106.52C121.575 106.52 122.97 107.914 122.97 109.842C122.97 111.756 121.521 113.137 119.552 113.137ZM129.284 107.695C127.999 107.695 127.302 106.738 127.302 105.316C127.302 103.922 128.026 102.951 129.284 102.951C130.583 102.951 131.267 103.922 131.267 105.316C131.267 106.738 130.556 107.695 129.284 107.695ZM129.284 106.848C129.954 106.848 130.269 106.246 130.269 105.316C130.269 104.4 129.981 103.785 129.284 103.799C128.628 103.799 128.3 104.4 128.3 105.316C128.3 106.246 128.628 106.848 129.284 106.848ZM135.327 113.137C134.042 113.15 133.331 112.18 133.345 110.771C133.331 109.363 134.069 108.393 135.327 108.393C136.612 108.393 137.296 109.363 137.296 110.771C137.296 112.18 136.585 113.15 135.327 113.137ZM135.327 112.289C135.983 112.289 136.298 111.688 136.298 110.771C136.298 109.842 136.011 109.227 135.327 109.24C134.671 109.254 134.329 109.842 134.329 110.771C134.329 111.688 134.657 112.289 135.327 112.289ZM128.272 113L135.081 103.102H136.188L129.38 113H128.272ZM141.362 109.227C141.349 111.811 140.651 113.957 139.394 115.789H138.354C139.284 114.436 140.146 111.66 140.146 109.227C140.146 106.793 139.284 104.031 138.354 102.678H139.394C140.651 104.496 141.349 106.643 141.362 109.227Z" fill="black"/>
<path d="M135.431 41.9688V42.8301H124.343V41.9688H129.36V40.5469H125.751V36.5273H134.05V37.3887H126.804V39.6719H134.132V40.5469H130.399V41.9688H135.431ZM129.88 43.7188C132.491 43.7188 134.05 44.5117 134.063 45.9062C134.05 47.3145 132.491 48.0938 129.88 48.1074C127.255 48.0938 125.683 47.3145 125.683 45.9062C125.683 44.5117 127.255 43.7188 129.88 43.7188ZM129.88 44.5664C127.925 44.5664 126.763 45.0723 126.776 45.9062C126.763 46.7539 127.925 47.2461 129.88 47.2461C131.808 47.2461 132.983 46.7539 132.983 45.9062C132.983 45.0723 131.808 44.5664 129.88 44.5664ZM145.376 35.9531V41.1348H147.317V42.0371H145.376V48.1074H144.296V35.9531H145.376ZM135.792 44.8672C136.783 44.8672 137.938 44.8672 139.142 44.8262V43.4727C137.727 43.3154 136.804 42.4883 136.817 41.2852C136.804 39.918 137.966 39.0293 139.688 39.0293C141.384 39.0293 142.56 39.918 142.573 41.2852C142.56 42.4883 141.623 43.3154 140.222 43.4863V44.7852C141.356 44.7305 142.498 44.6416 143.558 44.4844L143.626 45.3047C140.974 45.7559 138.103 45.7832 135.97 45.7832L135.792 44.8672ZM143.339 37.4434V38.3184H136.011V37.4434H139.142V35.9805H140.222V37.4434H143.339ZM139.688 39.8633C138.567 39.8633 137.815 40.4375 137.815 41.2852C137.815 42.1328 138.567 42.6797 139.688 42.666C140.796 42.6797 141.548 42.1328 141.548 41.2852C141.548 40.4375 140.796 39.8633 139.688 39.8633ZM151.138 38.5918C151.138 40.0273 152.095 41.4355 153.64 41.9961L153.12 42.8301C151.931 42.3584 151.09 41.4492 150.659 40.3418C150.235 41.5449 149.381 42.5361 148.171 43.0488L147.638 42.2422C149.183 41.5996 150.112 40.1367 150.126 38.5918V38.4414H147.884V37.5664H150.126V36.1035H151.138V37.5664H153.339V38.4414H151.138V38.5918ZM157.864 35.9668V43.4043H156.839V40.1094H155.253V43.3496H154.214V36.1855H155.253V39.2207H156.839V35.9668H157.864ZM157.864 44.0605V48.1074H156.812V44.9355H149.675V44.0605H157.864ZM121.426 61.2266C121.439 58.6426 122.137 56.4961 123.395 54.6777H124.434C123.504 56.0312 122.643 58.793 122.643 61.2266C122.643 63.6602 123.504 66.4355 124.434 67.7891H123.395C122.137 65.957 121.439 63.8105 121.426 61.2266ZM131.814 65.1367C129.846 65.1367 128.438 64.084 128.369 62.5117H129.613C129.682 63.4551 130.625 64.043 131.801 64.043C133.1 64.043 134.057 63.332 134.057 62.3066C134.057 61.2266 133.195 60.4609 131.65 60.4609H130.844V59.3809H131.65C132.854 59.3809 133.688 58.7109 133.688 57.6855C133.688 56.7012 132.963 56.0312 131.842 56.0312C130.789 56.0312 129.818 56.6191 129.764 57.5898H128.574C128.643 56.0176 130.092 54.9648 131.855 54.9648C133.742 54.9648 134.891 56.1953 134.877 57.6172C134.891 58.7383 134.234 59.5723 133.195 59.8594V59.9277C134.48 60.1328 135.273 61.0488 135.26 62.3066C135.273 63.9336 133.783 65.1367 131.814 65.1367ZM139.764 65.1367C137.973 65.1367 136.619 64.0293 136.551 62.5117H137.74C137.836 63.4004 138.697 64.0566 139.764 64.0566C141.049 64.0566 141.979 63.1133 141.979 61.8691C141.979 60.584 141.008 59.6406 139.682 59.627C138.848 59.6133 138.205 59.873 137.836 60.5156H136.646L137.344 55.1016H142.703V56.1953H138.369L138 59.0938H138.096C138.533 58.752 139.203 58.5195 139.9 58.5195C141.787 58.5195 143.182 59.9141 143.182 61.8418C143.182 63.7559 141.732 65.1367 139.764 65.1367ZM149.496 59.6953C148.211 59.6953 147.514 58.7383 147.514 57.3164C147.514 55.9219 148.238 54.9512 149.496 54.9512C150.795 54.9512 151.479 55.9219 151.479 57.3164C151.479 58.7383 150.768 59.6953 149.496 59.6953ZM149.496 58.8477C150.166 58.8477 150.48 58.2461 150.48 57.3164C150.48 56.4004 150.193 55.7852 149.496 55.7988C148.84 55.7988 148.512 56.4004 148.512 57.3164C148.512 58.2461 148.84 58.8477 149.496 58.8477ZM155.539 65.1367C154.254 65.1504 153.543 64.1797 153.557 62.7715C153.543 61.3633 154.281 60.3926 155.539 60.3926C156.824 60.3926 157.508 61.3633 157.508 62.7715C157.508 64.1797 156.797 65.1504 155.539 65.1367ZM155.539 64.2891C156.195 64.2891 156.51 63.6875 156.51 62.7715C156.51 61.8418 156.223 61.2266 155.539 61.2402C154.883 61.2539 154.541 61.8418 154.541 62.7715C154.541 63.6875 154.869 64.2891 155.539 64.2891ZM148.484 65L155.293 55.1016H156.4L149.592 65H148.484ZM161.574 61.2266C161.561 63.8105 160.863 65.957 159.605 67.7891H158.566C159.496 66.4355 160.357 63.6602 160.357 61.2266C160.357 58.793 159.496 56.0312 158.566 54.6777H159.605C160.863 56.4961 161.561 58.6426 161.574 61.2266Z" fill="black"/>
<defs>
<clipPath id="clip0_11284_25059">
<rect width="112" height="112" fill="white" transform="translate(61.1445 10.3633)"/>
</clipPath>
</defs>
</svg>
