<svg width="201" height="124" viewBox="0 0 201 124" fill="none" xmlns="http://www.w3.org/2000/svg">
<path d="M48.4814 92.0605V97.6523H42.8623V92.0605H48.4814ZM43.915 92.9355V96.791H47.4424V92.9355H43.915ZM51.8447 90.9531V94.6582H53.6768V95.5605H51.8447V99.8672H50.7783V90.9531H51.8447ZM52.4053 101.945V102.848H44.2432V99.0195H45.2959V101.945H52.4053ZM63.376 90.9531V96.1348H65.3174V97.0371H63.376V103.107H62.2959V90.9531H63.376ZM53.792 99.8672C54.7832 99.8672 55.9385 99.8672 57.1416 99.8262V98.4727C55.7266 98.3154 54.8037 97.4883 54.8174 96.2852C54.8037 94.918 55.9658 94.0293 57.6885 94.0293C59.3838 94.0293 60.5596 94.918 60.5732 96.2852C60.5596 97.4883 59.623 98.3154 58.2217 98.4863V99.7852C59.3564 99.7305 60.498 99.6416 61.5576 99.4844L61.626 100.305C58.9736 100.756 56.1025 100.783 53.9697 100.783L53.792 99.8672ZM61.3389 92.4434V93.3184H54.0107V92.4434H57.1416V90.9805H58.2217V92.4434H61.3389ZM57.6885 94.8633C56.5674 94.8633 55.8154 95.4375 55.8154 96.2852C55.8154 97.1328 56.5674 97.6797 57.6885 97.666C58.7959 97.6797 59.5479 97.1328 59.5479 96.2852C59.5479 95.4375 58.7959 94.8633 57.6885 94.8633ZM69.1377 93.5918C69.1377 95.0273 70.0947 96.4355 71.6396 96.9961L71.1201 97.8301C69.9307 97.3584 69.0898 96.4492 68.6592 95.3418C68.2354 96.5449 67.3809 97.5361 66.1709 98.0488L65.6377 97.2422C67.1826 96.5996 68.1123 95.1367 68.126 93.5918V93.4414H65.8838V92.5664H68.126V91.1035H69.1377V92.5664H71.3389V93.4414H69.1377V93.5918ZM75.8643 90.9668V98.4043H74.8389V95.1094H73.2529V98.3496H72.2139V91.1855H73.2529V94.2207H74.8389V90.9668H75.8643ZM75.8643 99.0605V103.107H74.8115V99.9355H67.6748V99.0605H75.8643ZM39.6445 116.227C39.6582 113.643 40.3555 111.496 41.6133 109.678H42.6523C41.7227 111.031 40.8613 113.793 40.8613 116.227C40.8613 118.66 41.7227 121.436 42.6523 122.789H41.6133C40.3555 120.957 39.6582 118.811 39.6445 116.227ZM46.6152 120L46.6016 119.098L49.9785 115.543C51.1543 114.299 51.7148 113.629 51.7148 112.713C51.7148 111.701 50.8535 111.031 49.7461 111.031C48.5703 111.031 47.8184 111.783 47.8184 112.891H46.6562C46.6426 111.141 47.9961 109.965 49.7871 109.965C51.5781 109.965 52.8633 111.168 52.8633 112.713C52.8633 113.82 52.3438 114.682 50.5938 116.486L48.3242 118.824V118.906H53.041V120H46.6152ZM57.5723 120.137C55.3711 120.137 54.1133 118.291 54.1133 115.051C54.1133 111.838 55.3984 109.965 57.5723 109.965C59.7461 109.965 61.0312 111.838 61.0312 115.051C61.0312 118.291 59.7598 120.137 57.5723 120.137ZM57.5723 119.043C58.9941 119.043 59.8281 117.607 59.8281 115.051C59.8281 112.494 58.9941 111.031 57.5723 111.031C56.1504 111.031 55.3027 112.494 55.3027 115.051C55.3027 117.607 56.1367 119.043 57.5723 119.043ZM67.2773 114.695C65.9922 114.695 65.2949 113.738 65.2949 112.316C65.2949 110.922 66.0195 109.951 67.2773 109.951C68.5762 109.951 69.2598 110.922 69.2598 112.316C69.2598 113.738 68.5488 114.695 67.2773 114.695ZM67.2773 113.848C67.9473 113.848 68.2617 113.246 68.2617 112.316C68.2617 111.4 67.9746 110.785 67.2773 110.799C66.6211 110.799 66.293 111.4 66.293 112.316C66.293 113.246 66.6211 113.848 67.2773 113.848ZM73.3203 120.137C72.0352 120.15 71.3242 119.18 71.3379 117.771C71.3242 116.363 72.0625 115.393 73.3203 115.393C74.6055 115.393 75.2891 116.363 75.2891 117.771C75.2891 119.18 74.5781 120.15 73.3203 120.137ZM73.3203 119.289C73.9766 119.289 74.291 118.688 74.291 117.771C74.291 116.842 74.0039 116.227 73.3203 116.24C72.6641 116.254 72.3223 116.842 72.3223 117.771C72.3223 118.688 72.6504 119.289 73.3203 119.289ZM66.2656 120L73.0742 110.102H74.1816L67.373 120H66.2656ZM79.3555 116.227C79.3418 118.811 78.6445 120.957 77.3867 122.789H76.3477C77.2773 121.436 78.1387 118.66 78.1387 116.227C78.1387 113.793 77.2773 111.031 76.3477 109.678H77.3867C78.6445 111.496 79.3418 113.643 79.3555 116.227Z" fill="black"/>
<path d="M48.9717 30.6738V31.5762H37.8428V30.6738H42.8604V27.8848H43.9131V30.6738H48.9717ZM47.9053 22.8945V23.7832H43.9404C43.9473 25.6904 45.9707 27.0918 48.3018 27.4746L47.8916 28.3223C45.9434 27.9736 44.1592 26.9961 43.3936 25.4785C42.6211 26.9961 40.8369 27.9736 38.8818 28.3223L38.458 27.4746C40.8027 27.0918 42.8398 25.6904 42.8467 23.7832H38.8818V22.8945H42.8604V21.2129H43.9131V22.8945H47.9053ZM60.5576 27.6523V28.541H49.4287V27.6523H54.46V26.3672H50.8779V23.4004H58.042V22.1426H50.8369V21.2676H59.1221V24.207H51.9443V25.5059H59.3818V26.3672H55.5127V27.6523H60.5576ZM59.1904 29.4707V32.998H58.1104V30.3457H50.6729V29.4707H59.1904ZM64.665 23.332C64.665 24.7129 65.5947 26.1074 67.1533 26.7227L66.5791 27.5566C65.4307 27.0781 64.5898 26.1895 64.1592 25.1094C63.708 26.292 62.833 27.3242 61.6436 27.8574L61.0557 27.0234C62.6553 26.3125 63.6396 24.7129 63.6396 23.332V21.7051H64.665V23.332ZM71.3643 20.9668V28.3086H70.3389V25.041H68.7256V28.2402H67.7139V21.1855H68.7256V24.1387H70.3389V20.9668H71.3643ZM71.3643 28.9785V33.1074H70.3115V29.8672H63.1748V28.9785H71.3643ZM36.2451 46.2266C36.2588 43.6426 36.9561 41.4961 38.2139 39.6777H39.2529C38.3232 41.0312 37.4619 43.793 37.4619 46.2266C37.4619 48.6602 38.3232 51.4355 39.2529 52.7891H38.2139C36.9561 50.957 36.2588 48.8105 36.2451 46.2266ZM46.7158 40.1016V50H45.4717V41.3867H45.417L43.0107 42.9863V41.7422L45.4717 40.1016H46.7158ZM48.8545 50L48.8408 49.0977L52.2178 45.543C53.3936 44.2988 53.9541 43.6289 53.9541 42.7129C53.9541 41.7012 53.0928 41.0312 51.9854 41.0312C50.8096 41.0312 50.0576 41.7832 50.0576 42.8906H48.8955C48.8818 41.1406 50.2354 39.9648 52.0264 39.9648C53.8174 39.9648 55.1025 41.168 55.1025 42.7129C55.1025 43.8203 54.583 44.6816 52.833 46.4863L50.5635 48.8242V48.9062H55.2803V50H48.8545ZM61.6768 44.6953C60.3916 44.6953 59.6943 43.7383 59.6943 42.3164C59.6943 40.9219 60.4189 39.9512 61.6768 39.9512C62.9756 39.9512 63.6592 40.9219 63.6592 42.3164C63.6592 43.7383 62.9482 44.6953 61.6768 44.6953ZM61.6768 43.8477C62.3467 43.8477 62.6611 43.2461 62.6611 42.3164C62.6611 41.4004 62.374 40.7852 61.6768 40.7988C61.0205 40.7988 60.6924 41.4004 60.6924 42.3164C60.6924 43.2461 61.0205 43.8477 61.6768 43.8477ZM67.7197 50.1367C66.4346 50.1504 65.7236 49.1797 65.7373 47.7715C65.7236 46.3633 66.4619 45.3926 67.7197 45.3926C69.0049 45.3926 69.6885 46.3633 69.6885 47.7715C69.6885 49.1797 68.9775 50.1504 67.7197 50.1367ZM67.7197 49.2891C68.376 49.2891 68.6904 48.6875 68.6904 47.7715C68.6904 46.8418 68.4033 46.2266 67.7197 46.2402C67.0635 46.2539 66.7217 46.8418 66.7217 47.7715C66.7217 48.6875 67.0498 49.2891 67.7197 49.2891ZM60.665 50L67.4736 40.1016H68.5811L61.7725 50H60.665ZM73.7549 46.2266C73.7412 48.8105 73.0439 50.957 71.7861 52.7891H70.7471C71.6768 51.4355 72.5381 48.6602 72.5381 46.2266C72.5381 43.793 71.6768 41.0312 70.7471 39.6777H71.7861C73.0439 41.4961 73.7412 43.6426 73.7549 46.2266Z" fill="black"/>
<path d="M13.1455 56.9531V59.6328H14.6904V60.5352H13.1455V63.3926H12.1064V56.9531H13.1455ZM4.60059 57.5547V59.2637H6.03613V57.5547H6.93848V62.7227H3.69824V57.5547H4.60059ZM4.60059 61.875H6.03613V60.1113H4.60059V61.875ZM8.63379 57.5547V59.2637H10.0693V57.5547H10.9717V62.7227H7.71777V57.5547H8.63379ZM8.63379 61.875H10.0693V60.1113H8.63379V61.875ZM13.1455 63.9121V66.7559H6.26855V68.0957H13.5967V68.9707H5.21582V65.9492H12.1064V64.7734H5.1748V63.9121H13.1455ZM24.4443 56.9531V60.6582H26.2764V61.5605H24.4443V65.8535H23.3643V56.9531H24.4443ZM21.1631 57.8965C21.1631 61.0273 18.9209 63.3516 15.4209 64.4453L14.9561 63.584C17.8682 62.6748 19.7686 60.9385 20.001 58.7988H15.4619V57.8965H21.1631ZM25.0049 67.9453V68.8477H16.8291V64.9512H17.8955V67.9453H25.0049ZM30.165 59.332C30.165 60.7129 31.0947 62.1074 32.6533 62.7227L32.0791 63.5566C30.9307 63.0781 30.0898 62.1895 29.6592 61.1094C29.208 62.292 28.333 63.3242 27.1436 63.8574L26.5557 63.0234C28.1553 62.3125 29.1396 60.7129 29.1396 59.332V57.7051H30.165V59.332ZM36.8643 56.9668V64.3086H35.8389V61.041H34.2256V64.2402H33.2139V57.1855H34.2256V60.1387H35.8389V56.9668H36.8643ZM36.8643 64.9785V69.1074H35.8115V65.8672H28.6748V64.9785H36.8643ZM1.67676 82.2266C1.69043 79.6426 2.3877 77.4961 3.64551 75.6777H4.68457C3.75488 77.0312 2.89355 79.793 2.89355 82.2266C2.89355 84.6602 3.75488 87.4355 4.68457 88.7891H3.64551C2.3877 86.957 1.69043 84.8105 1.67676 82.2266ZM12.1475 76.1016V86H10.9033V77.3867H10.8486L8.44238 78.9863V77.7422L10.9033 76.1016H12.1475ZM17.5127 86.1367C15.7217 86.1367 14.3682 85.0293 14.2998 83.5117H15.4893C15.585 84.4004 16.4463 85.0566 17.5127 85.0566C18.7979 85.0566 19.7275 84.1133 19.7275 82.8691C19.7275 81.584 18.7568 80.6406 17.4307 80.627C16.5967 80.6133 15.9541 80.873 15.585 81.5156H14.3955L15.0928 76.1016H20.4521V77.1953H16.1182L15.749 80.0938H15.8447C16.2822 79.752 16.9521 79.5195 17.6494 79.5195C19.5361 79.5195 20.9307 80.9141 20.9307 82.8418C20.9307 84.7559 19.4814 86.1367 17.5127 86.1367ZM27.2451 80.6953C25.96 80.6953 25.2627 79.7383 25.2627 78.3164C25.2627 76.9219 25.9873 75.9512 27.2451 75.9512C28.5439 75.9512 29.2275 76.9219 29.2275 78.3164C29.2275 79.7383 28.5166 80.6953 27.2451 80.6953ZM27.2451 79.8477C27.915 79.8477 28.2295 79.2461 28.2295 78.3164C28.2295 77.4004 27.9424 76.7852 27.2451 76.7988C26.5889 76.7988 26.2607 77.4004 26.2607 78.3164C26.2607 79.2461 26.5889 79.8477 27.2451 79.8477ZM33.2881 86.1367C32.0029 86.1504 31.292 85.1797 31.3057 83.7715C31.292 82.3633 32.0303 81.3926 33.2881 81.3926C34.5732 81.3926 35.2568 82.3633 35.2568 83.7715C35.2568 85.1797 34.5459 86.1504 33.2881 86.1367ZM33.2881 85.2891C33.9443 85.2891 34.2588 84.6875 34.2588 83.7715C34.2588 82.8418 33.9717 82.2266 33.2881 82.2402C32.6318 82.2539 32.29 82.8418 32.29 83.7715C32.29 84.6875 32.6182 85.2891 33.2881 85.2891ZM26.2334 86L33.042 76.1016H34.1494L27.3408 86H26.2334ZM39.3232 82.2266C39.3096 84.8105 38.6123 86.957 37.3545 88.7891H36.3154C37.2451 87.4355 38.1064 84.6602 38.1064 82.2266C38.1064 79.793 37.2451 77.0312 36.3154 75.6777H37.3545C38.6123 77.4961 39.3096 79.6426 39.3232 82.2266Z" fill="black"/>
<g clip-path="url(#clip0_11284_25126)">
<path d="M145.087 65.9784L134.521 11.5651C138.13 10.8696 141.42 10.5508 145.087 10.5508V65.9784Z" fill="#DFCCE4"/>
<path d="M145.087 65.9784L134.521 11.5651C138.13 10.8696 141.42 10.5508 145.087 10.5508V65.9784Z" fill="#DFCCE4"/>
<path d="M145.087 65.9784L134.521 11.5651C138.13 10.8696 141.42 10.5508 145.087 10.5508V65.9784Z" stroke="#6D6E71" stroke-width="0.724638" stroke-miterlimit="10"/>
<path d="M145.087 65.9784L134.521 11.5651C138.13 10.8696 141.42 10.5508 145.087 10.5508V65.9784Z" stroke="#6D6E71" stroke-width="0.724638" stroke-miterlimit="10"/>
<path d="M145.085 65.9777L100.288 33.3877C108.911 21.5052 120.114 14.3612 134.52 11.5645L145.085 65.9777Z" fill="#BADAF3"/>
<path d="M145.085 65.9777L100.288 33.3877C108.911 21.5052 120.114 14.3612 134.52 11.5645L145.085 65.9777Z" fill="#BADAF3"/>
<path d="M145.085 65.9777L100.288 33.3877C108.911 21.5052 120.114 14.3612 134.52 11.5645L145.085 65.9777Z" stroke="#231F20" stroke-width="0.724638" stroke-miterlimit="10"/>
<path d="M145.085 65.9777L100.288 33.3877C108.911 21.5052 120.114 14.3612 134.52 11.5645L145.085 65.9777Z" stroke="#6D6E71" stroke-width="0.724638" stroke-miterlimit="10"/>
<path d="M145.085 65.9787L92.4182 83.1069C86.7515 65.6309 89.5052 48.2563 100.288 33.3887L145.085 65.9642V65.9787Z" fill="#BCE4E5"/>
<path d="M145.085 65.9787L92.4182 83.1069C86.7515 65.6309 89.5052 48.2563 100.288 33.3887L145.085 65.9642V65.9787Z" stroke="#6D6E71" stroke-width="0.724638" stroke-miterlimit="10"/>
<path d="M145.086 65.9785L131.694 119.769C112.709 115.03 98.4769 101.742 92.4189 83.1212L145.086 65.993V65.9785Z" fill="#E6E8C7"/>
<path d="M145.086 65.9785L131.694 119.769C112.709 115.03 98.4769 101.742 92.4189 83.1212L145.086 65.993V65.9785Z" stroke="#6D6E71" stroke-width="0.724638" stroke-miterlimit="10"/>
<path d="M145.088 65.9754L197.754 83.1036C188.682 111.057 160.175 126.866 131.696 119.751L145.088 65.9609V65.9754Z" fill="#FFE5C2"/>
<path d="M145.088 65.9754L197.754 83.1036C188.682 111.057 160.175 126.866 131.696 119.751L145.088 65.9609V65.9754Z" stroke="#6D6E71" stroke-width="0.724638" stroke-miterlimit="10"/>
<path d="M145.085 65.9784V10.5508C175.665 10.5508 200.462 35.3592 200.462 65.9784C200.462 72.108 199.636 77.2813 197.752 83.1066L145.085 65.9784Z" fill="#FDE3D7"/>
<path d="M145.085 65.9784V10.5508C175.665 10.5508 200.462 35.3592 200.462 65.9784C200.462 72.108 199.636 77.2813 197.752 83.1066L145.085 65.9784Z" fill="#FDE3D7"/>
<path d="M145.085 65.9784V10.5508C175.665 10.5508 200.462 35.3592 200.462 65.9784C200.462 72.108 199.636 77.2813 197.752 83.1066L145.085 65.9784Z" stroke="#6D6E71" stroke-width="0.724638" stroke-miterlimit="10"/>
<path d="M145.085 65.9784V10.5508C175.665 10.5508 200.462 35.3592 200.462 65.9784C200.462 72.108 199.636 77.2813 197.752 83.1066L145.085 65.9784Z" stroke="#6D6E71" stroke-width="0.724638" stroke-miterlimit="10"/>
<path d="M145.085 10.5508C141.418 10.5508 138.114 10.8696 134.52 11.5651C120.114 14.3619 108.911 21.5059 100.288 33.4029C89.5052 48.256 86.7515 65.6306 92.4182 83.1066C98.4617 101.742 112.694 115.016 131.694 119.754C160.186 126.869 188.679 111.045 197.752 83.1066C199.636 77.2813 200.462 72.0935 200.462 65.9784C200.462 35.3592 175.665 10.5508 145.085 10.5508Z" stroke="#6D6E71" stroke-width="1.08696" stroke-linejoin="bevel"/>
</g>
<path d="M80.9141 96.382H87.7221L102.304 86.1562" stroke="#EC008C" stroke-miterlimit="10"/>
<path d="M106.876 82.1877L102.796 90.5026L101.732 86.6428L97.5039 85.5534L106.876 82.1877Z" fill="#EC008C"/>
<path d="M78.7852 26.1316H85.5932L110.5 33" stroke="#EC008C" stroke-miterlimit="10"/>
<path d="M115.93 37.934L106.478 34.732L110.7 33.5606L111.673 29.7001L115.93 37.934Z" fill="#EC008C"/>
<path d="M78.7852 26.1316H85.5932L110.5 33" stroke="#EC008C" stroke-miterlimit="10"/>
<path d="M115.93 37.934L106.478 34.732L110.7 33.5606L111.673 29.7001L115.93 37.934Z" fill="#EC008C"/>
<path d="M44.7852 63.1394H51.5932L96.5 65.0078" stroke="#EC008C" stroke-miterlimit="10"/>
<path d="M102.943 65.5042L93.3315 68.1891L96.1585 64.8409L94.7849 61.1042L102.943 65.5042Z" fill="#EC008C"/>
<path d="M114.895 11.1316H137.814L141.006 24.6875" stroke="#EC008C" stroke-miterlimit="10"/>
<path d="M141.598 28.8199L135.696 21.4436L139.933 22.5721L143.117 19.8418L141.598 28.8199Z" fill="#EC008C"/>
<path d="M63.5586 3.95312V16.1074H62.4785V3.95312H63.5586ZM59.9629 5.2793C59.9492 8.7793 58.3223 11.8691 54.248 13.8242L53.6602 12.9492C56.9482 11.3906 58.623 9.05957 58.8691 6.1543H54.2207V5.2793H59.9629ZM71.3438 5.06055V5.96289H66.7227V8.47852H71.0703V9.35352H66.7227V12.293C68.9102 12.293 70.4482 12.2041 72.2734 11.8965L72.3965 12.7852C70.4961 13.0996 68.8965 13.168 66.5996 13.1816H65.6426V5.06055H71.3438ZM74.5156 3.95312V8.84766H76.5527V9.76367H74.5156V16.1074H73.4492V3.95312H74.5156ZM77.4609 11.2266C77.4746 8.64258 78.1719 6.49609 79.4297 4.67773H80.4688C79.5391 6.03125 78.6777 8.79297 78.6777 11.2266C78.6777 13.6602 79.5391 16.4355 80.4688 17.7891H79.4297C78.1719 15.957 77.4746 13.8105 77.4609 11.2266ZM87.8496 15.1367C85.8809 15.1367 84.4727 14.084 84.4043 12.5117H85.6484C85.7168 13.4551 86.6602 14.043 87.8359 14.043C89.1348 14.043 90.0918 13.332 90.0918 12.3066C90.0918 11.2266 89.2305 10.4609 87.6855 10.4609H86.8789V9.38086H87.6855C88.8887 9.38086 89.7227 8.71094 89.7227 7.68555C89.7227 6.70117 88.998 6.03125 87.877 6.03125C86.8242 6.03125 85.8535 6.61914 85.7988 7.58984H84.6094C84.6777 6.01758 86.127 4.96484 87.8906 4.96484C89.7773 4.96484 90.9258 6.19531 90.9121 7.61719C90.9258 8.73828 90.2695 9.57227 89.2305 9.85938V9.92773C90.5156 10.1328 91.3086 11.0488 91.2949 12.3066C91.3086 13.9336 89.8184 15.1367 87.8496 15.1367ZM97.6777 9.69531C96.3926 9.69531 95.6953 8.73828 95.6953 7.31641C95.6953 5.92188 96.4199 4.95117 97.6777 4.95117C98.9766 4.95117 99.6602 5.92188 99.6602 7.31641C99.6602 8.73828 98.9492 9.69531 97.6777 9.69531ZM97.6777 8.84766C98.3477 8.84766 98.6621 8.24609 98.6621 7.31641C98.6621 6.40039 98.375 5.78516 97.6777 5.79883C97.0215 5.79883 96.6934 6.40039 96.6934 7.31641C96.6934 8.24609 97.0215 8.84766 97.6777 8.84766ZM103.721 15.1367C102.436 15.1504 101.725 14.1797 101.738 12.7715C101.725 11.3633 102.463 10.3926 103.721 10.3926C105.006 10.3926 105.689 11.3633 105.689 12.7715C105.689 14.1797 104.979 15.1504 103.721 15.1367ZM103.721 14.2891C104.377 14.2891 104.691 13.6875 104.691 12.7715C104.691 11.8418 104.404 11.2266 103.721 11.2402C103.064 11.2539 102.723 11.8418 102.723 12.7715C102.723 13.6875 103.051 14.2891 103.721 14.2891ZM96.666 15L103.475 5.10156H104.582L97.7734 15H96.666ZM109.756 11.2266C109.742 13.8105 109.045 15.957 107.787 17.7891H106.748C107.678 16.4355 108.539 13.6602 108.539 11.2266C108.539 8.79297 107.678 6.03125 106.748 4.67773H107.787C109.045 6.49609 109.742 8.64258 109.756 11.2266Z" fill="black"/>
<path d="M154.472 87.6602V88.5488H143.343V87.6602H148.347V85.0352H144.655V78.8145H145.735V81.0156H152.052V78.8145H153.104V85.0352H149.399V87.6602H154.472ZM145.735 84.1602H152.052V81.8906H145.735V84.1602ZM164.349 77.9531V82.793H166.386V83.6953H164.349V90.1348H163.282V77.9531H164.349ZM160.944 79.0879V83.4355H156.515V86.2793C158.771 86.2793 160.343 86.2041 162.188 85.8555L162.298 86.7441C160.384 87.0996 158.757 87.1816 156.419 87.1953H155.448V82.5469H159.878V79.9766H155.421V79.0879H160.944ZM170.165 80.332C170.165 81.7129 171.095 83.1074 172.653 83.7227L172.079 84.5566C170.931 84.0781 170.09 83.1895 169.659 82.1094C169.208 83.292 168.333 84.3242 167.144 84.8574L166.556 84.0234C168.155 83.3125 169.14 81.7129 169.14 80.332V78.7051H170.165V80.332ZM176.864 77.9668V85.3086H175.839V82.041H174.226V85.2402H173.214V78.1855H174.226V81.1387H175.839V77.9668H176.864ZM176.864 85.9785V90.1074H175.812V86.8672H168.675V85.9785H176.864ZM140.556 103.227C140.569 100.643 141.267 98.4961 142.524 96.6777H143.563C142.634 98.0312 141.772 100.793 141.772 103.227C141.772 105.66 142.634 108.436 143.563 109.789H142.524C141.267 107.957 140.569 105.811 140.556 103.227ZM147.526 107L147.513 106.098L150.89 102.543C152.065 101.299 152.626 100.629 152.626 99.7129C152.626 98.7012 151.765 98.0312 150.657 98.0312C149.481 98.0312 148.729 98.7832 148.729 99.8906H147.567C147.554 98.1406 148.907 96.9648 150.698 96.9648C152.489 96.9648 153.774 98.168 153.774 99.7129C153.774 100.82 153.255 101.682 151.505 103.486L149.235 105.824V105.906H153.952V107H147.526ZM154.778 104.977V103.965L159.235 97.1016H160.753V103.896H162.134V104.977H160.753V107H159.577V104.977H154.778ZM156.104 103.896H159.577V98.6602H159.454L156.104 103.814V103.896ZM168.366 101.695C167.081 101.695 166.384 100.738 166.384 99.3164C166.384 97.9219 167.108 96.9512 168.366 96.9512C169.665 96.9512 170.349 97.9219 170.349 99.3164C170.349 100.738 169.638 101.695 168.366 101.695ZM168.366 100.848C169.036 100.848 169.351 100.246 169.351 99.3164C169.351 98.4004 169.063 97.7852 168.366 97.7988C167.71 97.7988 167.382 98.4004 167.382 99.3164C167.382 100.246 167.71 100.848 168.366 100.848ZM174.409 107.137C173.124 107.15 172.413 106.18 172.427 104.771C172.413 103.363 173.151 102.393 174.409 102.393C175.694 102.393 176.378 103.363 176.378 104.771C176.378 106.18 175.667 107.15 174.409 107.137ZM174.409 106.289C175.065 106.289 175.38 105.688 175.38 104.771C175.38 103.842 175.093 103.227 174.409 103.24C173.753 103.254 173.411 103.842 173.411 104.771C173.411 105.688 173.739 106.289 174.409 106.289ZM167.354 107L174.163 97.1016H175.271L168.462 107H167.354ZM180.444 103.227C180.431 105.811 179.733 107.957 178.476 109.789H177.437C178.366 108.436 179.228 105.66 179.228 103.227C179.228 100.793 178.366 98.0312 177.437 96.6777H178.476C179.733 98.4961 180.431 100.643 180.444 103.227Z" fill="black"/>
<path d="M160.329 35.2793V36.168H158.976V42.0195C159.632 41.9717 160.281 41.917 160.903 41.8418L160.958 42.6348C158.388 43.0449 155.476 43.0859 153.329 43.0996L153.192 42.1836L154.833 42.1699V36.168H153.493V35.2793H160.329ZM162.749 33.9531V38.834H164.786V39.7363H162.749V46.1074H161.683V33.9531H162.749ZM155.872 42.1562C156.549 42.1426 157.253 42.1152 157.95 42.0742V36.168H155.872V42.1562ZM174.444 33.9668V37.6992H176.29V38.6152H174.444V42.9082H173.378V33.9668H174.444ZM175.019 44.9453V45.8477H166.911V42.2246H168.005V44.9453H175.019ZM170.972 34.7598V38.2324H166.542V40.1328C168.702 40.1465 170.268 40.0576 172.161 39.7363L172.271 40.625C170.315 40.9531 168.688 41.0215 166.433 41.0215H165.489V37.3848H169.919V35.6621H165.462V34.7598H170.972ZM180.165 36.332C180.165 37.7129 181.095 39.1074 182.653 39.7227L182.079 40.5566C180.931 40.0781 180.09 39.1895 179.659 38.1094C179.208 39.292 178.333 40.3242 177.144 40.8574L176.556 40.0234C178.155 39.3125 179.14 37.7129 179.14 36.332V34.7051H180.165V36.332ZM186.864 33.9668V41.3086H185.839V38.041H184.226V41.2402H183.214V34.1855H184.226V37.1387H185.839V33.9668H186.864ZM186.864 41.9785V46.1074H185.812V42.8672H178.675V41.9785H186.864ZM150.433 59.2266C150.446 56.6426 151.144 54.4961 152.401 52.6777H153.44C152.511 54.0312 151.649 56.793 151.649 59.2266C151.649 61.6602 152.511 64.4355 153.44 65.7891H152.401C151.144 63.957 150.446 61.8105 150.433 59.2266ZM160.821 63.1367C158.853 63.1367 157.444 62.084 157.376 60.5117H158.62C158.688 61.4551 159.632 62.043 160.808 62.043C162.106 62.043 163.063 61.332 163.063 60.3066C163.063 59.2266 162.202 58.4609 160.657 58.4609H159.851V57.3809H160.657C161.86 57.3809 162.694 56.7109 162.694 55.6855C162.694 54.7012 161.97 54.0312 160.849 54.0312C159.796 54.0312 158.825 54.6191 158.771 55.5898H157.581C157.649 54.0176 159.099 52.9648 160.862 52.9648C162.749 52.9648 163.897 54.1953 163.884 55.6172C163.897 56.7383 163.241 57.5723 162.202 57.8594V57.9277C163.487 58.1328 164.28 59.0488 164.267 60.3066C164.28 61.9336 162.79 63.1367 160.821 63.1367ZM168.784 63.1367C166.583 63.1367 165.325 61.291 165.325 58.0508C165.325 54.8379 166.61 52.9648 168.784 52.9648C170.958 52.9648 172.243 54.8379 172.243 58.0508C172.243 61.291 170.972 63.1367 168.784 63.1367ZM168.784 62.043C170.206 62.043 171.04 60.6074 171.04 58.0508C171.04 55.4941 170.206 54.0312 168.784 54.0312C167.362 54.0312 166.515 55.4941 166.515 58.0508C166.515 60.6074 167.349 62.043 168.784 62.043ZM178.489 57.6953C177.204 57.6953 176.507 56.7383 176.507 55.3164C176.507 53.9219 177.231 52.9512 178.489 52.9512C179.788 52.9512 180.472 53.9219 180.472 55.3164C180.472 56.7383 179.761 57.6953 178.489 57.6953ZM178.489 56.8477C179.159 56.8477 179.474 56.2461 179.474 55.3164C179.474 54.4004 179.187 53.7852 178.489 53.7988C177.833 53.7988 177.505 54.4004 177.505 55.3164C177.505 56.2461 177.833 56.8477 178.489 56.8477ZM184.532 63.1367C183.247 63.1504 182.536 62.1797 182.55 60.7715C182.536 59.3633 183.274 58.3926 184.532 58.3926C185.817 58.3926 186.501 59.3633 186.501 60.7715C186.501 62.1797 185.79 63.1504 184.532 63.1367ZM184.532 62.2891C185.188 62.2891 185.503 61.6875 185.503 60.7715C185.503 59.8418 185.216 59.2266 184.532 59.2402C183.876 59.2539 183.534 59.8418 183.534 60.7715C183.534 61.6875 183.862 62.2891 184.532 62.2891ZM177.478 63L184.286 53.1016H185.394L178.585 63H177.478ZM190.567 59.2266C190.554 61.8105 189.856 63.957 188.599 65.7891H187.56C188.489 64.4355 189.351 61.6602 189.351 59.2266C189.351 56.793 188.489 54.0312 187.56 52.6777H188.599C189.856 54.4961 190.554 56.6426 190.567 59.2266Z" fill="black"/>
<defs>
<clipPath id="clip0_11284_25126">
<rect width="112" height="112" fill="white" transform="translate(89 10)"/>
</clipPath>
</defs>
</svg>
