<svg width="260" height="100" viewBox="0 0 260 100" fill="none" xmlns="http://www.w3.org/2000/svg">
<mask id="path-1-inside-1_11284_25291" fill="white">
<path d="M0 0H80V58H0V0Z"/>
</mask>
<path d="M0 0H80V58H0V0Z" fill="#F1E2D6"/>
<path d="M0 0V-1H-1V0H0ZM0 58H-1V59H0V58ZM0 1H80V-1H0V1ZM80 57H0V59H80V57ZM1 58V0H-1V58H1Z" fill="#6D6E71" mask="url(#path-1-inside-1_11284_25291)"/>
<path d="M28.1475 15.3613V16.2363H24.3604V18.5742H27.9697V19.4355H24.3604V22.1836C26.165 22.1768 27.2793 22.1289 28.6123 21.8828L28.708 22.7715C27.2861 23.0449 26.1104 23.0996 24.1143 23.0996H23.335V15.3613H28.1475ZM33.2607 13.9531V26.1074H32.2217V19.7363H30.5537V25.4922H29.5146V14.2129H30.5537V18.8477H32.2217V13.9531H33.2607ZM44.5049 13.9668V23.1543H43.4111V21.4453H40.7314V20.5703H43.4111V13.9668H44.5049ZM44.8057 24.9453V25.8477H36.1787V22.1289H37.2588V24.9453H44.8057ZM34.3604 18.7793C35.9189 18.7793 37.8809 18.7588 39.8154 18.6289C40.0547 17.2822 40.0957 16.2773 40.1025 15.5801H35.4541V14.7051H41.1689V15.1836C41.1689 15.8535 41.1689 16.9951 40.9092 18.5332C41.3877 18.499 41.8525 18.4443 42.3037 18.3828L42.3857 19.1621C41.251 19.3535 40.0615 19.4697 38.8994 19.5449V22.3477H37.833V19.5996C36.6299 19.6543 35.4951 19.668 34.5107 19.668L34.3604 18.7793ZM55.8584 19.6543V20.5293H52.0986V23.6738H57.1709V24.5762H46.042V23.6738H51.0459V20.5293H47.4639V14.9512H55.7354V15.8262H48.5439V19.6543H55.8584ZM19.9326 39.2266C19.9463 36.6426 20.6436 34.4961 21.9014 32.6777H22.9404C22.0107 34.0312 21.1494 36.793 21.1494 39.2266C21.1494 41.6602 22.0107 44.4355 22.9404 45.7891H21.9014C20.6436 43.957 19.9463 41.8105 19.9326 39.2266ZM30.3213 43.1367C28.3525 43.1367 26.9443 42.084 26.876 40.5117H28.1201C28.1885 41.4551 29.1318 42.043 30.3076 42.043C31.6064 42.043 32.5635 41.332 32.5635 40.3066C32.5635 39.2266 31.7021 38.4609 30.1572 38.4609H29.3506V37.3809H30.1572C31.3604 37.3809 32.1943 36.7109 32.1943 35.6855C32.1943 34.7012 31.4697 34.0312 30.3486 34.0312C29.2959 34.0312 28.3252 34.6191 28.2705 35.5898H27.0811C27.1494 34.0176 28.5986 32.9648 30.3623 32.9648C32.249 32.9648 33.3975 34.1953 33.3838 35.6172C33.3975 36.7383 32.7412 37.5723 31.7021 37.8594V37.9277C32.9873 38.1328 33.7803 39.0488 33.7666 40.3066C33.7803 41.9336 32.29 43.1367 30.3213 43.1367ZM38.2842 43.1367C36.083 43.1367 34.8252 41.291 34.8252 38.0508C34.8252 34.8379 36.1104 32.9648 38.2842 32.9648C40.458 32.9648 41.7432 34.8379 41.7432 38.0508C41.7432 41.291 40.4717 43.1367 38.2842 43.1367ZM38.2842 42.043C39.7061 42.043 40.54 40.6074 40.54 38.0508C40.54 35.4941 39.7061 34.0312 38.2842 34.0312C36.8623 34.0312 36.0146 35.4941 36.0146 38.0508C36.0146 40.6074 36.8486 42.043 38.2842 42.043ZM47.9893 37.6953C46.7041 37.6953 46.0068 36.7383 46.0068 35.3164C46.0068 33.9219 46.7314 32.9512 47.9893 32.9512C49.2881 32.9512 49.9717 33.9219 49.9717 35.3164C49.9717 36.7383 49.2607 37.6953 47.9893 37.6953ZM47.9893 36.8477C48.6592 36.8477 48.9736 36.2461 48.9736 35.3164C48.9736 34.4004 48.6865 33.7852 47.9893 33.7988C47.333 33.7988 47.0049 34.4004 47.0049 35.3164C47.0049 36.2461 47.333 36.8477 47.9893 36.8477ZM54.0322 43.1367C52.7471 43.1504 52.0361 42.1797 52.0498 40.7715C52.0361 39.3633 52.7744 38.3926 54.0322 38.3926C55.3174 38.3926 56.001 39.3633 56.001 40.7715C56.001 42.1797 55.29 43.1504 54.0322 43.1367ZM54.0322 42.2891C54.6885 42.2891 55.0029 41.6875 55.0029 40.7715C55.0029 39.8418 54.7158 39.2266 54.0322 39.2402C53.376 39.2539 53.0342 39.8418 53.0342 40.7715C53.0342 41.6875 53.3623 42.2891 54.0322 42.2891ZM46.9775 43L53.7861 33.1016H54.8936L48.085 43H46.9775ZM60.0674 39.2266C60.0537 41.8105 59.3564 43.957 58.0986 45.7891H57.0596C57.9893 44.4355 58.8506 41.6602 58.8506 39.2266C58.8506 36.793 57.9893 34.0312 57.0596 32.6777H58.0986C59.3564 34.4961 60.0537 36.6426 60.0674 39.2266Z" fill="black"/>
<mask id="path-4-inside-2_11284_25291" fill="white">
<path d="M80 0H150V58H80V0Z"/>
</mask>
<path d="M80 0H150V58H80V0Z" fill="#FFE5C2"/>
<path d="M80 0V-1H79V0H80ZM80 58H79V59H80V58ZM80 1H150V-1H80V1ZM150 57H80V59H150V57ZM81 58V0H79V58H81Z" fill="#6D6E71" mask="url(#path-4-inside-2_11284_25291)"/>
<path d="M109.74 15.0879C109.74 16.7969 111.982 18.2871 114.17 18.5879L113.732 19.4629C111.846 19.1484 109.979 18.1025 109.193 16.6055C108.414 18.1094 106.541 19.1484 104.654 19.4629L104.217 18.5879C106.404 18.2871 108.633 16.8242 108.633 15.0879V14.3906H109.74V15.0879ZM114.717 20.8027V21.7051H109.686V26.1074H108.633V21.7051H103.643V20.8027H114.717ZM118.592 14.6914C119.617 14.6846 120.492 15.0674 121.053 15.7168H124.238V13.9531H125.318V21.1582H124.238V19.4219H121.066C120.492 20.0713 119.617 20.4541 118.592 20.4473C116.773 20.4609 115.434 19.2715 115.434 17.5762C115.434 15.8672 116.773 14.6777 118.592 14.6914ZM118.592 15.6211C117.348 15.6074 116.459 16.4277 116.459 17.5762C116.459 18.7109 117.348 19.5312 118.592 19.5312C119.795 19.5312 120.697 18.7109 120.697 17.5762C120.697 16.4277 119.795 15.6074 118.592 15.6211ZM121.285 21.4453C123.801 21.4453 125.359 22.293 125.359 23.7559C125.359 25.2324 123.801 26.0801 121.285 26.0801C118.756 26.0801 117.211 25.2324 117.211 23.7559C117.211 22.293 118.756 21.4453 121.285 21.4453ZM121.285 22.2793C119.426 22.2793 118.264 22.8398 118.264 23.7559C118.264 24.6719 119.426 25.2188 121.285 25.2188C123.158 25.2188 124.307 24.6719 124.307 23.7559C124.307 22.8398 123.158 22.2793 121.285 22.2793ZM121.572 16.5918C121.675 16.8926 121.736 17.2207 121.736 17.5762C121.736 17.918 121.675 18.2393 121.572 18.5332H124.238V16.5918H121.572ZM95.1377 39.2266C95.1514 36.6426 95.8486 34.4961 97.1064 32.6777H98.1455C97.2158 34.0312 96.3545 36.793 96.3545 39.2266C96.3545 41.6602 97.2158 44.4355 98.1455 45.7891H97.1064C95.8486 43.957 95.1514 41.8105 95.1377 39.2266ZM102.108 43L102.095 42.0977L105.472 38.543C106.647 37.2988 107.208 36.6289 107.208 35.7129C107.208 34.7012 106.347 34.0312 105.239 34.0312C104.063 34.0312 103.312 34.7832 103.312 35.8906H102.149C102.136 34.1406 103.489 32.9648 105.28 32.9648C107.071 32.9648 108.356 34.168 108.356 35.7129C108.356 36.8203 107.837 37.6816 106.087 39.4863L103.817 41.8242V41.9062H108.534V43H102.108ZM113.052 43.1367C111.261 43.1367 109.907 42.0293 109.839 40.5117H111.028C111.124 41.4004 111.985 42.0566 113.052 42.0566C114.337 42.0566 115.267 41.1133 115.267 39.8691C115.267 38.584 114.296 37.6406 112.97 37.627C112.136 37.6133 111.493 37.873 111.124 38.5156H109.935L110.632 33.1016H115.991V34.1953H111.657L111.288 37.0938H111.384C111.821 36.752 112.491 36.5195 113.188 36.5195C115.075 36.5195 116.47 37.9141 116.47 39.8418C116.47 41.7559 115.021 43.1367 113.052 43.1367ZM122.784 37.6953C121.499 37.6953 120.802 36.7383 120.802 35.3164C120.802 33.9219 121.526 32.9512 122.784 32.9512C124.083 32.9512 124.767 33.9219 124.767 35.3164C124.767 36.7383 124.056 37.6953 122.784 37.6953ZM122.784 36.8477C123.454 36.8477 123.769 36.2461 123.769 35.3164C123.769 34.4004 123.481 33.7852 122.784 33.7988C122.128 33.7988 121.8 34.4004 121.8 35.3164C121.8 36.2461 122.128 36.8477 122.784 36.8477ZM128.827 43.1367C127.542 43.1504 126.831 42.1797 126.845 40.7715C126.831 39.3633 127.569 38.3926 128.827 38.3926C130.112 38.3926 130.796 39.3633 130.796 40.7715C130.796 42.1797 130.085 43.1504 128.827 43.1367ZM128.827 42.2891C129.483 42.2891 129.798 41.6875 129.798 40.7715C129.798 39.8418 129.511 39.2266 128.827 39.2402C128.171 39.2539 127.829 39.8418 127.829 40.7715C127.829 41.6875 128.157 42.2891 128.827 42.2891ZM121.772 43L128.581 33.1016H129.688L122.88 43H121.772ZM134.862 39.2266C134.849 41.8105 134.151 43.957 132.894 45.7891H131.854C132.784 44.4355 133.646 41.6602 133.646 39.2266C133.646 36.793 132.784 34.0312 131.854 32.6777H132.894C134.151 34.4961 134.849 36.6426 134.862 39.2266Z" fill="black"/>
<mask id="path-7-inside-3_11284_25291" fill="white">
<path d="M150 0H210V58H150V0Z"/>
</mask>
<path d="M150 0H210V58H150V0Z" fill="#E6E8C7"/>
<path d="M150 0V-1H149V0H150ZM150 58H149V59H150V58ZM150 1H210V-1H150V1ZM210 57H150V59H210V57ZM151 58V0H149V58H151Z" fill="#6D6E71" mask="url(#path-7-inside-3_11284_25291)"/>
<path d="M179.717 20.0781V20.9531H174.699V22.3477H178.35V26.0664H177.27V23.2227H169.873V22.3477H173.646V20.9531H168.643V20.0781H179.717ZM174.699 13.8984V15.1562H178.596V16.0176H174.768C174.843 17.3984 176.764 18.3486 179.061 18.5742L178.705 19.3945C176.702 19.1758 174.911 18.4443 174.18 17.207C173.441 18.4443 171.65 19.1758 169.654 19.3945L169.299 18.5742C171.582 18.3486 173.503 17.3984 173.592 16.0176H169.791V15.1562H173.646V13.8984H174.699ZM189.854 14.7461V15.8125C189.854 16.9678 189.854 18.2188 189.512 19.9688H191.316V20.8574H186.299V26.1348H185.219V20.8574H180.242V19.9688H188.418C188.787 18.2188 188.787 16.9404 188.787 15.8125V15.6348H181.637V14.7461H189.854ZM158.638 39.2266C158.651 36.6426 159.349 34.4961 160.606 32.6777H161.646C160.716 34.0312 159.854 36.793 159.854 39.2266C159.854 41.6602 160.716 44.4355 161.646 45.7891H160.606C159.349 43.957 158.651 41.8105 158.638 39.2266ZM165.608 43L165.595 42.0977L168.972 38.543C170.147 37.2988 170.708 36.6289 170.708 35.7129C170.708 34.7012 169.847 34.0312 168.739 34.0312C167.563 34.0312 166.812 34.7832 166.812 35.8906H165.649C165.636 34.1406 166.989 32.9648 168.78 32.9648C170.571 32.9648 171.856 34.168 171.856 35.7129C171.856 36.8203 171.337 37.6816 169.587 39.4863L167.317 41.8242V41.9062H172.034V43H165.608ZM179.579 43.1367C177.378 43.1367 176.12 41.291 176.12 38.0508C176.12 34.8379 177.405 32.9648 179.579 32.9648C181.753 32.9648 183.038 34.8379 183.038 38.0508C183.038 41.291 181.767 43.1367 179.579 43.1367ZM179.579 42.043C181.001 42.043 181.835 40.6074 181.835 38.0508C181.835 35.4941 181.001 34.0312 179.579 34.0312C178.157 34.0312 177.31 35.4941 177.31 38.0508C177.31 40.6074 178.144 42.043 179.579 42.043ZM189.284 37.6953C187.999 37.6953 187.302 36.7383 187.302 35.3164C187.302 33.9219 188.026 32.9512 189.284 32.9512C190.583 32.9512 191.267 33.9219 191.267 35.3164C191.267 36.7383 190.556 37.6953 189.284 37.6953ZM189.284 36.8477C189.954 36.8477 190.269 36.2461 190.269 35.3164C190.269 34.4004 189.981 33.7852 189.284 33.7988C188.628 33.7988 188.3 34.4004 188.3 35.3164C188.3 36.2461 188.628 36.8477 189.284 36.8477ZM195.327 43.1367C194.042 43.1504 193.331 42.1797 193.345 40.7715C193.331 39.3633 194.069 38.3926 195.327 38.3926C196.612 38.3926 197.296 39.3633 197.296 40.7715C197.296 42.1797 196.585 43.1504 195.327 43.1367ZM195.327 42.2891C195.983 42.2891 196.298 41.6875 196.298 40.7715C196.298 39.8418 196.011 39.2266 195.327 39.2402C194.671 39.2539 194.329 39.8418 194.329 40.7715C194.329 41.6875 194.657 42.2891 195.327 42.2891ZM188.272 43L195.081 33.1016H196.188L189.38 43H188.272ZM201.362 39.2266C201.349 41.8105 200.651 43.957 199.394 45.7891H198.354C199.284 44.4355 200.146 41.6602 200.146 39.2266C200.146 36.793 199.284 34.0312 198.354 32.6777H199.394C200.651 34.4961 201.349 36.6426 201.362 39.2266Z" fill="black"/>
<mask id="path-10-inside-4_11284_25291" fill="white">
<path d="M210 0H240V58H210V0Z"/>
</mask>
<path d="M210 0H240V58H210V0Z" fill="#BCE4E5"/>
<path d="M210 0V-1H209V0H210ZM210 58H209V59H210V58ZM210 1H240V-1H210V1ZM240 57H210V59H240V57ZM211 58V0H209V58H211Z" fill="#6D6E71" mask="url(#path-10-inside-4_11284_25291)"/>
<mask id="path-12-inside-5_11284_25291" fill="white">
<path d="M240 0H260V58H240V0Z"/>
</mask>
<path d="M240 0H260V58H240V0Z" fill="#BADAF3"/>
<path d="M240 0V-1H239V0H240ZM260 0H261V-1H260V0ZM260 58V59H261V58H260ZM240 58H239V59H240V58ZM240 1H260V-1H240V1ZM259 0V58H261V0H259ZM260 57H240V59H260V57ZM241 58V0H239V58H241Z" fill="#6D6E71" mask="url(#path-12-inside-5_11284_25291)"/>
<path d="M145.071 66.3574V67.2461H141.325V68.8457H146.342V69.748H135.254V68.8457H140.272V67.2461H136.772V63.1992H137.838V66.3574H145.071ZM140.791 70.6641C143.403 70.6641 144.961 71.4707 144.975 72.8789C144.961 74.2871 143.403 75.0801 140.791 75.0801C138.166 75.0801 136.594 74.2871 136.594 72.8789C136.594 71.4707 138.166 70.6641 140.791 70.6641ZM140.791 71.5117C138.836 71.5117 137.674 72.0039 137.688 72.8789C137.674 73.7129 138.836 74.2324 140.791 74.2324C142.719 74.2324 143.895 73.7129 143.895 72.8789C143.895 72.0039 142.719 71.5117 140.791 71.5117ZM156.465 63.7461V64.8125C156.465 65.9678 156.465 67.2188 156.123 68.9688H157.928V69.8574H152.911V75.1348H151.831V69.8574H146.854V68.9688H155.03C155.399 67.2188 155.399 65.9404 155.399 64.8125V64.6348H148.248V63.7461H156.465ZM159.206 70.2266C159.219 67.6426 159.916 65.4961 161.174 63.6777H162.213C161.284 65.0312 160.422 67.793 160.422 70.2266C160.422 72.6602 161.284 75.4355 162.213 76.7891H161.174C159.916 74.957 159.219 72.8105 159.206 70.2266ZM169.676 64.1016V74H168.432V65.3867H168.377L165.971 66.9863V65.7422L168.432 64.1016H169.676ZM175.041 74.1367C173.25 74.1367 171.897 73.0293 171.829 71.5117H173.018C173.114 72.4004 173.975 73.0566 175.041 73.0566C176.327 73.0566 177.256 72.1133 177.256 70.8691C177.256 69.584 176.286 68.6406 174.959 68.627C174.125 68.6133 173.483 68.873 173.114 69.5156H171.924L172.622 64.1016H177.981V65.1953H173.647L173.278 68.0938H173.373C173.811 67.752 174.481 67.5195 175.178 67.5195C177.065 67.5195 178.459 68.9141 178.459 70.8418C178.459 72.7559 177.01 74.1367 175.041 74.1367ZM184.774 68.6953C183.489 68.6953 182.791 67.7383 182.791 66.3164C182.791 64.9219 183.516 63.9512 184.774 63.9512C186.073 63.9512 186.756 64.9219 186.756 66.3164C186.756 67.7383 186.045 68.6953 184.774 68.6953ZM184.774 67.8477C185.444 67.8477 185.758 67.2461 185.758 66.3164C185.758 65.4004 185.471 64.7852 184.774 64.7988C184.118 64.7988 183.79 65.4004 183.79 66.3164C183.79 67.2461 184.118 67.8477 184.774 67.8477ZM190.817 74.1367C189.532 74.1504 188.821 73.1797 188.834 71.7715C188.821 70.3633 189.559 69.3926 190.817 69.3926C192.102 69.3926 192.786 70.3633 192.786 71.7715C192.786 73.1797 192.075 74.1504 190.817 74.1367ZM190.817 73.2891C191.473 73.2891 191.788 72.6875 191.788 71.7715C191.788 70.8418 191.5 70.2266 190.817 70.2402C190.161 70.2539 189.819 70.8418 189.819 71.7715C189.819 72.6875 190.147 73.2891 190.817 73.2891ZM183.762 74L190.571 64.1016H191.678L184.87 74H183.762ZM196.852 70.2266C196.838 72.8105 196.141 74.957 194.883 76.7891H193.844C194.774 75.4355 195.635 72.6602 195.635 70.2266C195.635 67.793 194.774 65.0312 193.844 63.6777H194.883C196.141 65.4961 196.838 67.6426 196.852 70.2266Z" fill="black"/>
<path d="M173.456 83.9531V96.1074H172.375V83.9531H173.456ZM169.86 85.2793C169.846 88.7793 168.219 91.8691 164.145 93.8242L163.557 92.9492C166.845 91.3906 168.52 89.0596 168.766 86.1543H164.118V85.2793H169.86ZM181.241 85.0605V85.9629H176.62V88.4785H180.967V89.3535H176.62V92.293C178.807 92.293 180.345 92.2041 182.17 91.8965L182.293 92.7852C180.393 93.0996 178.793 93.168 176.497 93.1816H175.54V85.0605H181.241ZM184.413 83.9531V88.8477H186.45V89.7637H184.413V96.1074H183.346V83.9531H184.413ZM187.358 91.2266C187.372 88.6426 188.069 86.4961 189.327 84.6777H190.366C189.436 86.0312 188.575 88.793 188.575 91.2266C188.575 93.6602 189.436 96.4355 190.366 97.7891H189.327C188.069 95.957 187.372 93.8105 187.358 91.2266ZM197.829 85.1016V95H196.584V86.3867H196.53L194.123 87.9863V86.7422L196.584 85.1016H197.829ZM203.207 95.1367C201.006 95.1367 199.748 93.291 199.748 90.0508C199.748 86.8379 201.034 84.9648 203.207 84.9648C205.381 84.9648 206.666 86.8379 206.666 90.0508C206.666 93.291 205.395 95.1367 203.207 95.1367ZM203.207 94.043C204.629 94.043 205.463 92.6074 205.463 90.0508C205.463 87.4941 204.629 86.0312 203.207 86.0312C201.786 86.0312 200.938 87.4941 200.938 90.0508C200.938 92.6074 201.772 94.043 203.207 94.043ZM212.913 89.6953C211.627 89.6953 210.93 88.7383 210.93 87.3164C210.93 85.9219 211.655 84.9512 212.913 84.9512C214.211 84.9512 214.895 85.9219 214.895 87.3164C214.895 88.7383 214.184 89.6953 212.913 89.6953ZM212.913 88.8477C213.582 88.8477 213.897 88.2461 213.897 87.3164C213.897 86.4004 213.61 85.7852 212.913 85.7988C212.256 85.7988 211.928 86.4004 211.928 87.3164C211.928 88.2461 212.256 88.8477 212.913 88.8477ZM218.956 95.1367C217.67 95.1504 216.959 94.1797 216.973 92.7715C216.959 91.3633 217.698 90.3926 218.956 90.3926C220.241 90.3926 220.924 91.3633 220.924 92.7715C220.924 94.1797 220.213 95.1504 218.956 95.1367ZM218.956 94.2891C219.612 94.2891 219.926 93.6875 219.926 92.7715C219.926 91.8418 219.639 91.2266 218.956 91.2402C218.299 91.2539 217.957 91.8418 217.957 92.7715C217.957 93.6875 218.286 94.2891 218.956 94.2891ZM211.901 95L218.709 85.1016H219.817L213.008 95H211.901ZM224.991 91.2266C224.977 93.8105 224.28 95.957 223.022 97.7891H221.983C222.913 96.4355 223.774 93.6602 223.774 91.2266C223.774 88.793 222.913 86.0312 221.983 84.6777H223.022C224.28 86.4961 224.977 88.6426 224.991 91.2266Z" fill="black"/>
<path d="M230.738 91.7187H250.998V46.7188" stroke="#EC008C" stroke-width="1.37466" stroke-miterlimit="10"/>
<path d="M250.49 41L254.368 49.4116L250.49 47.4249L246.637 49.4116L250.49 41Z" fill="#EC008C"/>
<path d="M202.462 71.0007H222.367V44.5098" stroke="#EC008C" stroke-width="1.37466" stroke-miterlimit="10"/>
<path d="M222.351 41L226.228 49.4116L222.351 47.4249L218.497 49.4116L222.351 41Z" fill="#EC008C"/>
</svg>
