<svg width="260" height="100" viewBox="0 0 260 100" fill="none" xmlns="http://www.w3.org/2000/svg">
<mask id="path-1-inside-1_11284_25293" fill="white">
<path d="M0 0H138V58H0V0Z"/>
</mask>
<path d="M0 0H138V58H0V0Z" fill="#F1E2D6"/>
<path d="M0 0V-1H-1V0H0ZM0 58H-1V59H0V58ZM0 1H138V-1H0V1ZM138 57H0V59H138V57ZM1 58V0H-1V58H1Z" fill="#6D6E71" mask="url(#path-1-inside-1_11284_25293)"/>
<path d="M73.8193 13.9531V26.1074H72.7666V19.75H71.085V25.5059H70.0596V14.2812H71.085V18.8613H72.7666V13.9531H73.8193ZM68.6787 15.5391C68.665 18.6289 67.585 21.5547 64.085 23.4961L63.4561 22.7441C66.2793 21.1719 67.4482 18.9434 67.626 16.4277H63.9209V15.5391H68.6787ZM48.8096 39.2266C48.8232 36.6426 49.5205 34.4961 50.7783 32.6777H51.8174C50.8877 34.0312 50.0264 36.793 50.0264 39.2266C50.0264 41.6602 50.8877 44.4355 51.8174 45.7891H50.7783C49.5205 43.957 48.8232 41.8105 48.8096 39.2266ZM55.5342 40.9766V39.9648L59.9912 33.1016H61.5088V39.8965H62.8896V40.9766H61.5088V43H60.333V40.9766H55.5342ZM56.8604 39.8965H60.333V34.6602H60.21L56.8604 39.8145V39.8965ZM67.3252 43.1367C65.2471 43.1367 63.7979 41.9883 63.8115 40.375C63.7979 39.0898 64.6865 38.0371 65.8213 37.8594V37.8047C64.8369 37.5723 64.1943 36.6699 64.1943 35.5898C64.1943 34.0723 65.5205 32.9648 67.3252 32.9648C69.1299 32.9648 70.4561 34.0723 70.4697 35.5898C70.4561 36.6699 69.7998 37.5723 68.8291 37.8047V37.8594C69.9502 38.0371 70.8389 39.0898 70.8525 40.375C70.8389 41.9883 69.3896 43.1367 67.3252 43.1367ZM67.3252 42.0566C68.7471 42.0566 69.6221 41.3457 69.6221 40.3066C69.6221 39.2129 68.6514 38.4062 67.3252 38.4062C65.999 38.4062 65.0146 39.2129 65.042 40.3066C65.0146 41.3457 65.9033 42.0566 67.3252 42.0566ZM67.3252 37.3672C68.4463 37.3672 69.2666 36.6836 69.2666 35.6855C69.2666 34.7012 68.4873 34.0312 67.3252 34.0312C66.1494 34.0312 65.3838 34.7012 65.3838 35.6855C65.3838 36.6836 66.1904 37.3672 67.3252 37.3672ZM77.1123 37.6953C75.8271 37.6953 75.1299 36.7383 75.1299 35.3164C75.1299 33.9219 75.8545 32.9512 77.1123 32.9512C78.4111 32.9512 79.0947 33.9219 79.0947 35.3164C79.0947 36.7383 78.3838 37.6953 77.1123 37.6953ZM77.1123 36.8477C77.7822 36.8477 78.0967 36.2461 78.0967 35.3164C78.0967 34.4004 77.8096 33.7852 77.1123 33.7988C76.4561 33.7988 76.1279 34.4004 76.1279 35.3164C76.1279 36.2461 76.4561 36.8477 77.1123 36.8477ZM83.1553 43.1367C81.8701 43.1504 81.1592 42.1797 81.1729 40.7715C81.1592 39.3633 81.8975 38.3926 83.1553 38.3926C84.4404 38.3926 85.124 39.3633 85.124 40.7715C85.124 42.1797 84.4131 43.1504 83.1553 43.1367ZM83.1553 42.2891C83.8115 42.2891 84.126 41.6875 84.126 40.7715C84.126 39.8418 83.8389 39.2266 83.1553 39.2402C82.499 39.2539 82.1572 39.8418 82.1572 40.7715C82.1572 41.6875 82.4854 42.2891 83.1553 42.2891ZM76.1006 43L82.9092 33.1016H84.0166L77.208 43H76.1006ZM89.1904 39.2266C89.1768 41.8105 88.4795 43.957 87.2217 45.7891H86.1826C87.1123 44.4355 87.9736 41.6602 87.9736 39.2266C87.9736 36.793 87.1123 34.0312 86.1826 32.6777H87.2217C88.4795 34.4961 89.1768 36.6426 89.1904 39.2266Z" fill="black"/>
<mask id="path-4-inside-2_11284_25293" fill="white">
<path d="M138 0H194V58H138V0Z"/>
</mask>
<path d="M138 0H194V58H138V0Z" fill="#FFE5C2"/>
<path d="M138 0V-1H137V0H138ZM138 58H137V59H138V58ZM138 1H194V-1H138V1ZM194 57H138V59H194V57ZM139 58V0H137V58H139Z" fill="#6D6E71" mask="url(#path-4-inside-2_11284_25293)"/>
<path d="M158.591 15.1836V16.4004C158.577 17.8906 158.577 19.5586 158.14 22.0059L157.046 21.8828C157.511 19.5586 157.511 17.8496 157.511 16.4004V16.0723H150.019V15.1836H158.591ZM159.917 23.4961V24.3848H148.843V23.4961H153.19V19.1484H154.243V23.4961H159.917ZM171.749 15.7988V16.6875H169.944V18.3828H171.749V19.2852H169.944V21.1719H168.878V13.9531H169.944V15.7988H171.749ZM163.86 14.6914C165.706 14.6777 167.046 15.8535 167.06 17.5488C167.046 19.2441 165.706 20.3926 163.86 20.4062C162.015 20.3926 160.661 19.2441 160.675 17.5488C160.661 15.8535 162.015 14.6777 163.86 14.6914ZM163.86 15.6074C162.63 15.5938 161.714 16.4004 161.728 17.5488C161.714 18.6973 162.63 19.4902 163.86 19.5039C165.104 19.4902 166.007 18.6973 166.007 17.5488C166.007 16.4004 165.104 15.5938 163.86 15.6074ZM166.048 21.541C168.522 21.5547 170.054 22.375 170.054 23.8242C170.054 25.2461 168.522 26.0801 166.048 26.0801C163.56 26.0801 162.015 25.2461 162.015 23.8242C162.015 22.375 163.56 21.5547 166.048 21.541ZM166.048 22.416C164.216 22.416 163.081 22.9355 163.095 23.8242C163.081 24.6992 164.216 25.2188 166.048 25.2188C167.894 25.2188 169.015 24.6992 169.015 23.8242C169.015 22.9355 167.894 22.416 166.048 22.416ZM182.063 13.9531V26.1348H180.983V13.9531H182.063ZM175.597 14.8965C177.401 14.9102 178.7 16.5508 178.7 19.1348C178.7 21.7188 177.401 23.3594 175.597 23.3594C173.778 23.3594 172.493 21.7188 172.493 19.1348C172.493 16.5508 173.778 14.9102 175.597 14.8965ZM175.597 15.8535C174.38 15.8672 173.532 17.1523 173.532 19.1348C173.532 21.1172 174.38 22.4023 175.597 22.4023C176.813 22.4023 177.661 21.1172 177.661 19.1348C177.661 17.1523 176.813 15.8672 175.597 15.8535ZM146.056 39.2266C146.069 36.6426 146.767 34.4961 148.024 32.6777H149.063C148.134 34.0312 147.272 36.793 147.272 39.2266C147.272 41.6602 148.134 44.4355 149.063 45.7891H148.024C146.767 43.957 146.069 41.8105 146.056 39.2266ZM153.026 43L153.013 42.0977L156.39 38.543C157.565 37.2988 158.126 36.6289 158.126 35.7129C158.126 34.7012 157.265 34.0312 156.157 34.0312C154.981 34.0312 154.229 34.7832 154.229 35.8906H153.067C153.054 34.1406 154.407 32.9648 156.198 32.9648C157.989 32.9648 159.274 34.168 159.274 35.7129C159.274 36.8203 158.755 37.6816 157.005 39.4863L154.735 41.8242V41.9062H159.452V43H153.026ZM160.278 40.9766V39.9648L164.735 33.1016H166.253V39.8965H167.634V40.9766H166.253V43H165.077V40.9766H160.278ZM161.604 39.8965H165.077V34.6602H164.954L161.604 39.8145V39.8965ZM173.866 37.6953C172.581 37.6953 171.884 36.7383 171.884 35.3164C171.884 33.9219 172.608 32.9512 173.866 32.9512C175.165 32.9512 175.849 33.9219 175.849 35.3164C175.849 36.7383 175.138 37.6953 173.866 37.6953ZM173.866 36.8477C174.536 36.8477 174.851 36.2461 174.851 35.3164C174.851 34.4004 174.563 33.7852 173.866 33.7988C173.21 33.7988 172.882 34.4004 172.882 35.3164C172.882 36.2461 173.21 36.8477 173.866 36.8477ZM179.909 43.1367C178.624 43.1504 177.913 42.1797 177.927 40.7715C177.913 39.3633 178.651 38.3926 179.909 38.3926C181.194 38.3926 181.878 39.3633 181.878 40.7715C181.878 42.1797 181.167 43.1504 179.909 43.1367ZM179.909 42.2891C180.565 42.2891 180.88 41.6875 180.88 40.7715C180.88 39.8418 180.593 39.2266 179.909 39.2402C179.253 39.2539 178.911 39.8418 178.911 40.7715C178.911 41.6875 179.239 42.2891 179.909 42.2891ZM172.854 43L179.663 33.1016H180.771L173.962 43H172.854ZM185.944 39.2266C185.931 41.8105 185.233 43.957 183.976 45.7891H182.937C183.866 44.4355 184.728 41.6602 184.728 39.2266C184.728 36.793 183.866 34.0312 182.937 32.6777H183.976C185.233 34.4961 185.931 36.6426 185.944 39.2266Z" fill="black"/>
<mask id="path-7-inside-3_11284_25293" fill="white">
<path d="M194 0H240V58H194V0Z"/>
</mask>
<path d="M194 0H240V58H194V0Z" fill="#E6E8C7"/>
<path d="M194 0V-1H193V0H194ZM194 58H193V59H194V58ZM194 1H240V-1H194V1ZM240 57H194V59H240V57ZM195 58V0H193V58H195Z" fill="#6D6E71" mask="url(#path-7-inside-3_11284_25293)"/>
<mask id="path-9-inside-4_11284_25293" fill="white">
<path d="M240 0H260V58H240V0Z"/>
</mask>
<path d="M240 0H260V58H240V0Z" fill="#BCE4E5"/>
<path d="M240 0V-1H239V0H240ZM260 0H261V-1H260V0ZM260 58V59H261V58H260ZM240 58H239V59H240V58ZM240 1H260V-1H240V1ZM259 0V58H261V0H259ZM260 57H240V59H260V57ZM241 58V0H239V58H241Z" fill="#6D6E71" mask="url(#path-9-inside-4_11284_25293)"/>
<path d="M173.454 83.9531V96.1074H172.373V83.9531H173.454ZM169.858 85.2793C169.844 88.7793 168.217 91.8691 164.143 93.8242L163.555 92.9492C166.843 91.3906 168.518 89.0596 168.764 86.1543H164.116V85.2793H169.858ZM181.239 85.0605V85.9629H176.618V88.4785H180.965V89.3535H176.618V92.293C178.805 92.293 180.343 92.2041 182.168 91.8965L182.291 92.7852C180.391 93.0996 178.791 93.168 176.495 93.1816H175.538V85.0605H181.239ZM184.411 83.9531V88.8477H186.448V89.7637H184.411V96.1074H183.344V83.9531H184.411ZM187.356 91.2266C187.37 88.6426 188.067 86.4961 189.325 84.6777H190.364C189.434 86.0312 188.573 88.793 188.573 91.2266C188.573 93.6602 189.434 96.4355 190.364 97.7891H189.325C188.067 95.957 187.37 93.8105 187.356 91.2266ZM197.827 85.1016V95H196.582V86.3867H196.528L194.122 87.9863V86.7422L196.582 85.1016H197.827ZM203.206 95.1367C201.004 95.1367 199.747 93.291 199.747 90.0508C199.747 86.8379 201.032 84.9648 203.206 84.9648C205.379 84.9648 206.665 86.8379 206.665 90.0508C206.665 93.291 205.393 95.1367 203.206 95.1367ZM203.206 94.043C204.627 94.043 205.461 92.6074 205.461 90.0508C205.461 87.4941 204.627 86.0312 203.206 86.0312C201.784 86.0312 200.936 87.4941 200.936 90.0508C200.936 92.6074 201.77 94.043 203.206 94.043ZM212.911 89.6953C211.625 89.6953 210.928 88.7383 210.928 87.3164C210.928 85.9219 211.653 84.9512 212.911 84.9512C214.209 84.9512 214.893 85.9219 214.893 87.3164C214.893 88.7383 214.182 89.6953 212.911 89.6953ZM212.911 88.8477C213.581 88.8477 213.895 88.2461 213.895 87.3164C213.895 86.4004 213.608 85.7852 212.911 85.7988C212.254 85.7988 211.926 86.4004 211.926 87.3164C211.926 88.2461 212.254 88.8477 212.911 88.8477ZM218.954 95.1367C217.668 95.1504 216.957 94.1797 216.971 92.7715C216.957 91.3633 217.696 90.3926 218.954 90.3926C220.239 90.3926 220.922 91.3633 220.922 92.7715C220.922 94.1797 220.211 95.1504 218.954 95.1367ZM218.954 94.2891C219.61 94.2891 219.924 93.6875 219.924 92.7715C219.924 91.8418 219.637 91.2266 218.954 91.2402C218.297 91.2539 217.956 91.8418 217.956 92.7715C217.956 93.6875 218.284 94.2891 218.954 94.2891ZM211.899 95L218.707 85.1016H219.815L213.006 95H211.899ZM224.989 91.2266C224.975 93.8105 224.278 95.957 223.02 97.7891H221.981C222.911 96.4355 223.772 93.6602 223.772 91.2266C223.772 88.793 222.911 86.0312 221.981 84.6777H223.02C224.278 86.4961 224.975 88.6426 224.989 91.2266Z" fill="black"/>
<path d="M230.736 91.7187H250.996V46.7188" stroke="#EC008C" stroke-width="1.37466" stroke-miterlimit="10"/>
<path d="M250.488 41L254.366 49.4116L250.488 47.4249L246.635 49.4116L250.488 41Z" fill="#EC008C"/>
<path d="M191.204 71.0007H211.109V44.5098" stroke="#EC008C" stroke-width="1.37466" stroke-miterlimit="10"/>
<path d="M211.092 41L214.969 49.4116L211.092 47.4249L207.238 49.4116L211.092 41Z" fill="#EC008C"/>
<path d="M123.336 68.0938V68.9688H118.319V70.1719H121.914V72.8926H114.696V74.123H122.283V74.9707H113.629V72.0859H120.862V71.0059H113.602V70.1719H117.252V68.9688H112.262V68.0938H123.336ZM121.901 63.3633V67.0684H113.697V63.3633H121.901ZM114.764 64.2246V66.207H120.834V64.2246H114.764ZM133.61 64.1836V65.4004C133.596 66.8906 133.596 68.5586 133.158 71.0059L132.065 70.8828C132.53 68.5586 132.53 66.8496 132.53 65.4004V65.0723H125.037V64.1836H133.61ZM134.936 72.4961V73.3848H123.862V72.4961H128.209V68.1484H129.262V72.4961H134.936ZM145.51 62.9531V75.1074H144.43V62.9531H145.51ZM141.914 64.2793C141.901 67.7793 140.274 70.8691 136.199 72.8242L135.612 71.9492C138.9 70.3906 140.574 68.0596 140.821 65.1543H136.172V64.2793H141.914ZM147.813 70.2266C147.826 67.6426 148.524 65.4961 149.781 63.6777H150.821C149.891 65.0312 149.03 67.793 149.03 70.2266C149.03 72.6602 149.891 75.4355 150.821 76.7891H149.781C148.524 74.957 147.826 72.8105 147.813 70.2266ZM158.283 64.1016V74H157.039V65.3867H156.985L154.578 66.9863V65.7422L157.039 64.1016H158.283ZM163.731 74.1367C161.653 74.1367 160.203 72.9883 160.217 71.375C160.203 70.0898 161.092 69.0371 162.227 68.8594V68.8047C161.242 68.5723 160.6 67.6699 160.6 66.5898C160.6 65.0723 161.926 63.9648 163.731 63.9648C165.535 63.9648 166.862 65.0723 166.875 66.5898C166.862 67.6699 166.205 68.5723 165.235 68.8047V68.8594C166.356 69.0371 167.244 70.0898 167.258 71.375C167.244 72.9883 165.795 74.1367 163.731 74.1367ZM163.731 73.0566C165.153 73.0566 166.028 72.3457 166.028 71.3066C166.028 70.2129 165.057 69.4062 163.731 69.4062C162.405 69.4062 161.42 70.2129 161.447 71.3066C161.42 72.3457 162.309 73.0566 163.731 73.0566ZM163.731 68.3672C164.852 68.3672 165.672 67.6836 165.672 66.6855C165.672 65.7012 164.893 65.0312 163.731 65.0312C162.555 65.0312 161.789 65.7012 161.789 66.6855C161.789 67.6836 162.596 68.3672 163.731 68.3672ZM173.518 68.6953C172.233 68.6953 171.535 67.7383 171.535 66.3164C171.535 64.9219 172.26 63.9512 173.518 63.9512C174.817 63.9512 175.5 64.9219 175.5 66.3164C175.5 67.7383 174.789 68.6953 173.518 68.6953ZM173.518 67.8477C174.188 67.8477 174.502 67.2461 174.502 66.3164C174.502 65.4004 174.215 64.7852 173.518 64.7988C172.862 64.7988 172.533 65.4004 172.533 66.3164C172.533 67.2461 172.862 67.8477 173.518 67.8477ZM179.561 74.1367C178.276 74.1504 177.565 73.1797 177.578 71.7715C177.565 70.3633 178.303 69.3926 179.561 69.3926C180.846 69.3926 181.53 70.3633 181.53 71.7715C181.53 73.1797 180.819 74.1504 179.561 74.1367ZM179.561 73.2891C180.217 73.2891 180.531 72.6875 180.531 71.7715C180.531 70.8418 180.244 70.2266 179.561 70.2402C178.905 70.2539 178.563 70.8418 178.563 71.7715C178.563 72.6875 178.891 73.2891 179.561 73.2891ZM172.506 74L179.315 64.1016H180.422L173.613 74H172.506ZM185.596 70.2266C185.582 72.8105 184.885 74.957 183.627 76.7891H182.588C183.518 75.4355 184.379 72.6602 184.379 70.2266C184.379 67.793 183.518 65.0312 182.588 63.6777H183.627C184.885 65.4961 185.582 67.6426 185.596 70.2266Z" fill="black"/>
</svg>
