<svg width="268" height="125" viewBox="0 0 268 125" fill="none" xmlns="http://www.w3.org/2000/svg">
<path d="M23.4766 93.3066V93.9355C23.4629 94.8926 23.4629 96.5059 23.1211 98.7617L22.041 98.666C22.3691 96.6289 22.3965 95.1523 22.3965 94.1816H17.2969V93.3066H23.4766ZM20.291 96.7793V100.471C21.6377 100.423 23.0186 100.334 24.2832 100.184L24.3379 100.99C21.7812 101.387 18.9238 101.441 16.75 101.428L16.6133 100.539C17.4131 100.532 18.3018 100.525 19.2383 100.498V96.7793H20.291ZM26.1152 91.9531V97.0391H28.084V97.9688H26.1152V104.107H25.0488V91.9531H26.1152ZM39.4512 98.0645V98.9531H28.3359V98.0645H33.3398V96.1914H34.3926V98.0645H39.4512ZM34.4062 92.7188C34.4062 94.332 36.5938 95.6855 38.7402 95.9863L38.3027 96.8477C36.457 96.5264 34.6318 95.5488 33.873 94.1406C33.1074 95.5557 31.2754 96.5264 29.416 96.8477L29.0059 95.9863C31.1523 95.6855 33.3262 94.332 33.3262 92.7188V92.1445H34.4062V92.7188ZM38.043 100.143V104.107H36.9629V101.004H29.5664V100.143H38.043ZM48.5547 99.5957C51.0566 99.5957 52.5605 100.416 52.5605 101.838C52.5605 103.273 51.0566 104.094 48.5547 104.107C46.0527 104.094 44.5215 103.273 44.5215 101.838C44.5215 100.416 46.0527 99.5957 48.5547 99.5957ZM48.5547 100.443C46.7227 100.457 45.5879 100.963 45.6016 101.838C45.5879 102.713 46.7227 103.232 48.5547 103.232C50.4004 103.232 51.5215 102.713 51.5215 101.838C51.5215 100.963 50.4004 100.457 48.5547 100.443ZM52.4512 91.9531V95.0156H54.2832V95.9316H52.4512V99.2676H51.3848V91.9531H52.4512ZM44.5215 92.7188V94.5781H48.0625V92.7188H49.1289V98.3242H43.4688V92.7188H44.5215ZM44.5215 97.4492H48.0625V95.4258H44.5215V97.4492ZM58.8965 95.6855C58.8965 97.75 60.4004 99.8418 62.1914 100.621L61.5898 101.469C60.168 100.819 58.9375 99.418 58.377 97.7363C57.8027 99.5205 56.5791 101.072 55.1914 101.77L54.5488 100.922C56.2852 100.088 57.8027 97.791 57.8164 95.6855V94.0996H54.9453V93.2109H61.7949V94.0996H58.8965V95.6855ZM64.5703 91.9531V104.107H63.4902V91.9531H64.5703ZM72.2461 92.7461V93.6621H67.8438V95.2617H71.918V96.123H67.8438V97.9277C70.0859 97.9209 71.3574 97.8525 72.9023 97.5859L72.998 98.4609C71.3848 98.748 70.0449 98.7891 67.666 98.7891H66.7773V92.7461H72.2461ZM76.2246 100.088V104.107H75.1445V100.949H68.0488V100.088H76.2246ZM76.2246 91.9531V99.4863H75.1445V96.041H72.7656V95.1523H75.1445V91.9531H76.2246ZM28.0605 117.227C28.0742 114.643 28.7715 112.496 30.0293 110.678H31.0684C30.1387 112.031 29.2773 114.793 29.2773 117.227C29.2773 119.66 30.1387 122.436 31.0684 123.789H30.0293C28.7715 121.957 28.0742 119.811 28.0605 117.227ZM38.5312 111.102V121H37.2871V112.387H37.2324L34.8262 113.986V112.742L37.2871 111.102H38.5312ZM44.1152 121.137C42.3926 121.109 40.5059 120.098 40.5059 116.434C40.5059 112.934 41.9414 110.965 44.2656 110.965C46.002 110.965 47.2188 112.031 47.4785 113.59H46.2617C46.0293 112.715 45.373 112.059 44.2656 112.059C42.6387 112.059 41.668 113.453 41.668 115.832H41.791C42.3652 115.012 43.2676 114.52 44.334 114.52C46.0977 114.52 47.5605 115.887 47.5605 117.801C47.5605 119.66 46.1934 121.15 44.1152 121.137ZM44.1152 120.057C45.4004 120.057 46.3574 119.045 46.3711 117.814C46.3574 116.598 45.4414 115.6 44.1426 115.6C42.8438 115.6 41.8457 116.652 41.832 117.828C41.832 118.99 42.7891 120.057 44.1152 120.057ZM53.8613 115.695C52.5762 115.695 51.8789 114.738 51.8789 113.316C51.8789 111.922 52.6035 110.951 53.8613 110.951C55.1602 110.951 55.8438 111.922 55.8438 113.316C55.8438 114.738 55.1328 115.695 53.8613 115.695ZM53.8613 114.848C54.5312 114.848 54.8457 114.246 54.8457 113.316C54.8457 112.4 54.5586 111.785 53.8613 111.799C53.2051 111.799 52.877 112.4 52.877 113.316C52.877 114.246 53.2051 114.848 53.8613 114.848ZM59.9043 121.137C58.6191 121.15 57.9082 120.18 57.9219 118.771C57.9082 117.363 58.6465 116.393 59.9043 116.393C61.1895 116.393 61.873 117.363 61.873 118.771C61.873 120.18 61.1621 121.15 59.9043 121.137ZM59.9043 120.289C60.5605 120.289 60.875 119.688 60.875 118.771C60.875 117.842 60.5879 117.227 59.9043 117.24C59.248 117.254 58.9062 117.842 58.9062 118.771C58.9062 119.688 59.2344 120.289 59.9043 120.289ZM52.8496 121L59.6582 111.102H60.7656L53.957 121H52.8496ZM65.9395 117.227C65.9258 119.811 65.2285 121.957 63.9707 123.789H62.9316C63.8613 122.436 64.7227 119.66 64.7227 117.227C64.7227 114.793 63.8613 112.031 62.9316 110.678H63.9707C65.2285 112.496 65.9258 114.643 65.9395 117.227Z" fill="black"/>
<path d="M216.238 91.9531V95.5762H218.084V96.4785H216.238V100.758H215.172V91.9531H216.238ZM212.725 93.0059V93.9082H208.377V97.6953C210.817 97.6953 212.205 97.6338 213.832 97.2988L213.969 98.1875C212.26 98.5156 210.811 98.5977 208.254 98.5977H207.311V93.0059H212.725ZM216.799 102.945V103.848H208.637V99.8691H209.689V102.945H216.799ZM229.451 98.0645V98.9531H218.336V98.0645H223.34V96.1914H224.393V98.0645H229.451ZM224.406 92.7188C224.406 94.332 226.594 95.6855 228.74 95.9863L228.303 96.8477C226.457 96.5264 224.632 95.5488 223.873 94.1406C223.107 95.5557 221.275 96.5264 219.416 96.8477L219.006 95.9863C221.152 95.6855 223.326 94.332 223.326 92.7188V92.1445H224.406V92.7188ZM228.043 100.143V104.107H226.963V101.004H219.566V100.143H228.043ZM239.252 93.2246C239.238 96.7383 238.049 99.9512 233.674 102.098L233.072 101.277C235.362 100.17 236.736 98.7617 237.475 97.1211L233.305 97.5176L233.127 96.5742L237.803 96.2598C238.015 95.5762 238.138 94.8584 238.186 94.1133H233.742V93.2246H239.252ZM242.355 91.9531V96.9023H244.324V97.8047H242.355V104.107H241.289V91.9531H242.355ZM249.648 93.375V96.5469H251.494V92.2129H252.52V103.492H251.494V97.4355H249.648V100.84H245V93.375H249.648ZM246.012 94.2363V99.9785H248.637V94.2363H246.012ZM254.967 91.9531V104.107H253.928V91.9531H254.967ZM265.555 91.9531V96.793H267.592V97.6953H265.555V104.135H264.488V91.9531H265.555ZM262.15 93.0879V97.4355H257.721V100.279C259.977 100.279 261.549 100.204 263.395 99.8555L263.504 100.744C261.59 101.1 259.963 101.182 257.625 101.195H256.654V96.5469H261.084V93.9766H256.627V93.0879H262.15ZM215.638 117.227C215.651 114.643 216.349 112.496 217.606 110.678H218.646C217.716 112.031 216.854 114.793 216.854 117.227C216.854 119.66 217.716 122.436 218.646 123.789H217.606C216.349 121.957 215.651 119.811 215.638 117.227ZM222.608 121L222.595 120.098L225.972 116.543C227.147 115.299 227.708 114.629 227.708 113.713C227.708 112.701 226.847 112.031 225.739 112.031C224.563 112.031 223.812 112.783 223.812 113.891H222.649C222.636 112.141 223.989 110.965 225.78 110.965C227.571 110.965 228.856 112.168 228.856 113.713C228.856 114.82 228.337 115.682 226.587 117.486L224.317 119.824V119.906H229.034V121H222.608ZM233.565 121.137C231.364 121.137 230.106 119.291 230.106 116.051C230.106 112.838 231.392 110.965 233.565 110.965C235.739 110.965 237.024 112.838 237.024 116.051C237.024 119.291 235.753 121.137 233.565 121.137ZM233.565 120.043C234.987 120.043 235.821 118.607 235.821 116.051C235.821 113.494 234.987 112.031 233.565 112.031C232.144 112.031 231.296 113.494 231.296 116.051C231.296 118.607 232.13 120.043 233.565 120.043ZM243.271 115.695C241.985 115.695 241.288 114.738 241.288 113.316C241.288 111.922 242.013 110.951 243.271 110.951C244.569 110.951 245.253 111.922 245.253 113.316C245.253 114.738 244.542 115.695 243.271 115.695ZM243.271 114.848C243.94 114.848 244.255 114.246 244.255 113.316C244.255 112.4 243.968 111.785 243.271 111.799C242.614 111.799 242.286 112.4 242.286 113.316C242.286 114.246 242.614 114.848 243.271 114.848ZM249.313 121.137C248.028 121.15 247.317 120.18 247.331 118.771C247.317 117.363 248.056 116.393 249.313 116.393C250.599 116.393 251.282 117.363 251.282 118.771C251.282 120.18 250.571 121.15 249.313 121.137ZM249.313 120.289C249.97 120.289 250.284 119.688 250.284 118.771C250.284 117.842 249.997 117.227 249.313 117.24C248.657 117.254 248.315 117.842 248.315 118.771C248.315 119.688 248.644 120.289 249.313 120.289ZM242.259 121L249.067 111.102H250.175L243.366 121H242.259ZM258.362 117.227C258.349 119.811 257.651 121.957 256.394 123.789H255.354C256.284 122.436 257.146 119.66 257.146 117.227C257.146 114.793 256.284 112.031 255.354 110.678H256.394C257.651 112.496 258.349 114.643 258.362 117.227Z" fill="black"/>
<path d="M46.3799 20.1035C49.0869 20.1035 50.6729 20.8555 50.6729 22.209C50.6729 23.5762 49.0869 24.3145 46.3799 24.3281C43.6729 24.3145 42.0732 23.5762 42.0732 22.209C42.0732 20.8555 43.6729 20.1035 46.3799 20.1035ZM46.3799 20.9238C44.3564 20.9375 43.1807 21.4023 43.1943 22.209C43.1807 23.043 44.3564 23.4941 46.3799 23.5078C48.3896 23.4941 49.5791 23.043 49.5791 22.209C49.5791 21.4023 48.3896 20.9375 46.3799 20.9238ZM51.917 25.1348V25.9961H46.8994V27.1445H50.4951V29.8652H43.2764V31.123H50.8643V31.9707H42.21V29.0723H49.4424V27.9648H42.1826V27.1445H45.833V25.9961H40.8428V25.1348H51.917ZM58.6768 21.0605V21.9629H54.0557V24.4785H58.4033V25.3535H54.0557V28.293C56.2432 28.293 57.7812 28.2041 59.6064 27.8965L59.7295 28.7852C57.8291 29.0996 56.2295 29.168 53.9326 29.1816H52.9756V21.0605H58.6768ZM61.8486 19.9531V24.8477H63.8857V25.7637H61.8486V32.1074H60.7822V19.9531H61.8486ZM74.0771 19.9531V32.1348H73.0107V19.9531H74.0771ZM70.3857 21.0879V25.4082H65.8467V28.2793C67.8633 28.2793 69.6611 28.1904 71.835 27.8418L71.9443 28.7441C69.7021 29.0996 67.8564 29.1816 65.7646 29.1816H64.7529V24.5332H69.3057V21.9766H64.7256V21.0879H70.3857ZM39.2451 45.2266C39.2588 42.6426 39.9561 40.4961 41.2139 38.6777H42.2529C41.3232 40.0312 40.4619 42.793 40.4619 45.2266C40.4619 47.6602 41.3232 50.4355 42.2529 51.7891H41.2139C39.9561 49.957 39.2588 47.8105 39.2451 45.2266ZM49.7158 39.1016V49H48.4717V40.3867H48.417L46.0107 41.9863V40.7422L48.4717 39.1016H49.7158ZM51.8545 49L51.8408 48.0977L55.2178 44.543C56.3936 43.2988 56.9541 42.6289 56.9541 41.7129C56.9541 40.7012 56.0928 40.0312 54.9854 40.0312C53.8096 40.0312 53.0576 40.7832 53.0576 41.8906H51.8955C51.8818 40.1406 53.2354 38.9648 55.0264 38.9648C56.8174 38.9648 58.1025 40.168 58.1025 41.7129C58.1025 42.8203 57.583 43.6816 55.833 45.4863L53.5635 47.8242V47.9062H58.2803V49H51.8545ZM64.6768 43.6953C63.3916 43.6953 62.6943 42.7383 62.6943 41.3164C62.6943 39.9219 63.4189 38.9512 64.6768 38.9512C65.9756 38.9512 66.6592 39.9219 66.6592 41.3164C66.6592 42.7383 65.9482 43.6953 64.6768 43.6953ZM64.6768 42.8477C65.3467 42.8477 65.6611 42.2461 65.6611 41.3164C65.6611 40.4004 65.374 39.7852 64.6768 39.7988C64.0205 39.7988 63.6924 40.4004 63.6924 41.3164C63.6924 42.2461 64.0205 42.8477 64.6768 42.8477ZM70.7197 49.1367C69.4346 49.1504 68.7236 48.1797 68.7373 46.7715C68.7236 45.3633 69.4619 44.3926 70.7197 44.3926C72.0049 44.3926 72.6885 45.3633 72.6885 46.7715C72.6885 48.1797 71.9775 49.1504 70.7197 49.1367ZM70.7197 48.2891C71.376 48.2891 71.6904 47.6875 71.6904 46.7715C71.6904 45.8418 71.4033 45.2266 70.7197 45.2402C70.0635 45.2539 69.7217 45.8418 69.7217 46.7715C69.7217 47.6875 70.0498 48.2891 70.7197 48.2891ZM63.665 49L70.4736 39.1016H71.5811L64.7725 49H63.665ZM76.7549 45.2266C76.7412 47.8105 76.0439 49.957 74.7861 51.7891H73.7471C74.6768 50.4355 75.5381 47.6602 75.5381 45.2266C75.5381 42.793 74.6768 40.0312 73.7471 38.6777H74.7861C76.0439 40.4961 76.7412 42.6426 76.7549 45.2266Z" fill="black"/>
<path d="M10.8584 54.9668V61.2969H9.83301V54.9668H10.8584ZM8.56152 55.2129V61.2285H7.5498V59.9023H5.62207C5.12988 60.5039 4.35742 60.8594 3.43457 60.8594C1.80762 60.8594 0.65918 59.7793 0.672852 58.1934C0.65918 56.6074 1.80762 55.5137 3.43457 55.5273C4.36426 55.5205 5.13672 55.876 5.63574 56.4844H7.5498V55.2129H8.56152ZM3.43457 56.3887C2.38184 56.3887 1.61621 57.1406 1.62988 58.1934C1.61621 59.2598 2.38184 60.0117 3.43457 60.0117C4.4873 60.0117 5.23926 59.2598 5.25293 58.1934C5.23926 57.1406 4.4873 56.3887 3.43457 56.3887ZM10.8584 61.8574V64.7285H3.88574V66.082H11.3506V66.9434H2.81934V63.9082H9.80566V62.7188H2.79199V61.8574H10.8584ZM6.08691 59.041H7.5498V57.3594H6.08691C6.16211 57.6191 6.20996 57.8994 6.20996 58.1934C6.20996 58.4941 6.16211 58.7812 6.08691 59.041ZM23.2646 64.7012V65.6035H12.1357V64.7012H17.1396V62.4043H13.5303V58.6582H20.8037V56.7441H13.5029V55.8555H21.8564V59.5332H14.5967V61.5156H22.1436V62.4043H18.1924V64.7012H23.2646ZM33.0518 56.2246C33.0381 59.7383 31.8486 62.9512 27.4736 65.0977L26.8721 64.2773C29.1621 63.1699 30.5361 61.7617 31.2744 60.1211L27.1045 60.5176L26.9268 59.5742L31.6025 59.2598C31.8145 58.5762 31.9375 57.8584 31.9854 57.1133H27.542V56.2246H33.0518ZM36.1553 54.9531V59.9023H38.124V60.8047H36.1553V67.1074H35.0889V54.9531H36.1553ZM48.6982 54.9531V63.3066H47.6729V54.9531H48.6982ZM46.4424 55.2266V62.1855H45.4307V59.2324H43.8037V58.3438H45.4307V55.2266H46.4424ZM44.2275 56.0059V56.9082H43.1611V60.627C43.6328 60.5928 44.0908 60.5518 44.5146 60.5039L44.5557 61.3105C42.6006 61.6523 40.0439 61.666 38.417 61.666L38.2939 60.7637L39.5654 60.75V56.9082H38.5127V56.0059H44.2275ZM45.1709 63.1562C45.1709 64.7148 47.249 65.9316 49.3955 66.2188L48.9717 67.0527C47.1465 66.7725 45.376 65.8838 44.6377 64.5645C43.8857 65.8838 42.1357 66.7725 40.29 67.0527L39.8936 66.2188C42.0264 65.9316 44.0908 64.7148 44.0908 63.1562V62.7734H45.1709V63.1562ZM40.5771 60.7363C41.0967 60.7295 41.6299 60.709 42.1631 60.6816V56.9082H40.5771V60.7363ZM6.06055 80.2266C6.07422 77.6426 6.77148 75.4961 8.0293 73.6777H9.06836C8.13867 75.0312 7.27734 77.793 7.27734 80.2266C7.27734 82.6602 8.13867 85.4355 9.06836 86.7891H8.0293C6.77148 84.957 6.07422 82.8105 6.06055 80.2266ZM16.5312 74.1016V84H15.2871V75.3867H15.2324L12.8262 76.9863V75.7422L15.2871 74.1016H16.5312ZM22.1152 84.1367C20.3926 84.1094 18.5059 83.0977 18.5059 79.4336C18.5059 75.9336 19.9414 73.9648 22.2656 73.9648C24.002 73.9648 25.2188 75.0312 25.4785 76.5898H24.2617C24.0293 75.7148 23.373 75.0586 22.2656 75.0586C20.6387 75.0586 19.668 76.4531 19.668 78.832H19.791C20.3652 78.0117 21.2676 77.5195 22.334 77.5195C24.0977 77.5195 25.5605 78.8867 25.5605 80.8008C25.5605 82.6602 24.1934 84.1504 22.1152 84.1367ZM22.1152 83.0566C23.4004 83.0566 24.3574 82.0449 24.3711 80.8145C24.3574 79.5977 23.4414 78.5996 22.1426 78.5996C20.8438 78.5996 19.8457 79.6523 19.832 80.8281C19.832 81.9902 20.7891 83.0566 22.1152 83.0566ZM31.8613 78.6953C30.5762 78.6953 29.8789 77.7383 29.8789 76.3164C29.8789 74.9219 30.6035 73.9512 31.8613 73.9512C33.1602 73.9512 33.8438 74.9219 33.8438 76.3164C33.8438 77.7383 33.1328 78.6953 31.8613 78.6953ZM31.8613 77.8477C32.5312 77.8477 32.8457 77.2461 32.8457 76.3164C32.8457 75.4004 32.5586 74.7852 31.8613 74.7988C31.2051 74.7988 30.877 75.4004 30.877 76.3164C30.877 77.2461 31.2051 77.8477 31.8613 77.8477ZM37.9043 84.1367C36.6191 84.1504 35.9082 83.1797 35.9219 81.7715C35.9082 80.3633 36.6465 79.3926 37.9043 79.3926C39.1895 79.3926 39.873 80.3633 39.873 81.7715C39.873 83.1797 39.1621 84.1504 37.9043 84.1367ZM37.9043 83.2891C38.5605 83.2891 38.875 82.6875 38.875 81.7715C38.875 80.8418 38.5879 80.2266 37.9043 80.2402C37.248 80.2539 36.9062 80.8418 36.9062 81.7715C36.9062 82.6875 37.2344 83.2891 37.9043 83.2891ZM30.8496 84L37.6582 74.1016H38.7656L31.957 84H30.8496ZM43.9395 80.2266C43.9258 82.8105 43.2285 84.957 41.9707 86.7891H40.9316C41.8613 85.4355 42.7227 82.6602 42.7227 80.2266C42.7227 77.793 41.8613 75.0312 40.9316 73.6777H41.9707C43.2285 75.4961 43.9258 77.6426 43.9395 80.2266Z" fill="black"/>
<g clip-path="url(#clip0_11284_25247)">
<path d="M145.065 66.6249L118.214 18.1384C126.763 13.3854 135.27 11.1973 145.065 11.1973V66.6249Z" fill="#DFCCE4"/>
<path d="M145.065 66.6249L118.214 18.1384C126.763 13.3854 135.27 11.1973 145.065 11.1973V66.6249Z" stroke="#6D6E71" stroke-width="0.724544" stroke-miterlimit="10"/>
<path d="M145.063 66.6232L92.374 49.495C96.9097 35.5113 105.358 25.2662 118.211 18.1367L145.063 66.6232Z" fill="#BADAF3"/>
<path d="M145.063 66.6232L92.374 49.495C96.9097 35.5113 105.358 25.2662 118.211 18.1367L145.063 66.6232Z" stroke="#6D6E71" stroke-width="0.724544" stroke-miterlimit="10"/>
<path d="M145.067 66.6243L102.638 102.257C90.0454 87.2448 86.3358 68.1314 92.3785 49.4961L145.053 66.6243H145.067Z" fill="#BCE4E5"/>
<path d="M145.067 66.6243L102.638 102.257C90.0454 87.2448 86.3358 68.1314 92.3785 49.4961L145.053 66.6243H145.067Z" stroke="#6D6E71" stroke-width="0.724544" stroke-miterlimit="10"/>
<path d="M145.066 66.625L152.775 121.516C133.386 124.241 115.215 117.271 102.637 102.258L145.066 66.625Z" fill="#E6E8C7"/>
<path d="M145.066 66.625L152.775 121.516C133.386 124.241 115.215 117.271 102.637 102.258L145.066 66.625Z" stroke="#6D6E71" stroke-width="0.724544" stroke-miterlimit="10"/>
<path d="M145.067 66.625L199.611 76.2469C195.365 100.374 177.005 118.111 152.777 121.516L145.067 66.625Z" fill="#FFE5C2"/>
<path d="M145.067 66.625L199.611 76.2469C195.365 100.374 177.005 118.111 152.777 121.516L145.067 66.625Z" stroke="#6D6E71" stroke-width="0.724544" stroke-miterlimit="10"/>
<path d="M145.067 66.6249V11.1973C175.658 11.1973 200.452 36.0201 200.452 66.6249C200.452 70.3056 200.249 72.6386 199.611 76.2468L145.067 66.6249Z" fill="#FDE3D7"/>
<path d="M145.067 66.6249V11.1973C175.658 11.1973 200.452 36.0201 200.452 66.6249C200.452 70.3056 200.249 72.6386 199.611 76.2468L145.067 66.6249Z" stroke="#6D6E71" stroke-width="0.724544" stroke-miterlimit="10"/>
<path d="M145.068 11.1973C135.272 11.1973 126.78 13.3999 118.216 18.1529C105.363 25.2679 96.9145 35.513 92.3789 49.4967C86.3362 68.1319 90.0459 87.2454 102.624 102.258C115.202 117.27 133.374 124.241 152.762 121.516C177.006 118.111 195.351 100.374 199.597 76.2468C200.235 72.6241 200.437 70.2911 200.437 66.6249C200.452 36.0057 175.658 11.1973 145.068 11.1973Z" stroke="#6D6E71" stroke-width="1.08682" stroke-linejoin="bevel"/>
</g>
<path d="M80.9141 96.382H87.7221L102.304 86.1562" stroke="#EC008C" stroke-miterlimit="10"/>
<path d="M106.876 82.1877L102.796 90.5026L101.732 86.6428L97.5039 85.5534L106.876 82.1877Z" fill="#EC008C"/>
<path d="M203.531 96.382H196.723L182.141 86.1562" stroke="#EC008C" stroke-miterlimit="10"/>
<path d="M177.569 82.1877L181.649 90.5026L182.713 86.6428L186.941 85.5534L177.569 82.1877Z" fill="#EC008C"/>
<path d="M78.7852 26.1316H85.5932L110.5 33" stroke="#EC008C" stroke-miterlimit="10"/>
<path d="M115.93 37.934L106.478 34.732L110.7 33.5606L111.673 29.7001L115.93 37.934Z" fill="#EC008C"/>
<path d="M78.7852 26.1316H85.5932L110.5 33" stroke="#EC008C" stroke-miterlimit="10"/>
<path d="M115.93 37.934L106.478 34.732L110.7 33.5606L111.673 29.7001L115.93 37.934Z" fill="#EC008C"/>
<path d="M54.5 65.0078H96.5045" stroke="#EC008C" stroke-miterlimit="10"/>
<path d="M102.943 65.5042L93.3315 68.1891L96.1585 64.8409L94.7849 61.1042L102.943 65.5042Z" fill="#EC008C"/>
<path d="M114.895 11.1316H137.814L141.006 24.6875" stroke="#EC008C" stroke-miterlimit="10"/>
<path d="M141.598 28.8199L135.696 21.4436L139.933 22.5721L143.117 19.8418L141.598 28.8199Z" fill="#EC008C"/>
<path d="M63.709 3.95312V16.1074H62.6289V3.95312H63.709ZM60.1133 5.2793C60.0996 8.7793 58.4727 11.8691 54.3984 13.8242L53.8105 12.9492C57.0986 11.3906 58.7734 9.05957 59.0195 6.1543H54.3711V5.2793H60.1133ZM71.4941 5.06055V5.96289H66.873V8.47852H71.2207V9.35352H66.873V12.293C69.0605 12.293 70.5986 12.2041 72.4238 11.8965L72.5469 12.7852C70.6465 13.0996 69.0469 13.168 66.75 13.1816H65.793V5.06055H71.4941ZM74.666 3.95312V8.84766H76.7031V9.76367H74.666V16.1074H73.5996V3.95312H74.666ZM77.6113 11.2266C77.625 8.64258 78.3223 6.49609 79.5801 4.67773H80.6191C79.6895 6.03125 78.8281 8.79297 78.8281 11.2266C78.8281 13.6602 79.6895 16.4355 80.6191 17.7891H79.5801C78.3223 15.957 77.625 13.8105 77.6113 11.2266ZM87.8906 15.1367C85.8125 15.1367 84.3633 13.9883 84.377 12.375C84.3633 11.0898 85.252 10.0371 86.3867 9.85938V9.80469C85.4023 9.57227 84.7598 8.66992 84.7598 7.58984C84.7598 6.07227 86.0859 4.96484 87.8906 4.96484C89.6953 4.96484 91.0215 6.07227 91.0352 7.58984C91.0215 8.66992 90.3652 9.57227 89.3945 9.80469V9.85938C90.5156 10.0371 91.4043 11.0898 91.418 12.375C91.4043 13.9883 89.9551 15.1367 87.8906 15.1367ZM87.8906 14.0566C89.3125 14.0566 90.1875 13.3457 90.1875 12.3066C90.1875 11.2129 89.2168 10.4062 87.8906 10.4062C86.5645 10.4062 85.5801 11.2129 85.6074 12.3066C85.5801 13.3457 86.4688 14.0566 87.8906 14.0566ZM87.8906 9.36719C89.0117 9.36719 89.832 8.68359 89.832 7.68555C89.832 6.70117 89.0527 6.03125 87.8906 6.03125C86.7148 6.03125 85.9492 6.70117 85.9492 7.68555C85.9492 8.68359 86.7559 9.36719 87.8906 9.36719ZM97.6777 9.69531C96.3926 9.69531 95.6953 8.73828 95.6953 7.31641C95.6953 5.92188 96.4199 4.95117 97.6777 4.95117C98.9766 4.95117 99.6602 5.92188 99.6602 7.31641C99.6602 8.73828 98.9492 9.69531 97.6777 9.69531ZM97.6777 8.84766C98.3477 8.84766 98.6621 8.24609 98.6621 7.31641C98.6621 6.40039 98.375 5.78516 97.6777 5.79883C97.0215 5.79883 96.6934 6.40039 96.6934 7.31641C96.6934 8.24609 97.0215 8.84766 97.6777 8.84766ZM103.721 15.1367C102.436 15.1504 101.725 14.1797 101.738 12.7715C101.725 11.3633 102.463 10.3926 103.721 10.3926C105.006 10.3926 105.689 11.3633 105.689 12.7715C105.689 14.1797 104.979 15.1504 103.721 15.1367ZM103.721 14.2891C104.377 14.2891 104.691 13.6875 104.691 12.7715C104.691 11.8418 104.404 11.2266 103.721 11.2402C103.064 11.2539 102.723 11.8418 102.723 12.7715C102.723 13.6875 103.051 14.2891 103.721 14.2891ZM96.666 15L103.475 5.10156H104.582L97.7734 15H96.666ZM109.756 11.2266C109.742 13.8105 109.045 15.957 107.787 17.7891H106.748C107.678 16.4355 108.539 13.6602 108.539 11.2266C108.539 8.79297 107.678 6.03125 106.748 4.67773H107.787C109.045 6.49609 109.742 8.64258 109.756 11.2266Z" fill="black"/>
<path d="M163.378 33.9668V42.8809H162.312V33.9668H163.378ZM163.761 44.9453V45.8477H155.53V42.0605H156.597V44.9453H163.761ZM157.649 35.8672C157.636 37.7129 158.907 39.3809 160.712 40.0371L160.151 40.8984C158.743 40.3584 157.649 39.2646 157.116 37.8633C156.576 39.3535 155.469 40.5498 154.054 41.1172L153.466 40.2832C155.312 39.5723 156.556 37.7812 156.556 35.8672V34.6504H157.649V35.8672ZM175.442 35.7578V36.6465H165.489V35.7578H169.946V34.1582H170.999V35.7578H175.442ZM176.071 43.7969V44.6855H164.942V43.7969H169.946V42.0879C167.786 41.9717 166.474 41.1309 166.487 39.7637C166.474 38.3145 168.005 37.4668 170.479 37.4805C172.927 37.4668 174.472 38.3145 174.472 39.7637C174.472 41.1309 173.146 41.9717 170.999 42.0879V43.7969H176.071ZM170.479 38.3281C168.661 38.3281 167.554 38.8613 167.567 39.7637C167.554 40.6934 168.661 41.2129 170.479 41.2266C172.271 41.2129 173.378 40.6934 173.378 39.7637C173.378 38.8613 172.271 38.3281 170.479 38.3281ZM187.63 39.7363V40.6387H176.542V39.7363H187.63ZM186.331 37.6992V38.5742H177.95V34.4453H186.249V35.3477H179.003V37.6992H186.331ZM182.079 41.7051C184.69 41.7051 186.249 42.498 186.263 43.8926C186.249 45.3008 184.69 46.0801 182.079 46.0801C179.454 46.0801 177.882 45.3008 177.882 43.8926C177.882 42.498 179.454 41.7051 182.079 41.7051ZM182.079 42.5391C180.124 42.5527 178.962 43.0449 178.976 43.8926C178.962 44.7539 180.124 45.2324 182.079 45.2324C184.007 45.2324 185.183 44.7539 185.183 43.8926C185.183 43.0449 184.007 42.5527 182.079 42.5391ZM150.569 59.2266C150.583 56.6426 151.28 54.4961 152.538 52.6777H153.577C152.647 54.0312 151.786 56.793 151.786 59.2266C151.786 61.6602 152.647 64.4355 153.577 65.7891H152.538C151.28 63.957 150.583 61.8105 150.569 59.2266ZM157.54 63L157.526 62.0977L160.903 58.543C162.079 57.2988 162.64 56.6289 162.64 55.7129C162.64 54.7012 161.778 54.0312 160.671 54.0312C159.495 54.0312 158.743 54.7832 158.743 55.8906H157.581C157.567 54.1406 158.921 52.9648 160.712 52.9648C162.503 52.9648 163.788 54.168 163.788 55.7129C163.788 56.8203 163.269 57.6816 161.519 59.4863L159.249 61.8242V61.9062H163.966V63H157.54ZM168.565 63.1367C166.487 63.1367 165.038 61.9883 165.052 60.375C165.038 59.0898 165.927 58.0371 167.062 57.8594V57.8047C166.077 57.5723 165.435 56.6699 165.435 55.5898C165.435 54.0723 166.761 52.9648 168.565 52.9648C170.37 52.9648 171.696 54.0723 171.71 55.5898C171.696 56.6699 171.04 57.5723 170.069 57.8047V57.8594C171.19 58.0371 172.079 59.0898 172.093 60.375C172.079 61.9883 170.63 63.1367 168.565 63.1367ZM168.565 62.0566C169.987 62.0566 170.862 61.3457 170.862 60.3066C170.862 59.2129 169.892 58.4062 168.565 58.4062C167.239 58.4062 166.255 59.2129 166.282 60.3066C166.255 61.3457 167.144 62.0566 168.565 62.0566ZM168.565 57.3672C169.687 57.3672 170.507 56.6836 170.507 55.6855C170.507 54.7012 169.728 54.0312 168.565 54.0312C167.39 54.0312 166.624 54.7012 166.624 55.6855C166.624 56.6836 167.431 57.3672 168.565 57.3672ZM178.353 57.6953C177.067 57.6953 176.37 56.7383 176.37 55.3164C176.37 53.9219 177.095 52.9512 178.353 52.9512C179.651 52.9512 180.335 53.9219 180.335 55.3164C180.335 56.7383 179.624 57.6953 178.353 57.6953ZM178.353 56.8477C179.022 56.8477 179.337 56.2461 179.337 55.3164C179.337 54.4004 179.05 53.7852 178.353 53.7988C177.696 53.7988 177.368 54.4004 177.368 55.3164C177.368 56.2461 177.696 56.8477 178.353 56.8477ZM184.396 63.1367C183.11 63.1504 182.399 62.1797 182.413 60.7715C182.399 59.3633 183.138 58.3926 184.396 58.3926C185.681 58.3926 186.364 59.3633 186.364 60.7715C186.364 62.1797 185.653 63.1504 184.396 63.1367ZM184.396 62.2891C185.052 62.2891 185.366 61.6875 185.366 60.7715C185.366 59.8418 185.079 59.2266 184.396 59.2402C183.739 59.2539 183.397 59.8418 183.397 60.7715C183.397 61.6875 183.726 62.2891 184.396 62.2891ZM177.341 63L184.149 53.1016H185.257L178.448 63H177.341ZM190.431 59.2266C190.417 61.8105 189.72 63.957 188.462 65.7891H187.423C188.353 64.4355 189.214 61.6602 189.214 59.2266C189.214 56.793 188.353 54.0312 187.423 52.6777H188.462C189.72 54.4961 190.417 56.6426 190.431 59.2266Z" fill="black"/>
<defs>
<clipPath id="clip0_11284_25247">
<rect width="112" height="112" fill="white" transform="translate(89 10.6445)"/>
</clipPath>
</defs>
</svg>
