<svg width="917" height="348" viewBox="0 0 917 348" fill="none" xmlns="http://www.w3.org/2000/svg">
<path d="M282.767 8.07812C279.442 8.07813 276.253 9.39947 273.902 11.7515C271.551 14.1035 270.23 17.2935 270.23 20.6197C270.23 23.9459 271.551 27.1359 273.902 29.4879C276.253 31.8399 279.442 33.1613 282.767 33.1613H633.293C636.618 33.1613 639.807 31.8399 642.158 29.4879C644.509 27.1359 645.829 23.9459 645.829 20.6197C645.829 17.2935 644.509 14.1035 642.158 11.7515C639.807 9.39947 636.618 8.07812 633.293 8.07812H282.767Z" fill="#D7DFF3"/>
<path d="M282.767 8.07812C279.442 8.07813 276.253 9.39947 273.902 11.7515C271.551 14.1035 270.23 17.2935 270.23 20.6197C270.23 23.9459 271.551 27.1359 273.902 29.4879C276.253 31.8399 279.442 33.1613 282.767 33.1613H633.293C636.618 33.1613 639.807 31.8399 642.158 29.4879C644.509 27.1359 645.829 23.9459 645.829 20.6197C645.829 17.2935 644.509 14.1035 642.158 11.7515C639.807 9.39947 636.618 8.07812 633.293 8.07812H282.767Z" stroke="#D7DFF3"/>
<path d="M296.624 1C291.479 1 286.545 3.04463 282.907 6.68409C279.269 10.3235 277.226 15.2597 277.226 20.4067C277.226 25.5537 279.269 30.4898 282.907 34.1293C286.545 37.7688 291.479 39.8134 296.624 39.8134H619.653C624.798 39.8134 629.732 37.7688 633.37 34.1293C637.008 30.4898 639.052 25.5537 639.052 20.4067C639.052 15.2597 637.008 10.3235 633.37 6.68409C629.732 3.04463 624.798 1 619.653 1H296.624Z" fill="white"/>
<path d="M296.515 1.21289C291.371 1.21289 286.437 3.25752 282.799 6.89698C279.161 10.5364 277.117 15.4726 277.117 20.6196C277.117 25.7666 279.161 30.7027 282.799 34.3422C286.437 37.9816 291.371 40.0263 296.515 40.0263H619.545C624.69 40.0263 629.624 37.9816 633.262 34.3422C636.9 30.7027 638.943 25.7666 638.943 20.6196C638.943 15.4726 636.9 10.5364 633.262 6.89698C629.624 3.25752 624.69 1.21289 619.545 1.21289H296.515Z" stroke="#D7DFF3"/>
<text fill="#6A6B94" xml:space="preserve" style="white-space: pre" font-family="Pretendard" font-size="20" font-weight="bold" letter-spacing="-0.5px"><tspan x="339.226" y="28.1094">&#xc88b;&#xc544;&#xd558;&#xb294; &#xc6b4;&#xb3d9;&#xbcc4; &#xd559;&#xc0dd; &#xc218;&#xc758; &#xbe44;&#xc728;</tspan></text>
<path d="M20.6107 106.003C15.1463 106.009 9.90767 108.184 6.04381 112.049C2.17995 115.915 0.00641729 121.156 0 126.623L0 305.407C-3.77555e-06 310.878 2.1707 316.125 6.03525 319.996C9.8998 323.866 15.1421 326.044 20.6107 326.051H109.964V106.003H20.6107Z" fill="#E4E9F7"/>
<path d="M113.407 325.445H545.819C551.292 325.445 556.54 323.27 560.41 319.398C564.28 315.527 566.454 310.276 566.454 304.801V161.021H113.407V325.445Z" fill="white"/>
<path d="M113.407 106.003V161.021H567.06V126.623C567.053 121.152 564.877 115.907 561.007 112.041C557.138 108.175 551.893 106.003 546.425 106.003H113.407Z" fill="#EFEEEE"/>
<path d="M204.143 154.132V112.868" stroke="white" stroke-miterlimit="10"/>
<path d="M294.878 154.132V112.868" stroke="white" stroke-miterlimit="10"/>
<path d="M385.589 154.132V112.868" stroke="white" stroke-miterlimit="10"/>
<path d="M476.324 154.132V112.868" stroke="white" stroke-miterlimit="10"/>
<path d="M204.143 242.918V161.021" stroke="#DADADA" stroke-width="0.5" stroke-miterlimit="10"/>
<path d="M294.878 242.918V161.021" stroke="#DADADA" stroke-width="0.5" stroke-miterlimit="10"/>
<path d="M385.589 242.918V161.021" stroke="#DADADA" stroke-width="0.5" stroke-miterlimit="10"/>
<path d="M476.324 242.918V161.021" stroke="#DADADA" stroke-width="0.5" stroke-miterlimit="10"/>
<path d="M113.407 243.523H204.143" stroke="#DADADA" stroke-width="0.5" stroke-miterlimit="10"/>
<path d="M204.143 243.523H294.878" stroke="#DADADA" stroke-width="0.5" stroke-miterlimit="10"/>
<path d="M204.143 326.05V244.13" stroke="#DADADA" stroke-width="0.5" stroke-miterlimit="10"/>
<path d="M294.878 243.523H385.589" stroke="#DADADA" stroke-width="0.5" stroke-miterlimit="10"/>
<path d="M294.878 326.05V244.13" stroke="#DADADA" stroke-width="0.5" stroke-miterlimit="10"/>
<path d="M385.589 243.523H476.324" stroke="#DADADA" stroke-width="0.5" stroke-miterlimit="10"/>
<path d="M385.589 326.05V244.13" stroke="#DADADA" stroke-width="0.5" stroke-miterlimit="10"/>
<path d="M476.324 243.523H567.06" stroke="#DADADA" stroke-width="0.5" stroke-miterlimit="10"/>
<path d="M476.324 326.05V244.13" stroke="#DADADA" stroke-width="0.5" stroke-miterlimit="10"/>
<path d="M6.8623 161.021H103.102" stroke="white" stroke-miterlimit="10"/>
<path d="M6.8623 243.523H103.102" stroke="white" stroke-miterlimit="10"/>
<path d="M113.407 325.445H545.819C551.291 325.445 556.54 323.27 560.41 319.398C564.28 315.527 566.454 310.276 566.454 304.801V161.021" stroke="#DADADA" stroke-width="0.5"/>
<text fill="black" xml:space="preserve" style="white-space: pre" font-family="Pretendard" font-size="20" font-weight="bold" letter-spacing="-0.5px"><tspan x="37" y="140.16">&#xc6b4;&#xb3d9;</tspan></text>
<text fill="black" xml:space="preserve" style="white-space: pre" font-family="Pretendard" font-size="20" font-weight="bold" letter-spacing="-0.5px"><tspan x="132" y="140.16">&#xc904;&#xb118;&#xae30;</tspan></text>
<text fill="black" xml:space="preserve" style="white-space: pre" font-family="Pretendard" font-size="20" font-weight="bold" letter-spacing="-0.5px"><tspan x="149" y="209.16">18</tspan></text>
<text fill="black" xml:space="preserve" style="white-space: pre" font-family="Pretendard" font-size="20" font-weight="bold" letter-spacing="-0.5px"><tspan x="147" y="292.16">36</tspan></text>
<text fill="black" xml:space="preserve" style="white-space: pre" font-family="Pretendard" font-size="20" font-weight="bold" letter-spacing="-0.5px"><tspan x="238" y="209.16">15</tspan></text>
<text fill="black" xml:space="preserve" style="white-space: pre" font-family="Pretendard" font-size="20" font-weight="bold" letter-spacing="-0.5px"><tspan x="236" y="292.16">30</tspan></text>
<text fill="black" xml:space="preserve" style="white-space: pre" font-family="Pretendard" font-size="20" font-weight="bold" letter-spacing="-0.5px"><tspan x="329" y="209.16">12</tspan></text>
<text fill="black" xml:space="preserve" style="white-space: pre" font-family="Pretendard" font-size="20" font-weight="bold" letter-spacing="-0.5px"><tspan x="327" y="292.16">24</tspan></text>
<text fill="black" xml:space="preserve" style="white-space: pre" font-family="Pretendard" font-size="20" font-weight="bold" letter-spacing="-0.5px"><tspan x="425" y="209.16">5</tspan></text>
<text fill="black" xml:space="preserve" style="white-space: pre" font-family="Pretendard" font-size="20" font-weight="bold" letter-spacing="-0.5px"><tspan x="420" y="292.16">10</tspan></text>
<text fill="black" xml:space="preserve" style="white-space: pre" font-family="Pretendard" font-size="20" font-weight="bold" letter-spacing="-0.5px"><tspan x="506" y="209.16">50</tspan></text>
<text fill="black" xml:space="preserve" style="white-space: pre" font-family="Pretendard" font-size="20" font-weight="bold" letter-spacing="-0.5px"><tspan x="501" y="292.16">100</tspan></text>
<text fill="black" xml:space="preserve" style="white-space: pre" font-family="Pretendard" font-size="20" font-weight="bold" letter-spacing="-0.5px"><tspan x="232" y="140.16">&#xcd95;&#xad6c;</tspan></text>
<text fill="black" xml:space="preserve" style="white-space: pre" font-family="Pretendard" font-size="20" font-weight="bold" letter-spacing="-0.5px"><tspan x="323" y="140.16">&#xd53c;&#xad6c;</tspan></text>
<text fill="black" xml:space="preserve" style="white-space: pre" font-family="Pretendard" font-size="20" font-weight="bold" letter-spacing="-0.5px"><tspan x="415" y="140.16">&#xc57c;&#xad6c;</tspan></text>
<text fill="black" xml:space="preserve" style="white-space: pre" font-family="Pretendard" font-size="20" font-weight="bold" letter-spacing="-0.5px"><tspan x="504" y="140.16">&#xd569;&#xacc4;</tspan></text>
<text fill="black" xml:space="preserve" style="white-space: pre" font-family="Pretendard" font-size="20" font-weight="bold" letter-spacing="-0.5px"><tspan x="27.0176" y="193.16">&#xd559;&#xc0dd; &#xc218;&#10;</tspan><tspan x="38.5645" y="225.16">(&#xba85;)</tspan></text>
<text fill="black" xml:space="preserve" style="white-space: pre" font-family="Pretendard" font-size="20" font-weight="bold" letter-spacing="-0.5px"><tspan x="29.0723" y="278.16">&#xbc31;&#xbd84;&#xc728;&#10;</tspan><tspan x="37.6074" y="310.16">(%)</tspan></text>
<text fill="black" xml:space="preserve" style="white-space: pre" font-family="Pretendard" font-size="20" font-weight="bold" letter-spacing="-0.5px"><tspan x="648.06" y="219.136">75</tspan></text>
<text fill="black" xml:space="preserve" style="white-space: pre" font-family="Pretendard" font-size="20" font-weight="bold" letter-spacing="-0.5px"><tspan x="891.06" y="219.136">25</tspan></text>
<text fill="black" xml:space="preserve" style="white-space: pre" font-family="Pretendard" font-size="20" font-weight="bold" letter-spacing="-0.5px"><tspan x="769.06" y="338.136">50</tspan></text>
<text fill="black" xml:space="preserve" style="white-space: pre" font-family="Pretendard" font-size="20" font-weight="bold" letter-spacing="-0.5px"><tspan x="634.06" y="108.136">&#xc57c;&#xad6c;(10%)</tspan></text>
<path d="M781.56 108.051V211.847L861.755 277.761C874.25 262.568 882.17 244.14 884.592 224.622C887.014 205.104 883.838 185.301 875.434 167.517C867.031 149.734 853.746 134.703 837.126 124.175C820.506 113.647 801.236 108.055 781.56 108.051Z" fill="#FDE8DF"/>
<path d="M786.122 218.2L781.561 211.847L694.02 267.635C702.829 281.453 714.786 292.989 728.913 301.3C743.04 309.611 758.935 314.461 775.297 315.452C791.659 316.443 808.023 313.548 823.051 307.003C838.078 300.458 851.342 290.45 861.756 277.797L781.561 211.883L786.122 218.2Z" fill="#FFEACA"/>
<path d="M781.56 211.846L720.598 127.843C699.174 143.366 684.491 166.483 679.551 192.466C674.611 218.45 679.786 245.338 694.018 267.635L781.56 211.846Z" fill="#ECEDCE"/>
<path d="M781.56 211.847V108.051C759.654 108.023 738.306 114.954 720.598 127.843L781.56 211.847Z" fill="#CAE7EA"/>
<path d="M781.56 315.478V303.943" stroke="#1D1D1B" stroke-linejoin="bevel"/>
<path d="M781.56 107.886V211.682" stroke="#706F6F" stroke-linejoin="bevel"/>
<path d="M781.56 119.402V107.886" stroke="#1D1D1B" stroke-linejoin="bevel"/>
<path d="M813.652 310.406L810.099 299.438" stroke="#1D1D1B" stroke-linejoin="bevel"/>
<path d="M753.04 123.924L749.486 112.957" stroke="#1D1D1B" stroke-linejoin="bevel"/>
<path d="M842.613 295.667L835.817 286.329" stroke="#1D1D1B" stroke-linejoin="bevel"/>
<path d="M727.301 137.034L720.523 127.696" stroke="#1D1D1B" stroke-linejoin="bevel"/>
<path d="M865.584 272.689L856.242 265.914" stroke="#1D1D1B" stroke-linejoin="bevel"/>
<path d="M706.878 157.449L697.554 150.675" stroke="#1D1D1B" stroke-linejoin="bevel"/>
<path d="M880.329 243.76L869.356 240.189" stroke="#1D1D1B" stroke-linejoin="bevel"/>
<path d="M693.78 183.174L682.789 179.604" stroke="#1D1D1B" stroke-linejoin="bevel"/>
<path d="M885.421 211.682H873.881" stroke="#1D1D1B" stroke-linejoin="bevel"/>
<path d="M689.255 211.682H677.715" stroke="#1D1D1B" stroke-linejoin="bevel"/>
<path d="M880.329 179.604L869.356 183.174" stroke="#1D1D1B" stroke-linejoin="bevel"/>
<path d="M693.761 240.189L682.789 243.76" stroke="#1D1D1B" stroke-linejoin="bevel"/>
<path d="M865.584 150.675L856.242 157.449" stroke="#1D1D1B" stroke-linejoin="bevel"/>
<path d="M706.878 265.914L697.554 272.689" stroke="#1D1D1B" stroke-linejoin="bevel"/>
<path d="M842.613 127.715L835.817 137.034" stroke="#1D1D1B" stroke-linejoin="bevel"/>
<path d="M727.301 286.329L720.523 295.667" stroke="#1D1D1B" stroke-linejoin="bevel"/>
<path d="M813.652 112.957L810.099 123.924" stroke="#1D1D1B" stroke-linejoin="bevel"/>
<path d="M753.039 299.438L749.467 310.406" stroke="#1D1D1B" stroke-linejoin="bevel"/>
<path d="M788.081 315.276L787.66 308.373" stroke="#1D1D1B" stroke-linejoin="bevel"/>
<path d="M775.479 114.99L775.039 108.087" stroke="#1D1D1B" stroke-linejoin="bevel"/>
<path d="M794.584 314.672L793.705 307.806" stroke="#1D1D1B" stroke-linejoin="bevel"/>
<path d="M769.416 115.557L768.555 108.691" stroke="#1D1D1B" stroke-linejoin="bevel"/>
<path d="M801.033 313.646L799.732 306.854" stroke="#1D1D1B" stroke-linejoin="bevel"/>
<path d="M763.408 116.509L762.107 109.716" stroke="#1D1D1B" stroke-linejoin="bevel"/>
<path d="M807.388 312.219L805.666 305.518" stroke="#1D1D1B" stroke-linejoin="bevel"/>
<path d="M757.471 117.845L755.749 111.144" stroke="#1D1D1B" stroke-linejoin="bevel"/>
<path d="M819.808 308.19L817.243 301.764" stroke="#1D1D1B" stroke-linejoin="bevel"/>
<path d="M745.894 121.599L743.348 115.173" stroke="#1D1D1B" stroke-linejoin="bevel"/>
<path d="M825.779 305.609L822.83 299.348" stroke="#1D1D1B" stroke-linejoin="bevel"/>
<path d="M740.309 124.016L737.359 117.754" stroke="#1D1D1B" stroke-linejoin="bevel"/>
<path d="M831.603 302.641L828.27 296.581" stroke="#1D1D1B" stroke-linejoin="bevel"/>
<path d="M734.867 126.781L731.533 120.721" stroke="#1D1D1B" stroke-linejoin="bevel"/>
<path d="M837.209 299.329L833.509 293.488" stroke="#1D1D1B" stroke-linejoin="bevel"/>
<path d="M729.629 129.875L725.929 124.034" stroke="#1D1D1B" stroke-linejoin="bevel"/>
<path d="M847.761 291.657L843.364 286.329" stroke="#1D1D1B" stroke-linejoin="bevel"/>
<path d="M719.791 137.034L715.376 131.688" stroke="#1D1D1B" stroke-linejoin="bevel"/>
<path d="M852.67 287.354L847.926 282.301" stroke="#1D1D1B" stroke-linejoin="bevel"/>
<path d="M715.211 141.062L710.485 136.009" stroke="#1D1D1B" stroke-linejoin="bevel"/>
<path d="M857.268 282.74L852.23 277.998" stroke="#1D1D1B" stroke-linejoin="bevel"/>
<path d="M710.908 145.365L705.87 140.623" stroke="#1D1D1B" stroke-linejoin="bevel"/>
<path d="M861.59 277.852L856.26 273.439" stroke="#1D1D1B" stroke-linejoin="bevel"/>
<path d="M706.895 149.924L701.564 145.512" stroke="#1D1D1B" stroke-linejoin="bevel"/>
<path d="M869.248 267.306L863.404 263.589" stroke="#1D1D1B" stroke-linejoin="bevel"/>
<path d="M699.734 159.756L693.891 156.058" stroke="#1D1D1B" stroke-linejoin="bevel"/>
<path d="M872.582 261.685L866.519 258.353" stroke="#1D1D1B" stroke-linejoin="bevel"/>
<path d="M696.638 165.011L690.575 161.66" stroke="#1D1D1B" stroke-linejoin="bevel"/>
<path d="M875.549 255.88L869.266 252.933" stroke="#1D1D1B" stroke-linejoin="bevel"/>
<path d="M693.872 170.43L687.607 167.482" stroke="#1D1D1B" stroke-linejoin="bevel"/>
<path d="M878.131 249.893L871.684 247.348" stroke="#1D1D1B" stroke-linejoin="bevel"/>
<path d="M691.454 176.014L685.024 173.451" stroke="#1D1D1B" stroke-linejoin="bevel"/>
<path d="M882.161 237.498L875.457 235.777" stroke="#1D1D1B" stroke-linejoin="bevel"/>
<path d="M687.681 187.586L680.995 185.865" stroke="#1D1D1B" stroke-linejoin="bevel"/>
<path d="M883.59 231.126L876.775 229.826" stroke="#1D1D1B" stroke-linejoin="bevel"/>
<path d="M686.361 193.519L679.565 192.219" stroke="#1D1D1B" stroke-linejoin="bevel"/>
<path d="M884.598 224.682L877.729 223.821" stroke="#1D1D1B" stroke-linejoin="bevel"/>
<path d="M685.409 199.524L678.54 198.663" stroke="#1D1D1B" stroke-linejoin="bevel"/>
<path d="M885.221 218.2L878.297 217.761" stroke="#1D1D1B" stroke-linejoin="bevel"/>
<path d="M684.842 205.584L677.937 205.145" stroke="#1D1D1B" stroke-linejoin="bevel"/>
<path d="M885.221 205.164L878.297 205.585" stroke="#1D1D1B" stroke-linejoin="bevel"/>
<path d="M684.842 217.761L677.937 218.182" stroke="#1D1D1B" stroke-linejoin="bevel"/>
<path d="M884.598 198.663L877.729 199.542" stroke="#1D1D1B" stroke-linejoin="bevel"/>
<path d="M685.409 223.821L678.54 224.682" stroke="#1D1D1B" stroke-linejoin="bevel"/>
<path d="M883.59 192.219L876.775 193.519" stroke="#1D1D1B" stroke-linejoin="bevel"/>
<path d="M686.361 229.826L679.565 231.108" stroke="#1D1D1B" stroke-linejoin="bevel"/>
<path d="M882.161 185.865L875.457 187.586" stroke="#1D1D1B" stroke-linejoin="bevel"/>
<path d="M687.681 235.758L680.995 237.479" stroke="#1D1D1B" stroke-linejoin="bevel"/>
<path d="M878.131 173.451L871.684 176.014" stroke="#1D1D1B" stroke-linejoin="bevel"/>
<path d="M691.454 247.33L685.024 249.875" stroke="#1D1D1B" stroke-linejoin="bevel"/>
<path d="M875.549 167.465L869.266 170.431" stroke="#1D1D1B" stroke-linejoin="bevel"/>
<path d="M693.872 252.915L687.607 255.863" stroke="#1D1D1B" stroke-linejoin="bevel"/>
<path d="M872.582 161.66L866.519 164.992" stroke="#1D1D1B" stroke-linejoin="bevel"/>
<path d="M696.638 258.353L690.575 261.667" stroke="#1D1D1B" stroke-linejoin="bevel"/>
<path d="M869.248 156.04L863.404 159.757" stroke="#1D1D1B" stroke-linejoin="bevel"/>
<path d="M699.734 263.589L693.891 267.287" stroke="#1D1D1B" stroke-linejoin="bevel"/>
<path d="M861.591 145.493L856.242 149.924" stroke="#1D1D1B" stroke-linejoin="bevel"/>
<path d="M706.896 273.42L701.547 277.832" stroke="#1D1D1B" stroke-linejoin="bevel"/>
<path d="M857.268 140.605L852.23 145.348" stroke="#1D1D1B" stroke-linejoin="bevel"/>
<path d="M710.908 277.998L705.87 282.722" stroke="#1D1D1B" stroke-linejoin="bevel"/>
<path d="M852.67 136.009L847.926 141.044" stroke="#1D1D1B" stroke-linejoin="bevel"/>
<path d="M715.211 282.301L710.485 287.336" stroke="#1D1D1B" stroke-linejoin="bevel"/>
<path d="M847.78 131.688L843.347 137.034" stroke="#1D1D1B" stroke-linejoin="bevel"/>
<path d="M719.791 286.329L715.376 291.639" stroke="#1D1D1B" stroke-linejoin="bevel"/>
<path d="M837.227 124.015L833.509 129.874" stroke="#1D1D1B" stroke-linejoin="bevel"/>
<path d="M729.629 293.469L725.929 299.309" stroke="#1D1D1B" stroke-linejoin="bevel"/>
<path d="M831.603 120.701L828.27 126.78" stroke="#1D1D1B" stroke-linejoin="bevel"/>
<path d="M734.867 296.564L731.533 302.625" stroke="#1D1D1B" stroke-linejoin="bevel"/>
<path d="M825.798 117.735L822.83 124.015" stroke="#1D1D1B" stroke-linejoin="bevel"/>
<path d="M740.29 299.328L737.359 305.59" stroke="#1D1D1B" stroke-linejoin="bevel"/>
<path d="M819.808 115.153L817.243 121.598" stroke="#1D1D1B" stroke-linejoin="bevel"/>
<path d="M745.876 301.745L743.348 308.172" stroke="#1D1D1B" stroke-linejoin="bevel"/>
<path d="M807.388 111.126L805.666 117.846" stroke="#1D1D1B" stroke-linejoin="bevel"/>
<path d="M757.453 305.518L755.749 312.201" stroke="#1D1D1B" stroke-linejoin="bevel"/>
<path d="M801.033 109.697L799.732 116.508" stroke="#1D1D1B" stroke-linejoin="bevel"/>
<path d="M763.408 306.837L762.107 313.63" stroke="#1D1D1B" stroke-linejoin="bevel"/>
<path d="M794.584 108.691L793.723 115.557" stroke="#1D1D1B" stroke-linejoin="bevel"/>
<path d="M769.416 307.788L768.555 314.654" stroke="#1D1D1B" stroke-linejoin="bevel"/>
<path d="M788.1 108.068L787.66 114.989" stroke="#1D1D1B" stroke-linejoin="bevel"/>
<path d="M775.479 308.355L775.039 315.258" stroke="#1D1D1B" stroke-linejoin="bevel"/>
<path d="M885.422 211.682C885.426 232.215 879.338 252.288 867.927 269.363C856.517 286.438 840.297 299.747 821.319 307.607C802.341 315.467 781.457 317.526 761.308 313.522C741.16 309.518 722.652 299.633 708.124 285.115C693.597 270.597 683.703 252.099 679.694 231.96C675.685 211.822 677.741 190.947 685.602 171.976C693.462 153.006 706.774 136.791 723.855 125.383C740.935 113.975 761.017 107.886 781.56 107.886C809.103 107.886 835.518 118.821 854.995 138.286C874.473 157.751 885.417 184.152 885.422 211.682Z" stroke="#706F6F" stroke-linejoin="bevel"/>
<path d="M861.426 277.376L781.56 211.682" stroke="#706F6F" stroke-linejoin="bevel"/>
<path d="M693.815 267.617L781.558 211.682" stroke="#706F6F" stroke-linejoin="bevel"/>
<path d="M759.45 135.092L749.613 101.604H725.854" stroke="#E6007E" stroke-miterlimit="10"/>
<path d="M760.897 140.055L761.703 132.219L759.34 134.727L755.988 133.903L760.897 140.055Z" fill="#E6007E"/>
<path d="M720.836 128.008L781.56 211.682" stroke="#706F6F" stroke-linejoin="bevel"/>
<text fill="black" xml:space="preserve" style="white-space: pre" font-family="Pretendard" font-size="20" font-weight="bold" letter-spacing="-0.5px"><tspan x="761.524" y="257.136">&#xcd95;&#xad6c;&#10;</tspan><tspan x="749.179" y="289.136">(30%)</tspan></text>
<text fill="black" xml:space="preserve" style="white-space: pre" font-family="Pretendard" font-size="20" font-weight="bold" letter-spacing="-0.5px"><tspan x="705.024" y="193.136">&#xd53c;&#xad6c;&#10;</tspan><tspan x="693.147" y="225.136">(24%)</tspan></text>
<text fill="black" xml:space="preserve" style="white-space: pre" font-family="Pretendard" font-size="20" font-weight="bold" letter-spacing="-0.5px"><tspan x="798.132" y="177.136">&#xc904;&#xb118;&#xae30;&#10;</tspan><tspan x="794.354" y="209.136">(36%)</tspan></text>
</svg>
