<svg width="1142" height="332" viewBox="0 0 1142 332" fill="none" xmlns="http://www.w3.org/2000/svg">
<g clip-path="url(#clip0_7699_15515)">
<path d="M923.188 185.528H777.531V267.885H923.188V185.528Z" fill="#FFEACA"/>
<path d="M778.597 185.528H603.625V267.885H778.597V185.528Z" fill="#FDE8DF"/>
<path d="M1088.05 185.674H1039.26V268.031H1088.05V185.674Z" fill="#CAE7EA"/>
<path d="M1088.05 185.674H1039.26V268.031H1088.05V185.674Z" stroke="#706F6F" stroke-width="0.5" stroke-miterlimit="10"/>
<path d="M1039.29 185.674H923.212V268.031H1039.29V185.674Z" fill="#ECEDCE"/>
<path d="M1039.29 185.674H923.212V268.031H1039.29V185.674Z" stroke="#706F6F" stroke-width="0.5" stroke-miterlimit="10"/>
<path d="M777.943 185.674H603.625V268.031H777.943V185.674Z" stroke="#706F6F" stroke-width="0.5" stroke-miterlimit="10"/>
<path d="M923.212 185.674H777.943V268.031H923.212V185.674Z" stroke="#706F6F" stroke-width="0.5" stroke-miterlimit="10"/>
<path d="M1088.05 149.286V173.35H603.625V149.286" stroke="#1D1D1B" stroke-width="0.5" stroke-linejoin="bevel"/>
<path d="M652.072 173.35V149.286" stroke="#1D1D1B" stroke-width="0.5" stroke-linejoin="bevel"/>
<path d="M700.52 173.35V149.286" stroke="#1D1D1B" stroke-width="0.5" stroke-linejoin="bevel"/>
<path d="M748.942 173.35V149.286" stroke="#1D1D1B" stroke-width="0.5" stroke-linejoin="bevel"/>
<path d="M797.39 173.35V149.286" stroke="#1D1D1B" stroke-width="0.5" stroke-linejoin="bevel"/>
<path d="M845.837 173.35V149.286" stroke="#1D1D1B" stroke-width="0.5" stroke-linejoin="bevel"/>
<path d="M894.284 173.35V149.286" stroke="#1D1D1B" stroke-width="0.5" stroke-linejoin="bevel"/>
<path d="M942.731 173.35V149.286" stroke="#1D1D1B" stroke-width="0.5" stroke-linejoin="bevel"/>
<path d="M991.179 173.35V149.286" stroke="#1D1D1B" stroke-width="0.5" stroke-linejoin="bevel"/>
<path d="M1039.6 173.35V149.286" stroke="#1D1D1B" stroke-width="0.5" stroke-linejoin="bevel"/>
<path d="M627.849 173.351V156.176" stroke="#1D1D1B" stroke-width="0.3" stroke-linejoin="bevel"/>
<path d="M622.999 173.35V163.04" stroke="#1D1D1B" stroke-width="0.3" stroke-linejoin="bevel"/>
<path d="M618.15 173.35V163.04" stroke="#1D1D1B" stroke-width="0.3" stroke-linejoin="bevel"/>
<path d="M613.301 173.35V163.04" stroke="#1D1D1B" stroke-width="0.3" stroke-linejoin="bevel"/>
<path d="M608.475 173.35V163.04" stroke="#1D1D1B" stroke-width="0.3" stroke-linejoin="bevel"/>
<path d="M647.223 173.35V163.04" stroke="#1D1D1B" stroke-width="0.3" stroke-linejoin="bevel"/>
<path d="M642.373 173.35V163.04" stroke="#1D1D1B" stroke-width="0.3" stroke-linejoin="bevel"/>
<path d="M637.523 173.35V163.04" stroke="#1D1D1B" stroke-width="0.3" stroke-linejoin="bevel"/>
<path d="M632.698 173.35V163.04" stroke="#1D1D1B" stroke-width="0.3" stroke-linejoin="bevel"/>
<path d="M671.446 173.35V163.04" stroke="#1D1D1B" stroke-width="0.3" stroke-linejoin="bevel"/>
<path d="M666.597 173.35V163.04" stroke="#1D1D1B" stroke-width="0.3" stroke-linejoin="bevel"/>
<path d="M661.747 173.35V163.04" stroke="#1D1D1B" stroke-width="0.3" stroke-linejoin="bevel"/>
<path d="M656.898 173.35V163.04" stroke="#1D1D1B" stroke-width="0.3" stroke-linejoin="bevel"/>
<path d="M695.67 173.35V163.04" stroke="#1D1D1B" stroke-width="0.3" stroke-linejoin="bevel"/>
<path d="M690.82 173.35V163.04" stroke="#1D1D1B" stroke-width="0.3" stroke-linejoin="bevel"/>
<path d="M685.971 173.35V163.04" stroke="#1D1D1B" stroke-width="0.3" stroke-linejoin="bevel"/>
<path d="M681.121 173.35V163.04" stroke="#1D1D1B" stroke-width="0.3" stroke-linejoin="bevel"/>
<path d="M719.894 173.35V163.04" stroke="#1D1D1B" stroke-width="0.3" stroke-linejoin="bevel"/>
<path d="M715.044 173.35V163.04" stroke="#1D1D1B" stroke-width="0.3" stroke-linejoin="bevel"/>
<path d="M710.194 173.35V163.04" stroke="#1D1D1B" stroke-width="0.3" stroke-linejoin="bevel"/>
<path d="M705.345 173.35V163.04" stroke="#1D1D1B" stroke-width="0.3" stroke-linejoin="bevel"/>
<path d="M744.117 173.35V163.04" stroke="#1D1D1B" stroke-width="0.3" stroke-linejoin="bevel"/>
<path d="M739.268 173.35V163.04" stroke="#1D1D1B" stroke-width="0.3" stroke-linejoin="bevel"/>
<path d="M734.418 173.35V163.04" stroke="#1D1D1B" stroke-width="0.3" stroke-linejoin="bevel"/>
<path d="M729.568 173.35V163.04" stroke="#1D1D1B" stroke-width="0.3" stroke-linejoin="bevel"/>
<path d="M768.316 173.35V163.04" stroke="#1D1D1B" stroke-width="0.3" stroke-linejoin="bevel"/>
<path d="M763.491 173.35V163.04" stroke="#1D1D1B" stroke-width="0.3" stroke-linejoin="bevel"/>
<path d="M758.642 173.35V163.04" stroke="#1D1D1B" stroke-width="0.3" stroke-linejoin="bevel"/>
<path d="M753.792 173.35V163.04" stroke="#1D1D1B" stroke-width="0.3" stroke-linejoin="bevel"/>
<path d="M792.54 173.35V163.04" stroke="#1D1D1B" stroke-width="0.3" stroke-linejoin="bevel"/>
<path d="M787.715 173.35V163.04" stroke="#1D1D1B" stroke-width="0.3" stroke-linejoin="bevel"/>
<path d="M782.865 173.35V163.04" stroke="#1D1D1B" stroke-width="0.3" stroke-linejoin="bevel"/>
<path d="M778.016 173.35V163.04" stroke="#1D1D1B" stroke-width="0.3" stroke-linejoin="bevel"/>
<path d="M816.764 173.35V163.04" stroke="#1D1D1B" stroke-width="0.3" stroke-linejoin="bevel"/>
<path d="M811.938 173.35V163.04" stroke="#1D1D1B" stroke-width="0.3" stroke-linejoin="bevel"/>
<path d="M807.089 173.35V163.04" stroke="#1D1D1B" stroke-width="0.3" stroke-linejoin="bevel"/>
<path d="M802.239 173.35V163.04" stroke="#1D1D1B" stroke-width="0.3" stroke-linejoin="bevel"/>
<path d="M840.987 173.35V163.04" stroke="#1D1D1B" stroke-width="0.3" stroke-linejoin="bevel"/>
<path d="M836.138 173.35V163.04" stroke="#1D1D1B" stroke-width="0.3" stroke-linejoin="bevel"/>
<path d="M831.312 173.35V163.04" stroke="#1D1D1B" stroke-width="0.3" stroke-linejoin="bevel"/>
<path d="M826.463 173.35V163.04" stroke="#1D1D1B" stroke-width="0.3" stroke-linejoin="bevel"/>
<path d="M865.211 173.35V163.04" stroke="#1D1D1B" stroke-width="0.3" stroke-linejoin="bevel"/>
<path d="M860.361 173.35V163.04" stroke="#1D1D1B" stroke-width="0.3" stroke-linejoin="bevel"/>
<path d="M855.536 173.35V163.04" stroke="#1D1D1B" stroke-width="0.3" stroke-linejoin="bevel"/>
<path d="M850.687 173.35V163.04" stroke="#1D1D1B" stroke-width="0.3" stroke-linejoin="bevel"/>
<path d="M889.435 173.35V163.04" stroke="#1D1D1B" stroke-width="0.3" stroke-linejoin="bevel"/>
<path d="M884.585 173.35V163.04" stroke="#1D1D1B" stroke-width="0.3" stroke-linejoin="bevel"/>
<path d="M879.76 173.35V163.04" stroke="#1D1D1B" stroke-width="0.3" stroke-linejoin="bevel"/>
<path d="M874.91 173.35V163.04" stroke="#1D1D1B" stroke-width="0.3" stroke-linejoin="bevel"/>
<path d="M913.658 173.35V163.04" stroke="#1D1D1B" stroke-width="0.3" stroke-linejoin="bevel"/>
<path d="M908.809 173.35V163.04" stroke="#1D1D1B" stroke-width="0.3" stroke-linejoin="bevel"/>
<path d="M903.959 173.35V163.04" stroke="#1D1D1B" stroke-width="0.3" stroke-linejoin="bevel"/>
<path d="M899.134 173.35V163.04" stroke="#1D1D1B" stroke-width="0.3" stroke-linejoin="bevel"/>
<path d="M937.882 173.35V163.04" stroke="#1D1D1B" stroke-width="0.3" stroke-linejoin="bevel"/>
<path d="M933.032 173.35V163.04" stroke="#1D1D1B" stroke-width="0.3" stroke-linejoin="bevel"/>
<path d="M928.183 173.35V163.04" stroke="#1D1D1B" stroke-width="0.3" stroke-linejoin="bevel"/>
<path d="M923.357 173.35V163.04" stroke="#1D1D1B" stroke-width="0.3" stroke-linejoin="bevel"/>
<path d="M962.105 173.35V163.04" stroke="#1D1D1B" stroke-width="0.3" stroke-linejoin="bevel"/>
<path d="M957.256 173.35V163.04" stroke="#1D1D1B" stroke-width="0.3" stroke-linejoin="bevel"/>
<path d="M952.406 173.35V163.04" stroke="#1D1D1B" stroke-width="0.3" stroke-linejoin="bevel"/>
<path d="M947.557 173.35V163.04" stroke="#1D1D1B" stroke-width="0.3" stroke-linejoin="bevel"/>
<path d="M986.329 173.35V163.04" stroke="#1D1D1B" stroke-width="0.3" stroke-linejoin="bevel"/>
<path d="M981.479 173.35V163.04" stroke="#1D1D1B" stroke-width="0.3" stroke-linejoin="bevel"/>
<path d="M976.63 173.35V163.04" stroke="#1D1D1B" stroke-width="0.3" stroke-linejoin="bevel"/>
<path d="M971.78 173.35V163.04" stroke="#1D1D1B" stroke-width="0.3" stroke-linejoin="bevel"/>
<path d="M1010.55 173.35V163.04" stroke="#1D1D1B" stroke-width="0.3" stroke-linejoin="bevel"/>
<path d="M1005.7 173.35V163.04" stroke="#1D1D1B" stroke-width="0.3" stroke-linejoin="bevel"/>
<path d="M1000.85 173.35V163.04" stroke="#1D1D1B" stroke-width="0.3" stroke-linejoin="bevel"/>
<path d="M996.004 173.35V163.04" stroke="#1D1D1B" stroke-width="0.3" stroke-linejoin="bevel"/>
<path d="M1034.78 173.35V163.04" stroke="#1D1D1B" stroke-width="0.3" stroke-linejoin="bevel"/>
<path d="M1029.93 173.35V163.04" stroke="#1D1D1B" stroke-width="0.3" stroke-linejoin="bevel"/>
<path d="M1025.08 173.35V163.04" stroke="#1D1D1B" stroke-width="0.3" stroke-linejoin="bevel"/>
<path d="M1020.23 173.35V163.04" stroke="#1D1D1B" stroke-width="0.3" stroke-linejoin="bevel"/>
<path d="M1058.98 173.35V163.04" stroke="#1D1D1B" stroke-width="0.3" stroke-linejoin="bevel"/>
<path d="M1054.15 173.35V163.04" stroke="#1D1D1B" stroke-width="0.3" stroke-linejoin="bevel"/>
<path d="M1049.3 173.35V163.04" stroke="#1D1D1B" stroke-width="0.3" stroke-linejoin="bevel"/>
<path d="M1044.45 173.35V163.04" stroke="#1D1D1B" stroke-width="0.3" stroke-linejoin="bevel"/>
<path d="M1083.2 173.35V163.04" stroke="#1D1D1B" stroke-width="0.3" stroke-linejoin="bevel"/>
<path d="M1078.37 173.35V163.04" stroke="#1D1D1B" stroke-width="0.3" stroke-linejoin="bevel"/>
<path d="M1073.52 173.35V163.04" stroke="#1D1D1B" stroke-width="0.3" stroke-linejoin="bevel"/>
<path d="M1068.67 173.35V163.04" stroke="#1D1D1B" stroke-width="0.3" stroke-linejoin="bevel"/>
<path d="M676.296 173.351V156.176" stroke="#1D1D1B" stroke-width="0.3" stroke-linejoin="bevel"/>
<path d="M724.719 173.351V156.176" stroke="#1D1D1B" stroke-width="0.3" stroke-linejoin="bevel"/>
<path d="M773.166 173.351V156.176" stroke="#1D1D1B" stroke-width="0.3" stroke-linejoin="bevel"/>
<path d="M821.613 173.351V156.176" stroke="#1D1D1B" stroke-width="0.3" stroke-linejoin="bevel"/>
<path d="M870.061 173.351V156.176" stroke="#1D1D1B" stroke-width="0.3" stroke-linejoin="bevel"/>
<path d="M918.508 173.351V156.176" stroke="#1D1D1B" stroke-width="0.3" stroke-linejoin="bevel"/>
<path d="M966.955 173.351V156.176" stroke="#1D1D1B" stroke-width="0.3" stroke-linejoin="bevel"/>
<path d="M1015.38 173.351V156.176" stroke="#1D1D1B" stroke-width="0.3" stroke-linejoin="bevel"/>
<path d="M1063.83 173.351V156.176" stroke="#1D1D1B" stroke-width="0.3" stroke-linejoin="bevel"/>
<path d="M1063.36 253.403V289.961H1038.61" stroke="#E6007E" stroke-width="0.5" stroke-miterlimit="10"/>
<path d="M1063.36 246.562L1059.41 256.217L1063.36 253.913L1067.29 256.217L1063.36 246.562Z" fill="#E6007E"/>
<path d="M389.541 8.07812C386.217 8.07813 383.028 9.39947 380.677 11.7515C378.326 14.1035 377.005 17.2935 377.005 20.6197C377.005 23.9459 378.326 27.1359 380.677 29.4879C383.028 31.8399 386.217 33.1613 389.541 33.1613H740.068C743.393 33.1613 746.582 31.8399 748.932 29.4879C751.283 27.1359 752.604 23.9459 752.604 20.6197C752.604 17.2935 751.283 14.1035 748.932 11.7515C746.582 9.39947 743.393 8.07812 740.068 8.07812H389.541Z" fill="#D7DFF3"/>
<path d="M389.541 8.07812C386.217 8.07813 383.028 9.39947 380.677 11.7515C378.326 14.1035 377.005 17.2935 377.005 20.6197C377.005 23.9459 378.326 27.1359 380.677 29.4879C383.028 31.8399 386.217 33.1613 389.541 33.1613H740.068C743.393 33.1613 746.582 31.8399 748.933 29.4879C751.283 27.1359 752.604 23.9459 752.604 20.6197C752.604 17.2935 751.283 14.1035 748.933 11.7515C746.582 9.39947 743.393 8.07812 740.068 8.07812H389.541Z" stroke="#D7DFF3"/>
<path d="M403.398 1C398.254 1 393.319 3.04463 389.682 6.68409C386.044 10.3235 384 15.2597 384 20.4067C384 25.5537 386.044 30.4898 389.682 34.1293C393.319 37.7688 398.254 39.8134 403.398 39.8134H726.428C731.573 39.8134 736.507 37.7688 740.145 34.1293C743.782 30.4898 745.826 25.5537 745.826 20.4067C745.826 15.2597 743.782 10.3235 740.145 6.68409C736.507 3.04463 731.573 1 726.428 1H403.398Z" fill="white"/>
<path d="M403.29 1.21289C398.145 1.21289 393.211 3.25752 389.573 6.89698C385.935 10.5364 383.892 15.4726 383.892 20.6196C383.892 25.7666 385.935 30.7027 389.573 34.3422C393.211 37.9816 398.145 40.0263 403.29 40.0263H726.319C731.464 40.0263 736.398 37.9816 740.036 34.3422C743.674 30.7027 745.718 25.7666 745.718 20.6196C745.718 15.4726 743.674 10.5364 740.036 6.89698C736.398 3.25752 731.464 1.21289 726.319 1.21289H403.29Z" stroke="#D7DFF3"/>
<path d="M20.6107 111.952C15.1463 111.959 9.90767 114.133 6.04381 117.999C2.17995 121.864 0.00641729 127.105 0 132.572L0 311.356C-3.77555e-06 316.827 2.1707 322.074 6.03525 325.945C9.8998 329.816 15.1421 331.993 20.6107 332H109.964V111.952H20.6107Z" fill="#E4E9F7"/>
<path d="M113.407 331.394H545.819C551.292 331.394 556.54 329.219 560.41 325.347C564.28 321.476 566.454 316.225 566.454 310.75V166.971H113.407V331.394Z" fill="white"/>
<path d="M113.407 111.952V166.97H567.06V132.572C567.053 127.101 564.877 121.856 561.007 117.99C557.138 114.124 551.893 111.952 546.425 111.952H113.407Z" fill="#EFEEEE"/>
<path d="M204.143 160.081V118.817" stroke="white" stroke-miterlimit="10"/>
<path d="M294.878 160.081V118.817" stroke="white" stroke-miterlimit="10"/>
<path d="M385.589 160.081V118.817" stroke="white" stroke-miterlimit="10"/>
<path d="M476.324 160.081V118.817" stroke="white" stroke-miterlimit="10"/>
<path d="M204.143 248.867V166.971" stroke="#DADADA" stroke-width="0.5" stroke-miterlimit="10"/>
<path d="M294.878 248.867V166.971" stroke="#DADADA" stroke-width="0.5" stroke-miterlimit="10"/>
<path d="M385.589 248.867V166.971" stroke="#DADADA" stroke-width="0.5" stroke-miterlimit="10"/>
<path d="M476.324 248.867V166.971" stroke="#DADADA" stroke-width="0.5" stroke-miterlimit="10"/>
<path d="M113.407 249.473H204.143" stroke="#DADADA" stroke-width="0.5" stroke-miterlimit="10"/>
<path d="M204.143 249.473H294.878" stroke="#DADADA" stroke-width="0.5" stroke-miterlimit="10"/>
<path d="M204.143 332V250.079" stroke="#DADADA" stroke-width="0.5" stroke-miterlimit="10"/>
<path d="M294.878 249.473H385.589" stroke="#DADADA" stroke-width="0.5" stroke-miterlimit="10"/>
<path d="M294.878 332V250.079" stroke="#DADADA" stroke-width="0.5" stroke-miterlimit="10"/>
<path d="M385.589 249.473H476.324" stroke="#DADADA" stroke-width="0.5" stroke-miterlimit="10"/>
<path d="M385.589 332V250.079" stroke="#DADADA" stroke-width="0.5" stroke-miterlimit="10"/>
<path d="M476.324 249.473H567.06" stroke="#DADADA" stroke-width="0.5" stroke-miterlimit="10"/>
<path d="M476.324 332V250.079" stroke="#DADADA" stroke-width="0.5" stroke-miterlimit="10"/>
<path d="M6.8623 166.971H103.102" stroke="white" stroke-miterlimit="10"/>
<path d="M6.8623 249.473H103.102" stroke="white" stroke-miterlimit="10"/>
<path d="M113.407 331.394H545.819C551.291 331.394 556.54 329.219 560.41 325.347C564.28 321.476 566.454 316.225 566.454 310.75V166.971" stroke="#DADADA" stroke-width="0.5"/>
<text fill="#6A6B94" xml:space="preserve" style="white-space: pre" font-family="Pretendard" font-size="20" font-weight="bold" letter-spacing="-0.5px"><tspan x="446" y="28.1094">&#xc88b;&#xc544;&#xd558;&#xb294; &#xc6b4;&#xb3d9;&#xbcc4; &#xd559;&#xc0dd; &#xc218;&#xc758; &#xbe44;&#xc728;</tspan></text>
<text fill="black" xml:space="preserve" style="white-space: pre" font-family="Pretendard" font-size="20" font-weight="bold" letter-spacing="-0.5px"><tspan x="37" y="146.109">&#xc6b4;&#xb3d9;</tspan></text>
<text fill="black" xml:space="preserve" style="white-space: pre" font-family="Pretendard" font-size="20" font-weight="bold" letter-spacing="-0.5px"><tspan x="947" y="298.109">&#xc57c;&#xad6c;(10%)</tspan></text>
<text fill="black" xml:space="preserve" style="white-space: pre" font-family="Pretendard" font-size="20" font-weight="bold" letter-spacing="-0.5px"><tspan x="132" y="146.109">&#xc904;&#xb118;&#xae30;</tspan></text>
<text fill="black" xml:space="preserve" style="white-space: pre" font-family="Pretendard" font-size="20" font-weight="bold" letter-spacing="-0.5px"><tspan x="149" y="215.109">18</tspan></text>
<text fill="black" xml:space="preserve" style="white-space: pre" font-family="Pretendard" font-size="20" font-weight="bold" letter-spacing="-0.5px"><tspan x="147" y="298.109">36</tspan></text>
<text fill="black" xml:space="preserve" style="white-space: pre" font-family="Pretendard" font-size="20" font-weight="bold" letter-spacing="-0.5px"><tspan x="597" y="146.109">0</tspan></text>
<text fill="black" xml:space="preserve" style="white-space: pre" font-family="Pretendard" font-size="20" font-weight="bold" letter-spacing="-0.5px"><tspan x="642" y="146.109">10</tspan></text>
<text fill="black" xml:space="preserve" style="white-space: pre" font-family="Pretendard" font-size="20" font-weight="bold" letter-spacing="-0.5px"><tspan x="690" y="146.109">20</tspan></text>
<text fill="black" xml:space="preserve" style="white-space: pre" font-family="Pretendard" font-size="20" font-weight="bold" letter-spacing="-0.5px"><tspan x="738" y="146.109">30</tspan></text>
<text fill="black" xml:space="preserve" style="white-space: pre" font-family="Pretendard" font-size="20" font-weight="bold" letter-spacing="-0.5px"><tspan x="786" y="146.109">40</tspan></text>
<text fill="black" xml:space="preserve" style="white-space: pre" font-family="Pretendard" font-size="20" font-weight="bold" letter-spacing="-0.5px"><tspan x="834" y="146.109">50</tspan></text>
<text fill="black" xml:space="preserve" style="white-space: pre" font-family="Pretendard" font-size="20" font-weight="bold" letter-spacing="-0.5px"><tspan x="882" y="146.109">60</tspan></text>
<text fill="black" xml:space="preserve" style="white-space: pre" font-family="Pretendard" font-size="20" font-weight="bold" letter-spacing="-0.5px"><tspan x="930" y="146.109">70</tspan></text>
<text fill="black" xml:space="preserve" style="white-space: pre" font-family="Pretendard" font-size="20" font-weight="bold" letter-spacing="-0.5px"><tspan x="979" y="146.109">80</tspan></text>
<text fill="black" xml:space="preserve" style="white-space: pre" font-family="Pretendard" font-size="20" font-weight="bold" letter-spacing="-0.5px"><tspan x="1027" y="146.109">90</tspan></text>
<text fill="black" xml:space="preserve" style="white-space: pre" font-family="Pretendard" font-size="20" font-weight="bold" letter-spacing="-0.5px"><tspan x="1070" y="146.109">100(%)</tspan></text>
<text fill="black" xml:space="preserve" style="white-space: pre" font-family="Pretendard" font-size="20" font-weight="bold" letter-spacing="-0.5px"><tspan x="238" y="215.109">15</tspan></text>
<text fill="black" xml:space="preserve" style="white-space: pre" font-family="Pretendard" font-size="20" font-weight="bold" letter-spacing="-0.5px"><tspan x="236" y="298.109">30</tspan></text>
<text fill="black" xml:space="preserve" style="white-space: pre" font-family="Pretendard" font-size="20" font-weight="bold" letter-spacing="-0.5px"><tspan x="329" y="215.109">12</tspan></text>
<text fill="black" xml:space="preserve" style="white-space: pre" font-family="Pretendard" font-size="20" font-weight="bold" letter-spacing="-0.5px"><tspan x="327" y="298.109">24</tspan></text>
<text fill="black" xml:space="preserve" style="white-space: pre" font-family="Pretendard" font-size="20" font-weight="bold" letter-spacing="-0.5px"><tspan x="425" y="215.109">5</tspan></text>
<text fill="black" xml:space="preserve" style="white-space: pre" font-family="Pretendard" font-size="20" font-weight="bold" letter-spacing="-0.5px"><tspan x="420" y="298.109">10</tspan></text>
<text fill="black" xml:space="preserve" style="white-space: pre" font-family="Pretendard" font-size="20" font-weight="bold" letter-spacing="-0.5px"><tspan x="506" y="215.109">50</tspan></text>
<text fill="black" xml:space="preserve" style="white-space: pre" font-family="Pretendard" font-size="20" font-weight="bold" letter-spacing="-0.5px"><tspan x="501" y="298.109">100</tspan></text>
<text fill="black" xml:space="preserve" style="white-space: pre" font-family="Pretendard" font-size="20" font-weight="bold" letter-spacing="-0.5px"><tspan x="232" y="146.109">&#xcd95;&#xad6c;</tspan></text>
<text fill="black" xml:space="preserve" style="white-space: pre" font-family="Pretendard" font-size="20" font-weight="bold" letter-spacing="-0.5px"><tspan x="323" y="146.109">&#xd53c;&#xad6c;</tspan></text>
<text fill="black" xml:space="preserve" style="white-space: pre" font-family="Pretendard" font-size="20" font-weight="bold" letter-spacing="-0.5px"><tspan x="415" y="146.109">&#xc57c;&#xad6c;</tspan></text>
<text fill="black" xml:space="preserve" style="white-space: pre" font-family="Pretendard" font-size="20" font-weight="bold" letter-spacing="-0.5px"><tspan x="504" y="146.109">&#xd569;&#xacc4;</tspan></text>
<text fill="black" xml:space="preserve" style="white-space: pre" font-family="Pretendard" font-size="20" font-weight="bold" letter-spacing="-0.5px"><tspan x="27.0176" y="199.109">&#xd559;&#xc0dd; &#xc218;&#10;</tspan><tspan x="38.5645" y="231.109">(&#xba85;)</tspan></text>
<text fill="black" xml:space="preserve" style="white-space: pre" font-family="Pretendard" font-size="20" font-weight="bold" letter-spacing="-0.5px"><tspan x="665.072" y="218.109">&#xc904;&#xb118;&#xae30;&#10;</tspan><tspan x="661.295" y="250.109">(36%)</tspan></text>
<text fill="black" xml:space="preserve" style="white-space: pre" font-family="Pretendard" font-size="20" font-weight="bold" letter-spacing="-0.5px"><tspan x="833.465" y="218.109">&#xcd95;&#xad6c;&#10;</tspan><tspan x="821.119" y="250.109">(30%)</tspan></text>
<text fill="black" xml:space="preserve" style="white-space: pre" font-family="Pretendard" font-size="20" font-weight="bold" letter-spacing="-0.5px"><tspan x="963.965" y="218.109">&#xd53c;&#xad6c;&#10;</tspan><tspan x="952.088" y="250.109">(24%)</tspan></text>
<text fill="black" xml:space="preserve" style="white-space: pre" font-family="Pretendard" font-size="20" font-weight="bold" letter-spacing="-0.5px"><tspan x="29.0723" y="284.109">&#xbc31;&#xbd84;&#xc728;&#10;</tspan><tspan x="37.6074" y="316.109">(%)</tspan></text>
</g>
<defs>
<clipPath id="clip0_7699_15515">
<rect width="1142" height="332" fill="white"/>
</clipPath>
</defs>
</svg>
