<svg width="995" height="435" viewBox="0 0 995 435" fill="none" xmlns="http://www.w3.org/2000/svg">
<g clip-path="url(#clip0_7699_107528)">
<path d="M253.615 10.1533C249.439 10.1533 245.434 11.8143 242.481 14.7708C239.528 17.7273 237.869 21.7372 237.869 25.9183C237.869 30.0995 239.528 34.1094 242.481 37.0659C245.434 40.0224 249.439 41.6834 253.615 41.6834H741.382C745.558 41.6834 749.563 40.0224 752.516 37.0659C755.469 34.1094 757.128 30.0995 757.128 25.9183C757.128 21.7372 755.469 17.7273 752.516 14.7708C749.563 11.8143 745.558 10.1533 741.382 10.1533H253.615Z" fill="#D7DFF3"/>
<path d="M253.615 10.1533C249.439 10.1533 245.434 11.8143 242.481 14.7708C239.528 17.7273 237.869 21.7372 237.869 25.9183C237.869 30.0995 239.528 34.1094 242.481 37.0659C245.434 40.0224 249.439 41.6834 253.615 41.6834H741.382C745.558 41.6834 749.563 40.0224 752.516 37.0659C755.469 34.1094 757.128 30.0995 757.128 25.9183C757.128 21.7372 755.469 17.7273 752.516 14.7708C749.563 11.8143 745.558 10.1533 741.382 10.1533H253.615Z" stroke="#D7DFF3" stroke-width="3.04351"/>
<path d="M271.089 2.6377C264.627 2.6377 258.43 5.20784 253.86 9.78271C249.291 14.3576 246.724 20.5625 246.724 27.0323C246.724 33.5022 249.291 39.707 253.86 44.2819C258.43 48.8568 264.627 51.4269 271.089 51.4269H724.287C730.749 51.4269 736.947 48.8568 741.516 44.2819C746.085 39.707 748.652 33.5022 748.652 27.0323C748.652 20.5625 746.085 14.3576 741.516 9.78271C736.947 5.20784 730.749 2.6377 724.287 2.6377H271.089Z" fill="white"/>
<text fill="#504D7C" xml:space="preserve" style="white-space: pre" font-family="Pretendard" font-size="28.0388" font-weight="bold" letter-spacing="-0.876213px"><tspan x="330.9" y="37.1503">&#xace0;&#xbbfc; &#xc0c1;&#xb2f4; &#xb300;&#xc0c1;&#xbcc4; &#xd559;&#xc0dd; &#xc218;&#xc758; &#xbe44;&#xc728;</tspan></text>
<path d="M270.855 1.52344C264.393 1.52344 258.195 4.09358 253.626 8.66846C249.056 13.2433 246.489 19.4482 246.489 25.9181C246.489 32.3879 249.056 38.5928 253.626 43.1677C258.195 47.7425 264.393 50.3127 270.855 50.3127H724.053C730.515 50.3127 736.712 47.7425 741.282 43.1677C745.851 38.5928 748.418 32.3879 748.418 25.9181C748.418 19.4482 745.851 13.2433 741.282 8.66846C736.712 4.09358 730.515 1.52344 724.053 1.52344H270.855Z" stroke="#D7DFF3" stroke-width="3.04351"/>
<path d="M46.3873 64.8291C39.5238 64.8372 32.9437 67.5705 28.0904 72.4296C23.2372 77.2887 20.5071 83.8766 20.499 90.7484L20.499 178.051C20.499 184.928 23.2256 191.523 28.0797 196.389C32.9338 201.255 39.5185 203.992 46.3873 204H193.159V64.8291H46.3873Z" fill="#E4E9F7"/>
<path d="M29.1191 133.987H184.54" stroke="white" stroke-width="3.04351" stroke-miterlimit="10"/>
<text fill="#1D1D1B" xml:space="preserve" style="white-space: pre" font-family="Pretendard" font-size="28.0388" letter-spacing="-0.876213px"><tspan x="84.5088" y="110.134">&#xb300;&#xc0c1;</tspan></text>
<text fill="#1D1D1B" xml:space="preserve" style="white-space: pre" font-family="Pretendard" font-size="28.0388" letter-spacing="-0.876213px"><tspan x="52.0654" y="181.078">&#xbc31;&#xbd84;&#xc728;(%)</tspan></text>
<path d="M197.485 64.8291V133.988H974.501V90.7484C974.492 83.8714 971.758 77.2788 966.898 72.4188C962.039 67.5589 955.451 64.8291 948.582 64.8291H197.485Z" fill="#EFEEEE"/>
<path d="M326.985 125.329V73.46" stroke="white" stroke-width="3.04351" stroke-miterlimit="10"/>
<path d="M456.49 125.329V73.46" stroke="white" stroke-width="3.04351" stroke-miterlimit="10"/>
<path d="M585.99 125.329V73.46" stroke="white" stroke-width="3.04351" stroke-miterlimit="10"/>
<path d="M715.495 125.329V73.46" stroke="white" stroke-width="3.04351" stroke-miterlimit="10"/>
<path d="M844.997 125.329V73.46" stroke="white" stroke-width="3.04351" stroke-miterlimit="10"/>
<text fill="#1D1D1B" xml:space="preserve" style="white-space: pre" font-family="Pretendard" font-size="28.0388" letter-spacing="-0.876213px"><tspan x="234.555" y="108.375">&#xce5c;&#xad6c;</tspan></text>
<text fill="#1D1D1B" xml:space="preserve" style="white-space: pre" font-family="Pretendard" font-size="28.0388" letter-spacing="-0.876213px"><tspan x="354.345" y="108.375">&#xbd80;&#xbaa8;&#xb2d8;</tspan></text>
<text fill="#1D1D1B" xml:space="preserve" style="white-space: pre" font-family="Pretendard" font-size="28.0388" letter-spacing="-0.876213px"><tspan x="481.477" y="108.375">&#xc120;&#xb7;&#xd6c4;&#xbc30;</tspan></text>
<text fill="#1D1D1B" xml:space="preserve" style="white-space: pre" font-family="Pretendard" font-size="28.0388" letter-spacing="-0.876213px"><tspan x="626.424" y="108.375">&#xd615;&#xc81c;</tspan></text>
<text fill="#1D1D1B" xml:space="preserve" style="white-space: pre" font-family="Pretendard" font-size="28.0388" letter-spacing="-0.876213px"><tspan x="756.26" y="108.375">&#xae30;&#xd0c0;</tspan></text>
<text fill="#1D1D1B" xml:space="preserve" style="white-space: pre" font-family="Pretendard" font-size="28.0388" letter-spacing="-0.876213px"><tspan x="886.434" y="108.375">&#xd569;&#xacc4;</tspan></text>
<path d="M326.985 203.239V134.08" stroke="#DADADA" stroke-width="1.52176" stroke-miterlimit="10"/>
<path d="M456.49 203.239V134.08" stroke="#DADADA" stroke-width="1.52176" stroke-miterlimit="10"/>
<path d="M585.99 203.239V134.08" stroke="#DADADA" stroke-width="1.52176" stroke-miterlimit="10"/>
<path d="M715.495 203.239V134.08" stroke="#DADADA" stroke-width="1.52176" stroke-miterlimit="10"/>
<path d="M844.997 203.239V134.08" stroke="#DADADA" stroke-width="1.52176" stroke-miterlimit="10"/>
<text fill="#1D1D1B" xml:space="preserve" style="white-space: pre" font-family="Pretendard" font-size="28.0388" font-weight="bold" letter-spacing="-0.876213px"><tspan x="240.551" y="177.684">40</tspan></text>
<text fill="#1D1D1B" xml:space="preserve" style="white-space: pre" font-family="Pretendard" font-size="28.0388" font-weight="bold" letter-spacing="-0.876213px"><tspan x="371.234" y="177.842">25</tspan></text>
<text fill="#1D1D1B" xml:space="preserve" style="white-space: pre" font-family="Pretendard" font-size="28.0388" font-weight="bold" letter-spacing="-0.876213px"><tspan x="501.883" y="177.842">20</tspan></text>
<text fill="#1D1D1B" xml:space="preserve" style="white-space: pre" font-family="Pretendard" font-size="28.0388" font-weight="bold" letter-spacing="-0.876213px"><tspan x="630.778" y="177.842">10</tspan></text>
<text fill="#1D1D1B" xml:space="preserve" style="white-space: pre" font-family="Pretendard" font-size="28.0388" font-weight="bold" letter-spacing="-0.876213px"><tspan x="771.072" y="177.842">5</tspan></text>
<text fill="#1D1D1B" xml:space="preserve" style="white-space: pre" font-family="Pretendard" font-size="28.0388" font-weight="bold" letter-spacing="-0.876213px"><tspan x="888.569" y="177.842">100</tspan></text>
<path d="M197.485 202.473H947.82C951.229 202.481 954.606 201.816 957.758 200.515C960.909 199.215 963.774 197.304 966.187 194.894C968.6 192.484 970.515 189.62 971.821 186.468C973.128 183.315 973.8 179.936 973.8 176.523V134.168" stroke="#DADADA" stroke-width="1.52176"/>
</g>
<text fill="#1D1D1B" xml:space="preserve" style="white-space: pre" font-family="Pretendard" font-size="28.0388" font-weight="bold" letter-spacing="-0.876213px"><tspan x="0.5" y="285.816">0</tspan></text>
<text fill="#1D1D1B" xml:space="preserve" style="white-space: pre" font-family="Pretendard" font-size="28.0388" font-weight="bold" letter-spacing="-0.876213px"><tspan x="83.7715" y="285.816">10</tspan></text>
<text fill="#1D1D1B" xml:space="preserve" style="white-space: pre" font-family="Pretendard" font-size="28.0388" font-weight="bold" letter-spacing="-0.876213px"><tspan x="175.809" y="285.816">20</tspan></text>
<text fill="#1D1D1B" xml:space="preserve" style="white-space: pre" font-family="Pretendard" font-size="28.0388" font-weight="bold" letter-spacing="-0.876213px"><tspan x="268.722" y="285.816">30</tspan></text>
<text fill="#1D1D1B" xml:space="preserve" style="white-space: pre" font-family="Pretendard" font-size="28.0388" font-weight="bold" letter-spacing="-0.876213px"><tspan x="361.636" y="285.816">40</tspan></text>
<text fill="#1D1D1B" xml:space="preserve" style="white-space: pre" font-family="Pretendard" font-size="28.0388" font-weight="bold" letter-spacing="-0.876213px"><tspan x="453.674" y="285.816">50</tspan></text>
<text fill="#1D1D1B" xml:space="preserve" style="white-space: pre" font-family="Pretendard" font-size="28.0388" font-weight="bold" letter-spacing="-0.876213px"><tspan x="545.71" y="285.816">60</tspan></text>
<text fill="#1D1D1B" xml:space="preserve" style="white-space: pre" font-family="Pretendard" font-size="28.0388" font-weight="bold" letter-spacing="-0.876213px"><tspan x="637.747" y="285.816">70</tspan></text>
<text fill="#1D1D1B" xml:space="preserve" style="white-space: pre" font-family="Pretendard" font-size="28.0388" font-weight="bold" letter-spacing="-0.876213px"><tspan x="729.784" y="285.816">80</tspan></text>
<text fill="#1D1D1B" xml:space="preserve" style="white-space: pre" font-family="Pretendard" font-size="28.0388" font-weight="bold" letter-spacing="-0.876213px"><tspan x="821.82" y="285.816">90</tspan></text>
<text fill="#1D1D1B" xml:space="preserve" style="white-space: pre" font-family="Pretendard" font-size="28.0388" font-weight="bold" letter-spacing="-0.876213px"><tspan x="899.833" y="285.816">100(%)</tspan></text>
<path d="M377.414 327.546H9.26562V433.57H377.414V327.546Z" fill="#FDE8DF"/>
<path d="M378.897 327.447V433.82" stroke="#706F6F" stroke-width="1.25083" stroke-linejoin="bevel"/>
<path d="M932.224 289.972V314.789H10.0107V289.972" stroke="#1D1D1B" stroke-width="1.25083" stroke-linejoin="bevel"/>
<path d="M102.231 314.788V289.972" stroke="#1D1D1B" stroke-width="1.25083" stroke-linejoin="bevel"/>
<path d="M194.455 314.788V289.972" stroke="#1D1D1B" stroke-width="1.25083" stroke-linejoin="bevel"/>
<path d="M286.676 314.788V289.972" stroke="#1D1D1B" stroke-width="1.25083" stroke-linejoin="bevel"/>
<path d="M378.897 314.788V289.972" stroke="#1D1D1B" stroke-width="1.25083" stroke-linejoin="bevel"/>
<path d="M471.117 314.788V289.972" stroke="#1D1D1B" stroke-width="1.25083" stroke-linejoin="bevel"/>
<path d="M563.339 314.788V289.972" stroke="#1D1D1B" stroke-width="1.25083" stroke-linejoin="bevel"/>
<path d="M655.562 314.788V289.972" stroke="#1D1D1B" stroke-width="1.25083" stroke-linejoin="bevel"/>
<path d="M747.781 314.788V289.972" stroke="#1D1D1B" stroke-width="1.25083" stroke-linejoin="bevel"/>
<path d="M840.004 314.788V289.972" stroke="#1D1D1B" stroke-width="1.25083" stroke-linejoin="bevel"/>
<path d="M56.1348 314.789V297.052" stroke="#1D1D1B" stroke-width="0.750501" stroke-linejoin="bevel"/>
<path d="M148.355 314.789V297.052" stroke="#1D1D1B" stroke-width="0.750501" stroke-linejoin="bevel"/>
<path d="M240.577 314.789V297.052" stroke="#1D1D1B" stroke-width="0.750501" stroke-linejoin="bevel"/>
<path d="M332.8 314.789V297.052" stroke="#1D1D1B" stroke-width="0.750501" stroke-linejoin="bevel"/>
<path d="M425.021 314.789V297.052" stroke="#1D1D1B" stroke-width="0.750501" stroke-linejoin="bevel"/>
<path d="M517.24 314.789V297.052" stroke="#1D1D1B" stroke-width="0.750501" stroke-linejoin="bevel"/>
<path d="M609.463 314.789V297.052" stroke="#1D1D1B" stroke-width="0.750501" stroke-linejoin="bevel"/>
<path d="M701.684 314.789V297.052" stroke="#1D1D1B" stroke-width="0.750501" stroke-linejoin="bevel"/>
<path d="M793.907 314.789V297.052" stroke="#1D1D1B" stroke-width="0.750501" stroke-linejoin="bevel"/>
<path d="M886.126 314.789V297.052" stroke="#1D1D1B" stroke-width="0.750501" stroke-linejoin="bevel"/>
<path d="M932.224 327.447H10.0107V433.82H932.224V327.447Z" stroke="#706F6F" stroke-width="1.25083"/>
<text fill="#1D1D1B" xml:space="preserve" style="white-space: pre" font-family="Pretendard" font-size="28.0388" letter-spacing="-0.876213px"><tspan x="169.744" y="369.934">&#xce5c;&#xad6c;&#10;</tspan><tspan x="156.546" y="411.992">(40%)</tspan></text>
<defs>
<clipPath id="clip0_7699_107528">
<rect width="954" height="204" fill="white" transform="translate(20.5)"/>
</clipPath>
</defs>
</svg>
