<svg width="1467" height="418" viewBox="0 0 1467 418" fill="none" xmlns="http://www.w3.org/2000/svg">
<g clip-path="url(#clip0_7726_74530)">
<path d="M233.615 117.153C229.439 117.153 225.434 118.814 222.481 121.771C219.528 124.727 217.869 128.737 217.869 132.918C217.869 137.099 219.528 141.109 222.481 144.066C225.434 147.022 229.439 148.683 233.615 148.683H721.382C725.558 148.683 729.563 147.022 732.516 144.066C735.469 141.109 737.128 137.099 737.128 132.918C737.128 128.737 735.469 124.727 732.516 121.771C729.563 118.814 725.558 117.153 721.382 117.153H233.615Z" fill="#D7DFF3"/>
<path d="M233.615 117.153C229.439 117.153 225.434 118.814 222.481 121.771C219.528 124.727 217.869 128.737 217.869 132.918C217.869 137.099 219.528 141.109 222.481 144.066C225.434 147.022 229.439 148.683 233.615 148.683H721.382C725.558 148.683 729.563 147.022 732.516 144.066C735.469 141.109 737.128 137.099 737.128 132.918C737.128 128.737 735.469 124.727 732.516 121.771C729.563 118.814 725.558 117.153 721.382 117.153H233.615Z" stroke="#D7DFF3" stroke-width="3.04351"/>
<path d="M251.088 109.638C244.626 109.638 238.429 112.208 233.859 116.783C229.29 121.358 226.723 127.562 226.723 134.032C226.723 140.502 229.29 146.707 233.859 151.282C238.429 155.857 244.626 158.427 251.088 158.427H704.286C710.748 158.427 716.946 155.857 721.515 151.282C726.084 146.707 728.652 140.502 728.652 134.032C728.652 127.562 726.084 121.358 721.515 116.783C716.946 112.208 710.748 109.638 704.286 109.638H251.088Z" fill="white"/>
<text fill="#504D7C" xml:space="preserve" style="white-space: pre" font-family="Pretendard" font-size="28.0388" font-weight="bold" letter-spacing="-0.876213px"><tspan x="310.898" y="144.15">&#xace0;&#xbbfc; &#xc0c1;&#xb2f4; &#xb300;&#xc0c1;&#xbcc4; &#xd559;&#xc0dd; &#xc218;&#xc758; &#xbe44;&#xc728;</tspan></text>
<path d="M250.854 108.523C244.392 108.523 238.194 111.094 233.625 115.668C229.055 120.243 226.488 126.448 226.488 132.918C226.488 139.388 229.055 145.593 233.625 150.168C238.194 154.743 244.392 157.313 250.854 157.313H704.052C710.514 157.313 716.711 154.743 721.281 150.168C725.85 145.593 728.417 139.388 728.417 132.918C728.417 126.448 725.85 120.243 721.281 115.668C716.711 111.094 710.514 108.523 704.052 108.523H250.854Z" stroke="#D7DFF3" stroke-width="3.04351"/>
<path d="M26.3864 171.829C19.5228 171.837 12.9427 174.571 8.08946 179.43C3.23621 184.289 0.506107 190.877 0.498047 197.748L0.498047 285.051C0.498042 291.928 3.22458 298.523 8.07871 303.389C12.9328 308.255 19.5176 310.992 26.3864 311H173.158V171.829H26.3864Z" fill="#E4E9F7"/>
<path d="M9.11719 240.987H164.538" stroke="white" stroke-width="3.04351" stroke-miterlimit="10"/>
<text fill="#1D1D1B" xml:space="preserve" style="white-space: pre" font-family="Pretendard" font-size="28.0388" letter-spacing="-0.876213px"><tspan x="64.5078" y="217.134">&#xb300;&#xc0c1;</tspan></text>
<text fill="#1D1D1B" xml:space="preserve" style="white-space: pre" font-family="Pretendard" font-size="28.0388" letter-spacing="-0.876213px"><tspan x="32.0645" y="288.078">&#xbc31;&#xbd84;&#xc728;(%)</tspan></text>
<path d="M177.484 171.829V240.988H954.5V197.748C954.492 190.871 951.757 184.279 946.897 179.419C942.038 174.559 935.45 171.829 928.581 171.829H177.484Z" fill="#EFEEEE"/>
<path d="M306.984 232.329V180.46" stroke="white" stroke-width="3.04351" stroke-miterlimit="10"/>
<path d="M436.488 232.329V180.46" stroke="white" stroke-width="3.04351" stroke-miterlimit="10"/>
<path d="M565.99 232.329V180.46" stroke="white" stroke-width="3.04351" stroke-miterlimit="10"/>
<path d="M695.494 232.329V180.46" stroke="white" stroke-width="3.04351" stroke-miterlimit="10"/>
<path d="M824.996 232.329V180.46" stroke="white" stroke-width="3.04351" stroke-miterlimit="10"/>
<text fill="#1D1D1B" xml:space="preserve" style="white-space: pre" font-family="Pretendard" font-size="28.0388" letter-spacing="-0.876213px"><tspan x="214.553" y="215.375">&#xce5c;&#xad6c;</tspan></text>
<text fill="#1D1D1B" xml:space="preserve" style="white-space: pre" font-family="Pretendard" font-size="28.0388" letter-spacing="-0.876213px"><tspan x="334.344" y="215.375">&#xbd80;&#xbaa8;&#xb2d8;</tspan></text>
<text fill="#1D1D1B" xml:space="preserve" style="white-space: pre" font-family="Pretendard" font-size="28.0388" letter-spacing="-0.876213px"><tspan x="461.475" y="215.375">&#xc120;&#xb7;&#xd6c4;&#xbc30;</tspan></text>
<text fill="#1D1D1B" xml:space="preserve" style="white-space: pre" font-family="Pretendard" font-size="28.0388" letter-spacing="-0.876213px"><tspan x="606.422" y="215.375">&#xd615;&#xc81c;</tspan></text>
<text fill="#1D1D1B" xml:space="preserve" style="white-space: pre" font-family="Pretendard" font-size="28.0388" letter-spacing="-0.876213px"><tspan x="736.258" y="215.375">&#xae30;&#xd0c0;</tspan></text>
<text fill="#1D1D1B" xml:space="preserve" style="white-space: pre" font-family="Pretendard" font-size="28.0388" letter-spacing="-0.876213px"><tspan x="866.432" y="215.375">&#xd569;&#xacc4;</tspan></text>
<path d="M306.984 310.239V241.08" stroke="#DADADA" stroke-width="1.52176" stroke-miterlimit="10"/>
<path d="M436.488 310.239V241.08" stroke="#DADADA" stroke-width="1.52176" stroke-miterlimit="10"/>
<path d="M565.99 310.239V241.08" stroke="#DADADA" stroke-width="1.52176" stroke-miterlimit="10"/>
<path d="M695.494 310.239V241.08" stroke="#DADADA" stroke-width="1.52176" stroke-miterlimit="10"/>
<path d="M824.996 310.239V241.08" stroke="#DADADA" stroke-width="1.52176" stroke-miterlimit="10"/>
<text fill="#1D1D1B" xml:space="preserve" style="white-space: pre" font-family="Pretendard" font-size="28.0388" font-weight="bold" letter-spacing="-0.876213px"><tspan x="220.549" y="284.684">40</tspan></text>
<text fill="#1D1D1B" xml:space="preserve" style="white-space: pre" font-family="Pretendard" font-size="28.0388" font-weight="bold" letter-spacing="-0.876213px"><tspan x="351.234" y="284.842">25</tspan></text>
<text fill="#1D1D1B" xml:space="preserve" style="white-space: pre" font-family="Pretendard" font-size="28.0388" font-weight="bold" letter-spacing="-0.876213px"><tspan x="481.883" y="284.842">20</tspan></text>
<text fill="#1D1D1B" xml:space="preserve" style="white-space: pre" font-family="Pretendard" font-size="28.0388" font-weight="bold" letter-spacing="-0.876213px"><tspan x="610.777" y="284.842">10</tspan></text>
<text fill="#1D1D1B" xml:space="preserve" style="white-space: pre" font-family="Pretendard" font-size="28.0388" font-weight="bold" letter-spacing="-0.876213px"><tspan x="751.072" y="284.842">5</tspan></text>
<text fill="#1D1D1B" xml:space="preserve" style="white-space: pre" font-family="Pretendard" font-size="28.0388" font-weight="bold" letter-spacing="-0.876213px"><tspan x="868.568" y="284.842">100</tspan></text>
<path d="M177.484 309.473H927.819C931.228 309.481 934.605 308.816 937.757 307.515C940.908 306.215 943.773 304.304 946.186 301.894C948.599 299.484 950.514 296.62 951.82 293.468C953.127 290.315 953.799 286.936 953.799 283.523V241.168" stroke="#DADADA" stroke-width="1.52176"/>
</g>
<path d="M1260.44 42.8271V208.959L1358.03 343.37C1389.41 322.691 1412.81 277.348 1418.37 260.304C1423.88 243.752 1426.62 226.404 1426.48 208.959C1426.48 164.898 1408.98 122.642 1377.84 91.486C1346.71 60.3303 1304.47 42.8271 1260.44 42.8271Z" fill="#FCE8DF"/>
<path d="M1260.44 375.114V356.64" stroke="#13130A" stroke-width="1.75119" stroke-linejoin="bevel"/>
<path d="M1260.44 42.8271V208.959" stroke="#757173" stroke-width="1.75119" stroke-linejoin="bevel"/>
<path d="M1260.44 61.2784V42.8271" stroke="#13130A" stroke-width="1.75119" stroke-linejoin="bevel"/>
<path d="M1311.75 366.979L1306.06 349.419" stroke="#13130A" stroke-width="1.75119" stroke-linejoin="bevel"/>
<path d="M1214.84 68.5232L1209.12 50.9629" stroke="#13130A" stroke-width="1.75119" stroke-linejoin="bevel"/>
<path d="M1358.03 343.37L1347.21 328.436" stroke="#13130A" stroke-width="1.75119" stroke-linejoin="bevel"/>
<path d="M1173.69 89.4833L1162.84 74.5488" stroke="#13130A" stroke-width="1.75119" stroke-linejoin="bevel"/>
<path d="M1394.77 306.631L1379.85 295.776" stroke="#13130A" stroke-width="1.75119" stroke-linejoin="bevel"/>
<path d="M1141.03 122.166L1126.1 111.311" stroke="#13130A" stroke-width="1.75119" stroke-linejoin="bevel"/>
<path d="M1418.37 260.305L1400.82 254.607" stroke="#13130A" stroke-width="1.75119" stroke-linejoin="bevel"/>
<path d="M1120.06 163.335L1102.53 157.614" stroke="#13130A" stroke-width="1.75119" stroke-linejoin="bevel"/>
<path d="M1426.48 208.982H1408.04" stroke="#13130A" stroke-width="1.75119" stroke-linejoin="bevel"/>
<path d="M1112.84 208.959H1094.4" stroke="#13130A" stroke-width="1.75119" stroke-linejoin="bevel"/>
<path d="M1418.37 157.638L1400.82 163.335" stroke="#13130A" stroke-width="1.75119" stroke-linejoin="bevel"/>
<path d="M1120.06 254.607L1102.53 260.305" stroke="#13130A" stroke-width="1.75119" stroke-linejoin="bevel"/>
<path d="M1394.77 111.311L1379.85 122.166" stroke="#13130A" stroke-width="1.75119" stroke-linejoin="bevel"/>
<path d="M1141.03 295.776L1126.1 306.631" stroke="#13130A" stroke-width="1.75119" stroke-linejoin="bevel"/>
<path d="M1358.03 74.5488L1347.21 89.5068" stroke="#13130A" stroke-width="1.75119" stroke-linejoin="bevel"/>
<path d="M1173.67 328.458L1162.84 343.393" stroke="#13130A" stroke-width="1.75119" stroke-linejoin="bevel"/>
<path d="M1311.75 50.9629L1306.06 68.5232" stroke="#13130A" stroke-width="1.75119" stroke-linejoin="bevel"/>
<path d="M1214.82 349.441L1209.12 366.978" stroke="#13130A" stroke-width="1.75119" stroke-linejoin="bevel"/>
<path d="M1260.44 208.959L1358.03 343.393" stroke="#757173" stroke-width="1.75119" stroke-linejoin="bevel"/>
<path d="M1426.5 208.959C1426.5 241.822 1416.77 273.949 1398.52 301.276C1380.28 328.603 1354.35 349.904 1324 362.483C1293.66 375.063 1260.27 378.356 1228.06 371.948C1195.84 365.539 1166.25 349.716 1143.02 326.48C1119.8 303.244 1103.98 273.638 1097.57 241.406C1091.16 209.175 1094.45 175.765 1107.02 145.403C1119.58 115.041 1140.87 89.0894 1168.18 70.831C1195.49 52.5726 1227.59 42.8271 1260.44 42.8271C1304.48 42.8271 1346.71 60.3295 1377.85 91.4846C1409 122.64 1426.49 164.896 1426.5 208.959Z" stroke="#757173" stroke-width="1.75119" stroke-linejoin="bevel"/>
<text fill="#1D1D1B" xml:space="preserve" style="white-space: pre" font-family="Pretendard" font-size="28.0388" font-weight="bold" letter-spacing="-0.876213px"><tspan x="1319.21" y="178.996">&#xce5c;&#xad6c;&#10;</tspan><tspan x="1301.9" y="221.054">(40%)</tspan></text>
<text fill="#1D1D1B" xml:space="preserve" style="white-space: pre" font-family="Pretendard" font-size="28.0388" font-weight="bold" letter-spacing="-0.876213px"><tspan x="1432.59" y="219.996">25</tspan></text>
<text fill="#1D1D1B" xml:space="preserve" style="white-space: pre" font-family="Pretendard" font-size="28.0388" font-weight="bold" letter-spacing="-0.876213px"><tspan x="1055.72" y="219.996">75</tspan></text>
<text fill="#1D1D1B" xml:space="preserve" style="white-space: pre" font-family="Pretendard" font-size="28.0388" font-weight="bold" letter-spacing="-0.876213px"><tspan x="1250.75" y="30.996">0</tspan></text>
<text fill="#1D1D1B" xml:space="preserve" style="white-space: pre" font-family="Pretendard" font-size="28.0388" font-weight="bold" letter-spacing="-0.876213px"><tspan x="1242.89" y="405.996">50</tspan></text>
<defs>
<clipPath id="clip0_7726_74530">
<rect width="954" height="204" fill="white" transform="translate(0.5 107)"/>
</clipPath>
</defs>
</svg>
