<svg width="176" height="176" viewBox="0 0 176 176" fill="none" xmlns="http://www.w3.org/2000/svg">
<path d="M48.4107 115.368C48.2236 106.399 44.011 103.293 38.7135 103.051L41.121 98.8808C41.121 98.8808 45.2916 95.915 45.4513 91.3899C45.6023 87.1115 38.4151 75.4759 38.4151 75.4759C32.4424 81.0067 31.9458 81.0901 29.2699 87.0638C19.2353 101.833 23.8766 112.817 26.3604 116.679C40.5288 129.496 47.2126 118 48.4107 115.368Z" fill="#FF8C78"/>
<path d="M58.7341 145.695L58.5063 122.799L84.2418 134.378L84.3994 150.215C84.3994 158.404 71.5222 158.551 65.2215 158.799C50.6706 158.799 48.3993 155.453 48.3994 152.475C48.3994 147.711 55.2866 145.943 58.7341 145.695Z" fill="#FF8C78" stroke="black" stroke-width="2.4" stroke-linecap="round" stroke-linejoin="round"/>
<path d="M117.265 145.695L117.493 122.799L91.757 134.378L91.5994 150.215C91.5994 158.404 104.477 158.551 110.777 158.799C125.328 158.799 127.599 155.453 127.599 152.475C127.599 147.711 120.712 145.943 117.265 145.695Z" fill="#FF8C78" stroke="black" stroke-width="2.4" stroke-linecap="round" stroke-linejoin="round"/>
<path d="M84.3988 141.998C71.6788 135.196 62.9488 135.958 58.2988 135.315V126.998C65.6188 133.057 78.7488 135.958 84.3988 136.652V141.998Z" fill="black"/>
<path d="M91.5992 141.998C104.319 135.196 113.049 135.958 117.699 135.315V126.998C110.379 133.057 97.2492 135.958 91.5992 136.652V141.998Z" fill="black"/>
<circle cx="88" cy="85" r="51" fill="#FF8C78" stroke="black" stroke-width="2.4"/>
<path d="M83.2012 108.1C84.5396 108.866 89.0058 109.668 92.8012 108.1" stroke="black" stroke-width="3.07896" stroke-linecap="round"/>
<mask id="mask0_7070_88685" style="mask-type:alpha" maskUnits="userSpaceOnUse" x="61" y="75" width="54" height="29">
<path fill-rule="evenodd" clip-rule="evenodd" d="M88.0004 103.898C104.127 103.898 111.99 93.5861 114.054 80.0669C114.445 77.5091 112.298 75.3984 109.697 75.3984H66.3035C63.7025 75.3984 61.556 77.5091 61.9465 80.0669C64.0105 93.5861 71.8735 103.898 88.0004 103.898Z" fill="#D9D9D9"/>
</mask>
<g mask="url(#mask0_7070_88685)">
<path fill-rule="evenodd" clip-rule="evenodd" d="M88.0004 103.898C104.127 103.898 111.99 93.5861 114.054 80.0669C114.445 77.5091 112.298 75.3984 109.697 75.3984H66.3035C63.7025 75.3984 61.556 77.5091 61.9465 80.0669C64.0105 93.5861 71.8735 103.898 88.0004 103.898Z" fill="black"/>
<ellipse cx="88.0002" cy="100.598" rx="28.8" ry="15" fill="#464646"/>
<path d="M88.0008 96.3984C85.6383 96.3984 85.3008 99.0064 85.3008 100.898H90.7008C90.7008 99.0064 90.2669 96.4496 88.0008 96.3984Z" fill="white"/>
<path d="M79.6004 96.3984C77.2379 96.3984 76.9004 99.0064 76.9004 100.898H82.3004C82.3004 99.0064 81.8665 96.4496 79.6004 96.3984Z" fill="white"/>
<path d="M96.4004 96.3984C94.0379 96.3984 93.7004 99.0064 93.7004 100.898H99.1004C99.1004 99.0064 98.6665 96.4496 96.4004 96.3984Z" fill="white"/>
<path d="M88.0008 82.8984C85.6383 82.8984 85.3008 80.2905 85.3008 78.3984H90.7008C90.7008 80.2905 90.2669 82.8473 88.0008 82.8984Z" fill="white"/>
<path d="M79.6004 82.8984C77.2379 82.8984 76.9004 80.2905 76.9004 78.3984H82.3004C82.3004 80.2905 81.8665 82.8473 79.6004 82.8984Z" fill="white"/>
<path d="M96.4004 82.8984C94.0379 82.8984 93.7004 80.2905 93.7004 78.3984H99.1004C99.1004 80.2905 98.6665 82.8473 96.4004 82.8984Z" fill="white"/>
<path d="M112.571 79.8405C111.571 86.391 109.187 92.0181 105.237 95.9953C101.315 99.9434 95.7186 102.398 88.0004 102.398C80.2822 102.398 74.686 99.9434 70.7641 95.9953C66.8133 92.0181 64.4294 86.391 63.4293 79.8405C63.2023 78.3537 64.4483 76.8984 66.3035 76.8984H109.697C111.552 76.8984 112.798 78.3537 112.571 79.8405Z" stroke="black" stroke-width="3"/>
</g>
<circle cx="79.6002" cy="68.1988" r="2.4" fill="black"/>
<circle cx="96.4002" cy="68.1988" r="2.4" fill="black"/>
<path d="M100.3 89.7988H146.5V140.799H100.3V89.7988Z" fill="white" stroke="black" stroke-width="2.4"/>
<circle cx="123" cy="115" r="12.6" stroke="#3B71FE" stroke-width="2.8"/>
<path d="M135.992 75.2205C141.863 79.1355 143.787 86.4907 140.29 91.6486C136.792 96.8066 129.197 97.8142 123.325 93.8991C117.454 89.9841 116.608 82.6519 120.105 77.4939C123.603 72.336 130.12 71.3054 135.992 75.2205Z" fill="#FF8C78"/>
<path d="M120.565 92.0942C115.643 85.7244 117.557 75.8689 124.607 73.4094C131.057 71.1591 135.606 73.0505 139.157 77.7591C143.328 83.2894 144.028 90.7049 136.864 95.3305C129.7 99.9562 123.385 95.7421 120.565 92.0942Z" stroke="black" stroke-width="2.4" stroke-linecap="round"/>
<path d="M27.4318 103.948C23.645 109.903 24.8593 117.408 30.1441 120.711C35.4289 124.014 42.7828 121.864 46.5696 115.909C50.3564 109.954 48.1652 102.906 42.8805 99.6031C37.5957 96.3001 31.2186 97.9929 27.4318 103.948Z" fill="#FF8C78"/>
<path d="M36.7475 98.7312C43.6261 96.8299 50.2909 105.325 48.3645 113.141C47.2612 117.618 43.1893 124.026 34.7667 122.692C26.3442 121.358 19.9581 111.308 23.5671 97.6426C27.4293 86.2381 33.9283 81.2325 37.4367 77.7132" stroke="black" stroke-width="2.4" stroke-linecap="round"/>
<path d="M38.002 85.5253C31.9575 85.9686 32.312 91.2164 33.2448 93.785C37.5498 112.042 37.3809 115.812 44.1206 117.147C59.1135 118.056 59.69 108.172 59.2795 103.74C58.4306 94.5744 56.2572 91.9898 53.9506 90.4999C49.6732 88.0442 46.4308 90.3984 44.3498 91.838C44.2359 91.9168 44.0791 91.8482 44.0514 91.7125C42.9962 86.5456 39.4365 85.5019 38.002 85.5253Z" fill="#FF8C78" stroke="black" stroke-width="2.4"/>
</svg>
