<svg width="153" height="72" viewBox="0 0 153 72" fill="none" xmlns="http://www.w3.org/2000/svg">
<g style="mix-blend-mode:multiply" opacity="0.5">
<mask id="mask0_105_2072" style="mask-type:luminance" maskUnits="userSpaceOnUse" x="0" y="0" width="153" height="72">
<path d="M152.023 0H0.0761719V72H152.023V0Z" fill="white"/>
</mask>
<g mask="url(#mask0_105_2072)">
<path d="M147.216 16.7687C148.487 13.9476 146.977 11.484 143.878 11.325L12.8315 4.45087C9.73215 4.29193 7.0699 6.67603 6.91096 9.77537L4.56659 54.835C4.40765 57.9343 6.79175 60.5966 9.89109 60.7555L140.937 67.6297C144.037 67.7886 145.785 65.5237 144.831 62.5833L138.951 44.5833C137.997 41.6429 138.235 36.9144 139.507 34.0932L147.216 16.8085V16.7687Z" fill="#D1D3D4"/>
</g>
</g>
<path d="M141.497 12.0389C143.563 7.50914 141.219 3.85352 136.252 3.85352H9.01987C4.01324 3.85352 0 7.86676 0 12.8734V51.178C0 56.1449 4.01324 60.1979 9.01987 60.1979H141.298C143.483 60.1979 144.517 58.5687 143.603 56.582L135.656 39.2575C133.828 35.284 133.828 28.8072 135.656 24.7939L141.497 12.0389Z" fill="#FBB785"/>
<path d="M12.5157 25.7081C14.3832 25.7081 15.8932 24.1982 15.8932 22.3306C15.8932 20.4631 14.3832 18.9531 12.5157 18.9531C10.6481 18.9531 9.13818 20.4631 9.13818 22.3306C9.13818 24.1982 10.6481 25.7081 12.5157 25.7081Z" fill="white"/>
<path d="M12.5157 44.8604C14.3832 44.8604 15.8932 43.3505 15.8932 41.4829C15.8932 39.6154 14.3832 38.1055 12.5157 38.1055C10.6481 38.1055 9.13818 39.6154 9.13818 41.4829C9.13818 43.3505 10.6481 44.8604 12.5157 44.8604Z" fill="white"/>
</svg>
