<svg width="194" height="80" viewBox="0 0 194 80" fill="none" xmlns="http://www.w3.org/2000/svg">
<g clip-path="url(#clip0_9373_50911)">
<path d="M193.212 39.91C193.212 17.8588 175.419 0 153.434 0C142.309 0 132.241 4.62151 125.012 12.0159C117.782 4.62151 107.747 0 96.5893 0C85.4317 0 75.3964 4.62151 68.1671 12.0159C60.9707 4.62151 50.9025 0 39.7778 0C17.7927 0 -0.00012207 17.8588 -0.00012207 39.91C-0.00012207 61.9612 17.7927 79.82 39.7778 79.82C50.9025 79.82 60.9707 75.1985 68.2001 67.8041C75.4294 75.1985 85.4647 79.82 96.6224 79.82C107.78 79.82 117.815 75.1985 125.045 67.8041C132.274 75.1985 142.309 79.82 153.467 79.82C175.419 79.82 193.245 61.9612 193.245 39.91" fill="#FBB785"/>
<path d="M161.853 62.2915L163.536 66.4178" stroke="#FEE0C8" stroke-width="4.95161" stroke-linecap="round" stroke-linejoin="round"/>
<path d="M177.301 48.1626L181.328 50.5064" stroke="#FEE0C8" stroke-width="4.95161" stroke-linecap="round" stroke-linejoin="round"/>
<path d="M170.37 56.5806L173.836 60.6079" stroke="#FEE0C8" stroke-width="4.95161" stroke-linecap="round" stroke-linejoin="round"/>
</g>
<defs>
<clipPath id="clip0_9373_50911">
<rect width="193.212" height="79.82" fill="white"/>
</clipPath>
</defs>
</svg>
