<svg width="40" height="41" viewBox="0 0 40 41" fill="none" xmlns="http://www.w3.org/2000/svg">
<path fill-rule="evenodd" clip-rule="evenodd" d="M12 6.5C9.79086 6.5 8 8.29086 8 10.5V30.5C8 32.7091 9.79086 34.5 12 34.5H29C31.2091 34.5 33 32.7091 33 30.5V10.5C33 8.29086 31.2091 6.5 29 6.5H12ZM13.5 9.5C12.3954 9.5 11.5 10.3954 11.5 11.5V13.5C11.5 14.6046 12.3954 15.5 13.5 15.5H27.5C28.6046 15.5 29.5 14.6046 29.5 13.5V11.5C29.5 10.3954 28.6046 9.5 27.5 9.5H13.5ZM14.5 19.9502C14.5 20.7786 13.8284 21.4502 13 21.4502C12.1716 21.4502 11.5 20.7786 11.5 19.9502C11.5 19.1218 12.1716 18.4502 13 18.4502C13.8284 18.4502 14.5 19.1218 14.5 19.9502ZM28 21.4502C28.8284 21.4502 29.5 20.7786 29.5 19.9502C29.5 19.1218 28.8284 18.4502 28 18.4502C27.1716 18.4502 26.5 19.1218 26.5 19.9502C26.5 20.7786 27.1716 21.4502 28 21.4502ZM22 19.9502C22 20.7786 21.3284 21.4502 20.5 21.4502C19.6716 21.4502 19 20.7786 19 19.9502C19 19.1218 19.6716 18.4502 20.5 18.4502C21.3284 18.4502 22 19.1218 22 19.9502ZM13 26.4502C13.8284 26.4502 14.5 25.7786 14.5 24.9502C14.5 24.1218 13.8284 23.4502 13 23.4502C12.1716 23.4502 11.5 24.1218 11.5 24.9502C11.5 25.7786 12.1716 26.4502 13 26.4502ZM29.5 24.9502C29.5 25.7786 28.8284 26.4502 28 26.4502C27.1716 26.4502 26.5 25.7786 26.5 24.9502C26.5 24.1218 27.1716 23.4502 28 23.4502C28.8284 23.4502 29.5 24.1218 29.5 24.9502ZM28 31.2412C28.8284 31.2412 29.5 30.5696 29.5 29.7412C29.5 28.9128 28.8284 28.2412 28 28.2412C27.1716 28.2412 26.5 28.9128 26.5 29.7412C26.5 30.5696 27.1716 31.2412 28 31.2412ZM22 24.9502C22 25.7786 21.3284 26.4502 20.5 26.4502C19.6716 26.4502 19 25.7786 19 24.9502C19 24.1218 19.6716 23.4502 20.5 23.4502C21.3284 23.4502 22 24.1218 22 24.9502ZM13 28.2412C12.1716 28.2412 11.5 28.9128 11.5 29.7412C11.5 30.5696 12.1716 31.2412 13 31.2412H21C21.8284 31.2412 22.5 30.5696 22.5 29.7412C22.5 28.9128 21.8284 28.2412 21 28.2412H13Z" fill="url(#paint0_linear_6596_2669)"/>
<defs>
<linearGradient id="paint0_linear_6596_2669" x1="8" y1="20.5" x2="33" y2="20.5" gradientUnits="userSpaceOnUse">
<stop stop-color="#3B71FE"/>
<stop offset="1" stop-color="#07BBA9"/>
</linearGradient>
</defs>
</svg>
