<svg width="480" height="480" viewBox="0 0 480 480" fill="none" xmlns="http://www.w3.org/2000/svg">
<mask id="mask0_135_2869" style="mask-type:alpha" maskUnits="userSpaceOnUse" x="0" y="0" width="480" height="480">
<rect width="480" height="480" fill="#D9D9D9"/>
</mask>
<g mask="url(#mask0_135_2869)">
<path d="M346.235 86.9402C342.312 109.096 355.912 116.877 365.065 123.873L342.133 146.624L345.539 200.655C362.903 189.956 373.267 178.697 382.755 165.303C402.661 137.203 405.216 105.164 401.006 94.4529C372.488 56.02 351.81 72.3669 346.235 86.9402Z" fill="#2AC4A4"/>
<path d="M128.825 272.78C127.097 250.346 116.387 247.987 105.779 243.495L110.959 220.982L101.132 162.486C86.9857 177.178 79.758 190.667 73.9111 206.004C61.6445 238.182 67.1622 269.846 73.9111 279.168C111.115 309.272 127.061 288.283 128.825 272.78Z" fill="#2AC4A4"/>
<path d="M284.642 422.138L285.053 280.062L240.735 303.409V432.799C240.735 451.435 259.278 451.396 270.66 451.961C296.947 451.961 301.05 444.346 301.05 437.569C301.05 426.726 290.87 422.703 284.642 422.138Z" fill="#2AC4A4" stroke="#0A0508" stroke-width="6.03153" stroke-linecap="round" stroke-linejoin="round"/>
<path d="M172.701 422.138L172.289 280.062L216.608 303.409V432.799C216.608 451.435 198.065 451.396 186.682 451.961C160.396 451.961 156.293 444.346 156.293 437.569C156.293 426.726 166.473 422.703 172.701 422.138Z" fill="#2AC4A4" stroke="#0A0508" stroke-width="6.03153" stroke-linecap="round" stroke-linejoin="round"/>
<circle cx="228.673" cy="179.79" r="128.17" fill="#2AC4A4" stroke="black" stroke-width="6.03153"/>
<circle cx="206.807" cy="117.966" r="6.03153" fill="black"/>
<circle cx="249.029" cy="117.966" r="6.03153" fill="black"/>
<path d="M223.394 118.723L233.949 118.723" stroke="black" stroke-width="6.03153" stroke-linecap="round"/>
<circle cx="199.268" cy="117.968" r="24.1261" stroke="black" stroke-width="6.03153"/>
<circle cx="199.268" cy="117.968" r="24.1261" stroke="black" stroke-width="6.03153"/>
<circle cx="258.075" cy="117.968" r="24.1261" stroke="black" stroke-width="6.03153"/>
<circle cx="258.075" cy="117.968" r="24.1261" stroke="black" stroke-width="6.03153"/>
<path d="M261.091 166.219C248.431 174.426 228.672 173.745 228.672 173.745C228.672 173.745 208.913 174.426 196.252 166.219" stroke="black" stroke-width="6.03153" stroke-linecap="round"/>
<path d="M387.498 58.6746L389.006 56.0629L386.394 54.555L378.559 50.0313L375.947 48.5235L374.439 51.1352L337.496 115.123C336.369 117.075 335.88 119.285 336.129 121.347C336.377 123.411 337.414 125.522 339.502 126.727C341.59 127.933 343.936 127.775 345.848 126.958C347.758 126.142 349.427 124.615 350.555 122.662L387.498 58.6746Z" fill="#6A6A6A" stroke="black" stroke-width="6.03153"/>
<path d="M377.463 45.898L375.193 49.8295C374.152 51.6325 374.77 53.9381 376.573 54.979L383.102 58.7487C384.905 59.7897 387.21 59.1719 388.251 57.3689L390.521 53.4374C390.783 52.9844 390.956 52.4688 391.063 52.1301C391.189 51.7278 391.313 51.2648 391.433 50.78C391.673 49.8066 391.924 48.6162 392.167 47.3848C392.654 44.915 393.129 42.1532 393.428 40.3613C393.999 36.9303 390.019 34.6322 387.334 36.8429C385.931 37.9975 383.777 39.7897 381.881 41.4462C380.936 42.2722 380.031 43.0855 379.308 43.7798C378.948 44.1257 378.609 44.4646 378.324 44.7753C378.084 45.0368 377.724 45.445 377.463 45.898Z" fill="white" stroke="black" stroke-width="6.03153" stroke-linejoin="round"/>
<path d="M403.618 110.375C398.125 113.638 385.532 122.348 376.063 125.496L360.9 119.641L345.975 108.39C341.205 94.2977 343.682 67.8834 377.248 71.2285C384.277 73.0392 392.7 74.1955 401.152 100.385L403.618 110.375Z" fill="#2AC4A4"/>
<path d="M373.407 125.602C365.652 125.013 344.942 116.051 343.72 98.9157C343.021 89.1027 347.049 73.4453 364.915 70.718C382.782 67.9906 402.236 84.299 403.885 114.413C404.655 128.461 392.149 159.517 368.022 183.285C363.542 187.699 359.663 191.502 356.289 194.867" stroke="black" stroke-width="6.03153" stroke-linecap="round"/>
<path d="M363.253 122.867C362.483 126.101 357.102 134.627 350.811 138.651" stroke="black" stroke-width="6.03153"/>
<rect width="72.3783" height="90.4729" rx="3.29446" transform="matrix(-0.285322 -0.958432 0.958445 -0.285277 98.3733 348.426)" fill="#444444" stroke="black" stroke-width="6.03153"/>
<circle cx="152.9" cy="275.083" r="4.52364" transform="rotate(103.422 152.9 275.083)" fill="black"/>
<circle cx="140.325" cy="279.058" r="4.52364" transform="rotate(103.422 140.325 279.058)" fill="black"/>
<path d="M67.967 266.537C72.4723 262.007 82.4949 250.431 90.8797 245.021L107.024 246.908L124.283 254.08C132.418 266.537 136.608 292.734 103.269 297.868C96.0105 297.868 87.5649 298.849 72.8477 275.597L67.967 266.537Z" fill="#2AC4A4"/>
<path d="M93.4263 244.256C101.083 242.892 123.374 246.405 128.832 262.693C131.957 272.022 131.962 288.189 115.341 295.287C98.7193 302.385 75.8121 291.445 66.7027 262.694C62.4532 249.283 66.8168 216.089 84.252 187.053C93.9711 170.867 99.8131 161.36 103.139 153.401" stroke="black" stroke-width="6.03153" stroke-linecap="round"/>
<path d="M109.72 231.055C107.835 233.316 105.951 241.233 108.589 246.133" stroke="black" stroke-width="6.03153"/>
</g>
</svg>
