<svg width="176" height="176" viewBox="0 0 176 176" fill="none" xmlns="http://www.w3.org/2000/svg">
<g clip-path="url(#clip0_7070_88771)">
<path d="M52.1601 63.2655C46.7186 70.3973 41.4844 70.4211 37.0644 67.4911L37.0644 71.0514C37.0644 71.0514 39.6046 77.9531 37.0644 81.7014C34.6626 85.2453 39.8503 102.551 39.8503 102.551C22.7503 98.3514 18.6451 81.2328 20.0081 74.8306C20.617 56.9853 30.8439 50.8537 35.1276 49.2003C54.1291 47.2079 52.7453 60.4331 52.1601 63.2655Z" fill="#FF8C78"/>
<path d="M123.841 63.2655C129.283 70.3973 134.517 70.4211 138.937 67.4911L138.937 71.0514C138.937 71.0514 136.397 77.9531 138.937 81.7014C141.339 85.2453 136.151 102.551 136.151 102.551C153.251 98.3514 157.356 81.2328 155.993 74.8306C155.384 56.9853 145.158 50.8537 140.874 49.2003C121.872 47.2079 123.256 60.4331 123.841 63.2655Z" fill="#FF8C78"/>
<path d="M58.7351 145.695L58.5072 122.799L84.2428 134.378L84.4004 150.215C84.4004 158.404 71.5231 158.551 65.2225 158.799C50.6715 158.799 48.4003 155.453 48.4004 152.475C48.4004 147.711 55.2876 145.943 58.7351 145.695Z" fill="#FF8C78" stroke="black" stroke-width="2.4" stroke-linecap="round" stroke-linejoin="round"/>
<path d="M117.266 145.695L117.494 122.799L91.7582 134.378L91.6006 150.215C91.6006 158.404 104.478 158.551 110.779 158.799C125.329 158.799 127.601 155.453 127.601 152.475C127.601 147.711 120.713 145.943 117.266 145.695Z" fill="#FF8C78" stroke="black" stroke-width="2.4" stroke-linecap="round" stroke-linejoin="round"/>
<path d="M84.4008 141.998C71.6808 135.196 62.9508 135.958 58.3008 135.315V126.998C65.6208 133.057 78.7508 135.958 84.4008 136.652V141.998Z" fill="black"/>
<path d="M91.6002 141.998C104.32 135.196 113.05 135.958 117.7 135.315V126.998C110.38 133.057 97.2502 135.958 91.6002 136.652V141.998Z" fill="black"/>
<circle cx="88" cy="85" r="51" fill="#FF8C78" stroke="black" stroke-width="2.4"/>
<circle cx="79.5992" cy="68.1988" r="2.4" fill="black"/>
<circle cx="96.399" cy="68.1988" r="2.4" fill="black"/>
<path d="M100.9 85C100.9 85 95.4378 82 87.9996 82C80.5614 82 75.0996 85 75.0996 85" stroke="black" stroke-width="2.4" stroke-linecap="round"/>
<path d="M28.4832 60.1146C28.938 53.0723 34.3456 47.7282 40.5614 48.1784C46.7771 48.6285 54.5556 52.1603 54.1008 59.2027C53.646 66.245 44.6109 73.1859 38.3951 72.7357C32.1793 72.2856 28.0283 67.157 28.4832 60.1146Z" fill="#FF8C78"/>
<path d="M32.9285 69.8221C37.3615 75.4149 47.7542 72.4866 50.8093 65.0386C51.6319 63.0332 55.1764 60.2958 54.7339 57.5537C54.2353 54.4635 49.4831 51.3672 45.4628 49.3055C37.8749 45.4142 26.79 49.7625 21.6432 62.9265C20.5789 65.8955 19.8048 70.4705 19.8576 75.7813C19.8221 83.2054 23.8311 98.9836 40.1511 102.704" stroke="black" stroke-width="2.4" stroke-linecap="round"/>
<path d="M147.518 60.1146C147.063 53.0723 141.656 47.7282 135.44 48.1784C129.224 48.6285 121.446 52.1603 121.901 59.2027C122.356 66.245 131.391 73.1859 137.606 72.7357C143.822 72.2856 147.973 67.157 147.518 60.1146Z" fill="#FF8C78"/>
<path d="M143.073 69.8221C138.64 75.4149 128.247 72.4866 125.192 65.0386C124.37 63.0332 120.825 60.2958 121.268 57.5537C121.766 54.4635 126.518 51.3672 130.539 49.3055C138.127 45.4142 149.211 49.7625 154.358 62.9265C155.423 65.8955 156.197 70.4705 156.144 75.7813C156.179 83.2054 152.17 98.9836 135.85 102.704" stroke="black" stroke-width="2.4" stroke-linecap="round"/>
</g>
<defs>
<clipPath id="clip0_7070_88771">
<rect width="176" height="176" fill="white"/>
</clipPath>
</defs>
</svg>
