<svg width="176" height="176" viewBox="0 0 176 176" fill="none" xmlns="http://www.w3.org/2000/svg">
<g clip-path="url(#clip0_7070_88595)">
<path d="M58.7351 145.695L58.5072 122.799L84.2428 134.378L84.4004 150.215C84.4004 158.404 71.5231 158.551 65.2225 158.799C50.6715 158.799 48.4003 155.453 48.4004 152.475C48.4004 147.711 55.2876 145.943 58.7351 145.695Z" fill="#FF8C78" stroke="black" stroke-width="2.4" stroke-linecap="round" stroke-linejoin="round"/>
<path d="M117.266 145.695L117.494 122.799L91.7582 134.378L91.6006 150.215C91.6006 158.404 104.478 158.551 110.779 158.799C125.329 158.799 127.601 155.453 127.601 152.475C127.601 147.711 120.713 145.943 117.266 145.695Z" fill="#FF8C78" stroke="black" stroke-width="2.4" stroke-linecap="round" stroke-linejoin="round"/>
<path d="M84.4008 141.998C71.6808 135.196 62.9508 135.958 58.3008 135.315V126.998C65.6208 133.057 78.7508 135.958 84.4008 136.652V141.998Z" fill="black"/>
<path d="M91.6002 141.998C104.32 135.196 113.05 135.958 117.7 135.315V126.998C110.38 133.057 97.2502 135.958 91.6002 136.652V141.998Z" fill="black"/>
<path d="M31.4484 61.7216C32.4648 66.8672 33.3964 70.3428 38.7561 72.2614L50.9756 102.915C34.2889 104.672 23.4889 96.0839 16.8728 87.414C8.88211 75.9807 8.25113 62.1009 10.9641 56.25C14.6026 47.7073 22.2796 47.6986 26.175 50.1418C29.5509 52.2592 30.4321 56.576 31.4484 61.7216Z" fill="#FF8C78" stroke="black" stroke-width="2.4" stroke-linecap="round"/>
<path d="M144.04 118.775C140.584 110.497 143.181 105.952 147.928 103.589L145.262 98.3735C145.262 98.3735 139.626 98.6723 137.65 94.5983C135.782 90.7463 137.05 78.2483 137.05 78.2483C144.749 80.8914 145.237 80.7668 150.1 85.1483C165.25 94.5983 165.447 106.521 164.737 111.057C156.961 128.509 146.2 120.698 144.04 118.775Z" fill="#FF8C78"/>
<circle cx="88" cy="85" r="51" fill="#FF8C78" stroke="black" stroke-width="2.4"/>
<path d="M83.2002 108.1C84.5387 108.866 89.0048 109.668 92.8002 108.1" stroke="black" stroke-width="3.07896" stroke-linecap="round"/>
<mask id="mask0_7070_88595" style="mask-type:alpha" maskUnits="userSpaceOnUse" x="61" y="75" width="54" height="29">
<path fill-rule="evenodd" clip-rule="evenodd" d="M87.9994 103.898C104.126 103.898 111.989 93.5861 114.053 80.0669C114.444 77.5091 112.297 75.3984 109.696 75.3984H66.3026C63.7015 75.3984 61.555 77.5091 61.9455 80.0669C64.0095 93.5861 71.8725 103.898 87.9994 103.898Z" fill="#D9D9D9"/>
</mask>
<g mask="url(#mask0_7070_88595)">
<path fill-rule="evenodd" clip-rule="evenodd" d="M87.9994 103.898C104.126 103.898 111.989 93.5861 114.053 80.0669C114.444 77.5091 112.297 75.3984 109.696 75.3984H66.3026C63.7015 75.3984 61.555 77.5091 61.9455 80.0669C64.0095 93.5861 71.8725 103.898 87.9994 103.898Z" fill="black"/>
<ellipse cx="87.9992" cy="100.598" rx="28.8" ry="15" fill="#464646"/>
<path d="M87.9998 96.3984C85.6373 96.3984 85.2998 99.0064 85.2998 100.898H90.6998C90.6998 99.0064 90.2659 96.4496 87.9998 96.3984Z" fill="white"/>
<path d="M79.5994 96.3984C77.2369 96.3984 76.8994 99.0064 76.8994 100.898H82.2994C82.2994 99.0064 81.8655 96.4496 79.5994 96.3984Z" fill="white"/>
<path d="M96.3992 96.3984C94.0367 96.3984 93.6992 99.0064 93.6992 100.898H99.0992C99.0992 99.0064 98.6653 96.4496 96.3992 96.3984Z" fill="white"/>
<path d="M87.9998 82.8984C85.6373 82.8984 85.2998 80.2905 85.2998 78.3984H90.6998C90.6998 80.2905 90.2659 82.8473 87.9998 82.8984Z" fill="white"/>
<path d="M79.5994 82.8984C77.2369 82.8984 76.8994 80.2905 76.8994 78.3984H82.2994C82.2994 80.2905 81.8655 82.8473 79.5994 82.8984Z" fill="white"/>
<path d="M96.3992 82.8984C94.0367 82.8984 93.6992 80.2905 93.6992 78.3984H99.0992C99.0992 80.2905 98.6653 82.8473 96.3992 82.8984Z" fill="white"/>
<path d="M112.571 79.8405C111.57 86.391 109.186 92.0181 105.236 95.9953C101.314 99.9434 95.7176 102.398 87.9994 102.398C80.2812 102.398 74.685 99.9434 70.7631 95.9953C66.8124 92.0181 64.4284 86.391 63.4283 79.8405C63.2013 78.3537 64.4474 76.8984 66.3026 76.8984H109.696C111.551 76.8984 112.798 78.3537 112.571 79.8405Z" stroke="black" stroke-width="3"/>
</g>
<circle cx="79.6002" cy="68.1988" r="2.4" fill="black"/>
<circle cx="96.4" cy="68.1988" r="2.4" fill="black"/>
<rect width="15.5997" height="4.45716" transform="matrix(-0.965926 -0.258819 -0.258819 0.965926 140.076 118.432)" fill="white" stroke="black" stroke-width="2.46209"/>
<path d="M138.923 122.736L123.855 118.699L121.547 127.31C120.91 129.688 122.321 132.131 124.698 132.768L131.158 134.499C133.535 135.136 135.978 133.725 136.615 131.348L138.923 122.736Z" fill="#3B71FE" stroke="black" stroke-width="2.46209"/>
<rect width="15.5997" height="56.8287" transform="matrix(-0.965926 -0.258819 -0.258819 0.965926 154.785 63.5391)" fill="#F7ED48" stroke="black" stroke-width="2.46209" stroke-linejoin="round"/>
<path d="M152.153 43.2234L139.717 59.5021L146.097 65.8262L154.785 63.5396L152.153 43.2234Z" fill="white" stroke="black" stroke-width="2.46209" stroke-linejoin="round"/>
<path d="M146.098 65.8242L132.543 116.411" stroke="black" stroke-width="2.46209"/>
<path d="M151.864 44.2969L153.074 52.6964L146.616 50.966L151.864 44.2969Z" fill="black"/>
<path d="M152.93 53.2344L146.472 51.504" stroke="black" stroke-width="2.46209"/>
<path d="M152.151 43.2215L139.715 59.5002L146.095 65.8242L154.783 63.5377L152.151 43.2215Z" stroke="black" stroke-width="2.46209" stroke-linejoin="round"/>
<path d="M158.608 99.8474C164.479 103.762 166.404 111.118 162.906 116.276C159.408 121.434 151.813 122.441 145.941 118.526C140.07 114.611 139.224 107.279 142.722 102.121C146.219 96.9629 152.736 95.9324 158.608 99.8474Z" fill="#FF8C78"/>
<path d="M147.979 98.843C140.919 99.8856 138.259 110.35 143.182 116.72C146.001 120.368 152.316 124.582 159.48 119.956C166.644 115.331 168.421 103.557 159.594 92.5174C157.555 90.1112 153.98 87.1533 149.354 84.5436" stroke="black" stroke-width="2.4" stroke-linecap="round"/>
</g>
<defs>
<clipPath id="clip0_7070_88595">
<rect width="176" height="176" fill="white"/>
</clipPath>
</defs>
</svg>
