<svg width="42" height="40" viewBox="0 0 42 40" fill="none" xmlns="http://www.w3.org/2000/svg">
<path d="M21.0047 35.0001C20.3227 35.0001 19.6498 34.8098 19.1224 34.4654C17.8767 33.6135 16.2945 33.1423 14.6578 33.1242H3.55527C2.14586 33.1242 1.00015 32.1998 1.00015 31.0579V10.3767C1.00015 10.0776 1.30022 9.84199 1.66394 9.84199H4.28271V8.0657C4.28271 7.85725 4.4282 7.66694 4.66462 7.57631C9.81124 5.52813 15.8217 5.49188 21.0047 7.46756C26.2786 5.41031 32.4618 5.51907 37.6176 7.77569C37.7358 8.45539 37.7721 9.14416 37.7176 9.83293H40.3364C40.7001 9.83293 41.0001 10.0776 41.0001 10.3676V31.0397C41.0001 32.1816 39.8544 33.1151 38.4359 33.1151H27.3425C25.7058 33.1332 24.1327 33.6045 22.8778 34.4564C22.3414 34.8008 21.6776 34.9911 20.9956 34.9911L21.0047 35.0001ZM2.32772 10.9114V31.0579C2.32772 31.6016 2.8733 32.0457 3.55527 32.0457H14.6578C16.5946 32.0638 18.4678 32.6257 19.959 33.6317C20.5773 34.0214 21.4412 34.0214 22.0504 33.6317C23.5325 32.6257 25.4057 32.0638 27.3516 32.0457H38.445C39.127 32.0457 39.6817 31.6016 39.6817 31.0488V10.9114H37.7267V29.916C37.7267 30.215 37.4266 30.4507 37.0629 30.4507C36.9629 30.4507 36.8719 30.4325 36.781 30.3963C31.8526 28.4569 26.0877 28.4659 21.1775 30.4325C21.132 30.4416 21.0774 30.4507 21.0229 30.4507H21.0138C20.9683 30.4507 20.9138 30.4507 20.8683 30.4325C15.949 28.4659 10.1841 28.4569 5.25566 30.3963C4.91922 30.5232 4.51913 30.3963 4.37364 30.1244C4.33727 30.0519 4.31908 29.9794 4.30999 29.9069V10.9114H2.32772ZM21.6685 8.41008V29.1003C26.3696 27.469 31.6889 27.469 36.39 29.1003V8.41008C31.7253 6.65191 26.3332 6.65191 21.6685 8.41008ZM12.9756 27.8768C15.5034 27.8859 18.004 28.3028 20.3409 29.1003V8.41008C15.6762 6.65191 10.2841 6.65191 5.61938 8.41008V29.0912C7.94718 28.2937 10.4478 27.8859 12.9847 27.8678L12.9756 27.8768ZM24.5873 12.4067C24.2691 12.4067 24.0236 12.153 24.0236 11.8539C24.0236 11.6545 24.1509 11.4733 24.3418 11.3827C27.297 10.0142 30.7524 10.0142 33.7076 11.3827C33.9895 11.5095 34.1077 11.8358 33.9713 12.0986C33.8349 12.3614 33.5075 12.4702 33.2257 12.3524C30.4887 11.1198 27.3061 11.138 24.5873 12.4067ZM24.5873 18.0528C24.2691 18.0528 24.0236 17.7991 24.0236 17.5C24.0236 17.3006 24.1509 17.1194 24.3418 17.0287C27.297 15.6603 30.7524 15.6603 33.7076 17.0287C33.9895 17.1556 34.1077 17.4819 33.9713 17.7447C33.8349 18.0075 33.5075 18.1163 33.2257 17.9985C30.4887 16.7659 27.3061 16.784 24.5873 18.0528ZM24.5873 23.6989C24.2691 23.6989 24.0236 23.4452 24.0236 23.1461C24.0236 22.9467 24.1509 22.7655 24.3418 22.6748C27.297 21.3064 30.7524 21.3064 33.7076 22.6748C33.9895 22.8017 34.1077 23.128 33.9713 23.3908C33.8349 23.6536 33.5075 23.7624 33.2257 23.6445C30.4887 22.412 27.3061 22.4301 24.5873 23.6989ZM8.62916 12.4067C8.3109 12.4067 8.06539 12.153 8.06539 11.8539C8.06539 11.6545 8.19269 11.4733 8.38364 11.3827C11.3389 10.0142 14.7942 10.0142 17.7494 11.3827C18.0313 11.5095 18.1495 11.8358 18.0131 12.0986C17.8767 12.3614 17.5494 12.4702 17.2675 12.3524C14.5305 11.1198 11.348 11.138 8.62916 12.4067ZM8.62916 18.0528C8.3109 18.0528 8.06539 17.7991 8.06539 17.5C8.06539 17.3006 8.19269 17.1194 8.38364 17.0287C11.3389 15.6603 14.7942 15.6603 17.7494 17.0287C18.0313 17.1556 18.1495 17.4819 18.0131 17.7447C17.8767 18.0075 17.5494 18.1163 17.2675 17.9985C14.5305 16.7659 11.348 16.784 8.62916 18.0528ZM8.62916 23.6989C8.3109 23.6989 8.06539 23.4452 8.06539 23.1461C8.06539 22.9467 8.19269 22.7655 8.38364 22.6748C11.3389 21.3064 14.7942 21.3064 17.7494 22.6748C18.0313 22.8017 18.1495 23.128 18.0131 23.3908C17.8767 23.6536 17.5494 23.7624 17.2675 23.6445C14.5305 22.412 11.348 22.4301 8.62916 23.6989Z" fill="white"/>
<path fill-rule="evenodd" clip-rule="evenodd" d="M37.21 8.0927C32.2111 5.97926 26.2556 5.90477 21.1691 7.88893L21.0066 7.95231L20.8436 7.89019C15.766 5.95469 9.87272 5.99046 4.83186 7.99655L4.82653 7.99867C4.77756 8.01744 4.75264 8.04083 4.74235 8.05409C4.7373 8.06061 4.73501 8.06641 4.73501 8.06641V10.2943H1.66394C1.5772 10.2943 1.51266 10.3228 1.47803 10.3505C1.46043 10.3646 1.45431 10.3744 1.45245 10.3787V31.0579C1.45245 31.8647 2.30089 32.6719 3.55527 32.6719H14.6628C16.3779 32.6909 18.0474 33.1837 19.3735 34.0892C19.76 34.3406 20.2491 34.5003 20.7629 34.5388H20.9956C21.594 34.5388 22.1702 34.3718 22.6289 34.0787C23.9626 33.1749 25.6218 32.6818 27.3375 32.6628L27.3425 32.6628L38.4359 32.6628C39.6978 32.6628 40.5479 31.8479 40.5479 31.0397V10.3733C40.5454 10.3685 40.5384 10.3579 40.5203 10.3432C40.4834 10.3135 40.4188 10.2852 40.3364 10.2852H37.228L37.2667 9.79721C37.3117 9.22844 37.2911 8.65845 37.21 8.0927ZM40.549 10.3763L40.5484 10.3746L40.549 10.3763ZM21.9721 35.3258L22.0992 35.4524H21.0047C20.2431 35.4524 19.4827 35.2408 18.8752 34.8442L18.8671 34.8389C17.703 34.0428 16.2109 33.5942 14.6553 33.5765H3.55527C1.99083 33.5765 0.547852 32.5348 0.547852 31.0579V10.3767C0.547852 9.7385 1.15027 9.3897 1.66394 9.3897H3.83042V8.0657C3.83042 7.63079 4.13068 7.29777 4.49973 7.15513C9.69773 5.08721 15.7526 5.03033 21.0029 6.98356C26.3512 4.94832 32.5851 5.0793 37.7989 7.36134L38.0215 7.45878L38.0632 7.69819C38.1598 8.25357 38.2046 8.81595 38.1928 9.38063H40.3364C40.8554 9.38063 41.4524 9.74282 41.4524 10.3676V31.0397C41.4524 32.5153 40.0111 33.5674 38.4359 33.5674H27.345C25.7903 33.5851 24.3064 34.0333 23.1319 34.8306L23.1223 34.8371C22.7751 35.06 22.3843 35.2247 21.9721 35.3258ZM5.45986 7.98685C10.2274 6.18992 15.7329 6.18992 20.5004 7.98685L20.7932 8.0972V29.7326L20.1948 29.5284C17.9053 28.747 15.4536 28.338 12.974 28.3291L12.5339 28.3276C10.1993 28.388 7.90633 28.7858 5.76597 29.5191L5.16708 29.7243V8.0972L5.45986 7.98685ZM14.0426 27.4521C16.0408 27.5482 18.0113 27.8942 19.8886 28.4773V8.72567C15.4926 7.14978 10.4677 7.14978 6.07168 8.72567V28.4677C8.27541 27.7825 10.6143 27.4324 12.9815 27.4155L14.0872 27.4076L14.0426 27.4521ZM21.509 7.98685C26.2765 6.18992 31.782 6.18992 36.5495 7.98685L36.8423 8.0972V29.736L36.2417 29.5276C31.6367 27.9296 26.4218 27.9296 21.8168 29.5276L21.2162 29.736V8.0972L21.509 7.98685ZM22.1208 8.72567V28.4743C26.5653 27.0746 31.4931 27.0746 35.9377 28.4743V8.72567C31.5417 7.14978 26.5168 7.14978 22.1208 8.72567ZM8.57625 11.7919C8.55129 11.804 8.53515 11.8198 8.52644 11.8326C8.51799 11.8449 8.51769 11.8539 8.51769 11.8539C8.51769 11.8851 8.53534 11.9183 8.56697 11.9377C11.3742 10.6731 14.6341 10.673 17.4458 11.9367C17.5259 11.9679 17.5923 11.9276 17.6117 11.8903C17.6217 11.8708 17.6223 11.8214 17.5638 11.7951L17.5593 11.7931C14.7255 10.4809 11.4104 10.4804 8.57625 11.7919ZM17.9376 10.9714C14.8623 9.54793 11.2687 9.54822 8.19359 10.9722L8.18971 10.974C7.86433 11.1285 7.61309 11.4554 7.61309 11.8539C7.61309 12.4042 8.06253 12.859 8.62916 12.859H8.7295L8.82043 12.8166C11.4195 11.6037 14.4644 11.5861 17.0818 12.7648L17.0931 12.7697C17.575 12.9711 18.1615 12.7946 18.4146 12.307C18.6768 11.8016 18.4411 11.1997 17.9376 10.9714ZM24.5344 11.7919C24.5094 11.804 24.4933 11.8198 24.4846 11.8326C24.4762 11.8449 24.4759 11.8539 24.4759 11.8539C24.4759 11.8851 24.4935 11.9183 24.5251 11.9377C27.3324 10.6731 30.5922 10.673 33.404 11.9366C33.4841 11.9679 33.5504 11.9276 33.5698 11.8903C33.5799 11.8708 33.5804 11.8214 33.5219 11.7951L33.5175 11.7931C30.6837 10.4808 27.3685 10.4804 24.5344 11.7919ZM33.8956 10.9713C30.8203 9.54793 27.2269 9.54824 24.1518 10.9722L24.1479 10.974C23.8225 11.1285 23.5713 11.4554 23.5713 11.8539C23.5713 12.4042 24.0207 12.859 24.5873 12.859H24.6877L24.7786 12.8166C27.3777 11.6037 30.4226 11.5861 33.0399 12.7648L33.0512 12.7697C33.5331 12.9711 34.1196 12.7946 34.3727 12.307C34.635 11.8015 34.3992 11.1995 33.8956 10.9713ZM1.87543 10.4591H4.76229V29.8731C4.76562 29.8905 4.76977 29.9035 4.77455 29.9144C4.79871 29.949 4.93146 30.0338 5.09362 29.974C10.1162 27.9986 15.9829 28.0035 21.0005 29.9983L21.0042 29.9983C21.007 29.9984 21.0101 29.9984 21.0138 29.9984H21.0229C21.0249 29.9984 21.029 29.9982 21.0354 29.9976C21.0383 29.9973 21.0415 29.997 21.0453 29.9965C21.0475 29.9962 21.0499 29.9958 21.0523 29.9955C26.0607 28.0029 31.9258 27.9996 36.9466 29.9754L36.9485 29.9761C36.9875 29.9917 37.0217 29.9984 37.0629 29.9984C37.1496 29.9984 37.2142 29.9698 37.2488 29.9421C37.2664 29.9281 37.2725 29.9183 37.2744 29.9139V10.4591H40.134V31.0488C40.134 31.9384 39.2799 32.498 38.445 32.498H27.3538C25.4901 32.5157 23.7062 33.0545 22.3044 34.0059L22.2942 34.0128C21.5353 34.4983 20.4824 34.4962 19.7178 34.0143L19.7059 34.0068C18.2942 33.0545 16.5098 32.5158 14.6558 32.498H3.55527C2.71858 32.498 1.87543 31.9369 1.87543 31.0579V10.4591ZM2.78002 11.3637V31.0579C2.78002 31.2663 3.02802 31.5934 3.55527 31.5934H14.662C16.6781 31.6123 18.6365 32.1959 20.2056 33.2524C20.6758 33.5455 21.3443 33.5435 21.802 33.2536C23.3631 32.1959 25.3224 31.6123 27.3474 31.5934L27.3516 31.5934L38.445 31.5934C38.9741 31.5934 39.2294 31.2649 39.2294 31.0488V11.3637H38.179V29.916C38.179 30.5541 37.5766 30.903 37.0629 30.903C36.9046 30.903 36.7573 30.8736 36.6149 30.817C31.7934 28.9198 26.1481 28.9289 21.3456 30.8524L21.3068 30.8679L21.2659 30.8761C21.2125 30.8867 21.1229 30.903 21.0229 30.903H21.0138C21.0138 30.903 21.0097 30.903 21.007 30.903C20.9681 30.9035 20.8321 30.905 20.7008 30.8527C15.8889 28.929 10.2428 28.9198 5.42129 30.8172L5.41528 30.8195C4.91128 31.0096 4.24862 30.8494 3.97485 30.3378L3.96923 30.3273C3.90467 30.1986 3.8751 30.074 3.86121 29.9632L3.85769 29.9351V11.3637H2.78002ZM8.57625 17.438C8.55129 17.4501 8.53515 17.4659 8.52643 17.4786C8.51799 17.491 8.51769 17.5 8.51769 17.5C8.51769 17.5312 8.53534 17.5644 8.56697 17.5838C11.3742 16.3192 14.634 16.3191 17.4458 17.5827C17.5259 17.614 17.5923 17.5737 17.6117 17.5364C17.6217 17.5169 17.6223 17.4675 17.5638 17.4412L17.5593 17.4392C14.7255 16.1269 11.4104 16.1265 8.57625 17.438ZM17.9377 16.6175C14.8623 15.194 11.2688 15.1943 8.19359 16.6183L8.18971 16.6201C7.86433 16.7746 7.61309 17.1015 7.61309 17.5C7.61309 18.0503 8.06252 18.5051 8.62916 18.5051H8.7295L8.82043 18.4627C11.4195 17.2498 14.4644 17.2322 17.0818 18.4109L17.0931 18.4158C17.575 18.6172 18.1615 18.4407 18.4146 17.953C18.6768 17.4477 18.4411 16.8458 17.9377 16.6175ZM24.5344 17.438C24.5094 17.4501 24.4933 17.4659 24.4846 17.4786C24.4762 17.491 24.4759 17.5 24.4759 17.5C24.4759 17.5312 24.4935 17.5644 24.5252 17.5838C27.3324 16.3192 30.5922 16.3191 33.404 17.5827C33.4841 17.614 33.5504 17.5737 33.5698 17.5364C33.5799 17.5169 33.5804 17.4675 33.5219 17.4412L33.5175 17.4392C30.6837 16.1269 27.3685 16.1265 24.5344 17.438ZM33.8957 16.6174C30.8203 15.194 27.2269 15.1943 24.1518 16.6183L24.1479 16.6201C23.8225 16.7746 23.5713 17.1015 23.5713 17.5C23.5713 18.0503 24.0207 18.5051 24.5873 18.5051H24.6877L24.7786 18.4627C27.3777 17.2498 30.4226 17.2322 33.0399 18.4109L33.0512 18.4158C33.5331 18.6172 34.1196 18.4407 34.3727 17.953C34.635 17.4476 34.3992 16.8457 33.8957 16.6174ZM8.57625 23.0841C8.55129 23.0962 8.53515 23.112 8.52643 23.1247C8.51799 23.1371 8.51769 23.1461 8.51769 23.1461C8.51769 23.1773 8.53535 23.2105 8.56698 23.2299C11.3742 21.9653 14.6341 21.9652 17.4458 23.2288C17.5259 23.2601 17.5923 23.2198 17.6117 23.1824C17.6217 23.163 17.6223 23.1136 17.5638 23.0873L17.5593 23.0853C14.7255 21.773 11.4104 21.7726 8.57625 23.0841ZM17.9377 22.2636C14.8623 20.8401 11.2688 20.8404 8.19359 22.2644L8.18971 22.2662C7.86433 22.4206 7.61309 22.7476 7.61309 23.1461C7.61309 23.6964 8.06252 24.1512 8.62916 24.1512H8.7295L8.82043 24.1088C11.4195 22.8958 14.4644 22.8783 17.0818 24.0569L17.0931 24.0618C17.575 24.2633 18.1615 24.0868 18.4146 23.5991C18.6768 23.0938 18.4411 22.4919 17.9377 22.2636ZM24.5344 23.0841C24.5094 23.0962 24.4933 23.112 24.4846 23.1247C24.4762 23.1371 24.4759 23.1461 24.4759 23.1461C24.4759 23.1773 24.4935 23.2105 24.5252 23.2299C27.3324 21.9653 30.5922 21.9652 33.404 23.2288C33.4841 23.2601 33.5504 23.2198 33.5698 23.1824C33.5799 23.163 33.5804 23.1136 33.5219 23.0873L33.5175 23.0853C30.6837 21.773 27.3685 21.7726 24.5344 23.0841ZM33.8957 22.2635C30.8203 20.8401 27.2269 20.8404 24.1518 22.2644L24.1479 22.2662C23.8225 22.4206 23.5713 22.7476 23.5713 23.1461C23.5713 23.6964 24.0207 24.1512 24.5873 24.1512H24.6877L24.7786 24.1088C27.3777 22.8958 30.4226 22.8783 33.0399 24.0569L33.0512 24.0618C33.5331 24.2633 34.1196 24.0868 34.3727 23.5991C34.635 23.0937 34.3992 22.4917 33.8957 22.2635Z" fill="white"/>
</svg>
