<svg width="34" height="35" viewBox="0 0 34 35" fill="none" xmlns="http://www.w3.org/2000/svg">
<path d="M1.0625 17.1401C1.0625 8.3381 8.19796 1.20264 17 1.20264C25.802 1.20264 32.9375 8.3381 32.9375 17.1401C32.9375 25.9422 25.802 33.0776 17 33.0776H1.0625V17.1401Z" fill="white"/>
<path d="M1.0625 17.1401C1.0625 8.3381 8.19796 1.20264 17 1.20264C25.802 1.20264 32.9375 8.3381 32.9375 17.1401C32.9375 25.9422 25.802 33.0776 17 33.0776H1.0625V17.1401Z" stroke="#00B9AD" stroke-width="2.125"/>
<path d="M22.117 26.1403C22.117 26.3589 22.0733 26.5046 21.9859 26.5774C21.8984 26.6503 21.7527 26.6867 21.5487 26.6867H10.4016C10.1976 26.6867 10.0664 26.6576 10.0081 26.5993C9.96443 26.541 9.94257 26.4099 9.94257 26.2059V23.6704C9.94257 23.5393 9.94986 23.43 9.96443 23.3426C9.979 23.2551 10.0009 23.175 10.03 23.1021C10.0737 23.0293 10.1247 22.9564 10.183 22.8836C10.2413 22.8107 10.3214 22.7233 10.4234 22.6213L13.8331 19.1897C15.0717 17.9511 16.0334 16.8146 16.7183 15.78C17.4177 14.7309 17.7674 13.7473 17.7674 12.8293C17.7674 12.363 17.7091 11.9769 17.5926 11.6709C17.476 11.3649 17.2939 11.1244 17.0461 10.9496C16.7984 10.7747 16.4779 10.6581 16.0844 10.5999C15.691 10.527 15.2247 10.4979 14.6856 10.5124C14.3504 10.527 14.008 10.5561 13.6583 10.5999C13.3231 10.6436 12.988 10.6946 12.6529 10.7529C12.3177 10.7966 12.0044 10.8476 11.713 10.9059C11.4216 10.9641 11.1666 11.0151 10.948 11.0589C10.7003 11.1171 10.5254 11.1099 10.4234 11.037C10.3214 10.9496 10.2631 10.7893 10.2486 10.5561L10.0737 8.21742C10.0591 7.99885 10.0883 7.83857 10.1611 7.73657C10.2486 7.62 10.4234 7.53985 10.6857 7.49614C10.9334 7.45242 11.2394 7.40142 11.6037 7.34314C11.968 7.27028 12.3687 7.20471 12.8059 7.14643C13.2576 7.07357 13.7239 7.01528 14.2047 6.97157C14.7001 6.91328 15.1956 6.88414 15.691 6.88414C17.833 6.88414 19.3849 7.34314 20.3466 8.26114C21.3083 9.17914 21.7891 10.5124 21.7891 12.261C21.7891 12.9896 21.7163 13.6817 21.5706 14.3374C21.4394 14.9786 21.2136 15.6197 20.893 16.2609C20.587 16.902 20.179 17.5504 19.669 18.2061C19.1736 18.8619 18.5689 19.554 17.8549 20.2826L15.1664 23.0584H21.5487C21.7527 23.0584 21.8984 23.0949 21.9859 23.1677C22.0733 23.2406 22.117 23.3863 22.117 23.6049V26.1403Z" fill="#00646B"/>
</svg>
