<svg width="93" height="48" viewBox="0 0 93 48" fill="none" xmlns="http://www.w3.org/2000/svg">
<path d="M17 40.9375H1.0625V25C1.0625 16.198 8.19796 9.0625 17 9.0625C25.802 9.0625 32.9375 16.198 32.9375 25C32.9375 33.802 25.802 40.9375 17 40.9375Z" fill="white"/>
<path d="M17 40.9375H1.0625V25C1.0625 16.198 8.19796 9.0625 17 9.0625C25.802 9.0625 32.9375 16.198 32.9375 25C32.9375 33.802 25.802 40.9375 17 40.9375Z" stroke="#00B9AD" stroke-width="2.125"/>
<path d="M15.7347 34.5476C15.5307 34.5476 15.385 34.5111 15.2976 34.4383C15.2101 34.3654 15.1664 34.2197 15.1664 34.0011V19.5098L11.5819 21.8486C11.2613 22.0526 11.0136 22.0016 10.8387 21.6956L9.59286 19.5754C9.47629 19.3714 9.418 19.2111 9.418 19.0946C9.43257 18.9634 9.53457 18.8396 9.724 18.723L15.1664 15.1166C15.283 15.0437 15.3777 15 15.4506 14.9854C15.5234 14.9563 15.6327 14.9417 15.7784 14.9417H18.7947C18.9987 14.9417 19.1444 14.9781 19.2319 15.051C19.3193 15.1238 19.363 15.2695 19.363 15.4881V34.0011C19.363 34.2197 19.3193 34.3654 19.2319 34.4383C19.1444 34.5111 18.9987 34.5476 18.7947 34.5476H15.7347Z" fill="#00646B"/>
<path d="M38.9688 24.9688C40.0312 23.8438 41.375 23.2656 42.8438 23.25C45.4062 23.2656 47.5781 25.0312 50.1562 25.0312C51.6094 25.0312 52.9062 24.4531 53.9375 23.3125V27.125C52.875 28.25 51.5312 28.8438 50.0625 28.8438C47.5 28.8438 45.3125 27.0781 42.75 27.0625C41.2969 27.0781 40 27.6562 38.9688 28.7812V24.9688Z" fill="#222222"/>
<path d="M76 40.9375H60.0625V25C60.0625 16.198 67.198 9.0625 76 9.0625C84.802 9.0625 91.9375 16.198 91.9375 25C91.9375 33.802 84.802 40.9375 76 40.9375Z" fill="white"/>
<path d="M76 40.9375H60.0625V25C60.0625 16.198 67.198 9.0625 76 9.0625C84.802 9.0625 91.9375 16.198 91.9375 25C91.9375 33.802 84.802 40.9375 76 40.9375Z" stroke="#00B9AD" stroke-width="2.125"/>
<path d="M83.0186 30.8537C83.0186 31.0723 82.9749 31.218 82.8874 31.2908C82.8 31.3637 82.6543 31.4001 82.4503 31.4001H80.964V34.0011C80.964 34.2197 80.9203 34.3654 80.8329 34.4383C80.7454 34.5111 80.5997 34.5476 80.3957 34.5476H77.5543C77.3503 34.5476 77.2046 34.5111 77.1171 34.4383C77.0297 34.3654 76.986 34.2197 76.986 34.0011V31.4001H69.2486C69.0154 31.4001 68.8406 31.3564 68.724 31.269C68.622 31.1961 68.571 31.0358 68.571 30.7881V28.6898C68.571 28.5441 68.5783 28.413 68.5929 28.2964C68.6074 28.1653 68.6439 28.0196 68.7021 27.8593L73.0517 15.4226C73.1246 15.2331 73.1974 15.1093 73.2703 15.051C73.3431 14.9781 73.4597 14.9417 73.62 14.9417H76.6363C76.884 14.9417 77.0443 14.9854 77.1171 15.0728C77.19 15.1603 77.19 15.3278 77.1171 15.5755L73.0954 27.7718H76.986V22.1108C76.986 21.8923 77.0297 21.7466 77.1171 21.6737C77.2046 21.6008 77.3503 21.5644 77.5543 21.5644H80.3957C80.5997 21.5644 80.7454 21.6008 80.8329 21.6737C80.9203 21.7466 80.964 21.8923 80.964 22.1108V27.7718H82.4503C82.6543 27.7718 82.8 27.8083 82.8874 27.8811C82.9749 27.954 83.0186 28.0997 83.0186 28.3183V30.8537Z" fill="#00646B"/>
</svg>
