<svg width="32" height="33" viewBox="0 0 32 33" fill="none" xmlns="http://www.w3.org/2000/svg">
<path d="M1 16.1401C1 7.85587 7.71573 1.14014 16 1.14014C24.2843 1.14014 31 7.85587 31 16.1401C31 24.4244 24.2843 31.1401 16 31.1401C7.71573 31.1401 1 24.4244 1 16.1401Z" fill="#00B9AD"/>
<path d="M1 16.1401C1 7.85587 7.71573 1.14014 16 1.14014C24.2843 1.14014 31 7.85587 31 16.1401C31 24.4244 24.2843 31.1401 16 31.1401C7.71573 31.1401 1 24.4244 1 16.1401Z" stroke="#00B9AD" stroke-width="2"/>
<path d="M21.46 24.3201C21.46 24.5201 21.42 24.6535 21.34 24.7201C21.26 24.7868 21.1267 24.8201 20.94 24.8201H10.74C10.5533 24.8201 10.4333 24.7935 10.38 24.7401C10.34 24.6868 10.32 24.5668 10.32 24.3801V22.0601C10.32 21.9401 10.3267 21.8401 10.34 21.7601C10.3533 21.6801 10.3733 21.6068 10.4 21.5401C10.44 21.4735 10.4867 21.4068 10.54 21.3401C10.5933 21.2735 10.6667 21.1935 10.76 21.1001L13.88 17.9601C15.0133 16.8268 15.8933 15.7868 16.52 14.8401C17.16 13.8801 17.48 12.9801 17.48 12.1401C17.48 11.7135 17.4267 11.3601 17.32 11.0801C17.2133 10.8001 17.0467 10.5801 16.82 10.4201C16.5933 10.2601 16.3 10.1535 15.94 10.1001C15.58 10.0335 15.1533 10.0068 14.66 10.0201C14.3533 10.0335 14.04 10.0601 13.72 10.1001C13.4133 10.1401 13.1067 10.1868 12.8 10.2401C12.4933 10.2801 12.2067 10.3268 11.94 10.3801C11.6733 10.4335 11.44 10.4801 11.24 10.5201C11.0133 10.5735 10.8533 10.5668 10.76 10.5001C10.6667 10.4201 10.6133 10.2735 10.6 10.0601L10.44 7.92014C10.4267 7.72014 10.4533 7.57347 10.52 7.48014C10.6 7.37347 10.76 7.30014 11 7.26014C11.2267 7.22014 11.5067 7.17347 11.84 7.12014C12.1733 7.05347 12.54 6.99347 12.94 6.94014C13.3533 6.87347 13.78 6.82014 14.22 6.78014C14.6733 6.7268 15.1267 6.70014 15.58 6.70014C17.54 6.70014 18.96 7.12014 19.84 7.96014C20.72 8.80014 21.16 10.0201 21.16 11.6201C21.16 12.2868 21.0933 12.9201 20.96 13.5201C20.84 14.1068 20.6333 14.6935 20.34 15.2801C20.06 15.8668 19.6867 16.4601 19.22 17.0601C18.7667 17.6601 18.2133 18.2935 17.56 18.9601L15.1 21.5001H20.94C21.1267 21.5001 21.26 21.5335 21.34 21.6001C21.42 21.6668 21.46 21.8001 21.46 22.0001V24.3201Z" fill="white"/>
</svg>
