<svg width="40" height="40" viewBox="0 0 40 40" fill="none" xmlns="http://www.w3.org/2000/svg">
<path fill-rule="evenodd" clip-rule="evenodd" d="M35 11.8249C35 15.318 32.1443 18.1498 28.6216 18.1498C25.0989 18.1498 22.2432 15.318 22.2432 11.8249C22.2432 8.33175 25.0989 5.5 28.6216 5.5C32.1443 5.5 35 8.33175 35 11.8249ZM29.6212 8.90137C29.6212 8.34908 29.1735 7.90137 28.6212 7.90137C28.0689 7.90137 27.6212 8.34908 27.6212 8.90137V10.8242H25.6739C25.1216 10.8242 24.6739 11.2719 24.6739 11.8242C24.6739 12.3765 25.1216 12.8242 25.6739 12.8242H27.6212V14.7466C27.6212 15.2988 28.0689 15.7466 28.6212 15.7466C29.1735 15.7466 29.6212 15.2988 29.6212 14.7466V12.8242H31.5685C32.1208 12.8242 32.5685 12.3765 32.5685 11.8242C32.5685 11.2719 32.1208 10.8242 31.5685 10.8242H29.6212V8.90137ZM28.6224 19.7302C30.0354 19.7302 31.3625 19.3657 32.5134 18.7263V19.7107V29.4997C32.5134 31.7089 30.7226 33.4997 28.5134 33.4997H11C8.79086 33.4997 7 31.7089 7 29.4997V12.2002C7 9.99106 8.79086 8.2002 11 8.2002H20.2951H21.5344C20.9688 9.28577 20.6494 10.5179 20.6494 11.8241C20.6494 16.1905 24.219 19.7302 28.6224 19.7302ZM16.1753 22.8535L11.6517 27.3392C11.0191 27.9665 11.4672 29.0391 12.3618 29.0391L21.4089 29.0391L21.4139 29.0391H27.0611C27.9558 29.0391 28.4038 27.9665 27.7712 27.3391L24.3359 23.9327C23.9438 23.5438 23.3079 23.5438 22.9158 23.9327L20.7997 26.031L17.5954 22.8535C17.2033 22.4647 16.5674 22.4647 16.1753 22.8535Z" fill="url(#paint0_linear_4581_5385)"/>
<defs>
<linearGradient id="paint0_linear_4581_5385" x1="7" y1="19.4999" x2="35" y2="19.4999" gradientUnits="userSpaceOnUse">
<stop stop-color="#3B71FE"/>
<stop offset="1" stop-color="#07BBA9"/>
</linearGradient>
</defs>
</svg>
