<svg width="32" height="33" viewBox="0 0 32 33" fill="none" xmlns="http://www.w3.org/2000/svg">
<path d="M1 16.1401C1 7.85587 7.71573 1.14014 16 1.14014C24.2843 1.14014 31 7.85587 31 16.1401C31 24.4244 24.2843 31.1401 16 31.1401C7.71573 31.1401 1 24.4244 1 16.1401Z" fill="#00B9AD"/>
<path d="M1 16.1401C1 7.85587 7.71573 1.14014 16 1.14014C24.2843 1.14014 31 7.85587 31 16.1401C31 24.4244 24.2843 31.1401 16 31.1401C7.71573 31.1401 1 24.4244 1 16.1401Z" stroke="#00B9AD" stroke-width="2"/>
<path d="M15.62 24.8201C15.4333 24.8201 15.3 24.7868 15.22 24.7201C15.14 24.6535 15.1 24.5201 15.1 24.3201V11.0601L11.82 13.2001C11.5267 13.3868 11.3 13.3401 11.14 13.0601L10 11.1201C9.89333 10.9335 9.84 10.7868 9.84 10.6801C9.85333 10.5601 9.94667 10.4468 10.12 10.3401L15.1 7.04014C15.2067 6.97347 15.2933 6.93347 15.36 6.92014C15.4267 6.89347 15.5267 6.88014 15.66 6.88014H18.42C18.6067 6.88014 18.74 6.91347 18.82 6.98014C18.9 7.0468 18.94 7.18014 18.94 7.38014V24.3201C18.94 24.5201 18.9 24.6535 18.82 24.7201C18.74 24.7868 18.6067 24.8201 18.42 24.8201H15.62Z" fill="white"/>
</svg>
