<svg width="40" height="40" viewBox="0 0 40 40" fill="none" xmlns="http://www.w3.org/2000/svg">
<path fill-rule="evenodd" clip-rule="evenodd" d="M18.5 7.45106V7.03516C18.5 6.20673 19.1716 5.53516 20 5.53516C20.8284 5.53516 21.5 6.20673 21.5 7.03516V7.45107C25.2013 8.1532 28 11.4051 28 15.3107C28 17.7359 26.9208 19.909 25.2165 21.3761L27.4878 25.5489H29.7481C30.4395 25.5489 31 26.1094 31 26.8008C31 27.4923 30.4395 28.0528 29.7481 28.0528H28.8506L29.8635 29.9137C29.9434 30.0605 29.9853 30.225 29.9853 30.3922V33.0346C29.9853 33.3986 29.6092 33.641 29.2783 33.4902L26.921 32.416C26.7316 32.3297 26.5739 32.1863 26.4698 32.0058L24.1911 28.0528H15.7738L13.495 32.0058C13.391 32.1863 13.2333 32.3297 13.0439 32.416L10.6865 33.4902C10.3556 33.641 9.97955 33.3986 9.97955 33.0346L9.97955 30.3922C9.97955 30.225 10.0214 30.0605 10.1013 29.9137L11.1142 28.0528H10.2519C9.56051 28.0528 9 27.4923 9 26.8008C9 26.1094 9.56051 25.5489 10.2519 25.5489H12.4771L14.7596 21.3555C13.0691 19.8887 12 17.7245 12 15.3107C12 11.4051 14.7987 8.15315 18.5 7.45106ZM22.7477 25.5489L21.3882 23.1906C20.9373 23.2695 20.4735 23.3107 20 23.3107C19.5153 23.3107 19.0407 23.2676 18.5799 23.185L17.2172 25.5489H22.7477ZM19.9995 18.304C21.6528 18.304 22.9931 16.9637 22.9931 15.3103C22.9931 13.657 21.6528 12.3167 19.9995 12.3167C18.3461 12.3167 17.0058 13.657 17.0058 15.3103C17.0058 16.9637 18.3461 18.304 19.9995 18.304Z" fill="url(#paint0_linear_4581_5467)"/>
<defs>
<linearGradient id="paint0_linear_4581_5467" x1="9" y1="19.5355" x2="31" y2="19.5355" gradientUnits="userSpaceOnUse">
<stop stop-color="#3B71FE"/>
<stop offset="1" stop-color="#07BBA9"/>
</linearGradient>
</defs>
</svg>
