<svg width="40" height="40" viewBox="0 0 40 40" fill="none" xmlns="http://www.w3.org/2000/svg">
<path fill-rule="evenodd" clip-rule="evenodd" d="M6.99988 7.00006C4.79074 7.00006 2.99988 8.79092 2.99988 11.0001V29.0001C2.99988 31.2092 4.79074 33.0001 6.99988 33.0001H32.9999C35.209 33.0001 36.9999 31.2092 36.9999 29.0001V11.0001C36.9999 8.79092 35.209 7.00006 32.9999 7.00006H6.99988ZM15.4335 26.3018C14.8812 26.3018 14.4335 26.7495 14.4335 27.3018C14.4335 27.8541 14.8812 28.3018 15.4335 28.3018H24.5663C25.1186 28.3018 25.5663 27.8541 25.5663 27.3018C25.5663 26.7495 25.1186 26.3018 24.5663 26.3018H15.4335ZM11.4999 14.0049C11.4999 15.1095 10.6044 16.0049 9.49988 16.0049C8.39531 16.0049 7.49988 15.1095 7.49988 14.0049C7.49988 12.9004 8.39531 12.0049 9.49988 12.0049C10.6044 12.0049 11.4999 12.9004 11.4999 14.0049ZM16.4999 16.0049C17.6044 16.0049 18.4999 15.1095 18.4999 14.0049C18.4999 12.9004 17.6044 12.0049 16.4999 12.0049C15.3953 12.0049 14.4999 12.9004 14.4999 14.0049C14.4999 15.1095 15.3953 16.0049 16.4999 16.0049ZM25.4999 14.0049C25.4999 15.1095 24.6044 16.0049 23.4999 16.0049C22.3953 16.0049 21.4999 15.1095 21.4999 14.0049C21.4999 12.9004 22.3953 12.0049 23.4999 12.0049C24.6044 12.0049 25.4999 12.9004 25.4999 14.0049ZM9.49988 21.668C10.6044 21.668 11.4999 20.7726 11.4999 19.668C11.4999 18.5635 10.6044 17.668 9.49988 17.668C8.39531 17.668 7.49988 18.5635 7.49988 19.668C7.49988 20.7726 8.39531 21.668 9.49988 21.668ZM18.4999 19.668C18.4999 20.7726 17.6044 21.668 16.4999 21.668C15.3953 21.668 14.4999 20.7726 14.4999 19.668C14.4999 18.5635 15.3953 17.668 16.4999 17.668C17.6044 17.668 18.4999 18.5635 18.4999 19.668ZM23.4999 21.668C24.6044 21.668 25.4999 20.7726 25.4999 19.668C25.4999 18.5635 24.6044 17.668 23.4999 17.668C22.3953 17.668 21.4999 18.5635 21.4999 19.668C21.4999 20.7726 22.3953 21.668 23.4999 21.668ZM32.4999 14.0049C32.4999 15.1095 31.6044 16.0049 30.4999 16.0049C29.3953 16.0049 28.4999 15.1095 28.4999 14.0049C28.4999 12.9004 29.3953 12.0049 30.4999 12.0049C31.6044 12.0049 32.4999 12.9004 32.4999 14.0049ZM30.4999 21.668C31.6044 21.668 32.4999 20.7726 32.4999 19.668C32.4999 18.5635 31.6044 17.668 30.4999 17.668C29.3953 17.668 28.4999 18.5635 28.4999 19.668C28.4999 20.7726 29.3953 21.668 30.4999 21.668Z" fill="#808080"/>
</svg>
