<svg width="93" height="45" viewBox="0 0 93 45" fill="none" xmlns="http://www.w3.org/2000/svg">
<path d="M1.0625 23.1406C1.0625 14.3386 8.19796 7.20313 17 7.20313C25.802 7.20313 32.9375 14.3386 32.9375 23.1406C32.9375 31.9427 25.802 39.0781 17 39.0781H1.0625V23.1406Z" fill="white"/>
<path d="M1.0625 23.1406C1.0625 14.3386 8.19796 7.20313 17 7.20313C25.802 7.20313 32.9375 14.3386 32.9375 23.1406C32.9375 31.9427 25.802 39.0781 17 39.0781H1.0625V23.1406Z" stroke="#00B9AD" stroke-width="2.125"/>
<path d="M15.7347 32.6882C15.5307 32.6882 15.385 32.6517 15.2976 32.5789C15.2101 32.506 15.1664 32.3603 15.1664 32.1417V17.6505L11.5819 19.9892C11.2613 20.1932 11.0136 20.1422 10.8387 19.8362L9.59286 17.716C9.47629 17.512 9.418 17.3517 9.418 17.2352C9.43257 17.104 9.53457 16.9802 9.724 16.8636L15.1664 13.2572C15.283 13.1843 15.3777 13.1406 15.4506 13.126C15.5234 13.0969 15.6327 13.0823 15.7784 13.0823H18.7947C18.9987 13.0823 19.1444 13.1187 19.2319 13.1916C19.3193 13.2645 19.363 13.4102 19.363 13.6287V32.1417C19.363 32.3603 19.3193 32.506 19.2319 32.5789C19.1444 32.6517 18.9987 32.6882 18.7947 32.6882H15.7347Z" fill="#00646B"/>
<path d="M38.9688 23.1094C40.0312 21.9844 41.375 21.4062 42.8438 21.3906C45.4062 21.4062 47.5781 23.1719 50.1562 23.1719C51.6094 23.1719 52.9062 22.5938 53.9375 21.4531V25.2656C52.875 26.3906 51.5312 26.9844 50.0625 26.9844C47.5 26.9844 45.3125 25.2188 42.75 25.2031C41.2969 25.2188 40 25.7969 38.9688 26.9219V23.1094Z" fill="#222222"/>
<path d="M60.0625 23.1406C60.0625 14.3386 67.198 7.20313 76 7.20313C84.802 7.20313 91.9375 14.3386 91.9375 23.1406C91.9375 31.9427 84.802 39.0781 76 39.0781H60.0625V23.1406Z" fill="white"/>
<path d="M60.0625 23.1406C60.0625 14.3386 67.198 7.20313 76 7.20313C84.802 7.20313 91.9375 14.3386 91.9375 23.1406C91.9375 31.9427 84.802 39.0781 76 39.0781H60.0625V23.1406Z" stroke="#00B9AD" stroke-width="2.125"/>
<path d="M70.9316 21.6503C70.9316 21.4317 70.9753 21.286 71.0627 21.2132C71.1501 21.1403 71.2959 21.1039 71.4999 21.1039H74.7129C75.0334 21.1039 75.3394 21.0529 75.6309 20.9509C75.9223 20.8489 76.1773 20.7032 76.3959 20.5137C76.6144 20.3097 76.782 20.0693 76.8986 19.7925C77.0297 19.5156 77.0953 19.2023 77.0953 18.8526C77.0953 18.1095 76.833 17.5339 76.3084 17.1259C75.7984 16.7033 75.1281 16.492 74.2976 16.492C73.5836 16.492 72.8769 16.5357 72.1774 16.6232C71.4926 16.7106 70.9389 16.8053 70.5163 16.9073C70.0063 17.0239 69.7221 16.8272 69.6639 16.3172L69.4453 14.1752C69.4016 13.7235 69.5837 13.4685 69.9917 13.4102C70.2394 13.3665 70.5527 13.3155 70.9316 13.2572C71.3104 13.1843 71.7257 13.126 72.1774 13.0823C72.6291 13.024 73.11 12.973 73.62 12.9293C74.13 12.8856 74.64 12.8637 75.15 12.8637C76.1554 12.8637 77.0297 12.9803 77.7729 13.2135C78.5306 13.432 79.1571 13.7453 79.6526 14.1533C80.1626 14.5613 80.5414 15.0422 80.7891 15.5959C81.0369 16.1496 81.1607 16.7616 81.1607 17.4319C81.1607 17.8399 81.1389 18.2552 81.0951 18.6777C81.066 19.1003 80.9786 19.5229 80.8329 19.9455C80.6871 20.3535 80.4686 20.7615 80.1771 21.1695C79.8857 21.5775 79.4777 21.9782 78.9531 22.3716C79.4486 22.7067 79.8566 23.0492 80.1771 23.3989C80.5123 23.7486 80.7746 24.1202 80.964 24.5136C81.1534 24.907 81.2846 25.3369 81.3574 25.8032C81.4449 26.2695 81.4886 26.7795 81.4886 27.3332C81.4886 28.1637 81.3429 28.9142 81.0514 29.5845C80.7746 30.2693 80.3593 30.8522 79.8056 31.333C79.2664 31.8285 78.5961 32.2073 77.7947 32.4696C77.0079 32.7465 76.1044 32.8849 75.0844 32.8849C74.5744 32.8849 74.0499 32.863 73.5107 32.8193C72.9861 32.7756 72.4761 32.7246 71.9807 32.6663C71.4853 32.608 71.019 32.5425 70.5819 32.4696C70.1593 32.4113 69.8023 32.3603 69.5109 32.3166C69.2194 32.2729 69.03 32.1927 68.9426 32.0762C68.8697 31.9596 68.8479 31.7775 68.877 31.5297L69.1174 29.2347C69.1466 29.0016 69.2194 28.8559 69.336 28.7976C69.4526 28.7247 69.642 28.7247 69.9043 28.7976C70.1666 28.8705 70.4799 28.936 70.8441 28.9943C71.223 29.038 71.6164 29.0817 72.0244 29.1255C72.447 29.1692 72.8696 29.1983 73.2921 29.2129C73.7293 29.242 74.1373 29.2566 74.5161 29.2566C76.4687 29.2566 77.445 28.4333 77.445 26.7867C77.445 26.0873 77.19 25.57 76.68 25.2349C76.1846 24.8997 75.5289 24.7322 74.7129 24.7322H71.4999C71.2959 24.7322 71.1501 24.6957 71.0627 24.6229C70.9753 24.55 70.9316 24.4043 70.9316 24.1857V21.6503Z" fill="#00646B"/>
</svg>
