<svg width="40" height="40" viewBox="0 0 40 40" fill="none" xmlns="http://www.w3.org/2000/svg">
<path fill-rule="evenodd" clip-rule="evenodd" d="M17.8681 7.95023C18.2106 6.82152 19.2594 6 20.5 6C21.7406 6 22.7894 6.82152 23.1319 7.95023H29C31.2091 7.95023 33 9.74109 33 11.9502V29.9502C33 32.1594 31.2091 33.9502 29 33.9502H12C9.79086 33.9502 8 32.1594 8 29.9502V11.9502C8 9.74109 9.79086 7.95023 12 7.95023H17.8681ZM15.8682 20.2266C14.7636 20.2266 13.8682 21.122 13.8682 22.2266V24.6885H27.1311V22.2266C27.1311 21.122 26.2356 20.2266 25.1311 20.2266H15.8682ZM13.8682 29.1002V26.8253H27.1311V29.1002C27.1311 30.2048 26.2356 31.1002 25.1311 31.1002H15.8682C14.7636 31.1002 13.8682 30.2048 13.8682 29.1002Z" fill="url(#paint0_linear_4581_5524)"/>
<defs>
<linearGradient id="paint0_linear_4581_5524" x1="8" y1="19.9751" x2="33" y2="19.9751" gradientUnits="userSpaceOnUse">
<stop stop-color="#3B71FE"/>
<stop offset="1" stop-color="#07BBA9"/>
</linearGradient>
</defs>
</svg>
