<svg width="40" height="40" viewBox="0 0 40 40" fill="none" xmlns="http://www.w3.org/2000/svg">
<path fill-rule="evenodd" clip-rule="evenodd" d="M24.327 6.35562C25.108 5.57457 26.3744 5.57457 27.1554 6.35562L33.6442 12.8444C34.4252 13.6254 34.4252 14.8917 33.6442 15.6728L32.2058 17.1112L31.0789 15.9843C30.6884 15.5938 30.0552 15.5938 29.6647 15.9843C29.2742 16.3748 29.2742 17.008 29.6647 17.3985L30.7916 18.5254L28.23 21.087L26.4349 19.2919C26.0444 18.9014 25.4112 18.9014 25.0207 19.2919C24.6302 19.6824 24.6302 20.3156 25.0207 20.7061L26.8158 22.5012L23.7187 25.5982L23.1224 25.0019C22.7319 24.6114 22.0987 24.6114 21.7082 25.0019C21.3177 25.3924 21.3177 26.0256 21.7082 26.4161L22.3045 27.0124L19.5819 29.7351L17.8995 28.0527C17.509 27.6621 16.8758 27.6621 16.4853 28.0527C16.0948 28.4432 16.0948 29.0763 16.4853 29.4669L18.1677 31.1493L15.6736 33.6434C14.8926 34.4244 13.6262 34.4244 12.8452 33.6434L6.35643 27.1546C5.57538 26.3736 5.57538 25.1072 6.35643 24.3262L24.327 6.35562Z" fill="url(#paint0_linear_4581_5268)"/>
<defs>
<linearGradient id="paint0_linear_4581_5268" x1="15.3417" y1="15.3409" x2="24.6589" y2="24.6581" gradientUnits="userSpaceOnUse">
<stop stop-color="#3B71FE"/>
<stop offset="1" stop-color="#07BBA9"/>
</linearGradient>
</defs>
</svg>
