<svg width="40" height="40" viewBox="0 0 40 40" fill="none" xmlns="http://www.w3.org/2000/svg">
<path fill-rule="evenodd" clip-rule="evenodd" d="M30.6543 7.9997C29.0922 6.4376 26.5595 6.4376 24.9974 7.9997L7.85244 25.1447C7.50131 25.4958 7.29336 25.965 7.26905 26.461L7.00245 31.9003C6.9446 33.0808 7.91751 34.0537 9.09796 33.9958L14.5373 33.7292C15.0333 33.7049 15.5025 33.497 15.8536 33.1459L32.9986 16.0009C34.5607 14.4388 34.5607 11.9061 32.9986 10.344L30.6543 7.9997ZM11.6746 25.3471C11.2891 24.9517 10.6559 24.9438 10.2605 25.3293C9.86512 25.7149 9.85715 26.348 10.2427 26.7434L14.1777 30.7788C14.5633 31.1742 15.1964 31.1822 15.5918 30.7966C15.9872 30.411 15.9952 29.7779 15.6096 29.3825L11.6746 25.3471Z" fill="url(#paint0_linear_4581_5631)"/>
<defs>
<linearGradient id="paint0_linear_4581_5631" x1="7" y1="20.4132" x2="34.1702" y2="20.4132" gradientUnits="userSpaceOnUse">
<stop stop-color="#3B71FE"/>
<stop offset="1" stop-color="#07BBA9"/>
</linearGradient>
</defs>
</svg>
