<svg width="40" height="40" viewBox="0 0 40 40" fill="none" xmlns="http://www.w3.org/2000/svg">
<path fill-rule="evenodd" clip-rule="evenodd" d="M25.1356 7.09751C25.9166 6.31646 27.183 6.31646 27.964 7.0975L31.056 10.1895C31.837 10.9705 31.837 12.2368 31.056 13.0179L17.5039 26.5699C17.3206 26.7532 17.0733 26.8582 16.8141 26.8627L12.2286 26.942C11.6628 26.9518 11.2016 26.4907 11.2114 25.9249L11.2908 21.3394C11.2953 21.0802 11.4002 20.8328 11.5835 20.6496L25.1356 7.09751ZM13.496 20.6529C13.8865 20.2624 14.5197 20.2624 14.9102 20.6529L17.4391 23.1818C17.8297 23.5724 17.8297 24.2055 17.4391 24.596C17.0486 24.9866 16.4154 24.9866 16.0249 24.5961L13.496 22.0672C13.1055 21.6766 13.1055 21.0435 13.496 20.6529ZM8.98725 28.4633C8.88732 27.6409 8.13965 27.0553 7.31727 27.1552C6.49489 27.2551 5.90923 28.0028 6.00915 28.8252C6.14508 29.9439 6.70395 31.5327 8.02899 32.6737C9.4407 33.8894 11.4848 34.3951 14.1225 33.6668C15.2604 33.3527 16.3573 32.9841 17.4313 32.6232C22.0958 31.0558 26.3302 29.6329 31.627 33.4391C32.2998 33.9225 33.2371 33.769 33.7205 33.0963C34.2039 32.4235 34.0504 31.4862 33.3777 31.0028C26.7202 26.2189 20.8156 28.2532 16.0683 29.8888C15.1048 30.2207 14.1889 30.5363 13.3241 30.775C11.4798 31.2843 10.5151 30.8555 9.98661 30.4005C9.37149 29.8707 9.05882 29.0524 8.98725 28.4633Z" fill="url(#paint0_linear_4581_5427)"/>
<defs>
<linearGradient id="paint0_linear_4581_5427" x1="5.99805" y1="20.2579" x2="34.0025" y2="20.2579" gradientUnits="userSpaceOnUse">
<stop stop-color="#3B71FE"/>
<stop offset="1" stop-color="#07BBA9"/>
</linearGradient>
</defs>
</svg>
