<svg width="40" height="40" viewBox="0 0 40 40" fill="none" xmlns="http://www.w3.org/2000/svg">
<path d="M31 18C32.1046 18 33 18.8954 33 20C33 21.1046 32.1046 22 31 22L9 22C7.89543 22 7 21.1046 7 20C7 18.8954 7.89543 18 9 18L31 18Z" fill="url(#paint0_linear_4581_5821)"/>
<path d="M23 11C23 12.6569 21.6569 14 20 14C18.3431 14 17 12.6569 17 11C17 9.34315 18.3431 8 20 8C21.6569 8 23 9.34315 23 11Z" fill="url(#paint1_linear_4581_5821)"/>
<path d="M23 29C23 30.6569 21.6569 32 20 32C18.3431 32 17 30.6569 17 29C17 27.3431 18.3431 26 20 26C21.6569 26 23 27.3431 23 29Z" fill="url(#paint2_linear_4581_5821)"/>
<defs>
<linearGradient id="paint0_linear_4581_5821" x1="20" y1="8" x2="20" y2="32" gradientUnits="userSpaceOnUse">
<stop stop-color="#3B71FE"/>
<stop offset="1" stop-color="#07BBA9"/>
</linearGradient>
<linearGradient id="paint1_linear_4581_5821" x1="20" y1="8" x2="20" y2="32" gradientUnits="userSpaceOnUse">
<stop stop-color="#3B71FE"/>
<stop offset="1" stop-color="#07BBA9"/>
</linearGradient>
<linearGradient id="paint2_linear_4581_5821" x1="20" y1="8" x2="20" y2="32" gradientUnits="userSpaceOnUse">
<stop stop-color="#3B71FE"/>
<stop offset="1" stop-color="#07BBA9"/>
</linearGradient>
</defs>
</svg>
