<svg width="42" height="42" viewBox="0 0 42 42" fill="none" xmlns="http://www.w3.org/2000/svg">
<path d="M1.71429 20.5714C1.71429 9.92023 10.3488 1.28571 21 1.28571C31.6512 1.28571 40.2857 9.92022 40.2857 20.5714C40.2857 31.2226 31.6512 39.8571 21 39.8571H1.71429V20.5714Z" fill="white"/>
<path d="M1.71429 20.5714C1.71429 9.92023 10.3488 1.28571 21 1.28571C31.6512 1.28571 40.2857 9.92022 40.2857 20.5714C40.2857 31.2226 31.6512 39.8571 21 39.8571H1.71429V20.5714Z" stroke="#00B9AD" stroke-width="2.57143"/>
<path d="M26.1323 12.1926C26.0976 12.4353 26.0283 12.5826 25.9243 12.6346C25.8376 12.6693 25.673 12.6693 25.4303 12.6346C24.9623 12.5826 24.2776 12.5133 23.3763 12.4266C22.4923 12.3226 21.5476 12.2706 20.5423 12.2706C19.8143 12.2706 19.1903 12.4266 18.6703 12.7386C18.1503 13.0333 17.717 13.4406 17.3703 13.9606C17.041 14.4806 16.7983 15.0873 16.6423 15.7806C16.4863 16.4566 16.4083 17.1846 16.4083 17.9646C17.1536 17.6699 17.8296 17.4533 18.4363 17.3146C19.0603 17.1759 19.693 17.1066 20.3343 17.1066C22.7436 17.1066 24.5636 17.6873 25.7943 18.8486C27.0423 19.9926 27.6663 21.8213 27.6663 24.3346C27.6663 25.5999 27.4843 26.7006 27.1203 27.6366C26.7563 28.5726 26.2363 29.3526 25.5603 29.9766C24.8843 30.6006 24.061 31.0599 23.0903 31.3546C22.1196 31.6666 21.0363 31.8226 19.8403 31.8226C18.419 31.8226 17.197 31.5713 16.1743 31.0686C15.1516 30.5659 14.3023 29.8293 13.6263 28.8586C12.9676 27.8879 12.4736 26.6919 12.1443 25.2706C11.8323 23.8493 11.6763 22.2113 11.6763 20.3566C11.6763 18.1379 11.8756 16.2486 12.2743 14.6886C12.6903 13.1113 13.2796 11.8286 14.0423 10.8406C14.8223 9.83525 15.7583 9.10725 16.8503 8.65659C17.9423 8.18859 19.173 7.95459 20.5423 7.95459C21.0103 7.95459 21.487 7.97192 21.9723 8.00659C22.4576 8.04125 22.9256 8.08459 23.3763 8.13659C23.8443 8.18859 24.269 8.24926 24.6503 8.31859C25.049 8.37059 25.3956 8.42259 25.6903 8.47459C26.0196 8.54392 26.219 8.63925 26.2883 8.76059C26.375 8.86459 26.401 9.08126 26.3663 9.41059L26.1323 12.1926ZM19.9443 21.1106C19.4243 21.1106 18.8696 21.1713 18.2803 21.2926C17.7083 21.4139 17.0843 21.5526 16.4083 21.7086C16.4083 22.4366 16.4603 23.1559 16.5643 23.8666C16.6683 24.5773 16.8503 25.2186 17.1103 25.7906C17.3703 26.3453 17.717 26.7959 18.1503 27.1426C18.601 27.4719 19.1643 27.6366 19.8403 27.6366C21.071 27.6366 21.955 27.3593 22.4923 26.8046C23.047 26.2499 23.3243 25.4266 23.3243 24.3346C23.3243 23.2946 23.0123 22.4973 22.3883 21.9426C21.7643 21.3879 20.9496 21.1106 19.9443 21.1106Z" fill="#00646B"/>
</svg>
