<svg width="32" height="35" viewBox="0 0 32 35" fill="none" xmlns="http://www.w3.org/2000/svg">
<path d="M1 19C1 10.7157 7.71573 4 16 4C24.2843 4 31 10.7157 31 19C31 27.2843 24.2843 34 16 34C7.71573 34 1 27.2843 1 19Z" fill="#00B9AD"/>
<path d="M1 19C1 10.7157 7.71573 4 16 4C24.2843 4 31 10.7157 31 19C31 27.2843 24.2843 34 16 34C7.71573 34 1 27.2843 1 19Z" stroke="#00B9AD" stroke-width="2"/>
<path d="M20.94 12.54C20.94 12.74 20.9 12.8733 20.82 12.94C20.74 13.0067 20.6067 13.04 20.42 13.04H14.2L14.02 16.42C14.4067 16.3267 14.7333 16.26 15 16.22C15.2667 16.18 15.5933 16.16 15.98 16.16C17.8467 16.16 19.26 16.5867 20.22 17.44C21.18 18.28 21.66 19.64 21.66 21.52C21.66 22.5067 21.52 23.3867 21.24 24.16C20.96 24.92 20.5533 25.56 20.02 26.08C19.5 26.6 18.8667 26.9933 18.12 27.26C17.3733 27.54 16.5333 27.68 15.6 27.68C15.1067 27.68 14.62 27.66 14.14 27.62C13.66 27.58 13.2 27.5267 12.76 27.46C12.32 27.3933 11.9067 27.3267 11.52 27.26C11.1467 27.1933 10.82 27.1267 10.54 27.06C10.3 27.0067 10.14 26.9267 10.06 26.82C9.98 26.7133 9.95333 26.5467 9.98 26.32L10.24 24.24C10.2667 24.0133 10.3333 23.88 10.44 23.84C10.56 23.7867 10.7133 23.7733 10.9 23.8C11.1667 23.8533 11.4667 23.9133 11.8 23.98C12.1333 24.0333 12.4867 24.0867 12.86 24.14C13.2467 24.1933 13.64 24.24 14.04 24.28C14.4533 24.3067 14.86 24.32 15.26 24.32C15.6867 24.32 16.0667 24.28 16.4 24.2C16.7333 24.12 17.0133 23.98 17.24 23.78C17.48 23.58 17.66 23.3133 17.78 22.98C17.9133 22.6467 17.98 22.2267 17.98 21.72C17.98 20.9733 17.7667 20.42 17.34 20.06C16.9133 19.6867 16.3267 19.5 15.58 19.5C15.18 19.5 14.8133 19.52 14.48 19.56C14.16 19.6 13.8133 19.6733 13.44 19.78C13.16 19.8467 12.92 19.86 12.72 19.82L11.02 19.46C10.7133 19.3933 10.52 19.2533 10.44 19.04C10.36 18.8267 10.3333 18.58 10.36 18.3L10.8 11.04C10.8267 10.52 10.9267 10.1733 11.1 10C11.2733 9.81333 11.6133 9.72 12.12 9.72H20.42C20.6067 9.72 20.74 9.75333 20.82 9.82C20.9 9.88667 20.94 10.02 20.94 10.22V12.54Z" fill="white"/>
</svg>
