<svg width="40" height="40" viewBox="0 0 40 40" fill="none" xmlns="http://www.w3.org/2000/svg">
<path fill-rule="evenodd" clip-rule="evenodd" d="M8.58579 28.1496C7.80474 28.9307 7.80474 30.197 8.58579 30.978C9.36683 31.7591 10.6332 31.7591 11.4142 30.978L19.6836 22.7087L28.1496 31.1747C28.9307 31.9558 30.197 31.9558 30.978 31.1747C31.7591 30.3937 31.7591 29.1274 30.978 28.3463L22.512 19.8803L30.978 11.4142C31.7591 10.6332 31.7591 9.36684 30.978 8.58579C30.197 7.80474 28.9307 7.80474 28.1496 8.58579L19.6836 17.0518L11.4142 8.78249C10.6332 8.00144 9.36683 8.00144 8.58579 8.78249C7.80474 9.56354 7.80474 10.8299 8.58579 11.6109L16.8551 19.8803L8.58579 28.1496Z" fill="white"/>
</svg>
