<svg width="40" height="40" viewBox="0 0 40 40" fill="none" xmlns="http://www.w3.org/2000/svg">
<path fill-rule="evenodd" clip-rule="evenodd" d="M28.118 11.1167C28.1181 12.1827 27.9082 13.2383 27.5004 14.2232C27.0925 15.2081 26.4947 16.1031 25.741 16.8569C24.9873 17.6108 24.0925 18.2088 23.1076 18.6169C22.1228 19.0249 21.0673 19.235 20.0013 19.2351C17.8483 19.2353 15.7835 18.3803 14.261 16.8581C12.7385 15.3359 11.8831 13.2713 11.8829 11.1184C11.8828 10.0524 12.0926 8.99677 12.5005 8.01186C12.9083 7.02695 13.5062 6.13202 14.2599 5.37816C15.782 3.85567 17.8467 3.00022 19.9996 3C22.1525 2.99978 24.2173 3.85481 25.7398 5.37699C27.2623 6.89917 28.1177 8.96381 28.118 11.1167ZM20.0004 21.7184C8.31082 21.7184 3.76367 29.1577 3.76367 32.6187C3.76367 36.078 13.4434 37 20.0004 37C26.5575 37 36.2372 36.078 36.2372 32.6187C36.2372 29.1577 31.69 21.7184 20.0004 21.7184Z" fill="url(#paint0_linear_4581_5764)"/>
<defs>
<linearGradient id="paint0_linear_4581_5764" x1="20.0004" y1="3" x2="20.0004" y2="37" gradientUnits="userSpaceOnUse">
<stop stop-color="#3B71FE"/>
<stop offset="1" stop-color="#07BBA9"/>
</linearGradient>
</defs>
</svg>
