<svg width="51" height="48" viewBox="0 0 51 48" fill="none" xmlns="http://www.w3.org/2000/svg">
<path d="M13.7422 42.3438L6.94531 35.7031L18.8984 23.9062L6.94531 12.1875L13.7422 5.54688L25.6172 17.2656L37.4922 5.54688L44.2109 12.1875L32.3359 23.9062L44.2109 35.7031L37.4922 42.3438L25.6172 30.625L13.7422 42.3438ZM0.460938 23.9062C0.460938 20.8594 2.96094 18.5156 6.86719 18.5156C10.6953 18.5156 13.2734 20.8594 13.2734 23.9062C13.2734 26.9531 10.7734 29.2969 6.86719 29.2969C2.96094 29.2969 0.460938 26.9531 0.460938 23.9062ZM19.2109 42.3438C19.2109 39.2188 21.6328 36.875 25.5391 36.875C29.3672 36.875 31.9453 39.2188 31.9453 42.3438C31.9453 45.3906 29.3672 47.7344 25.5391 47.7344C21.6328 47.7344 19.2109 45.3906 19.2109 42.3438ZM19.2109 5.625C19.2109 2.5 21.6328 0.15625 25.5391 0.15625C29.3672 0.15625 31.9453 2.5 31.9453 5.625C31.9453 8.59375 29.3672 10.9375 25.5391 10.9375C21.6328 10.9375 19.2109 8.59375 19.2109 5.625ZM37.7266 23.9062C37.7266 20.8594 40.3047 18.5156 44.2109 18.5156C48.0391 18.5156 50.6172 20.8594 50.6172 23.9062C50.6172 26.9531 48.0391 29.2969 44.2109 29.2969C40.3047 29.2969 37.7266 26.9531 37.7266 23.9062Z" fill="#8C1B1D"/>
</svg>
