<svg width="33" height="34" viewBox="0 0 33 34" fill="none" xmlns="http://www.w3.org/2000/svg">
<path d="M29.3991 16.2034C30.1491 15.0784 30.8991 14.1409 30.8991 13.9534C32.7741 11.3284 32.0241 9.26583 29.2116 8.89083L21.8991 9.07835L17.5866 3.26583C15.7116 1.20333 13.6491 1.57833 12.5241 4.20333L10.4616 11.1409L3.52409 13.3909C1.08659 14.7034 0.899088 16.9534 3.52409 18.6409C3.71159 18.8284 8.96159 22.3909 8.96159 22.3909V29.1409C9.14909 32.5159 11.3991 33.4533 14.0241 31.3908C14.0241 31.3908 14.7741 30.8284 15.7116 30.0784" stroke="#F59C00" stroke-width="2" stroke-linecap="round" stroke-linejoin="round"/>
<path d="M21.8994 13.7676L19.8369 15.4551L23.0244 15.6426" stroke="#F59C00" stroke-width="2" stroke-linecap="round" stroke-linejoin="round"/>
<path d="M14.3996 16.7668C14.2121 16.0168 13.4621 15.4543 12.7121 15.6418C11.9621 15.8293 11.3996 16.5793 11.5871 17.3293" stroke="#F59C00" stroke-width="2" stroke-linecap="round" stroke-linejoin="round"/>
</svg>
