<svg width="80" height="134" viewBox="0 0 80 134" fill="none" xmlns="http://www.w3.org/2000/svg">
<g id="Group">
<path id="Vector" d="M62.7569 39.2715L15.1797 120.195" stroke="#0C6025" stroke-width="26" stroke-linecap="round" stroke-linejoin="round"/>
<path id="Vector_2" d="M66.2382 120.195H15.1797" stroke="#0C6025" stroke-width="26" stroke-linecap="round" stroke-linejoin="round"/>
<path id="Vector_3" d="M63.9173 37.3324L15.1797 120.195" stroke="white" stroke-width="20" stroke-linecap="round" stroke-linejoin="round"/>
<path id="Vector_4" d="M66.367 120.195H15.4375" stroke="white" stroke-width="20" stroke-linecap="round" stroke-linejoin="round"/>
<path id="Vector_5" d="M63.1431 57.6279L60.9512 58.5328" stroke="#038047" stroke-width="1.2" stroke-linecap="round" stroke-linejoin="round"/>
<path id="Vector_6" d="M58.6309 62.2816L61.4674 61.7645" stroke="#038047" stroke-width="1.2" stroke-linecap="round" stroke-linejoin="round"/>
<path id="Vector_7" d="M56.6973 66.289L59.147 65.5134" stroke="#038047" stroke-width="1.2" stroke-linecap="round" stroke-linejoin="round"/>
<path id="Vector_8" d="M55.0215 70.0379L56.8266 69.2623" stroke="#038047" stroke-width="1.2" stroke-linecap="round" stroke-linejoin="round"/>
<path id="Vector_9" d="M69.0745 110.5L68.043 111.921" stroke="#038047" stroke-width="1.2" stroke-linecap="round" stroke-linejoin="round"/>
<path id="Vector_10" d="M70.623 113.99L72.1703 112.18" stroke="#038047" stroke-width="1.2" stroke-linecap="round" stroke-linejoin="round"/>
<path id="Vector_11" d="M73.0723 116.575L74.6195 115.283" stroke="#038047" stroke-width="1.2" stroke-linecap="round" stroke-linejoin="round"/>
<path id="Vector_12" d="M74.748 119.936L76.4242 119.161" stroke="#038047" stroke-width="1.2" stroke-linecap="round" stroke-linejoin="round"/>
<path id="Vector_13" d="M44.707 105.329H36.0684" stroke="#0C6025" stroke-width="3" stroke-linecap="round"/>
<path id="Vector_14" d="M63.144 38.4958C63.144 24.9224 52.0556 13.8052 38.3884 13.8052C24.7212 13.8052 13.7617 24.7932 13.7617 38.4958" stroke="#0C6025" stroke-width="26" stroke-linecap="round" stroke-linejoin="round"/>
<path id="Vector_15" d="M63.144 38.4958C63.144 24.9224 52.0556 13.8052 38.3884 13.8052C24.7212 13.8052 13.7617 24.7932 13.7617 38.4958" stroke="#008834" stroke-width="20" stroke-linecap="round" stroke-linejoin="round"/>
</g>
</svg>
