<svg width="82" height="48" viewBox="0 0 82 48" fill="none" xmlns="http://www.w3.org/2000/svg">
<g clip-path="url(#clip0_11194_15208)">
<mask id="path-1-inside-1_11194_15208" fill="white">
<path d="M22.7215 45.4654C35.2822 45.4654 45.443 35.2822 45.443 22.7439C45.443 10.2056 35.2822 0 22.7215 0C10.1607 0 0 10.1832 0 22.7215C0 35.2598 10.1832 45.443 22.7215 45.443"/>
</mask>
<path d="M22.7215 45.4654C35.2822 45.4654 45.443 35.2822 45.443 22.7439C45.443 10.2056 35.2822 0 22.7215 0C10.1607 0 0 10.1832 0 22.7215C0 35.2598 10.1832 45.443 22.7215 45.443" fill="#EF8687"/>
<path d="M22.7215 47.7084C36.5225 47.7084 47.686 36.5196 47.686 22.7439H43.2C43.2 34.0449 34.042 43.2224 22.7215 43.2224V47.7084ZM47.686 22.7439C47.686 8.97116 36.5253 -2.24299 22.7215 -2.24299V2.24299C34.0392 2.24299 43.2 11.4401 43.2 22.7439H47.686ZM22.7215 -2.24299C8.92054 -2.24299 -2.24299 8.94585 -2.24299 22.7215H2.24299C2.24299 11.4205 11.401 2.24299 22.7215 2.24299V-2.24299ZM-2.24299 22.7215C-2.24299 36.4986 8.94441 47.686 22.7215 47.686V43.2C11.4219 43.2 2.24299 34.021 2.24299 22.7215H-2.24299Z" fill="#EF8687" mask="url(#path-1-inside-1_11194_15208)"/>
<path d="M65.6739 29.8093C65.6739 39.2385 58.0339 46.8785 48.6047 46.8785C39.1755 46.8785 31.5356 39.2385 31.5356 29.8093C31.5356 20.3801 39.1755 12.7401 48.6047 12.7401C58.0339 12.7401 65.6739 20.3801 65.6739 29.8093Z" fill="#EF8687" stroke="#EF8687" stroke-width="2.24299"/>
<path d="M10.6548 24.4485C11.709 23.327 12.6287 22.0709 13.3688 20.77C13.9969 19.6485 14.3782 18.6167 14.5352 17.6522L10.1165 18.2802L9.62305 14.826L21.8025 13.1214L22.2959 16.5756L17.9894 17.1812C18.6399 19.1101 20.4567 20.8597 23.4174 22.4746L21.4212 25.1438C19.066 23.7531 17.5408 22.5419 16.823 21.4877C16.3296 22.7438 15.1632 24.4036 13.3688 26.4223L10.6773 24.4485H10.6548ZM19.6492 12.1344L11.5296 13.2784L11.0586 9.86902L19.1782 8.7251L19.6492 12.1344ZM31.3576 31.2896C31.4698 32.0522 31.4025 32.8148 31.2006 33.5101C30.9987 34.2952 30.6847 34.9232 30.281 35.5064C29.8773 36.0896 29.3389 36.583 28.7558 36.9868C28.1053 37.3681 27.4324 37.6597 26.7371 37.7494C25.9744 37.8615 25.2567 37.7494 24.5838 37.57C23.866 37.3232 23.2604 37.0092 22.6997 36.5606C22.1389 36.112 21.6455 35.5961 21.2642 34.9008C20.8604 34.2952 20.6137 33.5774 20.5016 32.7924C20.3894 32.0298 20.4343 31.2672 20.6361 30.5045C20.8156 29.8092 21.152 29.1139 21.5782 28.5307C22.0044 27.9475 22.4978 27.4765 23.1034 27.0503C23.6866 26.669 24.3595 26.3774 25.1221 26.2877C25.8174 26.198 26.5352 26.2877 27.2754 26.4672C27.9483 26.7139 28.5987 27.0279 29.1595 27.4765C29.7202 27.9251 30.1913 28.4858 30.595 29.1139C30.9763 29.8092 31.2455 30.5045 31.3576 31.2896ZM28.1053 31.7606C28.0604 31.469 27.9483 31.155 27.8137 30.8634C27.6343 30.6167 27.4324 30.3924 27.2305 30.1905C27.0062 30.0335 26.7371 29.8765 26.4679 29.7868C26.1763 29.7195 25.8847 29.6746 25.6156 29.7195C25.3016 29.7644 25.0324 29.8765 24.853 30.0111C24.5838 30.1905 24.3819 30.4148 24.2025 30.6167C24.023 30.8634 23.9333 31.1326 23.8436 31.4242C23.7539 31.7382 23.7315 32.0746 23.7539 32.3662C23.7987 32.6578 23.9109 32.9494 24.0903 33.1737C24.2473 33.4429 24.4044 33.6896 24.6511 33.869C24.8978 34.0485 25.1445 34.1606 25.4586 34.2503C25.6829 34.3625 25.9744 34.4073 26.2885 34.3625C26.5576 34.3176 26.8268 34.2055 27.0959 34.026C27.3202 33.869 27.5445 33.6896 27.724 33.4429C27.8586 33.1961 28.0156 32.927 28.1053 32.6129C28.1726 32.3438 28.195 32.0298 28.1726 31.7382L28.1053 31.7606ZM27.7016 23.955L25.7277 9.84659L28.9576 9.39799L29.7202 14.7812L34.8118 14.0634L35.2829 17.4728L30.1913 18.1905L30.9315 23.5064L27.7016 23.955Z" fill="white"/>
<path d="M57.5781 9.12884L59.3277 3.79053" stroke="#EF8687" stroke-width="3" stroke-linecap="round" stroke-linejoin="round"/>
<path d="M62.4902 11.7758L66.1687 8.90479" stroke="#EF8687" stroke-width="3" stroke-linecap="round" stroke-linejoin="round"/>
<path d="M78.7742 26.1083C78.7742 24.0223 77.0919 22.34 75.0059 22.34H72.9199V20.2541C72.9199 18.1681 71.2377 16.4858 69.1517 16.4858C67.0657 16.4858 65.3835 18.1681 65.3835 20.2541V22.34H63.2975C61.2115 22.34 59.5293 24.0223 59.5293 26.1083C59.5293 28.1943 61.2115 29.8765 63.2975 29.8765H65.3835V31.9625C65.3835 34.0485 67.0657 35.7307 69.1517 35.7307C71.2377 35.7307 72.9199 34.0485 72.9199 31.9625V29.8765H75.0059C77.0919 29.8765 78.7742 28.1943 78.7742 26.1083Z" fill="#FFF100"/>
<path d="M78.7742 26.1083C78.7742 24.0223 77.0919 22.34 75.0059 22.34H72.9199V20.2541C72.9199 18.1681 71.2377 16.4858 69.1517 16.4858C67.0657 16.4858 65.3835 18.1681 65.3835 20.2541V22.34H63.2975C61.2115 22.34 59.5293 24.0223 59.5293 26.1083C59.5293 28.1943 61.2115 29.8765 63.2975 29.8765H65.3835V31.9625C65.3835 34.0485 67.0657 35.7307 69.1517 35.7307C71.2377 35.7307 72.9199 34.0485 72.9199 31.9625V29.8765H75.0059C77.0919 29.8765 78.7742 28.1943 78.7742 26.1083Z" stroke="#EF8687" stroke-width="3" stroke-linecap="round" stroke-linejoin="round"/>
<path d="M38.4219 36.404L38.7583 33.219L51.3191 34.5423L50.9826 37.7274L38.4219 36.404ZM50.8032 25.4806C50.7135 26.2433 50.4892 26.8937 50.1527 27.5218C49.7938 28.1722 49.3677 28.6881 48.8742 29.0919C48.3583 29.518 47.7751 29.8545 47.1471 30.0563C46.4966 30.3031 45.8237 30.3704 45.1508 30.3031C44.4331 30.2358 43.7602 30.0115 43.1994 29.6526C42.5714 29.3162 42.1004 28.8676 41.6966 28.3517C41.2929 27.8582 40.9789 27.275 40.7994 26.5573C40.5751 25.8619 40.5079 25.1666 40.5976 24.4264C40.6649 23.7087 40.8667 23.0358 41.248 22.3853C41.5845 21.7573 41.9882 21.219 42.5041 20.7928C43.02 20.3891 43.5808 20.075 44.2537 19.8283C44.8593 19.6264 45.577 19.5143 46.2948 19.5816C46.9901 19.6489 47.6181 19.8956 48.2013 20.232C48.7621 20.6134 49.278 21.0395 49.6817 21.533C50.0854 22.0713 50.377 22.6769 50.6237 23.3722C50.8032 24.09 50.8929 24.7853 50.8256 25.5031L50.8032 25.4806ZM47.7527 25.1666C47.7751 24.8975 47.7527 24.5834 47.7079 24.2919C47.5957 24.0451 47.4611 23.8208 47.2817 23.5965C47.1023 23.3722 46.9228 23.1704 46.7209 23.0134C46.4742 22.9236 46.1826 22.8115 45.9135 22.7891C45.6219 22.7666 45.3527 22.7891 45.106 22.8339C44.8368 22.9461 44.5901 23.1031 44.3882 23.2825C44.1415 23.4619 43.9621 23.6638 43.8723 23.8881C43.7153 24.1573 43.648 24.4489 43.6256 24.7405C43.6032 25.0545 43.6032 25.3236 43.6929 25.5928C43.7378 25.8844 43.8723 26.1311 44.0742 26.333C44.2088 26.5797 44.4331 26.7816 44.6798 26.8713C44.9041 27.0283 45.1508 27.0956 45.4424 27.118C45.7116 27.1405 45.9583 27.118 46.2499 27.0283C46.5191 26.9834 46.7434 26.8489 46.9452 26.6246C47.1695 26.4676 47.349 26.2433 47.506 25.9965C47.5957 25.7722 47.6854 25.5031 47.7303 25.1891L47.7527 25.1666ZM52.7097 37.9068L54.6163 19.6713L57.6443 19.9853L55.7378 38.2208L52.7097 37.9068Z" fill="white"/>
</g>
<defs>
<clipPath id="clip0_11194_15208">
<rect width="80.4561" height="48" fill="white"/>
</clipPath>
</defs>
</svg>
