<?xml version="1.0" encoding="UTF-8"?>
<svg id="Layer_1" xmlns="http://www.w3.org/2000/svg" version="1.1" xmlns:xlink="http://www.w3.org/1999/xlink" viewBox="0 0 75 100">
  <!-- Generator: Adobe Illustrator 29.3.1, SVG Export Plug-In . SVG Version: 2.1.0 Build 151)  -->
  <defs>
    <style>
      .st0 {
        fill: #3b71fe;
      }

      .st1 {
        fill: #fff;
      }

      .st2 {
        mask: url(#mask);
      }

      .st3 {
        fill: none;
        stroke: #f59c00;
        stroke-linecap: round;
        stroke-linejoin: round;
        stroke-width: 2px;
      }
    </style>
    <mask id="mask" x="16" y="20" width="55" height="65" maskUnits="userSpaceOnUse">
      <g id="path-1-outside-1_173_119">
        <rect class="st1" x="16" y="20" width="55" height="65"/>
        <path d="M20.3,70.9v-9.3l24-37.3h14.7v37.1h7v9.4h-7v10.1h-11.2v-10.1h-27.5ZM32.1,61.5h15.8v-24.2h-.6l-15.2,23.8v.3Z"/>
      </g>
    </mask>
  </defs>
  <g class="st2">
    <path class="st0" d="M20.3,70.9h-4c0,2.2,1.8,4,4,4v-4ZM20.3,61.6l-3.4-2.2c-.4.6-.6,1.4-.6,2.2h4ZM44.3,24.4v-4c-1.4,0-2.6.7-3.4,1.8l3.4,2.2ZM59,24.4h4c0-2.2-1.8-4-4-4v4ZM59,61.5h-4c0,2.2,1.8,4,4,4v-4ZM66,61.5h4c0-2.2-1.8-4-4-4v4ZM66,70.9v4c2.2,0,4-1.8,4-4h-4ZM59,70.9v-4c-2.2,0-4,1.8-4,4h4ZM59,81v4c2.2,0,4-1.8,4-4h-4ZM47.8,81h-4c0,2.2,1.8,4,4,4v-4ZM47.8,70.9h4c0-2.2-1.8-4-4-4v4ZM32.1,61.5h-4c0,2.2,1.8,4,4,4v-4ZM48,61.5v4c2.2,0,4-1.8,4-4h-4ZM48,37.3h4c0-2.2-1.8-4-4-4v4ZM47.3,37.3v-4c-1.4,0-2.6.7-3.4,1.8l3.4,2.2ZM32.1,61.2l-3.4-2.2c-.4.6-.6,1.4-.6,2.2h4ZM24.3,70.9v-9.3h-8v9.3h8ZM23.6,63.8l24-37.3-6.7-4.3-24,37.3,6.7,4.3ZM44.3,28.4h14.7v-8h-14.7v8ZM55,24.4v37.1h8V24.4h-8ZM59,65.5h7v-8h-7v8ZM62,61.5v9.4h8v-9.4h-8ZM66,66.9h-7v8h7v-8ZM55,70.9v10.1h8v-10.1h-8ZM59,77h-11.2v8h11.2v-8ZM51.8,81v-10.1h-8v10.1h8ZM47.8,66.9h-27.5v8h27.5v-8ZM32.1,65.5h15.8v-8h-15.8v8ZM52,61.5v-24.2h-8v24.2h8ZM48,33.3h-.6v8h.6v-8ZM43.9,35.2l-15.2,23.8,6.7,4.3,15.2-23.8-6.7-4.3ZM28.1,61.2v.3h8v-.3h-8Z"/>
  </g>
  <g>
    <path class="st3" d="M43.8,15.3c.8-1.1,1.5-2.1,1.5-2.2,1.9-2.6,1.1-4.7-1.7-5.1l-7.3.2-4.3-5.8c-1.9-2.1-3.9-1.7-5.1.9l-2.1,6.9-6.9,2.2c-2.4,1.3-2.6,3.6,0,5.3.2.2,5.4,3.8,5.4,3.8v6.8c.2,3.4,2.4,4.3,5.1,2.2,0,0,.8-.6,1.7-1.3"/>
    <path class="st3" d="M36.3,12.8l-2.1,1.7,3.2.2"/>
    <path class="st3" d="M28.8,15.8c-.2-.8-.9-1.3-1.7-1.1s-1.3.9-1.1,1.7"/>
  </g>
</svg>