<svg width="95" height="137" viewBox="0 0 95 137" fill="none" xmlns="http://www.w3.org/2000/svg">
<g id="Frame 1948759731" clip-path="url(#clip0_5075_37861)">
<path id="Vector" d="M73.005 16.3297L48.5352 57.9667" stroke="#9F1B31" stroke-width="31.5467" stroke-linecap="round" stroke-linejoin="round"/>
<path id="Vector_2" d="M16.4844 89.337C16.4889 95.3233 18.2165 101.181 21.4598 106.208C24.7031 111.235 29.3244 115.217 34.7695 117.677C40.2145 120.136 46.2519 120.97 52.1576 120.076C58.0633 119.182 63.5863 116.6 68.0642 112.639C72.5422 108.678 75.7848 103.506 77.4031 97.7434C79.0215 91.9811 78.9468 85.8732 77.1881 80.1523C75.4295 74.4315 72.0614 69.3407 67.488 65.4906C62.9146 61.6405 57.3301 59.1946 51.4044 58.4463" stroke="#9F1B31" stroke-width="31.5467" stroke-linecap="round" stroke-linejoin="round"/>
<path id="Vector_3" d="M73.005 16.3297L48.5352 57.9667" stroke="white" stroke-width="24.2667" stroke-linecap="round" stroke-linejoin="round"/>
<path id="Vector_4" d="M16.4844 89.337C16.4889 95.3233 18.2165 101.181 21.4598 106.208C24.7031 111.235 29.3244 115.217 34.7695 117.677C40.2145 120.136 46.2519 120.97 52.1576 120.076C58.0633 119.182 63.5863 116.6 68.0642 112.639C72.5422 108.678 75.7848 103.506 77.4031 97.7434C79.0215 91.9811 78.9468 85.8732 77.1881 80.1523C75.4295 74.4315 72.0614 69.3407 67.488 65.4906C62.9146 61.6405 57.3301 59.1946 51.4044 58.4463" stroke="white" stroke-width="24.2667" stroke-linecap="round" stroke-linejoin="round"/>
<path id="Vector_5" d="M73.1481 16.0185H19.7852" stroke="#9F1B31" stroke-width="31.5467" stroke-linecap="round" stroke-linejoin="round"/>
<path id="Vector_6" d="M73.1481 16.0185H19.7852" stroke="#D84C59" stroke-width="24.2667" stroke-linecap="round" stroke-linejoin="round"/>
<path id="Vector_7" d="M76.1331 53.287C72.2759 50.3351 67.9702 48.0241 63.3809 46.4426" stroke="#9F1B31" stroke-width="3.64" stroke-linecap="round"/>
<path id="Vector_8" d="M70.5723 36.487L73.1589 35.787" stroke="#B2484E" stroke-width="1.456" stroke-linecap="round" stroke-linejoin="round"/>
<path id="Vector_9" d="M68.8535 39.8315L71.1815 39.1055" stroke="#B2484E" stroke-width="1.456" stroke-linecap="round" stroke-linejoin="round"/>
<path id="Vector_10" d="M67.1582 43.0981L69.3957 42.7352" stroke="#B2484E" stroke-width="1.456" stroke-linecap="round" stroke-linejoin="round"/>
<path id="Vector_11" d="M13.9648 80.0685L14.6374 81.7278" stroke="#B2484E" stroke-width="1.456" stroke-linecap="round" stroke-linejoin="round"/>
<path id="Vector_12" d="M11.8687 83.6722L10.459 81.9871" stroke="#B2484E" stroke-width="1.456" stroke-linecap="round" stroke-linejoin="round"/>
<path id="Vector_13" d="M9.74869 86.0963L8.01562 85.137" stroke="#B2484E" stroke-width="1.456" stroke-linecap="round" stroke-linejoin="round"/>
<path id="Vector_14" d="M8.12886 89L6.48633 88.8834" stroke="#B2484E" stroke-width="1.456" stroke-linecap="round" stroke-linejoin="round"/>
</g>
<defs>
<clipPath id="clip0_5075_37861">
<rect width="95" height="137" fill="white"/>
</clipPath>
</defs>
</svg>
