<svg width="64" height="96" viewBox="0 0 64 96" fill="none" xmlns="http://www.w3.org/2000/svg">
<path d="M31.8438 76.7812C19.4219 76.7812 10.5156 69.9062 10.2812 60.0625H22.1562C22.3906 64.2812 26.4531 67.0938 31.9219 67.0938C37.5469 67.0938 41.6094 63.8906 41.5312 59.3594C41.6094 54.75 37.4688 51.4688 30.8281 51.4688H25.5938V42.7969H30.8281C36.375 42.7969 40.2812 39.75 40.2812 35.2969C40.2812 31 37 28.0312 32 28.0312C27 28.0312 22.8594 30.8438 22.7031 35.1406H11.4531C11.6094 25.375 20.4375 18.6562 32 18.6562C43.7969 18.6562 51.6875 25.6094 51.6094 34.5938C51.6875 40.9219 47.2344 45.4531 40.9062 46.5469V47.0156C49.1875 48.0312 53.7969 53.1094 53.7188 60.1406C53.7969 69.8281 44.5781 76.7812 31.8438 76.7812Z" fill="#8C1B1D"/>
</svg>
