<svg width="81" height="48" viewBox="0 0 81 48" fill="none" xmlns="http://www.w3.org/2000/svg">
<g clip-path="url(#clip0_10608_9378)">
<mask id="path-1-inside-1_10608_9378" fill="white">
<path d="M22.7215 45.4654C35.2822 45.4654 45.443 35.2822 45.443 22.7439C45.443 10.2056 35.2822 0 22.7215 0C10.1607 0 0 10.1832 0 22.7215C0 35.2598 10.1832 45.443 22.7215 45.443"/>
</mask>
<path d="M22.7215 45.4654C35.2822 45.4654 45.443 35.2822 45.443 22.7439C45.443 10.2056 35.2822 0 22.7215 0C10.1607 0 0 10.1832 0 22.7215C0 35.2598 10.1832 45.443 22.7215 45.443" fill="#5AC1B5"/>
<path d="M22.7215 47.7084C36.5225 47.7084 47.686 36.5196 47.686 22.7439H43.2C43.2 34.0449 34.042 43.2224 22.7215 43.2224V47.7084ZM47.686 22.7439C47.686 8.97116 36.5253 -2.24299 22.7215 -2.24299V2.24299C34.0392 2.24299 43.2 11.4401 43.2 22.7439H47.686ZM22.7215 -2.24299C8.92054 -2.24299 -2.24299 8.94585 -2.24299 22.7215H2.24299C2.24299 11.4205 11.401 2.24299 22.7215 2.24299V-2.24299ZM-2.24299 22.7215C-2.24299 36.4986 8.94441 47.686 22.7215 47.686V43.2C11.4219 43.2 2.24299 34.021 2.24299 22.7215H-2.24299Z" fill="#5AC1B5" mask="url(#path-1-inside-1_10608_9378)"/>
<path d="M65.6739 29.8098C65.6739 39.239 58.0339 46.879 48.6047 46.879C39.1755 46.879 31.5356 39.239 31.5356 29.8098C31.5356 20.3806 39.1755 12.7406 48.6047 12.7406C58.0339 12.7406 65.6739 20.3806 65.6739 29.8098Z" fill="#5AC1B5" stroke="#5AC1B5" stroke-width="2.24299"/>
<path d="M10.6548 24.448C11.709 23.3265 12.6287 22.0704 13.3688 20.7695C13.9969 19.648 14.3782 18.6162 14.5352 17.6517L10.1165 18.2797L9.62305 14.8255L21.8025 13.1209L22.2959 16.5751L17.9894 17.1807C18.6399 19.1097 20.4567 20.8592 23.4174 22.4741L21.4212 25.1433C19.066 23.7526 17.5408 22.5414 16.823 21.4872C16.3296 22.7433 15.1632 24.4031 13.3688 26.4218L10.6773 24.448H10.6548ZM19.6492 12.134L11.5296 13.2779L11.0586 9.86853L19.1782 8.72461L19.6492 12.134ZM31.3576 31.2891C31.4698 32.0517 31.4025 32.8143 31.2006 33.5097C30.9987 34.2947 30.6847 34.9227 30.281 35.5059C29.8773 36.0891 29.3389 36.5826 28.7558 36.9863C28.1053 37.3676 27.4324 37.6592 26.7371 37.7489C25.9744 37.8611 25.2567 37.7489 24.5838 37.5695C23.866 37.3227 23.2604 37.0087 22.6997 36.5601C22.1389 36.1115 21.6455 35.5956 21.2642 34.9003C20.8604 34.2947 20.6137 33.5769 20.5016 32.7919C20.3894 32.0293 20.4343 31.2667 20.6361 30.504C20.8156 29.8087 21.152 29.1134 21.5782 28.5302C22.0044 27.947 22.4978 27.476 23.1034 27.0498C23.6866 26.6685 24.3595 26.3769 25.1221 26.2872C25.8174 26.1975 26.5352 26.2872 27.2754 26.4667C27.9483 26.7134 28.5987 27.0274 29.1595 27.476C29.7202 27.9246 30.1913 28.4854 30.595 29.1134C30.9763 29.8087 31.2455 30.504 31.3576 31.2891ZM28.1053 31.7601C28.0604 31.4685 27.9483 31.1545 27.8137 30.8629C27.6343 30.6162 27.4324 30.3919 27.2305 30.19C27.0062 30.033 26.7371 29.876 26.4679 29.7863C26.1763 29.719 25.8847 29.6741 25.6156 29.719C25.3016 29.7639 25.0324 29.876 24.853 30.0106C24.5838 30.19 24.3819 30.4143 24.2025 30.6162C24.023 30.8629 23.9333 31.1321 23.8436 31.4237C23.7539 31.7377 23.7315 32.0741 23.7539 32.3657C23.7987 32.6573 23.9109 32.9489 24.0903 33.1732C24.2473 33.4424 24.4044 33.6891 24.6511 33.8685C24.8978 34.048 25.1445 34.1601 25.4586 34.2498C25.6829 34.362 25.9744 34.4069 26.2885 34.362C26.5576 34.3171 26.8268 34.205 27.0959 34.0255C27.3202 33.8685 27.5445 33.6891 27.724 33.4424C27.8586 33.1956 28.0156 32.9265 28.1053 32.6125C28.1726 32.3433 28.195 32.0293 28.1726 31.7377L28.1053 31.7601ZM27.7016 23.9545L25.7277 9.8461L28.9576 9.39751L29.7202 14.7807L34.8118 14.0629L35.2829 17.4723L30.1913 18.19L30.9315 23.5059L27.7016 23.9545Z" fill="white"/>
<path d="M57.5781 9.12933L59.3277 3.79102" stroke="#5AC1B5" stroke-width="3" stroke-linecap="round" stroke-linejoin="round"/>
<path d="M62.4902 11.7753L66.1687 8.9043" stroke="#5AC1B5" stroke-width="3" stroke-linecap="round" stroke-linejoin="round"/>
<path d="M78.7742 26.1088C78.7742 24.0228 77.0919 22.3405 75.0059 22.3405H72.9199V20.2546C72.9199 18.1686 71.2377 16.4863 69.1517 16.4863C67.0657 16.4863 65.3835 18.1686 65.3835 20.2546V22.3405H63.2975C61.2115 22.3405 59.5293 24.0228 59.5293 26.1088C59.5293 28.1947 61.2115 29.877 63.2975 29.877H65.3835V31.963C65.3835 34.0489 67.0657 35.7312 69.1517 35.7312C71.2377 35.7312 72.9199 34.0489 72.9199 31.963V29.877H75.0059C77.0919 29.877 78.7742 28.1947 78.7742 26.1088Z" fill="#FFF100"/>
<path d="M78.7742 26.1088C78.7742 24.0228 77.0919 22.3405 75.0059 22.3405H72.9199V20.2546C72.9199 18.1686 71.2377 16.4863 69.1517 16.4863C67.0657 16.4863 65.3835 18.1686 65.3835 20.2546V22.3405H63.2975C61.2115 22.3405 59.5293 24.0228 59.5293 26.1088C59.5293 28.1947 61.2115 29.877 63.2975 29.877H65.3835V31.963C65.3835 34.0489 67.0657 35.7312 69.1517 35.7312C71.2377 35.7312 72.9199 34.0489 72.9199 31.963V29.877H75.0059C77.0919 29.877 78.7742 28.1947 78.7742 26.1088Z" stroke="#5AC1B5" stroke-width="3" stroke-linecap="round" stroke-linejoin="round"/>
<path d="M38.4219 36.4045L38.7583 33.2194L51.3191 34.5428L50.9826 37.7279L38.4219 36.4045ZM50.8032 25.4811C50.7135 26.2437 50.4892 26.8942 50.1527 27.5223C49.7938 28.1727 49.3677 28.6886 48.8742 29.0923C48.3583 29.5185 47.7751 29.855 47.1471 30.0568C46.4966 30.3036 45.8237 30.3708 45.1508 30.3036C44.4331 30.2363 43.7602 30.012 43.1994 29.6531C42.5714 29.3166 42.1004 28.868 41.6966 28.3522C41.2929 27.8587 40.9789 27.2755 40.7994 26.5578C40.5751 25.8624 40.5079 25.1671 40.5976 24.4269C40.6649 23.7092 40.8667 23.0363 41.248 22.3858C41.5845 21.7578 41.9882 21.2194 42.5041 20.7933C43.02 20.3895 43.5808 20.0755 44.2537 19.8288C44.8593 19.6269 45.577 19.5148 46.2948 19.5821C46.9901 19.6494 47.6181 19.8961 48.2013 20.2325C48.7621 20.6138 49.278 21.04 49.6817 21.5335C50.0854 22.0718 50.377 22.6774 50.6237 23.3727C50.8032 24.0905 50.8929 24.7858 50.8256 25.5036L50.8032 25.4811ZM47.7527 25.1671C47.7751 24.898 47.7527 24.5839 47.7079 24.2923C47.5957 24.0456 47.4611 23.8213 47.2817 23.597C47.1023 23.3727 46.9228 23.1708 46.7209 23.0138C46.4742 22.9241 46.1826 22.812 45.9135 22.7895C45.6219 22.7671 45.3527 22.7895 45.106 22.8344C44.8368 22.9466 44.5901 23.1036 44.3882 23.283C44.1415 23.4624 43.9621 23.6643 43.8723 23.8886C43.7153 24.1578 43.648 24.4494 43.6256 24.7409C43.6032 25.055 43.6032 25.3241 43.6929 25.5933C43.7378 25.8849 43.8723 26.1316 44.0742 26.3335C44.2088 26.5802 44.4331 26.7821 44.6798 26.8718C44.9041 27.0288 45.1508 27.0961 45.4424 27.1185C45.7116 27.1409 45.9583 27.1185 46.2499 27.0288C46.5191 26.9839 46.7434 26.8494 46.9452 26.6251C47.1695 26.468 47.349 26.2437 47.506 25.997C47.5957 25.7727 47.6854 25.5036 47.7303 25.1895L47.7527 25.1671ZM52.7097 37.9073L54.6163 19.6718L57.6443 19.9858L55.7378 38.2213L52.7097 37.9073Z" fill="white"/>
</g>
<defs>
<clipPath id="clip0_10608_9378">
<rect width="80.4561" height="48" fill="white"/>
</clipPath>
</defs>
</svg>
