<svg width="412" height="171" viewBox="0 0 412 171" fill="none" xmlns="http://www.w3.org/2000/svg">
<g clip-path="url(#clip0_9373_50921)">
<path d="M411.692 85.8844C411.692 38.9552 373.826 0.948242 327.037 0.948242C303.362 0.948242 281.934 10.7837 266.549 26.5204C251.163 10.7837 229.807 0.948242 206.061 0.948242C182.315 0.948242 160.958 10.7837 145.573 26.5204C130.258 10.7837 108.83 0.948242 85.1551 0.948242C38.3665 0.948242 0.5 38.9552 0.5 85.8844C0.5 132.814 38.3665 170.821 85.1551 170.821C108.83 170.821 130.258 160.985 145.643 145.248C161.029 160.985 182.386 170.821 206.131 170.821C229.877 170.821 251.234 160.985 266.619 145.248C282.005 160.985 303.362 170.821 327.107 170.821C373.826 170.821 411.762 132.814 411.762 85.8844" fill="#FBB785"/>
<path d="M344.957 133.516L348.54 142.298" stroke="#FEE0C8" stroke-width="10.538" stroke-linecap="round" stroke-linejoin="round"/>
<path d="M377.831 103.448L386.401 108.436" stroke="#FEE0C8" stroke-width="10.538" stroke-linecap="round" stroke-linejoin="round"/>
<path d="M363.078 121.363L370.455 129.934" stroke="#FEE0C8" stroke-width="10.538" stroke-linecap="round" stroke-linejoin="round"/>
</g>
<defs>
<clipPath id="clip0_9373_50921">
<rect width="411.192" height="169.872" fill="white" transform="translate(0.5 0.947754)"/>
</clipPath>
</defs>
</svg>
