<svg width="412" height="535" viewBox="0 0 412 535" fill="none" xmlns="http://www.w3.org/2000/svg">
<g clip-path="url(#clip0_11230_24323)">
<path d="M411.378 85.8839C411.378 38.9547 373.512 0.947754 326.723 0.947754C303.048 0.947754 281.621 10.7832 266.235 26.5199C250.85 10.7832 229.493 0.947754 205.747 0.947754C182.002 0.947754 160.645 10.7832 145.259 26.5199C129.944 10.7832 108.517 0.947754 84.8414 0.947754C38.0528 0.947754 0.186279 38.9547 0.186279 85.8839C0.186279 132.813 38.0528 170.82 84.8414 170.82C108.517 170.82 129.944 160.985 145.329 145.248C160.715 160.985 182.072 170.82 205.817 170.82C229.563 170.82 250.92 160.985 266.305 145.248C281.691 160.985 303.048 170.82 326.794 170.82C373.512 170.82 411.449 132.813 411.449 85.8839" fill="#FBB785"/>
<path d="M344.643 133.516L348.226 142.297" stroke="#FEE0C8" stroke-width="10.538" stroke-linecap="round" stroke-linejoin="round"/>
<path d="M377.517 103.447L386.088 108.435" stroke="#FEE0C8" stroke-width="10.538" stroke-linecap="round" stroke-linejoin="round"/>
<path d="M362.765 121.362L370.141 129.933" stroke="#FEE0C8" stroke-width="10.538" stroke-linecap="round" stroke-linejoin="round"/>
</g>
<path d="M342.921 166.94C338.998 189.096 352.599 196.877 361.751 203.872L338.82 226.623L342.225 280.654C359.589 269.956 369.953 258.697 379.441 245.303C399.347 217.203 401.903 185.163 397.692 174.452C369.174 136.019 348.497 152.366 342.921 166.94Z" fill="#2AC4A4"/>
<path d="M125.511 352.779C123.783 330.345 113.074 327.986 102.466 323.495L107.646 300.981L97.8188 242.486C83.672 257.178 76.4442 270.666 70.5974 286.004C58.3308 318.181 63.8485 349.845 70.5974 359.167C107.801 389.271 123.747 368.283 125.511 352.779Z" fill="#2AC4A4"/>
<path d="M281.328 502.138L281.74 360.062L237.421 383.409V512.799C237.421 531.435 255.964 531.396 267.346 531.961C293.633 531.961 297.736 524.345 297.736 517.568C297.736 506.726 287.556 502.703 281.328 502.138Z" fill="#2AC4A4" stroke="#0A0508" stroke-width="6.03153" stroke-linecap="round" stroke-linejoin="round"/>
<path d="M169.387 502.138L168.976 360.062L213.294 383.409V512.799C213.294 531.435 194.751 531.396 183.369 531.961C157.082 531.961 152.979 524.345 152.979 517.568C152.979 506.726 163.159 502.703 169.387 502.138Z" fill="#2AC4A4" stroke="#0A0508" stroke-width="6.03153" stroke-linecap="round" stroke-linejoin="round"/>
<circle cx="225.359" cy="259.789" r="128.17" fill="#2AC4A4" stroke="black" stroke-width="6.03153"/>
<circle cx="203.494" cy="197.966" r="6.03153" fill="black"/>
<circle cx="245.715" cy="197.966" r="6.03153" fill="black"/>
<path d="M220.08 198.723L230.635 198.723" stroke="black" stroke-width="6.03153" stroke-linecap="round"/>
<circle cx="195.954" cy="197.968" r="24.1261" stroke="black" stroke-width="6.03153"/>
<circle cx="195.954" cy="197.968" r="24.1261" stroke="black" stroke-width="6.03153"/>
<circle cx="254.762" cy="197.968" r="24.1261" stroke="black" stroke-width="6.03153"/>
<circle cx="254.762" cy="197.968" r="24.1261" stroke="black" stroke-width="6.03153"/>
<path d="M257.778 246.219C245.117 254.426 225.359 253.745 225.359 253.745C225.359 253.745 205.6 254.426 192.939 246.219" stroke="black" stroke-width="6.03153" stroke-linecap="round"/>
<path d="M384.184 138.674L385.692 136.062L383.08 134.554L375.245 130.031L372.633 128.523L371.126 131.135L334.182 195.122C333.055 197.075 332.567 199.284 332.815 201.347C333.064 203.41 334.1 205.521 336.188 206.727C338.276 207.933 340.623 207.774 342.534 206.958C344.444 206.142 346.114 204.614 347.241 202.661L384.184 138.674Z" fill="#6A6A6A" stroke="black" stroke-width="6.03153"/>
<path d="M374.149 125.897L371.879 129.829C370.838 131.632 371.456 133.937 373.259 134.978L379.788 138.748C381.591 139.789 383.897 139.171 384.938 137.368L387.208 133.437C387.469 132.984 387.643 132.468 387.749 132.129C387.876 131.727 388 131.264 388.119 130.779C388.359 129.806 388.611 128.615 388.854 127.384C389.34 124.914 389.815 122.152 390.114 120.36C390.686 116.929 386.705 114.631 384.02 116.842C382.617 117.997 380.463 119.789 378.568 121.445C377.623 122.271 376.718 123.085 375.995 123.779C375.634 124.125 375.295 124.464 375.01 124.775C374.77 125.036 374.41 125.444 374.149 125.897Z" fill="white" stroke="black" stroke-width="6.03153" stroke-linejoin="round"/>
<path d="M400.304 190.375C394.811 193.637 382.218 202.347 372.749 205.495L357.586 199.64L342.661 188.389C337.891 174.297 340.368 147.883 373.934 151.228C380.963 153.039 389.386 154.195 397.838 180.384L400.304 190.375Z" fill="#2AC4A4"/>
<path d="M370.093 205.601C362.338 205.012 341.628 196.05 340.406 178.915C339.707 169.102 343.735 153.444 361.601 150.717C379.468 147.99 398.922 164.298 400.571 194.412C401.341 208.46 388.835 239.516 364.708 263.284C360.228 267.698 356.349 271.501 352.975 274.866" stroke="black" stroke-width="6.03153" stroke-linecap="round"/>
<path d="M359.939 202.867C359.169 206.1 353.788 214.626 347.497 218.65" stroke="black" stroke-width="6.03153"/>
<rect width="72.3783" height="90.4729" rx="3.29446" transform="matrix(-0.285322 -0.958432 0.958445 -0.285277 95.0594 428.425)" fill="#444444" stroke="black" stroke-width="6.03153"/>
<circle cx="149.587" cy="355.082" r="4.52364" transform="rotate(103.422 149.587 355.082)" fill="black"/>
<circle cx="137.011" cy="359.057" r="4.52364" transform="rotate(103.422 137.011 359.057)" fill="black"/>
<path d="M64.6533 346.536C69.1586 342.007 79.1811 330.431 87.5659 325.02L103.71 326.907L120.969 334.08C129.104 346.536 133.294 372.734 99.9554 377.867C92.6967 377.867 84.2512 378.849 69.534 355.596L64.6533 346.536Z" fill="#2AC4A4"/>
<path d="M90.1124 324.256C97.7693 322.891 120.06 326.404 125.518 342.693C128.643 352.021 128.648 368.188 112.027 375.286C95.4055 382.384 72.4983 371.444 63.3888 342.694C59.1394 329.282 63.5029 296.088 80.9381 267.053C90.6573 250.867 96.4993 241.359 99.8251 233.4" stroke="black" stroke-width="6.03153" stroke-linecap="round"/>
<path d="M106.407 311.054C104.522 313.316 102.637 321.232 105.275 326.133" stroke="black" stroke-width="6.03153"/>
<defs>
<clipPath id="clip0_11230_24323">
<rect width="411.192" height="169.872" fill="white" transform="translate(0.186279 0.947266)"/>
</clipPath>
</defs>
</svg>
