<svg width="240" height="240" viewBox="0 0 240 240" fill="none" xmlns="http://www.w3.org/2000/svg">
<path d="M164.149 136.486C165.012 125.279 172.561 123.209 177.86 120.965L173.073 110.609L177.983 81.3865C185.05 88.7263 188.661 95.4647 191.582 103.127C197.71 119.202 194.953 135.02 191.582 139.677C172.996 154.716 165.03 144.231 164.149 136.486Z" fill="#2AC4A4"/>
<path d="M64.3905 136.486C63.5273 125.279 58.1773 124.1 52.8777 121.856L55.4656 110.609L50.5563 81.3865C43.489 88.7263 39.8782 95.4647 36.9573 103.127C30.8292 119.202 33.5857 135.02 36.9573 139.677C55.5433 154.716 63.5095 144.231 64.3905 136.486Z" fill="#2AC4A4"/>
<path d="M142.231 211.102L142.436 140.125L120.296 151.788V216.428C120.296 225.738 129.56 225.719 135.246 226.001C148.378 226.001 150.428 222.196 150.428 218.811C150.428 213.394 145.342 211.384 142.231 211.102Z" fill="#2AC4A4" stroke="#0A0508" stroke-width="3.01318" stroke-linecap="round" stroke-linejoin="round"/>
<path d="M86.3094 211.102L86.1037 140.125L108.244 151.788V216.428C108.244 225.738 98.9804 225.719 93.2941 226.001C80.162 226.001 78.1122 222.196 78.1123 218.811C78.1123 213.394 83.198 211.384 86.3094 211.102Z" fill="#2AC4A4" stroke="#0A0508" stroke-width="3.01318" stroke-linecap="round" stroke-linejoin="round"/>
<circle cx="114.27" cy="90.0301" r="64.0301" fill="#2AC4A4" stroke="black" stroke-width="3.01318"/>
<path d="M130.466 83.25C124.141 87.3499 114.27 87.0096 114.27 87.0096C114.27 87.0096 104.399 87.3499 98.0742 83.25" stroke="black" stroke-width="3.01318" stroke-linecap="round"/>
<circle cx="103.349" cy="59.144" r="3.01318" fill="black"/>
<circle cx="124.441" cy="59.144" r="3.01318" fill="black"/>
<path d="M111.634 59.5195L116.907 59.5195" stroke="black" stroke-width="3.01318" stroke-linecap="round"/>
<circle cx="99.581" cy="59.1426" r="12.0527" stroke="black" stroke-width="3.01318"/>
<circle cx="99.581" cy="59.1426" r="12.0527" stroke="black" stroke-width="3.01318"/>
<circle cx="128.96" cy="59.1426" r="12.0527" stroke="black" stroke-width="3.01318"/>
<circle cx="128.96" cy="59.1426" r="12.0527" stroke="black" stroke-width="3.01318"/>
<path d="M197.279 54.5686C198.943 51.6862 202.629 50.6987 205.511 52.3628C208.393 54.0269 209.381 57.7126 207.717 60.595L196.701 79.6753C196.544 79.9464 196.198 80.0393 195.926 79.8827L186.47 74.4232C186.199 74.2667 186.106 73.92 186.263 73.6489L197.279 54.5686Z" fill="#FFDE6A" stroke="black" stroke-width="3.01318"/>
<path d="M164.813 106.285L179.166 114.571L154.684 156.976L143.946 168.293C142.425 169.895 140.004 170.246 138.091 169.142C136.178 168.037 135.272 165.765 135.899 163.647L140.331 148.689L164.813 106.285Z" fill="#FFDE6A" stroke="black" stroke-width="3.01318"/>
<path d="M147.981 151.051L140.824 148.414L135.553 166.87L141.579 169.695L155.138 156.889L147.981 151.051Z" fill="white"/>
<path d="M164.813 106.285L179.166 114.571L154.684 156.976L143.946 168.293C142.425 169.895 140.004 170.246 138.091 169.142V169.142C136.178 168.037 135.272 165.765 135.899 163.647L140.331 148.689L164.813 106.285Z" stroke="black" stroke-width="3.01318"/>
<path d="M184.703 67.3149C187.615 62.2707 194.065 60.5425 199.109 63.4547C204.153 66.3669 205.881 72.8169 202.969 77.861L181.66 114.769C181.364 115.282 180.707 115.458 180.193 115.162L163.787 105.689C163.273 105.393 163.097 104.736 163.394 104.222L184.703 67.3149Z" fill="white" stroke="black" stroke-width="3.01318"/>
<path d="M140.332 148.688C140.332 148.688 145.413 149.881 148.261 151.526C151.109 153.17 154.684 156.974 154.684 156.974" stroke="black" stroke-width="3.01318" stroke-linecap="round"/>
<path d="M194.551 133.374C192.3 131.111 187.293 125.328 183.104 122.625L175.039 123.568L166.417 127.151C162.353 133.374 160.26 146.461 176.915 149.026C180.541 149.026 184.76 149.516 192.113 137.9L194.551 133.374Z" fill="#2AC4A4"/>
<path d="M181.831 122.239C178.006 121.557 166.87 123.312 164.144 131.45C162.583 136.11 162.58 144.186 170.884 147.732C179.187 151.278 190.631 145.813 195.182 131.45C196.972 125.798 195.702 113.115 190.032 100.578" stroke="black" stroke-width="3.01318" stroke-linecap="round"/>
<path d="M33.9853 133.37C36.236 131.107 41.243 125.324 45.4318 122.621L53.4968 123.564L62.1192 127.147C66.183 133.37 68.2765 146.457 51.6212 149.022C47.995 149.022 43.7759 149.512 36.4236 137.896L33.9853 133.37Z" fill="#2AC4A4"/>
<path d="M46.7025 122.238C50.5277 121.557 61.6637 123.312 64.3901 131.449C65.9513 136.109 65.9539 144.186 57.6503 147.732C49.3468 151.278 37.903 145.813 33.3522 131.45C31.2293 124.75 33.4092 108.167 42.1193 93.6616C46.9747 85.5753 49.8932 80.8257 51.5547 76.8496" stroke="black" stroke-width="3.01318" stroke-linecap="round"/>
<path d="M54.8436 115.646C53.902 116.776 52.9603 120.731 54.2785 123.179" stroke="black" stroke-width="3.01318"/>
</svg>
