<svg width="40" height="40" viewBox="0 0 40 40" fill="none" xmlns="http://www.w3.org/2000/svg">
<circle cx="20" cy="20" r="20" fill="url(#paint0_linear_9395_306428)"/>
<path d="M5.46735 23.8896C5.11964 23.9784 4.81118 23.6491 4.92356 23.309L7.56696 15.3097C7.67104 14.9954 8.06639 14.8942 8.30866 15.1198L14.4711 20.8645C14.733 21.1088 14.6208 21.5458 14.2731 21.635L11.575 22.3258C12.9875 27.3992 18.2031 30.435 23.3294 29.1227C24.3994 28.8487 25.489 29.4941 25.7629 30.5641C26.0369 31.6342 25.3916 32.7237 24.3215 32.9977C17.0551 34.8579 9.65805 30.5322 7.69718 23.3186L5.46735 23.8896Z" fill="white"/>
<path d="M35.0336 14.5719C35.3813 14.483 35.6898 14.8123 35.5774 15.1524L32.934 23.1518C32.8299 23.466 32.4346 23.5672 32.1923 23.3417L26.0299 17.5969C25.7679 17.3527 25.8802 16.9156 26.2278 16.8265L28.926 16.1356C27.5135 11.0622 22.2978 8.02646 17.1716 9.33872C16.1016 9.61269 15.012 8.96734 14.738 7.89729C14.4641 6.82724 15.1094 5.73769 16.1795 5.46372C23.4459 3.60349 30.8429 7.92919 32.8038 15.1428L35.0336 14.5719Z" fill="white"/>
<defs>
<linearGradient id="paint0_linear_9395_306428" x1="0" y1="20" x2="40" y2="20" gradientUnits="userSpaceOnUse">
<stop stop-color="#3B71FE"/>
<stop offset="1" stop-color="#07BBA9"/>
</linearGradient>
</defs>
</svg>
