<svg width="36" height="36" viewBox="0 0 36 36" fill="none" xmlns="http://www.w3.org/2000/svg">
<g id="ic_cancel">
<path id="Union" fill-rule="evenodd" clip-rule="evenodd" d="M6.58579 26.1496C5.80474 26.9307 5.80474 28.197 6.58579 28.978C7.36683 29.7591 8.63316 29.7591 9.41421 28.978L17.6836 20.7087L26.1496 29.1747C26.9307 29.9558 28.197 29.9558 28.978 29.1747C29.7591 28.3937 29.7591 27.1274 28.978 26.3463L20.512 17.8803L28.978 9.41421C29.7591 8.63317 29.7591 7.36684 28.978 6.58579C28.197 5.80474 26.9307 5.80474 26.1496 6.58579L17.6836 15.0518L9.41421 6.78249C8.63317 6.00144 7.36683 6.00144 6.58579 6.78249C5.80474 7.56354 5.80474 8.82987 6.58579 9.61091L14.8551 17.8803L6.58579 26.1496Z" fill="#222222"/>
</g>
</svg>
