<svg width="35" height="36" viewBox="0 0 35 36" fill="none" xmlns="http://www.w3.org/2000/svg">
<path fill-rule="evenodd" clip-rule="evenodd" d="M29.692 15.312C28.8963 15.312 28.2452 15.9593 28.2452 16.7504V31.6467C28.2452 31.9075 28.0282 32.1232 27.766 32.1232H4.37287C4.11064 32.1232 3.89362 31.9075 3.89362 31.6467V8.38974C3.89362 8.12903 4.11064 7.91327 4.37287 7.91327H18.4702C19.266 7.91327 19.917 7.266 19.917 6.47488C19.917 5.68376 19.266 5.03649 18.4702 5.03649H4.37287C2.51011 5.03649 1 6.53781 1 8.38974V31.6467C1 33.4987 2.51011 35 4.37287 35H27.766C29.6287 35 31.1388 33.4987 31.1388 31.6467V16.7504C31.1388 15.9593 30.4878 15.312 29.692 15.312Z" fill="white"/>
<path fill-rule="evenodd" clip-rule="evenodd" d="M18.5697 13.0825C18.0814 13.0915 17.6383 13.3432 17.3851 13.7478L14.9798 17.5056L13.3612 15.8964C13.0628 15.6087 12.6468 15.4558 12.2309 15.4828C11.8059 15.5188 11.4261 15.7255 11.1729 16.0582L6.83245 23.7626C6.50692 24.1941 6.45266 24.7784 6.69681 25.2639C6.94096 25.7493 7.4383 26.055 7.98989 26.055H24.2122C24.7548 26.055 25.2521 25.7493 25.4963 25.2729C25.7404 24.7964 25.7043 24.221 25.3878 23.7805L19.7814 13.6848C19.5101 13.2983 19.0489 13.0735 18.5697 13.0825ZM21.9426 23.1782H10.3319L12.484 19.1058L14.1931 20.8049C14.5096 21.1105 14.9436 21.2634 15.3777 21.2184C15.8207 21.1735 16.2096 20.9307 16.4447 20.5621L18.6691 17.092L21.9426 23.1782Z" fill="white"/>
<path fill-rule="evenodd" clip-rule="evenodd" d="M33.5532 5.03649H31.1388V2.43839C31.1388 1.64728 30.4878 1 29.692 1C28.8963 1 28.2452 1.64728 28.2452 2.43839V5.03649H25.8399C25.0441 5.03649 24.3931 5.68376 24.3931 6.47488C24.3931 7.266 25.0351 7.91327 25.8399 7.91327H28.2452V10.1068C28.2452 10.8979 28.8963 11.5452 29.692 11.5452C30.4878 11.5452 31.1388 10.8979 31.1388 10.1068V7.91327H33.5532C34.3489 7.91327 35 7.266 35 6.47488C35 5.68376 34.3489 5.03649 33.5532 5.03649Z" fill="white"/>
</svg>
