<svg width="42" height="42" viewBox="0 0 42 42" fill="none" xmlns="http://www.w3.org/2000/svg">
<path d="M1.71443 20.7116C1.71443 10.0604 10.3489 1.42585 21.0001 1.42585C31.6513 1.42585 40.2859 10.0604 40.2859 20.7116C40.2859 31.3628 31.6513 39.9973 21.0001 39.9973H1.71443V20.7116Z" fill="white"/>
<path d="M1.71443 20.7116C1.71443 10.0604 10.3489 1.42585 21.0001 1.42585C31.6513 1.42585 40.2859 10.0604 40.2859 20.7116C40.2859 31.3628 31.6513 39.9973 21.0001 39.9973H1.71443V20.7116Z" stroke="#00B9AD" stroke-width="2.57143"/>
<path d="M26.9124 31.0527C26.9124 31.3127 26.8604 31.4861 26.7564 31.5727C26.6524 31.6594 26.479 31.7027 26.2364 31.7027H12.9764C12.7337 31.7027 12.5777 31.6681 12.5084 31.5987C12.4564 31.5294 12.4304 31.3734 12.4304 31.1307V28.1147C12.4304 27.9587 12.439 27.8287 12.4564 27.7247C12.4737 27.6207 12.4997 27.5254 12.5344 27.4387C12.5864 27.3521 12.647 27.2654 12.7164 27.1787C12.7857 27.0921 12.881 26.9881 13.0024 26.8667L17.0584 22.7847C18.5317 21.3114 19.6757 19.9594 20.4904 18.7287C21.3224 17.4807 21.7384 16.3107 21.7384 15.2187C21.7384 14.6641 21.669 14.2047 21.5304 13.8407C21.3917 13.4767 21.175 13.1907 20.8804 12.9827C20.5857 12.7747 20.2044 12.6361 19.7364 12.5667C19.2684 12.4801 18.7137 12.4454 18.0724 12.4627C17.6737 12.4801 17.2664 12.5147 16.8504 12.5667C16.4517 12.6187 16.053 12.6794 15.6544 12.7487C15.2557 12.8007 14.883 12.8614 14.5364 12.9307C14.1897 13.0001 13.8864 13.0607 13.6264 13.1127C13.3317 13.1821 13.1237 13.1734 13.0024 13.0867C12.881 12.9827 12.8117 12.7921 12.7944 12.5147L12.5864 9.73272C12.569 9.47272 12.6037 9.28206 12.6904 9.16073C12.7944 9.02206 13.0024 8.92672 13.3144 8.87472C13.609 8.82272 13.973 8.76206 14.4064 8.69273C14.8397 8.60606 15.3164 8.52806 15.8364 8.45873C16.3737 8.37206 16.9284 8.30273 17.5004 8.25072C18.0897 8.18139 18.679 8.14672 19.2684 8.14672C21.8164 8.14672 23.6624 8.69272 24.8064 9.78473C25.9504 10.8767 26.5224 12.4627 26.5224 14.5427C26.5224 15.4094 26.4357 16.2327 26.2624 17.0127C26.1064 17.7754 25.8377 18.5381 25.4564 19.3007C25.0924 20.0634 24.607 20.8347 24.0004 21.6147C23.411 22.3947 22.6917 23.2181 21.8424 24.0847L18.6444 27.3867H26.2364C26.479 27.3867 26.6524 27.4301 26.7564 27.5167C26.8604 27.6034 26.9124 27.7767 26.9124 28.0367V31.0527Z" fill="#00646B"/>
</svg>
