<svg width="93" height="48" viewBox="0 0 93 48" fill="none" xmlns="http://www.w3.org/2000/svg">
<path d="M17 40.9375H1.0625V25C1.0625 16.198 8.19796 9.0625 17 9.0625C25.802 9.0625 32.9375 16.198 32.9375 25C32.9375 33.802 25.802 40.9375 17 40.9375Z" fill="white"/>
<path d="M17 40.9375H1.0625V25C1.0625 16.198 8.19796 9.0625 17 9.0625C25.802 9.0625 32.9375 16.198 32.9375 25C32.9375 33.802 25.802 40.9375 17 40.9375Z" stroke="#00B9AD" stroke-width="2.125"/>
<path d="M11.9316 23.5087C11.9316 23.2901 11.9753 23.1444 12.0627 23.0716C12.1501 22.9987 12.2959 22.9623 12.4999 22.9623H15.7129C16.0334 22.9623 16.3394 22.9113 16.6309 22.8093C16.9223 22.7073 17.1773 22.5616 17.3959 22.3721C17.6144 22.1681 17.782 21.9277 17.8986 21.6509C18.0297 21.374 18.0953 21.0607 18.0953 20.711C18.0953 19.9679 17.833 19.3923 17.3084 18.9843C16.7984 18.5617 16.1281 18.3504 15.2976 18.3504C14.5836 18.3504 13.8769 18.3941 13.1774 18.4816C12.4926 18.569 11.9389 18.6637 11.5163 18.7657C11.0063 18.8823 10.7221 18.6856 10.6639 18.1756L10.4453 16.0336C10.4016 15.5819 10.5837 15.3269 10.9917 15.2686C11.2394 15.2249 11.5527 15.1739 11.9316 15.1156C12.3104 15.0427 12.7257 14.9844 13.1774 14.9407C13.6291 14.8824 14.11 14.8314 14.62 14.7877C15.13 14.744 15.64 14.7221 16.15 14.7221C17.1554 14.7221 18.0297 14.8387 18.7729 15.0719C19.5306 15.2904 20.1571 15.6037 20.6526 16.0117C21.1626 16.4197 21.5414 16.9006 21.7891 17.4543C22.0369 18.008 22.1607 18.62 22.1607 19.2903C22.1607 19.6983 22.1389 20.1136 22.0951 20.5361C22.066 20.9587 21.9786 21.3813 21.8329 21.8039C21.6871 22.2119 21.4686 22.6199 21.1771 23.0279C20.8857 23.4359 20.4777 23.8366 19.9531 24.23C20.4486 24.5651 20.8566 24.9076 21.1771 25.2573C21.5123 25.607 21.7746 25.9786 21.964 26.372C22.1534 26.7654 22.2846 27.1953 22.3574 27.6616C22.4449 28.1279 22.4886 28.6379 22.4886 29.1916C22.4886 30.0221 22.3429 30.7726 22.0514 31.4429C21.7746 32.1277 21.3593 32.7106 20.8056 33.1914C20.2664 33.6869 19.5961 34.0657 18.7947 34.328C18.0079 34.6049 17.1044 34.7433 16.0844 34.7433C15.5744 34.7433 15.0499 34.7214 14.5107 34.6777C13.9861 34.634 13.4761 34.583 12.9807 34.5247C12.4853 34.4664 12.019 34.4009 11.5819 34.328C11.1593 34.2697 10.8023 34.2187 10.5109 34.175C10.2194 34.1313 10.03 34.0511 9.94257 33.9346C9.86971 33.818 9.84786 33.6359 9.877 33.3881L10.1174 31.0931C10.1466 30.86 10.2194 30.7143 10.336 30.656C10.4526 30.5831 10.642 30.5831 10.9043 30.656C11.1666 30.7289 11.4799 30.7944 11.8441 30.8527C12.223 30.8964 12.6164 30.9401 13.0244 30.9839C13.447 31.0276 13.8696 31.0567 14.2921 31.0713C14.7293 31.1004 15.1373 31.115 15.5161 31.115C17.4687 31.115 18.445 30.2917 18.445 28.6451C18.445 27.9457 18.19 27.4284 17.68 27.0933C17.1846 26.7581 16.5289 26.5906 15.7129 26.5906H12.4999C12.2959 26.5906 12.1501 26.5541 12.0627 26.4813C11.9753 26.4084 11.9316 26.2627 11.9316 26.0441V23.5087Z" fill="#00646B"/>
<path d="M38.9688 24.9688C40.0312 23.8438 41.375 23.2656 42.8438 23.25C45.4062 23.2656 47.5781 25.0312 50.1562 25.0312C51.6094 25.0312 52.9062 24.4531 53.9375 23.3125V27.125C52.875 28.25 51.5312 28.8438 50.0625 28.8438C47.5 28.8438 45.3125 27.0781 42.75 27.0625C41.2969 27.0781 40 27.6562 38.9688 28.7812V24.9688Z" fill="#222222"/>
<path d="M76 40.9375H60.0625V25C60.0625 16.198 67.198 9.0625 76 9.0625C84.802 9.0625 91.9375 16.198 91.9375 25C91.9375 33.802 84.802 40.9375 76 40.9375Z" fill="white"/>
<path d="M76 40.9375H60.0625V25C60.0625 16.198 67.198 9.0625 76 9.0625C84.802 9.0625 91.9375 16.198 91.9375 25C91.9375 33.802 84.802 40.9375 76 40.9375Z" stroke="#00B9AD" stroke-width="2.125"/>
<path d="M80.5487 18.0007C80.5487 18.2193 80.505 18.365 80.4176 18.4379C80.3301 18.5107 80.1844 18.5471 79.9804 18.5471H73.1829L72.9861 22.241C73.4087 22.139 73.7657 22.0661 74.0571 22.0224C74.3486 21.9787 74.7056 21.9569 75.1281 21.9569C77.1681 21.9569 78.7127 22.4231 79.7619 23.3557C80.811 24.2737 81.3356 25.76 81.3356 27.8146C81.3356 28.8929 81.1826 29.8546 80.8766 30.6997C80.5706 31.5303 80.1261 32.2297 79.5433 32.798C78.975 33.3663 78.2829 33.7961 77.4669 34.0876C76.6509 34.3936 75.7329 34.5466 74.7129 34.5466C74.1737 34.5466 73.6419 34.5247 73.1173 34.481C72.5927 34.4373 72.09 34.379 71.6091 34.3061C71.1283 34.2333 70.6766 34.1604 70.254 34.0876C69.846 34.0147 69.489 33.9419 69.183 33.869C68.9207 33.8107 68.7459 33.7233 68.6584 33.6067C68.571 33.4901 68.5419 33.308 68.571 33.0603L68.8551 30.7871C68.8843 30.5394 68.9571 30.3937 69.0737 30.35C69.2049 30.2917 69.3724 30.2771 69.5764 30.3063C69.8679 30.3646 70.1957 30.4301 70.56 30.503C70.9243 30.5613 71.3104 30.6196 71.7184 30.6779C72.141 30.7361 72.5709 30.7871 73.008 30.8309C73.4597 30.86 73.9041 30.8746 74.3413 30.8746C74.8076 30.8746 75.2229 30.8309 75.5871 30.7434C75.9514 30.656 76.2574 30.503 76.5051 30.2844C76.7674 30.0659 76.9641 29.7744 77.0953 29.4101C77.241 29.0459 77.3139 28.5869 77.3139 28.0331C77.3139 27.2171 77.0807 26.6124 76.6144 26.219C76.1481 25.811 75.507 25.607 74.691 25.607C74.2539 25.607 73.8531 25.6289 73.4889 25.6726C73.1391 25.7163 72.7603 25.7964 72.3523 25.913C72.0463 25.9859 71.784 26.0004 71.5654 25.9567L69.7076 25.5633C69.3724 25.4904 69.1611 25.3374 69.0737 25.1043C68.9863 24.8711 68.9571 24.6016 68.9863 24.2956L69.4671 16.3614C69.4963 15.7931 69.6056 15.4143 69.795 15.2249C69.9844 15.0209 70.356 14.9189 70.9097 14.9189H79.9804C80.1844 14.9189 80.3301 14.9553 80.4176 15.0281C80.505 15.101 80.5487 15.2467 80.5487 15.4653V18.0007Z" fill="#00646B"/>
</svg>
