<svg width="34" height="44" viewBox="0 0 34 44" fill="none" xmlns="http://www.w3.org/2000/svg">
<path d="M17 38.9375H1.0625V23C1.0625 14.198 8.19796 7.0625 17 7.0625C25.802 7.0625 32.9375 14.198 32.9375 23C32.9375 31.802 25.802 38.9375 17 38.9375Z" fill="white"/>
<path d="M17 38.9375H1.0625V23C1.0625 14.198 8.19796 7.0625 17 7.0625C25.802 7.0625 32.9375 14.198 32.9375 23C32.9375 31.802 25.802 38.9375 17 38.9375Z" stroke="#00B9AD" stroke-width="2.125"/>
<path d="M11.9316 21.5087C11.9316 21.2901 11.9753 21.1444 12.0627 21.0716C12.1501 20.9987 12.2959 20.9623 12.4999 20.9623H15.7129C16.0334 20.9623 16.3394 20.9113 16.6309 20.8093C16.9223 20.7073 17.1773 20.5616 17.3959 20.3721C17.6144 20.1681 17.782 19.9277 17.8986 19.6509C18.0297 19.374 18.0953 19.0607 18.0953 18.711C18.0953 17.9679 17.833 17.3923 17.3084 16.9843C16.7984 16.5617 16.1281 16.3504 15.2976 16.3504C14.5836 16.3504 13.8769 16.3941 13.1774 16.4816C12.4926 16.569 11.9389 16.6637 11.5163 16.7657C11.0063 16.8823 10.7221 16.6856 10.6639 16.1756L10.4453 14.0336C10.4016 13.5819 10.5837 13.3269 10.9917 13.2686C11.2394 13.2249 11.5527 13.1739 11.9316 13.1156C12.3104 13.0427 12.7257 12.9844 13.1774 12.9407C13.6291 12.8824 14.11 12.8314 14.62 12.7877C15.13 12.744 15.64 12.7221 16.15 12.7221C17.1554 12.7221 18.0297 12.8387 18.7729 13.0719C19.5306 13.2904 20.1571 13.6037 20.6526 14.0117C21.1626 14.4197 21.5414 14.9006 21.7891 15.4543C22.0369 16.008 22.1607 16.62 22.1607 17.2903C22.1607 17.6983 22.1389 18.1136 22.0951 18.5361C22.066 18.9587 21.9786 19.3813 21.8329 19.8039C21.6871 20.2119 21.4686 20.6199 21.1771 21.0279C20.8857 21.4359 20.4777 21.8366 19.9531 22.23C20.4486 22.5651 20.8566 22.9076 21.1771 23.2573C21.5123 23.607 21.7746 23.9786 21.964 24.372C22.1534 24.7654 22.2846 25.1953 22.3574 25.6616C22.4449 26.1279 22.4886 26.6379 22.4886 27.1916C22.4886 28.0221 22.3429 28.7726 22.0514 29.4429C21.7746 30.1277 21.3593 30.7106 20.8056 31.1914C20.2664 31.6869 19.5961 32.0657 18.7947 32.328C18.0079 32.6049 17.1044 32.7433 16.0844 32.7433C15.5744 32.7433 15.0499 32.7214 14.5107 32.6777C13.9861 32.634 13.4761 32.583 12.9807 32.5247C12.4853 32.4664 12.019 32.4009 11.5819 32.328C11.1593 32.2697 10.8023 32.2187 10.5109 32.175C10.2194 32.1313 10.03 32.0511 9.94257 31.9346C9.86971 31.818 9.84786 31.6359 9.877 31.3881L10.1174 29.0931C10.1466 28.86 10.2194 28.7143 10.336 28.656C10.4526 28.5831 10.642 28.5831 10.9043 28.656C11.1666 28.7289 11.4799 28.7944 11.8441 28.8527C12.223 28.8964 12.6164 28.9401 13.0244 28.9839C13.447 29.0276 13.8696 29.0567 14.2921 29.0713C14.7293 29.1004 15.1373 29.115 15.5161 29.115C17.4687 29.115 18.445 28.2917 18.445 26.6451C18.445 25.9457 18.19 25.4284 17.68 25.0933C17.1846 24.7581 16.5289 24.5906 15.7129 24.5906H12.4999C12.2959 24.5906 12.1501 24.5541 12.0627 24.4813C11.9753 24.4084 11.9316 24.2627 11.9316 24.0441V21.5087Z" fill="#00646B"/>
</svg>
