<svg width="40" height="40" viewBox="0 0 40 40" fill="none" xmlns="http://www.w3.org/2000/svg">
<path fill-rule="evenodd" clip-rule="evenodd" d="M12 6C9.79086 6 8 7.79086 8 10V30C8 32.2091 9.79086 34 12 34H29C31.2091 34 33 32.2091 33 30V10C33 7.79086 31.2091 6 29 6H12ZM13.5 9C12.3954 9 11.5 9.89543 11.5 11V13C11.5 14.1046 12.3954 15 13.5 15H27.5C28.6046 15 29.5 14.1046 29.5 13V11C29.5 9.89543 28.6046 9 27.5 9H13.5ZM14.5 19.4502C14.5 20.2786 13.8284 20.9502 13 20.9502C12.1716 20.9502 11.5 20.2786 11.5 19.4502C11.5 18.6218 12.1716 17.9502 13 17.9502C13.8284 17.9502 14.5 18.6218 14.5 19.4502ZM28 20.9502C28.8284 20.9502 29.5 20.2786 29.5 19.4502C29.5 18.6218 28.8284 17.9502 28 17.9502C27.1716 17.9502 26.5 18.6218 26.5 19.4502C26.5 20.2786 27.1716 20.9502 28 20.9502ZM22 19.4502C22 20.2786 21.3284 20.9502 20.5 20.9502C19.6716 20.9502 19 20.2786 19 19.4502C19 18.6218 19.6716 17.9502 20.5 17.9502C21.3284 17.9502 22 18.6218 22 19.4502ZM13 25.9502C13.8284 25.9502 14.5 25.2786 14.5 24.4502C14.5 23.6218 13.8284 22.9502 13 22.9502C12.1716 22.9502 11.5 23.6218 11.5 24.4502C11.5 25.2786 12.1716 25.9502 13 25.9502ZM29.5 24.4502C29.5 25.2786 28.8284 25.9502 28 25.9502C27.1716 25.9502 26.5 25.2786 26.5 24.4502C26.5 23.6218 27.1716 22.9502 28 22.9502C28.8284 22.9502 29.5 23.6218 29.5 24.4502ZM28 30.7412C28.8284 30.7412 29.5 30.0696 29.5 29.2412C29.5 28.4128 28.8284 27.7412 28 27.7412C27.1716 27.7412 26.5 28.4128 26.5 29.2412C26.5 30.0696 27.1716 30.7412 28 30.7412ZM22 24.4502C22 25.2786 21.3284 25.9502 20.5 25.9502C19.6716 25.9502 19 25.2786 19 24.4502C19 23.6218 19.6716 22.9502 20.5 22.9502C21.3284 22.9502 22 23.6218 22 24.4502ZM13 27.7412C12.1716 27.7412 11.5 28.4128 11.5 29.2412C11.5 30.0696 12.1716 30.7412 13 30.7412H21C21.8284 30.7412 22.5 30.0696 22.5 29.2412C22.5 28.4128 21.8284 27.7412 21 27.7412H13Z" fill="url(#paint0_linear_4581_5570)"/>
<defs>
<linearGradient id="paint0_linear_4581_5570" x1="8" y1="20" x2="33" y2="20" gradientUnits="userSpaceOnUse">
<stop stop-color="#3B71FE"/>
<stop offset="1" stop-color="#07BBA9"/>
</linearGradient>
</defs>
</svg>
