<svg width="40" height="40" viewBox="0 0 40 40" fill="none" xmlns="http://www.w3.org/2000/svg">
<path fill-rule="evenodd" clip-rule="evenodd" d="M7 7C4.79086 7 3 8.79086 3 11V29C3 31.2091 4.79086 33 7 33H33C35.2091 33 37 31.2091 37 29V11C37 8.79086 35.2091 7 33 7H7ZM15.4336 26.3018C14.8813 26.3018 14.4336 26.7495 14.4336 27.3018C14.4336 27.854 14.8813 28.3018 15.4336 28.3018H24.5664C25.1187 28.3018 25.5664 27.854 25.5664 27.3018C25.5664 26.7495 25.1187 26.3018 24.5664 26.3018H15.4336ZM11.5 14.0049C11.5 15.1095 10.6046 16.0049 9.5 16.0049C8.39543 16.0049 7.5 15.1095 7.5 14.0049C7.5 12.9003 8.39543 12.0049 9.5 12.0049C10.6046 12.0049 11.5 12.9003 11.5 14.0049ZM16.5 16.0049C17.6046 16.0049 18.5 15.1095 18.5 14.0049C18.5 12.9003 17.6046 12.0049 16.5 12.0049C15.3954 12.0049 14.5 12.9003 14.5 14.0049C14.5 15.1095 15.3954 16.0049 16.5 16.0049ZM25.5 14.0049C25.5 15.1095 24.6046 16.0049 23.5 16.0049C22.3954 16.0049 21.5 15.1095 21.5 14.0049C21.5 12.9003 22.3954 12.0049 23.5 12.0049C24.6046 12.0049 25.5 12.9003 25.5 14.0049ZM9.5 21.668C10.6046 21.668 11.5 20.7725 11.5 19.668C11.5 18.5634 10.6046 17.668 9.5 17.668C8.39543 17.668 7.5 18.5634 7.5 19.668C7.5 20.7725 8.39543 21.668 9.5 21.668ZM18.5 19.668C18.5 20.7725 17.6046 21.668 16.5 21.668C15.3954 21.668 14.5 20.7725 14.5 19.668C14.5 18.5634 15.3954 17.668 16.5 17.668C17.6046 17.668 18.5 18.5634 18.5 19.668ZM23.5 21.668C24.6046 21.668 25.5 20.7725 25.5 19.668C25.5 18.5634 24.6046 17.668 23.5 17.668C22.3954 17.668 21.5 18.5634 21.5 19.668C21.5 20.7725 22.3954 21.668 23.5 21.668ZM32.5 14.0049C32.5 15.1095 31.6046 16.0049 30.5 16.0049C29.3954 16.0049 28.5 15.1095 28.5 14.0049C28.5 12.9003 29.3954 12.0049 30.5 12.0049C31.6046 12.0049 32.5 12.9003 32.5 14.0049ZM30.5 21.668C31.6046 21.668 32.5 20.7725 32.5 19.668C32.5 18.5634 31.6046 17.668 30.5 17.668C29.3954 17.668 28.5 18.5634 28.5 19.668C28.5 20.7725 29.3954 21.668 30.5 21.668Z" fill="url(#paint0_linear_4581_5256)"/>
<defs>
<linearGradient id="paint0_linear_4581_5256" x1="3" y1="20" x2="37" y2="20" gradientUnits="userSpaceOnUse">
<stop stop-color="#3B71FE"/>
<stop offset="1" stop-color="#07BBA9"/>
</linearGradient>
</defs>
</svg>
