<svg width="42" height="40" viewBox="0 0 42 40" fill="none" xmlns="http://www.w3.org/2000/svg">
<path d="M21.0047 34.9992C20.3227 34.9992 19.6498 34.8089 19.1224 34.4645C17.8767 33.6126 16.2945 33.1413 14.6578 33.1232H3.55527C2.14586 33.1232 1.00015 32.1988 1.00015 31.0569V10.3757C1.00015 10.0766 1.30022 9.84102 1.66394 9.84102H4.28271V8.06472C4.28271 7.85628 4.4282 7.66596 4.66462 7.57533C9.81124 5.52715 15.8217 5.4909 21.0047 7.46658C26.2786 5.40934 32.4618 5.51809 37.6176 7.77471C37.7358 8.45442 37.7721 9.14319 37.7176 9.83195H40.3364C40.7001 9.83195 41.0001 10.0766 41.0001 10.3667V31.0388C41.0001 32.1807 39.8544 33.1141 38.4359 33.1141H27.3425C25.7058 33.1322 24.1327 33.6035 22.8778 34.4554C22.3414 34.7998 21.6776 34.9901 20.9956 34.9901L21.0047 34.9992ZM2.32772 10.9104V31.0569C2.32772 31.6006 2.8733 32.0447 3.55527 32.0447H14.6578C16.5946 32.0628 18.4678 32.6247 19.959 33.6307C20.5773 34.0204 21.4412 34.0204 22.0504 33.6307C23.5325 32.6247 25.4057 32.0628 27.3516 32.0447H38.445C39.127 32.0447 39.6817 31.6006 39.6817 31.0478V10.9104H37.7267V29.915C37.7267 30.214 37.4266 30.4497 37.0629 30.4497C36.9629 30.4497 36.8719 30.4316 36.781 30.3953C31.8526 28.4559 26.0877 28.4649 21.1775 30.4316C21.132 30.4406 21.0774 30.4497 21.0229 30.4497H21.0138C20.9683 30.4497 20.9138 30.4497 20.8683 30.4316C15.949 28.4649 10.1841 28.4559 5.25566 30.3953C4.91922 30.5222 4.51913 30.3953 4.37364 30.1234C4.33727 30.0509 4.31908 29.9784 4.30999 29.9059V10.9104H2.32772ZM21.6685 8.4091V29.0993C26.3696 27.468 31.6889 27.468 36.39 29.0993V8.4091C31.7253 6.65093 26.3332 6.65093 21.6685 8.4091ZM12.9756 27.8759C15.5034 27.8849 18.004 28.3018 20.3409 29.0993V8.4091C15.6762 6.65093 10.2841 6.65093 5.61938 8.4091V29.0903C7.94718 28.2927 10.4478 27.8849 12.9847 27.8668L12.9756 27.8759ZM24.5873 12.4058C24.2691 12.4058 24.0236 12.152 24.0236 11.8529C24.0236 11.6536 24.1509 11.4723 24.3418 11.3817C27.297 10.0132 30.7524 10.0132 33.7076 11.3817C33.9895 11.5086 34.1077 11.8348 33.9713 12.0976C33.8349 12.3605 33.5075 12.4692 33.2257 12.3514C30.4887 11.1189 27.3061 11.137 24.5873 12.4058ZM24.5873 18.0519C24.2691 18.0519 24.0236 17.7981 24.0236 17.499C24.0236 17.2996 24.1509 17.1184 24.3418 17.0278C27.297 15.6593 30.7524 15.6593 33.7076 17.0278C33.9895 17.1546 34.1077 17.4809 33.9713 17.7437C33.8349 18.0065 33.5075 18.1153 33.2257 17.9975C30.4887 16.7649 27.3061 16.7831 24.5873 18.0519ZM24.5873 23.6979C24.2691 23.6979 24.0236 23.4442 24.0236 23.1451C24.0236 22.9457 24.1509 22.7645 24.3418 22.6738C27.297 21.3054 30.7524 21.3054 33.7076 22.6738C33.9895 22.8007 34.1077 23.127 33.9713 23.3898C33.8349 23.6526 33.5075 23.7614 33.2257 23.6436C30.4887 22.411 27.3061 22.4292 24.5873 23.6979ZM8.62916 12.4058C8.3109 12.4058 8.06539 12.152 8.06539 11.8529C8.06539 11.6536 8.19269 11.4723 8.38364 11.3817C11.3389 10.0132 14.7942 10.0132 17.7494 11.3817C18.0313 11.5086 18.1495 11.8348 18.0131 12.0976C17.8767 12.3605 17.5494 12.4692 17.2675 12.3514C14.5305 11.1189 11.348 11.137 8.62916 12.4058ZM8.62916 18.0519C8.3109 18.0519 8.06539 17.7981 8.06539 17.499C8.06539 17.2996 8.19269 17.1184 8.38364 17.0278C11.3389 15.6593 14.7942 15.6593 17.7494 17.0278C18.0313 17.1546 18.1495 17.4809 18.0131 17.7437C17.8767 18.0065 17.5494 18.1153 17.2675 17.9975C14.5305 16.7649 11.348 16.7831 8.62916 18.0519ZM8.62916 23.6979C8.3109 23.6979 8.06539 23.4442 8.06539 23.1451C8.06539 22.9457 8.19269 22.7645 8.38364 22.6738C11.3389 21.3054 14.7942 21.3054 17.7494 22.6738C18.0313 22.8007 18.1495 23.127 18.0131 23.3898C17.8767 23.6526 17.5494 23.7614 17.2675 23.6436C14.5305 22.411 11.348 22.4292 8.62916 23.6979Z" fill="#222222"/>
<path fill-rule="evenodd" clip-rule="evenodd" d="M37.21 8.09172C32.2111 5.97829 26.2556 5.90379 21.1691 7.88795L21.0066 7.95134L20.8436 7.88921C15.766 5.95371 9.87272 5.98948 4.83186 7.99557L4.82653 7.9977C4.77756 8.01647 4.75264 8.03986 4.74235 8.05311C4.7373 8.05963 4.73501 8.06543 4.73501 8.06543V10.2933H1.66394C1.5772 10.2933 1.51266 10.3219 1.47803 10.3495C1.46043 10.3636 1.45431 10.3734 1.45245 10.3778V31.0569C1.45245 31.8637 2.30089 32.6709 3.55527 32.6709H14.6628C16.3779 32.6899 18.0474 33.1828 19.3735 34.0882C19.76 34.3396 20.2491 34.4993 20.7629 34.5378H20.9956C21.594 34.5378 22.1702 34.3708 22.6289 34.0778C23.9626 33.1739 25.6218 32.6809 27.3375 32.6619L27.3425 32.6618L38.4359 32.6618C39.6978 32.6618 40.5479 31.847 40.5479 31.0388V10.3724C40.5454 10.3675 40.5384 10.3569 40.5203 10.3423C40.4834 10.3125 40.4188 10.2843 40.3364 10.2843H37.228L37.2667 9.79624C37.3117 9.22747 37.2911 8.65748 37.21 8.09172ZM40.549 10.3753L40.5484 10.3736L40.549 10.3753ZM21.9721 35.3248L22.0992 35.4515H21.0047C20.2431 35.4515 19.4827 35.2399 18.8752 34.8432L18.8671 34.8379C17.703 34.0418 16.2109 33.5932 14.6553 33.5755H3.55527C1.99083 33.5755 0.547852 32.5338 0.547852 31.0569V10.3757C0.547852 9.73753 1.15027 9.38872 1.66394 9.38872H3.83042V8.06472C3.83042 7.62981 4.13068 7.2968 4.49973 7.15416C9.69773 5.08624 15.7526 5.02936 21.0029 6.98258C26.3512 4.94734 32.5851 5.07833 37.7989 7.36037L38.0215 7.4578L38.0632 7.69722C38.1598 8.2526 38.2046 8.81497 38.1928 9.37966H40.3364C40.8554 9.37966 41.4524 9.74184 41.4524 10.3667V31.0388C41.4524 32.5144 40.0111 33.5664 38.4359 33.5664H27.345C25.7903 33.5841 24.3064 34.0323 23.1319 34.8296L23.1223 34.8362C22.7751 35.059 22.3843 35.2237 21.9721 35.3248ZM5.45986 7.98587C10.2274 6.18895 15.7329 6.18895 20.5004 7.98587L20.7932 8.09622V29.7316L20.1948 29.5274C17.9053 28.746 15.4536 28.337 12.974 28.3282L12.5339 28.3266C10.1993 28.387 7.90633 28.7848 5.76597 29.5181L5.16708 29.7233V8.09622L5.45986 7.98587ZM14.0426 27.4511C16.0408 27.5473 18.0113 27.8932 19.8886 28.4763V8.72469C15.4926 7.1488 10.4677 7.1488 6.07168 8.72469V28.4668C8.27541 27.7816 10.6143 27.4314 12.9815 27.4145L14.0872 27.4066L14.0426 27.4511ZM21.509 7.98587C26.2765 6.18895 31.782 6.18895 36.5495 7.98587L36.8423 8.09622V29.735L36.2417 29.5266C31.6367 27.9287 26.4218 27.9287 21.8168 29.5266L21.2162 29.735V8.09622L21.509 7.98587ZM22.1208 8.72469V28.4733C26.5653 27.0736 31.4931 27.0736 35.9377 28.4733V8.72469C31.5417 7.1488 26.5168 7.1488 22.1208 8.72469ZM8.57625 11.7909C8.55129 11.8031 8.53515 11.8188 8.52644 11.8316C8.51799 11.8439 8.51769 11.8529 8.51769 11.8529C8.51769 11.8841 8.53534 11.9173 8.56697 11.9367C11.3742 10.6721 14.6341 10.672 17.4458 11.9357C17.5259 11.967 17.5923 11.9266 17.6117 11.8893C17.6217 11.8699 17.6223 11.8205 17.5638 11.7941L17.5593 11.7921C14.7255 10.4799 11.4104 10.4795 8.57625 11.7909ZM17.9376 10.9704C14.8623 9.54696 11.2687 9.54724 8.19359 10.9713L8.18971 10.9731C7.86433 11.1275 7.61309 11.4544 7.61309 11.8529C7.61309 12.4032 8.06253 12.8581 8.62916 12.8581H8.7295L8.82043 12.8156C11.4195 11.6027 14.4644 11.5852 17.0818 12.7638L17.0931 12.7687C17.575 12.9701 18.1615 12.7937 18.4146 12.306C18.6768 11.8006 18.4411 11.1987 17.9376 10.9704ZM24.5344 11.7909C24.5094 11.8031 24.4933 11.8188 24.4846 11.8316C24.4762 11.844 24.4759 11.8529 24.4759 11.8529C24.4759 11.8841 24.4935 11.9173 24.5251 11.9367C27.3324 10.6721 30.5922 10.672 33.404 11.9357C33.4841 11.967 33.5504 11.9266 33.5698 11.8893C33.5799 11.8699 33.5804 11.8205 33.5219 11.7941L33.5175 11.7921C30.6837 10.4799 27.3685 10.4795 24.5344 11.7909ZM33.8956 10.9703C30.8203 9.54696 27.2269 9.54727 24.1518 10.9713L24.1479 10.9731C23.8225 11.1275 23.5713 11.4544 23.5713 11.8529C23.5713 12.4032 24.0207 12.8581 24.5873 12.8581H24.6877L24.7786 12.8156C27.3777 11.6027 30.4226 11.5852 33.0399 12.7638L33.0512 12.7687C33.5331 12.9701 34.1196 12.7937 34.3727 12.306C34.635 11.8006 34.3992 11.1986 33.8956 10.9703ZM1.87543 10.4581H4.76229V29.8722C4.76562 29.8895 4.76977 29.9025 4.77455 29.9134C4.79871 29.9481 4.93146 30.0328 5.09362 29.973C10.1162 27.9976 15.9829 28.0025 21.0005 29.9974L21.0042 29.9974C21.007 29.9974 21.0101 29.9974 21.0138 29.9974H21.0229C21.0249 29.9974 21.029 29.9972 21.0354 29.9966C21.0383 29.9963 21.0415 29.996 21.0453 29.9955C21.0475 29.9952 21.0499 29.9949 21.0523 29.9945C26.0607 28.0019 31.9258 27.9986 36.9466 29.9744L36.9485 29.9752C36.9875 29.9907 37.0217 29.9974 37.0629 29.9974C37.1496 29.9974 37.2142 29.9688 37.2488 29.9412C37.2664 29.9271 37.2725 29.9173 37.2744 29.9129V10.4581H40.134V31.0478C40.134 31.9374 39.2799 32.497 38.445 32.497H27.3538C25.4901 32.5148 23.7062 33.0535 22.3044 34.0049L22.2942 34.0119C21.5353 34.4973 20.4824 34.4952 19.7178 34.0133L19.7059 34.0058C18.2942 33.0535 16.5098 32.5148 14.6558 32.497H3.55527C2.71858 32.497 1.87543 31.9359 1.87543 31.0569V10.4581ZM2.78002 11.3627V31.0569C2.78002 31.2654 3.02802 31.5924 3.55527 31.5924H14.662C16.6781 31.6113 18.6365 32.195 20.2056 33.2515C20.6758 33.5446 21.3443 33.5425 21.802 33.2527C23.3631 32.1949 25.3224 31.6113 27.3474 31.5924L27.3516 31.5924L38.445 31.5924C38.9741 31.5924 39.2294 31.2639 39.2294 31.0478V11.3627H38.179V29.915C38.179 30.5532 37.5766 30.902 37.0629 30.902C36.9046 30.902 36.7573 30.8726 36.6149 30.816C31.7934 28.9188 26.1481 28.928 21.3456 30.8514L21.3068 30.867L21.2659 30.8751C21.2125 30.8858 21.1229 30.902 21.0229 30.902H21.0138C21.0138 30.902 21.0097 30.902 21.007 30.902C20.9681 30.9025 20.8321 30.904 20.7008 30.8517C15.8889 28.928 10.2428 28.9188 5.42129 30.8162L5.41528 30.8185C4.91128 31.0086 4.24862 30.8484 3.97485 30.3368L3.96923 30.3263C3.90467 30.1976 3.8751 30.073 3.86121 29.9622L3.85769 29.9342V11.3627H2.78002ZM8.57625 17.437C8.55129 17.4491 8.53515 17.4649 8.52643 17.4777C8.51799 17.49 8.51769 17.499 8.51769 17.499C8.51769 17.5302 8.53534 17.5634 8.56697 17.5828C11.3742 16.3182 14.634 16.3181 17.4458 17.5818C17.5259 17.6131 17.5923 17.5727 17.6117 17.5354C17.6217 17.516 17.6223 17.4665 17.5638 17.4402L17.5593 17.4382C14.7255 16.126 11.4104 16.1255 8.57625 17.437ZM17.9377 16.6165C14.8623 15.193 11.2688 15.1933 8.19359 16.6173L8.18971 16.6192C7.86433 16.7736 7.61309 17.1005 7.61309 17.499C7.61309 18.0493 8.06252 18.5042 8.62916 18.5042H8.7295L8.82043 18.4617C11.4195 17.2488 14.4644 17.2312 17.0818 18.4099L17.0931 18.4148C17.575 18.6162 18.1615 18.4397 18.4146 17.9521C18.6768 17.4467 18.4411 16.8448 17.9377 16.6165ZM24.5344 17.437C24.5094 17.4492 24.4933 17.4649 24.4846 17.4777C24.4762 17.49 24.4759 17.499 24.4759 17.499C24.4759 17.5302 24.4935 17.5634 24.5252 17.5828C27.3324 16.3182 30.5922 16.3181 33.404 17.5817C33.4841 17.613 33.5504 17.5727 33.5698 17.5354C33.5799 17.516 33.5804 17.4665 33.5219 17.4402L33.5175 17.4382C30.6837 16.1259 27.3685 16.1255 24.5344 17.437ZM33.8957 16.6164C30.8203 15.193 27.2269 15.1933 24.1518 16.6173L24.1479 16.6192C23.8225 16.7736 23.5713 17.1005 23.5713 17.499C23.5713 18.0493 24.0207 18.5042 24.5873 18.5042H24.6877L24.7786 18.4617C27.3777 17.2488 30.4226 17.2312 33.0399 18.4099L33.0512 18.4148C33.5331 18.6162 34.1196 18.4397 34.3727 17.9521C34.635 17.4467 34.3992 16.8447 33.8957 16.6164ZM8.57625 23.0831C8.55129 23.0952 8.53515 23.111 8.52643 23.1238C8.51799 23.1361 8.51769 23.1451 8.51769 23.1451C8.51769 23.1763 8.53535 23.2095 8.56698 23.2289C11.3742 21.9643 14.6341 21.9642 17.4458 23.2278C17.5259 23.2591 17.5923 23.2188 17.6117 23.1815C17.6217 23.162 17.6223 23.1126 17.5638 23.0863L17.5593 23.0843C14.7255 21.772 11.4104 21.7716 8.57625 23.0831ZM17.9377 22.2626C14.8623 20.8391 11.2688 20.8394 8.19359 22.2634L8.18971 22.2652C7.86433 22.4197 7.61309 22.7466 7.61309 23.1451C7.61309 23.6954 8.06252 24.1502 8.62916 24.1502H8.7295L8.82043 24.1078C11.4195 22.8949 14.4644 22.8773 17.0818 24.056L17.0931 24.0609C17.575 24.2623 18.1615 24.0858 18.4146 23.5981C18.6768 23.0928 18.4411 22.4909 17.9377 22.2626ZM24.5344 23.0831C24.5094 23.0952 24.4933 23.111 24.4846 23.1238C24.4762 23.1361 24.4759 23.1451 24.4759 23.1451C24.4759 23.1763 24.4935 23.2095 24.5252 23.2289C27.3324 21.9643 30.5922 21.9642 33.404 23.2278C33.4841 23.2591 33.5504 23.2188 33.5698 23.1815C33.5799 23.162 33.5804 23.1126 33.5219 23.0863L33.5175 23.0843C30.6837 21.772 27.3685 21.7716 24.5344 23.0831ZM33.8957 22.2625C30.8203 20.8391 27.2269 20.8394 24.1518 22.2634L24.1479 22.2652C23.8225 22.4197 23.5713 22.7466 23.5713 23.1451C23.5713 23.6954 24.0207 24.1502 24.5873 24.1502H24.6877L24.7786 24.1078C27.3777 22.8949 30.4226 22.8773 33.0399 24.056L33.0512 24.0609C33.5331 24.2623 34.1196 24.0858 34.3727 23.5981C34.635 23.0928 34.3992 22.4908 33.8957 22.2625Z" fill="#222222"/>
</svg>
