<svg width="42" height="42" viewBox="0 0 42 42" fill="none" xmlns="http://www.w3.org/2000/svg">
<path d="M1.71443 20.5714C1.71443 9.92023 10.3489 1.28571 21.0001 1.28571C31.6513 1.28571 40.2859 9.92022 40.2859 20.5714C40.2859 31.2226 31.6513 39.8571 21.0001 39.8571H1.71443V20.5714Z" fill="white"/>
<path d="M1.71443 20.5714C1.71443 9.92023 10.3489 1.28571 21.0001 1.28571C31.6513 1.28571 40.2859 9.92022 40.2859 20.5714C40.2859 31.2226 31.6513 39.8571 21.0001 39.8571H1.71443V20.5714Z" stroke="#00B9AD" stroke-width="2.57143"/>
<path d="M19.3208 31.5626C19.0782 31.5626 18.9048 31.5193 18.8008 31.4326C18.6968 31.3459 18.6448 31.1726 18.6448 30.9126V13.6746L14.3808 16.4566C13.9995 16.6993 13.7048 16.6386 13.4968 16.2746L12.0148 13.7526C11.8762 13.5099 11.8068 13.3193 11.8068 13.1806C11.8242 13.0246 11.9455 12.8773 12.1708 12.7386L18.6448 8.44859C18.7835 8.36192 18.8962 8.30992 18.9828 8.29259C19.0695 8.25792 19.1995 8.24059 19.3728 8.24059H22.9608C23.2035 8.24059 23.3768 8.28392 23.4808 8.37059C23.5848 8.45725 23.6368 8.63059 23.6368 8.89059V30.9126C23.6368 31.1726 23.5848 31.3459 23.4808 31.4326C23.3768 31.5193 23.2035 31.5626 22.9608 31.5626H19.3208Z" fill="#00646B"/>
</svg>
