<svg width="64" height="64" viewBox="0 0 64 64" fill="none" xmlns="http://www.w3.org/2000/svg">
<path fill-rule="evenodd" clip-rule="evenodd" d="M16.6404 6.3999C10.985 6.3999 6.40039 10.9845 6.40039 16.6399V47.3599C6.40039 53.0153 10.985 57.5999 16.6404 57.5999H47.3604C53.0158 57.5999 57.6004 53.0153 57.6004 47.3599V16.6399C57.6004 10.9845 53.0158 6.3999 47.3604 6.3999H16.6404Z" fill="#808080"/>
<path fill-rule="evenodd" clip-rule="evenodd" d="M21.1838 14.3999C22.0023 14.3999 22.6658 15.0634 22.6658 15.8819V20.0239H26.9598C27.7783 20.0239 28.4418 20.6874 28.4418 21.5059C28.4418 22.3244 27.7783 22.9879 26.9598 22.9879H22.6658V27.738C22.6658 28.5565 22.0023 29.22 21.1838 29.22C20.3653 29.22 19.7018 28.5565 19.7018 27.738V22.9879H15.4078C14.5893 22.9879 13.9258 22.3244 13.9258 21.5059C13.9258 20.6874 14.5893 20.0239 15.4078 20.0239H19.7018V15.8819C19.7018 15.0634 20.3653 14.3999 21.1838 14.3999ZM37.2956 20.4798C36.4771 20.4798 35.8136 21.1433 35.8136 21.9618C35.8136 22.7803 36.4771 23.4438 37.2956 23.4438H49.1516C49.9701 23.4438 50.6336 22.7803 50.6336 21.9618C50.6336 21.1433 49.9701 20.4798 49.1516 20.4798H37.2956ZM45.1996 36.1358C45.1996 37.2272 44.3149 38.1119 43.2236 38.1119C42.1323 38.1119 41.2476 37.2272 41.2476 36.1358C41.2476 35.0445 42.1323 34.1598 43.2236 34.1598C44.3149 34.1598 45.1996 35.0445 45.1996 36.1358ZM37.2956 40.2065C36.4771 40.2065 35.8136 40.87 35.8136 41.6885C35.8136 42.5069 36.4771 43.1705 37.2956 43.1705H49.1516C49.9701 43.1705 50.6336 42.5069 50.6336 41.6885C50.6336 40.87 49.9701 40.2065 49.1516 40.2065H37.2956ZM45.1996 47.2412C45.1996 48.3325 44.3149 49.2172 43.2236 49.2172C42.1323 49.2172 41.2476 48.3325 41.2476 47.2412C41.2476 46.1498 42.1323 45.2652 43.2236 45.2652C44.3149 45.2652 45.1996 46.1498 45.1996 47.2412ZM15.2037 35.5899C15.8403 34.9533 16.8725 34.9533 17.5091 35.5899L20.9673 39.0481L24.4255 35.5899C25.0621 34.9533 26.0943 34.9533 26.7309 35.5899C27.3676 36.2265 27.3676 37.2587 26.7309 37.8954L23.2728 41.3536L26.7309 44.8118C27.3676 45.4484 27.3676 46.4806 26.7309 47.1172C26.0943 47.7539 25.0621 47.7539 24.4255 47.1172L20.9673 43.659L17.5091 47.1172C16.8725 47.7539 15.8403 47.7539 15.2037 47.1172C14.5671 46.4806 14.5671 45.4484 15.2037 44.8118L18.6619 41.3536L15.2037 37.8954C14.5671 37.2587 14.5671 36.2265 15.2037 35.5899Z" fill="white"/>
</svg>
