<svg width="93" height="44" viewBox="0 0 93 44" fill="none" xmlns="http://www.w3.org/2000/svg">
<path d="M17 38.9375H1.0625V23C1.0625 14.198 8.19796 7.0625 17 7.0625C25.802 7.0625 32.9375 14.198 32.9375 23C32.9375 31.802 25.802 38.9375 17 38.9375Z" fill="white"/>
<path d="M17 38.9375H1.0625V23C1.0625 14.198 8.19796 7.0625 17 7.0625C25.802 7.0625 32.9375 14.198 32.9375 23C32.9375 31.802 25.802 38.9375 17 38.9375Z" stroke="#00B9AD" stroke-width="2.125"/>
<path d="M22.117 32.0011C22.117 32.2197 22.0733 32.3654 21.9859 32.4383C21.8984 32.5111 21.7527 32.5476 21.5487 32.5476H10.4016C10.1976 32.5476 10.0664 32.5184 10.0081 32.4601C9.96443 32.4018 9.94257 32.2707 9.94257 32.0667V29.5313C9.94257 29.4001 9.94986 29.2908 9.96443 29.2034C9.979 29.116 10.0009 29.0358 10.03 28.963C10.0737 28.8901 10.1247 28.8173 10.183 28.7444C10.2413 28.6716 10.3214 28.5841 10.4234 28.4821L13.8331 25.0506C15.0717 23.812 16.0334 22.6754 16.7183 21.6408C17.4177 20.5917 17.7674 19.6081 17.7674 18.6901C17.7674 18.2238 17.7091 17.8377 17.5926 17.5317C17.476 17.2257 17.2939 16.9853 17.0461 16.8104C16.7984 16.6356 16.4779 16.519 16.0844 16.4607C15.691 16.3878 15.2247 16.3587 14.6856 16.3733C14.3504 16.3878 14.008 16.417 13.6583 16.4607C13.3231 16.5044 12.988 16.5554 12.6529 16.6137C12.3177 16.6574 12.0044 16.7084 11.713 16.7667C11.4216 16.825 11.1666 16.876 10.948 16.9197C10.7003 16.978 10.5254 16.9707 10.4234 16.8978C10.3214 16.8104 10.2631 16.6501 10.2486 16.417L10.0737 14.0783C10.0591 13.8597 10.0883 13.6994 10.1611 13.5974C10.2486 13.4808 10.4234 13.4007 10.6857 13.357C10.9334 13.3133 11.2394 13.2623 11.6037 13.204C11.968 13.1311 12.3687 13.0656 12.8059 13.0073C13.2576 12.9344 13.7239 12.8761 14.2047 12.8324C14.7001 12.7741 15.1956 12.745 15.691 12.745C17.833 12.745 19.3849 13.204 20.3466 14.122C21.3083 15.04 21.7891 16.3733 21.7891 18.1218C21.7891 18.8504 21.7163 19.5426 21.5706 20.1983C21.4394 20.8394 21.2136 21.4806 20.893 22.1217C20.587 22.7628 20.179 23.4113 19.669 24.067C19.1736 24.7227 18.5689 25.4148 17.8549 26.1434L15.1664 28.9193H21.5487C21.7527 28.9193 21.8984 28.9557 21.9859 29.0286C22.0733 29.1014 22.117 29.2471 22.117 29.4657V32.0011Z" fill="#00646B"/>
<path d="M38.9688 22.9688C40.0312 21.8438 41.375 21.2656 42.8438 21.25C45.4062 21.2656 47.5781 23.0312 50.1562 23.0312C51.6094 23.0312 52.9062 22.4531 53.9375 21.3125V25.125C52.875 26.25 51.5312 26.8438 50.0625 26.8438C47.5 26.8438 45.3125 25.0781 42.75 25.0625C41.2969 25.0781 40 25.6562 38.9688 26.7812V22.9688Z" fill="#222222"/>
<path d="M76 38.9375H60.0625V23C60.0625 14.198 67.198 7.0625 76 7.0625C84.802 7.0625 91.9375 14.198 91.9375 23C91.9375 31.802 84.802 38.9375 76 38.9375Z" fill="white"/>
<path d="M76 38.9375H60.0625V23C60.0625 14.198 67.198 7.0625 76 7.0625C84.802 7.0625 91.9375 14.198 91.9375 23C91.9375 31.802 84.802 38.9375 76 38.9375Z" stroke="#00B9AD" stroke-width="2.125"/>
<path d="M83.0186 28.8537C83.0186 29.0723 82.9749 29.218 82.8874 29.2908C82.8 29.3637 82.6543 29.4001 82.4503 29.4001H80.964V32.0011C80.964 32.2197 80.9203 32.3654 80.8329 32.4383C80.7454 32.5111 80.5997 32.5476 80.3957 32.5476H77.5543C77.3503 32.5476 77.2046 32.5111 77.1171 32.4383C77.0297 32.3654 76.986 32.2197 76.986 32.0011V29.4001H69.2486C69.0154 29.4001 68.8406 29.3564 68.724 29.269C68.622 29.1961 68.571 29.0358 68.571 28.7881V26.6898C68.571 26.5441 68.5783 26.413 68.5929 26.2964C68.6074 26.1653 68.6439 26.0196 68.7021 25.8593L73.0517 13.4226C73.1246 13.2331 73.1974 13.1093 73.2703 13.051C73.3431 12.9781 73.4597 12.9417 73.62 12.9417H76.6363C76.884 12.9417 77.0443 12.9854 77.1171 13.0728C77.19 13.1603 77.19 13.3278 77.1171 13.5755L73.0954 25.7718H76.986V20.1108C76.986 19.8923 77.0297 19.7466 77.1171 19.6737C77.2046 19.6008 77.3503 19.5644 77.5543 19.5644H80.3957C80.5997 19.5644 80.7454 19.6008 80.8329 19.6737C80.9203 19.7466 80.964 19.8923 80.964 20.1108V25.7718H82.4503C82.6543 25.7718 82.8 25.8083 82.8874 25.8811C82.9749 25.954 83.0186 26.0997 83.0186 26.3183V28.8537Z" fill="#00646B"/>
</svg>
