<svg width="42" height="42" viewBox="0 0 42 42" fill="none" xmlns="http://www.w3.org/2000/svg">
<path d="M1.71418 20.7116C1.71418 10.0604 10.3487 1.42585 20.9999 1.42585C31.6511 1.42585 40.2856 10.0604 40.2856 20.7116C40.2856 31.3628 31.6511 39.9973 20.9999 39.9973H1.71418V20.7116Z" fill="white"/>
<path d="M1.71418 20.7116C1.71418 10.0604 10.3487 1.42585 20.9999 1.42585C31.6511 1.42585 40.2856 10.0604 40.2856 20.7116C40.2856 31.3628 31.6511 39.9973 20.9999 39.9973H1.71418V20.7116Z" stroke="#00B9AD" stroke-width="2.57143"/>
<path d="M29.1741 27.3087C29.1741 27.5687 29.1221 27.7421 29.0181 27.8287C28.9141 27.9154 28.7408 27.9587 28.4981 27.9587H26.7301V31.0527C26.7301 31.3127 26.6781 31.4861 26.5741 31.5727C26.4701 31.6594 26.2968 31.7027 26.0541 31.7027H22.6741C22.4314 31.7027 22.2581 31.6594 22.1541 31.5727C22.0501 31.4861 21.9981 31.3127 21.9981 31.0527V27.9587H12.7941C12.5168 27.9587 12.3088 27.9067 12.1701 27.8027C12.0488 27.7161 11.9881 27.5254 11.9881 27.2307V24.7347C11.9881 24.5614 11.9968 24.4054 12.0141 24.2667C12.0314 24.1107 12.0748 23.9374 12.1441 23.7467L17.3181 8.95273C17.4048 8.72739 17.4914 8.58006 17.5781 8.51072C17.6648 8.42406 17.8034 8.38072 17.9941 8.38072H21.5821C21.8768 8.38072 22.0674 8.43272 22.1541 8.53672C22.2408 8.64072 22.2408 8.84006 22.1541 9.13472L17.3701 23.6427H21.9981V16.9087C21.9981 16.6487 22.0501 16.4754 22.1541 16.3887C22.2581 16.3021 22.4314 16.2587 22.6741 16.2587H26.0541C26.2968 16.2587 26.4701 16.3021 26.5741 16.3887C26.6781 16.4754 26.7301 16.6487 26.7301 16.9087V23.6427H28.4981C28.7408 23.6427 28.9141 23.6861 29.0181 23.7727C29.1221 23.8594 29.1741 24.0327 29.1741 24.2927V27.3087Z" fill="#00646B"/>
</svg>
