<svg width="42" height="42" viewBox="0 0 42 42" fill="none" xmlns="http://www.w3.org/2000/svg">
<path d="M1.7143 20.7116C1.7143 10.0604 10.3488 1.42585 21 1.42585C31.6512 1.42585 40.2857 10.0604 40.2857 20.7116C40.2857 31.3628 31.6512 39.9973 21 39.9973H1.7143V20.7116Z" fill="white"/>
<path d="M1.7143 20.7116C1.7143 10.0604 10.3488 1.42585 21 1.42585C31.6512 1.42585 40.2857 10.0604 40.2857 20.7116C40.2857 31.3628 31.6512 39.9973 21 39.9973H1.7143V20.7116Z" stroke="#00B9AD" stroke-width="2.57143"/>
<path d="M26.2364 12.0207C26.2364 12.2807 26.1844 12.4541 26.0804 12.5407C25.9764 12.6274 25.803 12.6707 25.5604 12.6707H17.4744L17.2404 17.0647C17.743 16.9434 18.1677 16.8567 18.5144 16.8047C18.861 16.7527 19.2857 16.7267 19.7884 16.7267C22.215 16.7267 24.0524 17.2814 25.3004 18.3907C26.5484 19.4827 27.1724 21.2507 27.1724 23.6947C27.1724 24.9774 26.9904 26.1214 26.6264 27.1267C26.2624 28.1147 25.7337 28.9467 25.0404 29.6227C24.3644 30.2987 23.541 30.8101 22.5704 31.1567C21.5997 31.5207 20.5077 31.7027 19.2944 31.7027C18.653 31.7027 18.0204 31.6767 17.3964 31.6247C16.7724 31.5727 16.1744 31.5034 15.6024 31.4167C15.0304 31.3301 14.493 31.2434 13.9904 31.1567C13.505 31.0701 13.0804 30.9834 12.7164 30.8967C12.4044 30.8274 12.1964 30.7234 12.0924 30.5847C11.9884 30.4461 11.9537 30.2294 11.9884 29.9347L12.3264 27.2307C12.361 26.9361 12.4477 26.7627 12.5864 26.7107C12.7424 26.6414 12.9417 26.6241 13.1844 26.6587C13.531 26.7281 13.921 26.8061 14.3544 26.8927C14.7877 26.9621 15.247 27.0314 15.7324 27.1007C16.235 27.1701 16.7464 27.2307 17.2664 27.2827C17.8037 27.3174 18.3324 27.3347 18.8524 27.3347C19.407 27.3347 19.901 27.2827 20.3344 27.1787C20.7677 27.0747 21.1317 26.8927 21.4264 26.6327C21.7384 26.3727 21.9724 26.0261 22.1284 25.5927C22.3017 25.1594 22.3884 24.6134 22.3884 23.9547C22.3884 22.9841 22.111 22.2647 21.5564 21.7967C21.0017 21.3114 20.239 21.0687 19.2684 21.0687C18.7484 21.0687 18.2717 21.0947 17.8384 21.1467C17.4224 21.1987 16.9717 21.2941 16.4864 21.4327C16.1224 21.5194 15.8104 21.5367 15.5504 21.4847L13.3404 21.0167C12.9417 20.9301 12.6904 20.7481 12.5864 20.4707C12.4824 20.1934 12.4477 19.8727 12.4824 19.5087L13.0544 10.0707C13.089 9.39473 13.219 8.94406 13.4444 8.71872C13.6697 8.47606 14.1117 8.35473 14.7704 8.35473H25.5604C25.803 8.35473 25.9764 8.39806 26.0804 8.48472C26.1844 8.57139 26.2364 8.74472 26.2364 9.00472V12.0207Z" fill="#00646B"/>
</svg>
