<svg width="41" height="48" viewBox="0 0 41 48" fill="none" xmlns="http://www.w3.org/2000/svg">
<g id="&#236;&#136;&#152;&#237;&#149;&#153;_ico_pencil_colored">
<path id="Vector (Stroke)" fill-rule="evenodd" clip-rule="evenodd" d="M18.7027 9.92293C25.8882 7.3631 33.7112 11.1514 36.2479 18.272L36.2543 18.2899L36.2542 18.2899L39.2125 26.6681C39.2137 26.6714 39.2149 26.6748 39.2161 26.6781C41.7688 33.8608 37.9807 41.6777 30.8635 44.2133C23.678 46.7731 15.8549 42.9848 13.3182 35.8642L13.3119 35.8463L13.3119 35.8463L10.3536 27.4681C10.3524 27.4647 10.3511 27.4612 10.3499 27.4578C7.7974 20.2752 11.5855 12.4584 18.7027 9.92293ZM23.3115 22.7036C23.3058 22.7033 23.2918 22.7025 23.2595 22.714C23.2186 22.7285 23.1998 22.7432 23.1888 22.7532C23.1743 22.7664 23.1599 22.7849 23.1491 22.8077C23.1382 22.8304 23.1349 22.8486 23.1343 22.8592L23.1343 22.8593C23.134 22.865 23.1331 22.879 23.1446 22.9113L23.151 22.9292L23.151 22.9292L26.1105 31.3107C26.1246 31.3493 26.1388 31.3674 26.1486 31.3781C26.1617 31.3925 26.1802 31.4069 26.203 31.4178C26.2257 31.4286 26.2439 31.4319 26.2545 31.4325L26.2546 31.4326C26.2603 31.4329 26.2743 31.4337 26.3066 31.4222C26.3475 31.4077 26.3663 31.393 26.3774 31.3829C26.3918 31.3698 26.4062 31.3513 26.4171 31.3285C26.4279 31.3058 26.4312 31.2876 26.4318 31.277C26.4321 31.2714 26.4331 31.2574 26.4215 31.2249L26.4151 31.207L26.4151 31.207L23.4556 22.8255C23.4415 22.7869 23.4274 22.7688 23.4176 22.7581C23.4044 22.7437 23.3859 22.7293 23.3631 22.7184C23.3405 22.7076 23.3222 22.7043 23.3116 22.7037L23.3115 22.7036Z" fill="#E6F4FD"/>
<path id="Vector (Stroke)_2" fill-rule="evenodd" clip-rule="evenodd" d="M10.7252 0.719224C14.0789 -0.957648 18.1571 0.401726 19.8339 3.75547L22.0518 8.19111C23.7286 11.5449 22.3693 15.623 19.0155 17.2998C15.6618 18.9767 11.5836 17.6173 9.90677 14.2636L7.68895 9.82796C6.01208 6.47422 7.37145 2.3961 10.7252 0.719224Z" fill="#E6F4FD"/>
<path id="Vector (Stroke)_3" fill-rule="evenodd" clip-rule="evenodd" d="M0.915512 10.1306C2.7949 6.88602 6.9487 5.77929 10.1933 7.65868L14.3347 10.0575C17.5793 11.9369 18.6861 16.0907 16.8067 19.3353C14.9273 22.5799 10.7735 23.6867 7.52889 21.8073L3.38745 19.4084C0.142852 17.529 -0.963872 13.3752 0.915512 10.1306Z" fill="#E6F4FD"/>
<path id="Vector (Stroke)_4" fill-rule="evenodd" clip-rule="evenodd" d="M13.0429 5.35456C13.8366 4.9577 14.8017 5.27941 15.1986 6.07313L17.4164 10.5088C17.8133 11.3025 17.4916 12.2677 16.6978 12.6645C15.9041 13.0614 14.939 12.7397 14.5421 11.9459L12.3243 7.51029C11.9274 6.71657 12.2491 5.75142 13.0429 5.35456Z" fill="#3FB8EC"/>
<path id="Vector (Stroke)_5" fill-rule="evenodd" clip-rule="evenodd" d="M5.40026 12.7285C5.84505 11.9606 6.82812 11.6986 7.59601 12.1434L11.7375 14.5423C12.5053 14.9871 12.7673 15.9702 12.3225 16.738C11.8777 17.5059 10.8946 17.7679 10.1267 17.3231L5.98529 14.9242C5.2174 14.4794 4.95548 13.4963 5.40026 12.7285Z" fill="#3FB8EC"/>
<path id="Vector" d="M17.4496 17.5855C15.7749 18.1739 14.9149 20.007 15.5033 21.6817L22.0436 40.1711L35.1469 35.5318L28.6066 17.0424C28.0182 15.3677 26.1851 14.5077 24.5104 15.0961L17.4496 17.6081V17.5855Z" fill="#FCD57F"/>
<path id="Vector_2" d="M23.1074 39.8536L31.7977 46.8692L34.1286 35.9385L23.1074 39.8536Z" fill="white"/>
<path id="Vector (Stroke)_6" fill-rule="evenodd" clip-rule="evenodd" d="M34.8753 35.0864C35.1835 35.3566 35.3215 35.7723 35.236 36.1732L32.905 47.1039C32.823 47.4885 32.5472 47.803 32.1765 47.9344C31.8059 48.0658 31.3936 47.9954 31.0876 47.7484L22.3974 40.7328C22.0786 40.4755 21.9238 40.066 21.9927 39.6621C22.0616 39.2583 22.3433 38.9232 22.7294 38.7861L33.7506 34.871C34.1368 34.7338 34.5671 34.8162 34.8753 35.0864ZM25.392 40.2419L31.0759 44.8304L32.6005 37.6812L25.392 40.2419Z" fill="#FCD57F"/>
<path id="Vector (Stroke)_7" fill-rule="evenodd" clip-rule="evenodd" d="M24.5495 19.2482C24.8442 19.1442 25.1673 19.2988 25.2713 19.5934L30.4311 34.213C30.5351 34.5076 30.3806 34.8308 30.0859 34.9348C29.7913 35.0388 29.4681 34.8842 29.3641 34.5896L24.2043 19.97C24.1003 19.6754 24.2548 19.3522 24.5495 19.2482Z" fill="white"/>
<path id="Vector (Stroke)_8" fill-rule="evenodd" clip-rule="evenodd" d="M19.7975 21.0334C20.0922 20.9294 20.4154 21.0839 20.5194 21.3786L25.6792 35.9981C25.7832 36.2928 25.6286 36.6159 25.334 36.7199C25.0393 36.8239 24.7162 36.6694 24.6122 36.3747L19.4523 21.7552C19.3483 21.4605 19.5029 21.1374 19.7975 21.0334Z" fill="white"/>
<path id="Vector_3" d="M27.8828 44.2231L31.7979 46.8709L33.1784 42.3447L27.8828 44.2231Z" fill="#FCD57F"/>
<path id="Vector_4" d="M17.4496 17.5855C15.7749 18.1739 14.9149 20.007 15.5033 21.6817L22.0436 40.1711L35.1469 35.5318L28.6066 17.0424C28.0182 15.3677 26.1851 14.5077 24.5104 15.0961L17.4496 17.6081V17.5855Z" fill="#3FB8EC"/>
<path id="Vector_5" d="M23.1074 39.8536L31.7977 46.8692L34.1286 35.9385L23.1074 39.8536Z" fill="white"/>
<path id="Vector (Stroke)_9" fill-rule="evenodd" clip-rule="evenodd" d="M34.8753 35.0864C35.1835 35.3566 35.3215 35.7723 35.236 36.1732L32.905 47.1039C32.823 47.4885 32.5472 47.803 32.1765 47.9344C31.8059 48.0658 31.3936 47.9954 31.0876 47.7484L22.3974 40.7328C22.0786 40.4755 21.9238 40.066 21.9927 39.6621C22.0616 39.2583 22.3433 38.9232 22.7294 38.7861L33.7506 34.871C34.1368 34.7338 34.5671 34.8162 34.8753 35.0864ZM25.392 40.2419L31.0759 44.8304L32.6005 37.6812L25.392 40.2419Z" fill="#3FB8EC"/>
<path id="Vector (Stroke)_10" fill-rule="evenodd" clip-rule="evenodd" d="M24.5495 19.2482C24.8442 19.1442 25.1673 19.2988 25.2713 19.5934L30.4311 34.213C30.5351 34.5076 30.3806 34.8308 30.0859 34.9348C29.7913 35.0388 29.4681 34.8842 29.3641 34.5896L24.2043 19.97C24.1003 19.6754 24.2548 19.3522 24.5495 19.2482Z" fill="white"/>
<path id="Vector (Stroke)_11" fill-rule="evenodd" clip-rule="evenodd" d="M19.7975 21.0334C20.0922 20.9294 20.4154 21.0839 20.5194 21.3786L25.6792 35.9981C25.7832 36.2928 25.6286 36.6159 25.334 36.7199C25.0393 36.8239 24.7162 36.6694 24.6122 36.3747L19.4523 21.7552C19.3483 21.4605 19.5029 21.1374 19.7975 21.0334Z" fill="white"/>
<path id="Vector_6" d="M27.8828 44.2231L31.7979 46.8709L33.1784 42.3447L27.8828 44.2231Z" fill="#3FB8EC"/>
</g>
</svg>
