<svg width="40" height="40" viewBox="0 0 40 40" fill="none" xmlns="http://www.w3.org/2000/svg">
<rect x="5.16992" y="9" width="30" height="22" rx="3" stroke="white" stroke-width="2"/>
<path fill-rule="evenodd" clip-rule="evenodd" d="M17 20C17 19.4477 17.4477 19 18 19L29 19C29.5523 19 30 19.4477 30 20C30 20.5523 29.5523 21 29 21L18 21C17.4477 21 17 20.5523 17 20Z" fill="white"/>
<path fill-rule="evenodd" clip-rule="evenodd" d="M10 20C10 19.4477 10.4477 19 11 19H14C14.5523 19 15 19.4477 15 20C15 20.5523 14.5523 21 14 21H11C10.4477 21 10 20.5523 10 20Z" fill="white"/>
<path fill-rule="evenodd" clip-rule="evenodd" d="M23 25C23 25.5523 22.5523 26 22 26H11C10.4477 26 10 25.5523 10 25C10 24.4477 10.4477 24 11 24H22C22.5523 24 23 24.4477 23 25Z" fill="white"/>
<path fill-rule="evenodd" clip-rule="evenodd" d="M30 25C30 25.5523 29.5523 26 29 26L26 26C25.4477 26 25 25.5523 25 25C25 24.4477 25.4477 24 26 24L29 24C29.5523 24 30 24.4477 30 25Z" fill="white"/>
</svg>
