<svg width="32" height="35" viewBox="0 0 32 35" fill="none" xmlns="http://www.w3.org/2000/svg">
<path d="M1 19C1 10.7157 7.71573 4 16 4C24.2843 4 31 10.7157 31 19C31 27.2843 24.2843 34 16 34C7.71573 34 1 27.2843 1 19Z" fill="#00B9AD"/>
<path d="M1 19C1 10.7157 7.71573 4 16 4C24.2843 4 31 10.7157 31 19C31 27.2843 24.2843 34 16 34C7.71573 34 1 27.2843 1 19Z" stroke="#00B9AD" stroke-width="2"/>
<path d="M12.14 17.58C12.14 17.38 12.18 17.2467 12.26 17.18C12.34 17.1133 12.4733 17.08 12.66 17.08H15.6C15.8933 17.08 16.1733 17.0333 16.44 16.94C16.7067 16.8467 16.94 16.7133 17.14 16.54C17.34 16.3533 17.4933 16.1333 17.6 15.88C17.72 15.6267 17.78 15.34 17.78 15.02C17.78 14.34 17.54 13.8133 17.06 13.44C16.5933 13.0533 15.98 12.86 15.22 12.86C14.5667 12.86 13.92 12.9 13.28 12.98C12.6533 13.06 12.1467 13.1467 11.76 13.24C11.2933 13.3467 11.0333 13.1667 10.98 12.7L10.78 10.74C10.74 10.3267 10.9067 10.0933 11.28 10.04C11.5067 10 11.7933 9.95333 12.14 9.9C12.4867 9.83333 12.8667 9.78 13.28 9.74C13.6933 9.68667 14.1333 9.64 14.6 9.6C15.0667 9.56 15.5333 9.54 16 9.54C16.92 9.54 17.72 9.64667 18.4 9.86C19.0933 10.06 19.6667 10.3467 20.12 10.72C20.5867 11.0933 20.9333 11.5333 21.16 12.04C21.3867 12.5467 21.5 13.1067 21.5 13.72C21.5 14.0933 21.48 14.4733 21.44 14.86C21.4133 15.2467 21.3333 15.6333 21.2 16.02C21.0667 16.3933 20.8667 16.7667 20.6 17.14C20.3333 17.5133 19.96 17.88 19.48 18.24C19.9333 18.5467 20.3067 18.86 20.6 19.18C20.9067 19.5 21.1467 19.84 21.32 20.2C21.4933 20.56 21.6133 20.9533 21.68 21.38C21.76 21.8067 21.8 22.2733 21.8 22.78C21.8 23.54 21.6667 24.2267 21.4 24.84C21.1467 25.4667 20.7667 26 20.26 26.44C19.7667 26.8933 19.1533 27.24 18.42 27.48C17.7 27.7333 16.8733 27.86 15.94 27.86C15.4733 27.86 14.9933 27.84 14.5 27.8C14.02 27.76 13.5533 27.7133 13.1 27.66C12.6467 27.6067 12.22 27.5467 11.82 27.48C11.4333 27.4267 11.1067 27.38 10.84 27.34C10.5733 27.3 10.4 27.2267 10.32 27.12C10.2533 27.0133 10.2333 26.8467 10.26 26.62L10.48 24.52C10.5067 24.3067 10.5733 24.1733 10.68 24.12C10.7867 24.0533 10.96 24.0533 11.2 24.12C11.44 24.1867 11.7267 24.2467 12.06 24.3C12.4067 24.34 12.7667 24.38 13.14 24.42C13.5267 24.46 13.9133 24.4867 14.3 24.5C14.7 24.5267 15.0733 24.54 15.42 24.54C17.2067 24.54 18.1 23.7867 18.1 22.28C18.1 21.64 17.8667 21.1667 17.4 20.86C16.9467 20.5533 16.3467 20.4 15.6 20.4H12.66C12.4733 20.4 12.34 20.3667 12.26 20.3C12.18 20.2333 12.14 20.1 12.14 19.9V17.58Z" fill="white"/>
</svg>
