<svg width="34" height="44" viewBox="0 0 34 44" fill="none" xmlns="http://www.w3.org/2000/svg">
<path d="M17 38.9375H1.0625V23C1.0625 14.198 8.19796 7.0625 17 7.0625C25.802 7.0625 32.9375 14.198 32.9375 23C32.9375 31.802 25.802 38.9375 17 38.9375Z" fill="white"/>
<path d="M17 38.9375H1.0625V23C1.0625 14.198 8.19796 7.0625 17 7.0625C25.802 7.0625 32.9375 14.198 32.9375 23C32.9375 31.802 25.802 38.9375 17 38.9375Z" stroke="#00B9AD" stroke-width="2.125"/>
<path d="M15.7347 32.5473C15.5307 32.5473 15.385 32.5108 15.2976 32.438C15.2101 32.3651 15.1664 32.2194 15.1664 32.0008V17.5095L11.5819 19.8483C11.2613 20.0523 11.0136 20.0013 10.8387 19.6953L9.59283 17.5751C9.47626 17.3711 9.41797 17.2108 9.41797 17.0943C9.43254 16.9631 9.53454 16.8393 9.72397 16.7227L15.1664 13.1163C15.283 13.0434 15.3777 12.9997 15.4506 12.9851C15.5234 12.956 15.6327 12.9414 15.7784 12.9414H18.7947C18.9987 12.9414 19.1444 12.9778 19.2319 13.0507C19.3193 13.1235 19.363 13.2692 19.363 13.4878V32.0008C19.363 32.2194 19.3193 32.3651 19.2319 32.438C19.1444 32.5108 18.9987 32.5473 18.7947 32.5473H15.7347Z" fill="#00646B"/>
</svg>
