<svg width="60" height="39" viewBox="0 0 60 39" fill="none" xmlns="http://www.w3.org/2000/svg">
<path d="M1.37143 18.0801C1.37143 8.89636 8.81629 1.45151 18 1.45151H42C51.1837 1.45151 58.6286 8.89637 58.6286 18.0801V32.4801C58.6286 35.0364 56.5563 37.1087 54 37.1087H6C3.44371 37.1087 1.37143 35.0364 1.37143 32.4801V18.0801Z" fill="white"/>
<path d="M1.37143 18.0801C1.37143 8.89636 8.81629 1.45151 18 1.45151H42C51.1837 1.45151 58.6286 8.89637 58.6286 18.0801V32.4801C58.6286 35.0364 56.5563 37.1087 54 37.1087H6C3.44371 37.1087 1.37143 35.0364 1.37143 32.4801V18.0801Z" stroke="#E0A9CD" stroke-width="2.74286"/>
<path d="M28.1144 24.8322C28.1664 24.8495 28.2184 24.8582 28.2704 24.8582C28.3224 24.8408 28.3744 24.8322 28.4264 24.8322C28.7211 24.8668 28.9897 24.9275 29.2324 25.0142C29.4924 25.0835 29.7437 25.2222 29.9864 25.4302C30.2291 25.6728 30.3504 25.9762 30.3504 26.3402C30.3504 26.5308 30.3157 26.7388 30.2464 26.9642C30.1944 27.1722 30.1164 27.3368 30.0124 27.4582C29.8737 27.5968 29.7004 27.7008 29.4924 27.7702C29.2844 27.8395 29.0851 27.8915 28.8944 27.9262C28.7037 27.9435 28.5304 27.9522 28.3744 27.9522C28.2357 27.9522 28.1577 27.9522 28.1404 27.9522H13.5804C13.4937 27.9522 13.4071 27.9608 13.3204 27.9782C13.2337 27.9782 13.1471 27.9782 13.0604 27.9782C12.6964 27.9955 12.3064 27.9955 11.8904 27.9782C11.4744 27.9435 11.1191 27.8048 10.8244 27.5622C10.4604 27.2328 10.2784 26.8602 10.2784 26.4442C10.2784 26.1842 10.3564 25.9155 10.5124 25.6382C10.6684 25.3608 10.8764 25.1702 11.1364 25.0662C11.4831 24.9275 11.8384 24.8582 12.2024 24.8582C12.5837 24.8582 12.9651 24.8495 13.3464 24.8322H13.4764C14.9844 24.7975 16.5357 24.7975 18.1304 24.8322L18.1044 21.2442C17.4457 21.2615 16.8477 21.2702 16.3104 21.2702C15.7904 21.2702 15.3744 21.2528 15.0624 21.2182C14.6984 21.2008 14.2997 21.1748 13.8664 21.1402C13.4331 21.0882 13.0691 20.9495 12.7744 20.7242C12.5837 20.5682 12.4277 20.3515 12.3064 20.0742C12.2024 19.7968 12.1244 19.5195 12.0724 19.2422C12.0204 18.9648 11.9857 18.7222 11.9684 18.5142C11.9684 18.2888 11.9684 18.1675 11.9684 18.1502V12.5602C11.9684 12.2135 11.9511 11.8668 11.9164 11.5202C11.8991 11.1735 11.9251 10.8268 11.9944 10.4802C12.0464 10.2722 12.1331 10.1075 12.2544 9.98617C12.3931 9.84751 12.5491 9.74351 12.7224 9.67418C12.9131 9.58751 13.1124 9.52684 13.3204 9.49217C13.5457 9.45751 13.7537 9.43151 13.9444 9.41417C14.1004 9.41417 14.2651 9.42284 14.4384 9.44018C14.6117 9.45751 14.7764 9.50084 14.9324 9.57018C15.0884 9.62217 15.2184 9.70884 15.3224 9.83018C15.4437 9.93417 15.5217 10.0728 15.5564 10.2462C15.5737 10.3328 15.5737 10.4975 15.5564 10.7402C15.5564 10.9828 15.5564 11.2515 15.5564 11.5462C15.5564 11.8235 15.5564 12.0922 15.5564 12.3522C15.5737 12.5948 15.5997 12.7508 15.6344 12.8202C15.6691 12.9068 15.7557 12.9675 15.8944 13.0022C16.0504 13.0195 16.1717 13.0368 16.2584 13.0542C16.6571 13.0888 16.9691 13.0975 17.1944 13.0802C17.4197 13.0455 17.7317 13.0282 18.1304 13.0282L24.0844 13.0542C24.2751 13.0715 24.4311 13.0715 24.5524 13.0542C24.6911 13.0195 24.7864 12.9068 24.8384 12.7162C24.8384 12.6295 24.8384 12.4822 24.8384 12.2742C24.8557 12.0488 24.8644 11.8235 24.8644 11.5982C24.8644 11.3555 24.8644 11.1388 24.8644 10.9482C24.8817 10.7402 24.8904 10.6015 24.8904 10.5322C24.9077 10.2202 24.9684 9.97751 25.0724 9.80418C25.1937 9.61351 25.4191 9.48351 25.7484 9.41417C26.0951 9.32751 26.4677 9.31017 26.8664 9.36217C27.2824 9.39684 27.5857 9.50951 27.7764 9.70018C28.0537 9.99484 28.2097 10.3328 28.2444 10.7142C28.2791 11.0955 28.2964 11.6242 28.2964 12.3002C28.2791 12.6988 28.2704 13.2188 28.2704 13.8602C28.2877 14.4842 28.2964 15.1342 28.2964 15.8102C28.2964 16.4862 28.2877 17.1362 28.2704 17.7602C28.2704 18.3842 28.2531 18.8955 28.2184 19.2942C28.1317 20.3515 27.5857 20.9582 26.5804 21.1142C26.3204 21.1488 26.0257 21.1662 25.6964 21.1662C25.3844 21.1662 25.0984 21.1662 24.8384 21.1662C24.2837 21.1835 23.7377 21.1922 23.2004 21.1922C22.6631 21.1922 22.1344 21.1922 21.6144 21.1922L21.6664 24.8322C22.0997 24.8322 22.5071 24.8322 22.8884 24.8322C23.2871 24.8148 23.6684 24.8062 24.0324 24.8062C24.3964 24.8062 24.7691 24.8062 25.1504 24.8062C25.5317 24.8062 25.9304 24.8148 26.3464 24.8322C26.6584 24.8495 26.9617 24.8495 27.2564 24.8322C27.5511 24.7975 27.8371 24.7975 28.1144 24.8322ZM15.6344 17.8902C15.7037 18.1502 15.8857 18.3062 16.1804 18.3582C16.4924 18.3928 16.7957 18.4188 17.0904 18.4362C17.1251 18.4362 17.2897 18.4362 17.5844 18.4362C17.8791 18.4188 18.2344 18.4102 18.6504 18.4102C19.0664 18.4102 19.5084 18.4102 19.9764 18.4102C20.4617 18.3928 20.9124 18.3842 21.3284 18.3842C21.7617 18.3842 22.1257 18.3928 22.4204 18.4102C22.7151 18.4102 22.8884 18.4102 22.9404 18.4102C23.0791 18.4275 23.2177 18.4362 23.3564 18.4362C23.5124 18.4188 23.6597 18.4188 23.7984 18.4362C23.8851 18.4362 23.9804 18.4448 24.0844 18.4622C24.2057 18.4795 24.3184 18.4795 24.4224 18.4622C24.5264 18.4448 24.6131 18.4015 24.6824 18.3322C24.7517 18.2628 24.7864 18.1588 24.7864 18.0202C24.7864 17.9508 24.7864 17.8468 24.7864 17.7082C24.7864 17.5522 24.7864 17.3875 24.7864 17.2142C24.7864 17.0235 24.7777 16.8415 24.7604 16.6682C24.7604 16.4775 24.7431 16.3215 24.7084 16.2002C24.6564 15.9922 24.5697 15.8795 24.4484 15.8622C24.3444 15.8275 24.2057 15.8188 24.0324 15.8362C23.9457 15.8362 23.8071 15.8448 23.6164 15.8622C23.4431 15.8622 23.3131 15.8535 23.2264 15.8362H17.2984C17.1424 15.8362 16.9691 15.8362 16.7784 15.8362C16.5877 15.8188 16.4057 15.8275 16.2324 15.8622C16.0764 15.8795 15.9377 15.9402 15.8164 16.0442C15.6951 16.1308 15.6257 16.2782 15.6084 16.4862C15.6084 16.5382 15.6084 16.6335 15.6084 16.7722C15.6084 16.9108 15.6084 17.0582 15.6084 17.2142C15.6084 17.3702 15.6084 17.5175 15.6084 17.6562C15.6257 17.7775 15.6344 17.8555 15.6344 17.8902ZM49.696 27.5622C49.6613 27.7702 49.6353 27.9782 49.618 28.1862C49.6007 28.3768 49.5573 28.5762 49.488 28.7842C49.4533 28.8535 49.4273 28.9142 49.41 28.9662C49.3927 29.0182 49.3667 29.0788 49.332 29.1482C49.2107 29.3908 49.0547 29.5815 48.864 29.7202C48.4653 29.9628 48.0233 30.0235 47.538 29.9022C47.2607 29.8502 47.0353 29.7462 46.862 29.5902C46.706 29.4515 46.5847 29.2695 46.498 29.0442C46.4287 28.8362 46.368 28.6282 46.316 28.4202C46.2813 28.2122 46.264 28.0302 46.264 27.8742C46.264 27.7182 46.264 27.6315 46.264 27.6142V11.5462C46.264 11.3382 46.264 11.1128 46.264 10.8702C46.264 10.6275 46.2813 10.3848 46.316 10.1422C46.3507 9.89951 46.4027 9.67417 46.472 9.46618C46.5413 9.25817 46.6367 9.09351 46.758 8.97218C46.9487 8.78151 47.148 8.66884 47.356 8.63418C47.564 8.58217 47.7893 8.55617 48.032 8.55617C48.3267 8.55617 48.5953 8.64284 48.838 8.81617C49.098 8.97217 49.28 9.19751 49.384 9.49217C49.54 9.85618 49.6267 10.2375 49.644 10.6362C49.6613 11.0348 49.6787 11.4335 49.696 11.8322V11.9622C49.7307 13.2968 49.7393 14.6662 49.722 16.0702C49.7047 17.4742 49.696 18.8002 49.696 20.0482V26.6262C49.696 26.7822 49.696 26.9382 49.696 27.0942C49.7133 27.2502 49.7133 27.4062 49.696 27.5622ZM37.424 25.0142C37.4067 24.8062 37.398 24.5982 37.398 24.3902C37.398 24.1822 37.398 23.9742 37.398 23.7662V15.4982C37.398 15.2208 37.398 14.9435 37.398 14.6662C37.398 14.3888 37.3807 14.1028 37.346 13.8082C37.3287 13.7215 37.3027 13.6002 37.268 13.4442C37.2507 13.2882 37.1987 13.1928 37.112 13.1582C37.0253 13.1062 36.9213 13.0888 36.8 13.1062C36.696 13.1062 36.592 13.0975 36.488 13.0802C36.3667 13.0628 36.2453 13.0628 36.124 13.0802C36.02 13.0975 35.9073 13.0975 35.786 13.0802H34.564C34.2693 13.0975 33.9747 13.0975 33.68 13.0802C33.3853 13.0628 33.0907 13.0628 32.796 13.0802C32.6573 13.0975 32.5273 13.1062 32.406 13.1062C32.302 13.0888 32.1807 13.0802 32.042 13.0802C31.8513 13.0802 31.652 13.0715 31.444 13.0542C31.236 13.0368 31.0453 12.9675 30.872 12.8462C30.6293 12.6728 30.4647 12.4562 30.378 12.1962C30.2913 11.9362 30.248 11.6675 30.248 11.3902C30.2307 11.0608 30.3 10.7315 30.456 10.4022C30.5427 10.1942 30.6553 10.0468 30.794 9.96018C30.8807 9.87351 31.002 9.80417 31.158 9.75217C31.3313 9.68284 31.4787 9.63084 31.6 9.59618C31.964 9.50951 32.3453 9.46618 32.744 9.46618C33.1427 9.44884 33.5327 9.44018 33.914 9.44018H38.438C38.6633 9.47484 38.8973 9.50951 39.14 9.54417C39.4 9.56151 39.634 9.61351 39.842 9.70018C39.9807 9.75217 40.1107 9.82151 40.232 9.90817C40.3707 9.99484 40.4833 10.0988 40.57 10.2202C40.726 10.4628 40.8127 10.7055 40.83 10.9482C40.8647 11.1908 40.8993 11.4595 40.934 11.7542C40.9687 12.2395 40.986 12.7248 40.986 13.2102C40.986 13.6782 40.986 14.1548 40.986 14.6402V23.1682C40.986 23.1855 40.986 23.3242 40.986 23.5842C41.0033 23.8268 41.012 24.1215 41.012 24.4682C41.012 24.7975 41.012 25.1528 41.012 25.5342C41.012 25.8982 41.0033 26.2188 40.986 26.4962C40.9687 26.6695 40.9427 26.8515 40.908 27.0422C40.8733 27.2328 40.8127 27.4148 40.726 27.5882C40.6567 27.7615 40.5527 27.9175 40.414 28.0562C40.2753 28.1948 40.0933 28.3075 39.868 28.3942C39.5733 28.5155 39.2787 28.5762 38.984 28.5762C38.7587 28.5762 38.5333 28.5328 38.308 28.4462C38.0827 28.3422 37.9267 28.1948 37.84 28.0042C37.5627 27.4495 37.424 26.8342 37.424 26.1582V25.0142Z" fill="#AD5A8F"/>
</svg>
