<?xml version="1.0" encoding="UTF-8"?>
<svg id="Layer_1" xmlns="http://www.w3.org/2000/svg" version="1.1" xmlns:xlink="http://www.w3.org/1999/xlink" viewBox="0 0 64 96">
  <!-- Generator: Adobe Illustrator 29.3.1, SVG Export Plug-In . SVG Version: 2.1.0 Build 151)  -->
  <defs>
    <style>
      .st0 {
        fill: #DA511D;
      }

      .st1 {
        fill: #fff;
      }

      .st2 {
        mask: url(#mask);
      }
    </style>
    <mask id="mask" x="6" y="15" width="52" height="67" maskUnits="userSpaceOnUse">
      <g id="path-1-outside-1_173_119">
        <rect class="st1" x="6" y="15" width="52" height="67"/>
        <path d="M31.9,77.8c-12.5,0-21.4-6.9-21.6-16.6h11.8c.2,4.1,4.3,6.9,9.8,6.9s9.7-3.1,9.6-7.7c0-4.6-4-7.8-10.7-7.8h-5.1v-8.6h5.1c5.7,0,9.5-3.1,9.4-7.7,0-4.2-3.2-7.2-8.2-7.2s-9.2,2.8-9.3,7.2h-11.4c.2-9.8,9-16.6,20.6-16.5,11.8,0,19.6,7,19.5,15.8,0,6.4-4.3,10.9-10.7,12v.5c8.4,1,13,6,13,13.1s-9.2,16.6-21.9,16.6Z"/>
      </g>
    </mask>
  </defs>
  <g class="st2">
    <path class="st0" d="M10.3,61.2v-4c-1.1,0-2.1.4-2.9,1.2-.8.8-1.2,1.8-1.1,2.9h4ZM22.2,61.2l4-.2c-.1-2.1-1.9-3.8-4-3.8v4ZM41.5,60.4h-4s0,0,0,0h4ZM25.7,52.5h-4c0,2.2,1.8,4,4,4v-4ZM25.7,43.9v-4c-2.2,0-4,1.8-4,4h4ZM30.8,43.9v4s0,0,0,0v-4ZM40.3,36.2h-4s0,0,0,0h4ZM22.8,36.2v4c2.2,0,4-1.7,4-3.9h-4ZM11.5,36.2h-4c0,1,.4,2,1.1,2.8.8.8,1.8,1.2,2.9,1.2v-4ZM32.1,19.7v4s0,0,0,0v-4ZM51.6,35.6h-4s0,0,0,0h4ZM40.9,47.6l-.7-3.9c-1.9.3-3.3,2-3.3,3.9h4ZM40.9,48h-4c0,2,1.5,3.7,3.5,4l.5-4ZM31.9,73.8c-11.2,0-17.4-6-17.6-12.7l-8,.2c.3,12.7,11.9,20.5,25.6,20.5v-8ZM10.3,65.2h11.8v-8h-11.8v8ZM18.2,61.4c.4,7.2,7.3,10.6,13.8,10.6v-8c-4.5,0-5.7-2.1-5.8-3.1l-8,.5ZM31.9,72c3.5,0,6.9-1,9.4-3,2.6-2.1,4.2-5.2,4.2-8.8h-8c0,1.1-.4,1.9-1.1,2.5-.8.7-2.3,1.3-4.5,1.3v8ZM45.5,60.4c0-3.6-1.6-6.8-4.4-8.9-2.7-2-6.3-3-10.3-3v8c2.8,0,4.5.7,5.5,1.4.9.7,1.2,1.4,1.2,2.4h8ZM30.8,48.5h-5.1v8h5.1v-8ZM29.7,52.5v-8.6h-8v8.6h8ZM25.7,47.9h5.1v-8h-5.1v8ZM30.9,47.9c3.5,0,6.8-1,9.3-3,2.6-2.1,4.1-5.2,4-8.7h-8c0,1.2-.4,1.9-1.1,2.5-.8.6-2.2,1.2-4.4,1.3v8ZM44.3,36.3c0-3.2-1.2-6.2-3.5-8.3-2.3-2-5.4-3-8.6-3v8c1.7,0,2.8.5,3.3,1,.5.5.9,1.1.8,2.1l8,.2ZM32.1,25c-6.1,0-13.1,3.6-13.3,11.1h8c0-.7.4-1.4,1.2-2,.9-.6,2.3-1.2,4.1-1.2v-8ZM22.8,32.2h-11.4v8h11.4v-8ZM15.5,36.3c.2-6.9,6.4-12.6,16.6-12.6v-8c-12.9,0-24.3,7.7-24.6,20.4l8,.2ZM32.1,23.7c10.2,0,15.5,5.8,15.5,11.8h8c.1-11.7-10.3-19.9-23.5-19.8v8ZM47.6,35.6c0,4.1-2.6,7.2-7.4,8l1.4,7.9c8-1.4,14.1-7.3,14-16h-8ZM36.9,47.6v.5h8v-.5h-8ZM40.4,52c3.5.4,5.8,1.6,7.2,3.1,1.4,1.4,2.2,3.4,2.2,6.1h8c0-4.4-1.4-8.5-4.5-11.6-3-3.1-7.2-4.9-12.1-5.4l-.9,7.9ZM49.9,61.2c0,6.5-6.3,12.6-17.9,12.6v8c13.8,0,25.9-7.8,25.9-20.6h-8Z"/>
  </g>
</svg>