<svg width="51" height="45" viewBox="0 0 51 45" fill="none" xmlns="http://www.w3.org/2000/svg">
<path d="M36.7741 13.0781L36.3991 10.6406C36.3991 10.6406 38.0866 9.14061 38.0866 8.95311C38.8366 8.20311 38.8366 7.26561 37.7116 7.07811L35.0866 6.70309L33.9616 4.45312C33.3991 3.51563 32.6491 3.51563 32.0866 4.45312L30.9616 6.70309L28.3366 7.07811C27.3991 7.26561 27.2116 8.20311 27.9616 8.95311L29.6491 10.6406L29.2741 13.0781C29.0866 14.2031 29.8366 14.7656 30.9616 14.2031C31.1491 14.2031 33.0241 13.0781 33.0241 13.0781C33.0241 13.0781 34.8991 14.0156 35.0866 14.2031C36.2116 14.7656 36.9616 14.3906 36.7741 13.0781Z" fill="#F59C00"/>
<path d="M33.3991 26.2031C34.1491 25.0781 34.8991 24.1406 34.8991 23.9531C36.7741 21.3281 36.0241 19.2656 33.2116 18.8906L25.8991 19.0781L21.5866 13.2656C19.7116 11.2031 17.6491 11.5781 16.5241 14.2031L14.4616 21.1406L7.52409 23.3906C5.08659 24.7031 4.89909 26.9531 7.52409 28.6406C7.71159 28.8281 12.9616 32.3906 12.9616 32.3906V39.1406C13.1491 42.5156 15.3991 43.4531 18.0241 41.3906C18.0241 41.3906 18.7741 40.8281 19.7116 40.0781" stroke="#F59C00" stroke-width="2" stroke-linecap="round" stroke-linejoin="round"/>
<path d="M25.8992 23.7671L23.8367 25.4546L27.0242 25.6421" stroke="#F59C00" stroke-width="2" stroke-linecap="round" stroke-linejoin="round"/>
<path d="M18.4 26.7668C18.2125 26.0168 17.4625 25.4543 16.7125 25.6418C15.9625 25.8293 15.4 26.5793 15.5875 27.3293" stroke="#F59C00" stroke-width="2" stroke-linecap="round" stroke-linejoin="round"/>
<path d="M48.7743 21.0781L48.3993 18.6406C48.3993 18.6406 50.0868 17.1406 50.0868 16.9531C50.8368 16.2031 50.8368 15.2656 49.7118 15.0781L47.0868 14.7031L45.9618 12.4531C45.3993 11.5156 44.6493 11.5156 44.0868 12.4531L42.9618 14.7031L40.3368 15.0781C39.3993 15.2656 39.2118 16.2031 39.9618 16.9531L41.6493 18.6406L41.2743 21.0781C41.0868 22.2031 41.8368 22.7656 42.9618 22.2031C43.1493 22.2031 45.0243 21.0781 45.0243 21.0781C45.0243 21.0781 46.8993 22.0156 47.0868 22.2031C48.2118 22.7656 48.9618 22.3906 48.7743 21.0781Z" fill="#F59C00"/>
</svg>
