<?xml version="1.0" encoding="UTF-8"?>
<svg id="Layer_1" xmlns="http://www.w3.org/2000/svg" version="1.1" xmlns:xlink="http://www.w3.org/1999/xlink" viewBox="0 0 64 96">
  <!-- Generator: Adobe Illustrator 29.3.1, SVG Export Plug-In . SVG Version: 2.1.0 Build 151)  -->
  <defs>
    <style>
      .st0 {
        fill: #F69C9C;
      }

      .st1 {
        fill: #fff;
      }

      .st2 {
        mask: url(#mask);
      }
    </style>
    <mask id="mask" x="12" y="16" width="35" height="65" maskUnits="userSpaceOnUse">
      <g id="path-1-outside-1_173_119">
        <rect class="st1" x="12" y="16" width="35" height="65"/>
        <path d="M42.1,20.4v56.6h-11.7V31.6h-.5l-13,8.2v-10.4l14.1-9h11Z"/>
      </g>
    </mask>
  </defs>
  <g class="st2">
    <path class="st0" d="M42.1,20.4h4c0-2.2-1.8-4-4-4v4ZM42.1,77v4c2.2,0,4-1.8,4-4h-4ZM30.4,77h-4c0,2.2,1.8,4,4,4v-4ZM30.4,31.6h4c0-2.2-1.8-4-4-4v4ZM29.9,31.6v-4c-.8,0-1.5.2-2.1.6l2.1,3.4ZM17,39.7h-4c0,1.5.8,2.8,2.1,3.5,1.3.7,2.8.7,4.1-.1l-2.1-3.4ZM17,29.3l-2.1-3.4c-1.2.7-1.9,2-1.9,3.4h4ZM31,20.4v-4c-.8,0-1.5.2-2.1.6l2.1,3.4ZM38.1,20.4v56.6h8V20.4h-8ZM42.1,73h-11.7v8h11.7v-8ZM34.4,77V31.6h-8v45.4h8ZM30.4,27.6h-.5v8h.5v-8ZM27.8,28.2l-13,8.2,4.3,6.8,13-8.2-4.3-6.8ZM21,39.7v-10.4h-8v10.4h8ZM19.1,32.7l14.1-9-4.3-6.7-14.1,9,4.3,6.7ZM31,24.4h11v-8h-11v8Z"/>
  </g>
</svg>