<?xml version="1.0" encoding="UTF-8"?>
<svg id="Layer_1" xmlns="http://www.w3.org/2000/svg" version="1.1" xmlns:xlink="http://www.w3.org/1999/xlink" viewBox="0 0 64 96">
  <!-- Generator: Adobe Illustrator 29.3.1, SVG Export Plug-In . SVG Version: 2.1.0 Build 151)  -->
  <defs>
    <style>
      .st0 {
        fill: #00B050;
      }

      .st1 {
        fill: #fff;
      }

      .st2 {
        mask: url(#mask);
      }
    </style>
    <mask id="mask" x="6" y="15" width="53" height="67" maskUnits="userSpaceOnUse">
      <g id="path-1-outside-1_173_119">
        <rect class="st1" x="6" y="15" width="53" height="67"/>
        <path d="M31.5,19.7c11.7,0,22.8,7,22.7,27.5,0,19.2-9,30.6-23.2,30.6s-19.2-7.2-20.3-16.6h11.5c1,4.1,4.2,6.6,8.8,6.6,7.7,0,11.8-7,11.8-18.2h-.6c-2.6,5-8.2,8-14.4,8-10.2,0-17.7-7.7-17.8-18.2,0-11.4,8.6-19.6,21.4-19.5ZM21.5,38.9c0,5.6,4.1,10,9.9,9.9,5.7,0,10.1-4.6,10.1-9.9s-4.2-10-10.1-10.1c-5.8,0-10.1,4.5-9.9,10.1Z"/>
      </g>
    </mask>
  </defs>
  <g class="st2">
    <path class="st0" d="M31.5,19.7v4s0,0,0,0v-4ZM54.2,47.2h-4s0,0,0,0h4ZM10.7,61.2v-4c-1.1,0-2.2.5-3,1.3-.8.9-1.1,2-1,3.1l4-.5ZM22.2,61.2l3.9-.9c-.4-1.8-2-3.1-3.9-3.1v4ZM42.8,49.5h4c0-1-.4-2.1-1.2-2.8-.8-.8-1.8-1.2-2.8-1.2v4ZM42.2,49.5v-4c-1.5,0-2.9.8-3.6,2.2l3.6,1.8ZM10,39.2h-4s0,0,0,0h4ZM21.5,38.9h4s0,0,0-.1h-4ZM31.5,48.8v-4s0,0,0,0v4ZM31.5,28.8v-4s0,0,0,0v4ZM31.5,23.7c5.1,0,9.6,1.5,12.9,4.9,3.3,3.3,5.8,9.1,5.8,18.7h8c0-11-2.9-19-8.1-24.3-5.2-5.3-12-7.2-18.6-7.2v8ZM50.2,47.3c0,9-2.1,15.7-5.4,20-3.2,4.2-7.9,6.5-13.8,6.5v8c8.3,0,15.3-3.4,20.1-9.6,4.7-6.2,7.1-14.8,7.1-24.9h-8ZM31,73.8c-9.6,0-15.5-5.8-16.3-13.1l-7.9.9c1.4,11.6,11,20.2,24.3,20.2v-8ZM10.7,65.2h11.5v-8h-11.5v8ZM18.3,62.1c1.4,6.1,6.5,9.6,12.7,9.6v-8c-2.9,0-4.4-1.4-4.9-3.5l-7.8,1.8ZM31,71.7c5.3,0,9.5-2.5,12.2-6.8,2.5-4,3.6-9.4,3.7-15.5h-8c0,5.2-1,8.9-2.5,11.2-1.3,2-3,3-5.4,3v8ZM42.8,45.5h-.6v8h.6v-8ZM38.6,47.7c-1.7,3.4-5.8,5.8-10.8,5.8v8c7.4,0,14.6-3.5,18-10.2l-7.1-3.6ZM27.8,53.5c-7.8,0-13.7-5.8-13.8-14.3h-8c0,12.7,9.3,22.3,21.8,22.3v-8ZM14,39.2c0-4.6,1.7-8.4,4.6-11.1,2.9-2.7,7.3-4.4,12.8-4.4v-8c-7.2,0-13.6,2.3-18.2,6.5-4.6,4.3-7.2,10.3-7.2,17h8ZM17.5,38.9c-.1,7.8,5.8,14.1,14,14v-8c-3.6,0-6-2.5-6-5.9h-8ZM31.4,52.8c8,.1,14.1-6.4,14.1-13.9h-8c0,3.2-2.6,6-6,5.9v8ZM45.5,38.9c0-7.6-6-14-14-14.1v8c3.5,0,6,2.8,6,6.1h8ZM31.4,24.8c-7.9.1-14.1,6.3-13.9,14.2l8-.2c0-3.3,2.4-5.9,6-6v-8Z"/>
  </g>
</svg>