<svg width="116" height="40" viewBox="0 0 116 40" fill="none" xmlns="http://www.w3.org/2000/svg">
<path d="M16.9721 17C10.0859 17 4.5 22.1475 4.5 28.5C4.5 34.8495 10.0859 40 16.9721 40H89.0279C95.9174 40 101.5 34.8495 101.5 28.5C101.5 22.1475 95.9174 17 89.0279 17H16.9721Z" fill="#5BB8A1"/>
<mask id="path-2-outside-1_7688_144974" maskUnits="userSpaceOnUse" x="15.5" y="3" width="55" height="35" fill="black">
<rect fill="white" x="15.5" y="3" width="55" height="35"/>
<path d="M30.452 24.192C36.148 24.224 39.604 26.112 39.604 29.376C39.604 32.608 36.148 34.496 30.452 34.496C24.724 34.496 21.236 32.608 21.236 29.376C21.236 26.112 24.724 24.224 30.452 24.192ZM18.804 21.312V8.512H21.236V12.736H29.3V8.512H31.732V21.312H18.804ZM21.236 19.328H29.3V14.72H21.236V19.328ZM23.668 29.376C23.668 31.328 26.26 32.544 30.452 32.512C34.644 32.544 37.204 31.328 37.236 29.376C37.204 27.36 34.644 26.176 30.452 26.176C26.26 26.176 23.668 27.36 23.668 29.376ZM36.916 23.488V6.784H39.348V13.76H43.508V15.872H39.348V23.488H36.916ZM48.1483 8.192V12.48H55.8923V8.192H58.3243V13.568H64.8523V6.784H67.2843V21.952H64.8523V15.68H58.3243V20.928H45.6523V8.192H48.1483ZM48.1483 18.88H55.8923V14.464H48.1483V18.88ZM49.4283 34.112V23.296H51.8603V26.688H64.8523V23.296H67.2843V34.112H49.4283ZM51.8603 32.128H64.8523V28.672H51.8603V32.128Z"/>
</mask>
<path d="M30.452 24.192C36.148 24.224 39.604 26.112 39.604 29.376C39.604 32.608 36.148 34.496 30.452 34.496C24.724 34.496 21.236 32.608 21.236 29.376C21.236 26.112 24.724 24.224 30.452 24.192ZM18.804 21.312V8.512H21.236V12.736H29.3V8.512H31.732V21.312H18.804ZM21.236 19.328H29.3V14.72H21.236V19.328ZM23.668 29.376C23.668 31.328 26.26 32.544 30.452 32.512C34.644 32.544 37.204 31.328 37.236 29.376C37.204 27.36 34.644 26.176 30.452 26.176C26.26 26.176 23.668 27.36 23.668 29.376ZM36.916 23.488V6.784H39.348V13.76H43.508V15.872H39.348V23.488H36.916ZM48.1483 8.192V12.48H55.8923V8.192H58.3243V13.568H64.8523V6.784H67.2843V21.952H64.8523V15.68H58.3243V20.928H45.6523V8.192H48.1483ZM48.1483 18.88H55.8923V14.464H48.1483V18.88ZM49.4283 34.112V23.296H51.8603V26.688H64.8523V23.296H67.2843V34.112H49.4283ZM51.8603 32.128H64.8523V28.672H51.8603V32.128Z" fill="white"/>
<path d="M30.452 24.192L30.4689 21.192C30.4576 21.192 30.4464 21.192 30.4352 21.192L30.452 24.192ZM18.804 21.312H15.804C15.804 22.9689 17.1471 24.312 18.804 24.312V21.312ZM18.804 8.512V5.512C17.1471 5.512 15.804 6.85514 15.804 8.512H18.804ZM21.236 8.512H24.236C24.236 6.85514 22.8929 5.512 21.236 5.512V8.512ZM21.236 12.736H18.236C18.236 14.3929 19.5791 15.736 21.236 15.736V12.736ZM29.3 12.736V15.736C30.9569 15.736 32.3 14.3929 32.3 12.736H29.3ZM29.3 8.512V5.512C27.6431 5.512 26.3 6.85514 26.3 8.512H29.3ZM31.732 8.512H34.732C34.732 6.85514 33.3889 5.512 31.732 5.512V8.512ZM31.732 21.312V24.312C33.3889 24.312 34.732 22.9689 34.732 21.312H31.732ZM21.236 19.328H18.236C18.236 20.9849 19.5791 22.328 21.236 22.328V19.328ZM29.3 19.328V22.328C30.9569 22.328 32.3 20.9849 32.3 19.328H29.3ZM29.3 14.72H32.3C32.3 13.0631 30.9569 11.72 29.3 11.72V14.72ZM21.236 14.72V11.72C19.5791 11.72 18.236 13.0631 18.236 14.72H21.236ZM30.452 32.512L30.4749 29.5121C30.4596 29.512 30.4444 29.512 30.4291 29.5121L30.452 32.512ZM37.236 29.376L40.2356 29.4252C40.2361 29.3929 40.2361 29.3606 40.2356 29.3284L37.236 29.376ZM36.916 23.488H33.916C33.916 25.1449 35.2591 26.488 36.916 26.488V23.488ZM36.916 6.784V3.784C35.2591 3.784 33.916 5.12714 33.916 6.784H36.916ZM39.348 6.784H42.348C42.348 5.12714 41.0049 3.784 39.348 3.784V6.784ZM39.348 13.76H36.348C36.348 15.4169 37.6911 16.76 39.348 16.76V13.76ZM43.508 13.76H46.508C46.508 12.1031 45.1649 10.76 43.508 10.76V13.76ZM43.508 15.872V18.872C45.1649 18.872 46.508 17.5289 46.508 15.872H43.508ZM39.348 15.872V12.872C37.6911 12.872 36.348 14.2151 36.348 15.872H39.348ZM39.348 23.488V26.488C41.0049 26.488 42.348 25.1449 42.348 23.488H39.348ZM30.4351 27.192C33.0242 27.2065 34.7395 27.6518 35.6964 28.1885C36.5182 28.6495 36.604 29.0329 36.604 29.376H42.604C42.604 26.4551 40.9618 24.2625 38.6316 22.9555C36.4365 21.7242 33.5758 21.2095 30.4689 21.192L30.4351 27.192ZM36.604 29.376C36.604 29.6915 36.5305 30.0678 35.7065 30.5258C34.7513 31.0568 33.0368 31.496 30.452 31.496V37.496C33.5632 37.496 36.4247 36.9912 38.6215 35.7702C40.9495 34.4762 42.604 32.2925 42.604 29.376H36.604ZM30.452 31.496C27.8494 31.496 26.1151 31.0563 25.1451 30.5212C24.3033 30.0568 24.236 29.6782 24.236 29.376H18.236C18.236 32.3058 19.9127 34.4872 22.2469 35.7748C24.4529 36.9917 27.3266 37.496 30.452 37.496V31.496ZM24.236 29.376C24.236 29.0462 24.3158 28.6605 25.1552 28.1932C26.1268 27.6523 27.862 27.2065 30.4688 27.192L30.4352 21.192C27.314 21.2095 24.4412 21.7237 22.2368 22.9508C19.9002 24.2515 18.236 26.4418 18.236 29.376H24.236ZM21.804 21.312V8.512H15.804V21.312H21.804ZM18.804 11.512H21.236V5.512H18.804V11.512ZM18.236 8.512V12.736H24.236V8.512H18.236ZM21.236 15.736H29.3V9.736H21.236V15.736ZM32.3 12.736V8.512H26.3V12.736H32.3ZM29.3 11.512H31.732V5.512H29.3V11.512ZM28.732 8.512V21.312H34.732V8.512H28.732ZM31.732 18.312H18.804V24.312H31.732V18.312ZM21.236 22.328H29.3V16.328H21.236V22.328ZM32.3 19.328V14.72H26.3V19.328H32.3ZM29.3 11.72H21.236V17.72H29.3V11.72ZM18.236 14.72V19.328H24.236V14.72H18.236ZM20.668 29.376C20.668 31.9708 22.4751 33.597 24.2249 34.4092C25.9557 35.2125 28.147 35.5297 30.4749 35.5119L30.4291 29.5121C28.565 29.5263 27.3643 29.2515 26.7511 28.9668C26.1569 28.691 26.668 28.7332 26.668 29.376H20.668ZM30.4291 35.5119C32.7576 35.5297 34.9424 35.2124 36.6706 34.4075C38.4263 33.5898 40.1938 31.9769 40.2356 29.4252L34.2364 29.3268C34.2462 28.7271 34.7177 28.6982 34.1374 28.9685C33.5296 29.2516 32.3384 29.5263 30.4749 29.5121L30.4291 35.5119ZM40.2356 29.3284C40.1951 26.773 38.4626 25.1412 36.6783 24.3041C34.9489 23.4927 32.7641 23.176 30.452 23.176V29.176C32.3319 29.176 33.5232 29.4513 34.1297 29.7359C34.4146 29.8696 34.447 29.9476 34.3931 29.8791C34.3114 29.7751 34.2391 29.597 34.2364 29.4236L40.2356 29.3284ZM30.452 23.176C28.1405 23.176 25.9493 23.4926 24.2173 24.3024C22.4377 25.1345 20.668 26.7793 20.668 29.376H26.668C26.668 29.5655 26.591 29.7593 26.5017 29.8735C26.4425 29.9492 26.4704 29.8724 26.7587 29.7376C27.3707 29.4514 28.5715 29.176 30.452 29.176V23.176ZM39.916 23.488V6.784H33.916V23.488H39.916ZM36.916 9.784H39.348V3.784H36.916V9.784ZM36.348 6.784V13.76H42.348V6.784H36.348ZM39.348 16.76H43.508V10.76H39.348V16.76ZM40.508 13.76V15.872H46.508V13.76H40.508ZM43.508 12.872H39.348V18.872H43.508V12.872ZM36.348 15.872V23.488H42.348V15.872H36.348ZM39.348 20.488H36.916V26.488H39.348V20.488ZM48.1483 8.192H51.1483C51.1483 6.53515 49.8051 5.192 48.1483 5.192V8.192ZM48.1483 12.48H45.1483C45.1483 14.1369 46.4914 15.48 48.1483 15.48V12.48ZM55.8923 12.48V15.48C57.5491 15.48 58.8923 14.1369 58.8923 12.48H55.8923ZM55.8923 8.192V5.192C54.2354 5.192 52.8923 6.53515 52.8923 8.192H55.8923ZM58.3243 8.192H61.3243C61.3243 6.53515 59.9811 5.192 58.3243 5.192V8.192ZM58.3243 13.568H55.3243C55.3243 15.2249 56.6674 16.568 58.3243 16.568V13.568ZM64.8523 13.568V16.568C66.5091 16.568 67.8523 15.2249 67.8523 13.568H64.8523ZM64.8523 6.784V3.784C63.1954 3.784 61.8523 5.12714 61.8523 6.784H64.8523ZM67.2843 6.784H70.2843C70.2843 5.12714 68.9411 3.784 67.2843 3.784V6.784ZM67.2843 21.952V24.952C68.9411 24.952 70.2843 23.6089 70.2843 21.952H67.2843ZM64.8523 21.952H61.8523C61.8523 23.6089 63.1954 24.952 64.8523 24.952V21.952ZM64.8523 15.68H67.8523C67.8523 14.0231 66.5091 12.68 64.8523 12.68V15.68ZM58.3243 15.68V12.68C56.6674 12.68 55.3243 14.0231 55.3243 15.68H58.3243ZM58.3243 20.928V23.928C59.9811 23.928 61.3243 22.5849 61.3243 20.928H58.3243ZM45.6523 20.928H42.6523C42.6523 22.5849 43.9954 23.928 45.6523 23.928V20.928ZM45.6523 8.192V5.192C43.9954 5.192 42.6523 6.53515 42.6523 8.192H45.6523ZM48.1483 18.88H45.1483C45.1483 20.5369 46.4914 21.88 48.1483 21.88V18.88ZM55.8923 18.88V21.88C57.5491 21.88 58.8923 20.5369 58.8923 18.88H55.8923ZM55.8923 14.464H58.8923C58.8923 12.8071 57.5491 11.464 55.8923 11.464V14.464ZM48.1483 14.464V11.464C46.4914 11.464 45.1483 12.8071 45.1483 14.464H48.1483ZM49.4283 34.112H46.4283C46.4283 35.7689 47.7714 37.112 49.4283 37.112V34.112ZM49.4283 23.296V20.296C47.7714 20.296 46.4283 21.6391 46.4283 23.296H49.4283ZM51.8603 23.296H54.8603C54.8603 21.6391 53.5171 20.296 51.8603 20.296V23.296ZM51.8603 26.688H48.8603C48.8603 28.3449 50.2034 29.688 51.8603 29.688V26.688ZM64.8523 26.688V29.688C66.5091 29.688 67.8523 28.3449 67.8523 26.688H64.8523ZM64.8523 23.296V20.296C63.1954 20.296 61.8523 21.6391 61.8523 23.296H64.8523ZM67.2843 23.296H70.2843C70.2843 21.6391 68.9411 20.296 67.2843 20.296V23.296ZM67.2843 34.112V37.112C68.9411 37.112 70.2843 35.7689 70.2843 34.112H67.2843ZM51.8603 32.128H48.8603C48.8603 33.7849 50.2034 35.128 51.8603 35.128V32.128ZM64.8523 32.128V35.128C66.5091 35.128 67.8523 33.7849 67.8523 32.128H64.8523ZM64.8523 28.672H67.8523C67.8523 27.0151 66.5091 25.672 64.8523 25.672V28.672ZM51.8603 28.672V25.672C50.2034 25.672 48.8603 27.0151 48.8603 28.672H51.8603ZM45.1483 8.192V12.48H51.1483V8.192H45.1483ZM48.1483 15.48H55.8923V9.48H48.1483V15.48ZM58.8923 12.48V8.192H52.8923V12.48H58.8923ZM55.8923 11.192H58.3243V5.192H55.8923V11.192ZM55.3243 8.192V13.568H61.3243V8.192H55.3243ZM58.3243 16.568H64.8523V10.568H58.3243V16.568ZM67.8523 13.568V6.784H61.8523V13.568H67.8523ZM64.8523 9.784H67.2843V3.784H64.8523V9.784ZM64.2843 6.784V21.952H70.2843V6.784H64.2843ZM67.2843 18.952H64.8523V24.952H67.2843V18.952ZM67.8523 21.952V15.68H61.8523V21.952H67.8523ZM64.8523 12.68H58.3243V18.68H64.8523V12.68ZM55.3243 15.68V20.928H61.3243V15.68H55.3243ZM58.3243 17.928H45.6523V23.928H58.3243V17.928ZM48.6523 20.928V8.192H42.6523V20.928H48.6523ZM45.6523 11.192H48.1483V5.192H45.6523V11.192ZM48.1483 21.88H55.8923V15.88H48.1483V21.88ZM58.8923 18.88V14.464H52.8923V18.88H58.8923ZM55.8923 11.464H48.1483V17.464H55.8923V11.464ZM45.1483 14.464V18.88H51.1483V14.464H45.1483ZM52.4283 34.112V23.296H46.4283V34.112H52.4283ZM49.4283 26.296H51.8603V20.296H49.4283V26.296ZM48.8603 23.296V26.688H54.8603V23.296H48.8603ZM51.8603 29.688H64.8523V23.688H51.8603V29.688ZM67.8523 26.688V23.296H61.8523V26.688H67.8523ZM64.8523 26.296H67.2843V20.296H64.8523V26.296ZM64.2843 23.296V34.112H70.2843V23.296H64.2843ZM67.2843 31.112H49.4283V37.112H67.2843V31.112ZM51.8603 35.128H64.8523V29.128H51.8603V35.128ZM67.8523 32.128V28.672H61.8523V32.128H67.8523ZM64.8523 25.672H51.8603V31.672H64.8523V25.672ZM48.8603 28.672V32.128H54.8603V28.672H48.8603Z" fill="#5BB8A1" mask="url(#path-2-outside-1_7688_144974)"/>
<path d="M110 19.9992C110 30.1981 101.7 38.4976 91.5 38.4976C81.3001 38.4976 73 30.1981 73 19.9992C73 9.80368 81.3 1.50391 91.5 1.50391C101.7 1.50391 110 9.80367 110 19.9992Z" fill="white" stroke="#5BB8A1" stroke-width="3"/>
<path d="M94.14 11.008V28H90.636V14.368H90.492L86.604 16.816V13.696L90.828 11.008H94.14Z" fill="#5BB8A1"/>
</svg>
