<svg width="84" height="140" viewBox="0 0 84 140" fill="none" xmlns="http://www.w3.org/2000/svg">
<g clip-path="url(#clip0_4581_3577)">
<g clip-path="url(#clip1_4581_3577)">
<path fill-rule="evenodd" clip-rule="evenodd" d="M43.3148 0.0664062C52.8484 0.0664062 60.5769 7.77468 60.5769 17.2833V115.817C60.5769 125.326 52.8484 133.034 43.3148 133.034C33.7812 133.034 26.0527 125.326 26.0527 115.817V17.2833C26.0527 7.77468 33.7812 0.0664062 43.3148 0.0664062Z" fill="#005293"/>
<path fill-rule="evenodd" clip-rule="evenodd" d="M0.756836 122.783C0.756836 113.275 8.48534 105.566 18.0189 105.566H66.7379C76.2715 105.566 84 113.275 84 122.783C84 132.292 76.2715 140 66.7379 140H18.0189C8.48534 140 0.756836 132.292 0.756836 122.783Z" fill="#005293"/>
<path fill-rule="evenodd" clip-rule="evenodd" d="M43.3147 4.03906C50.6482 4.03906 56.5932 9.9685 56.5932 17.2828V115.817C56.5932 123.131 50.6482 129.06 43.3147 129.06C35.9811 129.06 30.0361 123.131 30.0361 115.817V17.2828C30.0361 9.9685 35.9811 4.03906 43.3147 4.03906Z" fill="white"/>
<path fill-rule="evenodd" clip-rule="evenodd" d="M4.74023 122.783C4.74023 115.469 10.6852 109.539 18.0188 109.539H66.7377C74.0712 109.539 80.0162 115.469 80.0162 122.783C80.0162 130.097 74.0712 136.027 66.7377 136.027H18.0188C10.6852 136.027 4.74023 130.097 4.74023 122.783Z" fill="white"/>
<path fill-rule="evenodd" clip-rule="evenodd" d="M57.5989 7.58931C62.9299 15.4724 60.8442 26.1732 52.9405 31.4903L26.9145 48.9986C19.0108 54.3156 8.28186 52.2355 2.95084 44.3524C-2.38017 36.4693 -0.29454 25.7685 7.60923 20.4514L33.6352 2.94311C41.5389 -2.37395 52.2678 -0.293774 57.5989 7.58931Z" fill="#005293"/>
<path fill-rule="evenodd" clip-rule="evenodd" d="M54.2967 9.81209C58.3975 15.876 56.7932 24.1074 50.7133 28.1975L24.6874 45.7057C18.6076 49.7958 10.3546 48.1957 6.2538 42.1317C2.15302 36.0678 3.75735 27.8364 9.83718 23.7464L35.8631 6.23809C41.9429 2.14804 50.1959 3.74818 54.2967 9.81209Z" fill="#0073BD"/>
<path fill-rule="evenodd" clip-rule="evenodd" d="M53.4142 37.5077C53.6261 37.8923 53.4854 38.3754 53.0998 38.5868L51.0947 39.6861C50.7091 39.8975 50.2247 39.7571 50.0127 39.3725C49.8008 38.9879 49.9416 38.5047 50.3272 38.2933L52.3322 37.1941C52.7178 36.9827 53.2022 37.1231 53.4142 37.5077Z" fill="#116AA5"/>
<path fill-rule="evenodd" clip-rule="evenodd" d="M54.119 42.1515C54.2828 42.5588 54.0845 43.0214 53.676 43.1847L50.861 44.3105C50.4526 44.4738 49.9888 44.276 49.825 43.8686C49.6613 43.4613 49.8596 42.9987 50.268 42.8354L53.0831 41.7096C53.4915 41.5463 53.9553 41.7441 54.119 42.1515Z" fill="#116AA5"/>
<path fill-rule="evenodd" clip-rule="evenodd" d="M53.9139 46.5959C54.117 46.9852 53.9653 47.465 53.575 47.6676L51.3044 48.8463C50.914 49.0489 50.4329 48.8976 50.2298 48.5083C50.0267 48.119 50.1784 47.6392 50.5687 47.4366L52.8393 46.2579C53.2296 46.0553 53.7107 46.2066 53.9139 46.5959Z" fill="#116AA5"/>
<path fill-rule="evenodd" clip-rule="evenodd" d="M53.7135 51.0834C53.9182 51.4719 53.7684 51.9523 53.3788 52.1564L51.812 52.9775C51.4225 53.1817 50.9408 53.0322 50.7361 52.6437C50.5315 52.2552 50.6813 51.7748 51.0708 51.5707L52.6377 50.7496C53.0272 50.5454 53.5089 50.6949 53.7135 51.0834Z" fill="#116AA5"/>
<path fill-rule="evenodd" clip-rule="evenodd" d="M70.7696 112.394C71.1181 112.662 71.1829 113.161 70.9143 113.508L69.7989 114.952C69.5303 115.299 69.03 115.364 68.6815 115.096C68.333 114.828 68.2682 114.329 68.5368 113.982L69.6522 112.538C69.9208 112.191 70.421 112.126 70.7696 112.394Z" fill="#116AA5"/>
<path fill-rule="evenodd" clip-rule="evenodd" d="M73.9807 114.408C74.2987 114.711 74.3101 115.214 74.0061 115.531L72.2799 117.332C71.9758 117.65 71.4715 117.661 71.1534 117.358C70.8354 117.054 70.824 116.551 71.128 116.234L72.8542 114.433C73.1583 114.116 73.6626 114.104 73.9807 114.408Z" fill="#116AA5"/>
<path fill-rule="evenodd" clip-rule="evenodd" d="M76.3887 117.897C76.6444 118.254 76.5615 118.751 76.2035 119.006L74.5304 120.198C74.1723 120.453 73.6747 120.37 73.419 120.013C73.1632 119.656 73.2462 119.16 73.6042 118.904L75.2773 117.713C75.6354 117.457 76.1329 117.54 76.3887 117.897Z" fill="#116AA5"/>
<path fill-rule="evenodd" clip-rule="evenodd" d="M78.1515 122.121C78.2986 122.535 78.0816 122.989 77.6669 123.136L75.7947 123.798C75.3799 123.944 74.9245 123.728 74.7775 123.314C74.6304 122.901 74.8474 122.447 75.2621 122.3L77.1344 121.638C77.5491 121.491 78.0045 121.707 78.1515 122.121Z" fill="#116AA5"/>
<path fill-rule="evenodd" clip-rule="evenodd" d="M51.5605 107.539C51.5605 106.442 52.4523 105.553 53.5523 105.553H61.9842C63.0842 105.553 63.976 106.442 63.976 107.539C63.976 108.636 63.0842 109.526 61.9842 109.526H53.5523C52.4523 109.526 51.5605 108.636 51.5605 107.539Z" fill="#005293"/>
</g>
</g>
<defs>
<clipPath id="clip0_4581_3577">
<rect width="84" height="140" fill="white"/>
</clipPath>
<clipPath id="clip1_4581_3577">
<rect width="84" height="140" fill="white"/>
</clipPath>
</defs>
</svg>
