<svg width="21" height="49" viewBox="0 0 21 49" fill="none" xmlns="http://www.w3.org/2000/svg">
<g clip-path="url(#clip0_7704_477)">
<path d="M5.875 32.0776L3.15625 29.4214L7.9375 24.7026L3.15625 20.0151L5.875 17.3589L10.625 22.0464L15.375 17.3589L18.0625 20.0151L13.3125 24.7026L18.0625 29.4214L15.375 32.0776L10.625 27.3901L5.875 32.0776ZM0.5625 24.7026C0.5625 23.4839 1.5625 22.5464 3.125 22.5464C4.65625 22.5464 5.6875 23.4839 5.6875 24.7026C5.6875 25.9214 4.6875 26.8589 3.125 26.8589C1.5625 26.8589 0.5625 25.9214 0.5625 24.7026ZM8.0625 32.0776C8.0625 30.8276 9.03125 29.8901 10.5938 29.8901C12.125 29.8901 13.1562 30.8276 13.1562 32.0776C13.1562 33.2964 12.125 34.2339 10.5938 34.2339C9.03125 34.2339 8.0625 33.2964 8.0625 32.0776ZM8.0625 17.3901C8.0625 16.1401 9.03125 15.2026 10.5938 15.2026C12.125 15.2026 13.1562 16.1401 13.1562 17.3901C13.1562 18.5776 12.125 19.5151 10.5938 19.5151C9.03125 19.5151 8.0625 18.5776 8.0625 17.3901ZM15.4688 24.7026C15.4688 23.4839 16.5 22.5464 18.0625 22.5464C19.5938 22.5464 20.625 23.4839 20.625 24.7026C20.625 25.9214 19.5938 26.8589 18.0625 26.8589C16.5 26.8589 15.4688 25.9214 15.4688 24.7026Z" fill="#3B71FE"/>
</g>
<defs>
<clipPath id="clip0_7704_477">
<rect width="21" height="48" fill="white" transform="translate(0 0.140137)"/>
</clipPath>
</defs>
</svg>
