<?xml version="1.0" encoding="UTF-8"?>
<svg id="Layer_1" xmlns="http://www.w3.org/2000/svg" version="1.1" xmlns:xlink="http://www.w3.org/1999/xlink" viewBox="0 0 75 100">
  <!-- Generator: Adobe Illustrator 29.3.1, SVG Export Plug-In . SVG Version: 2.1.0 Build 151)  -->
  <defs>
    <style>
      .st0 {
        fill: #DA511D;
      }

      .st1 {
        fill: #fff;
      }

      .st2 {
        mask: url(#mask);
      }

      .st3 {
        fill: none;
        stroke: #f59c00;
        stroke-linecap: round;
        stroke-linejoin: round;
        stroke-width: 2px;
      }
    </style>
    <mask id="mask" x="18" y="19" width="50" height="66" maskUnits="userSpaceOnUse">
      <g id="path-1-outside-1_173_119">
        <rect class="st1" x="18" y="19" width="50" height="66"/>
        <path d="M23.1,81v-8.5l20.2-18.7c5.4-5,8.2-8.2,8.2-12.6s-3.8-8.2-9-8.2-8.8,3.4-8.8,8.8h-11.2c0-11,8.2-18.2,20.2-18.1,12.1,0,20.2,6.8,20.2,16.6s-3.1,11.8-14.9,22.2l-8.5,8.3v.5h24.2v9.6H23.1Z"/>
      </g>
    </mask>
  </defs>
  <g class="st2">
    <path class="st0" d="M23.1,81h-4c0,2.2,1.8,4,4,4v-4ZM23.1,72.5l-2.7-2.9c-.8.8-1.3,1.8-1.3,2.9h4ZM43.2,53.8l2.7,2.9s0,0,0,0l-2.7-2.9ZM33.6,41.8v4c2.2,0,4-1.8,4-4h-4ZM22.4,41.8h-4c0,2.2,1.8,4,4,4v-4ZM42.6,23.7v4s0,0,0,0v-4ZM47.9,62.6l-2.7-3s0,0-.1.1l2.8,2.9ZM39.4,70.9l-2.8-2.9c-.8.8-1.2,1.8-1.2,2.9h4ZM39.4,71.4h-4c0,2.2,1.8,4,4,4v-4ZM63.5,71.4h4c0-2.2-1.8-4-4-4v4ZM63.5,81v4c2.2,0,4-1.8,4-4h-4ZM27.1,81v-8.5h-8v8.5h8ZM25.8,75.5l20.2-18.7-5.4-5.9-20.2,18.7,5.4,5.9ZM46,56.7c5.1-4.8,9.4-9.1,9.4-15.6h-8c0,2.5-1.3,4.5-6.9,9.7l5.5,5.8ZM55.4,41.2c0-3.6-1.4-6.7-3.9-9-2.5-2.2-5.7-3.2-9.1-3.2v8c1.8,0,3.1.5,3.8,1.2.7.6,1.2,1.5,1.2,3h8ZM42.4,29c-3.5,0-6.8,1.1-9.2,3.5-2.4,2.4-3.6,5.7-3.6,9.3h8c0-1.8.6-2.9,1.2-3.6.7-.7,1.8-1.2,3.6-1.2v-8ZM33.6,37.8h-11.2v8h11.2v-8ZM26.4,41.8c0-4.5,1.6-7.9,4.3-10.2,2.7-2.4,6.7-3.9,11.9-3.9v-8c-6.7,0-12.8,2-17.2,5.9-4.5,4-7,9.6-7,16.2h8ZM42.6,27.7c5.3,0,9.4,1.5,12,3.7,2.6,2.2,4.1,5.2,4.1,9h8c0-6.1-2.5-11.4-7-15.1-4.4-3.7-10.4-5.6-17.2-5.5v8ZM58.7,40.4c0,4.6-1.8,8.8-13.5,19.3l5.3,6c11.8-10.5,16.2-16.8,16.2-25.2h-8ZM45.1,59.7l-8.5,8.3,5.6,5.7,8.5-8.3-5.6-5.7ZM35.4,70.9v.5h8v-.5h-8ZM39.4,75.4h24.2v-8h-24.2v8ZM59.5,71.4v9.6h8v-9.6h-8ZM63.5,77H23.1v8h40.5v-8Z"/>
  </g>
  <g>
    <path class="st3" d="M28.8,18.3c.8-1.1,1.5-2.1,1.5-2.2,1.9-2.6,1.1-4.7-1.7-5.1l-7.3.2-4.3-5.8c-1.9-2.1-3.9-1.7-5.1.9l-2.1,6.9-6.9,2.2c-2.4,1.3-2.6,3.6,0,5.2.2.2,5.4,3.8,5.4,3.8v6.8c.2,3.4,2.4,4.3,5.1,2.2,0,0,.8-.6,1.7-1.3"/>
    <path class="st3" d="M21.3,15.8l-2.1,1.7,3.2.2"/>
    <path class="st3" d="M13.8,18.8c-.2-.8-.9-1.3-1.7-1.1s-1.3.9-1.1,1.7"/>
  </g>
</svg>