<?xml version="1.0" encoding="UTF-8"?>
<svg id="Layer_1" xmlns="http://www.w3.org/2000/svg" version="1.1" xmlns:xlink="http://www.w3.org/1999/xlink" viewBox="0 0 75 100">
  <!-- Generator: Adobe Illustrator 29.3.1, SVG Export Plug-In . SVG Version: 2.1.0 Build 151)  -->
  <defs>
    <style>
      .st0 {
        fill: #008A70;
      }


      .st1 {
        fill: #fff;
      }

      .st2 {
        mask: url(#mask);
      }

      .st3 {
        fill: none;
        stroke: #f59c00;
        stroke-linecap: round;
        stroke-linejoin: round;
        stroke-width: 2px;
      }
    </style>
    <mask id="mask" x="16" y="19" width="54" height="67" maskUnits="userSpaceOnUse">
      <g id="path-1-outside-1_173_119">
        <rect class="st1" x="16" y="19" width="54" height="67"/>
        <path d="M43,81.8c-13,0-22.2-6.8-22.2-16s5.4-13,12.5-14.1v-.3c-6.1-1.2-10.3-6.3-10.4-12.5,0-8.8,8.6-15.3,20.2-15.2,11.5,0,20,6.4,20,15.2s-4.3,11.3-10.2,12.5v.3c6.8,1.1,12.3,7,12.3,14.1s-9.3,16-22.1,16ZM33.1,64.7c0,4.7,3.9,8.2,9.9,8.2s9.9-3.4,9.9-8.2-4.2-8.6-9.9-8.6c-5.8,0-10,3.7-9.9,8.6ZM34.4,40c0,4.6,3.6,7.7,8.6,7.7s8.5-3.1,8.5-7.7-3.5-7.5-8.5-7.5-8.6,3.1-8.6,7.5Z"/>
      </g>
    </mask>
  </defs>
  <g class="st2">
    <path class="st0" d="M33.3,51.7l.6,4c1.9-.3,3.4-2,3.4-4h-4ZM33.3,51.4h4c0-1.9-1.4-3.6-3.2-3.9l-.8,3.9ZM22.9,38.9h-4s0,0,0,0h4ZM43,23.7v4s0,0,0,0v-4ZM52.8,51.4l-.8-3.9c-1.9.4-3.2,2-3.2,3.9h4ZM52.8,51.7h-4c0,2,1.4,3.6,3.3,3.9l.7-3.9ZM33.1,64.7h4s0,0,0,0h-4ZM43,56v-4s0,0,0,0v4ZM43,77.8c-5.8,0-10.5-1.5-13.6-3.8-3.1-2.2-4.6-5.1-4.6-8.2h-8c0,6.1,3.1,11.2,7.9,14.7,4.8,3.4,11.2,5.3,18.3,5.3v-8ZM24.8,65.8c0-5,3.8-9.3,9.1-10.1l-1.3-7.9c-8.8,1.4-15.9,8.8-15.9,18h8ZM37.3,51.7v-.3h-8v.3h8ZM34,47.5c-4.2-.8-7.1-4.3-7.2-8.6h-8c.1,8.2,5.7,14.9,13.6,16.5l1.5-7.8ZM26.9,39c0-5.7,5.7-11.3,16.1-11.2v-8c-12.7,0-24,7.2-24.1,19.2h8ZM43,27.7c10.4,0,16,5.5,16,11.2h8c0-11.9-11.3-19.3-24-19.2v8ZM59,38.9c0,4.2-2.9,7.7-7,8.6l1.6,7.8c7.7-1.6,13.4-8.3,13.4-16.4h-8ZM48.8,51.4v.3h8v-.3h-8ZM52.1,55.7c5.1.8,9,5.2,9,10.1h8c0-9.3-7.1-16.6-15.7-18l-1.3,7.9ZM61.1,65.8c0,3.1-1.5,6-4.6,8.2-3.1,2.3-7.8,3.8-13.5,3.8v8c7.1,0,13.5-1.9,18.2-5.3,4.8-3.5,7.9-8.6,7.9-14.7h-8ZM29.1,64.6c0,3.6,1.5,6.8,4.1,9,2.6,2.2,6.1,3.2,9.8,3.2v-8c-2.3,0-3.8-.6-4.7-1.4-.8-.7-1.3-1.6-1.2-2.7h-8ZM43,76.8c3.7,0,7.1-1.1,9.7-3.2,2.7-2.2,4.2-5.4,4.2-9h-8c0,1.2-.5,2.1-1.3,2.8-.9.7-2.4,1.4-4.6,1.4v8ZM56.9,64.7c0-7.7-6.6-12.5-13.9-12.6v8c4,0,5.9,2.4,5.9,4.6h8ZM43,52c-7.3.1-14,4.9-13.9,12.7h8c0-2.2,1.7-4.6,6-4.7v-8ZM30.4,40c0,3.4,1.4,6.4,3.8,8.5,2.4,2.1,5.5,3.1,8.9,3.1v-8c-1.7,0-2.9-.5-3.6-1.1-.6-.6-1.1-1.4-1.1-2.6h-8ZM43,51.7c6.7,0,12.5-4.5,12.5-11.7h-8c0,1.9-1.4,3.7-4.5,3.7v8ZM55.5,40c0-7-5.8-11.5-12.5-11.5v8c3.2,0,4.5,1.8,4.5,3.5h8ZM43,28.5c-3.4,0-6.5,1-8.9,3.1-2.4,2.1-3.8,5.1-3.8,8.4h8c0-1.1.4-1.8,1-2.4.7-.6,1.8-1.1,3.6-1.1v-8Z"/>
  </g>
  <g>
    <path class="st3" d="M29.8,18.3c.8-1.1,1.5-2.1,1.5-2.2,1.9-2.6,1.1-4.7-1.7-5.1l-7.3.2-4.3-5.8c-1.9-2.1-3.9-1.7-5.1.9l-2.1,6.9-6.9,2.2c-2.4,1.3-2.6,3.6,0,5.3.2.2,5.4,3.8,5.4,3.8v6.8c.2,3.4,2.4,4.3,5.1,2.2,0,0,.8-.6,1.7-1.3"/>
    <path class="st3" d="M22.3,15.8l-2.1,1.7,3.2.2"/>
    <path class="st3" d="M14.8,18.8c-.2-.8-.9-1.3-1.7-1.1s-1.3.9-1.1,1.7"/>
  </g>
</svg>