<?xml version="1.0" encoding="UTF-8"?>
<svg id="Layer_1" xmlns="http://www.w3.org/2000/svg" version="1.1" xmlns:xlink="http://www.w3.org/1999/xlink" viewBox="0 0 75 100">
  <!-- Generator: Adobe Illustrator 29.3.1, SVG Export Plug-In . SVG Version: 2.1.0 Build 151)  -->
  <defs>
    <style>
      .st0 {
        fill: #8F659D;
      }

      .st1 {
        fill: #fff;
      }

      .st2 {
        mask: url(#mask);
      }

      .st3 {
        fill: none;
        stroke: #f59c00;
        stroke-linecap: round;
        stroke-linejoin: round;
        stroke-width: 2px;
      }
    </style>
    <mask id="mask" x="18" y="20" width="49" height="65" maskUnits="userSpaceOnUse">
      <g id="path-1-outside-1_173_119">
        <rect class="st1" x="18" y="20" width="49" height="65"/>
        <path d="M26.5,81l23.8-46.6v-.3h-27.7v-9.8h40v9.9l-24,46.7h-12.2Z"/>
      </g>
    </mask>
  </defs>
  <g class="st2">
    <path class="st0" d="M26.5,81l-3.6-1.8c-.6,1.2-.6,2.7.1,3.9.7,1.2,2,1.9,3.4,1.9v-4ZM50.4,34.4l3.6,1.8c.3-.6.4-1.2.4-1.8h-4ZM50.4,34.1h4c0-2.2-1.8-4-4-4v4ZM22.7,34.1h-4c0,2.2,1.8,4,4,4v-4ZM22.7,24.4v-4c-2.2,0-4,1.8-4,4h4ZM62.7,24.4h4c0-2.2-1.8-4-4-4v4ZM62.7,34.3l3.6,1.8c.3-.6.4-1.2.4-1.8h-4ZM38.7,81v4c1.5,0,2.9-.8,3.6-2.2l-3.6-1.8ZM30.1,82.8l23.8-46.6-7.1-3.6-23.8,46.6,7.1,3.6ZM54.4,34.4v-.3h-8v.3h8ZM50.4,30.1h-27.7v8h27.7v-8ZM26.7,34.1v-9.8h-8v9.8h8ZM22.7,28.4h40v-8H22.7v8ZM58.7,24.4v9.9h8v-9.9h-8ZM59.1,32.5l-24,46.7,7.1,3.7,24-46.7-7.1-3.7ZM38.7,77h-12.2v8h12.2v-8Z"/>
  </g>
  <g>
    <path class="st3" d="M29.3,16.3c.8-1.1,1.5-2.1,1.5-2.2,1.9-2.6,1.1-4.7-1.7-5.1l-7.3.2-4.3-5.8c-1.9-2.1-3.9-1.7-5.1.9l-2.1,6.9-6.9,2.2c-2.4,1.3-2.6,3.6,0,5.3.2.2,5.4,3.8,5.4,3.8v6.8c.2,3.4,2.4,4.3,5.1,2.2,0,0,.8-.6,1.7-1.3"/>
    <path class="st3" d="M21.8,13.8l-2.1,1.7,3.2.2"/>
    <path class="st3" d="M14.3,16.8c-.2-.8-.9-1.3-1.7-1.1s-1.3.9-1.1,1.7"/>
  </g>
</svg>