<svg width="81" height="48" viewBox="0 0 81 48" fill="none" xmlns="http://www.w3.org/2000/svg">
<g clip-path="url(#clip0_13219_14837)">
<mask id="path-1-inside-1_13219_14837" fill="white">
<path d="M22.7215 45.4654C35.2822 45.4654 45.443 35.2822 45.443 22.7439C45.443 10.2056 35.2822 0 22.7215 0C10.1607 0 0 10.1832 0 22.7215C0 35.2598 10.1832 45.443 22.7215 45.443"/>
</mask>
<path d="M22.7215 45.4654C35.2822 45.4654 45.443 35.2822 45.443 22.7439C45.443 10.2056 35.2822 0 22.7215 0C10.1607 0 0 10.1832 0 22.7215C0 35.2598 10.1832 45.443 22.7215 45.443" fill="#EF8687"/>
<path d="M22.7215 47.7084C36.5225 47.7084 47.686 36.5196 47.686 22.7439H43.2C43.2 34.0449 34.042 43.2224 22.7215 43.2224V47.7084ZM47.686 22.7439C47.686 8.97116 36.5253 -2.24299 22.7215 -2.24299V2.24299C34.0392 2.24299 43.2 11.4401 43.2 22.7439H47.686ZM22.7215 -2.24299C8.92054 -2.24299 -2.24299 8.94585 -2.24299 22.7215H2.24299C2.24299 11.4205 11.401 2.24299 22.7215 2.24299V-2.24299ZM-2.24299 22.7215C-2.24299 36.4986 8.94441 47.686 22.7215 47.686V43.2C11.4219 43.2 2.24299 34.021 2.24299 22.7215H-2.24299Z" fill="#EF8687" mask="url(#path-1-inside-1_13219_14837)"/>
<path d="M48.6045 12.7397C58.0336 12.7397 65.6737 20.38 65.6738 29.8091C65.6738 39.2383 58.0337 46.8784 48.6045 46.8784C39.1754 46.8783 31.5352 39.2382 31.5352 29.8091C31.5353 20.38 39.1755 12.7399 48.6045 12.7397Z" fill="#EF8687" stroke="#EF8687" stroke-width="2.24299"/>
<path d="M57.5781 9.12884L59.3277 3.79053" stroke="#EF8687" stroke-width="3" stroke-linecap="round" stroke-linejoin="round"/>
<path d="M62.4902 11.7758L66.1687 8.90479" stroke="#EF8687" stroke-width="3" stroke-linecap="round" stroke-linejoin="round"/>
<path d="M78.7742 26.1083C78.7742 24.0223 77.0919 22.34 75.0059 22.34H72.9199V20.2541C72.9199 18.1681 71.2377 16.4858 69.1517 16.4858C67.0657 16.4858 65.3835 18.1681 65.3835 20.2541V22.34H63.2975C61.2115 22.34 59.5293 24.0223 59.5293 26.1083C59.5293 28.1943 61.2115 29.8765 63.2975 29.8765H65.3835V31.9625C65.3835 34.0485 67.0657 35.7307 69.1517 35.7307C71.2377 35.7307 72.9199 34.0485 72.9199 31.9625V29.8765H75.0059C77.0919 29.8765 78.7742 28.1943 78.7742 26.1083Z" fill="#FFF100"/>
<path d="M78.7742 26.1083C78.7742 24.0223 77.0919 22.34 75.0059 22.34H72.9199V20.2541C72.9199 18.1681 71.2377 16.4858 69.1517 16.4858C67.0657 16.4858 65.3835 18.1681 65.3835 20.2541V22.34H63.2975C61.2115 22.34 59.5293 24.0223 59.5293 26.1083C59.5293 28.1943 61.2115 29.8765 63.2975 29.8765H65.3835V31.9625C65.3835 34.0485 67.0657 35.7307 69.1517 35.7307C71.2377 35.7307 72.9199 34.0485 72.9199 31.9625V29.8765H75.0059C77.0919 29.8765 78.7742 28.1943 78.7742 26.1083Z" stroke="#EF8687" stroke-width="3" stroke-linecap="round" stroke-linejoin="round"/>
</g>
<defs>
<clipPath id="clip0_13219_14837">
<rect width="80.4561" height="48" fill="white"/>
</clipPath>
</defs>
</svg>
