<svg width="82" height="48" viewBox="0 0 82 48" fill="none" xmlns="http://www.w3.org/2000/svg">
<mask id="mask0_13408_111876" style="mask-type:luminance" maskUnits="userSpaceOnUse" x="0" y="0" width="81" height="48">
<path d="M80.4561 0H0V48H80.4561V0Z" fill="white"/>
</mask>
<g mask="url(#mask0_13408_111876)">
<path d="M22.7215 45.4654C35.2822 45.4654 45.443 35.2822 45.443 22.7439C45.443 10.2056 35.2822 0 22.7215 0C10.1607 0 0 10.1832 0 22.7215C0 35.2598 10.1832 45.443 22.7215 45.443" fill="#A55A28"/>
<mask id="mask1_13408_111876" style="mask-type:luminance" maskUnits="userSpaceOnUse" x="0" y="0" width="46" height="46">
<path d="M22.7215 45.4654C35.2822 45.4654 45.443 35.2822 45.443 22.7439C45.443 10.2056 35.2822 0 22.7215 0C10.1607 0 0 10.1832 0 22.7215C0 35.2598 10.1832 45.443 22.7215 45.443" fill="white"/>
</mask>
<g mask="url(#mask1_13408_111876)">
<path d="M22.7223 47.7092C36.5233 47.7092 47.6868 36.5204 47.6868 22.7447H43.2008C43.2008 34.0457 34.0428 43.2232 22.7223 43.2232V47.7092ZM47.6868 22.7447C47.6868 8.97196 36.5261 -2.24219 22.7223 -2.24219V2.24379C34.04 2.24379 43.2008 11.4409 43.2008 22.7447H47.6868ZM22.7223 -2.24219C8.92134 -2.24219 -2.24219 8.94665 -2.24219 22.7223H2.24379C2.24379 11.4213 11.4018 2.24379 22.7223 2.24379V-2.24219ZM-2.24219 22.7223C-2.24219 36.4994 8.94521 47.6868 22.7223 47.6868V43.2008C11.4227 43.2008 2.24379 34.0218 2.24379 22.7223H-2.24219Z" fill="#A55A28"/>
</g>
<path d="M48.6045 12.7383C58.0336 12.7383 65.6737 20.3785 65.6738 29.8076C65.6738 39.2368 58.0337 46.877 48.6045 46.877C39.1754 46.8768 31.5352 39.2368 31.5352 29.8076C31.5353 20.3786 39.1755 12.7384 48.6045 12.7383Z" fill="#A55A28" stroke="#A55A28" stroke-width="2.24299"/>
<path d="M57.5781 9.12737L59.3277 3.78906" stroke="#A55A28" stroke-width="3" stroke-linecap="round" stroke-linejoin="round"/>
<path d="M62.4902 11.7773L66.1687 8.90625" stroke="#A55A28" stroke-width="3" stroke-linecap="round" stroke-linejoin="round"/>
<path d="M78.7742 26.1068C78.7742 24.0208 77.0919 22.3386 75.0059 22.3386H72.9199V20.2526C72.9199 18.1666 71.2377 16.4844 69.1517 16.4844C67.0657 16.4844 65.3835 18.1666 65.3835 20.2526V22.3386H63.2975C61.2115 22.3386 59.5293 24.0208 59.5293 26.1068C59.5293 28.1928 61.2115 29.875 63.2975 29.875H65.3835V31.961C65.3835 34.047 67.0657 35.7292 69.1517 35.7292C71.2377 35.7292 72.9199 34.047 72.9199 31.961V29.875H75.0059C77.0919 29.875 78.7742 28.1928 78.7742 26.1068Z" fill="#FFF100"/>
<path d="M78.7742 26.1068C78.7742 24.0208 77.0919 22.3386 75.0059 22.3386H72.9199V20.2526C72.9199 18.1666 71.2377 16.4844 69.1517 16.4844C67.0657 16.4844 65.3835 18.1666 65.3835 20.2526V22.3386H63.2975C61.2115 22.3386 59.5293 24.0208 59.5293 26.1068C59.5293 28.1928 61.2115 29.875 63.2975 29.875H65.3835V31.961C65.3835 34.047 67.0657 35.7292 69.1517 35.7292C71.2377 35.7292 72.9199 34.047 72.9199 31.961V29.875H75.0059C77.0919 29.875 78.7742 28.1928 78.7742 26.1068Z" stroke="#A55A28" stroke-width="3" stroke-linecap="round" stroke-linejoin="round"/>
</g>
</svg>
