<svg width="64" height="96" viewBox="0 0 64 96" fill="none" xmlns="http://www.w3.org/2000/svg">
<mask id="path-1-outside-1_12613_72489" maskUnits="userSpaceOnUse" x="7" y="15" width="49" height="65" fill="black">
<rect fill="white" x="7" y="15" width="49" height="65"/>
<path d="M15.6328 76L39.4609 29.4375V29.0469H11.7266V19.4375H51.6484V29.2031L27.8203 76H15.6328Z"/>
</mask>
<path d="M15.6328 76L12.072 74.1778C11.4374 75.4178 11.4936 76.8987 12.2204 78.087C12.9472 79.2753 14.2398 80 15.6328 80V76ZM39.4609 29.4375L43.0218 31.2597C43.3104 30.6957 43.4609 30.0711 43.4609 29.4375H39.4609ZM39.4609 29.0469H43.4609C43.4609 26.8377 41.6701 25.0469 39.4609 25.0469V29.0469ZM11.7266 29.0469H7.72656C7.72656 31.256 9.51742 33.0469 11.7266 33.0469V29.0469ZM11.7266 19.4375V15.4375C9.51742 15.4375 7.72656 17.2284 7.72656 19.4375H11.7266ZM51.6484 19.4375H55.6484C55.6484 17.2284 53.8576 15.4375 51.6484 15.4375V19.4375ZM51.6484 29.2031L55.213 31.0181C55.4992 30.4559 55.6484 29.834 55.6484 29.2031H51.6484ZM27.8203 76V80C29.3249 80 30.7021 79.1557 31.3848 77.815L27.8203 76ZM19.1936 77.8222L43.0218 31.2597L35.9001 27.6153L12.072 74.1778L19.1936 77.8222ZM43.4609 29.4375V29.0469H35.4609V29.4375H43.4609ZM39.4609 25.0469H11.7266V33.0469H39.4609V25.0469ZM15.7266 29.0469V19.4375H7.72656V29.0469H15.7266ZM11.7266 23.4375H51.6484V15.4375H11.7266V23.4375ZM47.6484 19.4375V29.2031H55.6484V19.4375H47.6484ZM48.0839 27.3881L24.2558 74.185L31.3848 77.815L55.213 31.0181L48.0839 27.3881ZM27.8203 72H15.6328V80H27.8203V72Z" fill="#DA511D" mask="url(#path-1-outside-1_12613_72489)"/>
</svg>
