<?xml version="1.0" encoding="UTF-8"?>
<svg id="Layer_1" xmlns="http://www.w3.org/2000/svg" version="1.1" xmlns:xlink="http://www.w3.org/1999/xlink" viewBox="0 0 75 100">
  <!-- Generator: Adobe Illustrator 29.3.1, SVG Export Plug-In . SVG Version: 2.1.0 Build 151)  -->
  <defs>
    <style>
      .st0 {
        fill: #008A70;
      }

      .st1 {
        fill: #fff;
      }

      .st2 {
        mask: url(#mask);
      }

      .st3 {
        fill: none;
        stroke: #f59c00;
        stroke-linecap: round;
        stroke-linejoin: round;
        stroke-width: 2px;
      }
    </style>
    <mask id="mask" x="18" y="20" width="51" height="66" maskUnits="userSpaceOnUse">
      <g id="path-1-outside-1_173_119">
        <rect class="st1" x="18" y="20" width="51" height="66"/>
        <path d="M43.2,81.8c-11.8,0-20.5-7-20.6-16.6h11.4c.2,4.3,4.3,7.4,9.3,7.4s10-4.2,9.9-10.1c0-5.9-4.2-10.2-10.1-10.1-4.3,0-7.3,1.5-9,4.6h-10.6l3-32.6h34.7v9.8h-25.1l-1.4,14.2h.3c2.2-2.8,6.4-4.8,11.4-4.8,10.4,0,18.2,7.8,18.1,18.6,0,11.5-8.6,19.7-21.3,19.7Z"/>
      </g>
    </mask>
  </defs>
  <g class="st2">
    <path class="st0" d="M22.5,65.2v-4c-1.1,0-2.1.4-2.9,1.2-.8.8-1.2,1.8-1.1,2.9h4ZM33.9,65.2l4-.2c-.1-2.1-1.9-3.8-4-3.8v4ZM53.1,62.4h-4s0,0,0,0h4ZM43,52.4v4s0,0,0,0v-4ZM34,57v4c1.5,0,2.8-.8,3.5-2.1l-3.5-1.9ZM23.5,57l-4-.4c-.1,1.1.3,2.2,1,3.1.8.8,1.8,1.3,3,1.3v-4ZM26.5,24.4v-4c-2.1,0-3.8,1.6-4,3.6l4,.4ZM61.2,24.4h4c0-2.2-1.8-4-4-4v4ZM61.2,34.1v4c2.2,0,4-1.8,4-4h-4ZM36.1,34.1v-4c-2.1,0-3.8,1.6-4,3.6l4,.4ZM34.7,48.4l-4-.4c-.1,1.1.3,2.2,1,3.1.8.8,1.8,1.3,3,1.3v-4ZM35,48.4v4c1.2,0,2.4-.6,3.2-1.6l-3.2-2.4ZM64.4,62.1h-4s0,0,0,0h4ZM43.2,77.8c-10.4,0-16.5-5.9-16.6-12.7h-8c.2,12.7,11.4,20.7,24.6,20.7v-8ZM22.5,69.2h11.4v-8h-11.4v8ZM29.9,65.4c.4,7.1,6.9,11.1,13.3,11.1v-8c-3.6,0-5.2-2-5.3-3.6l-8,.4ZM43.2,76.5c3.9,0,7.4-1.4,10-4,2.6-2.6,3.9-6.2,3.9-10.1h-8c0,2.1-.6,3.5-1.6,4.5-.9,1-2.4,1.6-4.3,1.6v8ZM57.1,62.5c.1-8.2-6-14.2-14.1-14.1v8c3.8,0,6.2,2.4,6.1,6h8ZM43.1,48.4c-2.7,0-5.2.4-7.4,1.6-2.3,1.2-4,3-5.2,5.2l7,3.8c.5-.9,1.1-1.5,1.8-1.9.8-.4,1.9-.7,3.5-.7v-8ZM34,53h-10.6v8h10.6v-8ZM27.5,57.4l3-32.6-8-.7-3,32.6,8,.7ZM26.5,28.4h34.7v-8H26.5v8ZM57.2,24.4v9.8h8v-9.8h-8ZM61.2,30.1h-25.1v8h25.1v-8ZM32.1,33.7l-1.4,14.2,8,.8,1.4-14.2-8-.8ZM34.7,52.4h.3v-8h-.3v8ZM38.2,50.8c1.2-1.6,4.2-3.2,8.2-3.2v-8c-5.9,0-11.5,2.4-14.5,6.4l6.3,4.9ZM46.4,47.6c8.1,0,14.1,5.9,14.1,14.5h8c0-12.9-9.4-22.5-22.1-22.5v8ZM60.4,62.1c0,4.7-1.7,8.5-4.6,11.2-2.9,2.7-7.2,4.5-12.7,4.5v8c7.2,0,13.5-2.3,18.1-6.6,4.6-4.3,7.2-10.3,7.1-17.1h-8Z"/>
  </g>
  <g>
    <path class="st3" d="M29.8,15.3c.8-1.1,1.5-2.1,1.5-2.2,1.9-2.6,1.1-4.7-1.7-5.1l-7.3.2-4.3-5.8c-1.9-2.1-3.9-1.7-5.1.9l-2.1,6.9-6.9,2.2c-2.4,1.3-2.6,3.6,0,5.2.2.2,5.4,3.8,5.4,3.8v6.8c.2,3.4,2.4,4.3,5.1,2.2,0,0,.8-.6,1.7-1.3"/>
    <path class="st3" d="M22.3,12.8l-2.1,1.7,3.2.2"/>
    <path class="st3" d="M14.8,15.8c-.2-.8-.9-1.3-1.7-1.1s-1.3.9-1.1,1.7"/>
  </g>
</svg>