<svg width="21" height="48" viewBox="0 0 21 48" fill="none" xmlns="http://www.w3.org/2000/svg">
<g clip-path="url(#clip0_12756_25259)">
<path d="M5.872 32.928L3.184 30.304L7.92 25.6L3.184 20.896L5.872 18.208L10.608 22.912L15.344 18.208L18.032 20.896L13.296 25.6L18.032 30.304L15.344 32.928L10.608 28.256L5.872 32.928ZM0.56 25.568C0.56 24.32 1.584 23.392 3.12 23.392C4.656 23.392 5.68 24.32 5.68 25.568C5.68 26.784 4.688 27.712 3.12 27.744C1.584 27.712 0.56 26.784 0.56 25.568ZM8.048 32.928C8.048 31.68 9.04 30.752 10.608 30.752C12.112 30.752 13.168 31.68 13.168 32.928C13.168 34.144 12.112 35.072 10.608 35.104C9.04 35.072 8.048 34.144 8.048 32.928ZM8.048 18.272C8.048 16.992 9.04 16.064 10.608 16.032C12.112 16.064 13.168 16.992 13.168 18.272C13.168 19.456 12.112 20.384 10.608 20.384C9.04 20.384 8.048 19.456 8.048 18.272ZM15.472 25.568C15.472 24.32 16.496 23.392 18.096 23.392C19.6 23.392 20.624 24.32 20.592 25.568C20.624 26.784 19.6 27.712 18.096 27.744C16.496 27.712 15.472 26.784 15.472 25.568Z" fill="#3B71FE"/>
</g>
<defs>
<clipPath id="clip0_12756_25259">
<rect width="21" height="48" fill="white"/>
</clipPath>
</defs>
</svg>
