<?xml version="1.0" encoding="UTF-8"?>
<svg id="Layer_1" xmlns="http://www.w3.org/2000/svg" version="1.1" xmlns:xlink="http://www.w3.org/1999/xlink" viewBox="0 0 64 96">
  <!-- Generator: Adobe Illustrator 29.3.1, SVG Export Plug-In . SVG Version: 2.1.0 Build 151)  -->
  <defs>
    <style>
      .st0 {
        fill: #8F659D;
      }

      .st1 {
        fill: #fff;
      }

      .st2 {
        mask: url(#mask);
      }
    </style>
    <mask id="mask" x="7" y="15" width="50" height="66" maskUnits="userSpaceOnUse">
      <g id="path-1-outside-1_173_119">
        <rect class="st1" x="7" y="15" width="50" height="66"/>
        <path d="M12.1,77v-8.5l20.2-18.7c5.4-5,8.2-8.2,8.2-12.6s-3.8-8.2-9-8.2-8.8,3.4-8.8,8.8h-11.2c0-11,8.2-18.2,20.2-18.1,12.1,0,20.2,6.8,20.2,16.6s-3.1,11.8-14.9,22.2l-8.5,8.3v.5h24.2v9.6H12.1Z"/>
      </g>
    </mask>
  </defs>
  <g class="st2">
    <path class="st0" d="M12.1,77h-4c0,2.2,1.8,4,4,4v-4ZM12.1,68.5l-2.7-2.9c-.8.8-1.3,1.8-1.3,2.9h4ZM32.2,49.8l2.7,2.9s0,0,0,0l-2.7-2.9ZM22.6,37.8v4c2.2,0,4-1.8,4-4h-4ZM11.4,37.8h-4c0,2.2,1.8,4,4,4v-4ZM31.6,19.7v4s0,0,0,0v-4ZM36.9,58.6l-2.7-3s0,0-.1.1l2.8,2.9ZM28.4,66.9l-2.8-2.9c-.8.8-1.2,1.8-1.2,2.9h4ZM28.4,67.4h-4c0,2.2,1.8,4,4,4v-4ZM52.5,67.4h4c0-2.2-1.8-4-4-4v4ZM52.5,77v4c2.2,0,4-1.8,4-4h-4ZM16.1,77v-8.5h-8v8.5h8ZM14.8,71.5l20.2-18.7-5.4-5.9-20.2,18.7,5.4,5.9ZM35,52.7c5.1-4.8,9.4-9.1,9.4-15.6h-8c0,2.5-1.3,4.5-6.9,9.7l5.5,5.8ZM44.4,37.2c0-3.6-1.4-6.7-3.9-9-2.5-2.2-5.7-3.2-9.1-3.2v8c1.8,0,3.1.5,3.8,1.2.7.6,1.2,1.5,1.2,3h8ZM31.4,25c-3.5,0-6.8,1.1-9.2,3.5-2.4,2.4-3.6,5.7-3.6,9.3h8c0-1.8.6-2.9,1.2-3.6.7-.7,1.8-1.2,3.6-1.2v-8ZM22.6,33.8h-11.2v8h11.2v-8ZM15.4,37.8c0-4.5,1.6-7.9,4.3-10.2,2.7-2.4,6.7-3.9,11.9-3.9v-8c-6.7,0-12.8,2-17.2,5.9-4.5,4-7,9.6-7,16.2h8ZM31.6,23.7c5.3,0,9.4,1.5,12,3.7,2.6,2.2,4.1,5.2,4.1,9h8c0-6.1-2.5-11.4-7-15.1-4.4-3.7-10.4-5.6-17.2-5.5v8ZM47.7,36.4c0,4.6-1.8,8.8-13.5,19.3l5.3,6c11.8-10.5,16.2-16.8,16.2-25.2h-8ZM34.1,55.7l-8.5,8.3,5.6,5.7,8.5-8.3-5.6-5.7ZM24.4,66.9v.5h8v-.5h-8ZM28.4,71.4h24.2v-8h-24.2v8ZM48.5,67.4v9.6h8v-9.6h-8ZM52.5,73H12.1v8h40.5v-8Z"/>
  </g>
</svg>