<svg width="54" height="54" viewBox="0 0 54 54" fill="none" xmlns="http://www.w3.org/2000/svg">
<g clip-path="url(#clip0_6533_6825)">
<path d="M51.7007 21.8448L50.2471 20.5527C48.6848 19.1643 47.841 17.1382 47.958 15.0509L48.0657 13.1097C48.2934 9.02217 44.9089 5.64905 40.8224 5.88925L38.8802 6.00313C36.794 6.12634 34.7657 5.28979 33.3711 3.73161L32.0739 2.2811C29.3437 -0.770033 24.5656 -0.76175 21.8458 2.2987L20.5537 3.75231C19.1653 5.31464 17.1391 6.15843 15.0519 6.04144L13.1107 5.93377C9.02315 5.70599 5.65003 9.0905 5.89022 13.177L6.00411 15.1193C6.12732 17.2055 5.29076 19.2337 3.73258 20.6283L2.28208 21.9256C-0.769056 24.6557 -0.760774 29.4338 2.29968 32.1536L3.75329 33.4457C5.31561 34.8341 6.15941 36.8603 6.04242 38.9475L5.93474 40.8888C5.70697 44.9763 9.09148 48.3494 13.178 48.1092L15.1202 47.9953C17.2064 47.8721 19.2357 48.7087 20.6293 50.2668L21.9265 51.7174C24.6567 54.7685 29.4348 54.7602 32.1546 51.6997L33.4467 50.2461C34.8351 48.6838 36.8613 47.84 38.9485 47.957L40.8897 48.0647C44.9773 48.2925 48.3504 44.9079 48.1102 40.8215L47.9963 38.8792C47.8731 36.793 48.7096 34.7637 50.2678 33.3702L51.7183 32.0729C54.7695 29.3427 54.7612 24.5646 51.7007 21.8448Z" fill="white"/>
<path d="M46.8671 22.8535L45.6982 21.814C44.4413 20.6969 43.7632 19.0673 43.8564 17.389L43.9433 15.8277C44.1266 12.5395 41.4037 9.82691 38.1165 10.0205L36.5542 10.1127C34.8759 10.211 33.2442 9.53909 32.1229 8.28633L31.0793 7.11951C28.8834 4.66576 25.0402 4.67197 22.8525 7.13297L21.813 8.30186C20.6959 9.55876 19.0663 10.2369 17.388 10.1437L15.8267 10.0568C12.5385 9.8735 9.82593 12.5964 10.0195 15.8836L10.1117 17.4459C10.21 19.1242 9.53811 20.7559 8.28535 21.8772L7.11853 22.9208C4.66479 25.1167 4.671 28.9599 7.13199 31.1476L8.30088 32.1871C9.55778 33.3042 10.2359 34.9338 10.1427 36.6121L10.0558 38.1734C9.87252 41.4616 12.5955 44.1742 15.8826 43.9806L17.445 43.8884C19.1232 43.7901 20.7549 44.462 21.8762 45.7147L22.9198 46.8816C25.1158 49.3353 28.9589 49.3291 31.1466 46.8681L32.1861 45.6992C33.3032 44.4423 34.9328 43.7642 36.6111 43.8574L38.1724 43.9443C41.4606 44.1276 44.1732 41.4046 43.9796 38.1175L43.8874 36.5551C43.7891 34.8769 44.461 33.2452 45.7138 32.1239L46.8806 31.0803C49.3343 28.8843 49.3281 25.0412 46.8671 22.8535ZM35.3925 32.6819C35.3987 33.5785 34.8831 34.412 34.0352 34.8748C29.6319 37.2043 24.186 37.2043 19.7828 34.8748C18.9348 34.412 18.4192 33.5785 18.4254 32.6819V28.8916L25.3653 31.5503C26.353 31.9261 27.466 31.9261 28.4537 31.5503L35.3935 28.8916V32.6819H35.3925ZM39.8103 34.2846C39.8103 34.5973 39.5566 34.8499 39.245 34.8499H37.5481C37.2354 34.8499 36.9828 34.5963 36.9828 34.2846V32.8714C36.9828 32.4241 37.1971 32.0048 37.5564 31.7398C37.3555 31.5917 37.1971 31.394 37.0977 31.1641C36.7892 30.4508 37.1174 29.6215 37.8307 29.313V27.8594L38.9623 27.379V29.314C39.1912 29.4134 39.3889 29.5708 39.537 29.7716C39.9977 30.398 39.8631 31.2791 39.2367 31.7398C39.597 32.0038 39.8103 32.4241 39.8103 32.8714V34.2857V34.2846ZM39.3713 25.6096L28.0106 29.9642C27.3055 30.2334 26.5104 30.2334 25.8053 29.9642L14.4446 25.6096C14.0377 25.4543 13.7147 25.1613 13.5428 24.7927C13.1773 24.011 13.5811 23.1092 14.4446 22.779L25.8053 18.4243C26.5104 18.1552 27.3055 18.1552 28.0106 18.4243L39.3713 22.779C39.7782 22.9343 40.1012 23.2273 40.2731 23.5958C40.6386 24.3775 40.2348 25.2793 39.3713 25.6096Z" fill="#3B71FE"/>
</g>
<defs>
<clipPath id="clip0_6533_6825">
<rect width="54" height="54" fill="white"/>
</clipPath>
</defs>
</svg>
