<svg width="632" height="420" viewBox="0 0 632 420" fill="none" xmlns="http://www.w3.org/2000/svg">
<path d="M78.6318 72.2109C75.2334 72.2031 72.4756 69.4375 72.4756 66.0391C72.4756 62.6406 75.2334 59.875 78.6318 59.8672C82.0381 59.875 84.8037 62.6406 84.8037 66.0391C84.8037 69.4375 82.0381 72.2031 78.6318 72.2109ZM73.6631 66.0391C73.6631 68.7812 75.9053 71.0078 78.6318 71.0078C81.374 71.0078 83.6084 68.7812 83.6162 66.0391C83.6084 63.2969 81.374 61.0625 78.6318 61.0703C75.9053 61.0625 73.6631 63.2969 73.6631 66.0391ZM76.585 67.2578H77.6787C77.6865 67.6875 78.1006 67.9688 78.6475 67.9766C79.2178 67.9688 79.624 67.6484 79.6318 67.1953C79.624 66.7266 79.2178 66.3906 78.5381 66.3984H78.0537V65.5703H78.5381C79.1084 65.5703 79.4912 65.2656 79.4912 64.8047C79.4912 64.3828 79.1631 64.0859 78.6631 64.0859C78.1553 64.0859 77.7412 64.3594 77.7256 64.8047H76.6787C76.7021 63.8594 77.5537 63.2109 78.6631 63.2109C79.8037 63.2109 80.5459 63.8906 80.5381 64.7422C80.5459 65.375 80.124 65.8203 79.5068 65.9297V65.9766C80.3115 66.0703 80.7568 66.5703 80.7568 67.2578C80.7568 68.1953 79.874 68.875 78.6475 68.8828C77.4521 68.875 76.5928 68.2109 76.585 67.2578Z" fill="#EE7439"/>
<path d="M107.536 59.1641C104.138 59.1562 101.38 56.3906 101.38 52.9922C101.38 49.5938 104.138 46.8281 107.536 46.8203C110.942 46.8281 113.708 49.5938 113.708 52.9922C113.708 56.3906 110.942 59.1562 107.536 59.1641ZM102.567 52.9922C102.567 55.7344 104.81 57.9609 107.536 57.9609C110.278 57.9609 112.513 55.7344 112.521 52.9922C112.513 50.25 110.278 48.0156 107.536 48.0234C104.81 48.0156 102.567 50.25 102.567 52.9922ZM105.489 54.2109H106.583C106.591 54.6406 107.005 54.9219 107.552 54.9297C108.122 54.9219 108.528 54.6016 108.536 54.1484C108.528 53.6797 108.122 53.3438 107.442 53.3516H106.958V52.5234H107.442C108.013 52.5234 108.396 52.2188 108.396 51.7578C108.396 51.3359 108.067 51.0391 107.567 51.0391C107.06 51.0391 106.646 51.3125 106.63 51.7578H105.583C105.606 50.8125 106.458 50.1641 107.567 50.1641C108.708 50.1641 109.45 50.8438 109.442 51.6953C109.45 52.3281 109.028 52.7734 108.411 52.8828V52.9297C109.216 53.0234 109.661 53.5234 109.661 54.2109C109.661 55.1484 108.778 55.8281 107.552 55.8359C106.356 55.8281 105.497 55.1641 105.489 54.2109Z" fill="#EE7439"/>
<path d="M143.202 136.414C139.804 136.406 137.046 133.641 137.046 130.242C137.046 126.844 139.804 124.078 143.202 124.07C146.608 124.078 149.374 126.844 149.374 130.242C149.374 133.641 146.608 136.406 143.202 136.414ZM138.233 130.242C138.233 132.984 140.476 135.211 143.202 135.211C145.944 135.211 148.179 132.984 148.187 130.242C148.179 127.5 145.944 125.266 143.202 125.273C140.476 125.266 138.233 127.5 138.233 130.242ZM141.155 131.461H142.249C142.257 131.891 142.671 132.172 143.218 132.18C143.788 132.172 144.194 131.852 144.202 131.398C144.194 130.93 143.788 130.594 143.108 130.602H142.624V129.773H143.108C143.679 129.773 144.062 129.469 144.062 129.008C144.062 128.586 143.733 128.289 143.233 128.289C142.726 128.289 142.312 128.562 142.296 129.008H141.249C141.272 128.062 142.124 127.414 143.233 127.414C144.374 127.414 145.116 128.094 145.108 128.945C145.116 129.578 144.694 130.023 144.077 130.133V130.18C144.882 130.273 145.327 130.773 145.327 131.461C145.327 132.398 144.444 133.078 143.218 133.086C142.022 133.078 141.163 132.414 141.155 131.461Z" fill="#EE7439"/>
<path d="M214.533 161.672C211.135 161.664 208.377 158.898 208.377 155.5C208.377 152.102 211.135 149.336 214.533 149.328C217.939 149.336 220.705 152.102 220.705 155.5C220.705 158.898 217.939 161.664 214.533 161.672ZM209.564 155.5C209.564 158.242 211.807 160.469 214.533 160.469C217.275 160.469 219.51 158.242 219.518 155.5C219.51 152.758 217.275 150.523 214.533 150.531C211.807 150.523 209.564 152.758 209.564 155.5ZM212.486 156.719H213.58C213.588 157.148 214.002 157.43 214.549 157.438C215.119 157.43 215.525 157.109 215.533 156.656C215.525 156.188 215.119 155.852 214.439 155.859H213.955V155.031H214.439C215.01 155.031 215.393 154.727 215.393 154.266C215.393 153.844 215.064 153.547 214.564 153.547C214.057 153.547 213.643 153.82 213.627 154.266H212.58C212.604 153.32 213.455 152.672 214.564 152.672C215.705 152.672 216.447 153.352 216.439 154.203C216.447 154.836 216.025 155.281 215.408 155.391V155.438C216.213 155.531 216.658 156.031 216.658 156.719C216.658 157.656 215.775 158.336 214.549 158.344C213.354 158.336 212.494 157.672 212.486 156.719Z" fill="#EE7439"/>
<path d="M204.131 115.617C200.732 115.609 197.975 112.844 197.975 109.445C197.975 106.047 200.732 103.281 204.131 103.273C207.537 103.281 210.303 106.047 210.303 109.445C210.303 112.844 207.537 115.609 204.131 115.617ZM199.162 109.445C199.162 112.188 201.404 114.414 204.131 114.414C206.873 114.414 209.107 112.188 209.115 109.445C209.107 106.703 206.873 104.469 204.131 104.477C201.404 104.469 199.162 106.703 199.162 109.445ZM202.084 110.664H203.178C203.186 111.094 203.6 111.375 204.146 111.383C204.717 111.375 205.123 111.055 205.131 110.602C205.123 110.133 204.717 109.797 204.037 109.805H203.553V108.977H204.037C204.607 108.977 204.99 108.672 204.99 108.211C204.99 107.789 204.662 107.492 204.162 107.492C203.654 107.492 203.24 107.766 203.225 108.211H202.178C202.201 107.266 203.053 106.617 204.162 106.617C205.303 106.617 206.045 107.297 206.037 108.148C206.045 108.781 205.623 109.227 205.006 109.336V109.383C205.811 109.477 206.256 109.977 206.256 110.664C206.256 111.602 205.373 112.281 204.146 112.289C202.951 112.281 202.092 111.617 202.084 110.664Z" fill="#EE7439"/>
<path d="M321.531 94.8203C318.133 94.8125 315.375 92.0469 315.375 88.6484C315.375 85.25 318.133 82.4844 321.531 82.4766C324.938 82.4844 327.703 85.25 327.703 88.6484C327.703 92.0469 324.938 94.8125 321.531 94.8203ZM316.562 88.6484C316.562 91.3906 318.805 93.6172 321.531 93.6172C324.273 93.6172 326.508 91.3906 326.516 88.6484C326.508 85.9062 324.273 83.6719 321.531 83.6797C318.805 83.6719 316.562 85.9062 316.562 88.6484ZM319.484 89.8672H320.578C320.586 90.2969 321 90.5781 321.547 90.5859C322.117 90.5781 322.523 90.2578 322.531 89.8047C322.523 89.3359 322.117 89 321.438 89.0078H320.953V88.1797H321.438C322.008 88.1797 322.391 87.875 322.391 87.4141C322.391 86.9922 322.062 86.6953 321.562 86.6953C321.055 86.6953 320.641 86.9688 320.625 87.4141H319.578C319.602 86.4688 320.453 85.8203 321.562 85.8203C322.703 85.8203 323.445 86.5 323.438 87.3516C323.445 87.9844 323.023 88.4297 322.406 88.5391V88.5859C323.211 88.6797 323.656 89.1797 323.656 89.8672C323.656 90.8047 322.773 91.4844 321.547 91.4922C320.352 91.4844 319.492 90.8203 319.484 89.8672Z" fill="#EE7439"/>
<path d="M312.615 157.219C309.217 157.211 306.459 154.445 306.459 151.047C306.459 147.648 309.217 144.883 312.615 144.875C316.021 144.883 318.787 147.648 318.787 151.047C318.787 154.445 316.021 157.211 312.615 157.219ZM307.646 151.047C307.646 153.789 309.889 156.016 312.615 156.016C315.357 156.016 317.592 153.789 317.6 151.047C317.592 148.305 315.357 146.07 312.615 146.078C309.889 146.07 307.646 148.305 307.646 151.047ZM310.568 152.266H311.662C311.67 152.695 312.084 152.977 312.631 152.984C313.201 152.977 313.607 152.656 313.615 152.203C313.607 151.734 313.201 151.398 312.521 151.406H312.037V150.578H312.521C313.092 150.578 313.475 150.273 313.475 149.812C313.475 149.391 313.146 149.094 312.646 149.094C312.139 149.094 311.725 149.367 311.709 149.812H310.662C310.686 148.867 311.537 148.219 312.646 148.219C313.787 148.219 314.529 148.898 314.521 149.75C314.529 150.383 314.107 150.828 313.49 150.938V150.984C314.295 151.078 314.74 151.578 314.74 152.266C314.74 153.203 313.857 153.883 312.631 153.891C311.436 153.883 310.576 153.219 310.568 152.266Z" fill="#EE7439"/>
<path d="M351.253 157.219C347.854 157.211 345.097 154.445 345.097 151.047C345.097 147.648 347.854 144.883 351.253 144.875C354.659 144.883 357.425 147.648 357.425 151.047C357.425 154.445 354.659 157.211 351.253 157.219ZM346.284 151.047C346.284 153.789 348.526 156.016 351.253 156.016C353.995 156.016 356.229 153.789 356.237 151.047C356.229 148.305 353.995 146.07 351.253 146.078C348.526 146.07 346.284 148.305 346.284 151.047ZM349.206 152.266H350.3C350.308 152.695 350.722 152.977 351.269 152.984C351.839 152.977 352.245 152.656 352.253 152.203C352.245 151.734 351.839 151.398 351.159 151.406H350.675V150.578H351.159C351.729 150.578 352.112 150.273 352.112 149.812C352.112 149.391 351.784 149.094 351.284 149.094C350.776 149.094 350.362 149.367 350.347 149.812H349.3C349.323 148.867 350.175 148.219 351.284 148.219C352.425 148.219 353.167 148.898 353.159 149.75C353.167 150.383 352.745 150.828 352.128 150.938V150.984C352.933 151.078 353.378 151.578 353.378 152.266C353.378 153.203 352.495 153.883 351.269 153.891C350.073 153.883 349.214 153.219 349.206 152.266Z" fill="#EE7439"/>
<path d="M355.711 105.219C352.312 105.211 349.555 102.445 349.555 99.0469C349.555 95.6484 352.312 92.8828 355.711 92.875C359.117 92.8828 361.883 95.6484 361.883 99.0469C361.883 102.445 359.117 105.211 355.711 105.219ZM350.742 99.0469C350.742 101.789 352.984 104.016 355.711 104.016C358.453 104.016 360.688 101.789 360.695 99.0469C360.688 96.3047 358.453 94.0703 355.711 94.0781C352.984 94.0703 350.742 96.3047 350.742 99.0469ZM353.664 100.266H354.758C354.766 100.695 355.18 100.977 355.727 100.984C356.297 100.977 356.703 100.656 356.711 100.203C356.703 99.7344 356.297 99.3984 355.617 99.4062H355.133V98.5781H355.617C356.188 98.5781 356.57 98.2734 356.57 97.8125C356.57 97.3906 356.242 97.0938 355.742 97.0938C355.234 97.0938 354.82 97.3672 354.805 97.8125H353.758C353.781 96.8672 354.633 96.2188 355.742 96.2188C356.883 96.2188 357.625 96.8984 357.617 97.75C357.625 98.3828 357.203 98.8281 356.586 98.9375V98.9844C357.391 99.0781 357.836 99.5781 357.836 100.266C357.836 101.203 356.953 101.883 355.727 101.891C354.531 101.883 353.672 101.219 353.664 100.266Z" fill="#EE7439"/>
<path d="M444.876 96.3047C441.478 96.2969 438.72 93.5312 438.72 90.1328C438.72 86.7344 441.478 83.9688 444.876 83.9609C448.282 83.9688 451.048 86.7344 451.048 90.1328C451.048 93.5312 448.282 96.2969 444.876 96.3047ZM439.907 90.1328C439.907 92.875 442.149 95.1016 444.876 95.1016C447.618 95.1016 449.853 92.875 449.86 90.1328C449.853 87.3906 447.618 85.1562 444.876 85.1641C442.149 85.1562 439.907 87.3906 439.907 90.1328ZM442.829 91.3516H443.923C443.931 91.7812 444.345 92.0625 444.892 92.0703C445.462 92.0625 445.868 91.7422 445.876 91.2891C445.868 90.8203 445.462 90.4844 444.782 90.4922H444.298V89.6641H444.782C445.353 89.6641 445.735 89.3594 445.735 88.8984C445.735 88.4766 445.407 88.1797 444.907 88.1797C444.399 88.1797 443.985 88.4531 443.97 88.8984H442.923C442.946 87.9531 443.798 87.3047 444.907 87.3047C446.048 87.3047 446.79 87.9844 446.782 88.8359C446.79 89.4688 446.368 89.9141 445.751 90.0234V90.0703C446.556 90.1641 447.001 90.6641 447.001 91.3516C447.001 92.2891 446.118 92.9688 444.892 92.9766C443.696 92.9688 442.837 92.3047 442.829 91.3516Z" fill="#EE7439"/>
<path d="M412.183 128.992C408.784 128.984 406.026 126.219 406.026 122.82C406.026 119.422 408.784 116.656 412.183 116.648C415.589 116.656 418.354 119.422 418.354 122.82C418.354 126.219 415.589 128.984 412.183 128.992ZM407.214 122.82C407.214 125.562 409.456 127.789 412.183 127.789C414.925 127.789 417.159 125.562 417.167 122.82C417.159 120.078 414.925 117.844 412.183 117.852C409.456 117.844 407.214 120.078 407.214 122.82ZM410.136 124.039H411.229C411.237 124.469 411.651 124.75 412.198 124.758C412.769 124.75 413.175 124.43 413.183 123.977C413.175 123.508 412.769 123.172 412.089 123.18H411.604V122.352H412.089C412.659 122.352 413.042 122.047 413.042 121.586C413.042 121.164 412.714 120.867 412.214 120.867C411.706 120.867 411.292 121.141 411.276 121.586H410.229C410.253 120.641 411.104 119.992 412.214 119.992C413.354 119.992 414.097 120.672 414.089 121.523C414.097 122.156 413.675 122.602 413.058 122.711V122.758C413.862 122.852 414.308 123.352 414.308 124.039C414.308 124.977 413.425 125.656 412.198 125.664C411.003 125.656 410.144 124.992 410.136 124.039Z" fill="#EE7439"/>
<path d="M482.028 108.195C478.63 108.188 475.872 105.422 475.872 102.023C475.872 98.625 478.63 95.8594 482.028 95.8516C485.435 95.8594 488.2 98.625 488.2 102.023C488.2 105.422 485.435 108.188 482.028 108.195ZM477.06 102.023C477.06 104.766 479.302 106.992 482.028 106.992C484.771 106.992 487.005 104.766 487.013 102.023C487.005 99.2812 484.771 97.0469 482.028 97.0547C479.302 97.0469 477.06 99.2812 477.06 102.023ZM479.981 103.242H481.075C481.083 103.672 481.497 103.953 482.044 103.961C482.614 103.953 483.021 103.633 483.028 103.18C483.021 102.711 482.614 102.375 481.935 102.383H481.45V101.555H481.935C482.505 101.555 482.888 101.25 482.888 100.789C482.888 100.367 482.56 100.07 482.06 100.07C481.552 100.07 481.138 100.344 481.122 100.789H480.075C480.099 99.8438 480.95 99.1953 482.06 99.1953C483.2 99.1953 483.942 99.875 483.935 100.727C483.942 101.359 483.521 101.805 482.903 101.914V101.961C483.708 102.055 484.153 102.555 484.153 103.242C484.153 104.18 483.271 104.859 482.044 104.867C480.849 104.859 479.989 104.195 479.981 103.242Z" fill="#EE7439"/>
<path d="M559.305 60.6562C555.906 60.6484 553.148 57.8828 553.148 54.4844C553.148 51.0859 555.906 48.3203 559.305 48.3125C562.711 48.3203 565.477 51.0859 565.477 54.4844C565.477 57.8828 562.711 60.6484 559.305 60.6562ZM554.336 54.4844C554.336 57.2266 556.578 59.4531 559.305 59.4531C562.047 59.4531 564.281 57.2266 564.289 54.4844C564.281 51.7422 562.047 49.5078 559.305 49.5156C556.578 49.5078 554.336 51.7422 554.336 54.4844ZM557.258 55.7031H558.352C558.359 56.1328 558.773 56.4141 559.32 56.4219C559.891 56.4141 560.297 56.0938 560.305 55.6406C560.297 55.1719 559.891 54.8359 559.211 54.8438H558.727V54.0156H559.211C559.781 54.0156 560.164 53.7109 560.164 53.25C560.164 52.8281 559.836 52.5312 559.336 52.5312C558.828 52.5312 558.414 52.8047 558.398 53.25H557.352C557.375 52.3047 558.227 51.6562 559.336 51.6562C560.477 51.6562 561.219 52.3359 561.211 53.1875C561.219 53.8203 560.797 54.2656 560.18 54.375V54.4219C560.984 54.5156 561.43 55.0156 561.43 55.7031C561.43 56.6406 560.547 57.3203 559.32 57.3281C558.125 57.3203 557.266 56.6562 557.258 55.7031Z" fill="#EE7439"/>
<path d="M544.443 108.195C541.045 108.188 538.287 105.422 538.287 102.023C538.287 98.625 541.045 95.8594 544.443 95.8516C547.85 95.8594 550.615 98.625 550.615 102.023C550.615 105.422 547.85 108.188 544.443 108.195ZM539.475 102.023C539.475 104.766 541.717 106.992 544.443 106.992C547.186 106.992 549.42 104.766 549.428 102.023C549.42 99.2812 547.186 97.0469 544.443 97.0547C541.717 97.0469 539.475 99.2812 539.475 102.023ZM542.396 103.242H543.49C543.498 103.672 543.912 103.953 544.459 103.961C545.029 103.953 545.436 103.633 545.443 103.18C545.436 102.711 545.029 102.375 544.35 102.383H543.865V101.555H544.35C544.92 101.555 545.303 101.25 545.303 100.789C545.303 100.367 544.975 100.07 544.475 100.07C543.967 100.07 543.553 100.344 543.537 100.789H542.49C542.514 99.8438 543.365 99.1953 544.475 99.1953C545.615 99.1953 546.357 99.875 546.35 100.727C546.357 101.359 545.936 101.805 545.318 101.914V101.961C546.123 102.055 546.568 102.555 546.568 103.242C546.568 104.18 545.686 104.859 544.459 104.867C543.264 104.859 542.404 104.195 542.396 103.242Z" fill="#EE7439"/>
<path d="M514.723 127.5C511.324 127.492 508.566 124.727 508.566 121.328C508.566 117.93 511.324 115.164 514.723 115.156C518.129 115.164 520.895 117.93 520.895 121.328C520.895 124.727 518.129 127.492 514.723 127.5ZM509.754 121.328C509.754 124.07 511.996 126.297 514.723 126.297C517.465 126.297 519.699 124.07 519.707 121.328C519.699 118.586 517.465 116.352 514.723 116.359C511.996 116.352 509.754 118.586 509.754 121.328ZM512.676 122.547H513.77C513.777 122.977 514.191 123.258 514.738 123.266C515.309 123.258 515.715 122.938 515.723 122.484C515.715 122.016 515.309 121.68 514.629 121.688H514.145V120.859H514.629C515.199 120.859 515.582 120.555 515.582 120.094C515.582 119.672 515.254 119.375 514.754 119.375C514.246 119.375 513.832 119.648 513.816 120.094H512.77C512.793 119.148 513.645 118.5 514.754 118.5C515.895 118.5 516.637 119.18 516.629 120.031C516.637 120.664 516.215 121.109 515.598 121.219V121.266C516.402 121.359 516.848 121.859 516.848 122.547C516.848 123.484 515.965 124.164 514.738 124.172C513.543 124.164 512.684 123.5 512.676 122.547Z" fill="#EE7439"/>
<path d="M537.014 173.555C533.615 173.547 530.857 170.781 530.857 167.383C530.857 163.984 533.615 161.219 537.014 161.211C540.42 161.219 543.186 163.984 543.186 167.383C543.186 170.781 540.42 173.547 537.014 173.555ZM532.045 167.383C532.045 170.125 534.287 172.352 537.014 172.352C539.756 172.352 541.99 170.125 541.998 167.383C541.99 164.641 539.756 162.406 537.014 162.414C534.287 162.406 532.045 164.641 532.045 167.383ZM534.967 168.602H536.061C536.068 169.031 536.482 169.312 537.029 169.32C537.6 169.312 538.006 168.992 538.014 168.539C538.006 168.07 537.6 167.734 536.92 167.742H536.436V166.914H536.92C537.49 166.914 537.873 166.609 537.873 166.148C537.873 165.727 537.545 165.43 537.045 165.43C536.537 165.43 536.123 165.703 536.107 166.148H535.061C535.084 165.203 535.936 164.555 537.045 164.555C538.186 164.555 538.928 165.234 538.92 166.086C538.928 166.719 538.506 167.164 537.889 167.273V167.32C538.693 167.414 539.139 167.914 539.139 168.602C539.139 169.539 538.256 170.219 537.029 170.227C535.834 170.219 534.975 169.555 534.967 168.602Z" fill="#EE7439"/>
<path d="M553.359 154.242C549.961 154.234 547.203 151.469 547.203 148.07C547.203 144.672 549.961 141.906 553.359 141.898C556.766 141.906 559.531 144.672 559.531 148.07C559.531 151.469 556.766 154.234 553.359 154.242ZM548.391 148.07C548.391 150.812 550.633 153.039 553.359 153.039C556.102 153.039 558.336 150.812 558.344 148.07C558.336 145.328 556.102 143.094 553.359 143.102C550.633 143.094 548.391 145.328 548.391 148.07ZM551.312 149.289H552.406C552.414 149.719 552.828 150 553.375 150.008C553.945 150 554.352 149.68 554.359 149.227C554.352 148.758 553.945 148.422 553.266 148.43H552.781V147.602H553.266C553.836 147.602 554.219 147.297 554.219 146.836C554.219 146.414 553.891 146.117 553.391 146.117C552.883 146.117 552.469 146.391 552.453 146.836H551.406C551.43 145.891 552.281 145.242 553.391 145.242C554.531 145.242 555.273 145.922 555.266 146.773C555.273 147.406 554.852 147.852 554.234 147.961V148.008C555.039 148.102 555.484 148.602 555.484 149.289C555.484 150.227 554.602 150.906 553.375 150.914C552.18 150.906 551.32 150.242 551.312 149.289Z" fill="#EE7439"/>
<path d="M482.514 142.359C479.115 142.352 476.357 139.586 476.357 136.188C476.357 132.789 479.115 130.023 482.514 130.016C485.92 130.023 488.686 132.789 488.686 136.188C488.686 139.586 485.92 142.352 482.514 142.359ZM477.545 136.188C477.545 138.93 479.787 141.156 482.514 141.156C485.256 141.156 487.49 138.93 487.498 136.188C487.49 133.445 485.256 131.211 482.514 131.219C479.787 131.211 477.545 133.445 477.545 136.188ZM480.467 137.406H481.561C481.568 137.836 481.982 138.117 482.529 138.125C483.1 138.117 483.506 137.797 483.514 137.344C483.506 136.875 483.1 136.539 482.42 136.547H481.936V135.719H482.42C482.99 135.719 483.373 135.414 483.373 134.953C483.373 134.531 483.045 134.234 482.545 134.234C482.037 134.234 481.623 134.508 481.607 134.953H480.561C480.584 134.008 481.436 133.359 482.545 133.359C483.686 133.359 484.428 134.039 484.42 134.891C484.428 135.523 484.006 135.969 483.389 136.078V136.125C484.193 136.219 484.639 136.719 484.639 137.406C484.639 138.344 483.756 139.023 482.529 139.031C481.334 139.023 480.475 138.359 480.467 137.406Z" fill="#EE7439"/>
<path d="M492.431 298.344C489.032 298.336 486.274 295.57 486.274 292.172C486.274 288.773 489.032 286.008 492.431 286C495.837 286.008 498.603 288.773 498.603 292.172C498.603 295.57 495.837 298.336 492.431 298.344ZM487.462 292.172C487.462 294.914 489.704 297.141 492.431 297.141C495.173 297.141 497.407 294.914 497.415 292.172C497.407 289.43 495.173 287.195 492.431 287.203C489.704 287.195 487.462 289.43 487.462 292.172ZM490.384 293.391H491.478C491.485 293.82 491.899 294.102 492.446 294.109C493.017 294.102 493.423 293.781 493.431 293.328C493.423 292.859 493.017 292.523 492.337 292.531H491.853V291.703H492.337C492.907 291.703 493.29 291.398 493.29 290.938C493.29 290.516 492.962 290.219 492.462 290.219C491.954 290.219 491.54 290.492 491.524 290.938H490.478C490.501 289.992 491.353 289.344 492.462 289.344C493.603 289.344 494.345 290.023 494.337 290.875C494.345 291.508 493.923 291.953 493.306 292.062V292.109C494.11 292.203 494.556 292.703 494.556 293.391C494.556 294.328 493.673 295.008 492.446 295.016C491.251 295.008 490.392 294.344 490.384 293.391Z" fill="#EE7439"/>
<path d="M538.499 314.688C535.101 314.68 532.343 311.914 532.343 308.516C532.343 305.117 535.101 302.352 538.499 302.344C541.905 302.352 544.671 305.117 544.671 308.516C544.671 311.914 541.905 314.68 538.499 314.688ZM533.53 308.516C533.53 311.258 535.772 313.484 538.499 313.484C541.241 313.484 543.476 311.258 543.483 308.516C543.476 305.773 541.241 303.539 538.499 303.547C535.772 303.539 533.53 305.773 533.53 308.516ZM536.452 309.734H537.546C537.554 310.164 537.968 310.445 538.515 310.453C539.085 310.445 539.491 310.125 539.499 309.672C539.491 309.203 539.085 308.867 538.405 308.875H537.921V308.047H538.405C538.976 308.047 539.358 307.742 539.358 307.281C539.358 306.859 539.03 306.562 538.53 306.562C538.022 306.562 537.608 306.836 537.593 307.281H536.546C536.569 306.336 537.421 305.688 538.53 305.688C539.671 305.688 540.413 306.367 540.405 307.219C540.413 307.852 539.991 308.297 539.374 308.406V308.453C540.179 308.547 540.624 309.047 540.624 309.734C540.624 310.672 539.741 311.352 538.515 311.359C537.319 311.352 536.46 310.688 536.452 309.734Z" fill="#EE7439"/>
<path d="M281.407 136.414C278.009 136.406 275.251 133.641 275.251 130.242C275.251 126.844 278.009 124.078 281.407 124.07C284.813 124.078 287.579 126.844 287.579 130.242C287.579 133.641 284.813 136.406 281.407 136.414ZM276.438 130.242C276.438 132.984 278.681 135.211 281.407 135.211C284.149 135.211 286.384 132.984 286.392 130.242C286.384 127.5 284.149 125.266 281.407 125.273C278.681 125.266 276.438 127.5 276.438 130.242ZM279.36 131.461H280.454C280.462 131.891 280.876 132.172 281.423 132.18C281.993 132.172 282.399 131.852 282.407 131.398C282.399 130.93 281.993 130.594 281.313 130.602H280.829V129.773H281.313C281.884 129.773 282.267 129.469 282.267 129.008C282.267 128.586 281.938 128.289 281.438 128.289C280.931 128.289 280.517 128.562 280.501 129.008H279.454C279.478 128.062 280.329 127.414 281.438 127.414C282.579 127.414 283.321 128.094 283.313 128.945C283.321 129.578 282.899 130.023 282.282 130.133V130.18C283.087 130.273 283.532 130.773 283.532 131.461C283.532 132.398 282.649 133.078 281.423 133.086C280.228 133.078 279.368 132.414 279.36 131.461Z" fill="#EE7439"/>
<path d="M223.45 63.625C220.052 63.6172 217.294 60.8516 217.294 57.4531C217.294 54.0547 220.052 51.2891 223.45 51.2812C226.856 51.2891 229.622 54.0547 229.622 57.4531C229.622 60.8516 226.856 63.6172 223.45 63.625ZM218.481 57.4531C218.481 60.1953 220.724 62.4219 223.45 62.4219C226.192 62.4219 228.427 60.1953 228.435 57.4531C228.427 54.7109 226.192 52.4766 223.45 52.4844C220.724 52.4766 218.481 54.7109 218.481 57.4531ZM221.403 58.6719H222.497C222.505 59.1016 222.919 59.3828 223.466 59.3906C224.036 59.3828 224.442 59.0625 224.45 58.6094C224.442 58.1406 224.036 57.8047 223.356 57.8125H222.872V56.9844H223.356C223.927 56.9844 224.31 56.6797 224.31 56.2188C224.31 55.7969 223.981 55.5 223.481 55.5C222.974 55.5 222.56 55.7734 222.544 56.2188H221.497C221.521 55.2734 222.372 54.625 223.481 54.625C224.622 54.625 225.364 55.3047 225.356 56.1562C225.364 56.7891 224.942 57.2344 224.325 57.3438V57.3906C225.13 57.4844 225.575 57.9844 225.575 58.6719C225.575 59.6094 224.692 60.2891 223.466 60.2969C222.271 60.2891 221.411 59.625 221.403 58.6719Z" fill="#EE7439"/>
<path d="M236.825 175.039C233.427 175.031 230.669 172.266 230.669 168.867C230.669 165.469 233.427 162.703 236.825 162.695C240.231 162.703 242.997 165.469 242.997 168.867C242.997 172.266 240.231 175.031 236.825 175.039ZM231.856 168.867C231.856 171.609 234.099 173.836 236.825 173.836C239.567 173.836 241.802 171.609 241.81 168.867C241.802 166.125 239.567 163.891 236.825 163.898C234.099 163.891 231.856 166.125 231.856 168.867ZM234.778 170.086H235.872C235.88 170.516 236.294 170.797 236.841 170.805C237.411 170.797 237.817 170.477 237.825 170.023C237.817 169.555 237.411 169.219 236.731 169.227H236.247V168.398H236.731C237.302 168.398 237.685 168.094 237.685 167.633C237.685 167.211 237.356 166.914 236.856 166.914C236.349 166.914 235.935 167.188 235.919 167.633H234.872C234.896 166.688 235.747 166.039 236.856 166.039C237.997 166.039 238.739 166.719 238.731 167.57C238.739 168.203 238.317 168.648 237.7 168.758V168.805C238.505 168.898 238.95 169.398 238.95 170.086C238.95 171.023 238.067 171.703 236.841 171.711C235.646 171.703 234.786 171.039 234.778 170.086Z" fill="#EE7439"/>
<path d="M265.061 198.812C261.662 198.805 258.904 196.039 258.904 192.641C258.904 189.242 261.662 186.477 265.061 186.469C268.467 186.477 271.232 189.242 271.232 192.641C271.232 196.039 268.467 198.805 265.061 198.812ZM260.092 192.641C260.092 195.383 262.334 197.609 265.061 197.609C267.803 197.609 270.037 195.383 270.045 192.641C270.037 189.898 267.803 187.664 265.061 187.672C262.334 187.664 260.092 189.898 260.092 192.641ZM263.014 193.859H264.107C264.115 194.289 264.529 194.57 265.076 194.578C265.646 194.57 266.053 194.25 266.061 193.797C266.053 193.328 265.646 192.992 264.967 193H264.482V192.172H264.967C265.537 192.172 265.92 191.867 265.92 191.406C265.92 190.984 265.592 190.688 265.092 190.688C264.584 190.688 264.17 190.961 264.154 191.406H263.107C263.131 190.461 263.982 189.812 265.092 189.812C266.232 189.812 266.975 190.492 266.967 191.344C266.975 191.977 266.553 192.422 265.936 192.531V192.578C266.74 192.672 267.186 193.172 267.186 193.859C267.186 194.797 266.303 195.477 265.076 195.484C263.881 195.477 263.021 194.812 263.014 193.859Z" fill="#EE7439"/>
<path d="M386.919 329.539C383.521 329.531 380.763 326.766 380.763 323.367C380.763 319.969 383.521 317.203 386.919 317.195C390.325 317.203 393.091 319.969 393.091 323.367C393.091 326.766 390.325 329.531 386.919 329.539ZM381.95 323.367C381.95 326.109 384.192 328.336 386.919 328.336C389.661 328.336 391.896 326.109 391.903 323.367C391.896 320.625 389.661 318.391 386.919 318.398C384.192 318.391 381.95 320.625 381.95 323.367ZM384.872 324.586H385.966C385.974 325.016 386.388 325.297 386.935 325.305C387.505 325.297 387.911 324.977 387.919 324.523C387.911 324.055 387.505 323.719 386.825 323.727H386.341V322.898H386.825C387.396 322.898 387.778 322.594 387.778 322.133C387.778 321.711 387.45 321.414 386.95 321.414C386.442 321.414 386.028 321.688 386.013 322.133H384.966C384.989 321.188 385.841 320.539 386.95 320.539C388.091 320.539 388.833 321.219 388.825 322.07C388.833 322.703 388.411 323.148 387.794 323.258V323.305C388.599 323.398 389.044 323.898 389.044 324.586C389.044 325.523 388.161 326.203 386.935 326.211C385.739 326.203 384.88 325.539 384.872 324.586Z" fill="#EE7439"/>
<path d="M370.572 350.336C367.174 350.328 364.416 347.562 364.416 344.164C364.416 340.766 367.174 338 370.572 337.992C373.979 338 376.744 340.766 376.744 344.164C376.744 347.562 373.979 350.328 370.572 350.336ZM365.604 344.164C365.604 346.906 367.846 349.133 370.572 349.133C373.314 349.133 375.549 346.906 375.557 344.164C375.549 341.422 373.314 339.188 370.572 339.195C367.846 339.188 365.604 341.422 365.604 344.164ZM368.525 345.383H369.619C369.627 345.812 370.041 346.094 370.588 346.102C371.158 346.094 371.564 345.773 371.572 345.32C371.564 344.852 371.158 344.516 370.479 344.523H369.994V343.695H370.479C371.049 343.695 371.432 343.391 371.432 342.93C371.432 342.508 371.104 342.211 370.604 342.211C370.096 342.211 369.682 342.484 369.666 342.93H368.619C368.643 341.984 369.494 341.336 370.604 341.336C371.744 341.336 372.486 342.016 372.479 342.867C372.486 343.5 372.064 343.945 371.447 344.055V344.102C372.252 344.195 372.697 344.695 372.697 345.383C372.697 346.32 371.814 347 370.588 347.008C369.393 347 368.533 346.336 368.525 345.383Z" fill="#EE7439"/>
<path d="M320.045 345.883C316.646 345.875 313.889 343.109 313.889 339.711C313.889 336.312 316.646 333.547 320.045 333.539C323.451 333.547 326.217 336.312 326.217 339.711C326.217 343.109 323.451 345.875 320.045 345.883ZM315.076 339.711C315.076 342.453 317.318 344.68 320.045 344.68C322.787 344.68 325.021 342.453 325.029 339.711C325.021 336.969 322.787 334.734 320.045 334.742C317.318 334.734 315.076 336.969 315.076 339.711ZM317.998 340.93H319.092C319.1 341.359 319.514 341.641 320.061 341.648C320.631 341.641 321.037 341.32 321.045 340.867C321.037 340.398 320.631 340.062 319.951 340.07H319.467V339.242H319.951C320.521 339.242 320.904 338.938 320.904 338.477C320.904 338.055 320.576 337.758 320.076 337.758C319.568 337.758 319.154 338.031 319.139 338.477H318.092C318.115 337.531 318.967 336.883 320.076 336.883C321.217 336.883 321.959 337.562 321.951 338.414C321.959 339.047 321.537 339.492 320.92 339.602V339.648C321.725 339.742 322.17 340.242 322.17 340.93C322.17 341.867 321.287 342.547 320.061 342.555C318.865 342.547 318.006 341.883 317.998 340.93Z" fill="#EE7439"/>
<path d="M207.104 192.867C203.705 192.859 200.947 190.094 200.947 186.695C200.947 183.297 203.705 180.531 207.104 180.523C210.51 180.531 213.275 183.297 213.275 186.695C213.275 190.094 210.51 192.859 207.104 192.867ZM202.135 186.695C202.135 189.438 204.377 191.664 207.104 191.664C209.846 191.664 212.08 189.438 212.088 186.695C212.08 183.953 209.846 181.719 207.104 181.727C204.377 181.719 202.135 183.953 202.135 186.695ZM205.057 187.914H206.15C206.158 188.344 206.572 188.625 207.119 188.633C207.689 188.625 208.096 188.305 208.104 187.852C208.096 187.383 207.689 187.047 207.01 187.055H206.525V186.227H207.01C207.58 186.227 207.963 185.922 207.963 185.461C207.963 185.039 207.635 184.742 207.135 184.742C206.627 184.742 206.213 185.016 206.197 185.461H205.15C205.174 184.516 206.025 183.867 207.135 183.867C208.275 183.867 209.018 184.547 209.01 185.398C209.018 186.031 208.596 186.477 207.979 186.586V186.633C208.783 186.727 209.229 187.227 209.229 187.914C209.229 188.852 208.346 189.531 207.119 189.539C205.924 189.531 205.064 188.867 205.057 187.914Z" fill="#EE7439"/>
<path d="M114.967 209.211C111.568 209.203 108.811 206.438 108.811 203.039C108.811 199.641 111.568 196.875 114.967 196.867C118.373 196.875 121.139 199.641 121.139 203.039C121.139 206.438 118.373 209.203 114.967 209.211ZM109.998 203.039C109.998 205.781 112.24 208.008 114.967 208.008C117.709 208.008 119.943 205.781 119.951 203.039C119.943 200.297 117.709 198.062 114.967 198.07C112.24 198.062 109.998 200.297 109.998 203.039ZM112.92 204.258H114.014C114.021 204.688 114.436 204.969 114.982 204.977C115.553 204.969 115.959 204.648 115.967 204.195C115.959 203.727 115.553 203.391 114.873 203.398H114.389V202.57H114.873C115.443 202.57 115.826 202.266 115.826 201.805C115.826 201.383 115.498 201.086 114.998 201.086C114.49 201.086 114.076 201.359 114.061 201.805H113.014C113.037 200.859 113.889 200.211 114.998 200.211C116.139 200.211 116.881 200.891 116.873 201.742C116.881 202.375 116.459 202.82 115.842 202.93V202.977C116.646 203.07 117.092 203.57 117.092 204.258C117.092 205.195 116.209 205.875 114.982 205.883C113.787 205.875 112.928 205.211 112.92 204.258Z" fill="#EE7439"/>
<path d="M159.549 234.461C156.15 234.453 153.393 231.688 153.393 228.289C153.393 224.891 156.15 222.125 159.549 222.117C162.955 222.125 165.721 224.891 165.721 228.289C165.721 231.688 162.955 234.453 159.549 234.461ZM154.58 228.289C154.58 231.031 156.822 233.258 159.549 233.258C162.291 233.258 164.525 231.031 164.533 228.289C164.525 225.547 162.291 223.312 159.549 223.32C156.822 223.312 154.58 225.547 154.58 228.289ZM157.502 229.508H158.596C158.604 229.938 159.018 230.219 159.564 230.227C160.135 230.219 160.541 229.898 160.549 229.445C160.541 228.977 160.135 228.641 159.455 228.648H158.971V227.82H159.455C160.025 227.82 160.408 227.516 160.408 227.055C160.408 226.633 160.08 226.336 159.58 226.336C159.072 226.336 158.658 226.609 158.643 227.055H157.596C157.619 226.109 158.471 225.461 159.58 225.461C160.721 225.461 161.463 226.141 161.455 226.992C161.463 227.625 161.041 228.07 160.424 228.18V228.227C161.229 228.32 161.674 228.82 161.674 229.508C161.674 230.445 160.791 231.125 159.564 231.133C158.369 231.125 157.51 230.461 157.502 229.508Z" fill="#EE7439"/>
<path d="M201.159 280.516C197.761 280.508 195.003 277.742 195.003 274.344C195.003 270.945 197.761 268.18 201.159 268.172C204.565 268.18 207.331 270.945 207.331 274.344C207.331 277.742 204.565 280.508 201.159 280.516ZM196.19 274.344C196.19 277.086 198.433 279.312 201.159 279.312C203.901 279.312 206.136 277.086 206.144 274.344C206.136 271.602 203.901 269.367 201.159 269.375C198.433 269.367 196.19 271.602 196.19 274.344ZM199.112 275.562H200.206C200.214 275.992 200.628 276.273 201.175 276.281C201.745 276.273 202.151 275.953 202.159 275.5C202.151 275.031 201.745 274.695 201.065 274.703H200.581V273.875H201.065C201.636 273.875 202.019 273.57 202.019 273.109C202.019 272.688 201.69 272.391 201.19 272.391C200.683 272.391 200.269 272.664 200.253 273.109H199.206C199.229 272.164 200.081 271.516 201.19 271.516C202.331 271.516 203.073 272.195 203.065 273.047C203.073 273.68 202.651 274.125 202.034 274.234V274.281C202.839 274.375 203.284 274.875 203.284 275.562C203.284 276.5 202.401 277.18 201.175 277.188C199.979 277.18 199.12 276.516 199.112 275.562Z" fill="#EE7439"/>
<path d="M266.547 311.711C263.148 311.703 260.391 308.938 260.391 305.539C260.391 302.141 263.148 299.375 266.547 299.367C269.953 299.375 272.719 302.141 272.719 305.539C272.719 308.938 269.953 311.703 266.547 311.711ZM261.578 305.539C261.578 308.281 263.82 310.508 266.547 310.508C269.289 310.508 271.523 308.281 271.531 305.539C271.523 302.797 269.289 300.562 266.547 300.57C263.82 300.562 261.578 302.797 261.578 305.539ZM264.5 306.758H265.594C265.602 307.188 266.016 307.469 266.562 307.477C267.133 307.469 267.539 307.148 267.547 306.695C267.539 306.227 267.133 305.891 266.453 305.898H265.969V305.07H266.453C267.023 305.07 267.406 304.766 267.406 304.305C267.406 303.883 267.078 303.586 266.578 303.586C266.07 303.586 265.656 303.859 265.641 304.305H264.594C264.617 303.359 265.469 302.711 266.578 302.711C267.719 302.711 268.461 303.391 268.453 304.242C268.461 304.875 268.039 305.32 267.422 305.43V305.477C268.227 305.57 268.672 306.07 268.672 306.758C268.672 307.695 267.789 308.375 266.562 308.383C265.367 308.375 264.508 307.711 264.5 306.758Z" fill="#EE7439"/>
<path d="M271.005 273.086C267.606 273.078 264.849 270.312 264.849 266.914C264.849 263.516 267.606 260.75 271.005 260.742C274.411 260.75 277.177 263.516 277.177 266.914C277.177 270.312 274.411 273.078 271.005 273.086ZM266.036 266.914C266.036 269.656 268.278 271.883 271.005 271.883C273.747 271.883 275.981 269.656 275.989 266.914C275.981 264.172 273.747 261.938 271.005 261.945C268.278 261.938 266.036 264.172 266.036 266.914ZM268.833 268.68V267.82L271.177 264.164H272.536V267.789H273.239V268.68H272.536V269.68H271.489V268.68H268.833ZM269.927 267.789H271.521V265.367H271.458L269.927 267.758V267.789Z" fill="#EE7439"/>
<path d="M324.504 273.086C321.105 273.078 318.348 270.312 318.348 266.914C318.348 263.516 321.105 260.75 324.504 260.742C327.91 260.75 330.676 263.516 330.676 266.914C330.676 270.312 327.91 273.078 324.504 273.086ZM319.535 266.914C319.535 269.656 321.777 271.883 324.504 271.883C327.246 271.883 329.48 269.656 329.488 266.914C329.48 264.172 327.246 261.938 324.504 261.945C321.777 261.938 319.535 264.172 319.535 266.914ZM322.332 268.68V267.82L324.676 264.164H326.035V267.789H326.738V268.68H326.035V269.68H324.988V268.68H322.332ZM323.426 267.789H325.02V265.367H324.957L323.426 267.758V267.789Z" fill="#EE7439"/>
<path d="M367.6 283.492C364.201 283.484 361.443 280.719 361.443 277.32C361.443 273.922 364.201 271.156 367.6 271.148C371.006 271.156 373.771 273.922 373.771 277.32C373.771 280.719 371.006 283.484 367.6 283.492ZM362.631 277.32C362.631 280.062 364.873 282.289 367.6 282.289C370.342 282.289 372.576 280.062 372.584 277.32C372.576 274.578 370.342 272.344 367.6 272.352C364.873 272.344 362.631 274.578 362.631 277.32ZM365.428 279.086V278.227L367.771 274.57H369.131V278.195H369.834V279.086H369.131V280.086H368.084V279.086H365.428ZM366.521 278.195H368.115V275.773H368.053L366.521 278.164V278.195Z" fill="#EE7439"/>
<path d="M358.684 204.75C355.285 204.742 352.527 201.977 352.527 198.578C352.527 195.18 355.285 192.414 358.684 192.406C362.09 192.414 364.855 195.18 364.855 198.578C364.855 201.977 362.09 204.742 358.684 204.75ZM353.715 198.578C353.715 201.32 355.957 203.547 358.684 203.547C361.426 203.547 363.66 201.32 363.668 198.578C363.66 195.836 361.426 193.602 358.684 193.609C355.957 193.602 353.715 195.836 353.715 198.578ZM356.512 200.344V199.484L358.855 195.828H360.215V199.453H360.918V200.344H360.215V201.344H359.168V200.344H356.512ZM357.605 199.453H359.199V197.031H359.137L357.605 199.422V199.453Z" fill="#EE7439"/>
<path d="M92.6758 274.578C89.2773 274.57 86.5195 271.805 86.5195 268.406C86.5195 265.008 89.2773 262.242 92.6758 262.234C96.082 262.242 98.8477 265.008 98.8477 268.406C98.8477 271.805 96.082 274.57 92.6758 274.578ZM87.707 268.406C87.707 271.148 89.9492 273.375 92.6758 273.375C95.418 273.375 97.6523 271.148 97.6602 268.406C97.6523 265.664 95.418 263.43 92.6758 263.438C89.9492 263.43 87.707 265.664 87.707 268.406ZM90.6289 269.625H91.7227C91.7305 270.055 92.1445 270.336 92.6914 270.344C93.2617 270.336 93.668 270.016 93.6758 269.562C93.668 269.094 93.2617 268.758 92.582 268.766H92.0977V267.938H92.582C93.1523 267.938 93.5352 267.633 93.5352 267.172C93.5352 266.75 93.207 266.453 92.707 266.453C92.1992 266.453 91.7852 266.727 91.7695 267.172H90.7227C90.7461 266.227 91.5977 265.578 92.707 265.578C93.8477 265.578 94.5898 266.258 94.582 267.109C94.5898 267.742 94.168 268.188 93.5508 268.297V268.344C94.3555 268.438 94.8008 268.938 94.8008 269.625C94.8008 270.562 93.918 271.242 92.6914 271.25C91.4961 271.242 90.6367 270.578 90.6289 269.625Z" fill="#EE7439"/>
<path d="M92.6758 326.57C89.2773 326.562 86.5195 323.797 86.5195 320.398C86.5195 317 89.2773 314.234 92.6758 314.227C96.082 314.234 98.8477 317 98.8477 320.398C98.8477 323.797 96.082 326.562 92.6758 326.57ZM87.707 320.398C87.707 323.141 89.9492 325.367 92.6758 325.367C95.418 325.367 97.6523 323.141 97.6602 320.398C97.6523 317.656 95.418 315.422 92.6758 315.43C89.9492 315.422 87.707 317.656 87.707 320.398ZM90.6289 321.617H91.7227C91.7305 322.047 92.1445 322.328 92.6914 322.336C93.2617 322.328 93.668 322.008 93.6758 321.555C93.668 321.086 93.2617 320.75 92.582 320.758H92.0977V319.93H92.582C93.1523 319.93 93.5352 319.625 93.5352 319.164C93.5352 318.742 93.207 318.445 92.707 318.445C92.1992 318.445 91.7852 318.719 91.7695 319.164H90.7227C90.7461 318.219 91.5977 317.57 92.707 317.57C93.8477 317.57 94.5898 318.25 94.582 319.102C94.5898 319.734 94.168 320.18 93.5508 320.289V320.336C94.3555 320.43 94.8008 320.93 94.8008 321.617C94.8008 322.555 93.918 323.234 92.6914 323.242C91.4961 323.234 90.6367 322.57 90.6289 321.617Z" fill="#EE7439"/>
<path d="M152.119 76.9922C148.721 76.9844 145.963 74.2188 145.963 70.8203C145.963 67.4219 148.721 64.6562 152.119 64.6484C155.525 64.6562 158.291 67.4219 158.291 70.8203C158.291 74.2188 155.525 76.9844 152.119 76.9922ZM147.15 70.8203C147.15 73.5625 149.393 75.7891 152.119 75.7891C154.861 75.7891 157.096 73.5625 157.104 70.8203C157.096 68.0781 154.861 65.8438 152.119 65.8516C149.393 65.8438 147.15 68.0781 147.15 70.8203ZM150.15 72.0859H151.213C151.236 72.5234 151.643 72.8203 152.15 72.8203C152.729 72.8203 153.15 72.3984 153.15 71.8203C153.15 71.2188 152.721 70.7969 152.119 70.7891C151.697 70.7891 151.4 70.9375 151.244 71.2578H150.244L150.557 68.1016H153.885V68.9922H151.447L151.291 70.4141H151.354C151.549 70.1562 151.955 69.9688 152.432 69.9609C153.447 69.9688 154.197 70.7188 154.182 71.7891C154.197 72.8984 153.361 73.6953 152.15 73.6953C151.002 73.6953 150.174 73.0156 150.15 72.0859Z" fill="#EE7439"/>
<path d="M97.1328 121.562C93.7344 121.555 90.9766 118.789 90.9766 115.391C90.9766 111.992 93.7344 109.227 97.1328 109.219C100.539 109.227 103.305 111.992 103.305 115.391C103.305 118.789 100.539 121.555 97.1328 121.562ZM92.1641 115.391C92.1641 118.133 94.4062 120.359 97.1328 120.359C99.875 120.359 102.109 118.133 102.117 115.391C102.109 112.648 99.875 110.414 97.1328 110.422C94.4062 110.414 92.1641 112.648 92.1641 115.391ZM95.1641 116.656H96.2266C96.25 117.094 96.6562 117.391 97.1641 117.391C97.7422 117.391 98.1641 116.969 98.1641 116.391C98.1641 115.789 97.7344 115.367 97.1328 115.359C96.7109 115.359 96.4141 115.508 96.2578 115.828H95.2578L95.5703 112.672H98.8984V113.562H96.4609L96.3047 114.984H96.3672C96.5625 114.727 96.9688 114.539 97.4453 114.531C98.4609 114.539 99.2109 115.289 99.1953 116.359C99.2109 117.469 98.375 118.266 97.1641 118.266C96.0156 118.266 95.1875 117.586 95.1641 116.656Z" fill="#EE7439"/>
<path d="M109.021 155.727C105.623 155.719 102.865 152.953 102.865 149.555C102.865 146.156 105.623 143.391 109.021 143.383C112.428 143.391 115.193 146.156 115.193 149.555C115.193 152.953 112.428 155.719 109.021 155.727ZM104.053 149.555C104.053 152.297 106.295 154.523 109.021 154.523C111.764 154.523 113.998 152.297 114.006 149.555C113.998 146.812 111.764 144.578 109.021 144.586C106.295 144.578 104.053 146.812 104.053 149.555ZM107.053 150.82H108.115C108.139 151.258 108.545 151.555 109.053 151.555C109.631 151.555 110.053 151.133 110.053 150.555C110.053 149.953 109.623 149.531 109.021 149.523C108.6 149.523 108.303 149.672 108.146 149.992H107.146L107.459 146.836H110.787V147.727H108.35L108.193 149.148H108.256C108.451 148.891 108.857 148.703 109.334 148.695C110.35 148.703 111.1 149.453 111.084 150.523C111.1 151.633 110.264 152.43 109.053 152.43C107.904 152.43 107.076 151.75 107.053 150.82Z" fill="#EE7439"/>
<path d="M129.827 160.188C126.429 160.18 123.671 157.414 123.671 154.016C123.671 150.617 126.429 147.852 129.827 147.844C133.233 147.852 135.999 150.617 135.999 154.016C135.999 157.414 133.233 160.18 129.827 160.188ZM124.858 154.016C124.858 156.758 127.101 158.984 129.827 158.984C132.569 158.984 134.804 156.758 134.812 154.016C134.804 151.273 132.569 149.039 129.827 149.047C127.101 149.039 124.858 151.273 124.858 154.016ZM127.858 155.281H128.921C128.944 155.719 129.351 156.016 129.858 156.016C130.437 156.016 130.858 155.594 130.858 155.016C130.858 154.414 130.429 153.992 129.827 153.984C129.405 153.984 129.108 154.133 128.952 154.453H127.952L128.265 151.297H131.593V152.188H129.155L128.999 153.609H129.062C129.257 153.352 129.663 153.164 130.14 153.156C131.155 153.164 131.905 153.914 131.89 154.984C131.905 156.094 131.069 156.891 129.858 156.891C128.71 156.891 127.882 156.211 127.858 155.281Z" fill="#EE7439"/>
<path d="M168.465 131.961C165.066 131.953 162.309 129.188 162.309 125.789C162.309 122.391 165.066 119.625 168.465 119.617C171.871 119.625 174.637 122.391 174.637 125.789C174.637 129.188 171.871 131.953 168.465 131.961ZM163.496 125.789C163.496 128.531 165.738 130.758 168.465 130.758C171.207 130.758 173.441 128.531 173.449 125.789C173.441 123.047 171.207 120.812 168.465 120.82C165.738 120.812 163.496 123.047 163.496 125.789ZM166.496 127.055H167.559C167.582 127.492 167.988 127.789 168.496 127.789C169.074 127.789 169.496 127.367 169.496 126.789C169.496 126.188 169.066 125.766 168.465 125.758C168.043 125.758 167.746 125.906 167.59 126.227H166.59L166.902 123.07H170.23V123.961H167.793L167.637 125.383H167.699C167.895 125.125 168.301 124.938 168.777 124.93C169.793 124.938 170.543 125.688 170.527 126.758C170.543 127.867 169.707 128.664 168.496 128.664C167.348 128.664 166.52 127.984 166.496 127.055Z" fill="#EE7439"/>
<path d="M187.784 99.2812C184.386 99.2734 181.628 96.5078 181.628 93.1094C181.628 89.7109 184.386 86.9453 187.784 86.9375C191.19 86.9453 193.956 89.7109 193.956 93.1094C193.956 96.5078 191.19 99.2734 187.784 99.2812ZM182.815 93.1094C182.815 95.8516 185.058 98.0781 187.784 98.0781C190.526 98.0781 192.761 95.8516 192.769 93.1094C192.761 90.3672 190.526 88.1328 187.784 88.1406C185.058 88.1328 182.815 90.3672 182.815 93.1094ZM185.815 94.375H186.878C186.901 94.8125 187.308 95.1094 187.815 95.1094C188.394 95.1094 188.815 94.6875 188.815 94.1094C188.815 93.5078 188.386 93.0859 187.784 93.0781C187.362 93.0781 187.065 93.2266 186.909 93.5469H185.909L186.222 90.3906H189.55V91.2812H187.112L186.956 92.7031H187.019C187.214 92.4453 187.62 92.2578 188.097 92.25C189.112 92.2578 189.862 93.0078 189.847 94.0781C189.862 95.1875 189.026 95.9844 187.815 95.9844C186.667 95.9844 185.839 95.3047 185.815 94.375Z" fill="#EE7439"/>
<path d="M180.354 164.641C176.955 164.633 174.197 161.867 174.197 158.469C174.197 155.07 176.955 152.305 180.354 152.297C183.76 152.305 186.525 155.07 186.525 158.469C186.525 161.867 183.76 164.633 180.354 164.641ZM175.385 158.469C175.385 161.211 177.627 163.438 180.354 163.438C183.096 163.438 185.33 161.211 185.338 158.469C185.33 155.727 183.096 153.492 180.354 153.5C177.627 153.492 175.385 155.727 175.385 158.469ZM178.932 157.562V156.594L180.307 155.719H181.322V161.234H180.229V156.75H180.182L178.932 157.562Z" fill="#EE7439"/>
<path d="M275.463 231.492C272.064 231.484 269.307 228.719 269.307 225.32C269.307 221.922 272.064 219.156 275.463 219.148C278.869 219.156 281.635 221.922 281.635 225.32C281.635 228.719 278.869 231.484 275.463 231.492ZM270.494 225.32C270.494 228.062 272.736 230.289 275.463 230.289C278.205 230.289 280.439 228.062 280.447 225.32C280.439 222.578 278.205 220.344 275.463 220.352C272.736 220.344 270.494 222.578 270.494 225.32ZM274.041 224.414V223.445L275.416 222.57H276.432V228.086H275.338V223.602H275.291L274.041 224.414Z" fill="#EE7439"/>
<path d="M330.448 322.117C327.05 322.109 324.292 319.344 324.292 315.945C324.292 312.547 327.05 309.781 330.448 309.773C333.854 309.781 336.62 312.547 336.62 315.945C336.62 319.344 333.854 322.109 330.448 322.117ZM325.479 315.945C325.479 318.688 327.722 320.914 330.448 320.914C333.19 320.914 335.425 318.688 335.433 315.945C335.425 313.203 333.19 310.969 330.448 310.977C327.722 310.969 325.479 313.203 325.479 315.945ZM329.026 315.039V314.07L330.401 313.195H331.417V318.711H330.323V314.227H330.276L329.026 315.039Z" fill="#EE7439"/>
<path d="M391.377 171.102C387.979 171.094 385.221 168.328 385.221 164.93C385.221 161.531 387.979 158.766 391.377 158.758C394.783 158.766 397.549 161.531 397.549 164.93C397.549 168.328 394.783 171.094 391.377 171.102ZM386.408 164.93C386.408 167.672 388.65 169.898 391.377 169.898C394.119 169.898 396.354 167.672 396.361 164.93C396.354 162.188 394.119 159.953 391.377 159.961C388.65 159.953 386.408 162.188 386.408 164.93ZM389.955 164.023V163.055L391.33 162.18H392.346V167.695H391.252V163.211H391.205L389.955 164.023Z" fill="#EE7439"/>
<path d="M430.016 274.578C426.617 274.57 423.859 271.805 423.859 268.406C423.859 265.008 426.617 262.242 430.016 262.234C433.422 262.242 436.188 265.008 436.188 268.406C436.188 271.805 433.422 274.57 430.016 274.578ZM425.047 268.406C425.047 271.148 427.289 273.375 430.016 273.375C432.758 273.375 434.992 271.148 435 268.406C434.992 265.664 432.758 263.43 430.016 263.438C427.289 263.43 425.047 265.664 425.047 268.406ZM428.594 267.5V266.531L429.969 265.656H430.984V271.172H429.891V266.688H429.844L428.594 267.5Z" fill="#EE7439"/>
<path d="M483.514 172.07C480.115 172.062 477.357 169.297 477.357 165.898C477.357 162.5 480.115 159.734 483.514 159.727C486.92 159.734 489.686 162.5 489.686 165.898C489.686 169.297 486.92 172.062 483.514 172.07ZM478.545 165.898C478.545 168.641 480.787 170.867 483.514 170.867C486.256 170.867 488.49 168.641 488.498 165.898C488.49 163.156 486.256 160.922 483.514 160.93C480.787 160.922 478.545 163.156 478.545 165.898ZM482.092 164.992V164.023L483.467 163.148H484.482V168.664H483.389V164.18H483.342L482.092 164.992Z" fill="#EE7439"/>
<path d="M217.506 243.375C214.107 243.367 211.35 240.602 211.35 237.203C211.35 233.805 214.107 231.039 217.506 231.031C220.912 231.039 223.678 233.805 223.678 237.203C223.678 240.602 220.912 243.367 217.506 243.375ZM212.537 237.203C212.537 239.945 214.779 242.172 217.506 242.172C220.248 242.172 222.482 239.945 222.49 237.203C222.482 234.461 220.248 232.227 217.506 232.234C214.779 232.227 212.537 234.461 212.537 237.203ZM216.084 236.297V235.328L217.459 234.453H218.475V239.969H217.381V235.484H217.334L216.084 236.297Z" fill="#EE7439"/>
<path d="M86.7305 225.555C83.332 225.547 80.5742 222.781 80.5742 219.383C80.5742 215.984 83.332 213.219 86.7305 213.211C90.1367 213.219 92.9023 215.984 92.9023 219.383C92.9023 222.781 90.1367 225.547 86.7305 225.555ZM81.7617 219.383C81.7617 222.125 84.0039 224.352 86.7305 224.352C89.4727 224.352 91.707 222.125 91.7148 219.383C91.707 216.641 89.4727 214.406 86.7305 214.414C84.0039 214.406 81.7617 216.641 81.7617 219.383ZM84.7617 220.648H85.8242C85.8477 221.086 86.2539 221.383 86.7617 221.383C87.3398 221.383 87.7617 220.961 87.7617 220.383C87.7617 219.781 87.332 219.359 86.7305 219.352C86.3086 219.352 86.0117 219.5 85.8555 219.82H84.8555L85.168 216.664H88.4961V217.555H86.0586L85.9023 218.977H85.9648C86.1602 218.719 86.5664 218.531 87.043 218.523C88.0586 218.531 88.8086 219.281 88.793 220.352C88.8086 221.461 87.9727 222.258 86.7617 222.258C85.6133 222.258 84.7852 221.578 84.7617 220.648Z" fill="#EE7439"/>
<path d="M132.799 283.492C129.4 283.484 126.643 280.719 126.643 277.32C126.643 273.922 129.4 271.156 132.799 271.148C136.205 271.156 138.971 273.922 138.971 277.32C138.971 280.719 136.205 283.484 132.799 283.492ZM127.83 277.32C127.83 280.062 130.072 282.289 132.799 282.289C135.541 282.289 137.775 280.062 137.783 277.32C137.775 274.578 135.541 272.344 132.799 272.352C130.072 272.344 127.83 274.578 127.83 277.32ZM130.83 278.586H131.893C131.916 279.023 132.322 279.32 132.83 279.32C133.408 279.32 133.83 278.898 133.83 278.32C133.83 277.719 133.4 277.297 132.799 277.289C132.377 277.289 132.08 277.438 131.924 277.758H130.924L131.236 274.602H134.564V275.492H132.127L131.971 276.914H132.033C132.229 276.656 132.635 276.469 133.111 276.461C134.127 276.469 134.877 277.219 134.861 278.289C134.877 279.398 134.041 280.195 132.83 280.195C131.682 280.195 130.854 279.516 130.83 278.586Z" fill="#EE7439"/>
<path d="M297.754 326.57C294.355 326.562 291.598 323.797 291.598 320.398C291.598 317 294.355 314.234 297.754 314.227C301.16 314.234 303.926 317 303.926 320.398C303.926 323.797 301.16 326.562 297.754 326.57ZM292.785 320.398C292.785 323.141 295.027 325.367 297.754 325.367C300.496 325.367 302.73 323.141 302.738 320.398C302.73 317.656 300.496 315.422 297.754 315.43C295.027 315.422 292.785 317.656 292.785 320.398ZM295.785 321.664H296.848C296.871 322.102 297.277 322.398 297.785 322.398C298.363 322.398 298.785 321.977 298.785 321.398C298.785 320.797 298.355 320.375 297.754 320.367C297.332 320.367 297.035 320.516 296.879 320.836H295.879L296.191 317.68H299.52V318.57H297.082L296.926 319.992H296.988C297.184 319.734 297.59 319.547 298.066 319.539C299.082 319.547 299.832 320.297 299.816 321.367C299.832 322.477 298.996 323.273 297.785 323.273C296.637 323.273 295.809 322.594 295.785 321.664Z" fill="#EE7439"/>
<path d="M138.744 329.539C135.346 329.531 132.588 326.766 132.588 323.367C132.588 319.969 135.346 317.203 138.744 317.195C142.15 317.203 144.916 319.969 144.916 323.367C144.916 326.766 142.15 329.531 138.744 329.539ZM133.775 323.367C133.775 326.109 136.018 328.336 138.744 328.336C141.486 328.336 143.721 326.109 143.729 323.367C143.721 320.625 141.486 318.391 138.744 318.398C136.018 318.391 133.775 320.625 133.775 323.367ZM136.775 324.633H137.838C137.861 325.07 138.268 325.367 138.775 325.367C139.354 325.367 139.775 324.945 139.775 324.367C139.775 323.766 139.346 323.344 138.744 323.336C138.322 323.336 138.025 323.484 137.869 323.805H136.869L137.182 320.648H140.51V321.539H138.072L137.916 322.961H137.979C138.174 322.703 138.58 322.516 139.057 322.508C140.072 322.516 140.822 323.266 140.807 324.336C140.822 325.445 139.986 326.242 138.775 326.242C137.627 326.242 136.799 325.562 136.775 324.633Z" fill="#EE7439"/>
<path d="M210.076 317.656C206.678 317.648 203.92 314.883 203.92 311.484C203.92 308.086 206.678 305.32 210.076 305.312C213.482 305.32 216.248 308.086 216.248 311.484C216.248 314.883 213.482 317.648 210.076 317.656ZM205.107 311.484C205.107 314.227 207.35 316.453 210.076 316.453C212.818 316.453 215.053 314.227 215.061 311.484C215.053 308.742 212.818 306.508 210.076 306.516C207.35 306.508 205.107 308.742 205.107 311.484ZM208.107 312.75H209.17C209.193 313.188 209.6 313.484 210.107 313.484C210.686 313.484 211.107 313.062 211.107 312.484C211.107 311.883 210.678 311.461 210.076 311.453C209.654 311.453 209.357 311.602 209.201 311.922H208.201L208.514 308.766H211.842V309.656H209.404L209.248 311.078H209.311C209.506 310.82 209.912 310.633 210.389 310.625C211.404 310.633 212.154 311.383 212.139 312.453C212.154 313.562 211.318 314.359 210.107 314.359C208.959 314.359 208.131 313.68 208.107 312.75Z" fill="#EE7439"/>
<path d="M168.465 268.633C165.066 268.625 162.309 265.859 162.309 262.461C162.309 259.062 165.066 256.297 168.465 256.289C171.871 256.297 174.637 259.062 174.637 262.461C174.637 265.859 171.871 268.625 168.465 268.633ZM163.496 262.461C163.496 265.203 165.738 267.43 168.465 267.43C171.207 267.43 173.441 265.203 173.449 262.461C173.441 259.719 171.207 257.484 168.465 257.492C165.738 257.484 163.496 259.719 163.496 262.461ZM166.496 263.727H167.559C167.582 264.164 167.988 264.461 168.496 264.461C169.074 264.461 169.496 264.039 169.496 263.461C169.496 262.859 169.066 262.438 168.465 262.43C168.043 262.43 167.746 262.578 167.59 262.898H166.59L166.902 259.742H170.23V260.633H167.793L167.637 262.055H167.699C167.895 261.797 168.301 261.609 168.777 261.602C169.793 261.609 170.543 262.359 170.527 263.43C170.543 264.539 169.707 265.336 168.496 265.336C167.348 265.336 166.52 264.656 166.496 263.727Z" fill="#EE7439"/>
<path d="M236.825 198.812C233.427 198.805 230.669 196.039 230.669 192.641C230.669 189.242 233.427 186.477 236.825 186.469C240.231 186.477 242.997 189.242 242.997 192.641C242.997 196.039 240.231 198.805 236.825 198.812ZM231.856 192.641C231.856 195.383 234.099 197.609 236.825 197.609C239.567 197.609 241.802 195.383 241.81 192.641C241.802 189.898 239.567 187.664 236.825 187.672C234.099 187.664 231.856 189.898 231.856 192.641ZM234.856 193.906H235.919C235.942 194.344 236.349 194.641 236.856 194.641C237.435 194.641 237.856 194.219 237.856 193.641C237.856 193.039 237.427 192.617 236.825 192.609C236.403 192.609 236.106 192.758 235.95 193.078H234.95L235.263 189.922H238.591V190.812H236.153L235.997 192.234H236.06C236.255 191.977 236.661 191.789 237.138 191.781C238.153 191.789 238.903 192.539 238.888 193.609C238.903 194.719 238.067 195.516 236.856 195.516C235.708 195.516 234.88 194.836 234.856 193.906Z" fill="#EE7439"/>
<path d="M343.822 341.422C340.424 341.414 337.666 338.648 337.666 335.25C337.666 331.852 340.424 329.086 343.822 329.078C347.229 329.086 349.994 331.852 349.994 335.25C349.994 338.648 347.229 341.414 343.822 341.422ZM338.854 335.25C338.854 337.992 341.096 340.219 343.822 340.219C346.564 340.219 348.799 337.992 348.807 335.25C348.799 332.508 346.564 330.273 343.822 330.281C341.096 330.273 338.854 332.508 338.854 335.25ZM341.854 336.516H342.916C342.939 336.953 343.346 337.25 343.854 337.25C344.432 337.25 344.854 336.828 344.854 336.25C344.854 335.648 344.424 335.227 343.822 335.219C343.4 335.219 343.104 335.367 342.947 335.688H341.947L342.26 332.531H345.588V333.422H343.15L342.994 334.844H343.057C343.252 334.586 343.658 334.398 344.135 334.391C345.15 334.398 345.9 335.148 345.885 336.219C345.9 337.328 345.064 338.125 343.854 338.125C342.705 338.125 341.877 337.445 341.854 336.516Z" fill="#EE7439"/>
<path d="M287.352 179.5C283.953 179.492 281.195 176.727 281.195 173.328C281.195 169.93 283.953 167.164 287.352 167.156C290.758 167.164 293.523 169.93 293.523 173.328C293.523 176.727 290.758 179.492 287.352 179.5ZM282.383 173.328C282.383 176.07 284.625 178.297 287.352 178.297C290.094 178.297 292.328 176.07 292.336 173.328C292.328 170.586 290.094 168.352 287.352 168.359C284.625 168.352 282.383 170.586 282.383 173.328ZM285.383 174.594H286.445C286.469 175.031 286.875 175.328 287.383 175.328C287.961 175.328 288.383 174.906 288.383 174.328C288.383 173.727 287.953 173.305 287.352 173.297C286.93 173.297 286.633 173.445 286.477 173.766H285.477L285.789 170.609H289.117V171.5H286.68L286.523 172.922H286.586C286.781 172.664 287.188 172.477 287.664 172.469C288.68 172.477 289.43 173.227 289.414 174.297C289.43 175.406 288.594 176.203 287.383 176.203C286.234 176.203 285.406 175.523 285.383 174.594Z" fill="#EE7439"/>
<path d="M248.714 142.359C245.315 142.352 242.558 139.586 242.558 136.188C242.558 132.789 245.315 130.023 248.714 130.016C252.12 130.023 254.886 132.789 254.886 136.188C254.886 139.586 252.12 142.352 248.714 142.359ZM243.745 136.188C243.745 138.93 245.987 141.156 248.714 141.156C251.456 141.156 253.69 138.93 253.698 136.188C253.69 133.445 251.456 131.211 248.714 131.219C245.987 131.211 243.745 133.445 243.745 136.188ZM246.745 137.453H247.808C247.831 137.891 248.237 138.188 248.745 138.188C249.323 138.188 249.745 137.766 249.745 137.188C249.745 136.586 249.315 136.164 248.714 136.156C248.292 136.156 247.995 136.305 247.839 136.625H246.839L247.151 133.469H250.479V134.359H248.042L247.886 135.781H247.948C248.144 135.523 248.55 135.336 249.026 135.328C250.042 135.336 250.792 136.086 250.776 137.156C250.792 138.266 249.956 139.062 248.745 139.062C247.597 139.062 246.769 138.383 246.745 137.453Z" fill="#EE7439"/>
<path d="M379.488 133.445C376.09 133.438 373.332 130.672 373.332 127.273C373.332 123.875 376.09 121.109 379.488 121.102C382.895 121.109 385.66 123.875 385.66 127.273C385.66 130.672 382.895 133.438 379.488 133.445ZM374.52 127.273C374.52 130.016 376.762 132.242 379.488 132.242C382.23 132.242 384.465 130.016 384.473 127.273C384.465 124.531 382.23 122.297 379.488 122.305C376.762 122.297 374.52 124.531 374.52 127.273ZM377.52 128.539H378.582C378.605 128.977 379.012 129.273 379.52 129.273C380.098 129.273 380.52 128.852 380.52 128.273C380.52 127.672 380.09 127.25 379.488 127.242C379.066 127.242 378.77 127.391 378.613 127.711H377.613L377.926 124.555H381.254V125.445H378.816L378.66 126.867H378.723C378.918 126.609 379.324 126.422 379.801 126.414C380.816 126.422 381.566 127.172 381.551 128.242C381.566 129.352 380.73 130.148 379.52 130.148C378.371 130.148 377.543 129.469 377.52 128.539Z" fill="#EE7439"/>
<path d="M450.82 133.445C447.422 133.438 444.664 130.672 444.664 127.273C444.664 123.875 447.422 121.109 450.82 121.102C454.227 121.109 456.992 123.875 456.992 127.273C456.992 130.672 454.227 133.438 450.82 133.445ZM445.852 127.273C445.852 130.016 448.094 132.242 450.82 132.242C453.562 132.242 455.797 130.016 455.805 127.273C455.797 124.531 453.562 122.297 450.82 122.305C448.094 122.297 445.852 124.531 445.852 127.273ZM448.852 128.539H449.914C449.938 128.977 450.344 129.273 450.852 129.273C451.43 129.273 451.852 128.852 451.852 128.273C451.852 127.672 451.422 127.25 450.82 127.242C450.398 127.242 450.102 127.391 449.945 127.711H448.945L449.258 124.555H452.586V125.445H450.148L449.992 126.867H450.055C450.25 126.609 450.656 126.422 451.133 126.414C452.148 126.422 452.898 127.172 452.883 128.242C452.898 129.352 452.062 130.148 450.852 130.148C449.703 130.148 448.875 129.469 448.852 128.539Z" fill="#EE7439"/>
<path d="M434.474 332.516C431.075 332.508 428.317 329.742 428.317 326.344C428.317 322.945 431.075 320.18 434.474 320.172C437.88 320.18 440.646 322.945 440.646 326.344C440.646 329.742 437.88 332.508 434.474 332.516ZM429.505 326.344C429.505 329.086 431.747 331.312 434.474 331.312C437.216 331.312 439.45 329.086 439.458 326.344C439.45 323.602 437.216 321.367 434.474 321.375C431.747 321.367 429.505 323.602 429.505 326.344ZM432.505 327.609H433.567C433.591 328.047 433.997 328.344 434.505 328.344C435.083 328.344 435.505 327.922 435.505 327.344C435.505 326.742 435.075 326.32 434.474 326.312C434.052 326.312 433.755 326.461 433.599 326.781H432.599L432.911 323.625H436.239V324.516H433.802L433.646 325.938H433.708C433.903 325.68 434.31 325.492 434.786 325.484C435.802 325.492 436.552 326.242 436.536 327.312C436.552 328.422 435.716 329.219 434.505 329.219C433.356 329.219 432.528 328.539 432.505 327.609Z" fill="#EE7439"/>
<path d="M544.443 255.266C541.045 255.258 538.287 252.492 538.287 249.094C538.287 245.695 541.045 242.93 544.443 242.922C547.85 242.93 550.615 245.695 550.615 249.094C550.615 252.492 547.85 255.258 544.443 255.266ZM539.475 249.094C539.475 251.836 541.717 254.062 544.443 254.062C547.186 254.062 549.42 251.836 549.428 249.094C549.42 246.352 547.186 244.117 544.443 244.125C541.717 244.117 539.475 246.352 539.475 249.094ZM542.475 250.359H543.537C543.561 250.797 543.967 251.094 544.475 251.094C545.053 251.094 545.475 250.672 545.475 250.094C545.475 249.492 545.045 249.07 544.443 249.062C544.021 249.062 543.725 249.211 543.568 249.531H542.568L542.881 246.375H546.209V247.266H543.771L543.615 248.688H543.678C543.873 248.43 544.279 248.242 544.756 248.234C545.771 248.242 546.521 248.992 546.506 250.062C546.521 251.172 545.686 251.969 544.475 251.969C543.326 251.969 542.498 251.289 542.475 250.359Z" fill="#EE7439"/>
<path d="M531.068 197.328C527.67 197.32 524.912 194.555 524.912 191.156C524.912 187.758 527.67 184.992 531.068 184.984C534.475 184.992 537.24 187.758 537.24 191.156C537.24 194.555 534.475 197.32 531.068 197.328ZM526.1 191.156C526.1 193.898 528.342 196.125 531.068 196.125C533.811 196.125 536.045 193.898 536.053 191.156C536.045 188.414 533.811 186.18 531.068 186.188C528.342 186.18 526.1 188.414 526.1 191.156ZM529.1 192.422H530.162C530.186 192.859 530.592 193.156 531.1 193.156C531.678 193.156 532.1 192.734 532.1 192.156C532.1 191.555 531.67 191.133 531.068 191.125C530.646 191.125 530.35 191.273 530.193 191.594H529.193L529.506 188.438H532.834V189.328H530.396L530.24 190.75H530.303C530.498 190.492 530.904 190.305 531.381 190.297C532.396 190.305 533.146 191.055 533.131 192.125C533.146 193.234 532.311 194.031 531.1 194.031C529.951 194.031 529.123 193.352 529.1 192.422Z" fill="#EE7439"/>
<path d="M531.068 72.5391C527.67 72.5312 524.912 69.7656 524.912 66.3672C524.912 62.9688 527.67 60.2031 531.068 60.1953C534.475 60.2031 537.24 62.9688 537.24 66.3672C537.24 69.7656 534.475 72.5312 531.068 72.5391ZM526.1 66.3672C526.1 69.1094 528.342 71.3359 531.068 71.3359C533.811 71.3359 536.045 69.1094 536.053 66.3672C536.045 63.625 533.811 61.3906 531.068 61.3984C528.342 61.3906 526.1 63.625 526.1 66.3672ZM529.1 67.6328H530.162C530.186 68.0703 530.592 68.3672 531.1 68.3672C531.678 68.3672 532.1 67.9453 532.1 67.3672C532.1 66.7656 531.67 66.3438 531.068 66.3359C530.646 66.3359 530.35 66.4844 530.193 66.8047H529.193L529.506 63.6484H532.834V64.5391H530.396L530.24 65.9609H530.303C530.498 65.7031 530.904 65.5156 531.381 65.5078C532.396 65.5156 533.146 66.2656 533.131 67.3359C533.146 68.4453 532.311 69.2422 531.1 69.2422C529.951 69.2422 529.123 68.5625 529.1 67.6328Z" fill="#EE7439"/>
<path d="M535.527 154.273C532.129 154.266 529.371 151.5 529.371 148.102C529.371 144.703 532.129 141.938 535.527 141.93C538.934 141.938 541.699 144.703 541.699 148.102C541.699 151.5 538.934 154.266 535.527 154.273ZM530.559 148.102C530.559 150.844 532.801 153.07 535.527 153.07C538.27 153.07 540.504 150.844 540.512 148.102C540.504 145.359 538.27 143.125 535.527 143.133C532.801 143.125 530.559 145.359 530.559 148.102ZM533.559 149.367H534.621C534.645 149.805 535.051 150.102 535.559 150.102C536.137 150.102 536.559 149.68 536.559 149.102C536.559 148.5 536.129 148.078 535.527 148.07C535.105 148.07 534.809 148.219 534.652 148.539H533.652L533.965 145.383H537.293V146.273H534.855L534.699 147.695H534.762C534.957 147.438 535.363 147.25 535.84 147.242C536.855 147.25 537.605 148 537.59 149.07C537.605 150.18 536.77 150.977 535.559 150.977C534.41 150.977 533.582 150.297 533.559 149.367Z" fill="#EE7439"/>
<path d="M437.445 72.5391C434.047 72.5312 431.289 69.7656 431.289 66.3672C431.289 62.9688 434.047 60.2031 437.445 60.1953C440.852 60.2031 443.617 62.9688 443.617 66.3672C443.617 69.7656 440.852 72.5312 437.445 72.5391ZM432.477 66.3672C432.477 69.1094 434.719 71.3359 437.445 71.3359C440.188 71.3359 442.422 69.1094 442.43 66.3672C442.422 63.625 440.188 61.3906 437.445 61.3984C434.719 61.3906 432.477 63.625 432.477 66.3672ZM435.477 67.6328H436.539C436.562 68.0703 436.969 68.3672 437.477 68.3672C438.055 68.3672 438.477 67.9453 438.477 67.3672C438.477 66.7656 438.047 66.3438 437.445 66.3359C437.023 66.3359 436.727 66.4844 436.57 66.8047H435.57L435.883 63.6484H439.211V64.5391H436.773L436.617 65.9609H436.68C436.875 65.7031 437.281 65.5156 437.758 65.5078C438.773 65.5156 439.523 66.2656 439.508 67.3359C439.523 68.4453 438.688 69.2422 437.477 69.2422C436.328 69.2422 435.5 68.5625 435.477 67.6328Z" fill="#EE7439"/>
<path d="M379.488 75.5078C376.09 75.5 373.332 72.7344 373.332 69.3359C373.332 65.9375 376.09 63.1719 379.488 63.1641C382.895 63.1719 385.66 65.9375 385.66 69.3359C385.66 72.7344 382.895 75.5 379.488 75.5078ZM374.52 69.3359C374.52 72.0781 376.762 74.3047 379.488 74.3047C382.23 74.3047 384.465 72.0781 384.473 69.3359C384.465 66.5938 382.23 64.3594 379.488 64.3672C376.762 64.3594 374.52 66.5938 374.52 69.3359ZM377.52 70.6016H378.582C378.605 71.0391 379.012 71.3359 379.52 71.3359C380.098 71.3359 380.52 70.9141 380.52 70.3359C380.52 69.7344 380.09 69.3125 379.488 69.3047C379.066 69.3047 378.77 69.4531 378.613 69.7734H377.613L377.926 66.6172H381.254V67.5078H378.816L378.66 68.9297H378.723C378.918 68.6719 379.324 68.4844 379.801 68.4766C380.816 68.4844 381.566 69.2344 381.551 70.3047C381.566 71.4141 380.73 72.2109 379.52 72.2109C378.371 72.2109 377.543 71.5312 377.52 70.6016Z" fill="#EE7439"/>
<path d="M227.908 87.3906C224.51 87.3828 221.752 84.6172 221.752 81.2188C221.752 77.8203 224.51 75.0547 227.908 75.0469C231.314 75.0547 234.08 77.8203 234.08 81.2188C234.08 84.6172 231.314 87.3828 227.908 87.3906ZM222.939 81.2188C222.939 83.9609 225.182 86.1875 227.908 86.1875C230.65 86.1875 232.885 83.9609 232.893 81.2188C232.885 78.4766 230.65 76.2422 227.908 76.25C225.182 76.2422 222.939 78.4766 222.939 81.2188ZM225.939 82.4844H227.002C227.025 82.9219 227.432 83.2188 227.939 83.2188C228.518 83.2188 228.939 82.7969 228.939 82.2188C228.939 81.6172 228.51 81.1953 227.908 81.1875C227.486 81.1875 227.189 81.3359 227.033 81.6562H226.033L226.346 78.5H229.674V79.3906H227.236L227.08 80.8125H227.143C227.338 80.5547 227.744 80.3672 228.221 80.3594C229.236 80.3672 229.986 81.1172 229.971 82.1875C229.986 83.2969 229.15 84.0938 227.939 84.0938C226.791 84.0938 225.963 83.4141 225.939 82.4844Z" fill="#EE7439"/>
<path d="M272.49 57.6797C269.092 57.6719 266.334 54.9062 266.334 51.5078C266.334 48.1094 269.092 45.3438 272.49 45.3359C275.896 45.3438 278.662 48.1094 278.662 51.5078C278.662 54.9062 275.896 57.6719 272.49 57.6797ZM267.521 51.5078C267.521 54.25 269.764 56.4766 272.49 56.4766C275.232 56.4766 277.467 54.25 277.475 51.5078C277.467 48.7656 275.232 46.5312 272.49 46.5391C269.764 46.5312 267.521 48.7656 267.521 51.5078ZM270.521 52.7734H271.584C271.607 53.2109 272.014 53.5078 272.521 53.5078C273.1 53.5078 273.521 53.0859 273.521 52.5078C273.521 51.9062 273.092 51.4844 272.49 51.4766C272.068 51.4766 271.771 51.625 271.615 51.9453H270.615L270.928 48.7891H274.256V49.6797H271.818L271.662 51.1016H271.725C271.92 50.8438 272.326 50.6562 272.803 50.6484C273.818 50.6562 274.568 51.4062 274.553 52.4766C274.568 53.5859 273.732 54.3828 272.521 54.3828C271.373 54.3828 270.545 53.7031 270.521 52.7734Z" fill="#EE7439"/>
<path d="M273.977 88.8828C270.578 88.875 267.82 86.1094 267.82 82.7109C267.82 79.3125 270.578 76.5469 273.977 76.5391C277.383 76.5469 280.148 79.3125 280.148 82.7109C280.148 86.1094 277.383 88.875 273.977 88.8828ZM269.008 82.7109C269.008 85.4531 271.25 87.6797 273.977 87.6797C276.719 87.6797 278.953 85.4531 278.961 82.7109C278.953 79.9688 276.719 77.7344 273.977 77.7422C271.25 77.7344 269.008 79.9688 269.008 82.7109ZM272.008 83.9766H273.07C273.094 84.4141 273.5 84.7109 274.008 84.7109C274.586 84.7109 275.008 84.2891 275.008 83.7109C275.008 83.1094 274.578 82.6875 273.977 82.6797C273.555 82.6797 273.258 82.8281 273.102 83.1484H272.102L272.414 79.9922H275.742V80.8828H273.305L273.148 82.3047H273.211C273.406 82.0469 273.812 81.8594 274.289 81.8516C275.305 81.8594 276.055 82.6094 276.039 83.6797C276.055 84.7891 275.219 85.5859 274.008 85.5859C272.859 85.5859 272.031 84.9062 272.008 83.9766Z" fill="#EE7439"/>
<path d="M321.531 59.1641C318.133 59.1562 315.375 56.3906 315.375 52.9922C315.375 49.5938 318.133 46.8281 321.531 46.8203C324.938 46.8281 327.703 49.5938 327.703 52.9922C327.703 56.3906 324.938 59.1562 321.531 59.1641ZM316.562 52.9922C316.562 55.7344 318.805 57.9609 321.531 57.9609C324.273 57.9609 326.508 55.7344 326.516 52.9922C326.508 50.25 324.273 48.0156 321.531 48.0234C318.805 48.0156 316.562 50.25 316.562 52.9922ZM319.562 54.2578H320.625C320.648 54.6953 321.055 54.9922 321.562 54.9922C322.141 54.9922 322.562 54.5703 322.562 53.9922C322.562 53.3906 322.133 52.9688 321.531 52.9609C321.109 52.9609 320.812 53.1094 320.656 53.4297H319.656L319.969 50.2734H323.297V51.1641H320.859L320.703 52.5859H320.766C320.961 52.3281 321.367 52.1406 321.844 52.1328C322.859 52.1406 323.609 52.8906 323.594 53.9609C323.609 55.0703 322.773 55.8672 321.562 55.8672C320.414 55.8672 319.586 55.1875 319.562 54.2578Z" fill="#EE7439"/>
<path d="M140.23 186.93C136.832 186.922 134.074 184.156 134.074 180.758C134.074 177.359 136.832 174.594 140.23 174.586C143.637 174.594 146.402 177.359 146.402 180.758C146.402 184.156 143.637 186.922 140.23 186.93ZM135.262 180.758C135.262 183.5 137.504 185.727 140.23 185.727C142.973 185.727 145.207 183.5 145.215 180.758C145.207 178.016 142.973 175.781 140.23 175.789C137.504 175.781 135.262 178.016 135.262 180.758ZM138.262 179.633C138.254 178.57 139.059 177.883 140.199 177.883C141.348 177.883 142.129 178.555 142.137 179.492C142.129 180.125 141.824 180.633 140.699 181.664L139.824 182.539V182.586H142.215V183.477H138.309V182.695L140.277 180.836C140.809 180.328 141.082 180.016 141.09 179.57C141.082 179.062 140.699 178.758 140.184 178.758C139.645 178.758 139.301 179.086 139.309 179.633H138.262Z" fill="#EE7439"/>
<path d="M204.131 222.578C200.732 222.57 197.975 219.805 197.975 216.406C197.975 213.008 200.732 210.242 204.131 210.234C207.537 210.242 210.303 213.008 210.303 216.406C210.303 219.805 207.537 222.57 204.131 222.578ZM199.162 216.406C199.162 219.148 201.404 221.375 204.131 221.375C206.873 221.375 209.107 219.148 209.115 216.406C209.107 213.664 206.873 211.43 204.131 211.438C201.404 211.43 199.162 213.664 199.162 216.406ZM202.162 215.281C202.154 214.219 202.959 213.531 204.1 213.531C205.248 213.531 206.029 214.203 206.037 215.141C206.029 215.773 205.725 216.281 204.6 217.312L203.725 218.188V218.234H206.115V219.125H202.209V218.344L204.178 216.484C204.709 215.977 204.982 215.664 204.99 215.219C204.982 214.711 204.6 214.406 204.084 214.406C203.545 214.406 203.201 214.734 203.209 215.281H202.162Z" fill="#EE7439"/>
<path d="M441.904 180.984C438.506 180.977 435.748 178.211 435.748 174.812C435.748 171.414 438.506 168.648 441.904 168.641C445.311 168.648 448.076 171.414 448.076 174.812C448.076 178.211 445.311 180.977 441.904 180.984ZM436.936 174.812C436.936 177.555 439.178 179.781 441.904 179.781C444.646 179.781 446.881 177.555 446.889 174.812C446.881 172.07 444.646 169.836 441.904 169.844C439.178 169.836 436.936 172.07 436.936 174.812ZM439.936 173.688C439.928 172.625 440.732 171.938 441.873 171.938C443.021 171.938 443.803 172.609 443.811 173.547C443.803 174.18 443.498 174.688 442.373 175.719L441.498 176.594V176.641H443.889V177.531H439.982V176.75L441.951 174.891C442.482 174.383 442.756 174.07 442.764 173.625C442.756 173.117 442.373 172.812 441.857 172.812C441.318 172.812 440.975 173.141 440.982 173.688H439.936Z" fill="#EE7439"/>
<path d="M498.375 213.664C494.977 213.656 492.219 210.891 492.219 207.492C492.219 204.094 494.977 201.328 498.375 201.32C501.781 201.328 504.547 204.094 504.547 207.492C504.547 210.891 501.781 213.656 498.375 213.664ZM493.406 207.492C493.406 210.234 495.648 212.461 498.375 212.461C501.117 212.461 503.352 210.234 503.359 207.492C503.352 204.75 501.117 202.516 498.375 202.523C495.648 202.516 493.406 204.75 493.406 207.492ZM496.406 206.367C496.398 205.305 497.203 204.617 498.344 204.617C499.492 204.617 500.273 205.289 500.281 206.227C500.273 206.859 499.969 207.367 498.844 208.398L497.969 209.273V209.32H500.359V210.211H496.453V209.43L498.422 207.57C498.953 207.062 499.227 206.75 499.234 206.305C499.227 205.797 498.844 205.492 498.328 205.492C497.789 205.492 497.445 205.82 497.453 206.367H496.406Z" fill="#EE7439"/>
<path d="M391.377 296.859C387.979 296.852 385.221 294.086 385.221 290.688C385.221 287.289 387.979 284.523 391.377 284.516C394.783 284.523 397.549 287.289 397.549 290.688C397.549 294.086 394.783 296.852 391.377 296.859ZM386.408 290.688C386.408 293.43 388.65 295.656 391.377 295.656C394.119 295.656 396.354 293.43 396.361 290.688C396.354 287.945 394.119 285.711 391.377 285.719C388.65 285.711 386.408 287.945 386.408 290.688ZM389.408 289.562C389.4 288.5 390.205 287.812 391.346 287.812C392.494 287.812 393.275 288.484 393.283 289.422C393.275 290.055 392.971 290.562 391.846 291.594L390.971 292.469V292.516H393.361V293.406H389.455V292.625L391.424 290.766C391.955 290.258 392.229 289.945 392.236 289.5C392.229 288.992 391.846 288.688 391.33 288.688C390.791 288.688 390.447 289.016 390.455 289.562H389.408Z" fill="#EE7439"/>
<path d="M409.211 210.695C405.812 210.688 403.055 207.922 403.055 204.523C403.055 201.125 405.812 198.359 409.211 198.352C412.617 198.359 415.383 201.125 415.383 204.523C415.383 207.922 412.617 210.688 409.211 210.695ZM404.242 204.523C404.242 207.266 406.484 209.492 409.211 209.492C411.953 209.492 414.188 207.266 414.195 204.523C414.188 201.781 411.953 199.547 409.211 199.555C406.484 199.547 404.242 201.781 404.242 204.523ZM407.242 203.398C407.234 202.336 408.039 201.648 409.18 201.648C410.328 201.648 411.109 202.32 411.117 203.258C411.109 203.891 410.805 204.398 409.68 205.43L408.805 206.305V206.352H411.195V207.242H407.289V206.461L409.258 204.602C409.789 204.094 410.062 203.781 410.07 203.336C410.062 202.828 409.68 202.523 409.164 202.523C408.625 202.523 408.281 202.852 408.289 203.398H407.242Z" fill="#EE7439"/>
<path d="M372.059 240.406C368.66 240.398 365.902 237.633 365.902 234.234C365.902 230.836 368.66 228.07 372.059 228.062C375.465 228.07 378.23 230.836 378.23 234.234C378.23 237.633 375.465 240.398 372.059 240.406ZM367.09 234.234C367.09 236.977 369.332 239.203 372.059 239.203C374.801 239.203 377.035 236.977 377.043 234.234C377.035 231.492 374.801 229.258 372.059 229.266C369.332 229.258 367.09 231.492 367.09 234.234ZM370.09 233.109C370.082 232.047 370.887 231.359 372.027 231.359C373.176 231.359 373.957 232.031 373.965 232.969C373.957 233.602 373.652 234.109 372.527 235.141L371.652 236.016V236.062H374.043V236.953H370.137V236.172L372.105 234.312C372.637 233.805 372.91 233.492 372.918 233.047C372.91 232.539 372.527 232.234 372.012 232.234C371.473 232.234 371.129 232.562 371.137 233.109H370.09Z" fill="#EE7439"/>
<path d="M328.962 231.492C325.563 231.484 322.806 228.719 322.806 225.32C322.806 221.922 325.563 219.156 328.962 219.148C332.368 219.156 335.134 221.922 335.134 225.32C335.134 228.719 332.368 231.484 328.962 231.492ZM323.993 225.32C323.993 228.062 326.235 230.289 328.962 230.289C331.704 230.289 333.938 228.062 333.946 225.32C333.938 222.578 331.704 220.344 328.962 220.352C326.235 220.344 323.993 222.578 323.993 225.32ZM326.993 224.195C326.985 223.133 327.79 222.445 328.931 222.445C330.079 222.445 330.86 223.117 330.868 224.055C330.86 224.688 330.556 225.195 329.431 226.227L328.556 227.102V227.148H330.946V228.039H327.04V227.258L329.009 225.398C329.54 224.891 329.813 224.578 329.821 224.133C329.813 223.625 329.431 223.32 328.915 223.32C328.376 223.32 328.032 223.648 328.04 224.195H326.993Z" fill="#EE7439"/>
</svg>
