<svg width="410" height="405" viewBox="0 0 410 405" fill="none" xmlns="http://www.w3.org/2000/svg">
<path d="M67 26H402.5" stroke="#D2D2D2" stroke-width="10" stroke-linecap="round"/>
<path d="M378.5 5L404.5 26.5L378.5 48" stroke="#D2D2D2" stroke-width="10" stroke-linecap="round" stroke-linejoin="round"/>
<circle cx="236.5" cy="26" r="19.5" fill="white" stroke="#D2D2D2" stroke-width="5"/>
<path d="M228.984 31.125L234.172 25.9688L228.984 20.8125L231.859 17.9375L237.016 23.0938L242.172 17.9375L245.047 20.8125L239.859 25.9688L245.047 31.125L242.172 33.9688L237.016 28.8125L231.859 33.9688L228.984 31.125Z" fill="black"/>
<path d="M27 62L27 397.5" stroke="#D2D2D2" stroke-width="10" stroke-linecap="round"/>
<path d="M48 373.5L26.5 399.5L5 373.5" stroke="#D2D2D2" stroke-width="10" stroke-linecap="round" stroke-linejoin="round"/>
<circle cx="27" cy="231.5" r="19.5" transform="rotate(90 27 231.5)" fill="white" stroke="#D2D2D2" stroke-width="5"/>
<path d="M19.0312 226.859L21.875 223.984L27.0312 229.172L32.1875 223.984L35.0625 226.859L29.9062 232.016L35.0625 237.172L32.1875 240.047L27.0312 234.859L21.875 240.047L19.0312 237.172L24.1875 232.016L19.0312 226.859Z" fill="black"/>
</svg>
