<svg width="1141" height="200" viewBox="0 0 1141 200" fill="none" xmlns="http://www.w3.org/2000/svg">
<mask id="mask0_471_3631" style="mask-type:alpha" maskUnits="userSpaceOnUse" x="0" y="0" width="1141" height="200">
<path d="M1140.5 0H0.5V200H1140.5V0Z" fill="black"/>
</mask>
<g mask="url(#mask0_471_3631)">
<path d="M187.319 8.75H26.1641V77.8085H187.319V8.75Z" fill="#CCE2F5"/>
<path d="M187.319 8.75H26.1641V77.8085H187.319V8.75Z" stroke="#58595B" stroke-width="1.35356" stroke-miterlimit="10"/>
<path d="M26.1914 115.84H294.764" stroke="#231F20" stroke-width="2.70711"/>
<path d="M26.1914 102.145V128.999" stroke="#231F20" stroke-width="1.35356"/>
<path d="M79.9004 102.145V128.999" stroke="#231F20" stroke-width="1.35356"/>
<path d="M133.609 102.145V128.999" stroke="#231F20" stroke-width="1.35356"/>
<path d="M187.318 102.145V128.999" stroke="#231F20" stroke-width="1.35356"/>
<path d="M294.764 102.145V128.999" stroke="#231F20" stroke-width="1.35356"/>
<path d="M360.141 104.126L372.702 90.5365L360.141 76.8926" stroke="#6B9BD2" stroke-width="6.76779" stroke-linecap="round" stroke-linejoin="round"/>
<path d="M343.979 90.502H364.634" stroke="#6B9BD2" stroke-width="13.5356" stroke-linecap="round"/>
<path d="M241.055 102.145V128.999" stroke="#231F20" stroke-width="1.35356"/>
<path d="M471.268 8.75H417.559V77.8085H471.268V8.75Z" fill="#CCE2F5"/>
<path d="M524.979 77.8085V8.75" stroke="#231F20" stroke-width="0.812134" stroke-miterlimit="10" stroke-dasharray="4.06 2.98"/>
<path d="M470.916 8.75H578.686V77.8085H470.916" stroke="#58595B" stroke-width="1.35356" stroke-miterlimit="10" stroke-dasharray="4.06 2.98"/>
<path d="M471.24 8.75H417.531V77.8085H471.24V8.75Z" stroke="#58595B" stroke-width="1.35356" stroke-miterlimit="10"/>
<path d="M417.559 115.84H686.131" stroke="#231F20" stroke-width="2.70711"/>
<path d="M417.559 102.145V128.999" stroke="#231F20" stroke-width="1.35356"/>
<path d="M471.268 102.145V128.999" stroke="#231F20" stroke-width="1.35356"/>
<path d="M524.979 102.145V128.999" stroke="#231F20" stroke-width="1.35356"/>
<path d="M578.686 102.145V128.999" stroke="#231F20" stroke-width="1.35356"/>
<path d="M686.131 102.145V128.999" stroke="#231F20" stroke-width="1.35356"/>
<path d="M632.422 102.145V128.999" stroke="#231F20" stroke-width="1.35356"/>
<path d="M751.508 104.126L764.069 90.5365L751.508 76.8926" stroke="#6B9BD2" stroke-width="6.76779" stroke-linecap="round" stroke-linejoin="round"/>
<path d="M735.348 90.502H756.003" stroke="#6B9BD2" stroke-width="13.5356" stroke-linecap="round"/>
<path d="M1077.5 8.75H808.926V77.8085H1077.5V8.75Z" fill="#CCE2F5"/>
<path d="M862.635 77.8085V8.75" stroke="#231F20" stroke-width="0.812134" stroke-miterlimit="10" stroke-dasharray="4.06 2.98"/>
<path d="M916.344 77.8085V8.75" stroke="#231F20" stroke-width="0.812134" stroke-miterlimit="10" stroke-dasharray="4.06 2.98"/>
<path d="M970.053 77.8085V8.75" stroke="#231F20" stroke-width="0.812134" stroke-miterlimit="10" stroke-dasharray="4.06 2.98"/>
<path d="M1023.79 77.8085V8.75" stroke="#231F20" stroke-width="0.812134" stroke-miterlimit="10" stroke-dasharray="4.06 2.98"/>
<path d="M1077.5 8.75H808.926V77.8085H1077.5V8.75Z" stroke="#58595B" stroke-width="1.35356" stroke-miterlimit="10"/>
<path d="M808.926 115.84H1077.5" stroke="#231F20" stroke-width="2.70711"/>
<path d="M808.926 102.145V128.999" stroke="#231F20" stroke-width="1.35356"/>
<path d="M862.635 102.145V128.999" stroke="#231F20" stroke-width="1.35356"/>
<path d="M916.344 102.145V128.999" stroke="#231F20" stroke-width="1.35356"/>
<path d="M970.053 102.145V128.999" stroke="#231F20" stroke-width="1.35356"/>
<path d="M1077.5 102.145V128.999" stroke="#231F20" stroke-width="1.35356"/>
<path d="M1023.79 102.145V128.999" stroke="#231F20" stroke-width="1.35356"/>
</g>
<path d="M25.9219 173.234C21.6797 173.234 19.1016 170.07 19.1016 164.516C19.1016 158.961 21.6797 155.797 25.9219 155.797C30.1641 155.797 32.7422 158.984 32.7422 164.516C32.7422 170.094 30.1641 173.234 25.9219 173.234ZM25.9219 170.328C27.8906 170.328 29.1562 168.43 29.1328 164.516C29.1328 160.648 27.8906 158.68 25.9219 158.68C23.9531 158.68 22.7109 160.648 22.7109 164.516C22.6875 168.43 23.9531 170.328 25.9219 170.328Z" fill="#231F20"/>
<path d="M80.5723 140.445V156H77.3281V143.518H77.2422L73.6758 145.752V142.895L77.5215 140.445H80.5723Z" fill="#222222"/>
<path d="M70.8008 164H84.8008" stroke="#222222" stroke-width="2" stroke-linecap="square"/>
<path d="M77.8438 188.215C74.5996 188.215 72.2256 186.303 72.1719 183.617H75.3086C75.3838 184.831 76.4902 185.669 77.8438 185.658C79.4551 185.669 80.6045 184.53 80.5938 182.908C80.6045 181.254 79.4336 180.104 77.8008 180.094C76.6299 180.094 75.8135 180.534 75.3516 181.404H72.4297L73.2676 172.445H82.8496V175.088H75.9316L75.502 179.02H75.6309C76.2002 178.257 77.3818 177.698 78.7461 177.709C81.6035 177.698 83.7305 179.836 83.7305 182.822C83.7305 185.97 81.3457 188.215 77.8438 188.215Z" fill="#222222"/>
<path d="M127.11 156L127.089 153.658L132.675 148.523C134.125 147.138 134.909 146.278 134.909 145.043C134.909 143.657 133.867 142.798 132.438 142.809C130.978 142.798 130.021 143.722 130.032 145.215H126.96C126.949 142.175 129.205 140.23 132.481 140.23C135.812 140.23 138.024 142.132 138.024 144.828C138.024 146.601 137.165 148.051 133.964 150.951L131.601 153.25V153.336H138.239V156H127.11Z" fill="#222222"/>
<path d="M125.6 164H139.6" stroke="#222222" stroke-width="2" stroke-linecap="square"/>
<path d="M132.643 188.215C129.398 188.215 127.024 186.303 126.971 183.617H130.107C130.183 184.831 131.289 185.669 132.643 185.658C134.254 185.669 135.403 184.53 135.393 182.908C135.403 181.254 134.232 180.104 132.6 180.094C131.429 180.094 130.612 180.534 130.15 181.404H127.229L128.066 172.445H137.648V175.088H130.73L130.301 179.02H130.43C130.999 178.257 132.181 177.698 133.545 177.709C136.402 177.698 138.529 179.836 138.529 182.822C138.529 185.97 136.145 188.215 132.643 188.215Z" fill="#222222"/>
<path d="M187.857 156.215C184.441 156.215 181.992 154.335 181.928 151.617H185.193C185.247 152.777 186.375 153.54 187.879 153.551C189.426 153.54 190.532 152.681 190.521 151.424C190.532 150.156 189.404 149.265 187.578 149.254H186.139V146.869H187.578C189.114 146.869 190.188 146.031 190.178 144.807C190.188 143.614 189.275 142.798 187.9 142.809C186.525 142.798 185.397 143.571 185.344 144.764H182.25C182.304 142.089 184.71 140.23 187.9 140.23C191.145 140.23 193.304 142.153 193.293 144.613C193.304 146.354 192.09 147.589 190.35 147.9V148.029C192.638 148.309 193.895 149.694 193.873 151.639C193.895 154.303 191.37 156.215 187.857 156.215Z" fill="#222222"/>
<path d="M180.4 164H195.4" stroke="#222222" stroke-width="2" stroke-linecap="square"/>
<path d="M187.943 188.215C184.699 188.215 182.325 186.303 182.271 183.617H185.408C185.483 184.831 186.59 185.669 187.943 185.658C189.555 185.669 190.704 184.53 190.693 182.908C190.704 181.254 189.533 180.104 187.9 180.094C186.729 180.094 185.913 180.534 185.451 181.404H182.529L183.367 172.445H192.949V175.088H186.031L185.602 179.02H185.73C186.3 178.257 187.481 177.698 188.846 177.709C191.703 177.698 193.83 179.836 193.83 182.822C193.83 185.97 191.445 188.215 187.943 188.215Z" fill="#222222"/>
<path d="M237.437 153.25V150.693L244.011 140.445H248.071V150.65H250.048V153.25H248.071V156H244.999V153.25H237.437ZM240.702 150.65H245.042V143.99H244.892L240.702 150.521V150.65Z" fill="#222222"/>
<path d="M236.199 164H251.199" stroke="#222222" stroke-width="2" stroke-linecap="square"/>
<path d="M243.742 188.215C240.498 188.215 238.124 186.303 238.07 183.617H241.207C241.282 184.831 242.389 185.669 243.742 185.658C245.354 185.669 246.503 184.53 246.492 182.908C246.503 181.254 245.332 180.104 243.699 180.094C242.528 180.094 241.712 180.534 241.25 181.404H238.328L239.166 172.445H248.748V175.088H241.83L241.4 179.02H241.529C242.099 178.257 243.28 177.698 244.645 177.709C247.502 177.698 249.629 179.836 249.629 182.822C249.629 185.97 247.244 188.215 243.742 188.215Z" fill="#222222"/>
<path d="M296.648 156.031V173H293.109V159.383H293.016L289.125 161.82V158.703L293.32 156.031H296.648Z" fill="#231F20"/>
<path d="M417.922 172.754C413.68 172.754 411.102 169.59 411.102 164.035C411.102 158.48 413.68 155.316 417.922 155.316C422.164 155.316 424.742 158.504 424.742 164.035C424.742 169.613 422.164 172.754 417.922 172.754ZM417.922 169.848C419.891 169.848 421.156 167.949 421.133 164.035C421.133 160.168 419.891 158.199 417.922 158.199C415.953 158.199 414.711 160.168 414.711 164.035C414.688 167.949 415.953 169.848 417.922 169.848Z" fill="#231F20"/>
<path d="M472.771 139.965V155.52H469.527V143.037H469.441L465.875 145.271V142.414L469.721 139.965H472.771Z" fill="#222222"/>
<path d="M463 163.52H477" stroke="#222222" stroke-width="2" stroke-linecap="square"/>
<path d="M470.043 187.734C466.799 187.734 464.425 185.822 464.371 183.137H467.508C467.583 184.351 468.689 185.188 470.043 185.178C471.654 185.188 472.804 184.05 472.793 182.428C472.804 180.773 471.633 179.624 470 179.613C468.829 179.613 468.013 180.054 467.551 180.924H464.629L465.467 171.965H475.049V174.607H468.131L467.701 178.539H467.83C468.399 177.776 469.581 177.218 470.945 177.229C473.803 177.218 475.93 179.355 475.93 182.342C475.93 185.489 473.545 187.734 470.043 187.734Z" fill="#222222"/>
<path d="M519.511 155.52L519.489 153.178L525.075 148.043C526.525 146.657 527.31 145.798 527.31 144.562C527.31 143.177 526.268 142.317 524.839 142.328C523.378 142.317 522.422 143.241 522.433 144.734H519.36C519.35 141.694 521.605 139.75 524.882 139.75C528.212 139.75 530.425 141.651 530.425 144.348C530.425 146.12 529.565 147.57 526.364 150.471L524.001 152.77V152.855H530.64V155.52H519.511Z" fill="#222222"/>
<path d="M518 163.52H532" stroke="#222222" stroke-width="2" stroke-linecap="square"/>
<path d="M525.043 187.734C521.799 187.734 519.425 185.822 519.371 183.137H522.508C522.583 184.351 523.689 185.188 525.043 185.178C526.654 185.188 527.804 184.05 527.793 182.428C527.804 180.773 526.633 179.624 525 179.613C523.829 179.613 523.013 180.054 522.551 180.924H519.629L520.467 171.965H530.049V174.607H523.131L522.701 178.539H522.83C523.399 177.776 524.581 177.218 525.945 177.229C528.803 177.218 530.93 179.355 530.93 182.342C530.93 185.489 528.545 187.734 525.043 187.734Z" fill="#222222"/>
<path d="M580.457 155.734C577.041 155.734 574.592 153.854 574.527 151.137H577.793C577.847 152.297 578.975 153.06 580.479 153.07C582.025 153.06 583.132 152.2 583.121 150.943C583.132 149.676 582.004 148.784 580.178 148.773H578.738V146.389H580.178C581.714 146.389 582.788 145.551 582.777 144.326C582.788 143.134 581.875 142.317 580.5 142.328C579.125 142.317 577.997 143.091 577.943 144.283H574.85C574.903 141.608 577.31 139.75 580.5 139.75C583.744 139.75 585.903 141.673 585.893 144.133C585.903 145.873 584.689 147.108 582.949 147.42V147.549C585.237 147.828 586.494 149.214 586.473 151.158C586.494 153.822 583.97 155.734 580.457 155.734Z" fill="#222222"/>
<path d="M573 163.52H588" stroke="#222222" stroke-width="2" stroke-linecap="square"/>
<path d="M580.543 187.734C577.299 187.734 574.925 185.822 574.871 183.137H578.008C578.083 184.351 579.189 185.188 580.543 185.178C582.154 185.188 583.304 184.05 583.293 182.428C583.304 180.773 582.133 179.624 580.5 179.613C579.329 179.613 578.513 180.054 578.051 180.924H575.129L575.967 171.965H585.549V174.607H578.631L578.201 178.539H578.33C578.899 177.776 580.081 177.218 581.445 177.229C584.303 177.218 586.43 179.355 586.43 182.342C586.43 185.489 584.045 187.734 580.543 187.734Z" fill="#222222"/>
<path d="M630.237 152.77V150.213L636.812 139.965H640.872V150.17H642.849V152.77H640.872V155.52H637.8V152.77H630.237ZM633.503 150.17H637.843V143.51H637.692L633.503 150.041V150.17Z" fill="#222222"/>
<path d="M629 163.52H644" stroke="#222222" stroke-width="2" stroke-linecap="square"/>
<path d="M636.543 187.734C633.299 187.734 630.925 185.822 630.871 183.137H634.008C634.083 184.351 635.189 185.188 636.543 185.178C638.154 185.188 639.304 184.05 639.293 182.428C639.304 180.773 638.133 179.624 636.5 179.613C635.329 179.613 634.513 180.054 634.051 180.924H631.129L631.967 171.965H641.549V174.607H634.631L634.201 178.539H634.33C634.899 177.776 636.081 177.218 637.445 177.229C640.303 177.218 642.43 179.355 642.43 182.342C642.43 185.489 640.045 187.734 636.543 187.734Z" fill="#222222"/>
<path d="M689.648 155.551V172.52H686.109V158.902H686.016L682.125 161.34V158.223L686.32 155.551H689.648Z" fill="#231F20"/>
<path d="M809.922 172.754C805.68 172.754 803.102 169.59 803.102 164.035C803.102 158.48 805.68 155.316 809.922 155.316C814.164 155.316 816.742 158.504 816.742 164.035C816.742 169.613 814.164 172.754 809.922 172.754ZM809.922 169.848C811.891 169.848 813.156 167.949 813.133 164.035C813.133 160.168 811.891 158.199 809.922 158.199C807.953 158.199 806.711 160.168 806.711 164.035C806.688 167.949 807.953 169.848 809.922 169.848Z" fill="#231F20"/>
<path d="M864.771 139.965V155.52H861.527V143.037H861.441L857.875 145.271V142.414L861.721 139.965H864.771Z" fill="#222222"/>
<path d="M855 163.52H869" stroke="#222222" stroke-width="2" stroke-linecap="square"/>
<path d="M862.043 187.734C858.799 187.734 856.425 185.822 856.371 183.137H859.508C859.583 184.351 860.689 185.188 862.043 185.178C863.654 185.188 864.804 184.05 864.793 182.428C864.804 180.773 863.633 179.624 862 179.613C860.829 179.613 860.013 180.054 859.551 180.924H856.629L857.467 171.965H867.049V174.607H860.131L859.701 178.539H859.83C860.399 177.776 861.581 177.218 862.945 177.229C865.803 177.218 867.93 179.355 867.93 182.342C867.93 185.489 865.545 187.734 862.043 187.734Z" fill="#222222"/>
<path d="M911.511 155.52L911.489 153.178L917.075 148.043C918.525 146.657 919.31 145.798 919.31 144.562C919.31 143.177 918.268 142.317 916.839 142.328C915.378 142.317 914.422 143.241 914.433 144.734H911.36C911.35 141.694 913.605 139.75 916.882 139.75C920.212 139.75 922.425 141.651 922.425 144.348C922.425 146.12 921.565 147.57 918.364 150.471L916.001 152.77V152.855H922.64V155.52H911.511Z" fill="#222222"/>
<path d="M910 163.52H924" stroke="#222222" stroke-width="2" stroke-linecap="square"/>
<path d="M917.043 187.734C913.799 187.734 911.425 185.822 911.371 183.137H914.508C914.583 184.351 915.689 185.188 917.043 185.178C918.654 185.188 919.804 184.05 919.793 182.428C919.804 180.773 918.633 179.624 917 179.613C915.829 179.613 915.013 180.054 914.551 180.924H911.629L912.467 171.965H922.049V174.607H915.131L914.701 178.539H914.83C915.399 177.776 916.581 177.218 917.945 177.229C920.803 177.218 922.93 179.355 922.93 182.342C922.93 185.489 920.545 187.734 917.043 187.734Z" fill="#222222"/>
<path d="M972.457 155.734C969.041 155.734 966.592 153.854 966.527 151.137H969.793C969.847 152.297 970.975 153.06 972.479 153.07C974.025 153.06 975.132 152.2 975.121 150.943C975.132 149.676 974.004 148.784 972.178 148.773H970.738V146.389H972.178C973.714 146.389 974.788 145.551 974.777 144.326C974.788 143.134 973.875 142.317 972.5 142.328C971.125 142.317 969.997 143.091 969.943 144.283H966.85C966.903 141.608 969.31 139.75 972.5 139.75C975.744 139.75 977.903 141.673 977.893 144.133C977.903 145.873 976.689 147.108 974.949 147.42V147.549C977.237 147.828 978.494 149.214 978.473 151.158C978.494 153.822 975.97 155.734 972.457 155.734Z" fill="#222222"/>
<path d="M965 163.52H980" stroke="#222222" stroke-width="2" stroke-linecap="square"/>
<path d="M972.543 187.734C969.299 187.734 966.925 185.822 966.871 183.137H970.008C970.083 184.351 971.189 185.188 972.543 185.178C974.154 185.188 975.304 184.05 975.293 182.428C975.304 180.773 974.133 179.624 972.5 179.613C971.329 179.613 970.513 180.054 970.051 180.924H967.129L967.967 171.965H977.549V174.607H970.631L970.201 178.539H970.33C970.899 177.776 972.081 177.218 973.445 177.229C976.303 177.218 978.43 179.355 978.43 182.342C978.43 185.489 976.045 187.734 972.543 187.734Z" fill="#222222"/>
<path d="M1022.24 152.77V150.213L1028.81 139.965H1032.87V150.17H1034.85V152.77H1032.87V155.52H1029.8V152.77H1022.24ZM1025.5 150.17H1029.84V143.51H1029.69L1025.5 150.041V150.17Z" fill="#222222"/>
<path d="M1021 163.52H1036" stroke="#222222" stroke-width="2" stroke-linecap="square"/>
<path d="M1028.54 187.734C1025.3 187.734 1022.92 185.822 1022.87 183.137H1026.01C1026.08 184.351 1027.19 185.188 1028.54 185.178C1030.15 185.188 1031.3 184.05 1031.29 182.428C1031.3 180.773 1030.13 179.624 1028.5 179.613C1027.33 179.613 1026.51 180.054 1026.05 180.924H1023.13L1023.97 171.965H1033.55V174.607H1026.63L1026.2 178.539H1026.33C1026.9 177.776 1028.08 177.218 1029.45 177.229C1032.3 177.218 1034.43 179.355 1034.43 182.342C1034.43 185.489 1032.04 187.734 1028.54 187.734Z" fill="#222222"/>
<path d="M1081.65 155.551V172.52H1078.11V158.902H1078.02L1074.12 161.34V158.223L1078.32 155.551H1081.65Z" fill="#231F20"/>
<path d="M729.387 51.8125L726.512 48.9688L731.699 43.8125L726.512 38.6562L729.387 35.7812L734.543 40.9375L739.699 35.7812L742.574 38.6562L737.387 43.8125L742.574 48.9688L739.699 51.8125L734.543 46.6562L729.387 51.8125ZM754.074 55.3125C749.355 55.3125 745.918 52.5312 745.824 48.625H750.387C750.48 50.4062 752.105 51.5938 754.074 51.5938C756.418 51.5938 758.074 49.9375 758.074 47.5938C758.074 45.1875 756.387 43.5312 754.012 43.5C752.324 43.5 751.137 44.125 750.449 45.4062H746.199L747.418 32.375H761.355V36.2188H751.293L750.668 41.9375H750.855C751.699 40.8125 753.387 40.0312 755.387 40.0312C759.543 40.0312 762.637 43.125 762.637 47.4688C762.637 52.0312 759.168 55.3125 754.074 55.3125Z" fill="#231F20"/>
<path d="M350.262 41.8125V45.5312H334.824V41.8125H350.262ZM342.543 52.4375C341.074 52.4375 339.887 51.25 339.887 49.7812C339.887 48.3438 341.074 47.1875 342.543 47.1875C343.98 47.1875 345.137 48.3438 345.137 49.7812C345.137 51.25 343.98 52.4375 342.543 52.4375ZM342.543 40.1875C341.074 40.1875 339.887 39 339.887 37.5312C339.887 36.0625 341.074 34.9062 342.543 34.9062C343.98 34.9062 345.137 36.0625 345.137 37.5312C345.137 39 343.98 40.1875 342.543 40.1875ZM361.98 55.3125C357.012 55.3125 353.449 52.5625 353.355 48.625H358.105C358.199 50.3125 359.824 51.4375 362.012 51.4375C364.262 51.4375 365.887 50.1562 365.855 48.3438C365.887 46.5 364.23 45.1875 361.574 45.1875H359.48V41.7188H361.574C363.793 41.7188 365.355 40.5 365.355 38.7188C365.355 37 364.043 35.8125 362.043 35.8125C360.043 35.8125 358.387 36.9375 358.324 38.6562H353.824C353.887 34.75 357.418 32.0625 362.043 32.0625C366.762 32.0625 369.918 34.8438 369.887 38.4375C369.918 40.9688 368.137 42.7812 365.605 43.2188V43.4062C368.918 43.8125 370.762 45.8438 370.73 48.6562C370.762 52.5312 367.074 55.3125 361.98 55.3125Z" fill="#231F20"/>
<path d="M101.073 36L107.626 23.1953V23.0879H99.999V20.4453H110.978V23.1309L104.425 36H101.073Z" fill="#222222"/>
<path d="M98.0742 44H113.074" stroke="#222222" stroke-width="2" stroke-linecap="square"/>
<path d="M105.563 68.2148C102.008 68.2148 99.4619 66.3457 99.4619 63.8105C99.4619 61.8555 100.966 60.2656 102.899 59.9648V59.8574C101.213 59.5352 100.053 58.1279 100.063 56.4199C100.053 54.0029 102.384 52.2305 105.563 52.2305C108.743 52.2305 111.074 54.0029 111.085 56.4199C111.074 58.1279 109.882 59.5352 108.249 59.8574V59.9648C110.14 60.2656 111.665 61.8555 111.665 63.8105C111.665 66.3457 109.108 68.2148 105.563 68.2148ZM102.835 63.4883C102.824 64.8203 103.92 65.7549 105.563 65.7441C107.207 65.7549 108.303 64.8203 108.292 63.4883C108.303 62.1455 107.143 61.1572 105.563 61.1465C103.984 61.1572 102.824 62.1348 102.835 63.4883ZM103.222 56.7422C103.211 57.9883 104.188 58.8584 105.563 58.8691C106.928 58.8584 107.916 57.9883 107.927 56.7422C107.916 55.5283 106.949 54.6797 105.563 54.6797C104.167 54.6797 103.211 55.5283 103.222 56.7422Z" fill="#222222"/>
<path d="M120.98 55V32.375H125.668V51.125H135.418V55H120.98Z" fill="#231F20"/>
</svg>
