<svg width="86" height="109" viewBox="0 0 86 109" fill="none" xmlns="http://www.w3.org/2000/svg">
<mask id="mask0_10423_122627" style="mask-type:luminance" maskUnits="userSpaceOnUse" x="0" y="7" width="85" height="101">
<path d="M23.2258 7.75L0.851562 92.0588C0.851562 100.705 19.6602 107.73 42.8723 107.73C66.0666 107.73 84.8751 100.705 84.8751 92.0588L62.5188 7.75H23.2258Z" fill="white"/>
</mask>
<g mask="url(#mask0_10423_122627)">
<path d="M84.8947 7.75H0.871094V107.73H84.8947V7.75Z" fill="url(#paint0_linear_10423_122627)"/>
</g>
<path d="M23.2233 7.75391L0.849121 92.0627C0.849121 100.709 19.6577 107.734 42.8698 107.734C66.0641 107.734 84.8727 100.727 84.8727 92.0627L62.4985 7.75391H23.2233Z" stroke="#1D1D1B" stroke-width="0.75" stroke-miterlimit="10" stroke-linejoin="round"/>
<path d="M23.2246 7.75308C23.2246 3.70612 32.0138 0.425781 42.8711 0.425781C53.7106 0.425781 62.5176 3.70612 62.5176 7.75308C62.5176 11.8 53.7284 15.0804 42.8711 15.0804C32.0317 15.0626 23.2246 11.8 23.2246 7.75308Z" fill="#FDF3E2"/>
<path d="M23.2246 7.75308C23.2246 3.70611 32.0138 0.425781 42.8711 0.425781C53.7106 0.425781 62.5176 3.70611 62.5176 7.75308C62.5176 11.8 53.7284 15.0804 42.8711 15.0804C32.0317 15.0626 23.2246 11.8 23.2246 7.75308Z" stroke="#1D1D1B" stroke-width="0.75" stroke-miterlimit="10" stroke-linejoin="round"/>
<path d="M0.870117 92.0634C0.870117 83.4168 19.6787 76.3926 42.873 76.3926C66.0673 76.3926 84.8759 83.399 84.8759 92.0634" stroke="#1D1D1B" stroke-width="0.5" stroke-linejoin="round" stroke-dasharray="1.5 1"/>
<defs>
<linearGradient id="paint0_linear_10423_122627" x1="0.679417" y1="57.7748" x2="84.6993" y2="57.7748" gradientUnits="userSpaceOnUse">
<stop stop-color="#FAE6C4"/>
<stop offset="0.38" stop-color="#FEF8EF"/>
<stop offset="1" stop-color="#F7DCA8"/>
</linearGradient>
</defs>
</svg>
