<svg width="77" height="128" viewBox="0 0 77 128" fill="none" xmlns="http://www.w3.org/2000/svg">
<mask id="mask0_10423_122677" style="mask-type:luminance" maskUnits="userSpaceOnUse" x="17" y="0" width="60" height="128">
<path d="M17.5938 0.716797V127.064H59.0261C68.5285 127.064 76.2124 98.7888 76.2124 63.8815C76.2124 28.9921 68.5285 0.716797 59.0261 0.716797H17.5938Z" fill="white"/>
</mask>
<g mask="url(#mask0_10423_122677)">
<path d="M76.2133 0.716797H17.5947V127.064H76.2133V0.716797Z" fill="url(#paint0_linear_10423_122677)"/>
</g>
<path d="M17.6035 127.046H59.0359C68.5382 127.046 76.2221 98.771 76.2221 63.8815C76.2221 28.9921 68.5382 0.716797 59.0359 0.716797H17.6035V127.046Z" stroke="#1D1D1B" stroke-width="0.75" stroke-miterlimit="10" stroke-linejoin="round"/>
<path d="M17.6022 127.046C8.09987 127.046 0.416016 98.771 0.416016 63.8815C0.416016 28.9921 8.09987 0.716797 17.6022 0.716797C27.0867 0.716797 34.7885 28.9921 34.7885 63.8815C34.7885 98.771 27.1046 127.046 17.6022 127.046Z" fill="#EFEFF8"/>
<path d="M17.6022 127.046C8.09987 127.046 0.416016 98.771 0.416016 63.8815C0.416016 28.9921 8.09987 0.716797 17.6022 0.716797C27.0867 0.716797 34.7885 28.9921 34.7885 63.8815C34.7885 98.771 27.1046 127.046 17.6022 127.046Z" stroke="#1D1D1B" stroke-width="0.75" stroke-miterlimit="10" stroke-linejoin="round"/>
<path d="M59.0524 127.046C49.5501 127.046 41.8662 98.771 41.8662 63.8815C41.8662 28.9921 49.5501 0.716797 59.0524 0.716797" stroke="#1D1D1B" stroke-width="0.5" stroke-linejoin="round" stroke-dasharray="1.5 1"/>
<defs>
<linearGradient id="paint0_linear_10423_122677" x1="46.9258" y1="127.121" x2="46.9258" y2="0.780428" gradientUnits="userSpaceOnUse">
<stop stop-color="#D2D1EA"/>
<stop offset="0.38" stop-color="#F6F6FB"/>
<stop offset="1" stop-color="#D2D1EA"/>
</linearGradient>
</defs>
</svg>
