<svg width="86" height="118" viewBox="0 0 86 118" fill="none" xmlns="http://www.w3.org/2000/svg">
<mask id="mask0_10423_122600" style="mask-type:luminance" maskUnits="userSpaceOnUse" x="0" y="16" width="85" height="101">
<path d="M0.953125 16.9258V101.235C0.953125 109.881 19.7617 116.905 42.956 116.905C66.1503 116.905 84.9589 109.899 84.9589 101.235V16.9258H0.953125Z" fill="white"/>
</mask>
<g mask="url(#mask0_10423_122600)">
<path d="M84.9757 16.9258H0.952148V116.905H84.9757V16.9258Z" fill="url(#paint0_linear_10423_122600)"/>
</g>
<path d="M0.950195 16.9258V101.235C0.950195 109.899 19.7588 116.905 42.9531 116.905C66.1474 116.905 84.9559 109.899 84.9559 101.235V16.9258H0.950195Z" stroke="#1D1D1B" stroke-width="0.75" stroke-miterlimit="10" stroke-linejoin="round"/>
<path d="M0.950195 16.9247C0.950195 8.27812 19.7588 1.25391 42.9531 1.25391C66.1474 1.25391 84.9559 8.26029 84.9559 16.9247C84.9559 25.5891 66.1474 32.5956 42.9531 32.5956C19.7588 32.5778 0.950195 25.5713 0.950195 16.9247Z" fill="#F9F1ED"/>
<path d="M0.950195 16.9247C0.950195 8.27812 19.7588 1.25391 42.9531 1.25391C66.1474 1.25391 84.9559 8.26029 84.9559 16.9247C84.9559 25.5891 66.1474 32.5956 42.9531 32.5956C19.7588 32.5778 0.950195 25.5713 0.950195 16.9247Z" stroke="#1D1D1B" stroke-width="0.75" stroke-miterlimit="10" stroke-linejoin="round"/>
<path d="M0.950195 101.233C0.950195 92.5689 19.7588 85.5625 42.9531 85.5625C66.1474 85.5625 84.9559 92.5689 84.9559 101.233" stroke="#1D1D1B" stroke-width="0.5" stroke-linejoin="round" stroke-dasharray="1.5 1"/>
<defs>
<linearGradient id="paint0_linear_10423_122600" x1="0.785966" y1="66.9503" x2="84.8058" y2="66.9503" gradientUnits="userSpaceOnUse">
<stop stop-color="#F2E3DA"/>
<stop offset="0.38" stop-color="#FCF7F5"/>
<stop offset="1" stop-color="#EDD7C9"/>
</linearGradient>
</defs>
</svg>
