<svg width="1016" height="125" viewBox="0 0 1016 125" fill="none" xmlns="http://www.w3.org/2000/svg">
<path d="M235.5 46L232.923 34.7442L224.464 42.6037L235.5 46ZM14.5 46L15.2386 46.6742C15.693 46.1763 16.1526 45.6817 16.6173 45.1902L15.8907 44.5032L15.1641 43.8161C14.6914 44.316 14.2238 44.8193 13.7614 45.3258L14.5 46ZM18.7531 41.5798L19.4554 42.2916C20.415 41.3449 21.3941 40.4112 22.3922 39.491L21.7144 38.7558L21.0366 38.0205C20.022 38.9559 19.0265 39.9052 18.0507 40.8679L18.7531 41.5798ZM24.7678 36.0334L25.4208 36.7907C26.4414 35.9106 27.4799 35.044 28.5361 34.1912L27.9078 33.4132L27.2796 32.6351C26.2068 33.5014 25.1517 34.3818 24.1147 35.2762L24.7678 36.0334ZM31.1307 30.8946L31.7339 31.6921C32.8093 30.8788 33.9013 30.0793 35.0095 29.294L34.4313 28.4781L33.8531 27.6622C32.7282 28.4593 31.6194 29.2711 30.5274 30.097L31.1307 30.8946ZM37.805 26.164L38.3581 26.9972C39.4819 26.2511 40.6211 25.5192 41.7752 24.8019L41.2473 23.9526L40.7194 23.1033C39.5485 23.8311 38.3925 24.5737 37.252 25.3309L37.805 26.164ZM44.7537 21.8439L45.2565 22.7084C46.4231 22.0299 47.6037 21.3659 48.7979 20.7167L48.3203 19.8381L47.8427 18.9595C46.6316 19.6179 45.4343 20.2913 44.251 20.9795L44.7537 21.8439ZM51.9417 17.9357L52.3942 18.8274C53.5974 18.2169 54.8135 17.6211 56.042 17.0403L55.6146 16.1362L55.1872 15.2321C53.9419 15.8209 52.7091 16.4249 51.4892 17.0439L51.9417 17.9357ZM59.3362 14.4391L59.7386 15.3546C60.9743 14.8115 62.2217 14.2833 63.4804 13.7704L63.103 12.8443L62.7256 11.9183C61.4502 12.438 60.1861 12.9733 58.9339 13.5237L59.3362 14.4391ZM66.9115 11.3516L67.264 12.2875C68.5275 11.8116 69.8017 11.3509 71.0861 10.9056L70.7586 9.9608L70.431 9.01597C69.1299 9.46702 67.8392 9.93373 66.5591 10.4158L66.9115 11.3516ZM74.6409 8.67161L74.9437 9.62468C76.2307 9.21587 77.5275 8.82234 78.8335 8.44438L78.5556 7.4838L78.2776 6.52321C76.955 6.90595 75.6417 7.30448 74.3382 7.71853L74.6409 8.67161ZM82.4995 6.39708L82.7528 7.36447C84.0594 7.02235 85.3748 6.69566 86.6985 6.38467L86.4698 5.41117L86.2411 4.43767C84.901 4.75252 83.5692 5.08328 82.2462 5.4297L82.4995 6.39708ZM90.4638 4.52573L90.668 5.50467C91.9904 5.22885 93.3206 4.96858 94.6584 4.72413L94.4786 3.74042L94.2989 2.75671C92.9448 3.00414 91.5983 3.26759 90.2596 3.5468L90.4638 4.52573ZM98.5117 3.05487L98.6671 4.04271C100.002 3.83275 101.343 3.63844 102.692 3.46003L102.56 2.46867L102.429 1.47731C101.065 1.65786 99.707 1.85452 98.3563 2.06702L98.5117 3.05487ZM106.622 1.9814L106.729 2.97566C108.072 2.83102 109.422 2.70211 110.777 2.58916L110.694 1.59261L110.611 0.596069C109.24 0.710352 107.874 0.840792 106.515 0.987149L106.622 1.9814ZM114.775 1.30182L114.834 2.30006C116.183 2.22015 117.537 2.156 118.897 2.10786L118.861 1.10848L118.826 0.109109C117.45 0.157813 116.08 0.222709 114.716 0.303566L114.775 1.30182ZM122.951 1.01206L122.963 2.01199C123.641 2.00401 124.32 2 125 2V1V0C124.312 0 123.625 0.00405151 122.939 0.0121266L122.951 1.01206ZM125 1V2C125.68 2 126.359 2.00401 127.037 2.01199L127.049 1.01206L127.061 0.0121269C126.375 0.00405163 125.688 0 125 0V1ZM131.139 1.10848L131.104 2.10786C132.463 2.156 133.817 2.22015 135.166 2.30007L135.225 1.30182L135.284 0.303567C133.92 0.22271 132.55 0.157814 131.174 0.10911L131.139 1.10848ZM139.306 1.59262L139.223 2.58916C140.578 2.70211 141.928 2.83102 143.271 2.97566L143.378 1.98141L143.485 0.987152C142.126 0.840795 140.76 0.710354 139.389 0.59607L139.306 1.59262ZM147.44 2.46867L147.309 3.46003C148.657 3.63844 149.998 3.83275 151.333 4.04272L151.488 3.05487L151.644 2.06702C150.293 1.85452 148.935 1.65787 147.571 1.47731L147.44 2.46867ZM155.521 3.74043L155.342 4.72414C156.679 4.96859 158.01 5.22885 159.332 5.50467L159.536 4.52574L159.74 3.5468C158.402 3.26759 157.055 3.00414 155.701 2.75671L155.521 3.74043ZM163.53 5.41118L163.301 6.38467C164.625 6.69566 165.941 7.02235 167.247 7.36448L167.501 6.39709L167.754 5.4297C166.431 5.08329 165.099 4.75253 163.759 4.43768L163.53 5.41118ZM171.444 7.4838L171.166 8.44439C172.473 8.82234 173.769 9.21587 175.056 9.62469L175.359 8.67161L175.662 7.71854C174.358 7.30449 173.045 6.90595 171.722 6.52321L171.444 7.4838ZM179.241 9.96081L178.914 10.9056C180.198 11.3509 181.473 11.8116 182.736 12.2875L183.089 11.3516L183.441 10.4158C182.161 9.93374 180.87 9.46703 179.569 9.01597L179.241 9.96081ZM186.897 12.8443L186.52 13.7704C187.778 14.2833 189.026 14.8115 190.261 15.3546L190.664 14.4391L191.066 13.5237C189.814 12.9733 188.55 12.438 187.274 11.9183L186.897 12.8443ZM194.385 16.1362L193.958 17.0403C195.187 17.6211 196.403 18.2169 197.606 18.8274L198.058 17.9357L198.511 17.0439C197.291 16.4249 196.058 15.8209 194.813 15.2321L194.385 16.1362ZM201.68 19.8381L201.202 20.7167C202.396 21.3659 203.577 22.0299 204.744 22.7084L205.246 21.844L205.749 20.9795C204.566 20.2913 203.368 19.6179 202.157 18.9595L201.68 19.8381ZM208.753 23.9526L208.225 24.8019C209.379 25.5192 210.518 26.2511 211.642 26.9972L212.195 26.164L212.748 25.3309C211.607 24.5737 210.452 23.8311 209.281 23.1033L208.753 23.9526ZM215.569 28.4781L214.991 29.294C216.099 30.0793 217.191 30.8788 218.266 31.6921L218.869 30.8946L219.473 30.097C218.381 29.2711 217.272 28.4593 216.147 27.6622L215.569 28.4781ZM222.092 33.4132L221.464 34.1912C222.52 35.044 223.559 35.9106 224.579 36.7907L225.232 36.0335L225.885 35.2762C224.848 34.3819 223.793 33.5014 222.72 32.6352L222.092 33.4132ZM228.286 38.7558L227.608 39.491C228.606 40.4112 229.585 41.3449 230.545 42.2916L231.247 41.5798L231.949 40.868C230.974 39.9052 229.978 38.9559 228.963 38.0206L228.286 38.7558ZM235.5 46L232.923 34.7442L224.464 42.6037L235.5 46ZM14.5 46L15.2386 46.6742C15.693 46.1763 16.1526 45.6817 16.6173 45.1902L15.8907 44.5032L15.1641 43.8161C14.6914 44.316 14.2238 44.8193 13.7614 45.3258L14.5 46ZM18.7531 41.5798L19.4554 42.2916C20.415 41.3449 21.3941 40.4112 22.3922 39.491L21.7144 38.7558L21.0366 38.0205C20.022 38.9559 19.0265 39.9052 18.0507 40.8679L18.7531 41.5798ZM24.7678 36.0334L25.4208 36.7907C26.4414 35.9106 27.4799 35.044 28.5361 34.1912L27.9078 33.4132L27.2796 32.6351C26.2068 33.5014 25.1517 34.3818 24.1147 35.2762L24.7678 36.0334ZM31.1307 30.8946L31.7339 31.6921C32.8093 30.8788 33.9013 30.0793 35.0095 29.294L34.4313 28.4781L33.8531 27.6622C32.7282 28.4593 31.6194 29.2711 30.5274 30.097L31.1307 30.8946ZM37.805 26.164L38.3581 26.9972C39.4819 26.2511 40.6211 25.5192 41.7752 24.8019L41.2473 23.9526L40.7194 23.1033C39.5485 23.8311 38.3925 24.5737 37.252 25.3309L37.805 26.164ZM44.7537 21.8439L45.2565 22.7084C46.4231 22.0299 47.6037 21.3659 48.7979 20.7167L48.3203 19.8381L47.8427 18.9595C46.6316 19.6179 45.4343 20.2913 44.251 20.9795L44.7537 21.8439ZM51.9417 17.9357L52.3942 18.8274C53.5974 18.2169 54.8135 17.6211 56.042 17.0403L55.6146 16.1362L55.1872 15.2321C53.9419 15.8209 52.7091 16.4249 51.4892 17.0439L51.9417 17.9357ZM59.3362 14.4391L59.7386 15.3546C60.9743 14.8115 62.2217 14.2833 63.4804 13.7704L63.103 12.8443L62.7256 11.9183C61.4502 12.438 60.1861 12.9733 58.9339 13.5237L59.3362 14.4391ZM66.9115 11.3516L67.264 12.2875C68.5275 11.8116 69.8017 11.3509 71.0861 10.9056L70.7586 9.9608L70.431 9.01597C69.1299 9.46702 67.8392 9.93373 66.5591 10.4158L66.9115 11.3516ZM74.6409 8.67161L74.9437 9.62468C76.2307 9.21587 77.5275 8.82234 78.8335 8.44438L78.5556 7.4838L78.2776 6.52321C76.955 6.90595 75.6417 7.30448 74.3382 7.71853L74.6409 8.67161ZM82.4995 6.39708L82.7528 7.36447C84.0594 7.02235 85.3748 6.69566 86.6985 6.38467L86.4698 5.41117L86.2411 4.43767C84.901 4.75252 83.5692 5.08328 82.2462 5.4297L82.4995 6.39708ZM90.4638 4.52573L90.668 5.50467C91.9904 5.22885 93.3206 4.96858 94.6584 4.72413L94.4786 3.74042L94.2989 2.75671C92.9448 3.00414 91.5983 3.26759 90.2596 3.5468L90.4638 4.52573ZM98.5117 3.05487L98.6671 4.04271C100.002 3.83275 101.343 3.63844 102.692 3.46003L102.56 2.46867L102.429 1.47731C101.065 1.65786 99.707 1.85452 98.3563 2.06702L98.5117 3.05487ZM106.622 1.9814L106.729 2.97566C108.072 2.83102 109.422 2.70211 110.777 2.58916L110.694 1.59261L110.611 0.596069C109.24 0.710352 107.874 0.840792 106.515 0.987149L106.622 1.9814ZM114.775 1.30182L114.834 2.30006C116.183 2.22015 117.537 2.156 118.897 2.10786L118.861 1.10848L118.826 0.109109C117.45 0.157813 116.08 0.222709 114.716 0.303566L114.775 1.30182ZM122.951 1.01206L122.963 2.01199C123.641 2.00401 124.32 2 125 2V1V0C124.312 0 123.625 0.00405151 122.939 0.0121266L122.951 1.01206ZM125 1V2C125.68 2 126.359 2.00401 127.037 2.01199L127.049 1.01206L127.061 0.0121269C126.375 0.00405163 125.688 0 125 0V1ZM131.139 1.10848L131.104 2.10786C132.463 2.156 133.817 2.22015 135.166 2.30007L135.225 1.30182L135.284 0.303567C133.92 0.22271 132.55 0.157814 131.174 0.10911L131.139 1.10848ZM139.306 1.59262L139.223 2.58916C140.578 2.70211 141.928 2.83102 143.271 2.97566L143.378 1.98141L143.485 0.987152C142.126 0.840795 140.76 0.710354 139.389 0.59607L139.306 1.59262ZM147.44 2.46867L147.309 3.46003C148.657 3.63844 149.998 3.83275 151.333 4.04272L151.488 3.05487L151.644 2.06702C150.293 1.85452 148.935 1.65787 147.571 1.47731L147.44 2.46867ZM155.521 3.74043L155.342 4.72414C156.679 4.96859 158.01 5.22885 159.332 5.50467L159.536 4.52574L159.74 3.5468C158.402 3.26759 157.055 3.00414 155.701 2.75671L155.521 3.74043ZM163.53 5.41118L163.301 6.38467C164.625 6.69566 165.941 7.02235 167.247 7.36448L167.501 6.39709L167.754 5.4297C166.431 5.08329 165.099 4.75253 163.759 4.43768L163.53 5.41118ZM171.444 7.4838L171.166 8.44439C172.473 8.82234 173.769 9.21587 175.056 9.62469L175.359 8.67161L175.662 7.71854C174.358 7.30449 173.045 6.90595 171.722 6.52321L171.444 7.4838ZM179.241 9.96081L178.914 10.9056C180.198 11.3509 181.473 11.8116 182.736 12.2875L183.089 11.3516L183.441 10.4158C182.161 9.93374 180.87 9.46703 179.569 9.01597L179.241 9.96081ZM186.897 12.8443L186.52 13.7704C187.778 14.2833 189.026 14.8115 190.261 15.3546L190.664 14.4391L191.066 13.5237C189.814 12.9733 188.55 12.438 187.274 11.9183L186.897 12.8443ZM194.385 16.1362L193.958 17.0403C195.187 17.6211 196.403 18.2169 197.606 18.8274L198.058 17.9357L198.511 17.0439C197.291 16.4249 196.058 15.8209 194.813 15.2321L194.385 16.1362ZM201.68 19.8381L201.202 20.7167C202.396 21.3659 203.577 22.0299 204.744 22.7084L205.246 21.844L205.749 20.9795C204.566 20.2913 203.368 19.6179 202.157 18.9595L201.68 19.8381ZM208.753 23.9526L208.225 24.8019C209.379 25.5192 210.518 26.2511 211.642 26.9972L212.195 26.164L212.748 25.3309C211.607 24.5737 210.452 23.8311 209.281 23.1033L208.753 23.9526ZM215.569 28.4781L214.991 29.294C216.099 30.0793 217.191 30.8788 218.266 31.6921L218.869 30.8946L219.473 30.097C218.381 29.2711 217.272 28.4593 216.147 27.6622L215.569 28.4781ZM222.092 33.4132L221.464 34.1912C222.52 35.044 223.559 35.9106 224.579 36.7907L225.232 36.0335L225.885 35.2762C224.848 34.3819 223.793 33.5014 222.72 32.6352L222.092 33.4132ZM228.286 38.7558L227.608 39.491C228.606 40.4112 229.585 41.3449 230.545 42.2916L231.247 41.5798L231.949 40.868C230.974 39.9052 229.978 38.9559 228.963 38.0206L228.286 38.7558Z" fill="#E6007E"/>
<path d="M460.5 46L457.923 34.7442L449.464 42.6036L460.5 46ZM239.5 46L240.239 46.6742C240.693 46.1763 241.153 45.6817 241.617 45.1902L240.891 44.5032L240.164 43.8161C239.691 44.316 239.224 44.8193 238.761 45.3258L239.5 46ZM243.753 41.5798L244.455 42.2916C245.415 41.3449 246.394 40.4112 247.392 39.491L246.714 38.7558L246.037 38.0205C245.022 38.9559 244.027 39.9052 243.051 40.8679L243.753 41.5798ZM249.768 36.0334L250.421 36.7907C251.441 35.9106 252.48 35.044 253.536 34.1912L252.908 33.4132L252.28 32.6351C251.207 33.5014 250.152 34.3818 249.115 35.2762L249.768 36.0334ZM256.131 30.8946L256.734 31.6921C257.809 30.8788 258.901 30.0793 260.009 29.294L259.431 28.4781L258.853 27.6622C257.728 28.4593 256.619 29.2711 255.527 30.097L256.131 30.8946ZM262.805 26.164L263.358 26.9971C264.482 26.2511 265.621 25.5192 266.775 24.8019L266.247 23.9526L265.719 23.1033C264.548 23.8311 263.393 24.5737 262.252 25.3309L262.805 26.164ZM269.754 21.8439L270.257 22.7084C271.423 22.0299 272.604 21.3659 273.798 20.7167L273.32 19.8381L272.843 18.9595C271.632 19.6179 270.434 20.2913 269.251 20.9795L269.754 21.8439ZM276.942 17.9357L277.394 18.8274C278.597 18.2169 279.814 17.6211 281.042 17.0402L280.615 16.1362L280.187 15.2321C278.942 15.8209 277.709 16.4249 276.489 17.0439L276.942 17.9357ZM284.336 14.4391L284.739 15.3546C285.974 14.8115 287.222 14.2833 288.48 13.7704L288.103 12.8443L287.726 11.9183C286.45 12.438 285.186 12.9732 283.934 13.5237L284.336 14.4391ZM291.912 11.3516L292.264 12.2875C293.527 11.8116 294.802 11.3509 296.086 10.9056L295.759 9.9608L295.431 9.01596C294.13 9.46702 292.839 9.93373 291.559 10.4158L291.912 11.3516ZM299.641 8.67161L299.944 9.62468C301.231 9.21586 302.527 8.82234 303.834 8.44438L303.556 7.48379L303.278 6.52321C301.955 6.90595 300.642 7.30448 299.338 7.71853L299.641 8.67161ZM307.5 6.39708L307.753 7.36447C309.059 7.02235 310.375 6.69565 311.699 6.38467L311.47 5.41117L311.241 4.43767C309.901 4.75252 308.569 5.08328 307.246 5.4297L307.5 6.39708ZM315.464 4.52573L315.668 5.50466C316.99 5.22885 318.321 4.96858 319.658 4.72413L319.479 3.74042L319.299 2.75671C317.945 3.00414 316.598 3.26759 315.26 3.5468L315.464 4.52573ZM323.512 3.05486L323.667 4.04271C325.002 3.83275 326.343 3.63844 327.692 3.46003L327.56 2.46867L327.429 1.47731C326.065 1.65786 324.707 1.85451 323.356 2.06702L323.512 3.05486ZM331.622 1.9814L331.729 2.97566C333.072 2.83102 334.422 2.70211 335.777 2.58916L335.694 1.59261L335.611 0.596068C334.24 0.710351 332.874 0.840792 331.515 0.987149L331.622 1.9814ZM339.775 1.30181L339.834 2.30006C341.183 2.22015 342.537 2.156 343.897 2.10786L343.861 1.10848L343.826 0.109108C342.45 0.157813 341.08 0.222709 339.716 0.303566L339.775 1.30181ZM347.951 1.01206L347.963 2.01199C348.641 2.00401 349.32 2 350 2V1V0C349.312 0 348.625 0.00405151 347.939 0.0121265L347.951 1.01206ZM350 1V2C350.68 2 351.359 2.00401 352.037 2.01199L352.049 1.01206L352.061 0.0121269C351.375 0.00405163 350.688 0 350 0V1ZM356.139 1.10848L356.104 2.10786C357.463 2.156 358.817 2.22015 360.166 2.30007L360.225 1.30182L360.284 0.303567C358.92 0.22271 357.55 0.157814 356.174 0.10911L356.139 1.10848ZM364.306 1.59262L364.223 2.58916C365.578 2.70211 366.928 2.83102 368.271 2.97566L368.378 1.9814L368.485 0.987152C367.126 0.840794 365.76 0.710354 364.389 0.59607L364.306 1.59262ZM372.44 2.46867L372.308 3.46003C373.657 3.63844 374.998 3.83275 376.333 4.04272L376.488 3.05487L376.644 2.06702C375.293 1.85452 373.935 1.65786 372.571 1.47731L372.44 2.46867ZM380.521 3.74042L380.342 4.72414C381.679 4.96859 383.01 5.22885 384.332 5.50467L384.536 4.52574L384.74 3.5468C383.402 3.26759 382.055 3.00414 380.701 2.75671L380.521 3.74042ZM388.53 5.41117L388.301 6.38467C389.625 6.69566 390.941 7.02235 392.247 7.36447L392.501 6.39709L392.754 5.4297C391.431 5.08329 390.099 4.75252 388.759 4.43768L388.53 5.41117ZM396.444 7.4838L396.166 8.44438C397.473 8.82234 398.769 9.21587 400.056 9.62468L400.359 8.67161L400.662 7.71853C399.358 7.30448 398.045 6.90595 396.722 6.52321L396.444 7.4838ZM404.241 9.9608L403.914 10.9056C405.198 11.3509 406.473 11.8116 407.736 12.2875L408.088 11.3516L408.441 10.4158C407.161 9.93373 405.87 9.46702 404.569 9.01597L404.241 9.9608ZM411.897 12.8443L411.52 13.7704C412.778 14.2833 414.026 14.8115 415.261 15.3546L415.664 14.4391L416.066 13.5237C414.814 12.9732 413.55 12.438 412.274 11.9183L411.897 12.8443ZM419.385 16.1362L418.958 17.0402C420.186 17.6211 421.403 18.2169 422.606 18.8274L423.058 17.9357L423.511 17.0439C422.291 16.4249 421.058 15.8209 419.813 15.2321L419.385 16.1362ZM426.68 19.8381L426.202 20.7167C427.396 21.3659 428.577 22.0299 429.743 22.7084L430.246 21.8439L430.749 20.9795C429.566 20.2913 428.368 19.6179 427.157 18.9595L426.68 19.8381ZM433.753 23.9526L433.225 24.8019C434.379 25.5192 435.518 26.2511 436.642 26.9972L437.195 26.164L437.748 25.3309C436.607 24.5737 435.452 23.8311 434.281 23.1033L433.753 23.9526ZM440.569 28.4781L439.991 29.294C441.099 30.0793 442.191 30.8788 443.266 31.6921L443.869 30.8946L444.473 30.097C443.381 29.2711 442.272 28.4593 441.147 27.6622L440.569 28.4781ZM447.092 33.4132L446.464 34.1912C447.52 35.044 448.559 35.9106 449.579 36.7907L450.232 36.0335L450.885 35.2762C449.848 34.3818 448.793 33.5014 447.72 32.6351L447.092 33.4132ZM453.286 38.7558L452.608 39.491C453.606 40.4112 454.585 41.3449 455.545 42.2916L456.247 41.5798L456.949 40.8679C455.973 39.9052 454.978 38.9559 453.963 38.0206L453.286 38.7558ZM460.5 46L457.923 34.7442L449.464 42.6036L460.5 46ZM239.5 46L240.239 46.6742C240.693 46.1763 241.153 45.6817 241.617 45.1902L240.891 44.5032L240.164 43.8161C239.691 44.316 239.224 44.8193 238.761 45.3258L239.5 46ZM243.753 41.5798L244.455 42.2916C245.415 41.3449 246.394 40.4112 247.392 39.491L246.714 38.7558L246.037 38.0205C245.022 38.9559 244.027 39.9052 243.051 40.8679L243.753 41.5798ZM249.768 36.0334L250.421 36.7907C251.441 35.9106 252.48 35.044 253.536 34.1912L252.908 33.4132L252.28 32.6351C251.207 33.5014 250.152 34.3818 249.115 35.2762L249.768 36.0334ZM256.131 30.8946L256.734 31.6921C257.809 30.8788 258.901 30.0793 260.009 29.294L259.431 28.4781L258.853 27.6622C257.728 28.4593 256.619 29.2711 255.527 30.097L256.131 30.8946ZM262.805 26.164L263.358 26.9971C264.482 26.2511 265.621 25.5192 266.775 24.8019L266.247 23.9526L265.719 23.1033C264.548 23.8311 263.393 24.5737 262.252 25.3309L262.805 26.164ZM269.754 21.8439L270.257 22.7084C271.423 22.0299 272.604 21.3659 273.798 20.7167L273.32 19.8381L272.843 18.9595C271.632 19.6179 270.434 20.2913 269.251 20.9795L269.754 21.8439ZM276.942 17.9357L277.394 18.8274C278.597 18.2169 279.814 17.6211 281.042 17.0402L280.615 16.1362L280.187 15.2321C278.942 15.8209 277.709 16.4249 276.489 17.0439L276.942 17.9357ZM284.336 14.4391L284.739 15.3546C285.974 14.8115 287.222 14.2833 288.48 13.7704L288.103 12.8443L287.726 11.9183C286.45 12.438 285.186 12.9732 283.934 13.5237L284.336 14.4391ZM291.912 11.3516L292.264 12.2875C293.527 11.8116 294.802 11.3509 296.086 10.9056L295.759 9.9608L295.431 9.01596C294.13 9.46702 292.839 9.93373 291.559 10.4158L291.912 11.3516ZM299.641 8.67161L299.944 9.62468C301.231 9.21586 302.527 8.82234 303.834 8.44438L303.556 7.48379L303.278 6.52321C301.955 6.90595 300.642 7.30448 299.338 7.71853L299.641 8.67161ZM307.5 6.39708L307.753 7.36447C309.059 7.02235 310.375 6.69565 311.699 6.38467L311.47 5.41117L311.241 4.43767C309.901 4.75252 308.569 5.08328 307.246 5.4297L307.5 6.39708ZM315.464 4.52573L315.668 5.50466C316.99 5.22885 318.321 4.96858 319.658 4.72413L319.479 3.74042L319.299 2.75671C317.945 3.00414 316.598 3.26759 315.26 3.5468L315.464 4.52573ZM323.512 3.05486L323.667 4.04271C325.002 3.83275 326.343 3.63844 327.692 3.46003L327.56 2.46867L327.429 1.47731C326.065 1.65786 324.707 1.85451 323.356 2.06702L323.512 3.05486ZM331.622 1.9814L331.729 2.97566C333.072 2.83102 334.422 2.70211 335.777 2.58916L335.694 1.59261L335.611 0.596068C334.24 0.710351 332.874 0.840792 331.515 0.987149L331.622 1.9814ZM339.775 1.30181L339.834 2.30006C341.183 2.22015 342.537 2.156 343.897 2.10786L343.861 1.10848L343.826 0.109108C342.45 0.157813 341.08 0.222709 339.716 0.303566L339.775 1.30181ZM347.951 1.01206L347.963 2.01199C348.641 2.00401 349.32 2 350 2V1V0C349.312 0 348.625 0.00405151 347.939 0.0121265L347.951 1.01206ZM350 1V2C350.68 2 351.359 2.00401 352.037 2.01199L352.049 1.01206L352.061 0.0121269C351.375 0.00405163 350.688 0 350 0V1ZM356.139 1.10848L356.104 2.10786C357.463 2.156 358.817 2.22015 360.166 2.30007L360.225 1.30182L360.284 0.303567C358.92 0.22271 357.55 0.157814 356.174 0.10911L356.139 1.10848ZM364.306 1.59262L364.223 2.58916C365.578 2.70211 366.928 2.83102 368.271 2.97566L368.378 1.9814L368.485 0.987152C367.126 0.840794 365.76 0.710354 364.389 0.59607L364.306 1.59262ZM372.44 2.46867L372.308 3.46003C373.657 3.63844 374.998 3.83275 376.333 4.04272L376.488 3.05487L376.644 2.06702C375.293 1.85452 373.935 1.65786 372.571 1.47731L372.44 2.46867ZM380.521 3.74042L380.342 4.72414C381.679 4.96859 383.01 5.22885 384.332 5.50467L384.536 4.52574L384.74 3.5468C383.402 3.26759 382.055 3.00414 380.701 2.75671L380.521 3.74042ZM388.53 5.41117L388.301 6.38467C389.625 6.69566 390.941 7.02235 392.247 7.36447L392.501 6.39709L392.754 5.4297C391.431 5.08329 390.099 4.75252 388.759 4.43768L388.53 5.41117ZM396.444 7.4838L396.166 8.44438C397.473 8.82234 398.769 9.21587 400.056 9.62468L400.359 8.67161L400.662 7.71853C399.358 7.30448 398.045 6.90595 396.722 6.52321L396.444 7.4838ZM404.241 9.9608L403.914 10.9056C405.198 11.3509 406.473 11.8116 407.736 12.2875L408.088 11.3516L408.441 10.4158C407.161 9.93373 405.87 9.46702 404.569 9.01597L404.241 9.9608ZM411.897 12.8443L411.52 13.7704C412.778 14.2833 414.026 14.8115 415.261 15.3546L415.664 14.4391L416.066 13.5237C414.814 12.9732 413.55 12.438 412.274 11.9183L411.897 12.8443ZM419.385 16.1362L418.958 17.0402C420.186 17.6211 421.403 18.2169 422.606 18.8274L423.058 17.9357L423.511 17.0439C422.291 16.4249 421.058 15.8209 419.813 15.2321L419.385 16.1362ZM426.68 19.8381L426.202 20.7167C427.396 21.3659 428.577 22.0299 429.743 22.7084L430.246 21.8439L430.749 20.9795C429.566 20.2913 428.368 19.6179 427.157 18.9595L426.68 19.8381ZM433.753 23.9526L433.225 24.8019C434.379 25.5192 435.518 26.2511 436.642 26.9972L437.195 26.164L437.748 25.3309C436.607 24.5737 435.452 23.8311 434.281 23.1033L433.753 23.9526ZM440.569 28.4781L439.991 29.294C441.099 30.0793 442.191 30.8788 443.266 31.6921L443.869 30.8946L444.473 30.097C443.381 29.2711 442.272 28.4593 441.147 27.6622L440.569 28.4781ZM447.092 33.4132L446.464 34.1912C447.52 35.044 448.559 35.9106 449.579 36.7907L450.232 36.0335L450.885 35.2762C449.848 34.3818 448.793 33.5014 447.72 32.6351L447.092 33.4132ZM453.286 38.7558L452.608 39.491C453.606 40.4112 454.585 41.3449 455.545 42.2916L456.247 41.5798L456.949 40.8679C455.973 39.9052 454.978 38.9559 453.963 38.0206L453.286 38.7558Z" fill="#E6007E"/>
<path d="M685.5 46L682.923 34.7442L674.464 42.6037L685.5 46ZM464.5 46L465.239 46.6742C465.693 46.1763 466.153 45.6817 466.617 45.1902L465.891 44.5032L465.164 43.8161C464.691 44.316 464.224 44.8193 463.761 45.3258L464.5 46ZM468.753 41.5798L469.455 42.2916C470.415 41.3449 471.394 40.4112 472.392 39.491L471.714 38.7558L471.037 38.0205C470.022 38.9559 469.027 39.9052 468.051 40.8679L468.753 41.5798ZM474.768 36.0334L475.421 36.7907C476.441 35.9106 477.48 35.044 478.536 34.1912L477.908 33.4132L477.28 32.6351C476.207 33.5014 475.152 34.3818 474.115 35.2762L474.768 36.0334ZM481.131 30.8946L481.734 31.6921C482.809 30.8788 483.901 30.0793 485.009 29.294L484.431 28.4781L483.853 27.6622C482.728 28.4593 481.619 29.2711 480.527 30.097L481.131 30.8946ZM487.805 26.164L488.358 26.9972C489.482 26.2511 490.621 25.5192 491.775 24.8019L491.247 23.9526L490.719 23.1033C489.548 23.8311 488.393 24.5737 487.252 25.3309L487.805 26.164ZM494.754 21.8439L495.257 22.7084C496.423 22.0299 497.604 21.3659 498.798 20.7167L498.32 19.8381L497.843 18.9595C496.632 19.6179 495.434 20.2913 494.251 20.9795L494.754 21.8439ZM501.942 17.9357L502.394 18.8274C503.597 18.2169 504.813 17.6211 506.042 17.0403L505.615 16.1362L505.187 15.2321C503.942 15.8209 502.709 16.4249 501.489 17.0439L501.942 17.9357ZM509.336 14.4391L509.739 15.3546C510.974 14.8115 512.222 14.2833 513.48 13.7704L513.103 12.8443L512.726 11.9183C511.45 12.438 510.186 12.9733 508.934 13.5237L509.336 14.4391ZM516.912 11.3516L517.264 12.2875C518.527 11.8116 519.802 11.3509 521.086 10.9056L520.759 9.9608L520.431 9.01597C519.13 9.46702 517.839 9.93373 516.559 10.4158L516.912 11.3516ZM524.641 8.67161L524.944 9.62468C526.231 9.21587 527.527 8.82234 528.834 8.44438L528.556 7.4838L528.278 6.52321C526.955 6.90595 525.642 7.30448 524.338 7.71853L524.641 8.67161ZM532.499 6.39708L532.753 7.36447C534.059 7.02235 535.375 6.69566 536.699 6.38467L536.47 5.41117L536.241 4.43767C534.901 4.75252 533.569 5.08328 532.246 5.4297L532.499 6.39708ZM540.464 4.52573L540.668 5.50467C541.99 5.22885 543.321 4.96858 544.658 4.72413L544.479 3.74042L544.299 2.75671C542.945 3.00414 541.598 3.26759 540.26 3.5468L540.464 4.52573ZM548.512 3.05487L548.667 4.04271C550.002 3.83275 551.343 3.63844 552.692 3.46003L552.56 2.46867L552.429 1.47731C551.065 1.65786 549.707 1.85452 548.356 2.06702L548.512 3.05487ZM556.622 1.9814L556.729 2.97566C558.072 2.83102 559.422 2.70211 560.777 2.58916L560.694 1.59261L560.611 0.596069C559.24 0.710352 557.874 0.840792 556.515 0.987149L556.622 1.9814ZM564.775 1.30182L564.834 2.30006C566.183 2.22015 567.537 2.156 568.897 2.10786L568.861 1.10848L568.826 0.109109C567.45 0.157813 566.08 0.222709 564.716 0.303566L564.775 1.30182ZM572.951 1.01206L572.963 2.01199C573.641 2.00401 574.32 2 575 2V1V0C574.312 0 573.625 0.00405151 572.939 0.0121266L572.951 1.01206ZM575 1V2C575.68 2 576.359 2.00401 577.037 2.01199L577.049 1.01206L577.061 0.0121269C576.375 0.00405163 575.688 0 575 0V1ZM581.139 1.10848L581.104 2.10786C582.463 2.156 583.817 2.22015 585.166 2.30007L585.225 1.30182L585.284 0.303567C583.92 0.22271 582.55 0.157814 581.174 0.10911L581.139 1.10848ZM589.306 1.59262L589.223 2.58916C590.578 2.70211 591.928 2.83102 593.271 2.97566L593.378 1.98141L593.485 0.987152C592.126 0.840795 590.76 0.710354 589.389 0.59607L589.306 1.59262ZM597.44 2.46867L597.309 3.46003C598.657 3.63844 599.998 3.83275 601.333 4.04272L601.488 3.05487L601.644 2.06702C600.293 1.85452 598.935 1.65787 597.571 1.47731L597.44 2.46867ZM605.521 3.74043L605.342 4.72414C606.679 4.96859 608.01 5.22885 609.332 5.50467L609.536 4.52574L609.74 3.5468C608.402 3.26759 607.055 3.00414 605.701 2.75671L605.521 3.74043ZM613.53 5.41118L613.301 6.38467C614.625 6.69566 615.941 7.02235 617.247 7.36448L617.501 6.39709L617.754 5.4297C616.431 5.08329 615.099 4.75253 613.759 4.43768L613.53 5.41118ZM621.444 7.4838L621.166 8.44439C622.473 8.82234 623.769 9.21587 625.056 9.62469L625.359 8.67161L625.662 7.71854C624.358 7.30449 623.045 6.90595 621.722 6.52321L621.444 7.4838ZM629.241 9.96081L628.914 10.9056C630.198 11.3509 631.473 11.8116 632.736 12.2875L633.089 11.3516L633.441 10.4158C632.161 9.93374 630.87 9.46703 629.569 9.01597L629.241 9.96081ZM636.897 12.8443L636.52 13.7704C637.778 14.2833 639.026 14.8115 640.261 15.3546L640.664 14.4391L641.066 13.5237C639.814 12.9733 638.55 12.438 637.274 11.9183L636.897 12.8443ZM644.385 16.1362L643.958 17.0403C645.187 17.6211 646.403 18.2169 647.606 18.8274L648.058 17.9357L648.511 17.0439C647.291 16.4249 646.058 15.8209 644.813 15.2321L644.385 16.1362ZM651.68 19.8381L651.202 20.7167C652.396 21.3659 653.577 22.0299 654.744 22.7084L655.246 21.844L655.749 20.9795C654.566 20.2913 653.368 19.6179 652.157 18.9595L651.68 19.8381ZM658.753 23.9526L658.225 24.8019C659.379 25.5192 660.518 26.2511 661.642 26.9972L662.195 26.164L662.748 25.3309C661.607 24.5737 660.452 23.8311 659.281 23.1033L658.753 23.9526ZM665.569 28.4781L664.991 29.294C666.099 30.0793 667.191 30.8788 668.266 31.6921L668.869 30.8946L669.473 30.097C668.381 29.2711 667.272 28.4593 666.147 27.6622L665.569 28.4781ZM672.092 33.4132L671.464 34.1912C672.52 35.044 673.559 35.9106 674.579 36.7907L675.232 36.0335L675.885 35.2762C674.848 34.3819 673.793 33.5014 672.72 32.6352L672.092 33.4132ZM678.286 38.7558L677.608 39.491C678.606 40.4112 679.585 41.3449 680.545 42.2916L681.247 41.5798L681.949 40.868C680.974 39.9052 679.978 38.9559 678.963 38.0206L678.286 38.7558ZM685.5 46L682.923 34.7442L674.464 42.6037L685.5 46ZM464.5 46L465.239 46.6742C465.693 46.1763 466.153 45.6817 466.617 45.1902L465.891 44.5032L465.164 43.8161C464.691 44.316 464.224 44.8193 463.761 45.3258L464.5 46ZM468.753 41.5798L469.455 42.2916C470.415 41.3449 471.394 40.4112 472.392 39.491L471.714 38.7558L471.037 38.0205C470.022 38.9559 469.027 39.9052 468.051 40.8679L468.753 41.5798ZM474.768 36.0334L475.421 36.7907C476.441 35.9106 477.48 35.044 478.536 34.1912L477.908 33.4132L477.28 32.6351C476.207 33.5014 475.152 34.3818 474.115 35.2762L474.768 36.0334ZM481.131 30.8946L481.734 31.6921C482.809 30.8788 483.901 30.0793 485.009 29.294L484.431 28.4781L483.853 27.6622C482.728 28.4593 481.619 29.2711 480.527 30.097L481.131 30.8946ZM487.805 26.164L488.358 26.9972C489.482 26.2511 490.621 25.5192 491.775 24.8019L491.247 23.9526L490.719 23.1033C489.548 23.8311 488.393 24.5737 487.252 25.3309L487.805 26.164ZM494.754 21.8439L495.257 22.7084C496.423 22.0299 497.604 21.3659 498.798 20.7167L498.32 19.8381L497.843 18.9595C496.632 19.6179 495.434 20.2913 494.251 20.9795L494.754 21.8439ZM501.942 17.9357L502.394 18.8274C503.597 18.2169 504.813 17.6211 506.042 17.0403L505.615 16.1362L505.187 15.2321C503.942 15.8209 502.709 16.4249 501.489 17.0439L501.942 17.9357ZM509.336 14.4391L509.739 15.3546C510.974 14.8115 512.222 14.2833 513.48 13.7704L513.103 12.8443L512.726 11.9183C511.45 12.438 510.186 12.9733 508.934 13.5237L509.336 14.4391ZM516.912 11.3516L517.264 12.2875C518.527 11.8116 519.802 11.3509 521.086 10.9056L520.759 9.9608L520.431 9.01597C519.13 9.46702 517.839 9.93373 516.559 10.4158L516.912 11.3516ZM524.641 8.67161L524.944 9.62468C526.231 9.21587 527.527 8.82234 528.834 8.44438L528.556 7.4838L528.278 6.52321C526.955 6.90595 525.642 7.30448 524.338 7.71853L524.641 8.67161ZM532.499 6.39708L532.753 7.36447C534.059 7.02235 535.375 6.69566 536.699 6.38467L536.47 5.41117L536.241 4.43767C534.901 4.75252 533.569 5.08328 532.246 5.4297L532.499 6.39708ZM540.464 4.52573L540.668 5.50467C541.99 5.22885 543.321 4.96858 544.658 4.72413L544.479 3.74042L544.299 2.75671C542.945 3.00414 541.598 3.26759 540.26 3.5468L540.464 4.52573ZM548.512 3.05487L548.667 4.04271C550.002 3.83275 551.343 3.63844 552.692 3.46003L552.56 2.46867L552.429 1.47731C551.065 1.65786 549.707 1.85452 548.356 2.06702L548.512 3.05487ZM556.622 1.9814L556.729 2.97566C558.072 2.83102 559.422 2.70211 560.777 2.58916L560.694 1.59261L560.611 0.596069C559.24 0.710352 557.874 0.840792 556.515 0.987149L556.622 1.9814ZM564.775 1.30182L564.834 2.30006C566.183 2.22015 567.537 2.156 568.897 2.10786L568.861 1.10848L568.826 0.109109C567.45 0.157813 566.08 0.222709 564.716 0.303566L564.775 1.30182ZM572.951 1.01206L572.963 2.01199C573.641 2.00401 574.32 2 575 2V1V0C574.312 0 573.625 0.00405151 572.939 0.0121266L572.951 1.01206ZM575 1V2C575.68 2 576.359 2.00401 577.037 2.01199L577.049 1.01206L577.061 0.0121269C576.375 0.00405163 575.688 0 575 0V1ZM581.139 1.10848L581.104 2.10786C582.463 2.156 583.817 2.22015 585.166 2.30007L585.225 1.30182L585.284 0.303567C583.92 0.22271 582.55 0.157814 581.174 0.10911L581.139 1.10848ZM589.306 1.59262L589.223 2.58916C590.578 2.70211 591.928 2.83102 593.271 2.97566L593.378 1.98141L593.485 0.987152C592.126 0.840795 590.76 0.710354 589.389 0.59607L589.306 1.59262ZM597.44 2.46867L597.309 3.46003C598.657 3.63844 599.998 3.83275 601.333 4.04272L601.488 3.05487L601.644 2.06702C600.293 1.85452 598.935 1.65787 597.571 1.47731L597.44 2.46867ZM605.521 3.74043L605.342 4.72414C606.679 4.96859 608.01 5.22885 609.332 5.50467L609.536 4.52574L609.74 3.5468C608.402 3.26759 607.055 3.00414 605.701 2.75671L605.521 3.74043ZM613.53 5.41118L613.301 6.38467C614.625 6.69566 615.941 7.02235 617.247 7.36448L617.501 6.39709L617.754 5.4297C616.431 5.08329 615.099 4.75253 613.759 4.43768L613.53 5.41118ZM621.444 7.4838L621.166 8.44439C622.473 8.82234 623.769 9.21587 625.056 9.62469L625.359 8.67161L625.662 7.71854C624.358 7.30449 623.045 6.90595 621.722 6.52321L621.444 7.4838ZM629.241 9.96081L628.914 10.9056C630.198 11.3509 631.473 11.8116 632.736 12.2875L633.089 11.3516L633.441 10.4158C632.161 9.93374 630.87 9.46703 629.569 9.01597L629.241 9.96081ZM636.897 12.8443L636.52 13.7704C637.778 14.2833 639.026 14.8115 640.261 15.3546L640.664 14.4391L641.066 13.5237C639.814 12.9733 638.55 12.438 637.274 11.9183L636.897 12.8443ZM644.385 16.1362L643.958 17.0403C645.187 17.6211 646.403 18.2169 647.606 18.8274L648.058 17.9357L648.511 17.0439C647.291 16.4249 646.058 15.8209 644.813 15.2321L644.385 16.1362ZM651.68 19.8381L651.202 20.7167C652.396 21.3659 653.577 22.0299 654.744 22.7084L655.246 21.844L655.749 20.9795C654.566 20.2913 653.368 19.6179 652.157 18.9595L651.68 19.8381ZM658.753 23.9526L658.225 24.8019C659.379 25.5192 660.518 26.2511 661.642 26.9972L662.195 26.164L662.748 25.3309C661.607 24.5737 660.452 23.8311 659.281 23.1033L658.753 23.9526ZM665.569 28.4781L664.991 29.294C666.099 30.0793 667.191 30.8788 668.266 31.6921L668.869 30.8946L669.473 30.097C668.381 29.2711 667.272 28.4593 666.147 27.6622L665.569 28.4781ZM672.092 33.4132L671.464 34.1912C672.52 35.044 673.559 35.9106 674.579 36.7907L675.232 36.0335L675.885 35.2762C674.848 34.3819 673.793 33.5014 672.72 32.6352L672.092 33.4132ZM678.286 38.7558L677.608 39.491C678.606 40.4112 679.585 41.3449 680.545 42.2916L681.247 41.5798L681.949 40.868C680.974 39.9052 679.978 38.9559 678.963 38.0206L678.286 38.7558Z" fill="#E6007E"/>
<path d="M910.5 46L907.923 34.7442L899.464 42.6037L910.5 46ZM689.5 46L690.239 46.6742C690.693 46.1763 691.153 45.6817 691.617 45.1902L690.891 44.5032L690.164 43.8161C689.691 44.316 689.224 44.8193 688.761 45.3258L689.5 46ZM693.753 41.5798L694.455 42.2916C695.415 41.3449 696.394 40.4112 697.392 39.491L696.714 38.7558L696.037 38.0205C695.022 38.9559 694.027 39.9052 693.051 40.8679L693.753 41.5798ZM699.768 36.0334L700.421 36.7907C701.441 35.9106 702.48 35.044 703.536 34.1912L702.908 33.4132L702.28 32.6351C701.207 33.5014 700.152 34.3818 699.115 35.2762L699.768 36.0334ZM706.131 30.8946L706.734 31.6921C707.809 30.8788 708.901 30.0793 710.009 29.294L709.431 28.4781L708.853 27.6622C707.728 28.4593 706.619 29.2711 705.527 30.097L706.131 30.8946ZM712.805 26.164L713.358 26.9972C714.482 26.2511 715.621 25.5192 716.775 24.8019L716.247 23.9526L715.719 23.1033C714.548 23.8311 713.393 24.5737 712.252 25.3309L712.805 26.164ZM719.754 21.8439L720.257 22.7084C721.423 22.0299 722.604 21.3659 723.798 20.7167L723.32 19.8381L722.843 18.9595C721.632 19.6179 720.434 20.2913 719.251 20.9795L719.754 21.8439ZM726.942 17.9357L727.394 18.8274C728.597 18.2169 729.813 17.6211 731.042 17.0403L730.615 16.1362L730.187 15.2321C728.942 15.8209 727.709 16.4249 726.489 17.0439L726.942 17.9357ZM734.336 14.4391L734.739 15.3546C735.974 14.8115 737.222 14.2833 738.48 13.7704L738.103 12.8443L737.726 11.9183C736.45 12.438 735.186 12.9733 733.934 13.5237L734.336 14.4391ZM741.912 11.3516L742.264 12.2875C743.527 11.8116 744.802 11.3509 746.086 10.9056L745.759 9.9608L745.431 9.01597C744.13 9.46702 742.839 9.93373 741.559 10.4158L741.912 11.3516ZM749.641 8.67161L749.944 9.62468C751.231 9.21587 752.527 8.82234 753.834 8.44438L753.556 7.4838L753.278 6.52321C751.955 6.90595 750.642 7.30448 749.338 7.71853L749.641 8.67161ZM757.499 6.39708L757.753 7.36447C759.059 7.02235 760.375 6.69566 761.699 6.38467L761.47 5.41117L761.241 4.43767C759.901 4.75252 758.569 5.08328 757.246 5.4297L757.499 6.39708ZM765.464 4.52573L765.668 5.50467C766.99 5.22885 768.321 4.96858 769.658 4.72413L769.479 3.74042L769.299 2.75671C767.945 3.00414 766.598 3.26759 765.26 3.5468L765.464 4.52573ZM773.512 3.05487L773.667 4.04271C775.002 3.83275 776.343 3.63844 777.692 3.46003L777.56 2.46867L777.429 1.47731C776.065 1.65786 774.707 1.85452 773.356 2.06702L773.512 3.05487ZM781.622 1.9814L781.729 2.97566C783.072 2.83102 784.422 2.70211 785.777 2.58916L785.694 1.59261L785.611 0.596069C784.24 0.710352 782.874 0.840792 781.515 0.987149L781.622 1.9814ZM789.775 1.30182L789.834 2.30006C791.183 2.22015 792.537 2.156 793.897 2.10786L793.861 1.10848L793.826 0.109109C792.45 0.157813 791.08 0.222709 789.716 0.303566L789.775 1.30182ZM797.951 1.01206L797.963 2.01199C798.641 2.00401 799.32 2 800 2V1V0C799.312 0 798.625 0.00405151 797.939 0.0121266L797.951 1.01206ZM800 1V2C800.68 2 801.359 2.00401 802.037 2.01199L802.049 1.01206L802.061 0.0121269C801.375 0.00405163 800.688 0 800 0V1ZM806.139 1.10848L806.104 2.10786C807.463 2.156 808.817 2.22015 810.166 2.30007L810.225 1.30182L810.284 0.303567C808.92 0.22271 807.55 0.157814 806.174 0.10911L806.139 1.10848ZM814.306 1.59262L814.223 2.58916C815.578 2.70211 816.928 2.83102 818.271 2.97566L818.378 1.98141L818.485 0.987152C817.126 0.840795 815.76 0.710354 814.389 0.59607L814.306 1.59262ZM822.44 2.46867L822.309 3.46003C823.657 3.63844 824.998 3.83275 826.333 4.04272L826.488 3.05487L826.644 2.06702C825.293 1.85452 823.935 1.65787 822.571 1.47731L822.44 2.46867ZM830.521 3.74043L830.342 4.72414C831.679 4.96859 833.01 5.22885 834.332 5.50467L834.536 4.52574L834.74 3.5468C833.402 3.26759 832.055 3.00414 830.701 2.75671L830.521 3.74043ZM838.53 5.41118L838.301 6.38467C839.625 6.69566 840.941 7.02235 842.247 7.36448L842.501 6.39709L842.754 5.4297C841.431 5.08329 840.099 4.75253 838.759 4.43768L838.53 5.41118ZM846.444 7.4838L846.166 8.44439C847.473 8.82234 848.769 9.21587 850.056 9.62469L850.359 8.67161L850.662 7.71854C849.358 7.30449 848.045 6.90595 846.722 6.52321L846.444 7.4838ZM854.241 9.96081L853.914 10.9056C855.198 11.3509 856.473 11.8116 857.736 12.2875L858.089 11.3516L858.441 10.4158C857.161 9.93374 855.87 9.46703 854.569 9.01597L854.241 9.96081ZM861.897 12.8443L861.52 13.7704C862.778 14.2833 864.026 14.8115 865.261 15.3546L865.664 14.4391L866.066 13.5237C864.814 12.9733 863.55 12.438 862.274 11.9183L861.897 12.8443ZM869.385 16.1362L868.958 17.0403C870.187 17.6211 871.403 18.2169 872.606 18.8274L873.058 17.9357L873.511 17.0439C872.291 16.4249 871.058 15.8209 869.813 15.2321L869.385 16.1362ZM876.68 19.8381L876.202 20.7167C877.396 21.3659 878.577 22.0299 879.744 22.7084L880.246 21.844L880.749 20.9795C879.566 20.2913 878.368 19.6179 877.157 18.9595L876.68 19.8381ZM883.753 23.9526L883.225 24.8019C884.379 25.5192 885.518 26.2511 886.642 26.9972L887.195 26.164L887.748 25.3309C886.607 24.5737 885.452 23.8311 884.281 23.1033L883.753 23.9526ZM890.569 28.4781L889.991 29.294C891.099 30.0793 892.191 30.8788 893.266 31.6921L893.869 30.8946L894.473 30.097C893.381 29.2711 892.272 28.4593 891.147 27.6622L890.569 28.4781ZM897.092 33.4132L896.464 34.1912C897.52 35.044 898.559 35.9106 899.579 36.7907L900.232 36.0335L900.885 35.2762C899.848 34.3819 898.793 33.5014 897.72 32.6352L897.092 33.4132ZM903.286 38.7558L902.608 39.491C903.606 40.4112 904.585 41.3449 905.545 42.2916L906.247 41.5798L906.949 40.868C905.974 39.9052 904.978 38.9559 903.963 38.0206L903.286 38.7558ZM910.5 46L907.923 34.7442L899.464 42.6037L910.5 46ZM689.5 46L690.239 46.6742C690.693 46.1763 691.153 45.6817 691.617 45.1902L690.891 44.5032L690.164 43.8161C689.691 44.316 689.224 44.8193 688.761 45.3258L689.5 46ZM693.753 41.5798L694.455 42.2916C695.415 41.3449 696.394 40.4112 697.392 39.491L696.714 38.7558L696.037 38.0205C695.022 38.9559 694.027 39.9052 693.051 40.8679L693.753 41.5798ZM699.768 36.0334L700.421 36.7907C701.441 35.9106 702.48 35.044 703.536 34.1912L702.908 33.4132L702.28 32.6351C701.207 33.5014 700.152 34.3818 699.115 35.2762L699.768 36.0334ZM706.131 30.8946L706.734 31.6921C707.809 30.8788 708.901 30.0793 710.009 29.294L709.431 28.4781L708.853 27.6622C707.728 28.4593 706.619 29.2711 705.527 30.097L706.131 30.8946ZM712.805 26.164L713.358 26.9972C714.482 26.2511 715.621 25.5192 716.775 24.8019L716.247 23.9526L715.719 23.1033C714.548 23.8311 713.393 24.5737 712.252 25.3309L712.805 26.164ZM719.754 21.8439L720.257 22.7084C721.423 22.0299 722.604 21.3659 723.798 20.7167L723.32 19.8381L722.843 18.9595C721.632 19.6179 720.434 20.2913 719.251 20.9795L719.754 21.8439ZM726.942 17.9357L727.394 18.8274C728.597 18.2169 729.813 17.6211 731.042 17.0403L730.615 16.1362L730.187 15.2321C728.942 15.8209 727.709 16.4249 726.489 17.0439L726.942 17.9357ZM734.336 14.4391L734.739 15.3546C735.974 14.8115 737.222 14.2833 738.48 13.7704L738.103 12.8443L737.726 11.9183C736.45 12.438 735.186 12.9733 733.934 13.5237L734.336 14.4391ZM741.912 11.3516L742.264 12.2875C743.527 11.8116 744.802 11.3509 746.086 10.9056L745.759 9.9608L745.431 9.01597C744.13 9.46702 742.839 9.93373 741.559 10.4158L741.912 11.3516ZM749.641 8.67161L749.944 9.62468C751.231 9.21587 752.527 8.82234 753.834 8.44438L753.556 7.4838L753.278 6.52321C751.955 6.90595 750.642 7.30448 749.338 7.71853L749.641 8.67161ZM757.499 6.39708L757.753 7.36447C759.059 7.02235 760.375 6.69566 761.699 6.38467L761.47 5.41117L761.241 4.43767C759.901 4.75252 758.569 5.08328 757.246 5.4297L757.499 6.39708ZM765.464 4.52573L765.668 5.50467C766.99 5.22885 768.321 4.96858 769.658 4.72413L769.479 3.74042L769.299 2.75671C767.945 3.00414 766.598 3.26759 765.26 3.5468L765.464 4.52573ZM773.512 3.05487L773.667 4.04271C775.002 3.83275 776.343 3.63844 777.692 3.46003L777.56 2.46867L777.429 1.47731C776.065 1.65786 774.707 1.85452 773.356 2.06702L773.512 3.05487ZM781.622 1.9814L781.729 2.97566C783.072 2.83102 784.422 2.70211 785.777 2.58916L785.694 1.59261L785.611 0.596069C784.24 0.710352 782.874 0.840792 781.515 0.987149L781.622 1.9814ZM789.775 1.30182L789.834 2.30006C791.183 2.22015 792.537 2.156 793.897 2.10786L793.861 1.10848L793.826 0.109109C792.45 0.157813 791.08 0.222709 789.716 0.303566L789.775 1.30182ZM797.951 1.01206L797.963 2.01199C798.641 2.00401 799.32 2 800 2V1V0C799.312 0 798.625 0.00405151 797.939 0.0121266L797.951 1.01206ZM800 1V2C800.68 2 801.359 2.00401 802.037 2.01199L802.049 1.01206L802.061 0.0121269C801.375 0.00405163 800.688 0 800 0V1ZM806.139 1.10848L806.104 2.10786C807.463 2.156 808.817 2.22015 810.166 2.30007L810.225 1.30182L810.284 0.303567C808.92 0.22271 807.55 0.157814 806.174 0.10911L806.139 1.10848ZM814.306 1.59262L814.223 2.58916C815.578 2.70211 816.928 2.83102 818.271 2.97566L818.378 1.98141L818.485 0.987152C817.126 0.840795 815.76 0.710354 814.389 0.59607L814.306 1.59262ZM822.44 2.46867L822.309 3.46003C823.657 3.63844 824.998 3.83275 826.333 4.04272L826.488 3.05487L826.644 2.06702C825.293 1.85452 823.935 1.65787 822.571 1.47731L822.44 2.46867ZM830.521 3.74043L830.342 4.72414C831.679 4.96859 833.01 5.22885 834.332 5.50467L834.536 4.52574L834.74 3.5468C833.402 3.26759 832.055 3.00414 830.701 2.75671L830.521 3.74043ZM838.53 5.41118L838.301 6.38467C839.625 6.69566 840.941 7.02235 842.247 7.36448L842.501 6.39709L842.754 5.4297C841.431 5.08329 840.099 4.75253 838.759 4.43768L838.53 5.41118ZM846.444 7.4838L846.166 8.44439C847.473 8.82234 848.769 9.21587 850.056 9.62469L850.359 8.67161L850.662 7.71854C849.358 7.30449 848.045 6.90595 846.722 6.52321L846.444 7.4838ZM854.241 9.96081L853.914 10.9056C855.198 11.3509 856.473 11.8116 857.736 12.2875L858.089 11.3516L858.441 10.4158C857.161 9.93374 855.87 9.46703 854.569 9.01597L854.241 9.96081ZM861.897 12.8443L861.52 13.7704C862.778 14.2833 864.026 14.8115 865.261 15.3546L865.664 14.4391L866.066 13.5237C864.814 12.9733 863.55 12.438 862.274 11.9183L861.897 12.8443ZM869.385 16.1362L868.958 17.0403C870.187 17.6211 871.403 18.2169 872.606 18.8274L873.058 17.9357L873.511 17.0439C872.291 16.4249 871.058 15.8209 869.813 15.2321L869.385 16.1362ZM876.68 19.8381L876.202 20.7167C877.396 21.3659 878.577 22.0299 879.744 22.7084L880.246 21.844L880.749 20.9795C879.566 20.2913 878.368 19.6179 877.157 18.9595L876.68 19.8381ZM883.753 23.9526L883.225 24.8019C884.379 25.5192 885.518 26.2511 886.642 26.9972L887.195 26.164L887.748 25.3309C886.607 24.5737 885.452 23.8311 884.281 23.1033L883.753 23.9526ZM890.569 28.4781L889.991 29.294C891.099 30.0793 892.191 30.8788 893.266 31.6921L893.869 30.8946L894.473 30.097C893.381 29.2711 892.272 28.4593 891.147 27.6622L890.569 28.4781ZM897.092 33.4132L896.464 34.1912C897.52 35.044 898.559 35.9106 899.579 36.7907L900.232 36.0335L900.885 35.2762C899.848 34.3819 898.793 33.5014 897.72 32.6352L897.092 33.4132ZM903.286 38.7558L902.608 39.491C903.606 40.4112 904.585 41.3449 905.545 42.2916L906.247 41.5798L906.949 40.868C905.974 39.9052 904.978 38.9559 903.963 38.0206L903.286 38.7558Z" fill="#E6007E"/>
<path d="M11.5 34V69" stroke="#222222" stroke-width="2"/>
<path d="M43.7666 42.5V60.5" stroke="#222222" stroke-width="2"/>
<path d="M76.0332 42.5V60.5" stroke="#222222" stroke-width="2"/>
<path d="M108.3 42.5V60.5" stroke="#222222" stroke-width="2"/>
<path d="M140.566 42.5V60.5" stroke="#222222" stroke-width="2"/>
<path d="M172.833 39V64" stroke="#222222" stroke-width="2"/>
<path d="M205.1 42.5V60.5" stroke="#222222" stroke-width="2"/>
<path d="M237.366 42.5V60.5" stroke="#222222" stroke-width="2"/>
<path d="M269.634 42.5V60.5" stroke="#222222" stroke-width="2"/>
<path d="M301.9 42.5V60.5" stroke="#222222" stroke-width="2"/>
<path d="M334.167 34V69" stroke="#222222" stroke-width="2"/>
<path d="M366.434 42.5V60.5" stroke="#222222" stroke-width="2"/>
<path d="M398.7 42.5V60.5" stroke="#222222" stroke-width="2"/>
<path d="M430.967 42.5V60.5" stroke="#222222" stroke-width="2"/>
<path d="M463.233 42.5V60.5" stroke="#222222" stroke-width="2"/>
<path d="M495.5 39V64" stroke="#222222" stroke-width="2"/>
<path d="M527.767 42.5V60.5" stroke="#222222" stroke-width="2"/>
<path d="M560.033 42.5V60.5" stroke="#222222" stroke-width="2"/>
<path d="M592.3 42.5V60.5" stroke="#222222" stroke-width="2"/>
<path d="M624.566 42.5V60.5" stroke="#222222" stroke-width="2"/>
<path d="M656.833 34V69" stroke="#222222" stroke-width="2"/>
<path d="M689.1 42.5V60.5" stroke="#222222" stroke-width="2"/>
<path d="M721.366 42.5V60.5" stroke="#222222" stroke-width="2"/>
<path d="M753.633 42.5V60.5" stroke="#222222" stroke-width="2"/>
<path d="M785.9 42.5V60.5" stroke="#222222" stroke-width="2"/>
<path d="M818.167 39V64" stroke="#222222" stroke-width="2"/>
<path d="M850.434 42.5V60.5" stroke="#222222" stroke-width="2"/>
<path d="M882.7 42.5V60.5" stroke="#222222" stroke-width="2"/>
<path d="M914.967 42.5V60.5" stroke="#222222" stroke-width="2"/>
<path d="M947.233 42.5V60.5" stroke="#222222" stroke-width="2"/>
<path d="M979.5 34V69" stroke="#222222" stroke-width="2"/>
<path d="M11.5 52H1015.5" stroke="#222222" stroke-width="2"/>
<path d="M10.5 112.312C5.48438 112.312 2.57812 108.094 2.59375 100.688C2.57812 93.3438 5.51562 89.0625 10.5 89.0625C15.4688 89.0625 18.4062 93.3438 18.4062 100.688C18.4062 108.094 15.5156 112.312 10.5 112.312ZM5.3125 100.688C5.32812 106.547 7.21875 109.812 10.5 109.812C13.7656 109.812 15.6719 106.547 15.6562 100.688C15.6719 94.8281 13.75 91.5156 10.5 91.5C7.25 91.5156 5.32812 94.8281 5.3125 100.688Z" fill="#222222"/>
<path d="M337.109 89.375V112H334.266V92.3125H334.141L328.641 95.9688V93.125L334.266 89.375H337.109Z" fill="#222222"/>
<path d="M649.734 112L649.703 109.938L657.422 101.812C660.094 98.9688 661.375 97.4375 661.391 95.3438C661.375 93.0156 659.438 91.5156 656.891 91.5C654.188 91.5156 652.5 93.2188 652.484 95.75H649.828C649.797 91.75 652.891 89.0625 656.984 89.0625C661.094 89.0625 664 91.8281 664.016 95.3438C664 97.875 662.828 99.8438 658.828 103.969L653.641 109.312V109.5H664.422V112H649.734Z" fill="#222222"/>
<path d="M982.562 112.312C978.062 112.312 974.828 109.906 974.688 106.312H977.531C977.688 108.469 979.828 109.812 982.531 109.812C985.516 109.812 987.672 108.203 987.688 105.844C987.672 103.375 985.703 101.641 982.188 101.625H980.344V99.1562H982.188C984.938 99.1562 986.859 97.6094 986.844 95.2812C986.859 93.0156 985.203 91.5156 982.625 91.5C980.203 91.5156 978 92.8438 977.875 95.0625H975.156C975.297 91.4688 978.641 89.0625 982.656 89.0625C986.969 89.0625 989.594 91.8906 989.562 95.125C989.594 97.7031 988.094 99.5781 985.719 100.25V100.406C988.672 100.859 990.453 102.969 990.438 105.844C990.453 109.562 987.078 112.312 982.562 112.312Z" fill="#222222"/>
</svg>
