<svg width="98" height="178" viewBox="0 0 98 178" fill="none" xmlns="http://www.w3.org/2000/svg">
<path d="M1 114.637V135H97V1" stroke="#22B24C" stroke-width="2" stroke-linecap="round"/>
<path d="M50.9375 166.031C48.7083 166.031 46.651 165.474 44.7656 164.359C42.8802 163.245 41.3854 161.745 40.2812 159.859C39.1771 157.974 38.625 155.917 38.625 153.688C38.625 151.458 39.1771 149.401 40.2812 147.516C41.3854 145.63 42.8802 144.13 44.7656 143.016C46.651 141.901 48.7083 141.344 50.9375 141.344C53.1667 141.344 55.224 141.901 57.1094 143.016C59.0052 144.13 60.5052 145.63 61.6094 147.516C62.724 149.401 63.2812 151.458 63.2812 153.688C63.2812 155.917 62.724 157.974 61.6094 159.859C60.5052 161.745 59.0052 163.245 57.1094 164.359C55.224 165.474 53.1667 166.031 50.9375 166.031ZM41 153.688C41 155.479 41.4479 157.141 42.3438 158.672C43.2396 160.193 44.4479 161.401 45.9688 162.297C47.4896 163.182 49.1458 163.625 50.9375 163.625C52.7396 163.625 54.401 163.182 55.9219 162.297C57.4427 161.401 58.651 160.193 59.5469 158.672C60.4531 157.151 60.9062 155.49 60.9062 153.688C60.9062 151.885 60.4531 150.224 59.5469 148.703C58.651 147.182 57.4427 145.979 55.9219 145.094C54.401 144.198 52.7396 143.75 50.9375 143.75C49.1458 143.75 47.4896 144.198 45.9688 145.094C44.4479 145.979 43.2396 147.182 42.3438 148.703C41.4479 150.224 41 151.885 41 153.688ZM49.0312 156.125C49.0417 156.552 49.2292 156.896 49.5938 157.156C49.9583 157.417 50.4167 157.552 50.9688 157.562C51.5417 157.552 52.0104 157.401 52.375 157.109C52.7396 156.818 52.9271 156.448 52.9375 156C52.9271 155.521 52.724 155.135 52.3281 154.844C51.9427 154.542 51.4167 154.396 50.75 154.406H49.7812V152.75H50.75C51.3229 152.75 51.7812 152.609 52.125 152.328C52.4792 152.047 52.6562 151.677 52.6562 151.219C52.6562 150.792 52.5052 150.448 52.2031 150.188C51.901 149.917 51.5 149.781 51 149.781C50.4792 149.781 50.0365 149.911 49.6719 150.172C49.3177 150.432 49.1354 150.781 49.125 151.219H47.0312C47.0417 150.604 47.224 150.057 47.5781 149.578C47.9323 149.089 48.4062 148.708 49 148.438C49.6042 148.167 50.2708 148.031 51 148.031C51.7396 148.031 52.3906 148.167 52.9531 148.438C53.526 148.698 53.9688 149.062 54.2812 149.531C54.5938 149.99 54.75 150.5 54.75 151.062C54.75 151.698 54.5625 152.229 54.1875 152.656C53.8125 153.083 53.3125 153.354 52.6875 153.469V153.562C53.4792 153.656 54.0938 153.932 54.5312 154.391C54.9688 154.849 55.1875 155.427 55.1875 156.125C55.1875 156.74 55.0052 157.297 54.6406 157.797C54.2865 158.286 53.7865 158.672 53.1406 158.953C52.5052 159.234 51.7812 159.375 50.9688 159.375C50.1771 159.375 49.4688 159.234 48.8438 158.953C48.2188 158.672 47.7292 158.286 47.375 157.797C47.0208 157.307 46.8438 156.75 46.8438 156.125H49.0312Z" fill="#22B24C"/>
</svg>
