<svg width="71" height="116" viewBox="0 0 71 116" fill="none" xmlns="http://www.w3.org/2000/svg">
<path d="M1 1V70H70V59.9839" stroke="#00A0E9" stroke-width="2" stroke-linecap="round"/>
<path d="M35.9375 104.031C33.7083 104.031 31.651 103.474 29.7656 102.359C27.8802 101.245 26.3854 99.7448 25.2812 97.8594C24.1771 95.974 23.625 93.9167 23.625 91.6875C23.625 89.4583 24.1771 87.401 25.2812 85.5156C26.3854 83.6302 27.8802 82.1302 29.7656 81.0156C31.651 79.901 33.7083 79.3438 35.9375 79.3438C38.1667 79.3438 40.224 79.901 42.1094 81.0156C44.0052 82.1302 45.5052 83.6302 46.6094 85.5156C47.724 87.401 48.2812 89.4583 48.2812 91.6875C48.2812 93.9167 47.724 95.974 46.6094 97.8594C45.5052 99.7448 44.0052 101.245 42.1094 102.359C40.224 103.474 38.1667 104.031 35.9375 104.031ZM26 91.6875C26 93.4792 26.4479 95.1406 27.3438 96.6719C28.2396 98.1927 29.4479 99.401 30.9688 100.297C32.4896 101.182 34.1458 101.625 35.9375 101.625C37.7396 101.625 39.401 101.182 40.9219 100.297C42.4427 99.401 43.651 98.1927 44.5469 96.6719C45.4531 95.151 45.9062 93.4896 45.9062 91.6875C45.9062 89.8854 45.4531 88.224 44.5469 86.7031C43.651 85.1823 42.4427 83.9792 40.9219 83.0938C39.401 82.1979 37.7396 81.75 35.9375 81.75C34.1458 81.75 32.4896 82.1979 30.9688 83.0938C29.4479 83.9792 28.2396 85.1823 27.3438 86.7031C26.4479 88.224 26 89.8854 26 91.6875ZM32 89.4375C32 88.7396 32.1615 88.125 32.4844 87.5938C32.8073 87.0625 33.2604 86.6562 33.8438 86.375C34.4375 86.0833 35.1146 85.9375 35.875 85.9375C36.625 85.9375 37.2917 86.0781 37.875 86.3594C38.4688 86.6302 38.9271 87.0104 39.25 87.5C39.5833 87.9792 39.75 88.5312 39.75 89.1562C39.7396 89.5938 39.651 90.0104 39.4844 90.4062C39.3177 90.8021 39.026 91.2448 38.6094 91.7344C38.2031 92.224 37.625 92.8125 36.875 93.5L35.125 95.25V95.3438H39.9062V97.125H32.0938V95.5625L36.0312 91.8438C36.6146 91.2812 37.026 90.8229 37.2656 90.4688C37.5156 90.1146 37.6458 89.7292 37.6562 89.3125C37.6458 88.8125 37.474 88.4167 37.1406 88.125C36.8073 87.8333 36.375 87.6875 35.8438 87.6875C35.3021 87.6875 34.8698 87.8438 34.5469 88.1562C34.2344 88.4688 34.0833 88.8958 34.0938 89.4375H32Z" fill="#00A0E9"/>
</svg>
