<svg width="48" height="43" viewBox="0 0 48 43" fill="none" xmlns="http://www.w3.org/2000/svg">
<g clip-path="url(#clip0_10423_58082)">
<path fill-rule="evenodd" clip-rule="evenodd" d="M30.3671 1.74454C29.0248 0.291174 26.7585 0.201138 25.3051 1.54344C23.8517 2.88574 23.7617 5.15208 25.104 6.60545L31.8003 13.8558H7.75034C3.79355 13.8558 0.585938 17.0634 0.585938 21.0202C0.585938 24.977 3.79355 28.1846 7.75034 28.1846H31.807L25.1052 35.4337C23.7622 36.8863 23.8511 39.1527 25.3038 40.4958C26.7565 41.8388 29.0229 41.7499 30.3659 40.2972L45.9316 23.4604C47.2003 22.0882 47.2008 19.9711 45.9328 18.5982L30.3671 1.74454Z" fill="#6B9BD2"/>
</g>
<defs>
<clipPath id="clip0_10423_58082">
<rect width="46.9725" height="41.5526" fill="white" transform="translate(0.132812 0.59375)"/>
</clipPath>
</defs>
</svg>
