<svg width="137" height="105" viewBox="0 0 137 105" fill="none" xmlns="http://www.w3.org/2000/svg">
<path d="M0.34668 38.0854L84.276 40.4789V41.9682L1.03595 39.2024C0.736208 38.9404 0.500379 38.6128 0.34668 38.245" fill="#DDECFA"/>
<path d="M84.2225 41.9161V46.3307C82.7587 46.0877 81.2563 46.2632 79.8873 46.837C78.5183 47.4108 77.3381 48.3598 76.4818 49.5752C75.8977 50.4808 75.1177 51.2427 74.1999 51.8044C73.282 52.3661 72.2497 52.7131 71.1798 52.8197C69.3242 52.8197 20.3344 43.9373 10.844 42.5012C7.3826 42.2875 4.05368 41.0882 1.24756 39.0439L84.2225 41.9161Z" fill="#9EBFE2"/>
<path d="M82.8447 41.2235C82.8447 41.2235 82.8447 44.7871 82.8447 45.6913C82.8447 46.5955 82.8447 47.9252 85.5487 48.0316C88.2527 48.1379 103.681 49.5208 110.574 50.9037C117.466 52.2866 133.266 55.3715 135.652 47.4465C137.275 43.5747 137.379 39.2305 135.943 35.2849C134.508 31.3392 131.639 28.0838 127.911 26.1712C124.629 24.2747 120.858 23.4034 117.081 23.6687C113.303 23.934 109.69 25.3238 106.703 27.6605C102.886 31.3837 101.401 34.9473 97.372 37.0748C94.4779 38.6209 91.2032 39.3038 87.9346 39.0427C84.1172 39.0427 83.3749 40.0533 83.3219 41.3299M105.378 38.9364C105.696 31.49 112.429 28.2987 120.594 28.2987C125.154 28.2987 133.902 32.8729 133.531 40.3725C133.16 47.872 125.684 47.3401 120.753 47.0742C115.823 46.8082 104.848 46.1168 105.378 38.7236" fill="#008739"/>
<path d="M76.0041 60.9025L79.6094 57.3921C78.4419 56.4623 77.5625 55.2181 77.0743 53.8052C76.586 52.3923 76.5091 50.869 76.8524 49.4138C77.1363 48.3671 77.1837 47.2701 76.991 46.2026C76.7984 45.1352 76.3707 44.1244 75.739 43.244C74.4135 41.9675 35.2854 11.3311 28.0218 5.00171C25.5744 2.5292 22.4599 0.828335 19.0615 0.108398L76.0041 60.9025Z" fill="#CED9F0"/>
<path d="M17.7905 0.214868L75.4224 61.4876L77.6492 61.1685L19.2221 0.108489C18.8377 0.0250349 18.44 0.0250349 18.0556 0.108489" fill="#EEF3FC"/>
<path d="M76.3238 64.8375C78.7213 67.08 80.4005 69.9865 81.1485 73.1881C81.4623 77.6186 81.195 82.0712 80.3532 86.4319C80.5735 90.2745 81.9399 93.9621 84.2751 97.016C86.6102 100.07 89.8065 102.349 93.449 103.558C97.3938 105.111 101.779 105.101 105.717 103.531C109.655 101.961 112.851 98.9473 114.657 95.1016C118.898 88.0275 106.121 78.1877 100.501 73.8263C94.8805 69.4649 83.6404 58.9868 81.7317 57.0188C79.823 55.0509 78.7626 55.9551 78.1794 56.5933L74.9983 59.6783C74.097 60.5825 73.8319 61.8058 76.3238 64.678M104.318 83.7725C107.817 87.2829 113.225 92.4954 107.87 97.761C102.515 103.027 93.4489 99.3566 90.2678 96.1122C84.5417 90.2615 82.58 82.9747 87.8819 77.8154C93.1839 72.6562 100.872 80.2089 104.318 83.7725Z" fill="#008739"/>
</svg>
