<svg width="365" height="136" viewBox="0 0 365 136" fill="none" xmlns="http://www.w3.org/2000/svg">
<path d="M182.509 135.353C230.742 135.353 286.582 137.119 314.391 134.817C365.497 130.605 365 91.1904 365 64.6149C365 40.2106 360.58 17.2249 321.997 7.72948C294.519 0.969809 240.816 0 185.382 0C126.449 0 75.9503 0.37635 46.6862 4.22661C3.94112 9.84278 0 41.1225 0 64.6149C0 91.1904 2.92821 130.692 62.3404 133.558C91.5308 135.005 134.165 135.353 182.509 135.353Z" fill="#ECF6F3"/>
<path d="M354.822 78.6504C354.822 78.6504 353.789 125.648 309 130.834C309 130.834 358.322 137.764 354.822 78.6504Z" fill="white"/>
</svg>
