<svg width="115" height="48" viewBox="0 0 115 48" fill="none" xmlns="http://www.w3.org/2000/svg">
<path d="M16.4721 21C9.58587 21 4 26.1475 4 32.5C4 38.8495 9.58587 44 16.4721 44H88.5279C95.4174 44 101 38.8495 101 32.5C101 26.1475 95.4174 21 88.5279 21H16.4721Z" fill="#5BB8A1"/>
<mask id="path-2-outside-1_165_1235" maskUnits="userSpaceOnUse" x="15" y="6" width="55" height="35" fill="black">
<rect fill="white" x="15" y="6" width="55" height="35"/>
<path d="M29.9375 27.2188C31.8333 27.2188 33.4688 27.4219 34.8438 27.8281C36.2188 28.224 37.2708 28.8073 38 29.5781C38.7292 30.349 39.0938 31.2708 39.0938 32.3438C39.0938 33.4271 38.7292 34.3542 38 35.125C37.2708 35.9062 36.2188 36.5 34.8438 36.9062C33.4792 37.3125 31.8438 37.5208 29.9375 37.5312C28.0312 37.5208 26.3854 37.3125 25 36.9062C23.625 36.5 22.5677 35.9062 21.8281 35.125C21.0885 34.3542 20.7188 33.4271 20.7188 32.3438C20.7188 31.2708 21.0885 30.349 21.8281 29.5781C22.5677 28.8073 23.6302 28.224 25.0156 27.8281C26.401 27.4219 28.0417 27.2188 29.9375 27.2188ZM29.9375 29.1562C28.5417 29.1667 27.3333 29.3021 26.3125 29.5625C25.3021 29.8125 24.526 30.1771 23.9844 30.6562C23.4427 31.125 23.1771 31.6875 23.1875 32.3438C23.1771 33 23.4427 33.5677 23.9844 34.0469C24.526 34.526 25.3073 34.8906 26.3281 35.1406C27.349 35.401 28.5521 35.5312 29.9375 35.5312C31.3333 35.5312 32.5417 35.401 33.5625 35.1406C34.5833 34.8906 35.3646 34.526 35.9062 34.0469C36.4479 33.5677 36.7188 33 36.7188 32.3438C36.7188 31.6875 36.4479 31.125 35.9062 30.6562C35.3646 30.1771 34.5833 29.8125 33.5625 29.5625C32.5521 29.3021 31.3438 29.1667 29.9375 29.1562ZM38.8438 16.75H43.0312V18.8438H38.8438V26.4688H36.4062V9.75H38.8438V16.75ZM20.7188 15.75H28.8125V11.5H31.25V24.3125H18.3125V11.5H20.7188V15.75ZM28.8125 22.3125V17.6875H20.7188V22.3125H28.8125ZM47.625 15.5H55.375V11.1875H57.7812V16.5938H64.3438V9.75H66.8125V24.9375H64.3438V18.6562H57.7812V23.9062H45.1875V11.1875H47.625V15.5ZM55.375 21.9062V17.4375H47.625V21.9062H55.375ZM51.375 29.6875H64.3438V26.2812H66.7812V37.1562H48.9062V26.2812H51.375V29.6875ZM64.3438 35.125V31.6562H51.375V35.125H64.3438Z"/>
</mask>
<path d="M29.9375 27.2188C31.8333 27.2188 33.4688 27.4219 34.8438 27.8281C36.2188 28.224 37.2708 28.8073 38 29.5781C38.7292 30.349 39.0938 31.2708 39.0938 32.3438C39.0938 33.4271 38.7292 34.3542 38 35.125C37.2708 35.9062 36.2188 36.5 34.8438 36.9062C33.4792 37.3125 31.8438 37.5208 29.9375 37.5312C28.0312 37.5208 26.3854 37.3125 25 36.9062C23.625 36.5 22.5677 35.9062 21.8281 35.125C21.0885 34.3542 20.7188 33.4271 20.7188 32.3438C20.7188 31.2708 21.0885 30.349 21.8281 29.5781C22.5677 28.8073 23.6302 28.224 25.0156 27.8281C26.401 27.4219 28.0417 27.2188 29.9375 27.2188ZM29.9375 29.1562C28.5417 29.1667 27.3333 29.3021 26.3125 29.5625C25.3021 29.8125 24.526 30.1771 23.9844 30.6562C23.4427 31.125 23.1771 31.6875 23.1875 32.3438C23.1771 33 23.4427 33.5677 23.9844 34.0469C24.526 34.526 25.3073 34.8906 26.3281 35.1406C27.349 35.401 28.5521 35.5312 29.9375 35.5312C31.3333 35.5312 32.5417 35.401 33.5625 35.1406C34.5833 34.8906 35.3646 34.526 35.9062 34.0469C36.4479 33.5677 36.7188 33 36.7188 32.3438C36.7188 31.6875 36.4479 31.125 35.9062 30.6562C35.3646 30.1771 34.5833 29.8125 33.5625 29.5625C32.5521 29.3021 31.3438 29.1667 29.9375 29.1562ZM38.8438 16.75H43.0312V18.8438H38.8438V26.4688H36.4062V9.75H38.8438V16.75ZM20.7188 15.75H28.8125V11.5H31.25V24.3125H18.3125V11.5H20.7188V15.75ZM28.8125 22.3125V17.6875H20.7188V22.3125H28.8125ZM47.625 15.5H55.375V11.1875H57.7812V16.5938H64.3438V9.75H66.8125V24.9375H64.3438V18.6562H57.7812V23.9062H45.1875V11.1875H47.625V15.5ZM55.375 21.9062V17.4375H47.625V21.9062H55.375ZM51.375 29.6875H64.3438V26.2812H66.7812V37.1562H48.9062V26.2812H51.375V29.6875ZM64.3438 35.125V31.6562H51.375V35.125H64.3438Z" fill="white"/>
<path d="M34.8438 27.8281L33.9937 30.7052C34.0004 30.7072 34.0071 30.7091 34.0138 30.711L34.8438 27.8281ZM38 35.125L35.8206 33.0634C35.816 33.0683 35.8114 33.0731 35.8068 33.078L38 35.125ZM34.8438 36.9062L33.9937 34.0292L33.9877 34.031L34.8438 36.9062ZM29.9375 37.5312L29.9211 40.5312C29.932 40.5313 29.943 40.5313 29.9539 40.5312L29.9375 37.5312ZM25 36.9062L24.15 39.7833L24.1558 39.785L25 36.9062ZM21.8281 35.125L24.0067 33.0626C24.0021 33.0577 23.9975 33.0529 23.9929 33.048L21.8281 35.125ZM25.0156 27.8281L25.8398 30.7127C25.8465 30.7108 25.8531 30.7089 25.8598 30.7069L25.0156 27.8281ZM29.9375 29.1562L29.9597 26.1563C29.9449 26.1562 29.93 26.1562 29.9151 26.1563L29.9375 29.1562ZM26.3125 29.5625L27.033 32.4747C27.0401 32.473 27.0471 32.4712 27.0541 32.4694L26.3125 29.5625ZM23.9844 30.6562L25.9475 32.9248C25.9557 32.9176 25.9639 32.9105 25.9721 32.9032L23.9844 30.6562ZM23.1875 32.3438L26.1871 32.3914C26.1876 32.3596 26.1876 32.3279 26.1871 32.2961L23.1875 32.3438ZM26.3281 35.1406L27.0697 32.2337C27.0604 32.2313 27.0511 32.229 27.0417 32.2267L26.3281 35.1406ZM33.5625 35.1406L32.8489 32.2267C32.8396 32.229 32.8302 32.2313 32.8209 32.2337L33.5625 35.1406ZM35.9062 30.6562L33.9185 32.9032C33.9267 32.9105 33.9349 32.9176 33.9431 32.9248L35.9062 30.6562ZM33.5625 29.5625L32.8138 32.4676C32.8255 32.4706 32.8372 32.4735 32.8489 32.4764L33.5625 29.5625ZM38.8438 16.75H35.8438C35.8438 18.4069 37.1869 19.75 38.8438 19.75V16.75ZM43.0312 16.75H46.0312C46.0312 15.0931 44.6881 13.75 43.0312 13.75V16.75ZM43.0312 18.8438V21.8438C44.6881 21.8438 46.0312 20.5006 46.0312 18.8438H43.0312ZM38.8438 18.8438V15.8438C37.1869 15.8438 35.8438 17.1869 35.8438 18.8438H38.8438ZM38.8438 26.4688V29.4688C40.5006 29.4688 41.8438 28.1256 41.8438 26.4688H38.8438ZM36.4062 26.4688H33.4062C33.4062 28.1256 34.7494 29.4688 36.4062 29.4688V26.4688ZM36.4062 9.75V6.75C34.7494 6.75 33.4062 8.09315 33.4062 9.75H36.4062ZM38.8438 9.75H41.8438C41.8438 8.09315 40.5006 6.75 38.8438 6.75V9.75ZM20.7188 15.75H17.7188C17.7188 17.4069 19.0619 18.75 20.7188 18.75V15.75ZM28.8125 15.75V18.75C30.4694 18.75 31.8125 17.4069 31.8125 15.75H28.8125ZM28.8125 11.5V8.5C27.1556 8.5 25.8125 9.84315 25.8125 11.5H28.8125ZM31.25 11.5H34.25C34.25 9.84315 32.9069 8.5 31.25 8.5V11.5ZM31.25 24.3125V27.3125C32.9069 27.3125 34.25 25.9694 34.25 24.3125H31.25ZM18.3125 24.3125H15.3125C15.3125 25.9694 16.6556 27.3125 18.3125 27.3125V24.3125ZM18.3125 11.5V8.5C16.6556 8.5 15.3125 9.84315 15.3125 11.5H18.3125ZM20.7188 11.5H23.7188C23.7188 9.84315 22.3756 8.5 20.7188 8.5V11.5ZM28.8125 22.3125V25.3125C30.4694 25.3125 31.8125 23.9694 31.8125 22.3125H28.8125ZM28.8125 17.6875H31.8125C31.8125 16.0306 30.4694 14.6875 28.8125 14.6875V17.6875ZM20.7188 17.6875V14.6875C19.0619 14.6875 17.7188 16.0306 17.7188 17.6875H20.7188ZM20.7188 22.3125H17.7188C17.7188 23.9694 19.0619 25.3125 20.7188 25.3125V22.3125ZM29.9375 27.2188V30.2188C31.6323 30.2188 32.9671 30.4019 33.9937 30.7052L34.8438 27.8281L35.6938 24.9511C33.9704 24.4419 32.0344 24.2188 29.9375 24.2188V27.2188ZM34.8438 27.8281L34.0138 30.711C35.0469 31.0084 35.5665 31.3712 35.8206 31.6397L38 29.5781L40.1794 27.5165C38.9751 26.2434 37.3906 25.4395 35.6737 24.9452L34.8438 27.8281ZM38 29.5781L35.8206 31.6397C36.0163 31.8466 36.0938 32.0281 36.0938 32.3438H39.0938H42.0938C42.0938 30.5136 41.442 28.8513 40.1794 27.5165L38 29.5781ZM39.0938 32.3438H36.0938C36.0938 32.6781 36.0106 32.8625 35.8206 33.0634L38 35.125L40.1794 37.1866C41.4477 35.8458 42.0938 34.176 42.0938 32.3438H39.0938ZM38 35.125L35.8068 33.078C35.5475 33.3559 35.0246 33.7246 33.9937 34.0292L34.8438 36.9062L35.6938 39.7833C37.4129 39.2754 38.9942 38.4566 40.1932 37.172L38 35.125ZM34.8438 36.9062L33.9877 34.031C32.9701 34.3339 31.6327 34.5219 29.9211 34.5313L29.9375 37.5312L29.9539 40.5312C32.0548 40.5197 33.9883 40.2911 35.6998 39.7815L34.8438 36.9062ZM29.9375 37.5312L29.9539 34.5313C28.2439 34.522 26.8905 34.3343 25.8442 34.0275L25 36.9062L24.1558 39.785C25.8803 40.2907 27.8186 40.5197 29.9211 40.5312L29.9375 37.5312ZM25 36.9062L25.85 34.0292C24.8188 33.7245 24.2816 33.3529 24.0067 33.0626L21.8281 35.125L19.6495 37.1874C20.8538 38.4596 22.4312 39.2755 24.15 39.7833L25 36.9062ZM21.8281 35.125L23.9929 33.048C23.7976 32.8445 23.7188 32.6651 23.7188 32.3438H20.7188H17.7188C17.7188 34.1891 18.3794 35.8638 19.6634 37.202L21.8281 35.125ZM20.7188 32.3438H23.7188C23.7188 32.0412 23.7919 31.8646 23.9929 31.6551L21.8281 29.5781L19.6634 27.5011C18.3852 28.8333 17.7188 30.5004 17.7188 32.3438H20.7188ZM21.8281 29.5781L23.9929 31.6551C24.2584 31.3783 24.7932 31.0117 25.8398 30.7127L25.0156 27.8281L24.1915 24.9436C22.4672 25.4362 20.877 26.2363 19.6634 27.5011L21.8281 29.5781ZM25.0156 27.8281L25.8598 30.7069C26.9008 30.4017 28.2435 30.2188 29.9375 30.2188V27.2188V24.2188C27.8398 24.2188 25.9013 24.4421 24.1715 24.9493L25.0156 27.8281ZM29.9375 29.1562L29.9151 26.1563C28.35 26.168 26.8886 26.3194 25.5709 26.6556L26.3125 29.5625L27.0541 32.4694C27.778 32.2847 28.7333 32.1653 29.9599 32.1562L29.9375 29.1562ZM26.3125 29.5625L25.592 26.6503C24.3043 26.9689 23.0249 27.4996 21.9967 28.4093L23.9844 30.6562L25.9721 32.9032C26.0272 32.8545 26.2999 32.6561 27.033 32.4747L26.3125 29.5625ZM23.9844 30.6562L22.0212 28.3877C20.8781 29.377 20.162 30.7597 20.1879 32.3914L23.1875 32.3438L26.1871 32.2961C26.1888 32.4011 26.1656 32.554 26.0917 32.7107C26.021 32.8603 25.945 32.9269 25.9475 32.9248L23.9844 30.6562ZM23.1875 32.3438L20.1879 32.2961C20.162 33.9241 20.8741 35.3009 21.9967 36.2939L23.9844 34.0469L25.9721 31.7999C25.9617 31.7907 26.0304 31.8497 26.0962 31.9903C26.1655 32.1385 26.1888 32.2862 26.1871 32.3914L23.1875 32.3438ZM23.9844 34.0469L21.9967 36.2939C23.0303 37.2083 24.3204 37.7376 25.6145 38.0545L26.3281 35.1406L27.0417 32.2267C26.2942 32.0437 26.0218 31.8438 25.9721 31.7999L23.9844 34.0469ZM26.3281 35.1406L25.5866 38.0475C26.9119 38.3856 28.3755 38.5312 29.9375 38.5312V35.5312V32.5312C28.7286 32.5312 27.786 32.4165 27.0697 32.2337L26.3281 35.1406ZM29.9375 35.5312V38.5312C31.5078 38.5312 32.9771 38.386 34.3041 38.0475L33.5625 35.1406L32.8209 32.2337C32.1062 32.4161 31.1589 32.5312 29.9375 32.5312V35.5312ZM33.5625 35.1406L34.2761 38.0545C35.5702 37.7376 36.8603 37.2083 37.894 36.2939L35.9062 34.0469L33.9185 31.7999C33.8689 31.8438 33.5964 32.0437 32.8489 32.2267L33.5625 35.1406ZM35.9062 34.0469L37.894 36.2939C39.0058 35.3103 39.7188 33.953 39.7188 32.3438H36.7188H33.7188C33.7188 32.2448 33.7425 32.1071 33.808 31.97C33.87 31.8399 33.9325 31.7875 33.9185 31.7999L35.9062 34.0469ZM36.7188 32.3438H39.7188C39.7188 30.7306 39.0016 29.3675 37.8694 28.3877L35.9062 30.6562L33.9431 32.9248C33.9493 32.9301 33.8795 32.87 33.8126 32.7311C33.7425 32.5856 33.7188 32.4426 33.7188 32.3438H36.7188ZM35.9062 30.6562L37.894 28.4093C36.8603 27.4949 35.5702 26.9655 34.2761 26.6486L33.5625 29.5625L32.8489 32.4764C33.5964 32.6595 33.8689 32.8593 33.9185 32.9032L35.9062 30.6562ZM33.5625 29.5625L34.3112 26.6574C32.9976 26.3189 31.5322 26.168 29.9597 26.1563L29.9375 29.1562L29.9153 32.1562C31.1553 32.1654 32.1066 32.2853 32.8138 32.4676L33.5625 29.5625ZM38.8438 16.75V19.75H43.0312V16.75V13.75H38.8438V16.75ZM43.0312 16.75H40.0312V18.8438H43.0312H46.0312V16.75H43.0312ZM43.0312 18.8438V15.8438H38.8438V18.8438V21.8438H43.0312V18.8438ZM38.8438 18.8438H35.8438V26.4688H38.8438H41.8438V18.8438H38.8438ZM38.8438 26.4688V23.4688H36.4062V26.4688V29.4688H38.8438V26.4688ZM36.4062 26.4688H39.4062V9.75H36.4062H33.4062V26.4688H36.4062ZM36.4062 9.75V12.75H38.8438V9.75V6.75H36.4062V9.75ZM38.8438 9.75H35.8438V16.75H38.8438H41.8438V9.75H38.8438ZM20.7188 15.75V18.75H28.8125V15.75V12.75H20.7188V15.75ZM28.8125 15.75H31.8125V11.5H28.8125H25.8125V15.75H28.8125ZM28.8125 11.5V14.5H31.25V11.5V8.5H28.8125V11.5ZM31.25 11.5H28.25V24.3125H31.25H34.25V11.5H31.25ZM31.25 24.3125V21.3125H18.3125V24.3125V27.3125H31.25V24.3125ZM18.3125 24.3125H21.3125V11.5H18.3125H15.3125V24.3125H18.3125ZM18.3125 11.5V14.5H20.7188V11.5V8.5H18.3125V11.5ZM20.7188 11.5H17.7188V15.75H20.7188H23.7188V11.5H20.7188ZM28.8125 22.3125H31.8125V17.6875H28.8125H25.8125V22.3125H28.8125ZM28.8125 17.6875V14.6875H20.7188V17.6875V20.6875H28.8125V17.6875ZM20.7188 17.6875H17.7188V22.3125H20.7188H23.7188V17.6875H20.7188ZM20.7188 22.3125V25.3125H28.8125V22.3125V19.3125H20.7188V22.3125ZM47.625 15.5H44.625C44.625 17.1569 45.9681 18.5 47.625 18.5V15.5ZM55.375 15.5V18.5C57.0319 18.5 58.375 17.1569 58.375 15.5H55.375ZM55.375 11.1875V8.1875C53.7181 8.1875 52.375 9.53065 52.375 11.1875H55.375ZM57.7812 11.1875H60.7812C60.7812 9.53065 59.4381 8.1875 57.7812 8.1875V11.1875ZM57.7812 16.5938H54.7812C54.7812 18.2506 56.1244 19.5938 57.7812 19.5938V16.5938ZM64.3438 16.5938V19.5938C66.0006 19.5938 67.3438 18.2506 67.3438 16.5938H64.3438ZM64.3438 9.75V6.75C62.6869 6.75 61.3438 8.09315 61.3438 9.75H64.3438ZM66.8125 9.75H69.8125C69.8125 8.09315 68.4694 6.75 66.8125 6.75V9.75ZM66.8125 24.9375V27.9375C68.4694 27.9375 69.8125 26.5944 69.8125 24.9375H66.8125ZM64.3438 24.9375H61.3438C61.3438 26.5944 62.6869 27.9375 64.3438 27.9375V24.9375ZM64.3438 18.6562H67.3438C67.3438 16.9994 66.0006 15.6562 64.3438 15.6562V18.6562ZM57.7812 18.6562V15.6562C56.1244 15.6562 54.7812 16.9994 54.7812 18.6562H57.7812ZM57.7812 23.9062V26.9062C59.4381 26.9062 60.7812 25.5631 60.7812 23.9062H57.7812ZM45.1875 23.9062H42.1875C42.1875 25.5631 43.5306 26.9062 45.1875 26.9062V23.9062ZM45.1875 11.1875V8.1875C43.5306 8.1875 42.1875 9.53065 42.1875 11.1875H45.1875ZM47.625 11.1875H50.625C50.625 9.53065 49.2819 8.1875 47.625 8.1875V11.1875ZM55.375 21.9062V24.9062C57.0319 24.9062 58.375 23.5631 58.375 21.9062H55.375ZM55.375 17.4375H58.375C58.375 15.7806 57.0319 14.4375 55.375 14.4375V17.4375ZM47.625 17.4375V14.4375C45.9681 14.4375 44.625 15.7806 44.625 17.4375H47.625ZM47.625 21.9062H44.625C44.625 23.5631 45.9681 24.9062 47.625 24.9062V21.9062ZM51.375 29.6875H48.375C48.375 31.3444 49.7181 32.6875 51.375 32.6875V29.6875ZM64.3438 29.6875V32.6875C66.0006 32.6875 67.3438 31.3444 67.3438 29.6875H64.3438ZM64.3438 26.2812V23.2812C62.6869 23.2812 61.3438 24.6244 61.3438 26.2812H64.3438ZM66.7812 26.2812H69.7812C69.7812 24.6244 68.4381 23.2812 66.7812 23.2812V26.2812ZM66.7812 37.1562V40.1562C68.4381 40.1562 69.7812 38.8131 69.7812 37.1562H66.7812ZM48.9062 37.1562H45.9062C45.9062 38.8131 47.2494 40.1562 48.9062 40.1562V37.1562ZM48.9062 26.2812V23.2812C47.2494 23.2812 45.9062 24.6244 45.9062 26.2812H48.9062ZM51.375 26.2812H54.375C54.375 24.6244 53.0319 23.2812 51.375 23.2812V26.2812ZM64.3438 35.125V38.125C66.0006 38.125 67.3438 36.7819 67.3438 35.125H64.3438ZM64.3438 31.6562H67.3438C67.3438 29.9994 66.0006 28.6562 64.3438 28.6562V31.6562ZM51.375 31.6562V28.6562C49.7181 28.6562 48.375 29.9994 48.375 31.6562H51.375ZM51.375 35.125H48.375C48.375 36.7819 49.7181 38.125 51.375 38.125V35.125ZM47.625 15.5V18.5H55.375V15.5V12.5H47.625V15.5ZM55.375 15.5H58.375V11.1875H55.375H52.375V15.5H55.375ZM55.375 11.1875V14.1875H57.7812V11.1875V8.1875H55.375V11.1875ZM57.7812 11.1875H54.7812V16.5938H57.7812H60.7812V11.1875H57.7812ZM57.7812 16.5938V19.5938H64.3438V16.5938V13.5938H57.7812V16.5938ZM64.3438 16.5938H67.3438V9.75H64.3438H61.3438V16.5938H64.3438ZM64.3438 9.75V12.75H66.8125V9.75V6.75H64.3438V9.75ZM66.8125 9.75H63.8125V24.9375H66.8125H69.8125V9.75H66.8125ZM66.8125 24.9375V21.9375H64.3438V24.9375V27.9375H66.8125V24.9375ZM64.3438 24.9375H67.3438V18.6562H64.3438H61.3438V24.9375H64.3438ZM64.3438 18.6562V15.6562H57.7812V18.6562V21.6562H64.3438V18.6562ZM57.7812 18.6562H54.7812V23.9062H57.7812H60.7812V18.6562H57.7812ZM57.7812 23.9062V20.9062H45.1875V23.9062V26.9062H57.7812V23.9062ZM45.1875 23.9062H48.1875V11.1875H45.1875H42.1875V23.9062H45.1875ZM45.1875 11.1875V14.1875H47.625V11.1875V8.1875H45.1875V11.1875ZM47.625 11.1875H44.625V15.5H47.625H50.625V11.1875H47.625ZM55.375 21.9062H58.375V17.4375H55.375H52.375V21.9062H55.375ZM55.375 17.4375V14.4375H47.625V17.4375V20.4375H55.375V17.4375ZM47.625 17.4375H44.625V21.9062H47.625H50.625V17.4375H47.625ZM47.625 21.9062V24.9062H55.375V21.9062V18.9062H47.625V21.9062ZM51.375 29.6875V32.6875H64.3438V29.6875V26.6875H51.375V29.6875ZM64.3438 29.6875H67.3438V26.2812H64.3438H61.3438V29.6875H64.3438ZM64.3438 26.2812V29.2812H66.7812V26.2812V23.2812H64.3438V26.2812ZM66.7812 26.2812H63.7812V37.1562H66.7812H69.7812V26.2812H66.7812ZM66.7812 37.1562V34.1562H48.9062V37.1562V40.1562H66.7812V37.1562ZM48.9062 37.1562H51.9062V26.2812H48.9062H45.9062V37.1562H48.9062ZM48.9062 26.2812V29.2812H51.375V26.2812V23.2812H48.9062V26.2812ZM51.375 26.2812H48.375V29.6875H51.375H54.375V26.2812H51.375ZM64.3438 35.125H67.3438V31.6562H64.3438H61.3438V35.125H64.3438ZM64.3438 31.6562V28.6562H51.375V31.6562V34.6562H64.3438V31.6562ZM51.375 31.6562H48.375V35.125H51.375H54.375V31.6562H51.375ZM51.375 35.125V38.125H64.3438V35.125V32.125H51.375V35.125Z" fill="#5BB8A1" mask="url(#path-2-outside-1_165_1235)"/>
<path d="M91 5.50314C101.2 5.50314 109.5 13.8028 109.5 23.9983C109.5 34.1971 101.2 42.4973 91 42.4973C80.8001 42.4973 72.5 34.1971 72.5 23.9983C72.5001 13.8028 80.8 5.50315 91 5.50314Z" fill="white" stroke="#5BB8A1" stroke-width="3"/>
<path d="M85.3125 29.4453L91.4062 23.8438C92.0078 23.2656 92.4727 22.7852 92.8008 22.4023C93.1367 22.0195 93.3945 21.6406 93.5742 21.2656C93.7539 20.8828 93.8438 20.4766 93.8438 20.0469C93.8438 19.5547 93.7266 19.125 93.4922 18.7578C93.2656 18.3906 92.9453 18.1094 92.5312 17.9141C92.125 17.7109 91.6641 17.6094 91.1484 17.6094C90.3516 17.6094 89.7148 17.8477 89.2383 18.3242C88.7617 18.793 88.5234 19.4297 88.5234 20.2344H85.1719C85.1641 19.1406 85.4102 18.1836 85.9102 17.3633C86.418 16.543 87.1289 15.9102 88.043 15.4648C88.957 15.0195 90.0078 14.7969 91.1953 14.7969C92.3906 14.7969 93.4453 15.0117 94.3594 15.4414C95.2734 15.8633 95.9805 16.4531 96.4805 17.2109C96.9883 17.9688 97.2422 18.8359 97.2422 19.8125C97.2422 20.4766 97.1133 21.1172 96.8555 21.7344C96.5977 22.3438 96.1484 23.0273 95.5078 23.7852C94.875 24.5352 93.9766 25.4375 92.8125 26.4922L90.2344 29V29.0938H97.4766V32H85.3359L85.3125 29.4453Z" fill="#5BB8A1"/>
</svg>
