<svg width="188" height="260" viewBox="0 0 188 260" fill="none" xmlns="http://www.w3.org/2000/svg">
<g clip-path="url(#clip0_354_3299)">
<path d="M71.3535 74.0429V258.342L185.833 246.387V62.0879L71.3535 74.0429Z" fill="#FAC6CC"/>
<mask id="mask0_354_3299" style="mask-type:luminance" maskUnits="userSpaceOnUse" x="0" y="0" width="188" height="260">
<path d="M187.5 0H0.5V260H187.5V0Z" fill="white"/>
</mask>
<g mask="url(#mask0_354_3299)">
<path d="M185.833 62.0879V246.387L71.3535 258.342V74.0429L185.833 62.0879Z" stroke="#231F20" stroke-width="2" stroke-linejoin="round"/>
</g>
<path d="M2.16602 197.913L71.3538 258.342V74.0429L2.16602 13.6133V197.913Z" fill="#FCD6D9"/>
<mask id="mask1_354_3299" style="mask-type:luminance" maskUnits="userSpaceOnUse" x="0" y="0" width="188" height="260">
<path d="M187.5 0H0.5V260H187.5V0Z" fill="white"/>
</mask>
<g mask="url(#mask1_354_3299)">
<path d="M71.3538 74.0429V258.342L2.16602 197.913V13.6133L71.3538 74.0429Z" stroke="#231F20" stroke-width="2" stroke-linejoin="round"/>
</g>
<path d="M2.12305 13.6139L71.3547 74.0435L185.835 62.0885L116.647 1.61523L2.12305 13.6139Z" fill="#FDE9EA"/>
<mask id="mask2_354_3299" style="mask-type:luminance" maskUnits="userSpaceOnUse" x="0" y="0" width="188" height="260">
<path d="M187.5 0H0.5V260H187.5V0Z" fill="white"/>
</mask>
<g mask="url(#mask2_354_3299)">
<path d="M116.646 1.6582L185.834 62.0878L71.3538 74.0428L2.16602 13.6132L116.646 1.6582Z" stroke="#231F20" stroke-width="2" stroke-linejoin="round"/>
</g>
</g>
<defs>
<clipPath id="clip0_354_3299">
<rect width="187" height="260" fill="white" transform="translate(0.5)"/>
</clipPath>
</defs>
</svg>
