<svg width="393" height="424" viewBox="0 0 393 424" fill="none" xmlns="http://www.w3.org/2000/svg">
<path d="M226.407 31.1367C203.563 36.2518 184.131 47.95 171.855 63.8635" stroke="#00AEEF" stroke-width="2" stroke-miterlimit="10" stroke-dasharray="4 4"/>
<path d="M345.227 41.4141C365.369 51.36 380.962 67.4629 389.114 86.4075" stroke="#00AEEF" stroke-width="2" stroke-miterlimit="10" stroke-dasharray="4 4"/>
<path d="M1.18555 315.922C6.82556 350.922 22.4185 379.86 43.0354 395.442" stroke="#00AEEF" stroke-width="2" stroke-miterlimit="10" stroke-dasharray="4 4"/>
<path d="M383.238 360.441C391.438 342.302 393.855 322.694 390.158 304.555" stroke="#00AEEF" stroke-width="2" stroke-miterlimit="10" stroke-dasharray="4 4"/>
<path d="M258.777 417.654C277.735 424.569 299.537 424.569 320.296 417.512" stroke="#00AEEF" stroke-width="2" stroke-miterlimit="10" stroke-dasharray="4 4"/>
<path d="M43.0352 178.242V395.016L258.778 417.654V200.881L43.0352 178.242Z" fill="#D6D6EC"/>
<path d="M43.0352 178.242V395.016L258.778 417.654V200.881L43.0352 178.242Z" stroke="#231F20" stroke-width="2" stroke-linejoin="round"/>
<path d="M258.777 200.879V417.605L389.114 303.322V86.5488L258.777 200.879Z" fill="#C7C8E5"/>
<path d="M258.777 200.879V417.605L389.114 303.322V86.5488L258.777 200.879Z" stroke="#231F20" stroke-width="2" stroke-linejoin="round"/>
<path d="M173.372 63.9102L43.0352 178.241L258.778 200.88L389.114 86.5963L173.372 63.9102Z" fill="#E8E8F4"/>
<path d="M173.372 63.9102L43.0352 178.241L258.778 200.88L389.114 86.5963L173.372 63.9102Z" stroke="#231F20" stroke-width="2" stroke-linejoin="round"/>
<path d="M1.18555 257.762C6.82556 222.762 22.4185 193.824 43.0354 178.242" stroke="#00AEEF" stroke-width="2" stroke-miterlimit="10" stroke-dasharray="4 4"/>
<path d="M253.108 36L262.644 17.376V17.248H251.572V13.344H267.572V17.312L257.972 36H253.108ZM283.769 36.32C278.521 36.32 275.417 32.736 275.385 27.552C275.417 22.368 278.585 18.816 283.705 18.784C288.121 18.816 291.065 21.376 291.257 25.248H286.905C286.649 23.584 285.529 22.432 283.769 22.432C281.561 22.432 280.089 24.288 280.121 27.488C280.089 30.784 281.561 32.672 283.769 32.672C285.433 32.672 286.617 31.648 286.905 29.856H291.257C291.065 33.696 288.217 36.32 283.769 36.32ZM293.151 36V19.04H297.567V21.984H297.759C298.463 20.032 300.191 18.816 302.495 18.784C304.831 18.816 306.559 20.032 307.103 21.984H307.295C307.967 20.064 309.919 18.816 312.415 18.784C315.551 18.816 317.727 20.896 317.727 24.608V36H313.119V25.504C313.119 23.552 311.967 22.624 310.431 22.624C308.703 22.624 307.679 23.84 307.679 25.632V36H303.199V25.376C303.199 23.712 302.143 22.624 300.575 22.624C299.007 22.624 297.791 23.904 297.759 25.824V36H293.151Z" fill="#222222"/>
</svg>
