<svg width="343" height="202" viewBox="0 0 343 202" fill="none" xmlns="http://www.w3.org/2000/svg">
<path d="M1.26172 178.416L213.513 200.739L192.251 79.9497L68.4244 66.9004L1.26172 178.416Z" fill="#C4DFF5"/>
<mask id="mask0_356_3220" style="mask-type:luminance" maskUnits="userSpaceOnUse" x="0" y="0" width="343" height="202">
<path d="M343 0H0V202H343V0Z" fill="white"/>
</mask>
<g mask="url(#mask0_356_3220)">
<path d="M68.4244 66.9004L1.26172 178.416L213.513 200.739L192.251 79.9497L68.4244 66.9004Z" stroke="#231F20" stroke-width="2.47659" stroke-linejoin="round"/>
</g>
<path d="M192.25 79.9469L213.512 200.67L341.776 88.1607L267.063 14.2695L192.25 79.9469Z" fill="#ACD4F1"/>
<mask id="mask1_356_3220" style="mask-type:luminance" maskUnits="userSpaceOnUse" x="0" y="0" width="343" height="202">
<path d="M343 0H0V202H343V0Z" fill="white"/>
</mask>
<g mask="url(#mask1_356_3220)">
<path d="M192.252 79.9488L213.514 200.672L341.778 88.1626L267.065 14.2715L192.252 79.9488Z" stroke="#231F20" stroke-width="2.47659" stroke-linejoin="round"/>
</g>
<path d="M68.4219 66.9001L192.249 79.9494L267.062 14.2721L143.235 1.25586L68.4219 66.9001Z" fill="#E0EDF9"/>
<mask id="mask2_356_3220" style="mask-type:luminance" maskUnits="userSpaceOnUse" x="0" y="0" width="343" height="202">
<path d="M343 0H0V202H343V0Z" fill="white"/>
</mask>
<g mask="url(#mask2_356_3220)">
<path d="M143.235 1.22852L68.4219 66.9058L192.249 79.9552L267.062 14.2779L143.235 1.22852Z" stroke="#231F20" stroke-width="2.47659" stroke-linejoin="round"/>
</g>
</svg>
