<svg width="547" height="304" viewBox="0 0 547 304" fill="none" xmlns="http://www.w3.org/2000/svg">
<mask id="path-1-inside-1_5_33500" fill="white">
<path d="M0.5 76H182.5V152H0.5V76Z"/>
</mask>
<path d="M0.5 76H182.5V152H0.5V76Z" fill="#D9F0FF"/>
<path d="M182.5 152V153H183.5V152H182.5ZM181.5 76V152H183.5V76H181.5ZM182.5 151H0.5V153H182.5V151Z" fill="#D2D2D2" mask="url(#path-1-inside-1_5_33500)"/>
<mask id="path-3-inside-2_5_33500" fill="white">
<path d="M182.5 76H364.5V152H182.5V76Z"/>
</mask>
<path d="M182.5 76H364.5V152H182.5V76Z" fill="white"/>
<path d="M364.5 152V153H365.5V152H364.5ZM363.5 76V152H365.5V76H363.5ZM364.5 151H182.5V153H364.5V151Z" fill="#D2D2D2" mask="url(#path-3-inside-2_5_33500)"/>
<mask id="path-5-inside-3_5_33500" fill="white">
<path d="M364.5 76H546.5V152H364.5V76Z"/>
</mask>
<path d="M364.5 76H546.5V152H364.5V76Z" fill="white"/>
<path d="M546.5 151H364.5V153H546.5V151Z" fill="#D2D2D2" mask="url(#path-5-inside-3_5_33500)"/>
<mask id="path-7-inside-4_5_33500" fill="white">
<path d="M0.5 12C0.5 5.37258 5.87258 0 12.5 0H182.5V76H0.5V12Z"/>
</mask>
<path d="M0.5 12C0.5 5.37258 5.87258 0 12.5 0H182.5V76H0.5V12Z" fill="#D9F0FF"/>
<path d="M0.5 0H182.5H0.5ZM183.5 77H0.5V75H181.5L183.5 77ZM0.5 76V0V76ZM183.5 0V77L181.5 75V0H183.5Z" fill="#D2D2D2" mask="url(#path-7-inside-4_5_33500)"/>
<mask id="path-9-inside-5_5_33500" fill="white">
<path d="M182.5 0H364.5V76H182.5V0Z"/>
</mask>
<path d="M182.5 0H364.5V76H182.5V0Z" fill="#EEF9FF"/>
<path d="M364.5 76V77H365.5V76H364.5ZM363.5 0V76H365.5V0H363.5ZM364.5 75H182.5V77H364.5V75Z" fill="#D2D2D2" mask="url(#path-9-inside-5_5_33500)"/>
<mask id="path-11-inside-6_5_33500" fill="white">
<path d="M364.5 0H534.5C541.127 0 546.5 5.37258 546.5 12V76H364.5V0Z"/>
</mask>
<path d="M364.5 0H534.5C541.127 0 546.5 5.37258 546.5 12V76H364.5V0Z" fill="#EEF9FF"/>
<path d="M364.5 0H546.5H364.5ZM546.5 77H364.5V75H546.5V77ZM364.5 76V0V76ZM546.5 0V76V0Z" fill="#D2D2D2" mask="url(#path-11-inside-6_5_33500)"/>
<mask id="path-13-inside-7_5_33500" fill="white">
<path d="M0.5 152H182.5V228H0.5V152Z"/>
</mask>
<path d="M0.5 152H182.5V228H0.5V152Z" fill="#D9F0FF"/>
<path d="M182.5 228V229H183.5V228H182.5ZM181.5 152V228H183.5V152H181.5ZM182.5 227H0.5V229H182.5V227Z" fill="#D2D2D2" mask="url(#path-13-inside-7_5_33500)"/>
<mask id="path-15-inside-8_5_33500" fill="white">
<path d="M0.5 228H182.5V304H12.5C5.87258 304 0.5 298.627 0.5 292V228Z"/>
</mask>
<path d="M0.5 228H182.5V304H12.5C5.87258 304 0.5 298.627 0.5 292V228Z" fill="#D9F0FF"/>
<path d="M0.5 228H182.5H0.5ZM182.5 304H0.5H182.5ZM0.5 304V228V304ZM183.5 228V304H181.5V228H183.5Z" fill="#D2D2D2" mask="url(#path-15-inside-8_5_33500)"/>
<mask id="path-17-inside-9_5_33500" fill="white">
<path d="M182.5 152H364.5V228H182.5V152Z"/>
</mask>
<path d="M182.5 152H364.5V228H182.5V152Z" fill="white"/>
<path d="M364.5 228V229H365.5V228H364.5ZM363.5 152V228H365.5V152H363.5ZM364.5 227H182.5V229H364.5V227Z" fill="#D2D2D2" mask="url(#path-17-inside-9_5_33500)"/>
<mask id="path-19-inside-10_5_33500" fill="white">
<path d="M182.5 228H364.5V304H182.5V228Z"/>
</mask>
<path d="M182.5 228H364.5V304H182.5V228Z" fill="white"/>
<path d="M363.5 228V304H365.5V228H363.5Z" fill="#D2D2D2" mask="url(#path-19-inside-10_5_33500)"/>
<path d="M364.5 228H546.5V292C546.5 298.627 541.127 304 534.5 304H364.5V228Z" fill="white"/>
<mask id="path-22-inside-11_5_33500" fill="white">
<path d="M364.5 152H546.5V228H364.5V152Z"/>
</mask>
<path d="M364.5 152H546.5V228H364.5V152Z" fill="white"/>
<path d="M546.5 227H364.5V229H546.5V227Z" fill="#D2D2D2" mask="url(#path-22-inside-11_5_33500)"/>
</svg>
