<svg width="811" height="214" viewBox="0 0 811 214" fill="none" xmlns="http://www.w3.org/2000/svg">
<path d="M40.5186 1.12721C40.5186 1.12721 6.33788 0.014489 3.32902 31.772C0.32015 63.5296 0.320156 136.037 1.31308 171.102C2.30601 206.168 8.86534 215.671 76.294 211.401C128.498 208.093 318.749 212.303 360.933 212.874C403.147 213.446 736.319 213.927 758.976 213.506C786.718 213.025 809.826 215.611 810.819 162.682C811.812 109.752 807.389 49.3349 808.923 33.4562C810.427 17.5774 800.378 -0.376466 760.691 1.6986C721.004 3.77367 404.652 3.59323 351.906 2.36022C299.161 1.12721 66.6356 -0.286245 40.5186 1.12721Z" fill="#DEE9F7"/>
<path d="M40.43 9.60742H771.163C787.652 9.60742 801.011 22.9901 801.011 39.4403V173.026C801.011 189.507 787.622 202.859 771.163 202.859H40.43C23.9414 202.859 10.582 189.477 10.582 173.026V39.4403C10.582 22.96 23.9715 9.60742 40.43 9.60742Z" fill="white"/>
<path d="M29.7169 11.5625C20.8708 14.9608 14.0708 22.4491 11.6035 31.6816" stroke="#9AC3E8" stroke-dasharray="3.1 2.1"/>
<path d="M10.582 49.8164V165.599" stroke="#9AC3E8" stroke-dasharray="2.97 1.97"/>
<path d="M12.5664 183.764C15.9664 192.605 23.4585 199.402 32.6957 201.868" stroke="#9AC3E8" stroke-dasharray="3.1 2.1"/>
<path d="M50.8691 202.859H763.7" stroke="#9AC3E8" stroke-dasharray="2.98 1.98"/>
<path d="M781.904 200.875C790.75 197.477 797.55 189.988 800.018 180.756" stroke="#9AC3E8" stroke-dasharray="3.1 2.1"/>
<path d="M801.01 162.651V46.8379" stroke="#9AC3E8" stroke-dasharray="2.97 1.97"/>
<path d="M799.024 28.7038C795.624 19.8622 788.132 13.0656 778.895 10.5996" stroke="#9AC3E8" stroke-dasharray="3.1 2.1"/>
<path d="M760.721 9.60742H47.8906" stroke="#9AC3E8" stroke-dasharray="2.98 1.98"/>
<path d="M44.9132 9.6082H40.43C38.8654 9.6082 37.3007 9.72849 35.7963 9.96908M775.797 9.93901C774.293 9.69842 772.728 9.57812 771.163 9.57812H766.68M801.011 43.8919V39.441C801.011 37.8772 800.891 36.3134 800.65 34.8097M800.65 177.659C800.891 176.155 801.011 174.591 801.011 173.027V168.576M766.68 202.86H771.163C772.758 202.86 774.293 202.74 775.797 202.499M35.7963 202.499C37.3007 202.74 38.8654 202.86 40.43 202.86H44.9132M10.582 168.576V173.027C10.582 174.621 10.7024 176.155 10.9431 177.659M10.9431 34.7797C10.7024 36.2833 10.582 37.8472 10.582 39.411V43.8618" stroke="#9AC3E8"/>
</svg>
