<svg width="316" height="245" viewBox="0 0 316 245" fill="none" xmlns="http://www.w3.org/2000/svg">
<path d="M38.1553 171C43.8983 196.04 57.8946 216.662 76.1553 228" stroke="#00AEEF" stroke-miterlimit="10" stroke-dasharray="4 4"/>
<path d="M76.1553 80C57.9484 90.9592 43.9829 110.835 38.1553 135" stroke="#00AEEF" stroke-miterlimit="10" stroke-dasharray="4 4"/>
<path d="M77.1553 80V228.479L225.155 244V95.5556L77.1553 80Z" fill="#EDDCD1"/>
<path d="M77.1553 80V228.479L225.155 244V95.5556L77.1553 80Z" stroke="#231F20" stroke-width="2" stroke-linejoin="round"/>
<path d="M225.156 95.3939V244L314.156 165.64V17L225.156 95.3939Z" fill="#E8CFC1"/>
<path d="M225.156 95.3939V244L314.156 165.64V17L225.156 95.3939Z" stroke="#231F20" stroke-width="2" stroke-linejoin="round"/>
<path d="M166.419 1L77.1553 79.4532L224.891 95L314.155 16.5811L166.419 1Z" fill="#F5EBE5"/>
<path d="M166.419 1L77.1553 79.4532L224.891 95L314.155 16.5811L166.419 1Z" stroke="#231F20" stroke-width="2" stroke-linejoin="round"/>
<path d="M77.1553 228L166.227 149L314.155 164.601" stroke="#231F20" stroke-width="2" stroke-linejoin="round" stroke-dasharray="4 4"/>
<path d="M166.156 149V1" stroke="#231F20" stroke-width="2" stroke-linejoin="round" stroke-dasharray="4 4"/>
<path d="M2.75 160L2.71875 156.594L10.8438 149.125C12.9688 147.094 14.0938 145.844 14.0938 144.062C14.0938 142.062 12.5625 140.812 10.5 140.812C8.375 140.812 7 142.156 7 144.312H2.53125C2.5 139.875 5.78125 137.062 10.5625 137.062C15.4062 137.062 18.625 139.812 18.625 143.75C18.625 146.312 17.375 148.438 12.7188 152.656L9.28125 156V156.125H18.9375V160H2.75ZM35.3125 160.344C30.125 160.344 27 156.75 27 151.562C27 146.375 30.1562 142.812 35.3125 142.812C39.6875 142.812 42.6562 145.375 42.8438 149.25H38.5C38.2188 147.562 37.125 146.406 35.375 146.406C33.1562 146.406 31.6875 148.281 31.6875 151.5C31.6875 154.781 33.125 156.656 35.375 156.656C37 156.656 38.2188 155.656 38.5 153.844H42.8438C42.625 157.688 39.8125 160.344 35.3125 160.344ZM44.7188 160V143.031H49.125V146H49.3125C50.0312 144.031 51.75 142.812 54.0312 142.812C56.375 142.812 58.0938 144.031 58.6562 146H58.8125C59.5312 144.062 61.4375 142.812 63.9375 142.812C67.0938 142.812 69.2812 144.906 69.2812 148.594V160H64.6562V149.5C64.6562 147.562 63.5312 146.625 62 146.625C60.25 146.625 59.25 147.844 59.25 149.625V160H54.75V149.375C54.75 147.688 53.6875 146.625 52.125 146.625C50.5625 146.625 49.3438 147.875 49.3438 149.812V160H44.7188Z" fill="#222222"/>
</svg>
