<svg width="813" height="407" viewBox="0 0 813 407" fill="none" xmlns="http://www.w3.org/2000/svg">
<path d="M1.02734 2.51763V0.714844H2.802" stroke="#00AEEF" stroke-miterlimit="10" stroke-dasharray="4 4"/>
<path d="M6.37988 0.714844H808.808" stroke="#00AEEF" stroke-miterlimit="10" stroke-dasharray="4 4"/>
<path d="M810.611 0.714844H812.386V2.51763" stroke="#00AEEF" stroke-miterlimit="10" stroke-dasharray="4 4"/>
<path d="M812.386 6.06641V402.736" stroke="#00AEEF" stroke-miterlimit="10" stroke-dasharray="4 4"/>
<path d="M812.386 404.512V406.286H810.611" stroke="#00AEEF" stroke-miterlimit="10" stroke-dasharray="4 4"/>
<path d="M807.005 406.285H4.60547" stroke="#00AEEF" stroke-miterlimit="10" stroke-dasharray="4 4"/>
<path d="M2.802 406.286H1.02734V404.512" stroke="#00AEEF" stroke-miterlimit="10" stroke-dasharray="4 4"/>
<path d="M1.02734 400.934V4.29297" stroke="#00AEEF" stroke-miterlimit="10" stroke-dasharray="4 4"/>
<path d="M1.02734 365.707H2.74474" stroke="#00AEEF" stroke-miterlimit="10" stroke-dasharray="4 4"/>
<path d="M6.17969 365.707H808.951" stroke="#00AEEF" stroke-miterlimit="10" stroke-dasharray="4 4"/>
<path d="M810.668 365.707H812.385" stroke="#00AEEF" stroke-miterlimit="10" stroke-dasharray="4 4"/>
<path d="M1.02734 325.188H2.74474" stroke="#00AEEF" stroke-miterlimit="10" stroke-dasharray="4 4"/>
<path d="M6.17969 325.188H808.951" stroke="#00AEEF" stroke-miterlimit="10" stroke-dasharray="4 4"/>
<path d="M810.668 325.188H812.385" stroke="#00AEEF" stroke-miterlimit="10" stroke-dasharray="4 4"/>
<path d="M1.02734 284.609H2.74474" stroke="#00AEEF" stroke-miterlimit="10" stroke-dasharray="4 4"/>
<path d="M6.17969 284.609H808.951" stroke="#00AEEF" stroke-miterlimit="10" stroke-dasharray="4 4"/>
<path d="M810.668 284.609H812.385" stroke="#00AEEF" stroke-miterlimit="10" stroke-dasharray="4 4"/>
<path d="M1.02734 244.09H2.74474" stroke="#00AEEF" stroke-miterlimit="10" stroke-dasharray="4 4"/>
<path d="M6.17969 244.09H808.951" stroke="#00AEEF" stroke-miterlimit="10" stroke-dasharray="4 4"/>
<path d="M810.668 244.09H812.385" stroke="#00AEEF" stroke-miterlimit="10" stroke-dasharray="4 4"/>
<path d="M1.02734 203.516H2.74474" stroke="#00AEEF" stroke-miterlimit="10" stroke-dasharray="4 4"/>
<path d="M6.17969 203.516H808.951" stroke="#00AEEF" stroke-miterlimit="10" stroke-dasharray="4 4"/>
<path d="M810.668 203.516H812.385" stroke="#00AEEF" stroke-miterlimit="10" stroke-dasharray="4 4"/>
<path d="M1.02734 162.906H2.74474" stroke="#00AEEF" stroke-miterlimit="10" stroke-dasharray="4 4"/>
<path d="M6.17969 162.906H808.951" stroke="#00AEEF" stroke-miterlimit="10" stroke-dasharray="4 4"/>
<path d="M810.668 162.906H812.385" stroke="#00AEEF" stroke-miterlimit="10" stroke-dasharray="4 4"/>
<path d="M1.02734 122.418H2.74474" stroke="#00AEEF" stroke-miterlimit="10" stroke-dasharray="4 4"/>
<path d="M6.17969 122.418H808.951" stroke="#00AEEF" stroke-miterlimit="10" stroke-dasharray="4 4"/>
<path d="M810.668 122.418H812.385" stroke="#00AEEF" stroke-miterlimit="10" stroke-dasharray="4 4"/>
<path d="M1.02734 81.8125H2.74474" stroke="#00AEEF" stroke-miterlimit="10" stroke-dasharray="4 4"/>
<path d="M6.17969 81.8125H808.951" stroke="#00AEEF" stroke-miterlimit="10" stroke-dasharray="4 4"/>
<path d="M810.668 81.8125H812.385" stroke="#00AEEF" stroke-miterlimit="10" stroke-dasharray="4 4"/>
<path d="M1.02734 41.3203H2.74474" stroke="#00AEEF" stroke-miterlimit="10" stroke-dasharray="4 4"/>
<path d="M6.17969 41.3203H808.951" stroke="#00AEEF" stroke-miterlimit="10" stroke-dasharray="4 4"/>
<path d="M810.668 41.3203H812.385" stroke="#00AEEF" stroke-miterlimit="10" stroke-dasharray="4 4"/>
<path d="M771.77 0.714844V2.43178" stroke="#00AEEF" stroke-miterlimit="10" stroke-dasharray="4 4"/>
<path d="M771.77 5.86719V402.852" stroke="#00AEEF" stroke-miterlimit="10" stroke-dasharray="4 4"/>
<path d="M771.77 404.566V406.283" stroke="#00AEEF" stroke-miterlimit="10" stroke-dasharray="4 4"/>
<path d="M731.182 0.714844V2.43178" stroke="#00AEEF" stroke-miterlimit="10" stroke-dasharray="4 4"/>
<path d="M731.182 5.86719V402.852" stroke="#00AEEF" stroke-miterlimit="10" stroke-dasharray="4 4"/>
<path d="M731.182 404.566V406.283" stroke="#00AEEF" stroke-miterlimit="10" stroke-dasharray="4 4"/>
<path d="M690.766 0.714844V2.43178" stroke="#00AEEF" stroke-miterlimit="10" stroke-dasharray="4 4"/>
<path d="M690.766 5.86719V402.852" stroke="#00AEEF" stroke-miterlimit="10" stroke-dasharray="4 4"/>
<path d="M690.766 404.566V406.283" stroke="#00AEEF" stroke-miterlimit="10" stroke-dasharray="4 4"/>
<path d="M650.148 0.714844V2.43178" stroke="#00AEEF" stroke-miterlimit="10" stroke-dasharray="4 4"/>
<path d="M650.148 5.86719V402.852" stroke="#00AEEF" stroke-miterlimit="10" stroke-dasharray="4 4"/>
<path d="M650.148 404.566V406.283" stroke="#00AEEF" stroke-miterlimit="10" stroke-dasharray="4 4"/>
<path d="M609.532 0.714844V2.43178" stroke="#00AEEF" stroke-miterlimit="10" stroke-dasharray="4 4"/>
<path d="M609.532 5.86719V402.852" stroke="#00AEEF" stroke-miterlimit="10" stroke-dasharray="4 4"/>
<path d="M609.532 404.566V406.283" stroke="#00AEEF" stroke-miterlimit="10" stroke-dasharray="4 4"/>
<path d="M568.944 0.714844V2.43178" stroke="#00AEEF" stroke-miterlimit="10" stroke-dasharray="4 4"/>
<path d="M568.944 5.86719V402.852" stroke="#00AEEF" stroke-miterlimit="10" stroke-dasharray="4 4"/>
<path d="M568.944 404.566V406.283" stroke="#00AEEF" stroke-miterlimit="10" stroke-dasharray="4 4"/>
<path d="M528.327 0.714844V2.43178" stroke="#00AEEF" stroke-miterlimit="10" stroke-dasharray="4 4"/>
<path d="M528.327 5.86719V402.852" stroke="#00AEEF" stroke-miterlimit="10" stroke-dasharray="4 4"/>
<path d="M528.327 404.566V406.283" stroke="#00AEEF" stroke-miterlimit="10" stroke-dasharray="4 4"/>
<path d="M487.911 0.714844V2.43178" stroke="#00AEEF" stroke-miterlimit="10" stroke-dasharray="4 4"/>
<path d="M487.911 5.86719V402.852" stroke="#00AEEF" stroke-miterlimit="10" stroke-dasharray="4 4"/>
<path d="M487.911 404.566V406.283" stroke="#00AEEF" stroke-miterlimit="10" stroke-dasharray="4 4"/>
<path d="M447.295 0.714844V2.43178" stroke="#00AEEF" stroke-miterlimit="10" stroke-dasharray="4 4"/>
<path d="M447.295 5.86719V402.852" stroke="#00AEEF" stroke-miterlimit="10" stroke-dasharray="4 4"/>
<path d="M447.295 404.566V406.283" stroke="#00AEEF" stroke-miterlimit="10" stroke-dasharray="4 4"/>
<path d="M406.707 0.714844V2.43178" stroke="#00AEEF" stroke-miterlimit="10" stroke-dasharray="4 4"/>
<path d="M406.707 5.86719V402.852" stroke="#00AEEF" stroke-miterlimit="10" stroke-dasharray="4 4"/>
<path d="M406.707 404.566V406.283" stroke="#00AEEF" stroke-miterlimit="10" stroke-dasharray="4 4"/>
<path d="M366.09 0.714844V2.43178" stroke="#00AEEF" stroke-miterlimit="10" stroke-dasharray="4 4"/>
<path d="M366.09 5.86719V402.852" stroke="#00AEEF" stroke-miterlimit="10" stroke-dasharray="4 4"/>
<path d="M366.09 404.566V406.283" stroke="#00AEEF" stroke-miterlimit="10" stroke-dasharray="4 4"/>
<path d="M325.474 0.714844V2.43178" stroke="#00AEEF" stroke-miterlimit="10" stroke-dasharray="4 4"/>
<path d="M325.474 5.86719V402.852" stroke="#00AEEF" stroke-miterlimit="10" stroke-dasharray="4 4"/>
<path d="M325.474 404.566V406.283" stroke="#00AEEF" stroke-miterlimit="10" stroke-dasharray="4 4"/>
<path d="M285.086 0.714844V2.43178" stroke="#00AEEF" stroke-miterlimit="10" stroke-dasharray="4 4"/>
<path d="M285.086 5.86719V402.852" stroke="#00AEEF" stroke-miterlimit="10" stroke-dasharray="4 4"/>
<path d="M285.086 404.566V406.283" stroke="#00AEEF" stroke-miterlimit="10" stroke-dasharray="4 4"/>
<path d="M244.469 0.714844V2.43178" stroke="#00AEEF" stroke-miterlimit="10" stroke-dasharray="4 4"/>
<path d="M244.469 5.86719V402.852" stroke="#00AEEF" stroke-miterlimit="10" stroke-dasharray="4 4"/>
<path d="M244.469 404.566V406.283" stroke="#00AEEF" stroke-miterlimit="10" stroke-dasharray="4 4"/>
<path d="M203.853 0.714844V2.43178" stroke="#00AEEF" stroke-miterlimit="10" stroke-dasharray="4 4"/>
<path d="M203.853 5.86719V402.852" stroke="#00AEEF" stroke-miterlimit="10" stroke-dasharray="4 4"/>
<path d="M203.853 404.566V406.283" stroke="#00AEEF" stroke-miterlimit="10" stroke-dasharray="4 4"/>
<path d="M163.236 0.714844V2.43178" stroke="#00AEEF" stroke-miterlimit="10" stroke-dasharray="4 4"/>
<path d="M163.236 5.86719V402.852" stroke="#00AEEF" stroke-miterlimit="10" stroke-dasharray="4 4"/>
<path d="M163.236 404.566V406.283" stroke="#00AEEF" stroke-miterlimit="10" stroke-dasharray="4 4"/>
<path d="M122.648 0.714844V2.43178" stroke="#00AEEF" stroke-miterlimit="10" stroke-dasharray="4 4"/>
<path d="M122.648 5.86719V402.852" stroke="#00AEEF" stroke-miterlimit="10" stroke-dasharray="4 4"/>
<path d="M122.648 404.566V406.283" stroke="#00AEEF" stroke-miterlimit="10" stroke-dasharray="4 4"/>
<path d="M82.2314 0.714844V2.43178" stroke="#00AEEF" stroke-miterlimit="10" stroke-dasharray="4 4"/>
<path d="M82.2314 5.86719V402.852" stroke="#00AEEF" stroke-miterlimit="10" stroke-dasharray="4 4"/>
<path d="M82.2314 404.566V406.283" stroke="#00AEEF" stroke-miterlimit="10" stroke-dasharray="4 4"/>
<path d="M41.6152 0.714844V2.43178" stroke="#00AEEF" stroke-miterlimit="10" stroke-dasharray="4 4"/>
<path d="M41.6152 5.86719V402.852" stroke="#00AEEF" stroke-miterlimit="10" stroke-dasharray="4 4"/>
<path d="M41.6152 404.566V406.283" stroke="#00AEEF" stroke-miterlimit="10" stroke-dasharray="4 4"/>
</svg>
