<svg width="981" height="402" viewBox="0 0 981 402" fill="none" xmlns="http://www.w3.org/2000/svg">
<g clip-path="url(#clip0_144_5754)">
<path d="M690.695 162.488C655.379 115.883 514.471 81.0684 345.985 81.0684C177.5 81.0684 36.6208 115.883 1.30469 162.488" stroke="#07BBA9" stroke-width="2" stroke-miterlimit="10" stroke-dasharray="4 4"/>
</g>
<g clip-path="url(#clip1_144_5754)">
<path d="M1.84776 253.512C51.8619 300.117 251.415 334.932 490.021 334.932C728.628 334.932 928.138 300.117 978.152 253.512" stroke="#07BBA9" stroke-width="2" stroke-miterlimit="10" stroke-dasharray="4 4"/>
</g>
<g clip-path="url(#clip2_144_5754)">
<path d="M980.453 162.488C965.653 115.883 906.602 81.0684 835.994 81.0684C765.386 81.0684 706.347 115.883 691.547 162.488" stroke="#07BBA9" stroke-width="2" stroke-miterlimit="10" stroke-dasharray="4 4"/>
</g>
<rect x="1" y="162" width="690" height="90" fill="#CEECD1" stroke="black" stroke-width="2"/>
<rect x="692" y="162" width="288" height="90" fill="#FFD6DC" stroke="black" stroke-width="2"/>
<rect width="82" height="132" transform="translate(305 15)" fill="white"/>
<rect width="82" height="132" transform="translate(795 15)" fill="white"/>
<rect width="82" height="132" transform="translate(449 270)" fill="white"/>
<defs>
<clipPath id="clip0_144_5754">
<rect width="692" height="83" fill="white" transform="translate(0 80)"/>
</clipPath>
<clipPath id="clip1_144_5754">
<rect width="980" height="82.9999" fill="white" transform="translate(980 336) rotate(-180)"/>
</clipPath>
<clipPath id="clip2_144_5754">
<rect width="290" height="83" fill="white" transform="translate(691 80)"/>
</clipPath>
</defs>
</svg>
