<svg width="705" height="478" viewBox="0 0 705 478" fill="none" xmlns="http://www.w3.org/2000/svg">
<path d="M352.509 477.608C434.02 477.608 560.996 480.858 610.341 468.649C707.537 444.547 704.984 335.612 704.984 241.82C704.984 143.113 709.03 43.7716 588.586 23.4752C542.757 15.7055 421.518 6.11221 352.475 6.11221C275.209 6.11221 161.199 -6.57307 112.783 4.60582C1.89021 30.1349 0 146.919 0 241.9C0 324.275 8.15777 435.508 82.2409 459.69C136.228 477.211 245.595 477.608 352.509 477.608Z" fill="#E8F5FC"/>
<path d="M679.749 317.385C679.749 317.385 687.012 441.542 615.847 432.583C615.847 432.583 666.485 415.299 679.749 317.385Z" fill="white"/>
</svg>
