<svg width="69" height="82" viewBox="0 0 69 82" fill="none" xmlns="http://www.w3.org/2000/svg">
<g id="&#235;&#167;&#144;1" filter="url(#filter0_d_9373_70637)">
<g id="Vector">
<path d="M41.7669 24.9279C46.0675 20.7792 46.1551 13.9666 41.9601 9.71092C37.7651 5.45779 30.8764 5.3712 26.5733 9.51991C22.2701 13.6686 22.1852 20.4813 26.3802 24.7369C26.4445 24.8006 26.5063 24.8643 26.5733 24.9279" fill="url(#paint0_linear_9373_70637)"/>
<path d="M41.7669 24.9279C46.0675 20.7792 46.1551 13.9666 41.9601 9.71092C37.7651 5.45779 30.8764 5.3712 26.5733 9.51991C22.2701 13.6686 22.1852 20.4813 26.3802 24.7369C26.4445 24.8006 26.5063 24.8643 26.5733 24.9279" stroke="#A80000" stroke-width="1.02486" stroke-miterlimit="10"/>
</g>
<path id="Vector_2" d="M44.0684 24.9277H24.2549C22.8326 24.9277 21.6797 26.068 21.6797 27.4745V30.2378C21.6797 31.6443 22.8326 32.7846 24.2549 32.7846H44.0684C45.4907 32.7846 46.6436 31.6443 46.6436 30.2378V27.4745C46.6436 26.068 45.4907 24.9277 44.0684 24.9277Z" fill="url(#paint1_linear_9373_70637)" stroke="#A80000" stroke-width="1.02486" stroke-miterlimit="10"/>
<g id="Vector_3">
<path d="M48.8825 55.0462C44.6102 45.9083 43.3999 32.7822 43.3999 32.7822H24.9434C24.9434 32.7822 23.7331 45.9083 19.4531 55.0437" fill="url(#paint2_linear_9373_70637)"/>
<path d="M48.8825 55.0462C44.6102 45.9083 43.3999 32.7822 43.3999 32.7822H24.9434C24.9434 32.7822 23.7331 45.9083 19.4531 55.0437" stroke="#A80000" stroke-width="1.02486" stroke-miterlimit="10"/>
</g>
<g id="Vector_4">
<path d="M25.8338 54.5881H19.2877C16.4086 54.5881 14.0729 56.8955 14.0703 59.7428V64.5231H54.2717V59.7428C54.2717 56.8929 51.936 54.583 49.0543 54.583H31.4143" fill="url(#paint3_linear_9373_70637)"/>
<path d="M25.8338 54.5881H19.2877C16.4086 54.5881 14.0729 56.8955 14.0703 59.7428V64.5231H54.2717V59.7428C54.2717 56.8929 51.936 54.583 49.0543 54.583H31.4143" stroke="#A80000" stroke-width="1.02486" stroke-miterlimit="10"/>
</g>
<path id="Vector_5" d="M15.3309 64.5273H53.3253C56.6396 64.5273 59.3281 67.1859 59.3281 70.4632H9.32812C9.32812 67.1859 12.0166 64.5273 15.3309 64.5273Z" fill="url(#paint4_linear_9373_70637)" stroke="#A80000" stroke-width="1.02486" stroke-miterlimit="10"/>
<path id="Vector_6" d="M34.331 12.1592C31.5344 12.1592 29.2656 14.4026 29.2656 17.1682" stroke="#A80000" stroke-width="1.02486" stroke-miterlimit="10"/>
</g>
<defs>
<filter id="filter0_d_9373_70637" x="0.617545" y="0.485264" width="67.4212" height="81.4221" filterUnits="userSpaceOnUse" color-interpolation-filters="sRGB">
<feFlood flood-opacity="0" result="BackgroundImageFix"/>
<feColorMatrix in="SourceAlpha" type="matrix" values="0 0 0 0 0 0 0 0 0 0 0 0 0 0 0 0 0 0 127 0" result="hardAlpha"/>
<feOffset dy="2.73295"/>
<feGaussianBlur stdDeviation="4.09943"/>
<feComposite in2="hardAlpha" operator="out"/>
<feColorMatrix type="matrix" values="0 0 0 0 0 0 0 0 0 0 0 0 0 0 0 0 0 0 0.12 0"/>
<feBlend mode="normal" in2="BackgroundImageFix" result="effect1_dropShadow_9373_70637"/>
<feBlend mode="normal" in="SourceGraphic" in2="effect1_dropShadow_9373_70637" result="shape"/>
</filter>
<linearGradient id="paint0_linear_9373_70637" x1="23.2891" y1="15.6959" x2="45.0502" y2="15.6959" gradientUnits="userSpaceOnUse">
<stop stop-color="#FA3A03"/>
<stop offset="1" stop-color="#C81020"/>
</linearGradient>
<linearGradient id="paint1_linear_9373_70637" x1="21.6797" y1="28.8561" x2="46.6436" y2="28.8561" gradientUnits="userSpaceOnUse">
<stop stop-color="#FA3A03"/>
<stop offset="1" stop-color="#C81020"/>
</linearGradient>
<linearGradient id="paint2_linear_9373_70637" x1="19.4531" y1="43.9142" x2="48.8825" y2="43.9142" gradientUnits="userSpaceOnUse">
<stop stop-color="#FA3A03"/>
<stop offset="1" stop-color="#C81020"/>
</linearGradient>
<linearGradient id="paint3_linear_9373_70637" x1="14.0703" y1="59.5531" x2="54.2717" y2="59.5531" gradientUnits="userSpaceOnUse">
<stop stop-color="#FA3A03"/>
<stop offset="1" stop-color="#C81020"/>
</linearGradient>
<linearGradient id="paint4_linear_9373_70637" x1="9.32813" y1="67.4953" x2="59.3281" y2="67.4953" gradientUnits="userSpaceOnUse">
<stop stop-color="#FA3A03"/>
<stop offset="1" stop-color="#C81020"/>
</linearGradient>
</defs>
</svg>
