<svg width="460" height="216" viewBox="0 0 460 216" fill="none" xmlns="http://www.w3.org/2000/svg">
<path d="M2 160L41 140" stroke="#FF8C78" stroke-width="4" stroke-linecap="round"/>
<path d="M2 56L41 76" stroke="#FF8C78" stroke-width="4" stroke-linecap="round"/>
<path fill-rule="evenodd" clip-rule="evenodd" d="M9.5655 109.762L30.1806 109.762L22.1746 117.768C21.4857 118.457 21.4857 119.573 22.1746 120.261C22.8634 120.95 23.9782 120.95 24.667 120.261L35.6825 109.245C35.6869 109.242 35.6883 109.236 35.6928 109.232C35.8499 109.072 35.9762 108.882 36.0629 108.674C36.2421 108.242 36.2421 107.757 36.0629 107.326C35.9762 107.116 35.8499 106.928 35.6928 106.767C35.6883 106.763 35.6869 106.757 35.6825 106.753L24.667 95.7373C24.3233 95.3936 23.8724 95.2218 23.4215 95.2218C22.9691 95.2218 22.5182 95.3936 22.1746 95.7373C21.4857 96.4261 21.4857 97.5424 22.1746 98.2298L30.1806 106.237L9.5655 106.237C8.59173 106.237 7.80302 107.026 7.80302 108C7.80302 108.972 8.59173 109.762 9.5655 109.762Z" fill="#3B71FE"/>
<path d="M76 6H385C394.941 6 403 14.0589 403 24V192C403 201.941 394.941 210 385 210H76C66.0589 210 58 201.941 58 192V24C58 14.0589 66.0589 6 76 6Z" fill="white"/>
<path d="M76 6H385C394.941 6 403 14.0589 403 24V192C403 201.941 394.941 210 385 210H76C66.0589 210 58 201.941 58 192V24C58 14.0589 66.0589 6 76 6Z" stroke="#FF8C78" stroke-width="4"/>
<rect x="68" y="16" width="325" height="184" rx="12" fill="#FFE6E2"/>
<path d="M458 160L419 140" stroke="#FF8C78" stroke-width="4" stroke-linecap="round"/>
<path d="M458 56L419 76" stroke="#FF8C78" stroke-width="4" stroke-linecap="round"/>
<path fill-rule="evenodd" clip-rule="evenodd" d="M426.565 109.762L447.181 109.762L439.175 117.768C438.486 118.457 438.486 119.573 439.175 120.261C439.863 120.95 440.978 120.95 441.667 120.261L452.682 109.245C452.687 109.242 452.688 109.236 452.693 109.232C452.85 109.072 452.976 108.882 453.063 108.674C453.242 108.242 453.242 107.757 453.063 107.326C452.976 107.116 452.85 106.928 452.693 106.767C452.688 106.763 452.687 106.757 452.682 106.753L441.667 95.7373C441.323 95.3936 440.872 95.2218 440.422 95.2218C439.969 95.2218 439.518 95.3936 439.175 95.7373C438.486 96.4261 438.486 97.5424 439.175 98.2298L447.181 106.237L426.565 106.237C425.592 106.237 424.803 107.026 424.803 108C424.803 108.972 425.592 109.762 426.565 109.762Z" fill="#3B71FE"/>
</svg>
