<svg width="550" height="360" viewBox="0 0 550 360" fill="none" xmlns="http://www.w3.org/2000/svg">
<mask id="mask0_463_5403" style="mask-type:alpha" maskUnits="userSpaceOnUse" x="0" y="0" width="550" height="360">
<path d="M550 0H0V360H550V0Z" fill="black"/>
</mask>
<g mask="url(#mask0_463_5403)">
<path d="M241.732 220.896C255.876 242.772 261.282 267.476 257.102 289.1" stroke="#00AEEF" stroke-width="1.5715" stroke-miterlimit="10" stroke-dasharray="3.93 3.14"/>
<path d="M128.488 170.821C151.055 164.472 178.022 168.621 202.16 182.922" stroke="#00AEEF" stroke-width="1.5715" stroke-miterlimit="10" stroke-dasharray="3.93 3.14"/>
<path d="M306.949 47.4287C361.889 29.0421 412.114 24.2648 443.827 33.3166" stroke="#00AEEF" stroke-width="1.5715" stroke-miterlimit="10" stroke-dasharray="3.93 3.14"/>
<path d="M128.428 170.829C142.666 142.825 177.522 111.049 224.792 84.1133" stroke="#00AEEF" stroke-width="1.5715" stroke-miterlimit="10" stroke-dasharray="3.93 3.14"/>
<path d="M539.438 5.25391H458.191V49.0046H539.438V5.25391Z" fill="#DCAB8D"/>
<path d="M466.615 5.25391V30.8066H495.059V5.25391H510.051V29.1093H530.921V5.25391H539.438V49.036H458.191V5.25391H466.615Z" fill="#DCAB8D"/>
<g style="mix-blend-mode:multiply" opacity="0.39">
<mask id="mask1_463_5403" style="mask-type:luminance" maskUnits="userSpaceOnUse" x="458" y="5" width="82" height="44">
<path d="M539.475 5.24219H458.197V48.9928H539.475V5.24219Z" fill="white"/>
</mask>
<g mask="url(#mask1_463_5403)">
<mask id="mask2_463_5403" style="mask-type:luminance" maskUnits="userSpaceOnUse" x="458" y="5" width="82" height="44">
<path d="M539.444 5.24414H458.197V48.9948H539.444V5.24414Z" fill="white"/>
</mask>
<g mask="url(#mask2_463_5403)">
<g style="mix-blend-mode:multiply" opacity="0.27">
<mask id="mask3_463_5403" style="mask-type:luminance" maskUnits="userSpaceOnUse" x="458" y="5" width="82" height="44">
<path d="M539.477 5.24609H458.199V48.9967H539.477V5.24609Z" fill="white"/>
</mask>
<g mask="url(#mask3_463_5403)">
<path d="M536.994 5.24609V46.5452H458.199V49.0282H539.446V5.24609H536.994Z" fill="#AB786C"/>
</g>
</g>
</g>
</g>
</g>
<g style="mix-blend-mode:multiply" opacity="0.52">
<mask id="mask4_463_5403" style="mask-type:luminance" maskUnits="userSpaceOnUse" x="458" y="5" width="82" height="4">
<path d="M539.475 5.24219H458.197V8.35378H539.475V5.24219Z" fill="white"/>
</mask>
<g mask="url(#mask4_463_5403)">
<path d="M539.444 5.24219H458.197V8.35378H539.444V5.24219Z" fill="#F9C28D"/>
</g>
</g>
<path d="M456.687 6.88157H540.919C540.919 6.88157 541.108 6.81867 541.108 6.69295V4.90146C541.108 4.90146 541.013 4.71289 540.919 4.71289H456.687C456.687 4.71289 456.498 4.80717 456.498 4.90146V6.69295C456.498 6.69295 456.592 6.88157 456.687 6.88157Z" fill="#6569A2"/>
<path d="M456.687 4.67578H540.919C540.919 4.67578 541.108 4.77011 541.108 4.8644V6.65589C541.108 6.65589 541.013 6.84446 540.919 6.84446H456.687C456.687 6.84446 456.498 6.75018 456.498 6.65589V4.8644C456.498 4.8644 456.592 4.67578 456.687 4.67578Z" stroke="#7A563A" stroke-width="0.942902"/>
<path d="M488.271 8.32227H509.11V17.9713H488.271V8.32227ZM508.701 8.69946H488.68V17.5627H508.701V8.69946Z" fill="#F9C28D"/>
<path d="M535.89 14.166H515.461V43.3646H535.89V14.166Z" fill="#98CAED"/>
<g opacity="0.29">
<mask id="mask5_463_5403" style="mask-type:luminance" maskUnits="userSpaceOnUse" x="515" y="14" width="21" height="30">
<path d="M535.889 14.168H515.459V43.3665H535.889V14.168Z" fill="white"/>
</mask>
<g mask="url(#mask5_463_5403)">
<mask id="mask6_463_5403" style="mask-type:luminance" maskUnits="userSpaceOnUse" x="515" y="14" width="21" height="30">
<path d="M535.889 14.1699H515.459V43.3685H535.889V14.1699Z" fill="white"/>
</mask>
<g mask="url(#mask6_463_5403)">
<path d="M535.889 35.8623L529.131 43.3741H525.957L535.889 32.2793V35.8623Z" fill="white"/>
<path d="M535.889 28.0891L522.217 43.3641H517.125L535.889 22.4316V28.0891Z" fill="white"/>
<path d="M535.889 14.1699V14.2014L515.459 36.9567V28.4392L528.251 14.1699H535.889Z" fill="white"/>
<path d="M515.459 22.4989L522.908 14.1699H524.259L515.459 24.0075V22.4989Z" fill="white"/>
</g>
</g>
</g>
<path d="M515.273 43.3696V14.171C515.273 14.171 515.368 13.9824 515.462 13.9824H535.892C535.892 13.9824 536.111 14.0767 536.111 14.171V43.3696C536.111 43.3696 536.017 43.5895 535.892 43.5895H515.462C515.462 43.5895 515.273 43.4953 515.273 43.3696ZM535.672 14.3596H515.651V43.1495H535.672V14.3596Z" fill="#F8F8F8"/>
<path d="M525.675 43.5585C525.675 43.5585 525.895 43.4642 525.895 43.3385V14.14C525.895 14.14 525.801 13.9199 525.675 13.9199C525.549 13.9199 525.455 14.0142 525.455 14.14V43.3385C525.455 43.3385 525.549 43.5585 525.675 43.5585Z" fill="#F8F8F8"/>
<path d="M515.46 20.6156H535.89C535.89 20.6156 536.11 20.5214 536.11 20.4271C536.11 20.3013 536.016 20.207 535.89 20.207H515.46C515.46 20.207 515.24 20.3013 515.24 20.4271C515.24 20.5214 515.335 20.6156 515.46 20.6156Z" fill="#F8F8F8"/>
<path d="M515.46 37.5219H535.89C535.89 37.5219 536.11 37.4276 536.11 37.3333C536.11 37.2075 536.016 37.1133 535.89 37.1133H515.46C515.46 37.1133 515.24 37.2075 515.24 37.3333C515.24 37.4276 515.335 37.5219 515.46 37.5219Z" fill="#F8F8F8"/>
<path d="M515.46 26.1156H535.89C535.89 26.1156 536.11 26.0214 536.11 25.9271C536.11 25.8013 536.016 25.707 535.89 25.707H515.46C515.46 25.707 515.24 25.8013 515.24 25.9271C515.24 26.0214 515.335 26.1156 515.46 26.1156Z" fill="#F8F8F8"/>
<path d="M515.46 31.6156H535.89C535.89 31.6156 536.11 31.5214 536.11 31.4271C536.11 31.3013 536.016 31.207 535.89 31.207H515.46C515.46 31.207 515.24 31.3013 515.24 31.4271C515.24 31.5214 515.335 31.6156 515.46 31.6156Z" fill="#F8F8F8"/>
<path d="M482.646 14.166H462.217V43.3646H482.646V14.166Z" fill="#98CAED"/>
<g opacity="0.29">
<mask id="mask7_463_5403" style="mask-type:luminance" maskUnits="userSpaceOnUse" x="462" y="14" width="21" height="30">
<path d="M482.646 14.168H462.217V43.3665H482.646V14.168Z" fill="white"/>
</mask>
<g mask="url(#mask7_463_5403)">
<mask id="mask8_463_5403" style="mask-type:luminance" maskUnits="userSpaceOnUse" x="462" y="14" width="21" height="30">
<path d="M482.646 14.1699H462.217V43.3685H482.646V14.1699Z" fill="white"/>
</mask>
<g mask="url(#mask8_463_5403)">
<path d="M482.647 35.8623L475.89 43.3741H472.684L482.647 32.2793V35.8623Z" fill="white"/>
<path d="M482.647 28.0891L468.943 43.3641H463.883L482.647 22.4316V28.0891Z" fill="white"/>
<path d="M482.646 14.1699V14.2014L462.217 36.9567V28.4392L475.009 14.1699H482.646Z" fill="white"/>
<path d="M462.217 22.4989L469.666 14.1699H471.017L462.217 24.0075V22.4989Z" fill="white"/>
</g>
</g>
</g>
<path d="M462.029 43.3696V14.171C462.029 14.171 462.124 13.9824 462.249 13.9824H482.647C482.647 13.9824 482.867 14.0767 482.867 14.171V43.3696C482.867 43.3696 482.773 43.5895 482.647 43.5895H462.249C462.249 43.5895 462.029 43.4953 462.029 43.3696ZM482.427 14.3596H462.406V43.1495H482.427V14.3596Z" fill="#F8F8F8"/>
<path d="M472.433 43.5585C472.433 43.5585 472.621 43.4642 472.621 43.3385V14.14C472.621 14.14 472.527 13.9199 472.433 13.9199C472.307 13.9199 472.213 14.0142 472.213 14.14V43.3385C472.213 43.3385 472.307 43.5585 472.433 43.5585Z" fill="#F8F8F8"/>
<path d="M462.218 20.6156H482.616C482.616 20.6156 482.836 20.5214 482.836 20.4271C482.836 20.3013 482.742 20.207 482.616 20.207H462.218C462.218 20.207 461.998 20.3013 461.998 20.4271C461.998 20.5214 462.092 20.6156 462.218 20.6156Z" fill="#F8F8F8"/>
<path d="M462.218 37.5219H482.616C482.616 37.5219 482.836 37.4276 482.836 37.3333C482.836 37.2075 482.742 37.1133 482.616 37.1133H462.218C462.218 37.1133 461.998 37.2075 461.998 37.3333C461.998 37.4276 462.092 37.5219 462.218 37.5219Z" fill="#F8F8F8"/>
<path d="M462.218 26.1156H482.616C482.616 26.1156 482.836 26.0214 482.836 25.9271C482.836 25.8013 482.742 25.707 482.616 25.707H462.218C462.218 25.707 461.998 25.8013 461.998 25.9271C461.998 26.0214 462.092 26.1156 462.218 26.1156Z" fill="#F8F8F8"/>
<path d="M462.218 31.6156H482.616C482.616 31.6156 482.836 31.5214 482.836 31.4271C482.836 31.3013 482.742 31.207 482.616 31.207H462.218C462.218 31.207 461.998 31.3013 461.998 31.4271C461.998 31.5214 462.092 31.6156 462.218 31.6156Z" fill="#F8F8F8"/>
<path d="M511.816 1.21289H485.729V49.018H511.816V1.21289Z" fill="#FCCBAD"/>
<path d="M511.816 1.21289H485.729V48.9866H511.816V1.21289Z" stroke="#7A563A" stroke-width="0.942902"/>
<g style="mix-blend-mode:multiply" opacity="0.13">
<mask id="mask9_463_5403" style="mask-type:luminance" maskUnits="userSpaceOnUse" x="510" y="1" width="2" height="49">
<path d="M511.781 1.2168H510.523V49.0219H511.781V1.2168Z" fill="white"/>
</mask>
<g mask="url(#mask9_463_5403)">
<mask id="mask10_463_5403" style="mask-type:luminance" maskUnits="userSpaceOnUse" x="510" y="1" width="2" height="49">
<path d="M511.781 1.21875H510.523V49.0239H511.781V1.21875Z" fill="white"/>
</mask>
<g mask="url(#mask10_463_5403)">
<path d="M511.781 1.21875H510.523V49.0239H511.781V1.21875Z" fill="#AB786C"/>
</g>
</g>
</g>
<g style="mix-blend-mode:multiply" opacity="0.42">
<mask id="mask11_463_5403" style="mask-type:luminance" maskUnits="userSpaceOnUse" x="488" y="31" width="22" height="18">
<path d="M509.05 31.2305H488.432V48.6113H509.05V31.2305Z" fill="white"/>
</mask>
<g mask="url(#mask11_463_5403)">
<mask id="mask12_463_5403" style="mask-type:luminance" maskUnits="userSpaceOnUse" x="488" y="31" width="22" height="18">
<path d="M509.05 31.2305H488.432V48.6113H509.05V31.2305Z" fill="white"/>
</mask>
<g mask="url(#mask12_463_5403)">
<path d="M509.05 31.2305H488.432V48.6113H509.05V31.2305Z" fill="#E6A081"/>
</g>
</g>
</g>
<path d="M506.912 33.4043H490.6V48.6165H506.912V33.4043Z" fill="#98CAED"/>
<g opacity="0.34">
<mask id="mask13_463_5403" style="mask-type:luminance" maskUnits="userSpaceOnUse" x="490" y="33" width="17" height="16">
<path d="M506.912 33.4082H490.6V48.6204H506.912V33.4082Z" fill="white"/>
</mask>
<g mask="url(#mask13_463_5403)">
<mask id="mask14_463_5403" style="mask-type:luminance" maskUnits="userSpaceOnUse" x="490" y="33" width="17" height="16">
<path d="M506.912 33.4102H490.6V48.6223H506.912V33.4102Z" fill="white"/>
</mask>
<g mask="url(#mask14_463_5403)">
<path d="M506.911 44.4368L505.214 48.617H502.637L506.911 38.0879V44.4368Z" fill="white"/>
<path d="M506.628 33.4102L500.467 48.6223H498.99L505.151 33.4102H506.628Z" fill="white"/>
<path d="M494.151 33.4102H495.628L490.6 45.8251V42.1792L494.151 33.4102Z" fill="white"/>
<path d="M501.914 33.4102L495.753 48.6223H492.453L498.613 33.4102H501.914Z" fill="white"/>
</g>
</g>
</g>
<path d="M490.6 33.4086H506.912V48.6207H490.6V33.4086ZM490.6 33C490.38 33 490.191 33.1885 490.191 33.4086V48.6207C490.191 48.8408 490.38 49.0293 490.6 49.0293H506.912C507.132 49.0293 507.321 48.8408 507.321 48.6207V33.4086C507.321 33.1885 507.132 33 506.912 33H490.6Z" fill="#F8F8F8"/>
<path d="M498.771 48.8407C498.771 48.8407 498.959 48.7465 498.959 48.6207V33.22C498.959 33.22 498.865 33 498.771 33C498.645 33 498.551 33.0943 498.551 33.22V48.6207C498.551 48.6207 498.645 48.8407 498.771 48.8407Z" fill="#F8F8F8"/>
<path d="M485.163 49.0237H512.35C512.35 49.0237 512.444 48.9923 512.444 48.9294V47.7037C512.444 47.7037 512.412 47.6094 512.35 47.6094H485.163C485.163 47.6094 485.068 47.6408 485.068 47.7037V48.9294C485.068 48.9294 485.1 49.0237 485.163 49.0237Z" fill="#6569A2"/>
<g style="mix-blend-mode:multiply" opacity="0.52">
<mask id="mask15_463_5403" style="mask-type:luminance" maskUnits="userSpaceOnUse" x="485" y="1" width="27" height="4">
<path d="M511.816 1.2168H485.729V4.13977H511.816V1.2168Z" fill="white"/>
</mask>
<g mask="url(#mask15_463_5403)">
<mask id="mask16_463_5403" style="mask-type:luminance" maskUnits="userSpaceOnUse" x="485" y="1" width="27" height="4">
<path d="M511.816 1.21875H485.729V4.14172H511.816V1.21875Z" fill="white"/>
</mask>
<g mask="url(#mask16_463_5403)">
<path d="M511.816 1.21875H485.729V4.14172H511.816V1.21875Z" fill="#F9C28D"/>
</g>
</g>
</g>
<path d="M484.692 2.72781H512.822C512.822 2.72781 513.011 2.66496 513.011 2.53924V0.653416C513.011 0.653416 512.917 0.464844 512.822 0.464844H484.692C484.692 0.464844 484.504 0.559126 484.504 0.653416V2.53924C484.504 2.53924 484.598 2.72781 484.692 2.72781Z" fill="#6569A2"/>
<path d="M484.657 0.464844H512.819C512.819 0.464844 513.007 0.559126 513.007 0.653416V2.53924C513.007 2.53924 512.913 2.72781 512.819 2.72781H484.657C484.657 2.72781 484.469 2.63353 484.469 2.53924V0.653416C484.469 0.653416 484.563 0.464844 484.657 0.464844Z" stroke="#7A563A" stroke-width="0.942902"/>
<g style="mix-blend-mode:multiply" opacity="0.32">
<mask id="mask17_463_5403" style="mask-type:luminance" maskUnits="userSpaceOnUse" x="485" y="47" width="28" height="2">
<path d="M512.444 47.5762H485.068V48.0476H512.444V47.5762Z" fill="white"/>
</mask>
<g mask="url(#mask17_463_5403)">
<mask id="mask18_463_5403" style="mask-type:luminance" maskUnits="userSpaceOnUse" x="485" y="47" width="28" height="2">
<path d="M512.444 47.5781H485.068V48.0496H512.444V47.5781Z" fill="white"/>
</mask>
<g mask="url(#mask18_463_5403)">
<path d="M485.163 47.5781H512.35C512.35 47.5781 512.444 47.6096 512.444 47.6724V48.0496H485.068V47.6724C485.068 47.6724 485.1 47.5781 485.163 47.5781Z" fill="#E4E3E5"/>
</g>
</g>
</g>
<path d="M489.972 23.2832H507.353C507.353 23.2832 507.51 23.2203 507.51 23.126V10.8368C507.51 10.8368 507.415 10.6797 507.353 10.6797H489.972C489.972 10.6797 489.783 10.7426 489.783 10.8368V23.126C489.783 23.126 489.846 23.2832 489.972 23.2832Z" fill="#F8F8F8"/>
<path d="M490.818 22.2461H506.501C506.501 22.2461 506.69 22.1832 506.69 22.0575V11.8427C506.69 11.8427 506.595 11.6855 506.501 11.6855H490.818C490.818 11.6855 490.629 11.7484 490.629 11.8427V22.0575C490.629 22.0575 490.692 22.2461 490.818 22.2461Z" fill="#3B869D"/>
<g style="mix-blend-mode:multiply" opacity="0.44">
<mask id="mask19_463_5403" style="mask-type:luminance" maskUnits="userSpaceOnUse" x="490" y="11" width="17" height="12">
<path d="M506.693 11.6895H490.664V22.25H506.693V11.6895Z" fill="white"/>
</mask>
<g mask="url(#mask19_463_5403)">
<mask id="mask20_463_5403" style="mask-type:luminance" maskUnits="userSpaceOnUse" x="490" y="11" width="17" height="12">
<path d="M506.693 11.6914H490.664V22.2519H506.693V11.6914Z" fill="white"/>
</mask>
<g mask="url(#mask20_463_5403)">
<path d="M490.853 22.2519H506.536C506.536 22.2519 506.725 22.1576 506.725 22.0633V11.88C506.725 11.88 506.631 11.6914 506.536 11.6914L490.664 22.0633C490.664 22.0633 490.758 22.2519 490.853 22.2519Z" fill="#3B869D"/>
</g>
</g>
</g>
<path d="M538.09 5.24023H539.442V49.0223H458.195V5.24023H461.307" stroke="#7A563A" stroke-width="0.942902"/>
<path d="M272.441 290.999L278.947 276.447H301.86V289.334L299.566 290.999H272.441Z" fill="#4D8CC6"/>
<path d="M301.86 276.424V288.179L299.251 290.096H272.85L273.572 288.462H298.842L299.754 287.581V276.424H301.86Z" fill="#3387C4"/>
<path d="M272.441 290.999L278.947 276.447H301.86V289.334L299.566 290.999H272.441Z" stroke="#7A563A" stroke-width="0.942902" stroke-miterlimit="10"/>
<path d="M265.561 313.882C265.561 316.773 269.552 319.162 274.455 319.162H349.133C354.036 319.162 358.028 316.805 358.028 313.882C358.028 310.959 354.005 308.602 349.133 308.602H274.455C269.552 308.602 265.561 310.959 265.561 313.882Z" fill="#DCB778"/>
<path d="M349.323 290.999L342.786 276.447H319.873V289.334L322.167 290.999H349.323Z" fill="#4D8CC6"/>
<path d="M319.873 276.424V288.179L322.482 290.096H348.883L348.16 288.462H322.89L322.01 287.581V276.424H319.873Z" fill="#3387C4"/>
<path d="M347.559 291.918H274.139V313.07H347.559V291.918Z" fill="#F8E2B7"/>
<path d="M297.963 313.105V272.089L310.881 262.723L323.767 272.089V313.105H297.963Z" fill="#F8E2B7"/>
<path d="M307.613 272.78C307.613 274.603 309.091 276.049 310.882 276.049C312.674 276.049 314.151 274.572 314.151 272.78C314.151 270.989 312.705 269.512 310.882 269.512C309.059 269.512 307.613 270.989 307.613 272.78Z" fill="white"/>
<path d="M307.613 272.78C307.613 274.603 309.091 276.049 310.882 276.049C312.674 276.049 314.151 274.572 314.151 272.78C314.151 270.989 312.705 269.512 310.882 269.512C309.059 269.512 307.613 270.989 307.613 272.78Z" stroke="#7A563A" stroke-width="0.942902" stroke-linecap="round" stroke-linejoin="round"/>
<path d="M297.963 273.787L310.849 264.421C310.849 264.421 323.516 273.598 323.547 273.598V272.121L310.849 262.943L297.963 272.31V273.787Z" fill="#F7DC99"/>
<path d="M347.595 291.918H323.551V293.112H347.595V291.918Z" fill="#F7DC99"/>
<path d="M298.183 291.918H274.139V293.112H298.183V291.918Z" fill="#F7DC99"/>
<path d="M325.779 291.918H323.768V313.07H325.779V291.918Z" fill="#F7DC99"/>
<path d="M297.965 291.918H295.953V313.07H297.965V291.918Z" fill="#F7DC99"/>
<path d="M297.964 290.062H271.092V291.917H297.964V290.062Z" fill="#4D8CC6"/>
<path d="M297.964 290.062H271.092V291.917H297.964V290.062Z" stroke="#7A563A" stroke-width="0.942902" stroke-miterlimit="10"/>
<path d="M323.739 291.003H349.323L342.66 277.111H323.676" stroke="#7A563A" stroke-width="0.942902" stroke-miterlimit="10"/>
<path d="M297.02 291.918H274.139V313.102H347.591V291.918H324.835" stroke="#7A563A" stroke-width="0.942902" stroke-miterlimit="10"/>
<path d="M297.963 313.105V272.089L310.881 262.723L323.767 272.089V313.105H297.963Z" stroke="#7A563A" stroke-width="0.942902" stroke-miterlimit="10"/>
<path d="M350.64 290.062H323.736V291.917H350.64V290.062Z" fill="#4D8CC6"/>
<path d="M350.64 290.062H323.736V291.917H350.64V290.062Z" stroke="#7A563A" stroke-width="0.942902" stroke-miterlimit="10"/>
<path d="M295.387 274.161L310.882 262.941L326.346 274.161L327.446 272.653L310.882 260.646L294.287 272.653L295.387 274.161Z" fill="#4D8CC6"/>
<path d="M295.387 274.161L310.882 262.941L326.346 274.161L327.446 272.653L310.882 260.646L294.287 272.653L295.387 274.161Z" stroke="#7A563A" stroke-width="0.942902" stroke-miterlimit="10"/>
<path d="M310.883 270.604V272.772L312.423 271.924" fill="white"/>
<path d="M310.883 270.604V272.772L312.423 271.924" stroke="#7A563A" stroke-width="0.942902" stroke-linecap="round" stroke-linejoin="round"/>
<path d="M307.613 292.202C307.613 290.411 309.091 288.934 310.882 288.934C312.674 288.934 314.151 290.411 314.151 292.202V295.471H307.613V292.202Z" fill="#88C5DA"/>
<path d="M307.613 292.202C307.613 290.411 309.091 288.934 310.882 288.934C312.674 288.934 314.151 290.411 314.151 292.202V295.471H307.613V292.202Z" stroke="#7A563A" stroke-width="0.942902" stroke-miterlimit="10"/>
<path d="M311.039 290.787L312.988 294.496" stroke="#B8E4EE" stroke-width="0.942902" stroke-miterlimit="10"/>
<path d="M310.882 294.496L308.965 290.787" stroke="#B8E4EE" stroke-width="0.942902" stroke-miterlimit="10"/>
<path d="M307.613 282.921C307.613 281.13 309.091 279.652 310.882 279.652C312.674 279.652 314.151 281.13 314.151 282.921V286.19H307.613V282.921Z" fill="#88C5DA"/>
<path d="M307.613 282.921C307.613 281.13 309.091 279.652 310.882 279.652C312.674 279.652 314.151 281.13 314.151 282.921V286.19H307.613V282.921Z" stroke="#7A563A" stroke-width="0.942902" stroke-miterlimit="10"/>
<path d="M311.039 281.518L312.988 285.226" stroke="#B8E4EE" stroke-width="0.942902" stroke-miterlimit="10"/>
<path d="M308.965 281.518L310.882 285.226" stroke="#B8E4EE" stroke-width="0.942902" stroke-miterlimit="10"/>
<path d="M271.439 314.142C271.439 314.33 271.565 314.487 271.754 314.487C271.942 314.487 272.068 314.33 272.068 314.142V312.287C272.068 312.099 271.911 311.941 271.754 311.941C271.565 311.941 271.439 312.099 271.439 312.287V314.142Z" fill="#964B36"/>
<path d="M271.439 314.142C271.439 314.33 271.565 314.487 271.754 314.487C271.942 314.487 272.068 314.33 272.068 314.142V312.287C272.068 312.099 271.911 311.941 271.754 311.941C271.565 311.941 271.439 312.099 271.439 312.287V314.142Z" stroke="#78593B" stroke-width="0.942902" stroke-linejoin="round"/>
<path d="M269.081 309.607C268.924 309.356 268.83 309.073 268.83 308.758C268.83 307.941 269.459 307.281 270.276 307.281C270.276 307.187 270.244 307.124 270.244 307.03C270.244 306.055 270.936 305.238 271.816 305.238C272.602 305.238 273.23 305.898 273.356 306.747C274.299 306.841 275.053 307.784 275.053 308.978C275.053 309.607 274.833 310.204 274.487 310.613C274.55 310.77 274.55 310.959 274.55 311.116C274.55 312.31 273.356 313.284 271.879 313.284C270.402 313.284 269.176 312.31 269.176 311.116C269.176 310.864 269.239 310.613 269.333 310.393C269.207 310.236 269.144 310.016 269.144 309.764V309.638L269.081 309.607Z" fill="#00AA4B"/>
<path d="M274.737 307.848C274.737 307.848 274.329 309.671 272.883 309.922C272.883 309.922 273.009 311.431 271.594 311.305C270.211 311.211 270.651 309.262 270.651 309.262C270.651 309.262 270.306 309.797 269.551 309.514C269.551 309.514 269.394 311.117 270.651 311.871C270.651 311.871 270.117 312.311 270.808 313.002C270.808 313.002 271.374 313.537 273.26 312.877C275.146 312.248 274.454 310.551 274.454 310.551C274.454 310.551 275.586 308.979 274.769 307.816" fill="#00A25E"/>
<path d="M269.081 309.607C268.924 309.356 268.83 309.073 268.83 308.758C268.83 307.941 269.459 307.281 270.276 307.281C270.276 307.187 270.244 307.124 270.244 307.03C270.244 306.055 270.936 305.238 271.816 305.238C272.602 305.238 273.23 305.898 273.356 306.747C274.299 306.841 275.053 307.784 275.053 308.978C275.053 309.607 274.833 310.204 274.487 310.613C274.55 310.77 274.55 310.959 274.55 311.116C274.55 312.31 273.356 313.284 271.879 313.284C270.402 313.284 269.176 312.31 269.176 311.116C269.176 310.864 269.239 310.613 269.333 310.393C269.207 310.236 269.144 310.016 269.144 309.764V309.638L269.081 309.607Z" stroke="#78593B" stroke-width="0.942902" stroke-linejoin="round"/>
<path d="M343.571 297.234H339.014V301.823H343.571V297.234Z" fill="#71B7CF"/>
<path d="M343.571 297.234H339.014V298.052H343.571V297.234Z" fill="#44768D"/>
<path d="M343.603 297.234H343.068V301.823H343.603V297.234Z" fill="#44768D"/>
<path d="M343.571 297.234H339.014V301.792H343.571V297.234Z" stroke="#7A563A" stroke-width="0.942902" stroke-miterlimit="10"/>
<path d="M333.796 297.234H329.238V301.823H333.796V297.234Z" fill="#71B7CF"/>
<path d="M333.796 297.234H329.238V298.052H333.796V297.234Z" fill="#44768D"/>
<path d="M333.825 297.234H333.291V301.823H333.825V297.234Z" fill="#44768D"/>
<path d="M333.796 297.234H329.238V301.792H333.796V297.234Z" stroke="#7A563A" stroke-width="0.942902" stroke-miterlimit="10"/>
<path d="M343.571 304.391H339.014V308.979H343.571V304.391Z" fill="#71B7CF"/>
<path d="M343.571 304.391H339.014V305.208H343.571V304.391Z" fill="#44768D"/>
<path d="M343.603 304.391H343.068V308.979H343.603V304.391Z" fill="#44768D"/>
<path d="M343.571 304.391H339.014V308.948H343.571V304.391Z" stroke="#7A563A" stroke-width="0.942902" stroke-miterlimit="10"/>
<path d="M333.796 304.391H329.238V308.979H333.796V304.391Z" fill="#71B7CF"/>
<path d="M333.796 304.391H329.238V305.208H333.796V304.391Z" fill="#44768D"/>
<path d="M333.825 304.391H333.291V308.979H333.825V304.391Z" fill="#44768D"/>
<path d="M333.796 304.391H329.238V308.948H333.796V304.391Z" stroke="#7A563A" stroke-width="0.942902" stroke-miterlimit="10"/>
<path d="M292.809 297.234H288.252V301.823H292.809V297.234Z" fill="#71B7CF"/>
<path d="M292.809 297.234H288.252V298.052H292.809V297.234Z" fill="#44768D"/>
<path d="M292.841 297.234H292.307V301.823H292.841V297.234Z" fill="#44768D"/>
<path d="M292.809 297.234H288.252V301.792H292.809V297.234Z" stroke="#7A563A" stroke-width="0.942902" stroke-miterlimit="10"/>
<path d="M283.067 297.234H278.51V301.823H283.067V297.234Z" fill="#71B7CF"/>
<path d="M283.067 297.234H278.51V298.052H283.067V297.234Z" fill="#44768D"/>
<path d="M283.066 297.234H282.531V301.823H283.066V297.234Z" fill="#44768D"/>
<path d="M283.067 297.234H278.51V301.792H283.067V297.234Z" stroke="#7A563A" stroke-width="0.942902" stroke-miterlimit="10"/>
<path d="M292.809 304.391H288.252V308.979H292.809V304.391Z" fill="#71B7CF"/>
<path d="M292.809 304.391H288.252V305.208H292.809V304.391Z" fill="#44768D"/>
<path d="M292.841 304.391H292.307V308.979H292.841V304.391Z" fill="#44768D"/>
<path d="M292.809 304.391H288.252V308.948H292.809V304.391Z" stroke="#7A563A" stroke-width="0.942902" stroke-miterlimit="10"/>
<path d="M283.067 304.391H278.51V308.979H283.067V304.391Z" fill="#71B7CF"/>
<path d="M283.067 304.391H278.51V305.208H283.067V304.391Z" fill="#44768D"/>
<path d="M283.066 304.391H282.531V308.979H283.066V304.391Z" fill="#44768D"/>
<path d="M283.067 304.391H278.51V308.948H283.067V304.391Z" stroke="#7A563A" stroke-width="0.942902" stroke-miterlimit="10"/>
<path d="M348.881 315.702C348.881 316.047 349.132 316.299 349.447 316.299C349.761 316.299 350.012 316.016 350.012 315.702V312.464C350.012 312.119 349.761 311.867 349.447 311.867C349.132 311.867 348.881 312.15 348.881 312.464V315.702Z" fill="#964B36"/>
<path d="M348.881 315.702C348.881 316.047 349.132 316.299 349.447 316.299C349.761 316.299 350.012 316.016 350.012 315.702V312.464C350.012 312.119 349.761 311.867 349.447 311.867C349.132 311.867 348.881 312.15 348.881 312.464V315.702Z" stroke="#78593B" stroke-width="0.942902" stroke-linejoin="round"/>
<path d="M344.793 307.848C344.511 307.44 344.354 306.905 344.354 306.371C344.354 304.957 345.453 303.794 346.836 303.794C346.836 303.637 346.805 303.511 346.805 303.354C346.805 301.657 347.999 300.242 349.508 300.242C350.859 300.242 351.96 301.374 352.18 302.882C353.814 303.071 355.103 304.705 355.103 306.748C355.103 307.848 354.725 308.854 354.097 309.546C354.16 309.828 354.223 310.111 354.223 310.394C354.223 312.469 352.148 314.134 349.571 314.134C346.994 314.134 344.888 312.437 344.888 310.394C344.888 309.954 344.982 309.546 345.139 309.137C344.919 308.886 344.793 308.508 344.793 308.068C344.793 308.005 344.793 307.911 344.793 307.848Z" fill="#00AA4B"/>
<path d="M354.633 304.797C354.633 304.797 353.942 307.94 351.396 308.411C351.396 308.411 351.553 311.02 349.133 310.831C346.681 310.643 347.467 307.311 347.467 307.311C347.467 307.311 346.87 308.223 345.55 307.783C345.55 307.783 345.298 310.58 347.467 311.869C347.467 311.869 346.524 312.623 347.719 313.817C347.719 313.817 348.661 314.729 351.993 313.629C355.293 312.529 354.036 309.574 354.036 309.574C354.036 309.574 355.985 306.84 354.602 304.828" fill="#00A25E"/>
<path d="M344.793 307.848C344.511 307.44 344.354 306.905 344.354 306.371C344.354 304.957 345.453 303.794 346.836 303.794C346.836 303.637 346.805 303.511 346.805 303.354C346.805 301.657 347.999 300.242 349.508 300.242C350.859 300.242 351.96 301.374 352.18 302.882C353.814 303.071 355.103 304.705 355.103 306.748C355.103 307.848 354.725 308.854 354.097 309.546C354.16 309.828 354.223 310.111 354.223 310.394C354.223 312.469 352.148 314.134 349.571 314.134C346.994 314.134 344.888 312.437 344.888 310.394C344.888 309.954 344.982 309.546 345.139 309.137C344.919 308.886 344.793 308.508 344.793 308.068C344.793 308.005 344.793 307.911 344.793 307.848Z" stroke="#78593B" stroke-width="0.942902" stroke-linejoin="round"/>
<path d="M339.357 314.923C339.357 315.143 339.515 315.331 339.735 315.331C339.955 315.331 340.112 315.143 340.112 314.923V312.817C340.112 312.597 339.955 312.408 339.735 312.408C339.515 312.408 339.357 312.597 339.357 312.817V314.923Z" fill="#964B36"/>
<path d="M339.357 314.923C339.357 315.143 339.515 315.331 339.735 315.331C339.955 315.331 340.112 315.143 340.112 314.923V312.817C340.112 312.597 339.955 312.408 339.735 312.408C339.515 312.408 339.357 312.597 339.357 312.817V314.923Z" stroke="#78593B" stroke-width="0.942902" stroke-linejoin="round"/>
<path d="M336.719 309.763C336.53 309.48 336.404 309.166 336.404 308.82C336.404 307.877 337.127 307.154 338.039 307.123C338.039 307.028 338.007 306.934 338.007 306.84C338.007 305.708 338.793 304.797 339.799 304.797C340.679 304.797 341.402 305.551 341.527 306.525C342.596 306.651 343.445 307.72 343.445 309.04C343.445 309.763 343.193 310.423 342.785 310.863C342.847 311.051 342.847 311.24 342.847 311.429C342.847 312.78 341.464 313.88 339.799 313.88C338.133 313.88 336.75 312.78 336.75 311.429C336.75 311.146 336.813 310.863 336.907 310.611C336.781 310.423 336.687 310.171 336.687 309.92C336.687 309.857 336.687 309.826 336.687 309.763" fill="#A6CE39"/>
<path d="M343.129 307.793C343.129 307.793 342.658 309.867 341.023 310.15C341.023 310.15 341.149 311.847 339.515 311.722C337.912 311.596 338.446 309.427 338.446 309.427C338.446 309.427 338.037 310.024 337.189 309.742C337.189 309.742 337.032 311.565 338.446 312.413C338.446 312.413 337.817 312.916 338.603 313.702C338.603 313.702 339.232 314.33 341.4 313.576C343.569 312.853 342.752 310.936 342.752 310.936C342.752 310.936 344.04 309.144 343.129 307.824" fill="#7AC143"/>
<path d="M336.719 309.763C336.53 309.48 336.404 309.166 336.404 308.82C336.404 307.877 337.127 307.154 338.039 307.123C338.039 307.028 338.007 306.934 338.007 306.84C338.007 305.708 338.793 304.797 339.799 304.797C340.679 304.797 341.402 305.551 341.527 306.525C342.596 306.651 343.445 307.72 343.445 309.04C343.445 309.763 343.193 310.423 342.785 310.863C342.847 311.051 342.847 311.24 342.847 311.429C342.847 312.78 341.464 313.88 339.799 313.88C338.133 313.88 336.75 312.78 336.75 311.429C336.75 311.146 336.813 310.863 336.907 310.611C336.781 310.423 336.687 310.171 336.687 309.92C336.687 309.857 336.687 309.826 336.687 309.763H336.719Z" stroke="#78593B" stroke-width="0.942902" stroke-linejoin="round"/>
<path d="M319.778 310.334H301.957V312.22H319.778V310.334Z" fill="#D1D3D4"/>
<path d="M319.778 310.334H301.957V312.22H319.778V310.334Z" stroke="#7A563A" stroke-width="0.942902" stroke-miterlimit="10"/>
<path d="M322.135 312.225H299.6V314.11H322.135V312.225Z" fill="#D1D3D4"/>
<path d="M322.135 312.225H299.6V314.11H322.135V312.225Z" stroke="#7A563A" stroke-width="0.942902" stroke-miterlimit="10"/>
<path d="M314.372 301.223H310.506V310.337H314.372V301.223Z" fill="#E2E3E4"/>
<path d="M314.372 301.223H310.506V310.337H314.372V301.223Z" stroke="#7A563A" stroke-width="0.942902" stroke-linecap="round" stroke-linejoin="round"/>
<path d="M310.505 301.223H306.639V310.337H310.505V301.223Z" fill="#E2E3E4"/>
<path d="M310.505 301.223H306.639V310.337H310.505V301.223Z" stroke="#7A563A" stroke-width="0.942902" stroke-linecap="round" stroke-linejoin="round"/>
<path d="M317.387 298.584H303.621V301.224H317.387V298.584Z" fill="#D1D3D4"/>
<path d="M317.387 298.584H303.621V301.224H317.387V298.584Z" stroke="#7A563A" stroke-width="0.942902" stroke-miterlimit="10"/>
<path d="M315.882 301.223H314.373V310.337H315.882V301.223Z" fill="#D1D3D4"/>
<path d="M315.85 301.223H314.373V310.337H315.85V301.223Z" stroke="#7A563A" stroke-width="0.942902" stroke-miterlimit="10"/>
<path d="M306.671 301.223H305.162V310.337H306.671V301.223Z" fill="#D1D3D4"/>
<path d="M306.671 301.223H305.162V310.337H306.671V301.223Z" stroke="#7A563A" stroke-width="0.942902" stroke-miterlimit="10"/>
<path d="M55.9219 122.508V175.122H110.233V122.508L83.0775 103.115L55.9219 122.508Z" fill="#F7DBB0"/>
<path d="M110.233 126.128L83.0775 106.704L55.9219 126.128V123.928L83.0775 104.504L110.233 123.928" fill="#F3C689"/>
<path d="M104.042 148.787H88.2637V164.345H104.042V148.787Z" fill="#FCFDFC"/>
<path d="M104.041 148.787H103.695V164.345H104.041V148.787Z" fill="#E3E6E5"/>
<path d="M96.1543 148.787H95.8086V164.345H96.1543V148.787Z" fill="#E3E6E5"/>
<path d="M88.6094 148.787H88.2637V164.345H88.6094V148.787Z" fill="#E3E6E5"/>
<path d="M104.042 148.787H88.2637V164.313H104.042V148.787Z" stroke="#78593B" stroke-width="0.942902" stroke-linejoin="round"/>
<path d="M104.385 147.684H87.916V148.784H104.385V147.684Z" fill="#FCFDFC"/>
<path d="M104.385 164.344H87.916V166.387H104.385V164.344Z" fill="#FCFDFC"/>
<path d="M104.385 148.285H87.916V148.788H104.385V148.285Z" fill="#E3E6E5"/>
<path d="M104.385 164.344H87.916V164.972H104.385V164.344Z" fill="#E3E6E5"/>
<path d="M104.385 147.684H87.916V148.784H104.385V147.684Z" stroke="#78593B" stroke-width="0.942902" stroke-linejoin="round"/>
<path d="M104.385 164.344H87.916V166.387H104.385V164.344Z" stroke="#78593B" stroke-width="0.942902" stroke-linejoin="round"/>
<path d="M103.161 150.262H96.9062V153.625H103.161V150.262Z" fill="#5CBBD8"/>
<path d="M103.161 154.877H96.9062V158.24H103.161V154.877Z" fill="#5CBBD8"/>
<path d="M103.161 159.506H96.9062V162.869H103.161V159.506Z" fill="#5CBBD8"/>
<path d="M95.397 150.262H89.1738V153.625H95.397V150.262Z" fill="#5CBBD8"/>
<path d="M95.397 154.877H89.1738V158.24H95.397V154.877Z" fill="#5CBBD8"/>
<path d="M95.397 159.506H89.1738V162.869H95.397V159.506Z" fill="#5CBBD8"/>
<path d="M103.161 150.262H96.9062V150.67H103.161V150.262Z" fill="#3FB0D4"/>
<path d="M103.161 154.877H96.9062V155.443H103.161V154.877Z" fill="#3FB0D4"/>
<path d="M103.161 159.506H96.9062V159.946H103.161V159.506Z" fill="#3FB0D4"/>
<path d="M95.397 150.262H89.1738V150.67H95.397V150.262Z" fill="#3FB0D4"/>
<path d="M95.397 154.877H89.1738V155.443H95.397V154.877Z" fill="#3FB0D4"/>
<path d="M95.397 159.506H89.1738V159.946H95.397V159.506Z" fill="#3FB0D4"/>
<path d="M96.1523 148.787V164.345" stroke="#78593B" stroke-width="0.942902" stroke-linejoin="round"/>
<path d="M113.659 126.37L114.979 124.515L83.0771 101.729L51.207 124.515L52.4957 126.37L83.0771 104.494L113.659 126.37Z" fill="#BA3D3B"/>
<path d="M113.659 126.37L114.979 124.515L83.0771 101.729L51.207 124.515L52.4957 126.37L83.0771 104.494L113.659 126.37Z" stroke="#7A563A" stroke-width="0.942902" stroke-miterlimit="10"/>
<path d="M88.1704 116.658H77.8613V128.916H88.1704V116.658Z" fill="#E3E6E5"/>
<path d="M88.1704 116.658H77.8613V128.916H88.1704V116.658Z" stroke="#78593B" stroke-width="0.942902" stroke-miterlimit="10"/>
<path d="M86.4716 118.672H79.4941V122.161H86.4716V118.672Z" fill="#71B7CF"/>
<path d="M86.4716 118.672H79.4941V119.709H86.4716V118.672Z" fill="#44768D"/>
<path d="M86.5024 118.672H85.4023V122.161H86.5024V118.672Z" fill="#44768D"/>
<path d="M86.4716 118.672H79.4941V122.161H86.4716V118.672Z" stroke="#7A563A" stroke-width="0.942902" stroke-miterlimit="10"/>
<path d="M86.4716 123.645H79.4941V127.133H86.4716V123.645Z" fill="#71B7CF"/>
<path d="M86.4716 123.645H79.4941V124.713H86.4716V123.645Z" fill="#44768D"/>
<path d="M86.5024 123.645H85.4023V127.133H86.5024V123.645Z" fill="#44768D"/>
<path d="M86.4716 123.645H79.4941V127.133H86.4716V123.645Z" stroke="#7A563A" stroke-width="0.942902" stroke-miterlimit="10"/>
<path d="M78.6442 147.684H64.7207V174.242H78.6442V147.684Z" fill="#E3E6E5"/>
<path d="M78.6442 147.684H64.7207V174.242H78.6442V147.684Z" stroke="#78593B" stroke-width="0.942902" stroke-miterlimit="10"/>
<path d="M77.83 148.727H65.5723V173.179H77.83V148.727Z" fill="#C49A6C"/>
<path d="M77.83 148.727H65.5723V173.179H77.83V148.727Z" stroke="#78593B" stroke-width="0.942902" stroke-miterlimit="10"/>
<path d="M75.723 152.998H67.834" stroke="#78593B" stroke-width="0.942902" stroke-miterlimit="10"/>
<path d="M75.723 155.885H67.834" stroke="#78593B" stroke-width="0.942902" stroke-miterlimit="10"/>
<path d="M75.723 158.781H67.834" stroke="#78593B" stroke-width="0.942902" stroke-miterlimit="10"/>
<path d="M79.9047 174.238H63.4668V176.124H79.9047V174.238Z" fill="#F1F2F2"/>
<path d="M79.9047 174.238H63.4668V176.124H79.9047V174.238Z" stroke="#78593B" stroke-width="0.942902" stroke-miterlimit="10"/>
<path d="M76.0996 160.848C76.0996 161.1 76.3196 161.32 76.571 161.32C76.8225 161.32 77.0425 161.1 77.0425 160.848C77.0425 160.597 76.8225 160.377 76.571 160.377C76.3196 160.377 76.0996 160.597 76.0996 160.848Z" fill="#AFA5A4"/>
<path d="M76.0996 160.848C76.0996 161.1 76.3196 161.32 76.571 161.32C76.8225 161.32 77.0425 161.1 77.0425 160.848C77.0425 160.597 76.8225 160.377 76.571 160.377C76.3196 160.377 76.0996 160.597 76.0996 160.848Z" stroke="#78593B" stroke-width="0.942902" stroke-miterlimit="10"/>
<path d="M110.39 124.012V175.117H79.9023" stroke="#78593B" stroke-width="0.942902" stroke-miterlimit="10"/>
<path d="M63.4651 175.123H55.9219V124.27" stroke="#78593B" stroke-width="0.942902" stroke-miterlimit="10"/>
<path d="M55.2297 177.201C53.6267 177.201 53.1238 175.85 54.4753 175.032C55.0096 174.718 55.544 174.152 56.2669 174.152C56.9898 174.152 57.6183 174.592 57.6183 175.127V175.19C58.1527 175.284 58.5927 175.724 58.5927 176.258C58.5927 176.855 58.0584 177.327 57.3355 177.327C56.9583 177.327 56.5812 177.17 56.3612 176.918C56.0469 177.107 55.6697 177.233 55.2297 177.233" fill="#41AD49"/>
<path d="M55.2297 177.201C53.6267 177.201 53.1238 175.85 54.4753 175.032C55.0096 174.718 55.544 174.152 56.2669 174.152C56.9898 174.152 57.6183 174.592 57.6183 175.127V175.19C58.1527 175.284 58.5927 175.724 58.5927 176.258C58.5927 176.855 58.0584 177.327 57.3355 177.327C56.9583 177.327 56.5812 177.17 56.3612 176.918C56.0469 177.107 55.6697 177.233 55.2297 177.233V177.201Z" stroke="#78593B" stroke-width="0.942902" stroke-linejoin="round"/>
<path d="M99.2324 175.969C99.2324 175.183 99.861 174.555 100.71 174.335V174.24C100.71 173.455 101.275 172.826 102.03 172.826C102.69 172.826 103.255 173.36 103.318 174.052C103.381 174.052 103.475 174.052 103.538 174.052C104.481 174.052 105.267 174.806 105.267 175.749C105.267 176.629 104.544 177.352 103.664 177.415C103.413 177.792 102.878 178.075 102.25 178.075C101.747 178.075 101.307 177.886 101.055 177.635C100.05 177.572 99.2324 176.849 99.2324 175.969Z" fill="#00AB4E"/>
<path d="M99.2324 175.969C99.2324 175.183 99.861 174.555 100.71 174.335V174.24C100.71 173.455 101.275 172.826 102.03 172.826C102.69 172.826 103.255 173.36 103.318 174.052C103.381 174.052 103.475 174.052 103.538 174.052C104.481 174.052 105.267 174.806 105.267 175.749C105.267 176.629 104.544 177.352 103.664 177.415C103.413 177.792 102.878 178.075 102.25 178.075C101.747 178.075 101.307 177.886 101.055 177.635C100.05 177.572 99.2324 176.849 99.2324 175.969Z" stroke="#78593B" stroke-width="0.942902" stroke-linejoin="round"/>
<path d="M95.87 175.338C95.9643 174.741 96.75 174.238 97.6929 174.238C98.6987 174.238 99.5159 174.773 99.5159 175.464V175.527C100.27 175.653 100.867 176.218 100.867 176.847C100.867 177.601 100.082 178.23 99.1702 178.23C98.6358 178.23 98.133 178.01 97.8501 177.727C97.4415 177.979 96.9072 178.104 96.2786 178.104C95.0214 178.104 94.0156 177.476 94.0156 176.69C94.0156 175.998 94.8328 175.433 95.87 175.307" fill="#A6CE39"/>
<path d="M95.87 175.338C95.9643 174.741 96.75 174.238 97.6929 174.238C98.6987 174.238 99.5159 174.773 99.5159 175.464V175.527C100.27 175.653 100.867 176.218 100.867 176.847C100.867 177.601 100.082 178.23 99.1702 178.23C98.6358 178.23 98.133 178.01 97.8501 177.727C97.4415 177.979 96.9072 178.104 96.2786 178.104C95.0214 178.104 94.0156 177.476 94.0156 176.69C94.0156 175.998 94.8328 175.433 95.87 175.307V175.338Z" stroke="#78593B" stroke-width="0.942902" stroke-linejoin="round"/>
<path d="M109.102 177.229C109.102 177.606 109.416 177.952 109.762 177.952C110.139 177.952 110.422 177.637 110.422 177.229V173.489C110.422 173.111 110.139 172.766 109.762 172.766C109.384 172.766 109.102 173.08 109.102 173.489V177.229Z" fill="#964B36"/>
<path d="M109.102 177.229C109.102 177.606 109.416 177.952 109.762 177.952C110.139 177.952 110.422 177.637 110.422 177.229V173.489C110.422 173.111 110.139 172.766 109.762 172.766C109.384 172.766 109.102 173.08 109.102 173.489V177.229Z" stroke="#78593B" stroke-width="0.942902" stroke-linejoin="round"/>
<path d="M104.386 168.146C104.072 167.675 103.852 167.078 103.852 166.449C103.852 164.815 105.14 163.463 106.743 163.432C106.743 163.274 106.712 163.117 106.712 162.96C106.712 160.949 108.126 159.346 109.823 159.346C111.395 159.346 112.683 160.666 112.903 162.394C114.789 162.614 116.266 164.532 116.266 166.889C116.266 168.146 115.795 169.309 115.104 170.126C115.198 170.44 115.229 170.786 115.229 171.101C115.229 173.521 112.809 175.469 109.823 175.469C106.837 175.469 104.417 173.521 104.417 171.101C104.417 170.598 104.543 170.126 104.732 169.655C104.48 169.34 104.323 168.9 104.323 168.398C104.323 168.303 104.323 168.209 104.323 168.115" fill="#A6CE39"/>
<path d="M115.797 164.588C115.797 164.588 114.98 168.265 112.057 168.8C112.057 168.8 112.246 171.817 109.417 171.597C106.588 171.377 107.5 167.511 107.5 167.511C107.5 167.511 106.808 168.579 105.268 168.045C105.268 168.045 104.954 171.282 107.5 172.76C107.5 172.76 106.4 173.64 107.814 175.023C107.814 175.023 108.945 176.123 112.78 174.803C116.614 173.514 115.169 170.088 115.169 170.088C115.169 170.088 117.432 166.945 115.829 164.588" fill="#7AC143"/>
<path d="M104.386 168.146C104.072 167.675 103.852 167.078 103.852 166.449C103.852 164.815 105.14 163.463 106.743 163.432C106.743 163.274 106.712 163.117 106.712 162.96C106.712 160.949 108.126 159.346 109.823 159.346C111.395 159.346 112.683 160.666 112.903 162.394C114.789 162.614 116.266 164.532 116.266 166.889C116.266 168.146 115.795 169.309 115.104 170.126C115.198 170.44 115.229 170.786 115.229 171.101C115.229 173.521 112.809 175.469 109.823 175.469C106.837 175.469 104.417 173.521 104.417 171.101C104.417 170.598 104.543 170.126 104.732 169.655C104.48 169.34 104.323 168.9 104.323 168.398C104.323 168.303 104.323 168.209 104.323 168.115L104.386 168.146Z" stroke="#78593B" stroke-width="0.942902" stroke-linejoin="round"/>
<path d="M113.659 138.941H52.4961V141.613H113.659V138.941Z" fill="white"/>
<path d="M113.659 138.941H52.4961V141.613H113.659V138.941Z" stroke="#78593B" stroke-width="0.942902" stroke-linejoin="round"/>
<path d="M443.83 33.4043L128.523 170.062" stroke="#231F20" stroke-width="2.35726" stroke-linejoin="round"/>
<path d="M258.898 291.318L128.684 169.684" stroke="#231F20" stroke-width="2.35726" stroke-linejoin="round"/>
<path d="M439.685 35.0349C440.596 37.3293 443.173 38.4608 445.468 37.5494C447.762 36.6379 448.894 34.0606 447.982 31.7662C447.071 29.4718 444.494 28.3718 442.199 29.2518C439.905 30.1633 438.773 32.7405 439.685 35.0349Z" fill="#231F20"/>
<path d="M124.407 171.693C125.319 173.988 127.896 175.119 130.19 174.208C132.485 173.296 133.616 170.719 132.705 168.424C131.793 166.13 129.216 165.03 126.922 165.91C124.627 166.821 123.496 169.399 124.407 171.693Z" fill="#231F20"/>
<path d="M254.78 292.957C255.692 295.251 258.269 296.383 260.564 295.471C262.858 294.56 263.989 291.982 263.078 289.688C262.166 287.394 259.589 286.294 257.295 287.174C255 288.085 253.869 290.662 254.78 292.957Z" fill="#231F20"/>
</g>
<path d="M243.443 54.4208C239.051 54.4208 235.902 52.0038 235.819 48.5095H240.018C240.087 50.0011 241.537 50.9817 243.47 50.9955C245.459 50.9817 246.882 49.8768 246.868 48.2609C246.882 46.6311 245.432 45.4848 243.084 45.471H241.233V42.4049H243.084C245.059 42.4049 246.44 41.3276 246.426 39.7531C246.44 38.22 245.266 37.1703 243.498 37.1842C241.73 37.1703 240.28 38.1648 240.211 39.6978H236.233C236.302 36.2588 239.396 33.8694 243.498 33.8694C247.669 33.8694 250.445 36.3417 250.431 39.5045C250.445 41.7419 248.884 43.3302 246.647 43.7307V43.8965C249.589 44.2556 251.205 46.0372 251.177 48.5371C251.205 51.9623 247.959 54.4208 243.443 54.4208Z" fill="#222222"/>
<path d="M233.998 65.2871H252.998" stroke="#222222" stroke-width="2.57143" stroke-linecap="square"/>
<path d="M237.711 95.4297L246.136 78.9665V78.8284H236.33V75.4308H250.445V78.8837L242.02 95.4297H237.711Z" fill="#222222"/>
<path d="M263.748 75.1445V55.1456H267.836V65.8909H268.057L272.918 60.1454H277.614L272.021 66.6367L277.918 75.1445H273.112L268.982 69.0399L267.836 70.3382V75.1445H263.748ZM278.877 75.1445V60.1454H282.772V62.7695H282.938C283.573 61.0155 285.092 59.952 287.109 59.952C289.167 59.952 290.7 61.0431 291.197 62.7695H291.335C291.957 61.0707 293.669 59.952 295.865 59.952C298.641 59.952 300.589 61.7889 300.589 65.0622V75.1445H296.501V65.8633C296.515 64.1507 295.492 63.322 294.153 63.322C292.62 63.322 291.708 64.3855 291.722 65.9738V75.1445H287.744V65.7528C287.758 64.275 286.819 63.322 285.424 63.322C284.029 63.322 282.952 64.4407 282.966 66.1395V75.1445H278.877Z" fill="#222222"/>
<path d="M215.085 181L215.057 177.989L222.239 171.387C224.104 169.606 225.112 168.501 225.112 166.912C225.112 165.131 223.772 164.026 221.935 164.04C220.057 164.026 218.828 165.214 218.842 167.133H214.892C214.878 163.225 217.778 160.725 221.991 160.725C226.272 160.725 229.117 163.17 229.117 166.636C229.117 168.915 228.012 170.78 223.897 174.509L220.858 177.464V177.575H229.394V181H215.085Z" fill="#222222"/>
<path d="M212.643 192.143H231.643" stroke="#222222" stroke-width="2.57143" stroke-linecap="square"/>
<path opacity="0.9" d="M221.922 202.01C226.065 202.024 229.987 204.496 229.987 211.761C230.001 218.556 226.783 222.561 221.756 222.561C217.737 222.561 214.974 220.034 214.574 216.65H218.662C219.007 218.128 220.154 218.998 221.756 218.998C224.477 218.998 225.913 216.553 225.927 212.562H225.761C224.822 214.33 222.847 215.379 220.623 215.379C217.032 215.379 214.381 212.672 214.353 208.943C214.353 204.924 217.405 201.996 221.922 202.01ZM218.414 208.833C218.414 210.808 219.864 212.341 221.922 212.341C223.952 212.341 225.513 210.725 225.513 208.805C225.485 206.899 223.993 205.283 221.949 205.27C219.905 205.283 218.386 206.844 218.414 208.833Z" fill="#222222"/>
<path d="M242.392 202V182.001H246.48V192.746H246.701L251.563 187.001H256.259L250.665 193.492L256.563 202H251.756L247.627 195.895L246.48 197.194V202H242.392ZM257.522 202V187.001H261.417V189.625H261.582C262.218 187.871 263.737 186.807 265.753 186.807C267.811 186.807 269.344 187.899 269.842 189.625H269.98C270.601 187.926 272.314 186.807 274.51 186.807C277.286 186.807 279.233 188.644 279.233 191.918V202H275.145V192.719C275.159 191.006 274.137 190.177 272.797 190.177C271.264 190.177 270.353 191.241 270.366 192.829V202H266.389V192.608C266.403 191.13 265.463 190.177 264.068 190.177C262.674 190.177 261.596 191.296 261.61 192.995V202H257.522Z" fill="#222222"/>
</svg>
