<svg width="182" height="181" viewBox="0 0 182 181" fill="none" xmlns="http://www.w3.org/2000/svg">
<mask id="mask0_12491_20775" style="mask-type:luminance" maskUnits="userSpaceOnUse" x="0" y="0" width="182" height="181">
<path d="M181.548 0H0V180.841H181.548V0Z" fill="white"/>
</mask>
<g mask="url(#mask0_12491_20775)">
<path d="M97.8523 19.5453C97.8523 27.4813 91.4214 33.8895 83.5081 33.8895C75.5721 33.8895 69.1641 27.4585 69.1641 19.5453C69.1641 11.6093 75.5949 5.20123 83.5081 5.20123C91.4442 5.17843 97.8523 11.6093 97.8523 19.5453Z" fill="#CAE2C0"/>
</g>
<path d="M83.5156 37.125V57.3527" stroke="#1D1D1B" stroke-width="1.14023" stroke-miterlimit="10"/>
<path d="M83.5195 62.9882L80.2812 55.0293L83.5195 56.9221L86.7578 55.0293L83.5195 62.9882Z" fill="#1D1D1B"/>
<path d="M149.173 102.576H128.945" stroke="#1D1D1B" stroke-width="1.14023" stroke-miterlimit="10"/>
<path d="M123.305 102.576L131.263 99.3379L129.371 102.576L131.263 105.837L123.305 102.576Z" fill="#1D1D1B"/>
<path d="M50.4297 153.339L68.8787 145.061" stroke="#1D1D1B" stroke-width="1.14023" stroke-miterlimit="10"/>
<path d="M74.0088 142.758L68.1024 148.961L68.49 145.244L65.457 143.054L74.0088 142.758Z" fill="#1D1D1B"/>
<mask id="mask1_12491_20775" style="mask-type:luminance" maskUnits="userSpaceOnUse" x="0" y="0" width="182" height="181">
<path d="M181.548 0H0V180.841H181.548V0Z" fill="white"/>
</mask>
<g mask="url(#mask1_12491_20775)">
<path d="M181.551 102.643C181.551 110.67 175.029 117.193 167.002 117.193C158.974 117.193 152.452 110.693 152.452 102.643C152.452 94.6159 158.974 88.0938 167.002 88.0938C175.029 88.0938 181.551 94.5931 181.551 102.643Z" fill="#F8C7C8"/>
</g>
<mask id="mask2_12491_20775" style="mask-type:luminance" maskUnits="userSpaceOnUse" x="0" y="0" width="182" height="181">
<path d="M181.548 0H0V180.841H181.548V0Z" fill="white"/>
</mask>
<g mask="url(#mask2_12491_20775)">
<path d="M48.1619 161.343C48.1619 169.279 41.731 175.688 33.8178 175.688C25.8818 175.688 19.4736 169.257 19.4736 161.343C19.4736 153.407 25.9046 146.977 33.8178 146.977C41.7538 146.977 48.1619 153.407 48.1619 161.343Z" fill="#F7E1B1"/>
</g>
<mask id="mask3_12491_20775" style="mask-type:luminance" maskUnits="userSpaceOnUse" x="51" y="71" width="65" height="66">
<path d="M51.1523 103.719C51.1523 121.598 65.6333 136.079 83.5122 136.079C101.391 136.079 115.872 121.598 115.872 103.719C115.872 85.8631 101.391 71.3594 83.5122 71.3594C65.6333 71.3594 51.1523 85.8403 51.1523 103.719Z" fill="white"/>
</mask>
<g mask="url(#mask3_12491_20775)">
<path d="M115.871 71.3594H51.1514V136.079H115.871V71.3594Z" fill="url(#paint0_radial_12491_20775)"/>
</g>
<mask id="mask4_12491_20775" style="mask-type:luminance" maskUnits="userSpaceOnUse" x="0" y="0" width="182" height="181">
<path d="M181.548 0H0V180.841H181.548V0Z" fill="white"/>
</mask>
<g mask="url(#mask4_12491_20775)">
<path d="M51.1523 103.715C51.1523 85.8592 65.6333 71.3555 83.5122 71.3555C101.391 71.3555 115.872 85.8364 115.872 103.715C115.872 121.594 101.391 136.075 83.5122 136.075C65.6333 136.075 51.1523 121.571 51.1523 103.715Z" stroke="#1D1D1B" stroke-width="1.71035" stroke-miterlimit="10" stroke-linejoin="round"/>
</g>
<mask id="mask5_12491_20775" style="mask-type:luminance" maskUnits="userSpaceOnUse" x="0" y="0" width="182" height="181">
<path d="M181.548 0H0V180.841H181.548V0Z" fill="white"/>
</mask>
<g mask="url(#mask5_12491_20775)">
<path d="M51.1523 103.715C51.1523 98.5157 65.6333 94.2969 83.5122 94.2969C101.391 94.2969 115.872 98.5157 115.872 103.715" stroke="#1D1D1B" stroke-width="1.14023" stroke-linejoin="round" stroke-dasharray="3.42 3.42"/>
</g>
<mask id="mask6_12491_20775" style="mask-type:luminance" maskUnits="userSpaceOnUse" x="0" y="0" width="182" height="181">
<path d="M181.548 0H0V180.841H181.548V0Z" fill="white"/>
</mask>
<g mask="url(#mask6_12491_20775)">
<path d="M115.872 103.717C115.872 108.916 101.391 113.135 83.5122 113.135C65.6333 113.135 51.1523 108.916 51.1523 103.717" stroke="#1D1D1B" stroke-width="1.71035" stroke-linejoin="round"/>
</g>
<defs>
<radialGradient id="paint0_radial_12491_20775" cx="0" cy="0" r="1" gradientUnits="userSpaceOnUse" gradientTransform="translate(72.7388 93.9019) scale(47.5388)">
<stop stop-color="#FEFCF7"/>
<stop offset="0.3341" stop-color="#E1EDD9"/>
<stop offset="0.5562" stop-color="#D2E6CA"/>
<stop offset="0.85" stop-color="#C6E0BC"/>
<stop offset="1" stop-color="#D8E9D1"/>
</radialGradient>
</defs>
</svg>
