<svg width="180" height="181" viewBox="0 0 180 181" fill="none" xmlns="http://www.w3.org/2000/svg">
<mask id="mask0_12491_20777" style="mask-type:luminance" maskUnits="userSpaceOnUse" x="31" y="75" width="66" height="68">
<path d="M31.6055 75.3008V132.107C31.6055 137.9 46.0408 142.62 63.8513 142.62C81.6617 142.62 96.0971 137.9 96.0971 132.107V75.3008H31.6055Z" fill="white"/>
</mask>
<g mask="url(#mask0_12491_20777)">
<path d="M96.0961 75.3008H31.6045V142.62H96.0961V75.3008Z" fill="url(#paint0_linear_12491_20777)"/>
</g>
<mask id="mask1_12491_20777" style="mask-type:luminance" maskUnits="userSpaceOnUse" x="31" y="75" width="66" height="68">
<path d="M31.6055 75.3008V132.107C31.6055 137.9 46.0408 142.62 63.8513 142.62C81.6617 142.62 96.0971 137.9 96.0971 132.107V75.3008H31.6055Z" fill="white"/>
</mask>
<g mask="url(#mask1_12491_20777)">
<path d="M96.0733 75.3008H31.6045V142.62H96.0733V75.3008Z" stroke="#1D1D1B" stroke-width="1.71035" stroke-miterlimit="10" stroke-linejoin="round"/>
</g>
<mask id="mask2_12491_20777" style="mask-type:luminance" maskUnits="userSpaceOnUse" x="0" y="0" width="180" height="181">
<path d="M179.724 0H0V180.841H179.724V0Z" fill="white"/>
</mask>
<g mask="url(#mask2_12491_20777)">
<path d="M31.6045 75.3027V132.109C31.6045 137.902 46.0398 142.622 63.8503 142.622C81.6607 142.622 96.0961 137.902 96.0961 132.109V75.3027H31.6045Z" stroke="#1D1D1B" stroke-width="1.71035" stroke-miterlimit="10" stroke-linejoin="round"/>
</g>
<mask id="mask3_12491_20777" style="mask-type:luminance" maskUnits="userSpaceOnUse" x="0" y="0" width="180" height="181">
<path d="M179.724 0H0V180.841H179.724V0Z" fill="white"/>
</mask>
<g mask="url(#mask3_12491_20777)">
<path d="M31.6045 75.3021C31.6045 69.4869 46.0398 64.7891 63.8503 64.7891C81.6607 64.7891 96.0961 69.5097 96.0961 75.3021C96.0961 81.1172 81.6607 85.815 63.8503 85.815C46.0398 85.815 31.6045 81.1172 31.6045 75.3021Z" fill="#EFEFF8"/>
</g>
<mask id="mask4_12491_20777" style="mask-type:luminance" maskUnits="userSpaceOnUse" x="0" y="0" width="180" height="181">
<path d="M179.724 0H0V180.841H179.724V0Z" fill="white"/>
</mask>
<g mask="url(#mask4_12491_20777)">
<path d="M31.6045 75.3021C31.6045 69.4869 46.0398 64.7891 63.8503 64.7891C81.6607 64.7891 96.0961 69.5097 96.0961 75.3021C96.0961 81.1172 81.6607 85.815 63.8503 85.815C46.0398 85.815 31.6045 81.1172 31.6045 75.3021Z" stroke="#1D1D1B" stroke-width="1.71035" stroke-miterlimit="10" stroke-linejoin="round"/>
</g>
<mask id="mask5_12491_20777" style="mask-type:luminance" maskUnits="userSpaceOnUse" x="0" y="0" width="180" height="181">
<path d="M179.724 0H0V180.841H179.724V0Z" fill="white"/>
</mask>
<g mask="url(#mask5_12491_20777)">
<path d="M31.6045 132.109C31.6045 126.294 46.0398 121.596 63.8503 121.596C81.6607 121.596 96.0961 126.294 96.0961 132.109" stroke="#1D1D1B" stroke-width="1.14023" stroke-linejoin="round" stroke-dasharray="3.42 3.42"/>
</g>
<mask id="mask6_12491_20777" style="mask-type:luminance" maskUnits="userSpaceOnUse" x="0" y="0" width="180" height="181">
<path d="M179.724 0H0V180.841H179.724V0Z" fill="white"/>
</mask>
<g mask="url(#mask6_12491_20777)">
<path d="M78.4012 14.3657C78.4012 22.3017 71.9703 28.7099 64.057 28.7099C56.121 28.7099 49.7129 22.2789 49.7129 14.3657C49.7129 6.42968 56.1438 0.0215448 64.057 0.0215448C71.9703 -0.00125983 78.4012 6.42968 78.4012 14.3657Z" fill="#CAE2C0"/>
</g>
<path d="M64.0352 31.9492V52.1769" stroke="#1D1D1B" stroke-width="1.14023" stroke-miterlimit="10"/>
<path d="M64.0351 57.8104L60.7969 49.8516L64.0351 51.7443L67.2962 49.8516L64.0351 57.8104Z" fill="#1D1D1B"/>
<path d="M129.693 102.576H109.488" stroke="#1D1D1B" stroke-width="1.14023" stroke-miterlimit="10"/>
<path d="M103.832 102.576L111.791 99.3379L109.898 102.576L111.791 105.837L103.832 102.576Z" fill="#1D1D1B"/>
<path d="M30.9414 158.516L49.3904 150.238" stroke="#1D1D1B" stroke-width="1.14023" stroke-miterlimit="10"/>
<path d="M54.5472 147.938L48.618 154.14L49.0057 150.423L45.9727 148.234L54.5472 147.938Z" fill="#1D1D1B"/>
<mask id="mask7_12491_20777" style="mask-type:luminance" maskUnits="userSpaceOnUse" x="0" y="0" width="180" height="181">
<path d="M179.724 0H0V180.841H179.724V0Z" fill="white"/>
</mask>
<g mask="url(#mask7_12491_20777)">
<path d="M162.067 102.643C162.067 110.67 155.545 117.193 147.518 117.193C139.491 117.193 132.969 110.693 132.969 102.643C132.969 94.6159 139.491 88.0938 147.518 88.0938C155.545 88.0938 162.067 94.5931 162.067 102.643Z" fill="#F8C7C8"/>
</g>
<mask id="mask8_12491_20777" style="mask-type:luminance" maskUnits="userSpaceOnUse" x="0" y="0" width="180" height="181">
<path d="M179.724 0H0V180.841H179.724V0Z" fill="white"/>
</mask>
<g mask="url(#mask8_12491_20777)">
<path d="M28.6873 166.519C28.6873 174.455 22.2564 180.863 14.3432 180.863C6.40715 180.863 -0.000976562 174.433 -0.000976562 166.519C-0.000976562 158.583 6.42996 152.152 14.3432 152.152C22.2792 152.152 28.6873 158.583 28.6873 166.519Z" fill="#F7E1B1"/>
</g>
<defs>
<linearGradient id="paint0_linear_12491_20777" x1="31.6127" y1="109.061" x2="96.0886" y2="109.061" gradientUnits="userSpaceOnUse">
<stop stop-color="#D2D1EA"/>
<stop offset="0.38" stop-color="#F6F6FB"/>
<stop offset="1" stop-color="#D2D1EA"/>
</linearGradient>
</defs>
</svg>
