<svg width="57" height="40" viewBox="0 0 57 40" fill="none" xmlns="http://www.w3.org/2000/svg">
<g clip-path="url(#clip0_12489_16581)">
<path d="M3.64062 4.36125L3.64062 35.4313C3.64062 37.2813 5.14062 38.7812 6.99062 38.7812L8.65062 38.7812L51.1006 38.7812L53.0806 38.7812C54.9306 38.7812 56.4306 37.2812 56.4306 35.4312L56.4306 4.35125C56.4306 2.50125 54.9306 1.00125 53.0806 1.00125L51.1006 1.00125L8.65062 1.00125L6.99061 1.00125C5.14061 1.01125 3.64062 2.51125 3.64062 4.36125Z" fill="#008B9A"/>
<path d="M56.9306 4.36125L56.9306 35.4312C56.9306 37.5512 55.2006 39.2812 53.0806 39.2812L6.99062 39.2812C4.87062 39.2812 3.14062 37.5513 3.14062 35.4313L3.14062 4.35125C3.14062 2.23125 4.87061 0.501251 6.99061 0.501251L53.0806 0.501249C55.2106 0.511247 56.9306 2.23125 56.9306 4.36125ZM4.14062 35.4313C4.14062 37.0013 5.42062 38.2812 6.99062 38.2812L53.0806 38.2812C54.6506 38.2812 55.9306 37.0012 55.9306 35.4312L55.9306 4.35125C55.9306 2.78125 54.6506 1.50125 53.0806 1.50125L6.99061 1.50125C5.42061 1.50125 4.14062 2.78125 4.14062 4.35125L4.14062 35.4313Z" fill="#3B295A"/>
<path d="M49.94 1.01125C51.79 1.01125 53.29 2.51125 53.29 4.36125L53.29 35.4312C53.29 37.2812 51.79 38.7812 49.94 38.7812L3.84999 38.7812C1.99999 38.7812 0.5 37.2813 0.5 35.4313L0.499998 4.35125C0.499998 2.50125 1.99999 1.00125 3.84999 1.00125L49.94 1.00125L49.94 1.01125Z" fill="#72C7D1"/>
<path d="M53.79 4.36125L53.79 35.4312C53.79 37.5512 52.06 39.2812 49.94 39.2812L3.84999 39.2812C1.72999 39.2812 -7.56206e-08 37.5513 -1.68289e-07 35.4313L-1.52684e-06 4.35125C-1.61951e-06 2.23125 1.72999 0.501251 3.84999 0.501251L49.94 0.501249C52.07 0.511247 53.79 2.23125 53.79 4.36125ZM1 35.4313C1 37.0013 2.27999 38.2812 3.84999 38.2812L49.94 38.2812C51.51 38.2812 52.79 37.0012 52.79 35.4312L52.79 4.35125C52.79 2.78125 51.51 1.50125 49.94 1.50125L3.84999 1.50125C2.27999 1.50125 0.999998 2.78125 0.999998 4.35125L1 35.4313Z" fill="#3B295A"/>
<path d="M5.63086 6.32015L5.63086 33.6602L46.4209 33.6602L46.4209 6.32015L5.63086 6.32015Z" fill="white"/>
<path d="M46.8906 5.85109L46.8906 34.1211L5.14062 34.1211L5.14062 5.85109L46.8906 5.85109ZM45.9306 33.1911L45.9306 6.78109L6.10062 6.78109L6.10062 33.1911L45.9306 33.1911Z" fill="#3B295A"/>
<path d="M49.6172 18.8945C50.1672 18.8945 50.6172 19.3445 50.6172 19.8945C50.6172 20.4445 50.1672 20.8945 49.6172 20.8945C49.0672 20.8945 48.6172 20.4445 48.6172 19.8945C48.6172 19.3445 49.0672 18.8945 49.6172 18.8945Z" fill="white"/>
<path d="M51.1172 19.8945C51.1172 20.7245 50.4472 21.3945 49.6172 21.3945C48.7872 21.3945 48.1172 20.7245 48.1172 19.8945C48.1172 19.0645 48.7872 18.3945 49.6172 18.3945C50.4472 18.3945 51.1172 19.0745 51.1172 19.8945ZM49.1172 19.8945C49.1172 20.1745 49.3372 20.3945 49.6172 20.3945C49.8972 20.3945 50.1172 20.1745 50.1172 19.8945C50.1172 19.6145 49.8972 19.3945 49.6172 19.3945C49.3372 19.3945 49.1172 19.6245 49.1172 19.8945Z" fill="#3B295A"/>
</g>
<defs>
<clipPath id="clip0_12489_16581">
<rect width="57" height="39" fill="white" transform="translate(0 0.5)"/>
</clipPath>
</defs>
</svg>
