<svg width="75" height="119" viewBox="0 0 75 119" fill="none" xmlns="http://www.w3.org/2000/svg">
<path d="M1 70V86H74V1" stroke="#00A0E9" stroke-width="2" stroke-linecap="round"/>
<path d="M37.3125 118.531C35.0833 118.531 33.026 117.974 31.1406 116.859C29.2552 115.745 27.7604 114.245 26.6562 112.359C25.5521 110.474 25 108.417 25 106.188C25 103.958 25.5521 101.901 26.6562 100.016C27.7604 98.1301 29.2552 96.6301 31.1406 95.5155C33.026 94.4009 35.0833 93.8438 37.3125 93.8438C39.5417 93.8438 41.599 94.4009 43.4844 95.5155C45.3802 96.6301 46.8802 98.1301 47.9844 100.016C49.099 101.901 49.6562 103.958 49.6562 106.188C49.6562 108.417 49.099 110.474 47.9844 112.359C46.8802 114.245 45.3802 115.745 43.4844 116.859C41.599 117.974 39.5417 118.531 37.3125 118.531ZM27.375 106.188C27.375 107.979 27.8229 109.641 28.7188 111.172C29.6146 112.693 30.8229 113.901 32.3438 114.797C33.8646 115.682 35.5208 116.125 37.3125 116.125C39.1146 116.125 40.776 115.682 42.2969 114.797C43.8177 113.901 45.026 112.693 45.9219 111.172C46.8281 109.651 47.2812 107.99 47.2812 106.188C47.2812 104.385 46.8281 102.724 45.9219 101.203C45.026 99.6819 43.8177 98.4791 42.2969 97.5938C40.776 96.6978 39.1146 96.2499 37.3125 96.2499C35.5208 96.2499 33.8646 96.6978 32.3438 97.5938C30.8229 98.4791 29.6146 99.6819 28.7188 101.203C27.8229 102.724 27.375 104.385 27.375 106.188ZM33.375 103.938C33.375 103.24 33.5365 102.625 33.8594 102.094C34.1823 101.562 34.6354 101.156 35.2188 100.875C35.8125 100.583 36.4896 100.438 37.25 100.438C38 100.438 38.6667 100.578 39.25 100.859C39.8438 101.13 40.3021 101.51 40.625 102C40.9583 102.479 41.125 103.031 41.125 103.656C41.1146 104.094 41.026 104.51 40.8594 104.906C40.6927 105.302 40.401 105.745 39.9844 106.234C39.5781 106.724 39 107.312 38.25 108L36.5 109.75V109.844H41.2812V111.625H33.4688V110.062L37.4062 106.344C37.9896 105.781 38.401 105.323 38.6406 104.969C38.8906 104.615 39.0208 104.229 39.0312 103.812C39.0208 103.312 38.849 102.917 38.5156 102.625C38.1823 102.333 37.75 102.188 37.2188 102.188C36.6771 102.188 36.2448 102.344 35.9219 102.656C35.6094 102.969 35.4583 103.396 35.4688 103.938H33.375Z" fill="#00A0E9"/>
</svg>
