<svg width="52" height="63" viewBox="0 0 52 63" fill="none" xmlns="http://www.w3.org/2000/svg">
<path d="M1 1V30H51V1" stroke="#E4007F" stroke-width="2" stroke-linecap="round"/>
<path d="M26.3125 62.5312C19.5156 62.5156 14 56.9844 14 50.1875C14 43.3906 19.5156 37.8593 26.3125 37.8438C33.125 37.8593 38.6562 43.3906 38.6562 50.1875C38.6562 56.9844 33.125 62.5156 26.3125 62.5312ZM16.375 50.1875C16.375 55.6719 20.8594 60.125 26.3125 60.125C31.7969 60.125 36.2656 55.6719 36.2812 50.1875C36.2656 44.7031 31.7969 40.2344 26.3125 40.25C20.8594 40.2344 16.375 44.7031 16.375 50.1875ZM23.4688 48.375V46.4375L26.2188 44.6875H28.25V55.7188H26.0625V46.75H25.9688L23.4688 48.375Z" fill="#E4007F"/>
</svg>
