<svg width="120" height="120" viewBox="0 0 120 120" fill="none" xmlns="http://www.w3.org/2000/svg">
<g clip-path="url(#clip0_77_174)">
<mask id="path-3-inside-1_77_174" fill="white">
<path d="M0 0H40V40H0V0Z"/>
</mask>
<path d="M0 0H40V40H0V0Z" fill="white"/>
<path d="M40 40V40.5H40.5V40H40ZM0 40.5H3V39.5H0V40.5ZM7 40.5H13V39.5H7V40.5ZM17 40.5H23V39.5H17V40.5ZM27 40.5H33V39.5H27V40.5ZM37 40.5H40V39.5H37V40.5ZM40.5 40V37H39.5V40H40.5ZM40.5 33V27H39.5V33H40.5ZM40.5 23V17H39.5V23H40.5ZM40.5 13V7H39.5V13H40.5ZM40.5 3V0H39.5V3H40.5ZM40 40V41H41V40H40ZM0 41H3V39H0V41ZM7 41H13V39H7V41ZM17 41H23V39H17V41ZM27 41H33V39H27V41ZM37 41H40V39H37V41ZM41 40V37H39V40H41ZM41 33V27H39V33H41ZM41 23V17H39V23H41ZM41 13V7H39V13H41ZM41 3V0H39V3H41Z" fill="#222222" mask="url(#path-3-inside-1_77_174)"/>
<mask id="path-5-inside-2_77_174" fill="white">
<path d="M40 0H80V40H40V0Z"/>
</mask>
<path d="M40 0H80V40H40V0Z" fill="white"/>
<path d="M80 40V40.5H80.5V40H80ZM40 40.5H43V39.5H40V40.5ZM47 40.5H53V39.5H47V40.5ZM57 40.5H63V39.5H57V40.5ZM67 40.5H73V39.5H67V40.5ZM77 40.5H80V39.5H77V40.5ZM80.5 40V37H79.5V40H80.5ZM80.5 33V27H79.5V33H80.5ZM80.5 23V17H79.5V23H80.5ZM80.5 13V7H79.5V13H80.5ZM80.5 3V0H79.5V3H80.5ZM80 40V41H81V40H80ZM40 41H43V39H40V41ZM47 41H53V39H47V41ZM57 41H63V39H57V41ZM67 41H73V39H67V41ZM77 41H80V39H77V41ZM81 40V37H79V40H81ZM81 33V27H79V33H81ZM81 23V17H79V23H81ZM81 13V7H79V13H81ZM81 3V0H79V3H81Z" fill="#222222" mask="url(#path-5-inside-2_77_174)"/>
<mask id="path-7-inside-3_77_174" fill="white">
<path d="M80 0H120V40H80V0Z"/>
</mask>
<path d="M80 0H120V40H80V0Z" fill="white"/>
<path d="M120 40V40.5H120.5V40H120ZM80 40.5H83V39.5H80V40.5ZM87 40.5H93V39.5H87V40.5ZM97 40.5H103V39.5H97V40.5ZM107 40.5H113V39.5H107V40.5ZM117 40.5H120V39.5H117V40.5ZM120.5 40V37H119.5V40H120.5ZM120.5 33V27H119.5V33H120.5ZM120.5 23V17H119.5V23H120.5ZM120.5 13V7H119.5V13H120.5ZM120.5 3V0H119.5V3H120.5ZM120 40V41H121V40H120ZM80 41H83V39H80V41ZM87 41H93V39H87V41ZM97 41H103V39H97V41ZM107 41H113V39H107V41ZM117 41H120V39H117V41ZM121 40V37H119V40H121ZM121 33V27H119V33H121ZM121 23V17H119V23H121ZM121 13V7H119V13H121ZM121 3V0H119V3H121Z" fill="black" mask="url(#path-7-inside-3_77_174)"/>
<mask id="path-9-inside-4_77_174" fill="white">
<path d="M0 40H40V80H0V40Z"/>
</mask>
<path d="M0 40H40V80H0V40Z" fill="white"/>
<path d="M40 80V80.5H40.5V80H40ZM0 80.5H3V79.5H0V80.5ZM7 80.5H13V79.5H7V80.5ZM17 80.5H23V79.5H17V80.5ZM27 80.5H33V79.5H27V80.5ZM37 80.5H40V79.5H37V80.5ZM40.5 80V77H39.5V80H40.5ZM40.5 73V67H39.5V73H40.5ZM40.5 63V57H39.5V63H40.5ZM40.5 53V47H39.5V53H40.5ZM40.5 43V40H39.5V43H40.5ZM40 80V81H41V80H40ZM0 81H3V79H0V81ZM7 81H13V79H7V81ZM17 81H23V79H17V81ZM27 81H33V79H27V81ZM37 81H40V79H37V81ZM41 80V77H39V80H41ZM41 73V67H39V73H41ZM41 63V57H39V63H41ZM41 53V47H39V53H41ZM41 43V40H39V43H41Z" fill="#222222" mask="url(#path-9-inside-4_77_174)"/>
<mask id="path-11-inside-5_77_174" fill="white">
<path d="M40 40H80V80H40V40Z"/>
</mask>
<path d="M40 40H80V80H40V40Z" fill="white"/>
<path d="M80 80V80.5H80.5V80H80ZM40 80.5H43V79.5H40V80.5ZM47 80.5H53V79.5H47V80.5ZM57 80.5H63V79.5H57V80.5ZM67 80.5H73V79.5H67V80.5ZM77 80.5H80V79.5H77V80.5ZM80.5 80V77H79.5V80H80.5ZM80.5 73V67H79.5V73H80.5ZM80.5 63V57H79.5V63H80.5ZM80.5 53V47H79.5V53H80.5ZM80.5 43V40H79.5V43H80.5ZM80 80V81H81V80H80ZM40 81H43V79H40V81ZM47 81H53V79H47V81ZM57 81H63V79H57V81ZM67 81H73V79H67V81ZM77 81H80V79H77V81ZM81 80V77H79V80H81ZM81 73V67H79V73H81ZM81 63V57H79V63H81ZM81 53V47H79V53H81ZM81 43V40H79V43H81Z" fill="#222222" mask="url(#path-11-inside-5_77_174)"/>
<mask id="path-13-inside-6_77_174" fill="white">
<path d="M80 40H120V80H80V40Z"/>
</mask>
<path d="M80 40H120V80H80V40Z" fill="white"/>
<path d="M120 80V80.5H120.5V80H120ZM80 80.5H83V79.5H80V80.5ZM87 80.5H93V79.5H87V80.5ZM97 80.5H103V79.5H97V80.5ZM107 80.5H113V79.5H107V80.5ZM117 80.5H120V79.5H117V80.5ZM120.5 80V77H119.5V80H120.5ZM120.5 73V67H119.5V73H120.5ZM120.5 63V57H119.5V63H120.5ZM120.5 53V47H119.5V53H120.5ZM120.5 43V40H119.5V43H120.5ZM120 80V81H121V80H120ZM80 81H83V79H80V81ZM87 81H93V79H87V81ZM97 81H103V79H97V81ZM107 81H113V79H107V81ZM117 81H120V79H117V81ZM121 80V77H119V80H121ZM121 73V67H119V73H121ZM121 63V57H119V63H121ZM121 53V47H119V53H121ZM121 43V40H119V43H121Z" fill="black" mask="url(#path-13-inside-6_77_174)"/>
<mask id="path-15-inside-7_77_174" fill="white">
<path d="M0 80H40V120H0V80Z"/>
</mask>
<path d="M0 80H40V120H0V80Z" fill="white"/>
<path d="M40 120V120.5H40.5V120H40ZM0 120.5H3V119.5H0V120.5ZM7 120.5H13V119.5H7V120.5ZM17 120.5H23V119.5H17V120.5ZM27 120.5H33V119.5H27V120.5ZM37 120.5H40V119.5H37V120.5ZM40.5 120V117H39.5V120H40.5ZM40.5 113V107H39.5V113H40.5ZM40.5 103V97H39.5V103H40.5ZM40.5 93V87H39.5V93H40.5ZM40.5 83V80H39.5V83H40.5ZM40 120V121H41V120H40ZM0 121H3V119H0V121ZM7 121H13V119H7V121ZM17 121H23V119H17V121ZM27 121H33V119H27V121ZM37 121H40V119H37V121ZM41 120V117H39V120H41ZM41 113V107H39V113H41ZM41 103V97H39V103H41ZM41 93V87H39V93H41ZM41 83V80H39V83H41Z" fill="#222222" mask="url(#path-15-inside-7_77_174)"/>
<mask id="path-17-inside-8_77_174" fill="white">
<path d="M40 80H80V120H40V80Z"/>
</mask>
<path d="M40 80H80V120H40V80Z" fill="white"/>
<path d="M80 120V120.5H80.5V120H80ZM40 120.5H43V119.5H40V120.5ZM47 120.5H53V119.5H47V120.5ZM57 120.5H63V119.5H57V120.5ZM67 120.5H73V119.5H67V120.5ZM77 120.5H80V119.5H77V120.5ZM80.5 120V117H79.5V120H80.5ZM80.5 113V107H79.5V113H80.5ZM80.5 103V97H79.5V103H80.5ZM80.5 93V87H79.5V93H80.5ZM80.5 83V80H79.5V83H80.5ZM80 120V121H81V120H80ZM40 121H43V119H40V121ZM47 121H53V119H47V121ZM57 121H63V119H57V121ZM67 121H73V119H67V121ZM77 121H80V119H77V121ZM81 120V117H79V120H81ZM81 113V107H79V113H81ZM81 103V97H79V103H81ZM81 93V87H79V93H81ZM81 83V80H79V83H81Z" fill="#222222" mask="url(#path-17-inside-8_77_174)"/>
<mask id="path-19-inside-9_77_174" fill="white">
<path d="M80 80H120V120H80V80Z"/>
</mask>
<path d="M80 80H120V120H80V80Z" fill="white"/>
<path d="M120 120V120.5H120.5V120H120ZM80 120.5H83V119.5H80V120.5ZM87 120.5H93V119.5H87V120.5ZM97 120.5H103V119.5H97V120.5ZM107 120.5H113V119.5H107V120.5ZM117 120.5H120V119.5H117V120.5ZM120.5 120V117H119.5V120H120.5ZM120.5 113V107H119.5V113H120.5ZM120.5 103V97H119.5V103H120.5ZM120.5 93V87H119.5V93H120.5ZM120.5 83V80H119.5V83H120.5ZM120 120V121H121V120H120ZM80 121H83V119H80V121ZM87 121H93V119H87V121ZM97 121H103V119H97V121ZM107 121H113V119H107V121ZM117 121H120V119H117V121ZM121 120V117H119V120H121ZM121 113V107H119V113H121ZM121 103V97H119V103H121ZM121 93V87H119V93H121ZM121 83V80H119V83H121Z" fill="black" mask="url(#path-19-inside-9_77_174)"/>
</g>
<rect x="1" y="1" width="118" height="118" stroke="black" stroke-width="2"/>
<defs>
<clipPath id="clip0_77_174">
<rect width="120" height="120" fill="white"/>
</clipPath>
</defs>
</svg>
