<svg width="264" height="180" viewBox="0 0 264 180" fill="none" xmlns="http://www.w3.org/2000/svg">
<g clip-path="url(#clip0_9373_51259)">
<rect y="180" width="180" height="264" rx="9.10376" transform="rotate(-90 0 180)" fill="#FEC670"/>
<path d="M33.0088 18C33.0088 18 33.0088 33.0369 17.7002 33.0369L17.7002 146.963C17.7002 146.963 33.0088 146.963 33.0088 162L230.992 162C230.992 162 230.992 146.963 246.3 146.963L246.3 33.0369C246.3 33.0369 230.992 33.0369 230.992 18L33.0088 18Z" fill="#F79147" stroke="#231F20" stroke-width="2.25" stroke-linecap="round" stroke-linejoin="round"/>
<path d="M131.614 109.847C136.861 109.847 141.103 114.117 141.103 119.362C141.103 124.608 136.845 128.878 131.614 128.878C126.383 128.878 122.125 124.608 122.125 119.362C122.125 114.117 126.383 109.847 131.614 109.847Z" fill="#FFCB05"/>
<path d="M131.614 109.847C136.861 109.847 141.103 114.117 141.103 119.362C141.103 124.608 136.845 128.878 131.614 128.878C126.383 128.878 122.125 124.608 122.125 119.362C122.125 114.117 126.383 109.847 131.614 109.847Z" stroke="#231F20" stroke-width="3.6" stroke-linecap="round" stroke-linejoin="round"/>
<path d="M131.614 51.1214C136.861 51.1214 141.103 55.3917 141.103 60.6371C141.103 65.8825 136.845 70.1528 131.614 70.1528C126.383 70.1528 122.125 65.8825 122.125 60.6371C122.125 55.3917 126.383 51.1214 131.614 51.1214Z" fill="#FFCB05"/>
<path d="M131.614 51.1214C136.861 51.1214 141.103 55.3917 141.103 60.6371C141.103 65.8825 136.845 70.1528 131.614 70.1528C126.383 70.1528 122.125 65.8825 122.125 60.6371C122.125 55.3917 126.383 51.1214 131.614 51.1214Z" stroke="#231F20" stroke-width="3.6" stroke-linecap="round" stroke-linejoin="round"/>
<path d="M90.0342 85.9566L90.0342 94.0601L173.205 94.0601L173.205 85.9566L90.0342 85.9566Z" fill="#FFCB05"/>
<path d="M90.0342 85.9566L90.0342 94.0601L173.205 94.0601L173.205 85.9566L90.0342 85.9566Z" stroke="#231F20" stroke-width="3.6" stroke-linecap="round" stroke-linejoin="round"/>
<path d="M19.9677 25.1367C22.2576 25.1367 24.1171 23.3112 24.1171 21.0632C24.1171 18.8151 22.2576 16.9896 19.9677 16.9896C17.6778 16.9896 15.8184 18.8151 15.8184 21.0632C15.8184 23.3112 17.6778 25.1367 19.9677 25.1367Z" fill="#F7975B"/>
<path d="M19.9677 163.636C22.2576 163.636 24.1171 161.811 24.1171 159.563C24.1171 157.315 22.2576 155.489 19.9677 155.489C17.6778 155.489 15.8184 157.315 15.8184 159.563C15.8184 161.811 17.6778 163.636 19.9677 163.636Z" fill="#F7975B"/>
<path d="M244.032 163.636C246.322 163.636 248.182 161.811 248.182 159.563C248.182 157.315 246.322 155.489 244.032 155.489C241.742 155.489 239.883 157.315 239.883 159.563C239.883 161.811 241.742 163.636 244.032 163.636Z" fill="#F7975B"/>
<path d="M244.032 25.1367C246.322 25.1367 248.182 23.3112 248.182 21.0632C248.182 18.8151 246.322 16.9896 244.032 16.9896C241.742 16.9896 239.883 18.8151 239.883 21.0632C239.883 23.3112 241.742 25.1367 244.032 25.1367Z" fill="#F7975B"/>
</g>
<defs>
<clipPath id="clip0_9373_51259">
<rect y="180" width="180" height="264" rx="9.10376" transform="rotate(-90 0 180)" fill="white"/>
</clipPath>
</defs>
</svg>
