<svg width="243" height="216" viewBox="0 0 243 216" fill="none" xmlns="http://www.w3.org/2000/svg">
<path d="M1.64648 195.824L182.62 214.855V72.3527L1.64648 53.3223V195.824Z" fill="#FCD6D9"/>
<mask id="mask0_357_1037" style="mask-type:luminance" maskUnits="userSpaceOnUse" x="0" y="0" width="243" height="216">
<path d="M242.704 0H0.5V216H242.704V0Z" fill="white"/>
</mask>
<g mask="url(#mask0_357_1037)">
<path d="M1.64648 53.3145V195.817L182.62 214.847V72.3449L1.64648 53.3145Z" stroke="#231F20" stroke-width="2" stroke-linejoin="round"/>
</g>
<path d="M182.621 72.35V214.822L241.558 162.677V20.1445L182.621 72.35Z" fill="#FAC6CC"/>
<mask id="mask1_357_1037" style="mask-type:luminance" maskUnits="userSpaceOnUse" x="0" y="0" width="243" height="216">
<path d="M242.704 0H0.5V216H242.704V0Z" fill="white"/>
</mask>
<g mask="url(#mask1_357_1037)">
<path d="M182.621 72.354V214.826L241.558 162.681V20.1484L182.621 72.354Z" stroke="#231F20" stroke-width="2" stroke-linejoin="round"/>
</g>
<path d="M1.64648 53.3199L182.62 72.3503L241.557 20.1448L60.583 1.14453L1.64648 53.3199Z" fill="#FDE9EA"/>
<mask id="mask2_357_1037" style="mask-type:luminance" maskUnits="userSpaceOnUse" x="0" y="0" width="243" height="216">
<path d="M242.704 0H0.5V216H242.704V0Z" fill="white"/>
</mask>
<g mask="url(#mask2_357_1037)">
<path d="M60.583 1.13867L1.64648 53.314L182.62 72.3445L241.557 20.139L60.583 1.13867Z" stroke="#231F20" stroke-width="2" stroke-linejoin="round"/>
</g>
<path d="M1.61719 195.822L60.2519 143.164L241.226 162.225" stroke="#231F20" stroke-width="2" stroke-linejoin="round" stroke-dasharray="4 4"/>
<mask id="mask3_357_1037" style="mask-type:luminance" maskUnits="userSpaceOnUse" x="0" y="0" width="243" height="216">
<path d="M242.704 0H0.5V216H242.704V0Z" fill="white"/>
</mask>
<g mask="url(#mask3_357_1037)">
<path d="M60.25 143.158V1.13867" stroke="#231F20" stroke-width="2" stroke-linejoin="round" stroke-dasharray="4 4"/>
</g>
</svg>
