<svg width="841" height="414" viewBox="0 0 841 414" fill="none" xmlns="http://www.w3.org/2000/svg">
<rect x="15" y="15" width="188" height="178" stroke="#FF0000" stroke-width="2" stroke-dasharray="4 4"/>
<path d="M44 78.5312V168.657L133.665 178.094V87.9421L44 78.5312Z" fill="#D6D6EC"/>
<path d="M44 78.5312V168.657L133.665 178.094V87.9421L44 78.5312Z" stroke="#231F20" stroke-width="2" stroke-linejoin="round"/>
<path d="M133.666 87.9504V178.077L187.835 130.566V40.4141L133.666 87.9504Z" fill="#C7C8E5"/>
<path d="M133.666 87.9504V178.077L187.835 130.566V40.4141L133.666 87.9504Z" stroke="#231F20" stroke-width="2" stroke-linejoin="round"/>
<path d="M98.1692 31L44 78.5363L133.665 87.9472L187.834 40.4109L98.1692 31Z" fill="#E8E8F4"/>
<path d="M98.1692 31L44 78.5363L133.665 87.9472L187.834 40.4109L98.1692 31Z" stroke="#231F20" stroke-width="2" stroke-linejoin="round"/>
<path d="M43.4531 19.4375V30.3438H47.4844V33.625H43.4531V47.8125H39.4531V19.4375H43.4531ZM20.7031 39.8438C27.4375 36.4688 31.0625 31.9375 31.8125 25.5938H22.3281V22.3438H35.8594C35.8281 30.8438 32.5156 38.2031 22.9531 42.9062L20.7031 39.8438Z" fill="#222222"/>
<rect x="341" y="15" width="239" height="178" stroke="#FF0000" stroke-width="2" stroke-dasharray="4 4"/>
<path d="M365 94.127V169.11L428.608 175.806V100.824L365 94.127Z" fill="#D6D6EC"/>
<path d="M365 94.127V169.11L428.608 175.806V100.824L365 94.127Z" stroke="#231F20" stroke-width="2" stroke-linejoin="round"/>
<path d="M428.607 100.825V175.757L557.167 113.66V38.6777L428.607 100.825Z" fill="#C7C8E5"/>
<path d="M428.607 100.825V175.757L557.167 113.66V38.6777L428.607 100.825Z" stroke="#231F20" stroke-width="2" stroke-linejoin="round"/>
<path d="M493.56 32L365 94.1219L428.608 100.819L557.167 38.6713L493.56 32Z" fill="#E8E8F4"/>
<path d="M493.56 32L365 94.1219L428.608 100.819L557.167 38.6713L493.56 32Z" stroke="#231F20" stroke-width="2" stroke-linejoin="round"/>
<g filter="url(#filter0_d_360_1010)">
<path d="M365.33 169.569L493.56 106.939L557.168 113.662" stroke="#231F20" stroke-width="2" stroke-linejoin="round" stroke-dasharray="4 4" shape-rendering="crispEdges"/>
</g>
<path d="M493.203 106.475V32" stroke="#231F20" stroke-width="2" stroke-linejoin="round"/>
<path d="M373.484 30.2188V33.4688H369.453V47.8125H365.453V19.4375H369.453V30.2188H373.484ZM347.922 40.875V22.1562H351.891V37.5781C355.531 37.5156 359.438 37.1719 363.547 36.3438L363.953 39.6562C359.188 40.625 354.578 40.875 350.391 40.875H347.922Z" fill="#222222"/>
<rect x="678" y="15" width="162" height="203" stroke="#FF0000" stroke-width="2" stroke-dasharray="4 4"/>
<path d="M696.119 64.5684V199.263L752.597 205.249V70.5548L696.119 64.5684Z" fill="#D6D6EC"/>
<path d="M696.119 64.5684V199.263L752.597 205.249V70.5548L696.119 64.5684Z" stroke="#231F20" stroke-width="2" stroke-linejoin="round"/>
<path d="M752.598 70.5459V205.215L828.206 163.64V28.9453L752.598 70.5459Z" fill="#C7C8E5"/>
<mask id="mask0_360_1010" style="mask-type:luminance" maskUnits="userSpaceOnUse" x="688" y="22" width="142" height="191">
<path d="M829.144 22H688V212.703H829.144V22Z" fill="white"/>
</mask>
<g mask="url(#mask0_360_1010)">
<path d="M752.598 70.5518V205.221L828.206 163.646V28.9512L752.598 70.5518Z" stroke="#231F20" stroke-width="2" stroke-linejoin="round"/>
</g>
<path d="M696.119 64.5615L752.597 70.548L828.206 28.9474L771.728 22.9609L696.119 64.5615Z" fill="#E8E8F4"/>
<mask id="mask1_360_1010" style="mask-type:luminance" maskUnits="userSpaceOnUse" x="688" y="22" width="142" height="191">
<path d="M829.144 22H688V212.703H829.144V22Z" fill="white"/>
</mask>
<g mask="url(#mask1_360_1010)">
<path d="M771.728 22.9648L696.119 64.5655L752.597 70.5519L828.206 28.9513L771.728 22.9648Z" stroke="#231F20" stroke-width="2" stroke-linejoin="round"/>
<path d="M696.449 199.413L771.728 157.609L828.206 163.647" stroke="#231F20" stroke-width="2" stroke-linejoin="round"/>
<path d="M771.373 157.152V22.9648" stroke="#231F20" stroke-width="2" stroke-linejoin="round"/>
</g>
<path d="M706.453 19.4375V30H710.641V33.25H706.453V47.9375H702.453V19.4375H706.453ZM685.141 41.0312V22.0625H698.484V25.2812H689.109V37.75C693.234 37.7188 696.641 37.5 700.422 36.8438L700.859 40.1875C696.438 40.9375 692.562 41.0469 687.547 41.0312H685.141Z" fill="#222222"/>
<rect x="15" y="229" width="216" height="184" stroke="#FF0000" stroke-width="2" stroke-dasharray="4 4"/>
<path d="M25.9629 307.756V379.542L168.274 394.61V322.798L25.9629 307.756Z" fill="#D6D6EC"/>
<mask id="mask2_360_1010" style="mask-type:luminance" maskUnits="userSpaceOnUse" x="25" y="228" width="197" height="187">
<path d="M221.912 228H25V414.29H221.912V228Z" fill="white"/>
</mask>
<g mask="url(#mask2_360_1010)">
<path d="M25.9648 307.752V379.538L168.276 394.606V322.794L25.9648 307.752Z" stroke="#231F20" stroke-width="2" stroke-linejoin="round"/>
</g>
<path d="M168.275 322.788V394.575L217.776 351.148V279.336L168.275 322.788Z" fill="#C7C8E5"/>
<path d="M168.275 322.788V394.575L217.776 351.148V279.336L168.275 322.788Z" stroke="#231F20" stroke-width="2" stroke-linejoin="round"/>
<path d="M75.4656 264.295L25.9395 307.747L168.276 322.789L217.777 279.337L75.4656 264.295Z" fill="#E8E8F4"/>
<mask id="mask3_360_1010" style="mask-type:luminance" maskUnits="userSpaceOnUse" x="25" y="228" width="197" height="187">
<path d="M221.912 228H25V414.29H221.912V228Z" fill="white"/>
</mask>
<g mask="url(#mask3_360_1010)">
<path d="M75.4656 264.299L25.9395 307.751L168.276 322.793L217.777 279.341L75.4656 264.299Z" stroke="#231F20" stroke-width="2" stroke-linejoin="round"/>
</g>
<path d="M25.9395 379.542L75.2626 335.836L217.599 350.903" stroke="#231F20" stroke-width="2" stroke-linejoin="round" stroke-dasharray="4 4"/>
<path d="M75.2617 335.828V264.295" stroke="#231F20" stroke-width="2" stroke-linejoin="round" stroke-dasharray="4 4"/>
<path d="M43.4531 233.438V244.188H47.6406V247.469H43.4531V261.938H39.5156V233.438H43.4531ZM22.1719 239.031V235.812H35.3281V246.844H26.1719V252C30.3125 251.984 33.7344 251.797 37.5156 251.156L37.8594 254.344C33.5156 255.141 29.6094 255.312 24.6094 255.312H22.2031V243.688H31.3594V239.031H22.1719Z" fill="#222222"/>
<rect x="341" y="229" width="239" height="184" stroke="#FF0000" stroke-width="2" stroke-dasharray="4 4"/>
<path d="M357 318.146V369.843L496.165 384.327V332.631L357 318.146Z" fill="#D6D6EC"/>
<path d="M496.164 332.63V384.301L564.44 324.183V272.486L496.164 332.63Z" fill="#C7C8E5"/>
<path d="M425.301 258L357.025 318.143L496.165 332.627L564.441 272.484L425.301 258Z" fill="#E8E8F4"/>
<path d="M357 369.842L425.149 309.496L564.315 324.006" stroke="#231F20" stroke-width="2" stroke-linejoin="round"/>
<path d="M425.148 309.493V258" stroke="#231F20" stroke-width="2" stroke-linejoin="round"/>
<path d="M357 318.146V369.843L496.165 384.327V332.631" stroke="#231F20" stroke-width="2" stroke-linejoin="round" stroke-dasharray="4 4"/>
<path d="M496.164 384.301L564.44 324.183V272.486" stroke="#231F20" stroke-width="2" stroke-linejoin="round" stroke-dasharray="4 4"/>
<path d="M425.301 258L357.025 318.143L496.165 332.627L564.441 272.484L425.301 258Z" stroke="#231F20" stroke-width="2" stroke-linejoin="round" stroke-dasharray="4 4"/>
<path d="M361.578 236.125V254.938H347.922V236.125H361.578ZM351.859 251.781H357.609V239.25H351.859V251.781ZM365.453 261.875V233.438H369.453V244.156H373.641V247.469H369.453V261.875H365.453Z" fill="#222222"/>
<rect x="678" y="229" width="162" height="184" stroke="#FF0000" stroke-width="2" stroke-dasharray="4 4"/>
<path d="M695.135 399.184L775.818 407.656V290.515L695.135 282.018V399.184Z" fill="#D6D6EC"/>
<path d="M775.816 290.515V407.631L824.581 364.889V247.723L775.816 290.515Z" fill="#C7C8E5"/>
<path d="M743.9 239.221L695.135 282.014L775.818 290.511L824.583 247.718L743.9 239.221Z" fill="#E8E8F4"/>
<path d="M744.178 239.936V357.102L824.582 364.89" stroke="#231F20" stroke-width="2" stroke-linejoin="round" stroke-dasharray="4 4"/>
<path d="M744.179 357.105L695.135 399.188" stroke="#231F20" stroke-width="2" stroke-linejoin="round" stroke-dasharray="4 4"/>
<mask id="mask4_360_1010" style="mask-type:luminance" maskUnits="userSpaceOnUse" x="686" y="222" width="141" height="187">
<path d="M826.865 222H686V408.29H826.865V222Z" fill="white"/>
</mask>
<g mask="url(#mask4_360_1010)">
<path d="M695.135 282.016V399.182L775.818 407.655V290.513" stroke="#231F20" stroke-width="2" stroke-linejoin="round" stroke-dasharray="4 4"/>
<path d="M775.818 407.629L824.583 364.887V247.721" stroke="#231F20" stroke-width="2" stroke-linejoin="round" stroke-dasharray="4 4"/>
</g>
<path d="M743.9 239.221L695.135 282.014L775.818 290.511L824.583 247.718L743.9 239.221Z" stroke="#231F20" stroke-width="2" stroke-linejoin="round" stroke-dasharray="4 4"/>
<path d="M706.453 233.438V244.062H710.641V247.406H706.453V261.875H702.453V233.438H706.453ZM684.922 255.281V235.688H688.891V242.625H694.797V235.688H698.766V255.281H684.922ZM688.891 252.062H694.797V245.719H688.891V252.062Z" fill="#222222"/>
<defs>
<filter id="filter0_d_360_1010" x="360.891" y="105.939" width="200.383" height="72.5273" filterUnits="userSpaceOnUse" color-interpolation-filters="sRGB">
<feFlood flood-opacity="0" result="BackgroundImageFix"/>
<feColorMatrix in="SourceAlpha" type="matrix" values="0 0 0 0 0 0 0 0 0 0 0 0 0 0 0 0 0 0 127 0" result="hardAlpha"/>
<feOffset dy="4"/>
<feGaussianBlur stdDeviation="2"/>
<feComposite in2="hardAlpha" operator="out"/>
<feColorMatrix type="matrix" values="0 0 0 0 0 0 0 0 0 0 0 0 0 0 0 0 0 0 0.25 0"/>
<feBlend mode="normal" in2="BackgroundImageFix" result="effect1_dropShadow_360_1010"/>
<feBlend mode="normal" in="SourceGraphic" in2="effect1_dropShadow_360_1010" result="shape"/>
</filter>
</defs>
</svg>
