<svg width="207" height="292" viewBox="0 0 207 292" fill="none" xmlns="http://www.w3.org/2000/svg">
<path d="M78.4023 81.9086V290.722L205.222 277.382V68.5684L78.4023 81.9086Z" fill="#BADEB9"/>
<mask id="mask0_361_1110" style="mask-type:luminance" maskUnits="userSpaceOnUse" x="0" y="0" width="207" height="292">
<path d="M206.5 0H0.5V292H206.5V0Z" fill="white"/>
</mask>
<g mask="url(#mask0_361_1110)">
<path d="M205.222 68.5684V277.382L78.4023 290.722V81.9086L205.222 68.5684Z" stroke="#231F20" stroke-width="2" stroke-linejoin="round"/>
</g>
<path d="M1.8125 223.468L78.4018 290.687V81.9086L1.8125 14.6543V223.468Z" fill="#CDE7CD"/>
<mask id="mask1_361_1110" style="mask-type:luminance" maskUnits="userSpaceOnUse" x="0" y="0" width="207" height="292">
<path d="M206.5 0H0.5V292H206.5V0Z" fill="white"/>
</mask>
<g mask="url(#mask1_361_1110)">
<path d="M78.4012 81.9086V290.687L1.77734 223.433V14.6543L78.4012 81.9086Z" stroke="#231F20" stroke-width="2" stroke-linejoin="round"/>
</g>
<path d="M1.8125 14.6196L78.4018 81.9085L205.222 68.5682L128.598 1.2793L1.8125 14.6196Z" fill="#E4F2E4"/>
<mask id="mask2_361_1110" style="mask-type:luminance" maskUnits="userSpaceOnUse" x="0" y="0" width="207" height="292">
<path d="M206.5 0H0.5V292H206.5V0Z" fill="white"/>
</mask>
<g mask="url(#mask2_361_1110)">
<path d="M128.598 1.2793L205.222 68.5682L78.4018 81.9085L1.8125 14.6196L128.598 1.2793Z" stroke="#231F20" stroke-width="2" stroke-linejoin="round"/>
<path d="M205.222 277.381L128.91 209.678L2.08984 223.053" stroke="#231F20" stroke-width="2" stroke-linejoin="round" stroke-dasharray="4 4"/>
<path d="M128.908 209.678V1.2793" stroke="#231F20" stroke-width="2" stroke-linejoin="round" stroke-dasharray="4 4"/>
</g>
</svg>
