<svg width="761" height="502" viewBox="0 0 761 502" fill="none" xmlns="http://www.w3.org/2000/svg">
<mask id="mask0_406_1386" style="mask-type:luminance" maskUnits="userSpaceOnUse" x="0" y="0" width="761" height="502">
<path d="M652.275 31.3654L597.931 0L543.549 31.3654L489.206 0L434.863 31.3654L380.481 0L326.137 31.3654L271.794 0L217.451 31.3654L163.069 0L108.725 31.3654L54.3434 0L0 31.3654V470.635L54.3434 502L108.725 470.635L163.069 502L217.451 470.635L271.794 502L326.137 470.635L380.481 502L434.863 470.635L489.206 502L543.549 470.635L597.931 502L652.275 470.635L706.657 502L761 470.635V31.3654L706.657 0L652.275 31.3654Z" fill="white"/>
</mask>
<g mask="url(#mask0_406_1386)">
<path d="M1528.02 850.662L0 -31.3271" stroke="#00AEEF" stroke-miterlimit="10" stroke-dasharray="4 4"/>
<path d="M1506.43 775.431L108.725 -31.3271" stroke="#00AEEF" stroke-miterlimit="10" stroke-dasharray="4 4"/>
<path d="M1515.75 718.068L217.412 -31.3271" stroke="#00AEEF" stroke-miterlimit="10" stroke-dasharray="4 4"/>
<path d="M1486.75 638.582C1152.64 445.749 326.137 -31.3652 326.137 -31.3652" stroke="#00AEEF" stroke-miterlimit="10" stroke-dasharray="4 4"/>
<path d="M1499.18 583.021C1125.3 367.221 434.824 -31.3652 434.824 -31.3652" stroke="#00AEEF" stroke-miterlimit="10" stroke-dasharray="4 4"/>
<path d="M1491.82 516.034C1107.27 294.06 543.512 -31.3271 543.512 -31.3271" stroke="#00AEEF" stroke-miterlimit="10" stroke-dasharray="4 4"/>
<path d="M1485.83 449.852C1113.25 234.78 652.236 -31.3271 652.236 -31.3271" stroke="#00AEEF" stroke-miterlimit="10" stroke-dasharray="4 4"/>
<path d="M1493.5 1207.22C1493.5 1207.22 741.057 772.901 -24.0469 331.255" stroke="#00AEEF" stroke-miterlimit="10" stroke-dasharray="4 4"/>
<path d="M1515.67 1157.26C1515.67 1157.26 705.928 689.848 -31.0645 264.459" stroke="#00AEEF" stroke-miterlimit="10" stroke-dasharray="4 4"/>
<path d="M1493.51 1081.72C1493.51 1081.72 654.5 597.439 1.72656 220.632" stroke="#00AEEF" stroke-miterlimit="10" stroke-dasharray="4 4"/>
<path d="M1493.5 1018.99C1493.5 1018.99 562.993 481.869 -21.9375 144.212" stroke="#00AEEF" stroke-miterlimit="10" stroke-dasharray="4 4"/>
<path d="M1506.43 963.701C1506.43 963.701 477.086 369.561 -24.0469 80.2549" stroke="#00AEEF" stroke-miterlimit="10" stroke-dasharray="4 4"/>
<path d="M1493.5 1332.72C1493.5 1332.72 829.072 949.168 -10.3555 464.653" stroke="#00AEEF" stroke-miterlimit="10" stroke-dasharray="4 4"/>
<path d="M1499.45 1273.41C1307.62 1162.67 686.828 804.343 -10.3555 401.923" stroke="#00AEEF" stroke-miterlimit="10" stroke-dasharray="4 4"/>
<path d="M1506.43 900.932C1506.43 900.932 355.398 236.545 -17.5273 21.2812" stroke="#00AEEF" stroke-miterlimit="10" stroke-dasharray="4 4"/>
<path d="M1519.93 406.754C1163.23 200.846 760.924 -31.3652 760.924 -31.3652" stroke="#00AEEF" stroke-miterlimit="10" stroke-dasharray="4 4"/>
<path d="M-17.5273 1359.18L1500.33 483.059" stroke="#00AEEF" stroke-miterlimit="10" stroke-dasharray="4 4"/>
<path d="M-38.4277 1308.53C-38.4277 1308.53 831.566 806.337 1506.31 416.877" stroke="#00AEEF" stroke-miterlimit="10" stroke-dasharray="4 4"/>
<path d="M-19.1367 1234.64C-19.1367 1234.64 858.105 728.268 1502.98 356.024" stroke="#00AEEF" stroke-miterlimit="10" stroke-dasharray="4 4"/>
<path d="M-52.1191 1190.93C-52.1191 1190.93 864.279 661.972 1491.4 300.004" stroke="#00AEEF" stroke-miterlimit="10" stroke-dasharray="4 4"/>
<path d="M-31.0645 1116.04C-31.0645 1116.04 904.74 575.851 1492.16 236.774" stroke="#00AEEF" stroke-miterlimit="10" stroke-dasharray="4 4"/>
<path d="M-24.0469 1049.21C-24.0469 1049.21 959.006 481.793 1500.33 169.327" stroke="#00AEEF" stroke-miterlimit="10" stroke-dasharray="4 4"/>
<path d="M-31.0645 990.542C-31.0645 990.542 1017.76 385.128 1500.87 106.29" stroke="#00AEEF" stroke-miterlimit="10" stroke-dasharray="4 4"/>
<path d="M-31.0645 927.772C-31.0645 927.772 1128.79 258.285 1510.42 37.999" stroke="#00AEEF" stroke-miterlimit="10" stroke-dasharray="4 4"/>
<path d="M-10.3555 853.078L1521.88 -31.3271" stroke="#00AEEF" stroke-miterlimit="10" stroke-dasharray="4 4"/>
<path d="M-31.0645 802.31L1413.16 -31.3271" stroke="#00AEEF" stroke-miterlimit="10" stroke-dasharray="4 4"/>
<path d="M-28.3789 737.969L1304.47 -31.3652" stroke="#00AEEF" stroke-miterlimit="10" stroke-dasharray="4 4"/>
<path d="M-15.0332 667.569C306.655 481.869 1195.75 -31.3271 1195.75 -31.3271" stroke="#00AEEF" stroke-miterlimit="10" stroke-dasharray="4 4"/>
<path d="M4.83203 593.335C374.114 380.181 1087.06 -31.3271 1087.06 -31.3271" stroke="#00AEEF" stroke-miterlimit="10" stroke-dasharray="4 4"/>
<path d="M-10.3555 539.347C373.654 317.68 978.335 -31.3271 978.335 -31.3271" stroke="#00AEEF" stroke-miterlimit="10" stroke-dasharray="4 4"/>
<path d="M-17.6035 480.796C373.04 255.295 869.648 -31.3652 869.648 -31.3652" stroke="#00AEEF" stroke-miterlimit="10" stroke-dasharray="4 4"/>
<path d="M-21.5527 420.327C347.653 207.211 760.924 -31.3271 760.924 -31.3271" stroke="#00AEEF" stroke-miterlimit="10" stroke-dasharray="4 4"/>
<path d="M2.41602 343.716C327.211 156.252 652.236 -31.3271 652.236 -31.3271" stroke="#00AEEF" stroke-miterlimit="10" stroke-dasharray="4 4"/>
<path d="M-18.1406 292.872C274.785 123.775 543.511 -31.3652 543.511 -31.3652" stroke="#00AEEF" stroke-miterlimit="10" stroke-dasharray="4 4"/>
<path d="M-23.8926 233.439C226.156 89.1117 434.824 -31.3652 434.824 -31.3652" stroke="#00AEEF" stroke-miterlimit="10" stroke-dasharray="4 4"/>
<path d="M-19.1367 167.947C177.527 54.4104 326.099 -31.3652 326.099 -31.3652" stroke="#00AEEF" stroke-miterlimit="10" stroke-dasharray="4 4"/>
<path d="M-28.3789 110.507C116.818 26.7257 217.413 -31.3271 217.413 -31.3271" stroke="#00AEEF" stroke-miterlimit="10" stroke-dasharray="4 4"/>
<path d="M-31.0645 49.3487C54.8036 -0.230137 108.687 -31.3271 108.687 -31.3271" stroke="#00AEEF" stroke-miterlimit="10" stroke-dasharray="4 4"/>
<path d="M54.3438 1415.16V-62.7305" stroke="#00AEEF" stroke-miterlimit="10" stroke-dasharray="4 4"/>
<path d="M108.725 1415.16V-62.7305" stroke="#00AEEF" stroke-miterlimit="10" stroke-dasharray="4 4"/>
<path d="M0 1415.16V-62.7305" stroke="#00AEEF" stroke-miterlimit="10" stroke-dasharray="4 4"/>
<path d="M163.068 1415.16V-62.7305" stroke="#00AEEF" stroke-miterlimit="10" stroke-dasharray="4 4"/>
<path d="M217.412 1415.16V-62.7305" stroke="#00AEEF" stroke-miterlimit="10" stroke-dasharray="4 4"/>
<path d="M271.793 1415.16V-62.7305" stroke="#00AEEF" stroke-miterlimit="10" stroke-dasharray="4 4"/>
<path d="M326.137 1415.16V-62.7305" stroke="#00AEEF" stroke-miterlimit="10" stroke-dasharray="4 4"/>
<path d="M380.48 1415.16V-62.7305" stroke="#00AEEF" stroke-miterlimit="10" stroke-dasharray="4 4"/>
<path d="M434.863 1415.16V-62.7305" stroke="#00AEEF" stroke-miterlimit="10" stroke-dasharray="4 4"/>
<path d="M489.205 1415.16V-62.7305" stroke="#00AEEF" stroke-miterlimit="10" stroke-dasharray="4 4"/>
<path d="M543.549 1415.16V-62.7305" stroke="#00AEEF" stroke-miterlimit="10" stroke-dasharray="4 4"/>
<path d="M597.932 1415.16V-62.7305" stroke="#00AEEF" stroke-miterlimit="10" stroke-dasharray="4 4"/>
<path d="M652.275 1415.16V-62.7305" stroke="#00AEEF" stroke-miterlimit="10" stroke-dasharray="4 4"/>
<path d="M706.617 1415.16V-62.7305" stroke="#00AEEF" stroke-miterlimit="10" stroke-dasharray="4 4"/>
<path d="M652.275 1415.16V-62.7305" stroke="#00AEEF" stroke-miterlimit="10" stroke-dasharray="4 4"/>
</g>
<path d="M380.518 62.7695L217.449 156.904L380.441 251L543.548 156.904L380.518 62.7695Z" stroke="#231F20" stroke-width="2" stroke-linejoin="round"/>
<path d="M543.549 156.903V345.134" stroke="#231F20" stroke-width="2" stroke-linejoin="round"/>
<path d="M380.48 251.039V439.27" stroke="#231F20" stroke-width="2" stroke-linejoin="round"/>
<path d="M217.451 156.865V345.134" stroke="#231F20" stroke-width="2" stroke-linejoin="round"/>
</svg>
