<svg width="558" height="369" viewBox="0 0 558 369" fill="none" xmlns="http://www.w3.org/2000/svg">
<g clip-path="url(#clip0_446_2473)">
<mask id="mask0_446_2473" style="mask-type:luminance" maskUnits="userSpaceOnUse" x="0" y="0" width="558" height="369">
<path d="M477.678 23.9158L437.951 0.981201L398.196 23.9158L358.469 0.981201L318.742 23.9158L278.987 0.981201L239.26 23.9158L199.533 0.981201L159.806 23.9158L120.051 0.981201L80.3238 23.9158L40.5688 0.981201L0.841797 23.9158V345.084L40.5688 368.047L80.3238 345.084L120.051 368.047L159.806 345.084L199.533 368.047L239.26 345.084L278.987 368.047L318.742 345.084L358.469 368.047L398.196 345.084L437.951 368.047L477.678 345.084L517.433 368.047L557.16 345.084V23.9158L517.433 0.981201L477.678 23.9158Z" fill="white"/>
</mask>
<g mask="url(#mask0_446_2473)">
<path d="M1117.88 622.963L0.841797 -21.9534" stroke="#00AEEF" stroke-miterlimit="10" stroke-dasharray="4 4"/>
<path d="M1102.09 567.981L80.2949 -21.9534" stroke="#00AEEF" stroke-miterlimit="10" stroke-dasharray="4 4"/>
<path d="M1108.91 526.037L159.777 -21.9534" stroke="#00AEEF" stroke-miterlimit="10" stroke-dasharray="4 4"/>
<path d="M1087.71 467.916C843.462 326.888 239.23 -21.9534 239.23 -21.9534" stroke="#00AEEF" stroke-miterlimit="10" stroke-dasharray="4 4"/>
<path d="M1096.8 427.262C823.473 269.467 318.713 -21.9534 318.713 -21.9534" stroke="#00AEEF" stroke-miterlimit="10" stroke-dasharray="4 4"/>
<path d="M1091.41 378.28C810.295 215.972 398.166 -21.9534 398.166 -21.9534" stroke="#00AEEF" stroke-miterlimit="10" stroke-dasharray="4 4"/>
<path d="M1087.04 329.888C814.669 172.626 477.648 -21.9534 477.648 -21.9534" stroke="#00AEEF" stroke-miterlimit="10" stroke-dasharray="4 4"/>
<path d="M1092.65 883.682C1092.65 883.682 542.579 566.103 -16.7383 243.196" stroke="#00AEEF" stroke-miterlimit="10" stroke-dasharray="4 4"/>
<path d="M1108.85 847.149C1108.85 847.149 516.9 505.402 -21.8672 194.327" stroke="#00AEEF" stroke-miterlimit="10" stroke-dasharray="4 4"/>
<path d="M1092.65 791.944C1092.65 791.944 479.304 437.804 2.10352 162.308" stroke="#00AEEF" stroke-miterlimit="10" stroke-dasharray="4 4"/>
<path d="M1092.65 746.047C1092.65 746.047 412.409 353.327 -15.1953 106.43" stroke="#00AEEF" stroke-miterlimit="10" stroke-dasharray="4 4"/>
<path d="M1102.09 705.617C1102.09 705.617 349.608 271.178 -16.7383 59.6636" stroke="#00AEEF" stroke-miterlimit="10" stroke-dasharray="4 4"/>
<path d="M1092.65 975.449C1092.65 975.449 606.923 695.019 -6.72852 340.71" stroke="#00AEEF" stroke-miterlimit="10" stroke-dasharray="4 4"/>
<path d="M1096.99 932.075C956.756 851.103 502.937 589.093 -6.72852 294.841" stroke="#00AEEF" stroke-miterlimit="10" stroke-dasharray="4 4"/>
<path d="M1102.09 659.748C1102.09 659.748 260.651 173.944 -11.9707 16.542" stroke="#00AEEF" stroke-miterlimit="10" stroke-dasharray="4 4"/>
<path d="M1111.96 298.402C851.201 147.841 557.104 -21.9534 557.104 -21.9534" stroke="#00AEEF" stroke-miterlimit="10" stroke-dasharray="4 4"/>
<path d="M-11.9707 994.822L1097.64 354.168" stroke="#00AEEF" stroke-miterlimit="10" stroke-dasharray="4 4"/>
<path d="M-27.25 957.757C-27.25 957.757 608.746 590.579 1102.01 305.776" stroke="#00AEEF" stroke-miterlimit="10" stroke-dasharray="4 4"/>
<path d="M-13.1484 903.729C-13.1484 903.729 628.147 533.495 1099.57 261.308" stroke="#00AEEF" stroke-miterlimit="10" stroke-dasharray="4 4"/>
<path d="M-37.2598 871.794C-37.2598 871.794 632.66 484.991 1091.1 220.318" stroke="#00AEEF" stroke-miterlimit="10" stroke-dasharray="4 4"/>
<path d="M-21.8672 817.009C-21.8672 817.009 662.239 422.047 1091.67 174.112" stroke="#00AEEF" stroke-miterlimit="10" stroke-dasharray="4 4"/>
<path d="M-16.7383 768.168C-16.7383 768.168 701.908 353.271 1097.64 124.766" stroke="#00AEEF" stroke-miterlimit="10" stroke-dasharray="4 4"/>
<path d="M-21.8672 725.243C-21.8672 725.243 744.861 282.561 1098.03 78.6729" stroke="#00AEEF" stroke-miterlimit="10" stroke-dasharray="4 4"/>
<path d="M-21.8672 679.374C-21.8672 679.374 826.025 189.841 1105.01 28.7664" stroke="#00AEEF" stroke-miterlimit="10" stroke-dasharray="4 4"/>
<path d="M-6.72852 624.757L1113.39 -21.9534" stroke="#00AEEF" stroke-miterlimit="10" stroke-dasharray="4 4"/>
<path d="M-21.8672 587.607L1033.91 -21.9534" stroke="#00AEEF" stroke-miterlimit="10" stroke-dasharray="4 4"/>
<path d="M-19.9062 540.589L954.456 -21.9534" stroke="#00AEEF" stroke-miterlimit="10" stroke-dasharray="4 4"/>
<path d="M-10.1484 489.084C225.017 353.299 874.975 -21.9534 874.975 -21.9534" stroke="#00AEEF" stroke-miterlimit="10" stroke-dasharray="4 4"/>
<path d="M4.37305 434.804C274.331 278.944 795.52 -21.9534 795.52 -21.9534" stroke="#00AEEF" stroke-miterlimit="10" stroke-dasharray="4 4"/>
<path d="M-6.72852 395.355C273.996 233.271 716.039 -21.9534 716.039 -21.9534" stroke="#00AEEF" stroke-miterlimit="10" stroke-dasharray="4 4"/>
<path d="M-12.0273 352.514C273.547 187.654 636.585 -21.9534 636.585 -21.9534" stroke="#00AEEF" stroke-miterlimit="10" stroke-dasharray="4 4"/>
<path d="M-14.9434 308.327C254.987 152.467 557.103 -21.9534 557.103 -21.9534" stroke="#00AEEF" stroke-miterlimit="10" stroke-dasharray="4 4"/>
<path d="M2.60742 252.308C240.044 115.234 477.649 -21.9534 477.649 -21.9534" stroke="#00AEEF" stroke-miterlimit="10" stroke-dasharray="4 4"/>
<path d="M-12.4199 215.103C201.719 91.4579 398.167 -21.9534 398.167 -21.9534" stroke="#00AEEF" stroke-miterlimit="10" stroke-dasharray="4 4"/>
<path d="M-16.625 171.645C166.17 66.1121 318.713 -21.9534 318.713 -21.9534" stroke="#00AEEF" stroke-miterlimit="10" stroke-dasharray="4 4"/>
<path d="M-13.1484 123.757C130.62 40.7663 239.231 -21.9534 239.231 -21.9534" stroke="#00AEEF" stroke-miterlimit="10" stroke-dasharray="4 4"/>
<path d="M-19.9062 81.785C86.238 20.4952 159.776 -21.9534 159.776 -21.9534" stroke="#00AEEF" stroke-miterlimit="10" stroke-dasharray="4 4"/>
<path d="M-21.8672 37.0373C40.9054 0.812989 80.2959 -21.9534 80.2959 -21.9534" stroke="#00AEEF" stroke-miterlimit="10" stroke-dasharray="4 4"/>
<path d="M40.5684 1035.73V-44.8879" stroke="#00AEEF" stroke-miterlimit="10" stroke-dasharray="4 4"/>
<path d="M80.3223 1035.73V-44.8879" stroke="#00AEEF" stroke-miterlimit="10" stroke-dasharray="4 4"/>
<path d="M0.841797 1035.73V-44.8879" stroke="#00AEEF" stroke-miterlimit="10" stroke-dasharray="4 4"/>
<path d="M120.051 1035.73V-44.8879" stroke="#00AEEF" stroke-miterlimit="10" stroke-dasharray="4 4"/>
<path d="M159.777 1035.73V-44.8879" stroke="#00AEEF" stroke-miterlimit="10" stroke-dasharray="4 4"/>
<path d="M199.531 1035.73V-44.8879" stroke="#00AEEF" stroke-miterlimit="10" stroke-dasharray="4 4"/>
<path d="M239.26 1035.73V-44.8879" stroke="#00AEEF" stroke-miterlimit="10" stroke-dasharray="4 4"/>
<path d="M278.986 1035.73V-44.8879" stroke="#00AEEF" stroke-miterlimit="10" stroke-dasharray="4 4"/>
<path d="M318.74 1035.73V-44.8879" stroke="#00AEEF" stroke-miterlimit="10" stroke-dasharray="4 4"/>
<path d="M358.469 1035.73V-44.8879" stroke="#00AEEF" stroke-miterlimit="10" stroke-dasharray="4 4"/>
<path d="M398.195 1035.73V-44.8879" stroke="#00AEEF" stroke-miterlimit="10" stroke-dasharray="4 4"/>
<path d="M437.949 1035.73V-44.8879" stroke="#00AEEF" stroke-miterlimit="10" stroke-dasharray="4 4"/>
<path d="M477.678 1035.73V-44.8879" stroke="#00AEEF" stroke-miterlimit="10" stroke-dasharray="4 4"/>
<path d="M517.404 1035.73V-44.8879" stroke="#00AEEF" stroke-miterlimit="10" stroke-dasharray="4 4"/>
<path d="M477.678 1035.73V-44.8879" stroke="#00AEEF" stroke-miterlimit="10" stroke-dasharray="4 4"/>
</g>
<path d="M477.678 345.084L437.951 368.047L398.196 345.084L358.469 368.047L318.742 345.084L279.015 368.047L239.26 345.084L199.533 368.047L159.778 345.084L120.051 368.047L80.3238 345.084L40.5688 368.047L0.841797 345.084V23.9158L40.5688 0.981201L80.3238 23.9158L120.051 0.981201L159.778 23.9158L199.533 0.981201L239.26 23.9158L279.015 0.981201L318.742 23.9158L358.469 0.981201L398.196 23.9158L437.951 0.981201L477.678 23.9158L517.433 0.981201L557.16 23.9158V345.084L517.433 368.047L477.678 345.084Z" stroke="white" stroke-miterlimit="10" stroke-dasharray="4 4"/>
<path d="M517.433 0.981201L477.678 23.9158L437.951 0.981201L398.196 23.9158L358.469 0.981201L318.742 23.9158L278.987 0.981201L239.26 23.9158L199.533 0.981201L159.778 23.9158L120.051 0.981201L80.3238 23.9158L40.5688 0.981201L0.841797 23.9158V345.084L40.5688 368.047L80.3238 345.084L120.051 368.047L159.778 345.084L199.533 368.047L239.26 345.084L278.987 368.047L318.742 345.084L358.469 368.047L398.196 345.084L437.951 368.047L477.678 345.084L517.433 368.047L557.16 345.084V23.9158L517.433 0.981201Z" stroke="#00AEEF" stroke-miterlimit="10" stroke-dasharray="4 4"/>
</g>
<defs>
<clipPath id="clip0_446_2473">
<rect width="558" height="369" fill="white"/>
</clipPath>
</defs>
</svg>
