<svg width="568" height="386" viewBox="0 0 568 386" fill="none" xmlns="http://www.w3.org/2000/svg">
<path d="M474.316 305.926C482.393 290.06 483.968 271.397 478.939 253.854" stroke="#00AEEF" stroke-width="2" stroke-miterlimit="10" stroke-dasharray="4 4"/>
<path d="M384.664 336.641C401.579 344.014 420.576 344.777 437.542 338.573" stroke="#00AEEF" stroke-width="2" stroke-miterlimit="10" stroke-dasharray="4 4"/>
<path d="M526.179 126.316C520.185 89.3469 502.508 58.6322 478.939 42.2578" stroke="#00AEEF" stroke-width="2" stroke-miterlimit="10" stroke-dasharray="4 4"/>
<path d="M478.939 253.853C502.559 239.666 520.287 213.07 526.23 181.033" stroke="#00AEEF" stroke-width="2" stroke-miterlimit="10" stroke-dasharray="4 4"/>
<path d="M248.279 368.728C306.287 368.83 355.508 357.287 383.699 338.014" stroke="#00AEEF" stroke-width="2" stroke-miterlimit="10" stroke-dasharray="4 4"/>
<path d="M1.97266 295.705C23.9162 320.47 67.1429 342.235 121.087 354.643" stroke="#00AEEF" stroke-width="2" stroke-miterlimit="10" stroke-dasharray="4 4"/>
<path d="M2.42969 295.247L384.663 336.64V126.062L2.42969 84.7188V295.247Z" fill="#EDDCD1"/>
<path d="M2.42969 84.7188V295.247L384.663 336.64V126.062L2.42969 84.7188Z" stroke="#231F20" stroke-width="2" stroke-linejoin="round"/>
<path d="M384.664 126.061V336.588L478.889 253.801V43.2734L384.664 126.061Z" fill="#E8CFC1"/>
<path d="M384.664 126.061V336.588L478.889 253.801V43.2734L384.664 126.061Z" stroke="#231F20" stroke-width="2" stroke-linejoin="round"/>
<path d="M2.42969 84.7189L384.663 126.062L478.889 43.2744L96.6548 1.93164L2.42969 84.7189Z" fill="#F5EBE5"/>
<path d="M96.6548 1.93164L2.42969 84.7189L384.663 126.062L478.889 43.2744L96.6548 1.93164Z" stroke="#231F20" stroke-width="2" stroke-linejoin="round"/>
<path d="M153.608 374L163.144 355.376V355.248H152.072V351.344H168.072V355.312L158.472 374H153.608ZM184.269 374.32C179.021 374.32 175.917 370.736 175.885 365.552C175.917 360.368 179.085 356.816 184.205 356.784C188.621 356.816 191.565 359.376 191.757 363.248H187.405C187.149 361.584 186.029 360.432 184.269 360.432C182.061 360.432 180.589 362.288 180.621 365.488C180.589 368.784 182.061 370.672 184.269 370.672C185.933 370.672 187.117 369.648 187.405 367.856H191.757C191.565 371.696 188.717 374.32 184.269 374.32ZM193.651 374V357.04H198.067V359.984H198.259C198.963 358.032 200.691 356.816 202.995 356.784C205.331 356.816 207.059 358.032 207.603 359.984H207.795C208.467 358.064 210.419 356.816 212.915 356.784C216.051 356.816 218.227 358.896 218.227 362.608V374H213.619V363.504C213.619 361.552 212.467 360.624 210.931 360.624C209.203 360.624 208.179 361.84 208.179 363.632V374H203.699V363.376C203.699 361.712 202.643 360.624 201.075 360.624C199.507 360.624 198.291 361.904 198.259 363.824V374H193.651Z" fill="#222222"/>
<path d="M448.73 336V332.608L456.794 325.12C458.938 323.104 460.058 321.856 460.058 320.064C460.058 318.048 458.554 316.8 456.474 316.8C454.362 316.8 452.954 318.144 452.954 320.32H448.474C448.474 315.904 451.77 313.056 456.538 313.088C461.37 313.056 464.602 315.808 464.602 319.744C464.602 322.336 463.354 324.448 458.65 328.64L455.258 331.968V332.16H464.922V336H448.73ZM481.316 336.32C476.068 336.32 472.964 332.736 472.932 327.552C472.964 322.368 476.132 318.816 481.252 318.784C485.668 318.816 488.612 321.376 488.804 325.248H484.452C484.196 323.584 483.076 322.432 481.316 322.432C479.108 322.432 477.636 324.288 477.668 327.488C477.636 330.784 479.108 332.672 481.316 332.672C482.98 332.672 484.164 331.648 484.452 329.856H488.804C488.612 333.696 485.764 336.32 481.316 336.32ZM490.698 336V319.04H495.114V321.984H495.306C496.01 320.032 497.738 318.816 500.042 318.784C502.378 318.816 504.106 320.032 504.65 321.984H504.842C505.514 320.064 507.466 318.816 509.962 318.784C513.098 318.816 515.274 320.896 515.274 324.608V336H510.666V325.504C510.666 323.552 509.514 322.624 507.978 322.624C506.25 322.624 505.226 323.84 505.226 325.632V336H500.746V325.376C500.746 323.712 499.69 322.624 498.122 322.624C496.554 322.624 495.338 323.904 495.306 325.824V336H490.698Z" fill="#222222"/>
<path d="M506.676 163.32C501.684 163.32 498.132 160.568 498.036 156.664H502.772C502.868 158.296 504.5 159.416 506.676 159.416C508.948 159.416 510.548 158.168 510.516 156.344C510.548 154.52 508.916 153.208 506.228 153.208H504.18V149.752H506.228C508.5 149.72 510.036 148.504 510.004 146.68C510.036 144.984 508.724 143.8 506.74 143.8C504.724 143.8 503.06 144.92 503.028 146.68H498.484C498.58 142.776 502.1 140.056 506.74 140.088C511.444 140.056 514.58 142.872 514.548 146.424C514.58 148.984 512.82 150.776 510.26 151.224V151.416C513.62 151.8 515.444 153.816 515.444 156.664C515.444 160.536 511.764 163.32 506.676 163.32ZM531.753 163.32C526.505 163.32 523.401 159.736 523.369 154.552C523.401 149.368 526.569 145.816 531.689 145.784C536.105 145.816 539.049 148.376 539.241 152.248H534.889C534.633 150.584 533.513 149.432 531.753 149.432C529.545 149.432 528.073 151.288 528.105 154.488C528.073 157.784 529.545 159.672 531.753 159.672C533.417 159.672 534.601 158.648 534.889 156.856H539.241C539.049 160.696 536.201 163.32 531.753 163.32ZM541.136 163V146.04H545.552V148.984H545.744C546.448 147.032 548.176 145.816 550.48 145.784C552.816 145.816 554.544 147.032 555.088 148.984H555.28C555.952 147.064 557.904 145.816 560.4 145.784C563.536 145.816 565.712 147.896 565.712 151.608V163H561.104V152.504C561.104 150.552 559.952 149.624 558.416 149.624C556.688 149.624 555.664 150.84 555.664 152.632V163H551.184V152.376C551.184 150.712 550.128 149.624 548.56 149.624C546.992 149.624 545.776 150.904 545.744 152.824V163H541.136Z" fill="#222222"/>
</svg>
