<svg width="625" height="137" viewBox="0 0 625 137" fill="none" xmlns="http://www.w3.org/2000/svg">
<path d="M333 134.711C394.653 134.197 468.191 131.711 511 128.711" stroke="#FCCEA2" stroke-width="2.94682" stroke-linecap="round" stroke-dasharray="8.52 11.46"/>
<path d="M545 125.711C600.139 118.191 616.851 100.269 621 80.7109" stroke="#FCCEA2" stroke-width="2.94682" stroke-linecap="round" stroke-dasharray="8.16 11.11"/>
<path d="M618 45.7109C609.245 28.0193 584.583 13.0223 519 7.71094" stroke="#FCCEA2" stroke-width="2.94682" stroke-linecap="round" stroke-dasharray="9.7 12.64"/>
<path d="M483 5.71094C441.199 3.91094 376.279 2.07094 326 1.71094" stroke="#FCCEA2" stroke-width="2.94682" stroke-linecap="round" stroke-dasharray="8.84 11.79"/>
<path d="M291 1.71094C234.833 2.17248 173.603 4.28786 134 6.71094" stroke="#FCCEA2" stroke-width="2.94682" stroke-linecap="round" stroke-dasharray="8.87 11.82"/>
<path d="M98 9.71094C35.2718 17.2594 11.7487 34.4683 5 53.7109" stroke="#FCCEA2" stroke-width="2.94682" stroke-linecap="round" stroke-dasharray="9.46 12.41"/>
<path d="M8 88.7109C16.4017 103.717 35.4507 117.465 72 123.711" stroke="#FCCEA2" stroke-width="2.94682" stroke-linecap="round" stroke-dasharray="9.05 11.99"/>
<path d="M109 127.711C155.198 131.734 223.054 134.389 298 134.711" stroke="#FCCEA2" stroke-width="2.94682" stroke-linecap="round" stroke-dasharray="9.19 12.14"/>
<path d="M306.391 134.711H318.139M80.2026 125.133C82.1606 125.393 84.1578 125.628 86.1941 125.836L92.2639 126.462M2.43076 62.1122C2.15091 64.1856 2.00702 66.2751 2 68.3673C2.00843 70.3686 2.15235 72.3669 2.43076 74.3488M126.255 7.37966L120.381 7.77061L114.115 8.27884M318.374 1.71094H306.626M510.924 6.98872L504.502 6.59777L498.628 6.28502M622.804 73.5669C622.804 71.7686 623 69.9702 623 68.1718C623 66.3735 623 63.8714 622.726 61.7603M519.304 128.573L524.943 128.143L530.347 127.674" stroke="#FCCEA2" stroke-width="2.94682" stroke-linecap="round"/>
</svg>
