<svg width="366" height="184" viewBox="0 0 366 184" fill="none" xmlns="http://www.w3.org/2000/svg">
<mask id="mask0_59_107" style="mask-type:alpha" maskUnits="userSpaceOnUse" x="3" y="1" width="363" height="182">
<path d="M364.5 182H4.5L184.5 2H273.264L364.5 182Z" fill="#FBDFE3" stroke="#222222" stroke-width="2" stroke-linejoin="round"/>
</mask>
<g mask="url(#mask0_59_107)">
<path d="M364.5 182H4.5L184.5 2H273.264L364.5 182Z" fill="#FBDFE3" stroke="#222222" stroke-width="2" stroke-linejoin="round"/>
<path d="M4 227V-43" stroke="#00A0E9" stroke-miterlimit="10" stroke-dasharray="3 2"/>
<path d="M49 227V-43" stroke="#00A0E9" stroke-miterlimit="10" stroke-dasharray="3 2"/>
<path d="M94 227V-43" stroke="#00A0E9" stroke-miterlimit="10" stroke-dasharray="3 2"/>
<path d="M139 227V-43" stroke="#00A0E9" stroke-miterlimit="10" stroke-dasharray="3 2"/>
<path d="M184 227V-43" stroke="#00A0E9" stroke-miterlimit="10" stroke-dasharray="3 2"/>
<path d="M229 227V-43" stroke="#00A0E9" stroke-miterlimit="10" stroke-dasharray="3 2"/>
<path d="M274 227V-43" stroke="#00A0E9" stroke-miterlimit="10" stroke-dasharray="3 2"/>
<path d="M319 227V-43" stroke="#00A0E9" stroke-miterlimit="10" stroke-dasharray="3 2"/>
<path d="M364 227V-43" stroke="#00A0E9" stroke-miterlimit="10" stroke-dasharray="3 2"/>
<path d="M454 2L-86 2" stroke="#00A0E9" stroke-miterlimit="10" stroke-dasharray="3 2"/>
<path d="M454 47L-86 47" stroke="#00A0E9" stroke-miterlimit="10" stroke-dasharray="3 2"/>
<path d="M454 92L-86 92" stroke="#00A0E9" stroke-miterlimit="10" stroke-dasharray="3 2"/>
<path d="M454 137L-86 137" stroke="#00A0E9" stroke-miterlimit="10" stroke-dasharray="3 2"/>
<path d="M454 182L-86 182" stroke="#00A0E9" stroke-miterlimit="10" stroke-dasharray="3 2"/>
</g>
<path d="M364.5 182H4.5L184.5 2H273.264L364.5 182Z" stroke="#222222" stroke-width="2" stroke-linejoin="round"/>
</svg>
