<svg width="357" height="178" viewBox="0 0 357 178" fill="none" xmlns="http://www.w3.org/2000/svg">
<mask id="mask0_24_402" style="mask-type:alpha" maskUnits="userSpaceOnUse" x="0" y="0" width="357" height="178">
<path d="M265.913 1L355.121 177H3.16324L179.163 1H265.913Z" fill="#FBDFE3" stroke="#222222" stroke-width="2"/>
</mask>
<g mask="url(#mask0_24_402)">
<path d="M265.913 1L355.121 177H3.16324L179.163 1H265.913Z" fill="#FBDFE3" stroke="#222222" stroke-width="2"/>
<rect x="-89.5" y="-44.5" width="536.498" height="266.502" stroke="#00A0E9" stroke-dasharray="3 2"/>
<path d="M44.1719 218.479V-42.3008" stroke="#00A0E9" stroke-miterlimit="10" stroke-dasharray="3 2"/>
<path d="M88.748 218.479V-42.3008" stroke="#00A0E9" stroke-miterlimit="10" stroke-dasharray="3 2"/>
<path d="M133.326 218.479V-42.3008" stroke="#00A0E9" stroke-miterlimit="10" stroke-dasharray="3 2"/>
<path d="M177.903 218.479V-42.3008" stroke="#00A0E9" stroke-miterlimit="10" stroke-dasharray="3 2"/>
<path d="M222.498 218.479V-42.3008" stroke="#00A0E9" stroke-miterlimit="10" stroke-dasharray="3 2"/>
<path d="M267.903 218.479V-42.3008" stroke="#00A0E9" stroke-miterlimit="10" stroke-dasharray="3 2"/>
<path d="M312.498 218.479V-42.3008" stroke="#00A0E9" stroke-miterlimit="10" stroke-dasharray="3 2"/>
<path d="M267.073 133.326H265.725" stroke="#00A0E9" stroke-width="0.3" stroke-miterlimit="10"/>
<path d="M447.473 132.738H-89.5273" stroke="#00A0E9" stroke-miterlimit="10" stroke-dasharray="3 2"/>
<path d="M267.073 177.898H265.725" stroke="#00A0E9" stroke-width="0.3" stroke-miterlimit="10"/>
<path d="M447.473 177.738H-89.5273" stroke="#00A0E9" stroke-miterlimit="10" stroke-dasharray="3 2"/>
<path d="M267.075 88.748H265.727" stroke="#00A0E9" stroke-width="0.3" stroke-miterlimit="10"/>
<path d="M447.473 88.7383H-89.5273" stroke="#00A0E9" stroke-miterlimit="10" stroke-dasharray="3 2"/>
<path d="M267.073 44.166H265.725" stroke="#00A0E9" stroke-width="0.3" stroke-miterlimit="10"/>
<path d="M447.473 43.7383H-89.5273" stroke="#00A0E9" stroke-miterlimit="10" stroke-dasharray="3 2"/>
<path d="M447.473 -0.261719H-89.5273" stroke="#00A0E9" stroke-miterlimit="10" stroke-dasharray="3 2"/>
<path d="M93.749 89H309.749" stroke="#222222" stroke-width="2" stroke-linecap="round" stroke-dasharray="6 4"/>
<path d="M265.913 1L355.121 177H3.16324L179.163 1H265.913Z" stroke="#222222" stroke-width="2"/>
</g>
</svg>
