<svg width="213" height="77" viewBox="0 0 213 77" fill="none" xmlns="http://www.w3.org/2000/svg">
<path d="M7.87695 40.3796C10.0129 39.0874 12.0497 37.6381 13.9704 36.0438C19.6908 31.5205 25.7249 27.4081 32.0274 23.7378C33.8458 22.6538 37.5785 20.5497 40.4178 19.0831L48.7445 14.8749C50.9312 14.5685 53.0734 14.0012 55.125 13.1852L55.6036 12.8345C54.6096 13.548 53.7093 14.3834 52.9237 15.3212C49.7335 19.2107 46.2241 22.9407 42.8743 26.7346C37.2375 32.6663 32.1146 39.0655 27.561 45.8632C25.8063 48.7006 24.6259 51.7293 23.0308 54.6304C20.1276 56.7983 20.3829 58.5837 23.5731 58.5837C26.6456 57.887 29.5719 56.6569 32.2188 54.9492C37.1747 52.0662 41.8714 48.7594 46.256 45.0661C54.5534 37.1589 62.4232 28.8155 69.8322 20.0714C71.7892 17.4745 74.049 15.1199 76.5637 13.0576C78.0459 11.925 79.6643 10.9825 81.3811 10.2521C81.9553 10.029 82.4976 10.2521 82.5934 10.5072C83.6781 10.7941 83.5504 12.1331 82.37 13.4721C81.8895 13.8693 81.3891 14.2417 80.8706 14.5879C78.5993 15.7649 76.7244 17.5831 75.479 19.8164C69.2919 27.4405 63.884 35.6642 59.3362 44.3648C56.7612 48.3765 54.6222 52.6515 52.9556 57.1171C52.7867 57.9467 52.6907 58.7895 52.6685 59.6357C52.8513 59.4714 53.0551 59.332 53.2747 59.2213C54.7602 58.5045 56.0268 57.4038 56.9435 56.0332C65.0149 47.9036 72.3525 39.2 80.6473 31.2298C87.3559 24.486 94.4163 18.1009 101.799 12.1012C102.968 10.4815 104.604 9.25784 106.489 8.5943C107.095 8.47679 107.664 8.21427 108.148 7.82916C108.238 7.70974 108.352 7.60975 108.482 7.53519C108.612 7.46062 108.756 7.41301 108.904 7.39516C109.053 7.37731 109.204 7.38958 109.348 7.43128C109.492 7.47298 109.626 7.54326 109.743 7.63788C109.934 7.89293 109.743 8.14796 109.456 8.2436C108.669 8.49647 107.918 8.85011 107.222 9.29568C106.829 9.72018 106.573 10.2536 106.489 10.826C106.003 12.7718 105.1 14.5887 103.841 16.1501C100.204 21.9524 92.3237 33.5571 86.2303 42.0693C82.599 46.3883 79.7098 51.2794 77.6803 56.5433C77.138 58.3286 77.3932 59.7314 78.2227 59.2851C80.1663 58.4235 81.7387 56.8975 82.6572 54.9811C83.4201 53.5098 84.3631 52.1391 85.4646 50.9004C89.0604 46.8699 93.0583 43.2165 97.3963 39.9971C108.179 30.4328 118.388 19.8802 124.896 16.6283C128.502 14.843 131.277 13.4402 131.054 13.4402C130.83 13.4402 130.097 13.8547 129.714 14.6836C127.282 18.6061 125.201 22.7347 123.493 27.0215C120.022 34.0509 115.956 40.7705 111.338 47.1065C109.037 49.1937 107.471 51.9662 106.871 55.013C106.845 55.5963 106.936 56.1789 107.139 56.7265C107.341 57.2741 107.652 57.7755 108.052 58.2011C109.392 59.4444 112.04 58.4561 113.38 56.1926C114.672 54.3292 116.218 52.6552 117.974 51.2192C120.462 49.115 127.927 43.1852 134.691 37.9248C141.071 33.1427 147.069 28.0098 149.972 25.1724C151.504 23.7012 153.245 22.4656 155.14 21.5061C157.405 20.5497 158.65 18.8919 157.565 18.318C156.991 17.9354 155.81 18.6368 154.949 19.8483C153.928 21.6336 151.057 26.9896 148.568 31.8355C147.867 33.1427 146.463 35.7888 145.378 37.7973C144.293 39.8058 135.169 47.3616 135.169 48.2224C135.169 49.0831 136.19 48.2224 137.402 47.3297C139.636 45.4487 151.663 34.8324 156.066 30.9748C161.466 26.0668 167.132 21.4584 173.038 17.1703C174.601 16.3095 175.909 16.6602 175.941 17.9673C173.55 23.0833 170.898 28.0739 167.997 32.9195C165.285 36.1076 150.929 50.9003 150.929 52.9726C150.929 54.0884 152.173 54.5986 153.673 54.0566C162.432 48.3589 170.616 41.8245 178.11 34.5454C180.653 32.5253 183.012 30.285 185.161 27.8504C185.863 27.0215 186.533 26.7665 186.724 27.2766C186.916 27.7866 186.309 29.9227 184.3 31.5805C181.524 34.9917 172.368 45.3531 173.07 47.2659C173.342 47.8507 173.762 48.3549 174.287 48.7292C174.813 49.1036 175.427 49.3354 176.069 49.402C182.706 46.5014 188.852 42.5863 194.285 37.7973C196.869 35.9163 201.878 31.708 205.451 28.233" stroke="#E7F3F0" stroke-width="14.7928" stroke-linecap="round"/>
</svg>
