<svg width="1375" height="328" viewBox="0 0 1375 328" fill="none" xmlns="http://www.w3.org/2000/svg">
<path d="M711.711 324.857C880.492 325.086 1069.81 328.556 1173.1 324.104" stroke="#D1EAF9" stroke-width="3.27313" stroke-linecap="round" stroke-dasharray="10.08 13.35"/>
<path d="M1202.36 322.336C1364.8 308.393 1372.94 227.776 1373.27 167.157" stroke="#D1EAF9" stroke-width="3.27313" stroke-linecap="round" stroke-dasharray="9.59 12.86"/>
<path d="M1372.38 138.519C1366.37 88.3746 1331.09 43.14 1210.53 21.9302" stroke="#D1EAF9" stroke-width="3.27313" stroke-linecap="round" stroke-dasharray="9.43 12.7"/>
<path d="M1182.05 17.5764C1078.76 3.96015 906.155 1.73442 715.369 1.63623" stroke="#D1EAF9" stroke-width="3.27313" stroke-linecap="round" stroke-dasharray="9.66 12.93"/>
<path d="M686.4 1.63623C480.639 1.89808 284.262 6.54592 175.283 11.1938" stroke="#D1EAF9" stroke-width="3.27313" stroke-linecap="round" stroke-dasharray="9.62 12.9"/>
<path d="M146.052 13.0923C34.6544 25.6611 5.4888 103.103 1.99023 156.913" stroke="#D1EAF9" stroke-width="3.27313" stroke-linecap="round" stroke-dasharray="9.88 13.16"/>
<path d="M2.41797 185.847C7.97643 245.058 45.2835 314.579 194.479 320.209" stroke="#D1EAF9" stroke-width="3.27313" stroke-linecap="round" stroke-dasharray="9.46 12.73"/>
<path d="M223.773 320.766C333.112 322.468 514.775 324.693 681.725 324.792" stroke="#D1EAF9" stroke-width="3.27313" stroke-linecap="round" stroke-dasharray="9.98 13.26"/>
<path d="M688.363 324.825H698.401M200.821 320.439H205.529H210.532M1.69727 163.46C1.69727 165.162 1.69727 166.733 1.69727 168.402C1.69727 170.071 1.69727 171.675 1.69727 173.148M168.843 11.4883L164.07 11.7175L159.133 11.9793M708.93 1.63623H699.284M1204.29 20.8495L1199.61 20.0967L1194.84 19.3766M1373.26 160.71V155.931C1373.26 154.36 1373.26 152.658 1373.26 151.218M1179.76 323.81L1184.77 323.548L1189.57 323.286" stroke="#D1EAF9" stroke-width="3.27313" stroke-linecap="round"/>
<path d="M1252.58 58.1948C1252.58 58.1948 1324.51 69.7817 1340.63 145.162" stroke="#D1EAF9" stroke-width="9.81938" stroke-linecap="round"/>
</svg>
