<svg width="491" height="468" viewBox="0 0 491 468" fill="none" xmlns="http://www.w3.org/2000/svg">
<mask id="mask0_454_1060" style="mask-type:alpha" maskUnits="userSpaceOnUse" x="0" y="0" width="491" height="468">
<path d="M490.5 0H0.5V468H490.5V0Z" fill="black"/>
</mask>
<g mask="url(#mask0_454_1060)">
<path d="M342.488 35.418C344.697 35.418 346.488 33.6271 346.488 31.418C346.488 29.2088 344.697 27.418 342.488 27.418V35.418ZM73.6406 31.418V35.418H342.488V31.418V27.418H73.6406V31.418Z" fill="#B1B3B6"/>
<path d="M331.102 17.5547L344.928 31.4133L330.646 45.2394" stroke="#B1B3B6" stroke-width="8" stroke-linecap="square" stroke-linejoin="round"/>
<path d="M209.53 56.0907C223.096 56.0907 234.059 45.0949 234.059 31.5616C234.059 18.0283 223.064 7 209.53 7C195.997 7 184.969 17.9958 184.969 31.5616C184.969 45.1274 195.964 56.0907 209.53 56.0907Z" fill="white" stroke="#A7A9AC" stroke-width="4" stroke-linecap="round" stroke-linejoin="round"/>
<path d="M225.634 31.271H192.842V29.4492H225.634V31.271ZM209.303 22.5199C208.652 22.5199 208.132 22.3897 207.709 22.097C207.286 21.8367 206.961 21.4789 206.733 21.056C206.505 20.633 206.375 20.1776 206.375 19.6571C206.375 19.1365 206.473 18.6811 206.668 18.2582C206.863 17.8353 207.188 17.4774 207.611 17.1846C208.034 16.8919 208.555 16.7617 209.205 16.7617C210.149 16.7617 210.865 17.0545 211.385 17.6401C211.873 18.2257 212.133 18.8763 212.133 19.592C212.133 20.3077 211.905 20.9584 211.417 21.5765C210.962 22.1946 210.246 22.4874 209.303 22.4874V22.5199ZM209.303 43.9259C208.652 43.9259 208.132 43.7958 207.709 43.503C207.286 43.2427 206.961 42.8849 206.733 42.462C206.505 42.0391 206.375 41.5836 206.375 41.0631C206.375 40.5426 206.473 40.0871 206.668 39.6642C206.863 39.2413 207.188 38.8834 207.611 38.5907C208.034 38.2979 208.555 38.1677 209.205 38.1677C210.149 38.1677 210.865 38.4605 211.385 39.0461C211.873 39.6317 212.133 40.2823 212.133 40.998C212.133 41.7137 211.905 42.3643 211.417 42.9824C210.962 43.6005 210.246 43.8934 209.303 43.8934V43.9259Z" fill="#231F20"/>
<path d="M33.793 72.2461V331.721" stroke="#B1B3B6" stroke-width="8" stroke-linecap="square" stroke-linejoin="round"/>
<path d="M47.6209 320.291L33.7948 334.15L19.9688 319.836" stroke="#B1B3B6" stroke-width="8" stroke-linecap="square" stroke-linejoin="round"/>
<path d="M9.10352 201.986C9.10352 215.552 20.0993 226.548 33.6326 226.548C47.1658 226.548 58.1942 215.552 58.1942 201.986C58.1942 188.42 47.1984 177.457 33.6326 177.457C20.0668 177.457 9.10352 188.453 9.10352 201.986Z" fill="white" stroke="#A7A9AC" stroke-width="4" stroke-linecap="round" stroke-linejoin="round"/>
<path d="M49.7687 201.685H16.9766V199.863H49.7687V201.685ZM33.4377 192.934C32.7871 192.934 32.2666 192.804 31.8437 192.511C31.4208 192.251 31.0954 191.893 30.8677 191.47C30.64 191.047 30.5099 190.592 30.5099 190.071C30.5099 189.551 30.6074 189.095 30.8026 188.672C30.9978 188.249 31.3231 187.891 31.746 187.599C32.1689 187.306 32.6895 187.176 33.3401 187.176C34.2835 187.176 34.9992 187.469 35.5197 188.054C36.0077 188.64 36.268 189.29 36.268 190.006C36.268 190.722 36.0403 191.372 35.5523 191.991C35.0969 192.609 34.3811 192.901 33.4377 192.901V192.934ZM33.4377 214.34C32.7871 214.34 32.2666 214.21 31.8437 213.917C31.4208 213.657 31.0954 213.299 30.8677 212.876C30.64 212.453 30.5099 211.998 30.5099 211.477C30.5099 210.957 30.6074 210.501 30.8026 210.078C30.9978 209.655 31.3231 209.298 31.746 209.005C32.1689 208.712 32.6895 208.582 33.3401 208.582C34.2835 208.582 34.9992 208.875 35.5197 209.46C36.0077 210.046 36.268 210.696 36.268 211.412C36.268 212.128 36.0403 212.778 35.5523 213.397C35.0969 214.015 34.3811 214.307 33.4377 214.307V214.34Z" fill="#231F20"/>
<path d="M359.05 66.0195H463.705C472.098 66.0195 478.897 72.8187 478.897 81.2119V182.191C478.897 190.584 472.098 197.383 463.705 197.383H359.05C350.657 197.383 343.857 190.584 343.857 182.191V81.2119C343.857 72.8187 350.657 66.0195 359.05 66.0195Z" fill="white" stroke="#C2E4F5" stroke-width="4"/>
<path d="M88.8369 328.676H193.492C201.885 328.676 208.685 335.475 208.685 343.868V445.303C208.685 453.696 201.885 460.495 193.492 460.495H88.8369C80.4437 460.495 73.6445 453.696 73.6445 445.303V343.868C73.6445 335.475 80.4437 328.676 88.8369 328.676Z" fill="white" stroke="#C2E4F5" stroke-width="4"/>
<path d="M88.8369 66.0195H193.492C201.885 66.0195 208.685 72.8187 208.685 81.2119V182.646C208.685 191.04 201.885 197.839 193.492 197.839H88.8369C80.4437 197.839 73.6445 191.04 73.6445 182.646V81.2119C73.6445 72.8187 80.4437 66.0195 88.8369 66.0195Z" fill="#DEF0F9"/>
<path d="M88.8369 66.0195H193.492C201.885 66.0195 208.685 72.8187 208.685 81.2119V182.646C208.685 191.04 201.885 197.839 193.492 197.839H88.8369C80.4437 197.839 73.6445 191.04 73.6445 182.646V81.2119C73.6445 72.8187 80.4437 66.0195 88.8369 66.0195Z" stroke="#C2E4F5" stroke-width="4"/>
<path d="M193.492 197.734H88.8369C80.4464 197.734 73.6445 204.536 73.6445 212.927V314.361C73.6445 322.752 80.4464 329.554 88.8369 329.554H193.492C201.883 329.554 208.685 322.752 208.685 314.361V212.927C208.685 204.536 201.883 197.734 193.492 197.734Z" fill="#DEF0F9" stroke="#C2E4F5" stroke-width="4"/>
<path d="M223.942 66.0195H328.598C336.991 66.0195 343.79 72.8187 343.79 81.2119V182.646C343.79 191.04 336.991 197.839 328.598 197.839H223.942C215.549 197.839 208.75 191.04 208.75 182.646V81.2119C208.75 72.8187 215.549 66.0195 223.942 66.0195Z" fill="#DEF0F9" stroke="#C2E4F5" stroke-width="4"/>
</g>
</svg>
