<svg width="463" height="480" viewBox="0 0 463 480" fill="none" xmlns="http://www.w3.org/2000/svg">
<path d="M33.6631 16.2852H429.335C446.632 16.2854 460.653 30.3079 460.653 47.6045V446.721C460.653 464.017 446.632 478.039 429.335 478.039H33.6631C16.3663 478.039 2.34375 464.018 2.34375 446.721V47.6045C2.34375 30.5779 15.9312 16.7246 32.8545 16.2959L33.6631 16.2852Z" fill="white" stroke="#D1D3D4" stroke-width="3.91483"/>
<mask id="path-2-inside-1_456_994" fill="white">
<path d="M26.8105 13.2001C26.8105 13.2001 34.2487 -1.71538 51.9829 0.163733C51.9829 0.163733 80.4045 5.09642 54.8015 43.9707"/>
</mask>
<path d="M51.9829 0.163733L52.7058 -4.00201L52.5678 -4.02598L52.4284 -4.04074L51.9829 0.163733ZM26.8105 13.2001C30.5942 15.087 30.5933 15.0888 30.5924 15.0905C30.5922 15.091 30.5913 15.0927 30.5908 15.0937C30.5898 15.0957 30.5889 15.0976 30.5881 15.0991C30.5865 15.1023 30.5853 15.1046 30.5846 15.1061C30.5831 15.109 30.5833 15.1086 30.5853 15.1048C30.5892 15.0972 30.6 15.0766 30.6177 15.0437C30.6533 14.9779 30.7165 14.8637 30.808 14.7084C30.9912 14.3972 31.2853 13.9254 31.6944 13.3507C32.5171 12.1949 33.7765 10.6629 35.4979 9.1874C38.8855 6.28381 44.0598 3.57588 51.5374 4.36821L51.9829 0.163733L52.4284 -4.04074C42.1718 -5.12754 34.7599 -1.31727 29.9948 2.76711C27.64 4.78556 25.9314 6.86505 24.8053 8.44714C24.2399 9.24144 23.8144 9.92018 23.5216 10.4174C23.375 10.6663 23.2611 10.8707 23.1791 11.0224C23.138 11.0984 23.1049 11.1612 23.0796 11.21C23.0669 11.2344 23.0562 11.2553 23.0475 11.2725C23.0431 11.2811 23.0392 11.2889 23.0357 11.2957C23.034 11.2991 23.0324 11.3022 23.031 11.3052C23.0302 11.3066 23.0292 11.3087 23.0288 11.3094C23.0279 11.3114 23.0269 11.3133 26.8105 13.2001ZM51.9829 0.163733C51.2599 4.32948 51.257 4.32897 51.2542 4.32848C51.2534 4.32834 51.2507 4.32787 51.2491 4.32758C51.2459 4.32702 51.2431 4.32653 51.2407 4.3261C51.236 4.32525 51.2328 4.32467 51.2313 4.32438C51.2281 4.32379 51.2313 4.32436 51.2404 4.32617C51.2587 4.3298 51.3007 4.33838 51.364 4.35269C51.4911 4.38139 51.7016 4.43262 51.9768 4.51242C52.5314 4.67318 53.3251 4.94307 54.2176 5.36472C56.0296 6.22079 58.0441 7.60285 59.4337 9.77092C61.9569 13.7074 63.7712 22.6647 51.2706 41.6451L54.8015 43.9707L58.3325 46.2962C71.4348 26.4024 71.8399 13.4562 66.5529 5.2078C64.0375 1.28342 60.5468 -0.997335 57.8298 -2.28097C56.4578 -2.92916 55.2311 -3.34835 54.3314 -3.6092C53.8795 -3.7402 53.5044 -3.83291 53.2276 -3.89545C53.089 -3.92676 52.9745 -3.95062 52.8868 -3.96803C52.8429 -3.97674 52.8057 -3.98384 52.7755 -3.98946C52.7603 -3.99227 52.7469 -3.99471 52.7353 -3.9968C52.7295 -3.99784 52.7242 -3.9988 52.7192 -3.99966C52.7168 -4.0001 52.7134 -4.00069 52.7122 -4.0009C52.709 -4.00147 52.7058 -4.00201 51.9829 0.163733Z" fill="#D1D3D4" mask="url(#path-2-inside-1_456_994)"/>
<path d="M54.0984 49.9994C58.209 49.9994 61.5366 46.6718 61.5366 42.5613C61.5366 38.4507 58.209 35.123 54.0984 35.123C49.9879 35.123 46.6211 38.4507 46.6211 42.5613C46.6211 46.6718 49.9487 49.9994 54.0984 49.9994Z" fill="#D1D3D4"/>
<mask id="path-5-inside-2_456_994" fill="white">
<path d="M79.7031 13.2001C79.7031 13.2001 87.1413 -1.71538 104.876 0.163733C104.876 0.163733 133.297 5.09642 107.694 43.9707"/>
</mask>
<path d="M104.876 0.163733L105.598 -4.00201L105.46 -4.02598L105.321 -4.04074L104.876 0.163733ZM79.7031 13.2001C83.4868 15.087 83.4859 15.0888 83.485 15.0905C83.4847 15.091 83.4839 15.0927 83.4834 15.0937C83.4824 15.0958 83.4815 15.0976 83.4807 15.0992C83.4791 15.1023 83.4779 15.1047 83.4771 15.1061C83.4756 15.1091 83.4759 15.1086 83.4778 15.1048C83.4817 15.0973 83.4926 15.0766 83.5103 15.0437C83.5459 14.9779 83.6091 14.8637 83.7006 14.7084C83.8838 14.3973 84.1779 13.9254 84.587 13.3507C85.4097 12.1949 86.6691 10.663 88.3906 9.18741C91.7781 6.28381 96.9524 3.57588 104.43 4.36821L104.876 0.163733L105.321 -4.04074C95.0644 -5.12754 87.6526 -1.31727 82.8874 2.76711C80.5326 4.78555 78.824 6.86504 77.6979 8.44713C77.1325 9.24143 76.707 9.92017 76.4142 10.4174C76.2676 10.6663 76.1537 10.8707 76.0717 11.0224C76.0306 11.0983 75.9975 11.1612 75.9722 11.21C75.9595 11.2344 75.9488 11.2552 75.94 11.2725C75.9356 11.2811 75.9317 11.2889 75.9283 11.2956C75.9266 11.299 75.925 11.3022 75.9235 11.3052C75.9228 11.3066 75.9218 11.3086 75.9214 11.3094C75.9204 11.3113 75.9195 11.3133 79.7031 13.2001ZM104.876 0.163733C104.153 4.32948 104.15 4.32897 104.147 4.32848C104.146 4.32834 104.143 4.32787 104.142 4.32758C104.139 4.32702 104.136 4.32653 104.133 4.3261C104.129 4.32525 104.125 4.32467 104.124 4.32438C104.121 4.32379 104.124 4.32436 104.133 4.32617C104.151 4.3298 104.193 4.33838 104.257 4.35269C104.384 4.38139 104.594 4.43262 104.869 4.51242C105.424 4.67318 106.218 4.94307 107.11 5.36472C108.922 6.22079 110.937 7.60285 112.326 9.77092C114.85 13.7074 116.664 22.6647 104.163 41.6451L107.694 43.9707L111.225 46.2962C124.327 26.4024 124.732 13.4562 119.446 5.2078C116.93 1.28342 113.439 -0.997335 110.722 -2.28097C109.35 -2.92916 108.124 -3.34835 107.224 -3.6092C106.772 -3.7402 106.397 -3.83291 106.12 -3.89545C105.982 -3.92676 105.867 -3.95062 105.779 -3.96803C105.736 -3.97674 105.698 -3.98384 105.668 -3.98946C105.653 -3.99227 105.64 -3.99471 105.628 -3.9968C105.622 -3.99784 105.617 -3.9988 105.612 -3.99966C105.609 -4.0001 105.606 -4.00069 105.605 -4.0009C105.602 -4.00147 105.598 -4.00201 104.876 0.163733Z" fill="#D1D3D4" mask="url(#path-5-inside-2_456_994)"/>
<path d="M107.024 49.9994C111.135 49.9994 114.462 46.6718 114.462 42.5613C114.462 38.4507 111.135 35.123 107.024 35.123C102.914 35.123 99.5469 38.4507 99.5469 42.5613C99.5469 46.6718 102.874 49.9994 107.024 49.9994Z" fill="#D1D3D4"/>
<mask id="path-8-inside-3_456_994" fill="white">
<path d="M132.629 13.2001C132.629 13.2001 140.067 -1.71538 157.801 0.163733C157.801 0.163733 186.223 5.09642 160.62 43.9707"/>
</mask>
<path d="M157.801 0.163733L158.524 -4.00201L158.386 -4.02598L158.247 -4.04074L157.801 0.163733ZM132.629 13.2001C136.413 15.087 136.412 15.0888 136.411 15.0905C136.411 15.091 136.41 15.0927 136.409 15.0937C136.408 15.0957 136.407 15.0976 136.406 15.0991C136.405 15.1023 136.404 15.1046 136.403 15.1061C136.401 15.109 136.402 15.1086 136.404 15.1048C136.408 15.0972 136.418 15.0766 136.436 15.0437C136.472 14.9779 136.535 14.8637 136.626 14.7084C136.81 14.3972 137.104 13.9254 137.513 13.3507C138.335 12.1949 139.595 10.6629 141.316 9.1874C144.704 6.28381 149.878 3.57588 157.356 4.36821L157.801 0.163733L158.247 -4.04074C147.99 -5.12754 140.578 -1.31727 135.813 2.76711C133.458 4.78556 131.75 6.86505 130.624 8.44714C130.058 9.24144 129.633 9.92018 129.34 10.4174C129.193 10.6663 129.079 10.8707 128.997 11.0224C128.956 11.0984 128.923 11.1612 128.898 11.21C128.885 11.2344 128.875 11.2553 128.866 11.2725C128.861 11.2811 128.858 11.2889 128.854 11.2957C128.852 11.2991 128.851 11.3022 128.849 11.3052C128.849 11.3066 128.848 11.3087 128.847 11.3094C128.846 11.3114 128.845 11.3133 132.629 13.2001ZM157.801 0.163733C157.078 4.32948 157.075 4.32897 157.073 4.32848C157.072 4.32834 157.069 4.32787 157.067 4.32758C157.064 4.32702 157.061 4.32653 157.059 4.3261C157.054 4.32525 157.051 4.32467 157.05 4.32438C157.047 4.32379 157.05 4.32436 157.059 4.32617C157.077 4.3298 157.119 4.33838 157.182 4.35269C157.309 4.38139 157.52 4.43262 157.795 4.51242C158.35 4.67318 159.143 4.94307 160.036 5.36472C161.848 6.22079 163.862 7.60285 165.252 9.77092C167.775 13.7074 169.59 22.6647 157.089 41.6451L160.62 43.9707L164.151 46.2962C177.253 26.4024 177.658 13.4562 172.371 5.2078C169.856 1.28342 166.365 -0.997335 163.648 -2.28097C162.276 -2.92916 161.049 -3.34835 160.15 -3.6092C159.698 -3.7402 159.323 -3.83291 159.046 -3.89545C158.907 -3.92676 158.793 -3.95062 158.705 -3.96803C158.661 -3.97674 158.624 -3.98384 158.594 -3.98946C158.579 -3.99227 158.565 -3.99471 158.554 -3.9968C158.548 -3.99784 158.543 -3.9988 158.538 -3.99966C158.535 -4.0001 158.532 -4.00069 158.531 -4.0009C158.527 -4.00147 158.524 -4.00201 157.801 0.163733Z" fill="#D1D3D4" mask="url(#path-8-inside-3_456_994)"/>
<path d="M159.956 49.9994C164.066 49.9994 167.394 46.6718 167.394 42.5613C167.394 38.4507 164.066 35.123 159.956 35.123C155.845 35.123 152.479 38.4507 152.479 42.5613C152.479 46.6718 155.806 49.9994 159.956 49.9994Z" fill="#D1D3D4"/>
<mask id="path-11-inside-4_456_994" fill="white">
<path d="M185.557 13.2001C185.557 13.2001 192.995 -1.71538 210.729 0.163733C210.729 0.163733 239.151 5.09642 213.548 43.9707"/>
</mask>
<path d="M210.729 0.163733L211.452 -4.00201L211.314 -4.02598L211.175 -4.04074L210.729 0.163733ZM185.557 13.2001C189.34 15.087 189.339 15.0888 189.339 15.0905C189.338 15.091 189.337 15.0927 189.337 15.0937C189.336 15.0958 189.335 15.0976 189.334 15.0992C189.333 15.1024 189.331 15.1047 189.331 15.1061C189.329 15.1091 189.329 15.1086 189.331 15.1048C189.335 15.0973 189.346 15.0766 189.364 15.0437C189.399 14.9779 189.463 14.8637 189.554 14.7084C189.737 14.3973 190.031 13.9254 190.44 13.3507C191.263 12.1949 192.523 10.663 194.244 9.18741C197.632 6.28381 202.806 3.57588 210.284 4.36821L210.729 0.163733L211.175 -4.04074C200.918 -5.12754 193.506 -1.31727 188.741 2.7671C186.386 4.78554 184.678 6.86503 183.551 8.44712C182.986 9.24142 182.561 9.92016 182.268 10.4173C182.121 10.6663 182.007 10.8707 181.925 11.0224C181.884 11.0983 181.851 11.1612 181.826 11.21C181.813 11.2344 181.802 11.2552 181.794 11.2725C181.789 11.2811 181.785 11.2888 181.782 11.2956C181.78 11.299 181.779 11.3022 181.777 11.3051C181.776 11.3066 181.775 11.3086 181.775 11.3094C181.774 11.3113 181.773 11.3132 185.557 13.2001ZM210.729 0.163733C210.006 4.32948 210.003 4.32897 210 4.32848C210 4.32834 209.997 4.32787 209.995 4.32758C209.992 4.32702 209.989 4.32653 209.987 4.3261C209.982 4.32525 209.979 4.32467 209.977 4.32438C209.974 4.32379 209.978 4.32436 209.987 4.32617C210.005 4.3298 210.047 4.33838 210.11 4.35269C210.237 4.38139 210.448 4.43262 210.723 4.51242C211.278 4.67318 212.071 4.94307 212.964 5.36472C214.776 6.22079 216.79 7.60285 218.18 9.77092C220.703 13.7074 222.517 22.6647 210.017 41.6451L213.548 43.9707L217.079 46.2962C230.181 26.4024 230.586 13.4562 225.299 5.2078C222.784 1.28342 219.293 -0.997335 216.576 -2.28097C215.204 -2.92916 213.977 -3.34835 213.078 -3.6092C212.626 -3.7402 212.251 -3.83291 211.974 -3.89545C211.835 -3.92676 211.721 -3.95062 211.633 -3.96803C211.589 -3.97674 211.552 -3.98384 211.522 -3.98946C211.507 -3.99227 211.493 -3.99471 211.482 -3.9968C211.476 -3.99784 211.47 -3.9988 211.465 -3.99966C211.463 -4.0001 211.46 -4.00069 211.458 -4.0009C211.455 -4.00147 211.452 -4.00201 210.729 0.163733Z" fill="#D1D3D4" mask="url(#path-11-inside-4_456_994)"/>
<path d="M212.884 49.9994C216.994 49.9994 220.322 46.6718 220.322 42.5613C220.322 38.4507 216.994 35.123 212.884 35.123C208.773 35.123 205.406 38.4507 205.406 42.5613C205.406 46.6718 208.734 49.9994 212.884 49.9994Z" fill="#D1D3D4"/>
<mask id="path-14-inside-5_456_994" fill="white">
<path d="M238.486 13.2001C238.486 13.2001 245.924 -1.71538 263.659 0.163733C263.659 0.163733 292.08 5.09642 266.477 43.9707"/>
</mask>
<path d="M263.659 0.163733L264.382 -4.00201L264.244 -4.02598L264.104 -4.04074L263.659 0.163733ZM238.486 13.2001C242.27 15.087 242.269 15.0888 242.268 15.0905C242.268 15.091 242.267 15.0927 242.267 15.0937C242.266 15.0957 242.265 15.0976 242.264 15.0991C242.262 15.1023 242.261 15.1046 242.26 15.1061C242.259 15.109 242.259 15.1086 242.261 15.1048C242.265 15.0972 242.276 15.0766 242.294 15.0437C242.329 14.9779 242.392 14.8637 242.484 14.7084C242.667 14.3972 242.961 13.9254 243.37 13.3507C244.193 12.1949 245.452 10.6629 247.174 9.1874C250.561 6.28381 255.736 3.57588 263.213 4.36821L263.659 0.163733L264.104 -4.04074C253.848 -5.12754 246.436 -1.31727 241.671 2.76711C239.316 4.78556 237.607 6.86505 236.481 8.44714C235.916 9.24144 235.49 9.92018 235.197 10.4174C235.051 10.6663 234.937 10.8707 234.855 11.0224C234.814 11.0984 234.781 11.1612 234.755 11.21C234.743 11.2344 234.732 11.2553 234.723 11.2725C234.719 11.2811 234.715 11.2889 234.712 11.2957C234.71 11.2991 234.708 11.3022 234.707 11.3052C234.706 11.3066 234.705 11.3087 234.705 11.3094C234.704 11.3114 234.703 11.3133 238.486 13.2001ZM263.659 0.163733C262.936 4.32948 262.933 4.32897 262.93 4.32848C262.929 4.32834 262.926 4.32787 262.925 4.32758C262.922 4.32702 262.919 4.32653 262.917 4.3261C262.912 4.32525 262.909 4.32467 262.907 4.32438C262.904 4.32379 262.907 4.32436 262.916 4.32617C262.934 4.3298 262.976 4.33838 263.04 4.35269C263.167 4.38139 263.377 4.43262 263.653 4.51242C264.207 4.67318 265.001 4.94307 265.893 5.36472C267.705 6.22079 269.72 7.60285 271.11 9.77092C273.633 13.7074 275.447 22.6647 262.946 41.6451L266.477 43.9707L270.008 46.2962C283.111 26.4024 283.516 13.4562 278.229 5.2078C275.713 1.28342 272.223 -0.997335 269.506 -2.28097C268.134 -2.92916 266.907 -3.34835 266.007 -3.6092C265.555 -3.7402 265.18 -3.83291 264.903 -3.89545C264.765 -3.92676 264.65 -3.95062 264.563 -3.96803C264.519 -3.97674 264.481 -3.98384 264.451 -3.98946C264.436 -3.99227 264.423 -3.99471 264.411 -3.9968C264.405 -3.99784 264.4 -3.9988 264.395 -3.99966C264.393 -4.0001 264.389 -4.00069 264.388 -4.0009C264.385 -4.00147 264.382 -4.00201 263.659 0.163733Z" fill="#D1D3D4" mask="url(#path-14-inside-5_456_994)"/>
<path d="M265.813 49.9994C269.924 49.9994 273.252 46.6718 273.252 42.5613C273.252 38.4507 269.924 35.123 265.813 35.123C261.703 35.123 258.336 38.4507 258.336 42.5613C258.336 46.6718 261.664 49.9994 265.813 49.9994Z" fill="#D1D3D4"/>
<mask id="path-17-inside-6_456_994" fill="white">
<path d="M291.412 13.2001C291.412 13.2001 298.85 -1.71538 316.584 0.163733C316.584 0.163733 345.006 5.09642 319.403 43.9707"/>
</mask>
<path d="M316.584 0.163733L317.307 -4.00201L317.169 -4.02598L317.03 -4.04074L316.584 0.163733ZM291.412 13.2001C295.196 15.087 295.195 15.0888 295.194 15.0905C295.194 15.091 295.193 15.0927 295.192 15.0937C295.191 15.0957 295.19 15.0976 295.19 15.0991C295.188 15.1023 295.187 15.1046 295.186 15.1061C295.185 15.109 295.185 15.1086 295.187 15.1048C295.191 15.0972 295.202 15.0766 295.219 15.0437C295.255 14.9779 295.318 14.8637 295.41 14.7084C295.593 14.3972 295.887 13.9254 296.296 13.3507C297.119 12.1949 298.378 10.6629 300.1 9.1874C303.487 6.28381 308.661 3.57588 316.139 4.36821L316.584 0.163733L317.03 -4.04074C306.773 -5.12754 299.361 -1.31727 294.596 2.76711C292.242 4.78556 290.533 6.86505 289.407 8.44714C288.842 9.24144 288.416 9.92018 288.123 10.4174C287.977 10.6663 287.863 10.8707 287.781 11.0224C287.74 11.0984 287.706 11.1612 287.681 11.21C287.669 11.2344 287.658 11.2553 287.649 11.2725C287.645 11.2811 287.641 11.2889 287.637 11.2957C287.636 11.2991 287.634 11.3022 287.633 11.3052C287.632 11.3066 287.631 11.3087 287.63 11.3094C287.629 11.3114 287.628 11.3133 291.412 13.2001ZM316.584 0.163733C315.861 4.32948 315.859 4.32897 315.856 4.32848C315.855 4.32834 315.852 4.32787 315.851 4.32758C315.847 4.32702 315.845 4.32653 315.842 4.3261C315.838 4.32525 315.834 4.32467 315.833 4.32438C315.83 4.32379 315.833 4.32436 315.842 4.32617C315.86 4.3298 315.902 4.33838 315.966 4.35269C316.093 4.38139 316.303 4.43262 316.578 4.51242C317.133 4.67318 317.927 4.94307 318.819 5.36472C320.631 6.22079 322.646 7.60285 324.035 9.77092C326.558 13.7074 328.373 22.6647 315.872 41.6451L319.403 43.9707L322.934 46.2962C336.036 26.4024 336.441 13.4562 331.154 5.2078C328.639 1.28342 325.148 -0.997335 322.431 -2.28097C321.059 -2.92916 319.833 -3.34835 318.933 -3.6092C318.481 -3.7402 318.106 -3.83291 317.829 -3.89545C317.691 -3.92676 317.576 -3.95062 317.488 -3.96803C317.445 -3.97674 317.407 -3.98384 317.377 -3.98946C317.362 -3.99227 317.349 -3.99471 317.337 -3.9968C317.331 -3.99784 317.326 -3.9988 317.321 -3.99966C317.318 -4.0001 317.315 -4.00069 317.314 -4.0009C317.311 -4.00147 317.307 -4.00201 316.584 0.163733Z" fill="#D1D3D4" mask="url(#path-17-inside-6_456_994)"/>
<path d="M318.739 49.9994C322.85 49.9994 326.177 46.6718 326.177 42.5613C326.177 38.4507 322.85 35.123 318.739 35.123C314.628 35.123 311.262 38.4507 311.262 42.5613C311.262 46.6718 314.589 49.9994 318.739 49.9994Z" fill="#D1D3D4"/>
<mask id="path-20-inside-7_456_994" fill="white">
<path d="M344.344 13.2001C344.344 13.2001 351.782 -1.71538 369.516 0.163733C369.516 0.163733 397.938 5.09642 372.296 43.9707"/>
</mask>
<path d="M369.516 0.163733L370.239 -4.00201L370.101 -4.02598L369.962 -4.04074L369.516 0.163733ZM344.344 13.2001C348.127 15.087 348.126 15.0888 348.126 15.0905C348.125 15.091 348.125 15.0927 348.124 15.0937C348.123 15.0958 348.122 15.0976 348.121 15.0992C348.12 15.1024 348.118 15.1047 348.118 15.1061C348.116 15.1091 348.116 15.1086 348.118 15.1048C348.122 15.0973 348.133 15.0766 348.151 15.0437C348.187 14.9779 348.25 14.8637 348.341 14.7084C348.524 14.3973 348.819 13.9254 349.228 13.3507C350.05 12.1949 351.31 10.663 353.031 9.18741C356.419 6.28381 361.593 3.57588 369.071 4.36821L369.516 0.163733L369.962 -4.04074C359.705 -5.12754 352.293 -1.31727 347.528 2.7671C345.173 4.78554 343.465 6.86503 342.339 8.44712C341.773 9.24142 341.348 9.92016 341.055 10.4173C340.908 10.6663 340.794 10.8707 340.712 11.0224C340.671 11.0983 340.638 11.1612 340.613 11.21C340.6 11.2344 340.589 11.2552 340.581 11.2725C340.576 11.2811 340.572 11.2888 340.569 11.2956C340.567 11.299 340.566 11.3022 340.564 11.3051C340.563 11.3066 340.562 11.3086 340.562 11.3094C340.561 11.3113 340.56 11.3132 344.344 13.2001ZM369.516 0.163733C368.793 4.32947 368.79 4.32897 368.787 4.32848C368.787 4.32834 368.784 4.32786 368.782 4.32758C368.779 4.32702 368.776 4.32653 368.774 4.3261C368.769 4.32524 368.766 4.32467 368.765 4.32437C368.761 4.32379 368.765 4.32436 368.774 4.32617C368.792 4.3298 368.834 4.33837 368.897 4.35268C369.024 4.38137 369.235 4.43259 369.51 4.51239C370.064 4.67312 370.858 4.94297 371.75 5.36453C373.561 6.22044 375.574 7.60198 376.961 9.76889C379.479 13.7032 381.287 22.6603 368.766 41.6426L372.296 43.9707L375.825 46.2987C388.946 26.4068 389.364 13.4604 384.083 5.20983C381.57 1.28428 378.079 -0.996988 375.363 -2.28078C373.991 -2.92906 372.764 -3.34829 371.865 -3.60917C371.413 -3.74018 371.038 -3.83289 370.761 -3.89544C370.622 -3.92675 370.508 -3.95062 370.42 -3.96803C370.376 -3.97674 370.339 -3.98384 370.309 -3.98946C370.294 -3.99227 370.28 -3.99471 370.269 -3.9968C370.263 -3.99784 370.257 -3.9988 370.253 -3.99966C370.25 -4.0001 370.247 -4.00069 370.246 -4.0009C370.242 -4.00146 370.239 -4.00201 369.516 0.163733Z" fill="#D1D3D4" mask="url(#path-20-inside-7_456_994)"/>
<path d="M371.671 49.9994C375.781 49.9994 379.109 46.6718 379.109 42.5613C379.109 38.4507 375.781 35.123 371.671 35.123C367.56 35.123 364.193 38.4507 364.193 42.5613C364.193 46.6718 367.521 49.9994 371.671 49.9994Z" fill="#D1D3D4"/>
<mask id="path-23-inside-8_456_994" fill="white">
<path d="M397.27 13.2001C397.27 13.2001 404.708 -1.71538 422.442 0.163733C422.442 0.163733 450.863 5.09642 425.221 43.9707"/>
</mask>
<path d="M422.442 0.163733L423.165 -4.00201L423.027 -4.02598L422.887 -4.04074L422.442 0.163733ZM397.27 13.2001C401.053 15.087 401.052 15.0888 401.051 15.0905C401.051 15.091 401.05 15.0927 401.05 15.0937C401.049 15.0957 401.048 15.0976 401.047 15.0991C401.045 15.1023 401.044 15.1046 401.044 15.1061C401.042 15.109 401.042 15.1086 401.044 15.1048C401.048 15.0972 401.059 15.0766 401.077 15.0437C401.112 14.9779 401.176 14.8637 401.267 14.7084C401.45 14.3972 401.744 13.9254 402.153 13.3507C402.976 12.1949 404.235 10.6629 405.957 9.1874C409.344 6.28381 414.519 3.57588 421.996 4.36821L422.442 0.163733L422.887 -4.04074C412.631 -5.12754 405.219 -1.31727 400.454 2.76711C398.099 4.78556 396.39 6.86505 395.264 8.44714C394.699 9.24144 394.273 9.92018 393.981 10.4174C393.834 10.6663 393.72 10.8707 393.638 11.0224C393.597 11.0984 393.564 11.1612 393.539 11.21C393.526 11.2344 393.515 11.2553 393.506 11.2725C393.502 11.2811 393.498 11.2889 393.495 11.2957C393.493 11.2991 393.491 11.3022 393.49 11.3052C393.489 11.3066 393.488 11.3087 393.488 11.3094C393.487 11.3114 393.486 11.3133 397.27 13.2001ZM422.442 0.163733C421.719 4.32947 421.716 4.32897 421.713 4.32848C421.712 4.32834 421.71 4.32786 421.708 4.32758C421.705 4.32702 421.702 4.32653 421.7 4.3261C421.695 4.32524 421.692 4.32467 421.69 4.32437C421.687 4.32379 421.69 4.32436 421.699 4.32617C421.718 4.3298 421.76 4.33837 421.823 4.35268C421.95 4.38137 422.16 4.43259 422.436 4.51239C422.99 4.67312 423.784 4.94297 424.676 5.36453C426.487 6.22044 428.499 7.60198 429.887 9.76889C432.405 13.7032 434.213 22.6603 421.692 41.6426L425.221 43.9707L428.751 46.2987C441.872 26.4068 442.29 13.4604 437.008 5.20983C434.495 1.28428 431.005 -0.996988 428.289 -2.28078C426.917 -2.92906 425.69 -3.34829 424.79 -3.60917C424.339 -3.74018 423.963 -3.83289 423.687 -3.89544C423.548 -3.92675 423.434 -3.95062 423.346 -3.96803C423.302 -3.97674 423.265 -3.98384 423.234 -3.98946C423.219 -3.99227 423.206 -3.99471 423.194 -3.9968C423.189 -3.99784 423.183 -3.9988 423.178 -3.99966C423.176 -4.0001 423.172 -4.00069 423.171 -4.0009C423.168 -4.00146 423.165 -4.00201 422.442 0.163733Z" fill="#D1D3D4" mask="url(#path-23-inside-8_456_994)"/>
<path d="M424.596 49.9994C428.707 49.9994 432.035 46.6718 432.035 42.5613C432.035 38.4507 428.707 35.123 424.596 35.123C420.486 35.123 417.119 38.4507 417.119 42.5613C417.119 46.6718 420.447 49.9994 424.596 49.9994Z" fill="#D1D3D4"/>
</svg>
