<svg width="349" height="308" viewBox="0 0 349 308" fill="none" xmlns="http://www.w3.org/2000/svg">
<path d="M20 111H329C338.941 111 347 119.059 347 129V241C347 250.941 338.941 259 329 259H20C10.0589 259 2 250.941 2 241V129L2.00586 128.535C2.25241 118.809 10.2143 111 20 111Z" fill="white"/>
<path d="M20 111H329C338.941 111 347 119.059 347 129V241C347 250.941 338.941 259 329 259H20C10.0589 259 2 250.941 2 241V129L2.00586 128.535C2.25241 118.809 10.2143 111 20 111Z" stroke="#FF8C78" stroke-width="4"/>
<rect x="12" y="121" width="325" height="128" rx="12" fill="#FFE6E2"/>
<path d="M144.156 179.031L147.312 185L150.531 179.031H155.312L150.344 187.5L155.438 196H150.688L147.312 190.094L144 196H139.188L144.25 187.5L139.375 179.031H144.156ZM172.062 196.312C166.391 196.312 162.969 192.094 162.969 184.688C162.969 177.297 166.422 173.062 172.062 173.062C177.703 173.062 181.156 177.297 181.156 184.688C181.156 192.125 177.719 196.312 172.062 196.312ZM167.781 184.688C167.75 189.906 169.438 192.438 172.062 192.438C174.688 192.438 176.359 189.906 176.344 184.688C176.359 179.516 174.672 176.922 172.062 176.906C169.453 176.922 167.781 179.516 167.781 184.688ZM185.219 196.281C183.75 196.281 182.562 195.109 182.594 193.656C182.562 192.219 183.75 191.047 185.219 191.062C186.609 191.047 187.812 192.219 187.812 193.656C187.812 195.109 186.609 196.281 185.219 196.281ZM190.125 192V188.281L199.688 173.375H205.594V188.219H208.469V192H205.594V196H201.125V192H190.125ZM194.875 188.219H201.188V178.531H200.969L194.875 188.031V188.219Z" fill="black"/>
<path d="M53.9844 35.3125C48.8281 35.3125 45.1094 32.5938 45.1094 28.9062C45.1094 26.0625 47.2969 23.75 50.1094 23.3125V23.1562C47.6719 22.6875 45.9844 20.625 45.9844 18.1562C45.9844 14.625 49.3594 12.0625 53.9844 12.0625C58.6094 12.0625 61.9844 14.625 62.0156 18.1562C61.9844 20.6562 60.2656 22.6875 57.8906 23.1562V23.3125C60.6406 23.75 62.8594 26.0625 62.8594 28.9062C62.8594 32.5938 59.1406 35.3125 53.9844 35.3125ZM53.9844 31.7188C56.3594 31.7188 57.9531 30.375 57.9531 28.4375C57.9531 26.4688 56.2969 25.0312 53.9844 25.0312C51.6719 25.0312 49.9844 26.4688 50.0156 28.4375C49.9844 30.375 51.5781 31.7188 53.9844 31.7188ZM53.9844 21.7188C55.9844 21.7188 57.4219 20.4375 57.4219 18.625C57.4219 16.875 56.0156 15.625 53.9844 15.625C51.9531 15.625 50.5781 16.8438 50.5781 18.625C50.5781 20.4375 51.9844 21.7188 53.9844 21.7188Z" fill="black"/>
<path d="M2 48L22 87" stroke="#FF8C78" stroke-width="4" stroke-linecap="round"/>
<path d="M106 48L86 87" stroke="#FF8C78" stroke-width="4" stroke-linecap="round"/>
<path fill-rule="evenodd" clip-rule="evenodd" d="M52.2378 55.5655L52.2378 76.1806L44.2317 68.1746C43.5429 67.4857 42.4266 67.4857 41.7393 68.1746C41.0504 68.8634 41.0504 69.9782 41.7393 70.667L52.7548 81.6825C52.7577 81.6869 52.7636 81.6883 52.768 81.6928C52.9281 81.8499 53.1175 81.9762 53.3261 82.0629C53.7579 82.2421 54.2426 82.2421 54.6744 82.0629C54.8844 81.9762 55.0724 81.8499 55.2325 81.6928C55.2369 81.6883 55.2428 81.6869 55.2472 81.6825L66.2627 70.667C66.6064 70.3233 66.7782 69.8724 66.7782 69.4215C66.7782 68.9691 66.6064 68.5182 66.2627 68.1746C65.5739 67.4857 64.4576 67.4857 63.7702 68.1746L55.7627 76.1806L55.7627 55.5655C55.7627 54.5917 54.974 53.803 54.0002 53.803C53.0279 53.803 52.2378 54.5917 52.2378 55.5655Z" fill="#3B71FE"/>
<path d="M223 306L243 267" stroke="#FF8C78" stroke-width="4" stroke-linecap="round"/>
<path d="M327 306L307 267" stroke="#FF8C78" stroke-width="4" stroke-linecap="round"/>
<path fill-rule="evenodd" clip-rule="evenodd" d="M273.238 274.565L273.238 295.181L265.232 287.175C264.543 286.486 263.427 286.486 262.739 287.175C262.05 287.863 262.05 288.978 262.739 289.667L273.755 300.682C273.758 300.687 273.764 300.688 273.768 300.693C273.928 300.85 274.118 300.976 274.326 301.063C274.758 301.242 275.243 301.242 275.674 301.063C275.884 300.976 276.072 300.85 276.233 300.693C276.237 300.688 276.243 300.687 276.247 300.682L287.263 289.667C287.606 289.323 287.778 288.872 287.778 288.422C287.778 287.969 287.606 287.518 287.263 287.175C286.574 286.486 285.458 286.486 284.77 287.175L276.763 295.181L276.763 274.565C276.763 273.592 275.974 272.803 275 272.803C274.028 272.803 273.238 273.592 273.238 274.565Z" fill="#3B71FE"/>
</svg>
