<svg width="373" height="126" viewBox="0 0 373 126" fill="none" xmlns="http://www.w3.org/2000/svg">
<path d="M33.9501 2.81334e-05H339.169C357.63 2.81334e-05 372.619 14.9886 372.619 33.4502V91.99C372.619 110.45 357.632 125.437 339.172 125.437H33.9502C15.4885 125.437 0.5 110.449 0.5 91.9869V33.4501C0.5 14.9885 15.4885 2.81334e-05 33.9501 2.81334e-05Z" fill="#E6F0DD"/>
<path d="M314.531 26.375V49H309.812V30.8438H309.688L304.5 34.0938V29.9375L310.094 26.375H314.531Z" fill="black"/>
<path d="M33.9492 63.7539H80.7775" stroke="#231F20" stroke-width="1.475" stroke-miterlimit="10"/>
<path d="M57.3754 55.1806C65.8422 55.1806 72.706 48.3169 72.706 39.8501C72.706 31.3832 65.8422 24.5195 57.3754 24.5195C48.9086 24.5195 42.0449 31.3832 42.0449 39.8501C42.0449 48.3169 48.9086 55.1806 57.3754 55.1806Z" fill="#EC008C"/>
<path d="M71.3827 72.8438H43.2422V100.778H71.3827V72.8438Z" fill="#7CC366"/>
<path d="M115.97 64.8015H86.2344V63.1495H115.97V64.8015ZM101.144 56.8719C100.565 56.8719 100.083 56.7478 99.6982 56.5001C99.3123 56.2523 99.0167 55.9362 98.8102 55.5501C98.6038 55.165 98.5005 54.7449 98.5005 54.2906C98.5005 53.8362 98.5896 53.4168 98.769 53.031C98.9477 52.6457 99.2297 52.3223 99.6156 52.0603C100.001 51.7991 100.483 51.668 101.061 51.668C101.914 51.668 102.569 51.9364 103.023 52.4733C103.477 53.0103 103.704 53.6026 103.704 54.2492C103.704 54.8965 103.491 55.4954 103.064 56.0458C102.637 56.597 101.997 56.8719 101.144 56.8719ZM101.144 76.2828C100.565 76.2828 100.083 76.1589 99.6982 75.9111C99.3123 75.6634 99.0167 75.347 98.8102 74.9612C98.6038 74.576 98.5005 74.1558 98.5005 73.7015C98.5005 73.2473 98.5896 72.8279 98.769 72.4419C98.9477 72.0567 99.2297 71.7334 99.6156 71.4714C100.001 71.2099 100.483 71.079 101.061 71.079C101.914 71.079 102.569 71.3475 103.023 71.8844C103.477 72.4213 103.704 73.0137 103.704 73.6603C103.704 74.3076 103.491 74.9064 103.064 75.4569C102.637 76.0078 101.997 76.2828 101.144 76.2828Z" fill="#231F20"/>
<path d="M123.512 74.9648L139.603 47.6103L155.694 74.9648H123.512Z" fill="#00AEEF"/>
<path d="M195.224 60.1754H165.529V58.5234H195.224V60.1754ZM195.224 69.4266H165.529V67.7746H195.224V69.4266Z" fill="#231F20"/>
<path d="M201.047 63.7539H247.875" stroke="#231F20" stroke-width="1.475" stroke-miterlimit="10"/>
<path d="M224.473 55.1806C232.94 55.1806 239.804 48.3169 239.804 39.8501C239.804 31.3832 232.94 24.5195 224.473 24.5195C216.006 24.5195 209.143 31.3832 209.143 39.8501C209.143 48.3169 216.006 55.1806 224.473 55.1806Z" fill="#EC008C"/>
<path d="M238.482 72.8438H210.342V100.778H238.482V72.8438Z" fill="#7CC366"/>
<path d="M278.938 73.5567L277.74 74.7545L268.117 65.1317L258.495 74.7545L257.297 73.5567L266.92 63.934L257.297 54.311L258.495 53.1133L268.117 62.7362L277.74 53.1133L278.938 54.311L269.315 63.934L278.938 73.5567Z" fill="#231F20"/>
<path d="M288.852 63.1895H334.845" stroke="#231F20" stroke-width="1.475" stroke-miterlimit="10"/>
<path d="M294.61 97.6758L310.7 70.3212L326.791 97.6758H294.61Z" fill="#00AEEF"/>
</svg>
