<svg width="137" height="136" viewBox="0 0 137 136" fill="none" xmlns="http://www.w3.org/2000/svg">
<g clip-path="url(#clip0_9403_43554)">
<mask id="mask0_9403_43554" style="mask-type:luminance" maskUnits="userSpaceOnUse" x="1" y="45" width="47" height="94">
<path d="M47.0967 45.3535H1.09668V138.72H47.0967V45.3535Z" fill="white"/>
</mask>
<g mask="url(#mask0_9403_43554)">
<path d="M10.6635 26.8184L-29.9365 55.4517" stroke="#FF0000" stroke-width="2" stroke-miterlimit="10"/>
<path d="M34.5301 26.8184L-29.9365 72.285" stroke="#FF0000" stroke-width="2" stroke-miterlimit="10"/>
<path d="M58.3968 26.8184L-29.9365 89.1517" stroke="#FF0000" stroke-width="2" stroke-miterlimit="10"/>
<path d="M80.2968 28.2188L-29.9365 105.985" stroke="#FF0000" stroke-width="2" stroke-miterlimit="10"/>
<path d="M80.2968 45.0547L-29.9365 122.821" stroke="#FF0000" stroke-width="2" stroke-miterlimit="10"/>
<path d="M80.2968 61.8828L-29.9365 139.683" stroke="#FF0000" stroke-width="2" stroke-miterlimit="10"/>
<path d="M80.2968 78.752L-29.9365 156.519" stroke="#FF0000" stroke-width="2" stroke-miterlimit="10"/>
<path d="M80.2968 95.5879L-29.9365 173.355" stroke="#FF0000" stroke-width="2" stroke-miterlimit="10"/>
<path d="M80.2965 112.449L-12.6035 177.983" stroke="#FF0000" stroke-width="2" stroke-miterlimit="10"/>
<path d="M80.297 129.287L11.2637 177.987" stroke="#FF0000" stroke-width="2" stroke-miterlimit="10"/>
</g>
<g clip-path="url(#clip1_9403_43554)">
<rect width="1715" height="764" transform="translate(1.09668 45.3535)" fill="white"/>
</g>
</g>
<path d="M135.709 45.6191H1.29004V135.243H135.709V45.6191Z" fill="#FFE9C2"/>
<mask id="mask1_9403_43554" style="mask-type:luminance" maskUnits="userSpaceOnUse" x="0" y="0" width="137" height="136">
<path d="M136.5 0H0.5V136H136.5V0Z" fill="white"/>
</mask>
<g mask="url(#mask1_9403_43554)">
<path d="M1.29004 45.6191H135.709" stroke="#231F20" stroke-width="0.950754" stroke-miterlimit="10" stroke-dasharray="4.75 3.2"/>
<path d="M1.29004 90.4141H135.709" stroke="#231F20" stroke-width="0.950754" stroke-miterlimit="10" stroke-dasharray="4.75 3.2"/>
<path d="M46.0859 135.21V0.791016" stroke="#231F20" stroke-width="0.950754" stroke-miterlimit="10" stroke-dasharray="4.75 3.33"/>
<path d="M90.9141 135.21V0.791016" stroke="#231F20" stroke-width="0.950754" stroke-miterlimit="10" stroke-dasharray="4.75 3.33"/>
<path d="M135.709 0.791016H1.29004V135.21H135.709V0.791016Z" stroke="#58595B" stroke-width="2" stroke-miterlimit="10"/>
</g>
<g clip-path="url(#clip2_9403_43554)">
<mask id="mask2_9403_43554" style="mask-type:luminance" maskUnits="userSpaceOnUse" x="2" y="46" width="46" height="94">
<path d="M48 46H2V139.367H48V46Z" fill="white"/>
</mask>
<g mask="url(#mask2_9403_43554)">
<path d="M11.5668 27.4648L-29.0332 56.0982" stroke="#FF0000" stroke-width="2" stroke-miterlimit="10"/>
<path d="M35.4334 27.4648L-29.0332 72.9315" stroke="#FF0000" stroke-width="2" stroke-miterlimit="10"/>
<path d="M59.3001 27.4648L-29.0332 89.7982" stroke="#FF0000" stroke-width="2" stroke-miterlimit="10"/>
<path d="M81.2001 28.8652L-29.0332 106.632" stroke="#FF0000" stroke-width="2" stroke-miterlimit="10"/>
<path d="M81.2001 45.7012L-29.0332 123.468" stroke="#FF0000" stroke-width="2" stroke-miterlimit="10"/>
<path d="M81.2001 62.5293L-29.0332 140.329" stroke="#FF0000" stroke-width="2" stroke-miterlimit="10"/>
<path d="M81.2001 79.3984L-29.0332 157.165" stroke="#FF0000" stroke-width="2" stroke-miterlimit="10"/>
<path d="M81.2001 96.2344L-29.0332 174.001" stroke="#FF0000" stroke-width="2" stroke-miterlimit="10"/>
<path d="M81.1998 113.096L-11.7002 178.629" stroke="#FF0000" stroke-width="2" stroke-miterlimit="10"/>
<path d="M81.2003 129.934L12.167 178.634" stroke="#FF0000" stroke-width="2" stroke-miterlimit="10"/>
</g>
</g>
<defs>
<clipPath id="clip0_9403_43554">
<rect width="45" height="90" fill="white" transform="translate(1.09668 45.3535)"/>
</clipPath>
<clipPath id="clip1_9403_43554">
<rect width="1715" height="764" fill="white" transform="translate(1.09668 45.3535)"/>
</clipPath>
<clipPath id="clip2_9403_43554">
<rect width="44" height="89" fill="white" transform="translate(2 46)"/>
</clipPath>
</defs>
</svg>
