<svg width="34" height="34" viewBox="0 0 34 34" fill="none" xmlns="http://www.w3.org/2000/svg">
<path d="M19.5977 11.6719C19.5977 13.6198 20.0202 15.4173 20.8652 17.0645C21.7103 18.6973 22.9993 20.1081 24.7324 21.2969C26.4798 22.4714 28.6497 23.3307 31.2422 23.875L28.6641 28.2148C25.8711 27.5703 23.4863 26.5462 21.5098 25.1426C19.5475 23.7389 18.015 22.013 16.9121 19.9648C15.8236 22.013 14.291 23.7389 12.3145 25.1426C10.3522 26.5462 7.98177 27.5703 5.20312 28.2148L2.53906 23.875C5.13151 23.3307 7.29427 22.4714 9.02734 21.2969C10.7747 20.1081 12.071 18.6973 12.916 17.0645C13.7754 15.4173 14.2122 13.6198 14.2266 11.6719V5.87109H19.5977V11.6719Z" fill="url(#paint0_linear_10749_7555)"/>
<defs>
<linearGradient id="paint0_linear_10749_7555" x1="17.3125" y1="-15.1875" x2="17.3125" y2="48.8125" gradientUnits="userSpaceOnUse">
<stop stop-color="#6247DC"/>
<stop offset="1" stop-color="#07BBA9"/>
</linearGradient>
</defs>
</svg>
