<svg width="227" height="226" viewBox="0 0 227 226" fill="none" xmlns="http://www.w3.org/2000/svg">
<path d="M113 0V225.502" stroke="black" stroke-width="2" stroke-dasharray="1.5 1.5"/>
<path d="M211.078 56.375L14.9234 169.126" stroke="black" stroke-width="2" stroke-dasharray="1.5 1.5"/>
<path d="M14.9219 56.375L211.077 169.126" stroke="black" stroke-width="2" stroke-dasharray="1.5 1.5"/>
<path d="M225.225 112.814C225.231 134.937 218.661 156.565 206.346 174.962C194.03 193.36 176.523 207.701 156.038 216.171C135.553 224.642 113.009 226.861 91.2597 222.549C69.51 218.237 49.5305 207.587 33.8482 191.946C18.1658 176.305 7.48501 156.375 3.15657 134.678C-1.17187 112.98 1.04648 90.4893 9.53107 70.0497C18.0157 49.6101 32.3853 32.1398 50.8228 19.8483C69.2602 7.55673 90.9373 0.996095 113.112 0.996094C142.841 0.996093 171.352 12.7758 192.377 33.7448C213.401 54.7138 225.216 83.1549 225.225 112.814Z" stroke="#1D1D1B" stroke-width="2" stroke-miterlimit="10"/>
</svg>
