<svg width="227" height="2" viewBox="0 0 227 2" fill="none" xmlns="http://www.w3.org/2000/svg">
<g clip-path="url(#clip0_91_526)">
<path fill-rule="evenodd" clip-rule="evenodd" d="M0 2L1.5 2L1.5 1.78873e-08L2.38498e-08 0L0 2ZM4.5 2L7.5 2L7.5 8.94366e-08L4.5 5.3662e-08L4.5 2ZM10.5 2L13.5 2L13.5 1.60986e-07L10.5 1.25211e-07L10.5 2ZM16.5 2L19.5 2L19.5 2.32535e-07L16.5 1.96761e-07L16.5 2ZM22.5 2L25.5 2L25.5 3.04084e-07L22.5 2.6831e-07L22.5 2ZM28.5 2L31.5 2L31.5 3.75634e-07L28.5 3.39859e-07L28.5 2ZM34.5 2L37.5 2L37.5 4.47183e-07L34.5 4.11408e-07L34.5 2ZM40.5 2L43.5 2L43.5 5.18732e-07L40.5 4.82958e-07L40.5 2ZM46.5 2L49.5 2L49.5 5.90282e-07L46.5 5.54507e-07L46.5 2ZM52.5 2L55.5 2L55.5 6.61831e-07L52.5 6.26056e-07L52.5 2ZM58.5 2L61.5 2L61.5 7.3338e-07L58.5 6.97606e-07L58.5 2ZM64.5 2L67.5 2L67.5 8.04929e-07L64.5 7.69155e-07L64.5 2ZM70.5 2L73.5 2L73.5 8.76479e-07L70.5 8.40704e-07L70.5 2ZM76.5 2L79.5 2L79.5 9.48028e-07L76.5 9.12253e-07L76.5 2ZM82.5 2L85.5 2L85.5 1.01958e-06L82.5 9.83803e-07L82.5 2ZM88.5 2L91.5 2L91.5 1.09113e-06L88.5 1.05535e-06L88.5 2ZM94.5 2L97.5 2L97.5 1.16268e-06L94.5 1.1269e-06L94.5 2ZM100.5 2L103.5 2L103.5 1.23423e-06L100.5 1.19845e-06L100.5 2ZM106.5 2L109.5 2L109.5 1.30577e-06L106.5 1.27e-06L106.5 2ZM112.5 2L114 2L114.743 2L114.743 1.66884C114.903 1.49167 115 1.25717 115 1C115 0.742831 114.903 0.508331 114.743 0.331161L114.743 1.3683e-06L114 1.35944e-06L112.5 1.34155e-06L112.5 2ZM116.23 2L117.717 2L117.717 1.40376e-06L116.23 1.38603e-06L116.23 2ZM119.204 2L120.691 2L120.691 1.43923e-06L119.204 1.42149e-06L119.204 2ZM122.178 2L123.664 2L123.664 1.47468e-06L122.178 1.45696e-06L122.178 2ZM125.151 2L126.638 2L126.638 1.51014e-06L125.151 1.49241e-06L125.151 2ZM128.125 2L129.612 2L129.612 1.54561e-06L128.125 1.52788e-06L128.125 2ZM131.099 2L132.586 2L132.586 1.58107e-06L131.099 1.56334e-06L131.099 2ZM134.072 2L135.559 2L135.559 1.61652e-06L134.072 1.59879e-06L134.072 2ZM137.046 2L138.533 2L138.533 1.65199e-06L137.046 1.63426e-06L137.046 2ZM140.02 2L141.507 2L141.507 1.68745e-06L140.02 1.66972e-06L140.02 2ZM142.993 2L144.48 2L144.48 1.72291e-06L142.993 1.70517e-06L142.993 2ZM145.967 2L147.454 2L147.454 1.75837e-06L145.967 1.74064e-06L145.967 2ZM148.941 2L150.428 2L150.428 1.79384e-06L148.941 1.7761e-06L148.941 2ZM151.914 2L153.401 2L153.401 1.82929e-06L151.914 1.81156e-06L151.914 2ZM154.888 2L156.375 2L156.375 1.86475e-06L154.888 1.84702e-06L154.888 2ZM157.862 2L159.349 2L159.349 1.90022e-06L157.862 1.88249e-06L157.862 2ZM160.836 2L162.322 2L162.322 1.93567e-06L160.836 1.91795e-06L160.836 2ZM163.809 2L165.296 2L165.296 1.97114e-06L163.809 1.9534e-06L163.809 2ZM166.783 2L168.27 2L168.27 2.0066e-06L166.783 1.98887e-06L166.783 2ZM169.757 2L171.243 2L171.243 2.04205e-06L169.757 2.02433e-06L169.757 2ZM172.73 2L174.217 2L174.217 2.07752e-06L172.73 2.05978e-06L172.73 2ZM175.704 2L177.191 2L177.191 2.11298e-06L175.704 2.09525e-06L175.704 2ZM178.678 2L180.165 2L180.164 2.14843e-06L178.678 2.13071e-06L178.678 2ZM181.651 2L183.138 2L183.138 2.1839e-06L181.651 2.16617e-06L181.651 2ZM184.625 2L186.112 2L186.112 2.21936e-06L184.625 2.20163e-06L184.625 2ZM187.599 2L189.086 2L189.086 2.25483e-06L187.599 2.2371e-06L187.599 2ZM190.572 2L192.059 2L192.059 2.29028e-06L190.572 2.27255e-06L190.572 2ZM193.546 2L195.033 2L195.033 2.32575e-06L193.546 2.30801e-06L193.546 2ZM196.52 2L198.007 2L198.007 2.36121e-06L196.52 2.34348e-06L196.52 2ZM199.493 2L200.98 2L200.98 2.39666e-06L199.493 2.37893e-06L199.493 2ZM202.467 2L203.954 2L203.954 2.43213e-06L202.467 2.41439e-06L202.467 2ZM205.441 2L206.928 2L206.928 2.46759e-06L205.441 2.44986e-06L205.441 2ZM208.414 2L209.901 2L209.901 2.50304e-06L208.414 2.48531e-06L208.414 2ZM211.388 2L212.875 2L212.875 2.53851e-06L211.388 2.52078e-06L211.388 2ZM214.362 2L215.849 2L215.849 2.57397e-06L214.362 2.55624e-06L214.362 2ZM217.335 2L218.822 2L218.822 2.60943e-06L217.335 2.59169e-06L217.335 2ZM220.309 2L221.796 2L221.796 2.64489e-06L220.309 2.62716e-06L220.309 2ZM223.283 2L224.77 2L224.77 2.68036e-06L223.283 2.66262e-06L223.283 2ZM226.257 2L227 2L227 -7.30663e-06L226.257 -7.31549e-06L226.257 2Z" fill="black"/>
</g>
<defs>
<clipPath id="clip0_91_526">
<rect width="2" height="227" fill="white" transform="translate(0 2) rotate(-90)"/>
</clipPath>
</defs>
</svg>
