<svg width="355" height="142" viewBox="0 0 355 142" fill="none" xmlns="http://www.w3.org/2000/svg">
<mask id="path-1-inside-1_274_519" fill="white">
<path d="M0.5 50C0.5 22.3858 22.8858 0 50.5 0H304.5C332.114 0 354.5 22.3858 354.5 50V92C354.5 119.614 332.114 142 304.5 142H50.5C22.8858 142 0.5 119.614 0.5 92V50Z"/>
</mask>
<path d="M0.5 0H354.5H0.5ZM354.5 142H0.5H354.5ZM50.5 142C21.2289 142 -2.5 118.271 -2.5 89V53C-2.5 23.7289 21.2289 0 50.5 0C24.5426 0 3.5 22.3858 3.5 50V92C3.5 119.614 24.5426 142 50.5 142ZM304.5 0C333.771 0 357.5 23.7289 357.5 53V89C357.5 118.271 333.771 142 304.5 142C330.457 142 351.5 119.614 351.5 92V50C351.5 22.3858 330.457 0 304.5 0Z" fill="#07BBA9" mask="url(#path-1-inside-1_274_519)"/>
</svg>
