<svg width="499" height="235" viewBox="0 0 499 235" fill="none" xmlns="http://www.w3.org/2000/svg">
<path d="M249.499 233.898C315.305 233.898 390.834 236.924 428.799 232.947C498.499 225.669 498.499 157.566 498.499 111.647C498.499 69.479 492.469 29.7624 439.805 13.3556C402.317 1.67569 329.073 0 253.419 0C173.015 0 104.145 0.650267 64.2192 7.30305C5.87629 17.0071 0.499023 71.0547 0.499023 111.647C0.499023 157.566 4.49433 225.819 85.5513 230.772C125.401 233.273 183.543 233.898 249.499 233.898Z" fill="#FEF2F5"/>
<path d="M486.945 137.836C486.945 137.836 485.413 214.068 420.235 222.496C420.235 222.496 492.021 233.726 486.945 137.836Z" fill="white"/>
</svg>
