<svg width="198" height="227" viewBox="0 0 198 227" fill="none" xmlns="http://www.w3.org/2000/svg">
<path d="M98.0781 114C98.0781 114.552 98.5258 115 99.0781 115C99.6304 115 100.078 114.552 100.078 114H98.0781ZM98.0781 0V1.5H100.078V0H98.0781ZM98.0781 4.5V7.5H100.078V4.5H98.0781ZM98.0781 10.5V13.5H100.078V10.5H98.0781ZM98.0781 16.5V19.5H100.078V16.5H98.0781ZM98.0781 22.5V25.5H100.078V22.5H98.0781ZM98.0781 28.5V31.5H100.078V28.5H98.0781ZM98.0781 34.5V37.5H100.078V34.5H98.0781ZM98.0781 40.5V43.5H100.078V40.5H98.0781ZM98.0781 46.5V49.5H100.078V46.5H98.0781ZM98.0781 52.5V55.5H100.078V52.5H98.0781ZM98.0781 58.5V61.5H100.078V58.5H98.0781ZM98.0781 64.5V67.5H100.078V64.5H98.0781ZM98.0781 70.5V73.5H100.078V70.5H98.0781ZM98.0781 76.5V79.5H100.078V76.5H98.0781ZM98.0781 82.5V85.5H100.078V82.5H98.0781ZM98.0781 88.5V91.5H100.078V88.5H98.0781ZM98.0781 94.5V97.5H100.078V94.5H98.0781ZM98.0781 100.5V103.5H100.078V100.5H98.0781ZM98.0781 106.5V109.5H100.078V106.5H98.0781ZM98.0781 112.5V114H100.078V112.5H98.0781Z" fill="black"/>
<path d="M99.0781 114L99.0781 227" stroke="black" stroke-width="2" stroke-linejoin="round" stroke-dasharray="1.5 1.5"/>
<path d="M197.156 56.625L99.0781 113" stroke="black" stroke-width="2" stroke-linejoin="round" stroke-dasharray="1.5 1.5"/>
<path d="M99.5798 113.865C100.058 113.588 100.22 112.976 99.9432 112.498C99.6661 112.021 99.0542 111.858 98.5765 112.135L99.5798 113.865ZM98.5765 112.135L97.286 112.883L98.2893 114.613L99.5798 113.865L98.5765 112.135ZM94.705 114.38L92.1241 115.877L93.1274 117.607L95.7083 116.11L94.705 114.38ZM89.5431 117.373L86.9621 118.87L87.9654 120.6L90.5464 119.104L89.5431 117.373ZM84.3812 120.367L81.8002 121.864L82.8035 123.594L85.3845 122.097L84.3812 120.367ZM79.2192 123.36L76.6383 124.857L77.6416 126.587L80.2226 125.09L79.2192 123.36ZM74.0573 126.354L71.4763 127.85L72.4797 129.581L75.0606 128.084L74.0573 126.354ZM68.8954 129.347L66.3144 130.844L67.3177 132.574L69.8987 131.077L68.8954 129.347ZM63.7335 132.341L61.1525 133.837L62.1558 135.567L64.7368 134.071L63.7335 132.341ZM58.5715 135.334L55.9906 136.831L56.9939 138.561L59.5748 137.064L58.5715 135.334ZM53.4096 138.327L50.8286 139.824L51.832 141.554L54.4129 140.057L53.4096 138.327ZM48.2477 141.321L45.6667 142.817L46.67 144.548L49.251 143.051L48.2477 141.321ZM43.0858 144.314L40.5048 145.811L41.5081 147.541L44.0891 146.044L43.0858 144.314ZM37.9238 147.308L35.3429 148.804L36.3462 150.534L38.9271 149.038L37.9238 147.308ZM32.7619 150.301L30.1809 151.798L31.1842 153.528L33.7652 152.031L32.7619 150.301ZM27.6 153.294L25.019 154.791L26.0223 156.521L28.6033 155.025L27.6 153.294ZM22.438 156.288L19.8571 157.785L20.8604 159.515L23.4413 158.018L22.438 156.288ZM17.2761 159.281L14.6951 160.778L15.6984 162.508L18.2794 161.011L17.2761 159.281ZM12.1142 162.275L9.5332 163.771L10.5365 165.502L13.1175 164.005L12.1142 162.275ZM6.95224 165.268L4.37127 166.765L5.37459 168.495L7.95555 166.998L6.95224 165.268ZM1.79031 168.262L0.499849 169.01L1.50316 170.74L2.79362 169.992L1.79031 168.262Z" fill="black"/>
<path d="M99.5798 112.135C99.102 111.858 98.4901 112.021 98.2131 112.498C97.936 112.976 98.0987 113.588 98.5765 113.865L99.5798 112.135ZM98.5765 113.865L99.867 114.613L100.87 112.883L99.5798 112.135L98.5765 113.865ZM102.448 116.11L105.029 117.607L106.032 115.877L103.451 114.38L102.448 116.11ZM107.61 119.104L110.191 120.6L111.194 118.87L108.613 117.373L107.61 119.104ZM112.772 122.097L115.353 123.594L116.356 121.864L113.775 120.367L112.772 122.097ZM117.934 125.09L120.515 126.587L121.518 124.857L118.937 123.36L117.934 125.09ZM123.096 128.084L125.677 129.581L126.68 127.85L124.099 126.354L123.096 128.084ZM128.258 131.077L130.839 132.574L131.842 130.844L129.261 129.347L128.258 131.077ZM133.419 134.071L136 135.567L137.004 133.837L134.423 132.341L133.419 134.071ZM138.581 137.064L141.162 138.561L142.166 136.831L139.585 135.334L138.581 137.064ZM143.743 140.057L146.324 141.554L147.328 139.824L144.747 138.327L143.743 140.057ZM148.905 143.051L151.486 144.548L152.49 142.817L149.909 141.321L148.905 143.051ZM154.067 146.044L156.648 147.541L157.651 145.811L155.07 144.314L154.067 146.044ZM159.229 149.038L161.81 150.534L162.813 148.804L160.232 147.308L159.229 149.038ZM164.391 152.031L166.972 153.528L167.975 151.798L165.394 150.301L164.391 152.031ZM169.553 155.025L172.134 156.521L173.137 154.791L170.556 153.294L169.553 155.025ZM174.715 158.018L177.296 159.515L178.299 157.785L175.718 156.288L174.715 158.018ZM179.877 161.011L182.458 162.508L183.461 160.778L180.88 159.281L179.877 161.011ZM185.039 164.005L187.62 165.502L188.623 163.771L186.042 162.275L185.039 164.005ZM190.201 166.998L192.782 168.495L193.785 166.765L191.204 165.268L190.201 166.998ZM195.363 169.992L196.653 170.74L197.656 169.01L196.366 168.262L195.363 169.992Z" fill="black"/>
<path d="M1 56.625L99.0781 113" stroke="black" stroke-width="2" stroke-linejoin="round" stroke-dasharray="1.5 1.5"/>
</svg>
