<svg width="1281" height="562" viewBox="0 0 1281 562" fill="none" xmlns="http://www.w3.org/2000/svg">
<path d="M34 34C34 15.2223 49.2223 0 68 0H159C177.778 0 193 15.2223 193 34C193 52.7777 177.778 68 159 68H68C49.2223 68 34 52.7777 34 34Z" fill="#FEBF24"/>
<rect x="39" y="5" width="149" height="58" rx="29" stroke="white" stroke-width="2" stroke-dasharray="4 4"/>
<path d="M70.3203 29.0547H67.5547V31.2344H70.3203V33.7188H67.5547V36.4141H64.5547V23.8281H67.5547V26.6406H70.3203V29.0547ZM67.5547 45.1562H64.5547V39.6719H53.1875V37.2578H67.5547V45.1562ZM56.6328 25C57.7188 24.9922 58.7031 25.2109 59.5859 25.6562C60.4766 26.1016 61.1758 26.7227 61.6836 27.5195C62.1914 28.3086 62.4453 29.1953 62.4453 30.1797C62.4453 31.1875 62.1914 32.0898 61.6836 32.8867C61.1758 33.6758 60.4805 34.293 59.5977 34.7383C58.7148 35.1836 57.7266 35.4062 56.6328 35.4062C55.5312 35.4062 54.5352 35.1836 53.6445 34.7383C52.7539 34.293 52.0508 33.6758 51.5352 32.8867C51.0273 32.0898 50.7734 31.1875 50.7734 30.1797C50.7734 29.1953 51.0273 28.3086 51.5352 27.5195C52.0508 26.7227 52.7539 26.1016 53.6445 25.6562C54.543 25.2109 55.5391 24.9922 56.6328 25ZM56.6328 27.5547C56.0703 27.5547 55.5664 27.6602 55.1211 27.8711C54.6758 28.0742 54.3281 28.375 54.0781 28.7734C53.8359 29.1719 53.7188 29.6406 53.7266 30.1797C53.7188 30.7344 53.8359 31.2148 54.0781 31.6211C54.3281 32.0273 54.6758 32.3398 55.1211 32.5586C55.5664 32.7695 56.0703 32.875 56.6328 32.875C57.1797 32.875 57.6719 32.7695 58.1094 32.5586C58.5469 32.3398 58.8906 32.0273 59.1406 31.6211C59.3984 31.2148 59.5312 30.7344 59.5391 30.1797C59.5312 29.6406 59.3984 29.1719 59.1406 28.7734C58.8906 28.375 58.5469 28.0742 58.1094 27.8711C57.6719 27.6602 57.1797 27.5547 56.6328 27.5547ZM90.3281 36.6016H70.875V34.2109H79.1016V31.375H82.0547V34.2109H90.3281V36.6016ZM82.1016 24.8828C82.1016 25.7344 82.3711 26.5391 82.9102 27.2969C83.457 28.0469 84.2695 28.6914 85.3477 29.2305C86.4336 29.7695 87.75 30.1328 89.2969 30.3203L88.1484 32.6406C86.3672 32.375 84.8242 31.8828 83.5195 31.1641C82.2227 30.4375 81.2305 29.5352 80.543 28.457C79.8555 29.5352 78.8594 30.4375 77.5547 31.1641C76.2578 31.8906 74.7188 32.3828 72.9375 32.6406L71.8828 30.3203C73.3984 30.1328 74.6953 29.7656 75.7734 29.2188C76.8516 28.6719 77.668 28.0195 78.2227 27.2617C78.7773 26.5039 79.0547 25.7109 79.0547 24.8828V24.1797H82.1016V24.8828ZM87.9609 45.1562H84.9844V40.4219H73.0312V38.1016H87.9609V45.1562ZM101.406 29.4531H91.0938V27.0859H94.7969V24.4141H97.75V27.0859H101.406V29.4531ZM96.2969 30.4141C97.1953 30.4141 97.9961 30.6328 98.6992 31.0703C99.4102 31.5 99.9648 32.0977 100.363 32.8633C100.77 33.6289 100.977 34.5 100.984 35.4766C100.977 36.4531 100.77 37.3281 100.363 38.1016C99.9648 38.875 99.4102 39.4805 98.6992 39.918C97.9961 40.3477 97.1953 40.5625 96.2969 40.5625C95.3984 40.5625 94.5898 40.3477 93.8711 39.918C93.1602 39.4805 92.6016 38.875 92.1953 38.1016C91.7891 37.3281 91.5859 36.4531 91.5859 35.4766C91.5859 34.5078 91.7891 33.6406 92.1953 32.875C92.6016 32.1016 93.1602 31.5 93.8711 31.0703C94.5898 30.6328 95.3984 30.4141 96.2969 30.4141ZM96.2969 32.8984C95.6641 32.8984 95.1562 33.1289 94.7734 33.5898C94.3984 34.0508 94.2109 34.6797 94.2109 35.4766C94.2109 36.2734 94.3984 36.8984 94.7734 37.3516C95.1562 37.8047 95.6641 38.0312 96.2969 38.0312C96.9062 38.0312 97.3984 37.8047 97.7734 37.3516C98.1562 36.8984 98.3516 36.2734 98.3594 35.4766C98.3516 34.6797 98.1562 34.0508 97.7734 33.5898C97.3984 33.1289 96.9062 32.8984 96.2969 32.8984ZM109.562 45.1562H106.727V34.8906H104.992V44.2422H102.203V24.25H104.992V32.5H106.727V23.8281H109.562V45.1562ZM121.828 25.6328H130.383V24.1562H133.359V31.3047H127.547V32.6875H135.844V35.0312H116.391V32.6875H124.594V31.3047H118.875V24.1562H121.828V25.6328ZM130.383 29.0781V27.7891H121.828V29.0781H130.383ZM133.477 41.5469H121.594V42.7656H134.039V45.0156H118.664V39.4844H130.523V38.3359H118.641V36.1562H133.477V41.5469ZM153.719 32.1953H156.555V34.6562H153.719V45.1562H150.719V23.8281H153.719V32.1953ZM143.008 26.0078C143 28.1875 142.883 30.0938 142.656 31.7266C142.43 33.3516 141.992 34.9062 141.344 36.3906C140.703 37.875 139.773 39.2891 138.555 40.6328L136.211 38.9688C137.156 37.9453 137.906 36.9023 138.461 35.8398C139.016 34.7695 139.418 33.6445 139.668 32.4648C139.926 31.2852 140.086 29.9453 140.148 28.4453H137.148V26.0078H143.008ZM148.914 26.0078C148.914 28.3203 148.809 30.3672 148.598 32.1484C148.387 33.9219 147.965 35.6445 147.332 37.3164C146.707 38.9805 145.797 40.5469 144.602 42.0156L142.234 40.3516C143.172 39.2031 143.91 38.0156 144.449 36.7891C144.996 35.5625 145.391 34.2852 145.633 32.957C145.875 31.6211 146.027 30.1172 146.09 28.4453H143.711V26.0078H148.914ZM176.398 42.6719H156.875V40.2109H161.234V34.9961C160.391 34.4883 159.738 33.8633 159.277 33.1211C158.816 32.3711 158.586 31.5312 158.586 30.6016C158.586 29.4688 158.93 28.4688 159.617 27.6016C160.305 26.7344 161.254 26.0625 162.465 25.5859C163.684 25.1016 165.062 24.8594 166.602 24.8594C168.133 24.8594 169.504 25.1016 170.715 25.5859C171.934 26.0625 172.891 26.7344 173.586 27.6016C174.281 28.4688 174.633 29.4688 174.641 30.6016C174.633 31.5078 174.402 32.332 173.949 33.0742C173.504 33.8086 172.875 34.4297 172.062 34.9375V40.2109H176.398V42.6719ZM166.602 27.2266C165.586 27.2266 164.695 27.3594 163.93 27.625C163.172 27.8906 162.582 28.2773 162.16 28.7852C161.746 29.2852 161.539 29.8906 161.539 30.6016C161.539 31.2891 161.746 31.8867 162.16 32.3945C162.582 32.9023 163.176 33.293 163.941 33.5664C164.707 33.8398 165.594 33.9766 166.602 33.9766C167.602 33.9766 168.484 33.8398 169.25 33.5664C170.016 33.293 170.609 32.9023 171.031 32.3945C171.461 31.8867 171.68 31.2891 171.688 30.6016C171.68 29.8984 171.465 29.293 171.043 28.7852C170.621 28.2773 170.027 27.8906 169.262 27.625C168.496 27.3594 167.609 27.2266 166.602 27.2266ZM169.039 40.2109V36.0742C168.234 36.2227 167.422 36.2969 166.602 36.2969C165.727 36.2969 164.922 36.2227 164.188 36.0742V40.2109H169.039Z" fill="#A23800"/>
</svg>
