<svg width="1141" height="200" viewBox="0 0 1141 200" fill="none" xmlns="http://www.w3.org/2000/svg">
<mask id="mask0_465_987" style="mask-type:alpha" maskUnits="userSpaceOnUse" x="0" y="0" width="1141" height="200">
<path d="M1140.5 0H0.5V200H1140.5V0Z" fill="black"/>
</mask>
<g mask="url(#mask0_465_987)">
<path d="M227.284 9H25.8496V78.058H227.284V9Z" fill="#E0DEF0"/>
<path d="M227.284 9H25.8496V78.058H227.284V9Z" stroke="#58595B" stroke-width="1.35355" stroke-miterlimit="10"/>
<path d="M25.8496 116.096H294.42" stroke="#231F20" stroke-width="2.70709"/>
<path d="M25.8496 102.395V129.249" stroke="#231F20" stroke-width="1.35355"/>
<path d="M92.9863 102.395V129.249" stroke="#231F20" stroke-width="1.35355"/>
<path d="M160.121 102.395V129.249" stroke="#231F20" stroke-width="1.35355"/>
<path d="M227.285 102.395V129.249" stroke="#231F20" stroke-width="1.35355"/>
<path d="M294.42 102.395V129.249" stroke="#231F20" stroke-width="1.35355"/>
<path d="M484.351 9H417.215V78.058H484.351V9Z" fill="#E0DEF0"/>
<path d="M551.486 78.085V9" stroke="#231F20" stroke-width="0.812128" stroke-miterlimit="10" stroke-dasharray="4.06 2.98"/>
<path d="M484.351 9H417.215V78.058H484.351V9Z" stroke="#58595B" stroke-width="1.35355" stroke-miterlimit="10"/>
<path d="M484.352 9H618.65V78.058H484.352" stroke="#58595B" stroke-width="1.35355" stroke-miterlimit="10" stroke-dasharray="4.06 2.98"/>
<path d="M417.215 116.096H685.785" stroke="#231F20" stroke-width="2.70709"/>
<path d="M417.215 102.395V129.249" stroke="#231F20" stroke-width="1.35355"/>
<path d="M484.352 102.395V129.249" stroke="#231F20" stroke-width="1.35355"/>
<path d="M551.486 102.395V129.249" stroke="#231F20" stroke-width="1.35355"/>
<path d="M618.648 102.395V129.249" stroke="#231F20" stroke-width="1.35355"/>
<path d="M685.785 102.395V129.249" stroke="#231F20" stroke-width="1.35355"/>
<path d="M808.578 116.096H1077.15" stroke="#231F20" stroke-width="2.70709"/>
<path d="M808.578 102.395V129.249" stroke="#231F20" stroke-width="1.35355"/>
<path d="M875.715 102.395V129.249" stroke="#231F20" stroke-width="1.35355"/>
<path d="M942.852 102.395V129.249" stroke="#231F20" stroke-width="1.35355"/>
<path d="M1009.99 102.395V129.249" stroke="#231F20" stroke-width="1.35355"/>
<path d="M1077.15 102.395V129.249" stroke="#231F20" stroke-width="1.35355"/>
<path d="M1077.12 9H808.553V78.058H1077.12V9Z" fill="#E0DEF0"/>
<path d="M875.715 78.085V9" stroke="#231F20" stroke-width="0.812128" stroke-miterlimit="10" stroke-dasharray="4.06 2.98"/>
<path d="M1009.99 78.085V9" stroke="#231F20" stroke-width="0.812128" stroke-miterlimit="10" stroke-dasharray="4.06 2.98"/>
<path d="M942.852 78.085V9" stroke="#231F20" stroke-width="0.812128" stroke-miterlimit="10" stroke-dasharray="4.06 2.98"/>
<path d="M1077.12 9H808.553V78.058H1077.12V9Z" stroke="#58595B" stroke-width="1.35355" stroke-miterlimit="10"/>
<path d="M359.797 104.376L372.358 90.7863L359.797 77.1426" stroke="#6B9BD2" stroke-width="6.76773" stroke-linecap="round" stroke-linejoin="round"/>
<path d="M343.664 90.75H364.292" stroke="#6B9BD2" stroke-width="13.5355" stroke-linecap="round"/>
<path d="M751.162 104.376L763.723 90.7863L751.162 77.1426" stroke="#6B9BD2" stroke-width="6.76773" stroke-linecap="round" stroke-linejoin="round"/>
<path d="M735.027 90.75H755.655" stroke="#6B9BD2" stroke-width="13.5355" stroke-linecap="round"/>
<path d="M25.9219 172.754C21.6797 172.754 19.1016 169.59 19.1016 164.035C19.1016 158.48 21.6797 155.316 25.9219 155.316C30.1641 155.316 32.7422 158.504 32.7422 164.035C32.7422 169.613 30.1641 172.754 25.9219 172.754ZM25.9219 169.848C27.8906 169.848 29.1562 167.949 29.1328 164.035C29.1328 160.168 27.8906 158.199 25.9219 158.199C23.9531 158.199 22.7109 160.168 22.7109 164.035C22.6875 167.949 23.9531 169.848 25.9219 169.848Z" fill="#231F20"/>
<path d="M94.2715 139.965V155.52H91.0273V143.037H90.9414L87.375 145.271V142.414L91.2207 139.965H94.2715Z" fill="#222222"/>
<path d="M84 163.52H99" stroke="#222222" stroke-width="2" stroke-linecap="square"/>
<path d="M85.2373 184.77V182.213L91.8115 171.965H95.8721V182.17H97.8486V184.77H95.8721V187.52H92.7998V184.77H85.2373ZM88.5029 182.17H92.8428V175.51H92.6924L88.5029 182.041V182.17Z" fill="#222222"/>
<path d="M155.011 155.52L154.989 153.178L160.575 148.043C162.025 146.657 162.81 145.798 162.81 144.562C162.81 143.177 161.768 142.317 160.339 142.328C158.878 142.317 157.922 143.241 157.933 144.734H154.86C154.85 141.694 157.105 139.75 160.382 139.75C163.712 139.75 165.925 141.651 165.925 144.348C165.925 146.12 165.065 147.57 161.864 150.471L159.501 152.77V152.855H166.14V155.52H155.011Z" fill="#222222"/>
<path d="M153 163.52H168" stroke="#222222" stroke-width="2" stroke-linecap="square"/>
<path d="M154.237 184.77V182.213L160.812 171.965H164.872V182.17H166.849V184.77H164.872V187.52H161.8V184.77H154.237ZM157.503 182.17H161.843V175.51H161.692L157.503 182.041V182.17Z" fill="#222222"/>
<path d="M229.457 155.734C226.041 155.734 223.592 153.854 223.527 151.137H226.793C226.847 152.297 227.975 153.06 229.479 153.07C231.025 153.06 232.132 152.2 232.121 150.943C232.132 149.676 231.004 148.784 229.178 148.773H227.738V146.389H229.178C230.714 146.389 231.788 145.551 231.777 144.326C231.788 143.134 230.875 142.317 229.5 142.328C228.125 142.317 226.997 143.091 226.943 144.283H223.85C223.903 141.608 226.31 139.75 229.5 139.75C232.744 139.75 234.903 141.673 234.893 144.133C234.903 145.873 233.689 147.108 231.949 147.42V147.549C234.237 147.828 235.494 149.214 235.473 151.158C235.494 153.822 232.97 155.734 229.457 155.734Z" fill="#222222"/>
<path d="M222 163.52H237" stroke="#222222" stroke-width="2" stroke-linecap="square"/>
<path d="M223.237 184.77V182.213L229.812 171.965H233.872V182.17H235.849V184.77H233.872V187.52H230.8V184.77H223.237ZM226.503 182.17H230.843V175.51H230.692L226.503 182.041V182.17Z" fill="#222222"/>
<path d="M295.648 155.551V172.52H292.109V158.902H292.016L288.125 161.34V158.223L292.32 155.551H295.648Z" fill="#231F20"/>
<path d="M417.922 172.754C413.68 172.754 411.102 169.59 411.102 164.035C411.102 158.48 413.68 155.316 417.922 155.316C422.164 155.316 424.742 158.504 424.742 164.035C424.742 169.613 422.164 172.754 417.922 172.754ZM417.922 169.848C419.891 169.848 421.156 167.949 421.133 164.035C421.133 160.168 419.891 158.199 417.922 158.199C415.953 158.199 414.711 160.168 414.711 164.035C414.688 167.949 415.953 169.848 417.922 169.848Z" fill="#231F20"/>
<path d="M486.271 139.965V155.52H483.027V143.037H482.941L479.375 145.271V142.414L483.221 139.965H486.271Z" fill="#222222"/>
<path d="M476 163.52H491" stroke="#222222" stroke-width="2" stroke-linecap="square"/>
<path d="M477.237 184.77V182.213L483.812 171.965H487.872V182.17H489.849V184.77H487.872V187.52H484.8V184.77H477.237ZM480.503 182.17H484.843V175.51H484.692L480.503 182.041V182.17Z" fill="#222222"/>
<path d="M547.011 155.52L546.989 153.178L552.575 148.043C554.025 146.657 554.81 145.798 554.81 144.562C554.81 143.177 553.768 142.317 552.339 142.328C550.878 142.317 549.922 143.241 549.933 144.734H546.86C546.85 141.694 549.105 139.75 552.382 139.75C555.712 139.75 557.925 141.651 557.925 144.348C557.925 146.12 557.065 147.57 553.864 150.471L551.501 152.77V152.855H558.14V155.52H547.011Z" fill="#222222"/>
<path d="M545 163.52H560" stroke="#222222" stroke-width="2" stroke-linecap="square"/>
<path d="M546.237 184.77V182.213L552.812 171.965H556.872V182.17H558.849V184.77H556.872V187.52H553.8V184.77H546.237ZM549.503 182.17H553.843V175.51H553.692L549.503 182.041V182.17Z" fill="#222222"/>
<path d="M621.457 155.734C618.041 155.734 615.592 153.854 615.527 151.137H618.793C618.847 152.297 619.975 153.06 621.479 153.07C623.025 153.06 624.132 152.2 624.121 150.943C624.132 149.676 623.004 148.784 621.178 148.773H619.738V146.389H621.178C622.714 146.389 623.788 145.551 623.777 144.326C623.788 143.134 622.875 142.317 621.5 142.328C620.125 142.317 618.997 143.091 618.943 144.283H615.85C615.903 141.608 618.31 139.75 621.5 139.75C624.744 139.75 626.903 141.673 626.893 144.133C626.903 145.873 625.689 147.108 623.949 147.42V147.549C626.237 147.828 627.494 149.214 627.473 151.158C627.494 153.822 624.97 155.734 621.457 155.734Z" fill="#222222"/>
<path d="M614 163.52H629" stroke="#222222" stroke-width="2" stroke-linecap="square"/>
<path d="M615.237 184.77V182.213L621.812 171.965H625.872V182.17H627.849V184.77H625.872V187.52H622.8V184.77H615.237ZM618.503 182.17H622.843V175.51H622.692L618.503 182.041V182.17Z" fill="#222222"/>
<path d="M687.648 155.551V172.52H684.109V158.902H684.016L680.125 161.34V158.223L684.32 155.551H687.648Z" fill="#231F20"/>
<path d="M809.922 172.754C805.68 172.754 803.102 169.59 803.102 164.035C803.102 158.48 805.68 155.316 809.922 155.316C814.164 155.316 816.742 158.504 816.742 164.035C816.742 169.613 814.164 172.754 809.922 172.754ZM809.922 169.848C811.891 169.848 813.156 167.949 813.133 164.035C813.133 160.168 811.891 158.199 809.922 158.199C807.953 158.199 806.711 160.168 806.711 164.035C806.688 167.949 807.953 169.848 809.922 169.848Z" fill="#231F20"/>
<path d="M878.271 139.965V155.52H875.027V143.037H874.941L871.375 145.271V142.414L875.221 139.965H878.271Z" fill="#222222"/>
<path d="M868 163.52H883" stroke="#222222" stroke-width="2" stroke-linecap="square"/>
<path d="M869.237 184.77V182.213L875.812 171.965H879.872V182.17H881.849V184.77H879.872V187.52H876.8V184.77H869.237ZM872.503 182.17H876.843V175.51H876.692L872.503 182.041V182.17Z" fill="#222222"/>
<path d="M939.011 155.52L938.989 153.178L944.575 148.043C946.025 146.657 946.81 145.798 946.81 144.562C946.81 143.177 945.768 142.317 944.339 142.328C942.878 142.317 941.922 143.241 941.933 144.734H938.86C938.85 141.694 941.105 139.75 944.382 139.75C947.712 139.75 949.925 141.651 949.925 144.348C949.925 146.12 949.065 147.57 945.864 150.471L943.501 152.77V152.855H950.14V155.52H939.011Z" fill="#222222"/>
<path d="M937 163.52H952" stroke="#222222" stroke-width="2" stroke-linecap="square"/>
<path d="M938.237 184.77V182.213L944.812 171.965H948.872V182.17H950.849V184.77H948.872V187.52H945.8V184.77H938.237ZM941.503 182.17H945.843V175.51H945.692L941.503 182.041V182.17Z" fill="#222222"/>
<path d="M1013.46 155.734C1010.04 155.734 1007.59 153.854 1007.53 151.137H1010.79C1010.85 152.297 1011.97 153.06 1013.48 153.07C1015.03 153.06 1016.13 152.2 1016.12 150.943C1016.13 149.676 1015 148.784 1013.18 148.773H1011.74V146.389H1013.18C1014.71 146.389 1015.79 145.551 1015.78 144.326C1015.79 143.134 1014.88 142.317 1013.5 142.328C1012.12 142.317 1011 143.091 1010.94 144.283H1007.85C1007.9 141.608 1010.31 139.75 1013.5 139.75C1016.74 139.75 1018.9 141.673 1018.89 144.133C1018.9 145.873 1017.69 147.108 1015.95 147.42V147.549C1018.24 147.828 1019.49 149.214 1019.47 151.158C1019.49 153.822 1016.97 155.734 1013.46 155.734Z" fill="#222222"/>
<path d="M1006 163.52H1021" stroke="#222222" stroke-width="2" stroke-linecap="square"/>
<path d="M1007.24 184.77V182.213L1013.81 171.965H1017.87V182.17H1019.85V184.77H1017.87V187.52H1014.8V184.77H1007.24ZM1010.5 182.17H1014.84V175.51H1014.69L1010.5 182.041V182.17Z" fill="#222222"/>
<path d="M1079.65 155.551V172.52H1076.11V158.902H1076.02L1072.12 161.34V158.223L1076.32 155.551H1079.65Z" fill="#231F20"/>
</g>
<path d="M729.387 51.8125L726.512 48.9688L731.699 43.8125L726.512 38.6562L729.387 35.7812L734.543 40.9375L739.699 35.7812L742.574 38.6562L737.387 43.8125L742.574 48.9688L739.699 51.8125L734.543 46.6562L729.387 51.8125ZM745.387 51V47.2812L754.949 32.375H760.855V47.2188H763.73V51H760.855V55H756.387V51H745.387ZM750.137 47.2188H756.449V37.5312H756.23L750.137 47.0312V47.2188Z" fill="#231F20"/>
<path d="M350.262 41.8125V45.5312H334.824V41.8125H350.262ZM342.543 52.4375C341.074 52.4375 339.887 51.25 339.887 49.7812C339.887 48.3438 341.074 47.1875 342.543 47.1875C343.98 47.1875 345.137 48.3438 345.137 49.7812C345.137 51.25 343.98 52.4375 342.543 52.4375ZM342.543 40.1875C341.074 40.1875 339.887 39 339.887 37.5312C339.887 36.0625 341.074 34.9062 342.543 34.9062C343.98 34.9062 345.137 36.0625 345.137 37.5312C345.137 39 343.98 40.1875 342.543 40.1875ZM361.98 55.3125C357.012 55.3125 353.449 52.5625 353.355 48.625H358.105C358.199 50.3125 359.824 51.4375 362.012 51.4375C364.262 51.4375 365.887 50.1562 365.855 48.3438C365.887 46.5 364.23 45.1875 361.574 45.1875H359.48V41.7188H361.574C363.793 41.7188 365.355 40.5 365.355 38.7188C365.355 37 364.043 35.8125 362.043 35.8125C360.043 35.8125 358.387 36.9375 358.324 38.6562H353.824C353.887 34.75 357.418 32.0625 362.043 32.0625C366.762 32.0625 369.918 34.8438 369.887 38.4375C369.918 40.9688 368.137 42.7812 365.605 43.2188V43.4062C368.918 43.8125 370.762 45.8438 370.73 48.6562C370.762 52.5312 367.074 55.3125 361.98 55.3125Z" fill="#231F20"/>
<path d="M107.23 55.3125C102.262 55.3125 98.6992 52.5625 98.6055 48.625H103.355C103.449 50.3125 105.074 51.4375 107.262 51.4375C109.512 51.4375 111.137 50.1562 111.105 48.3438C111.137 46.5 109.48 45.1875 106.824 45.1875H104.73V41.7188H106.824C109.043 41.7188 110.605 40.5 110.605 38.7188C110.605 37 109.293 35.8125 107.293 35.8125C105.293 35.8125 103.637 36.9375 103.574 38.6562H99.0742C99.1367 34.75 102.668 32.0625 107.293 32.0625C112.012 32.0625 115.168 34.8438 115.137 38.4375C115.168 40.9688 113.387 42.7812 110.855 43.2188V43.4062C114.168 43.8125 116.012 45.8438 115.98 48.6562C116.012 52.5312 112.324 55.3125 107.23 55.3125ZM124.699 55V32.375H129.324V44.5312H129.574L135.074 38.0312H140.387L134.074 45.375L140.73 55H135.293L130.637 48.0938L129.324 49.5625V55H124.699ZM148.449 61.7188C143.762 61.7188 140.887 59.625 140.605 56.4062H145.168C145.418 57.75 146.699 58.375 148.543 58.375C150.699 58.375 152.137 57.4688 152.137 55.0938V52H151.918C151.293 53.375 149.793 54.75 147.074 54.75C143.23 54.75 140.168 52.0625 140.168 46.4062C140.168 40.6562 143.324 37.8125 147.074 37.8125C149.918 37.8125 151.293 39.5 151.918 40.875H152.105V38.0312H156.699V55.1875C156.699 59.5 153.262 61.7188 148.449 61.7188ZM148.512 51.2812C150.824 51.2812 152.137 49.4688 152.137 46.4688C152.137 43.4375 150.824 41.5 148.512 41.5C146.168 41.5 144.918 43.5312 144.918 46.4688C144.918 49.4062 146.168 51.2812 148.512 51.2812Z" fill="#231F20"/>
</svg>
