<svg width="730" height="286" viewBox="0 0 730 286" fill="none" xmlns="http://www.w3.org/2000/svg">
<path d="M90.5 174.346C117.847 117.218 168.95 78.7617 227.532 78.7617C279.49 78.7617 325.637 109.057 354.479 155.802" stroke="#A7A9AC" stroke-width="4.2729" stroke-miterlimit="10"/>
<path d="M364.566 174.34L339.484 154.215L353.542 154.471L360.763 142.422L364.566 174.34Z" fill="#A7A9AC"/>
<path d="M364.566 174.346C391.913 117.218 443.017 78.7617 501.598 78.7617C553.556 78.7617 599.704 109.057 628.546 155.802" stroke="#A7A9AC" stroke-width="4.2729" stroke-miterlimit="10"/>
<path d="M638.633 174.34L613.551 154.215L627.609 154.471L634.83 142.422L638.633 174.34Z" fill="#A7A9AC"/>
<path d="M228.249 157.456C184.11 157.456 149.5 122.846 149.5 78.7067C149.5 34.5677 184.068 0 228.249 0C272.431 0 306.956 34.5677 306.956 78.7067C306.956 122.846 272.388 157.456 228.249 157.456Z" fill="#D2E4C0"/>
<path d="M502.316 157.456C458.177 157.456 423.566 122.846 423.566 78.7067C423.566 34.5677 458.134 0 502.316 0C546.498 0 581.023 34.5677 581.023 78.7067C581.023 122.846 546.455 157.456 502.316 157.456Z" fill="#D2E4C0"/>
<path d="M166.024 176.77H20.6598C10.6304 176.77 2.5 184.9 2.5 194.929V264.746C2.5 274.776 10.6304 282.906 20.6598 282.906H166.024C176.053 282.906 184.184 274.776 184.184 264.746V194.929C184.184 184.9 176.053 176.77 166.024 176.77Z" fill="#E2EDD7" stroke="#D2E4C0" stroke-width="4.2729" stroke-miterlimit="10"/>
<path d="M437.707 176.77H292.343C282.314 176.77 274.184 184.9 274.184 194.929V264.746C274.184 274.776 282.314 282.906 292.343 282.906H437.707C447.737 282.906 455.867 274.776 455.867 264.746V194.929C455.867 184.9 447.737 176.77 437.707 176.77Z" fill="white" stroke="#D2E4C0" stroke-width="4.2729" stroke-miterlimit="10"/>
<path d="M709.391 176.77H564.027C553.998 176.77 545.867 184.9 545.867 194.929V264.746C545.867 274.776 553.998 282.906 564.027 282.906H709.391C719.42 282.906 727.551 274.776 727.551 264.746V194.929C727.551 184.9 719.42 176.77 709.391 176.77Z" fill="white" stroke="#D2E4C0" stroke-width="4.2729" stroke-miterlimit="10"/>
</svg>
