<svg width="21" height="20" viewBox="0 0 21 20" fill="none" xmlns="http://www.w3.org/2000/svg">
<path d="M5.875 16.9375L3.15625 14.2812L7.9375 9.5625L3.15625 4.875L5.875 2.21875L10.625 6.90625L15.375 2.21875L18.0625 4.875L13.3125 9.5625L18.0625 14.2812L15.375 16.9375L10.625 12.25L5.875 16.9375ZM0.5625 9.5625C0.5625 8.34375 1.5625 7.40625 3.125 7.40625C4.65625 7.40625 5.6875 8.34375 5.6875 9.5625C5.6875 10.7812 4.6875 11.7188 3.125 11.7188C1.5625 11.7188 0.5625 10.7812 0.5625 9.5625ZM8.0625 16.9375C8.0625 15.6875 9.03125 14.75 10.5938 14.75C12.125 14.75 13.1562 15.6875 13.1562 16.9375C13.1562 18.1562 12.125 19.0938 10.5938 19.0938C9.03125 19.0938 8.0625 18.1562 8.0625 16.9375ZM8.0625 2.25C8.0625 1 9.03125 0.0625 10.5938 0.0625C12.125 0.0625 13.1562 1 13.1562 2.25C13.1562 3.4375 12.125 4.375 10.5938 4.375C9.03125 4.375 8.0625 3.4375 8.0625 2.25ZM15.4688 9.5625C15.4688 8.34375 16.5 7.40625 18.0625 7.40625C19.5938 7.40625 20.625 8.34375 20.625 9.5625C20.625 10.7812 19.5938 11.7188 18.0625 11.7188C16.5 11.7188 15.4688 10.7812 15.4688 9.5625Z" fill="#3B71FE"/>
</svg>
