<svg width="49" height="64" viewBox="0 0 49 64" fill="none" xmlns="http://www.w3.org/2000/svg">
<path d="M1 1V19H48V1" stroke="#E4007F" stroke-width="2" stroke-linecap="round"/>
<path d="M24.9375 52.0312C22.7083 52.0312 20.651 51.4792 18.7656 50.375C16.8802 49.2604 15.3854 47.7604 14.2812 45.875C13.1771 43.9792 12.625 41.9167 12.625 39.6875C12.625 37.4583 13.1771 35.401 14.2812 33.5156C15.3854 31.6198 16.8802 30.1198 18.7656 29.0156C20.651 27.901 22.7083 27.3438 24.9375 27.3438C27.1667 27.3438 29.224 27.901 31.1094 29.0156C33.0052 30.1198 34.5052 31.6198 35.6094 33.5156C36.724 35.401 37.2812 37.4583 37.2812 39.6875C37.2812 41.9167 36.724 43.9792 35.6094 45.875C34.5052 47.7604 33.0052 49.2604 31.1094 50.375C29.224 51.4792 27.1667 52.0312 24.9375 52.0312ZM24.9375 49.625C26.7292 49.625 28.3854 49.1771 29.9062 48.2812C31.4375 47.3854 32.651 46.1771 33.5469 44.6562C34.4531 43.1354 34.9062 41.4792 34.9062 39.6875C34.9062 37.8958 34.4531 36.2396 33.5469 34.7188C32.651 33.1979 31.4375 31.9896 29.9062 31.0938C28.3854 30.1979 26.7292 29.75 24.9375 29.75C23.1458 29.75 21.4896 30.1979 19.9688 31.0938C18.4479 31.9896 17.2396 33.1979 16.3438 34.7188C15.4479 36.2396 15 37.8958 15 39.6875C15 41.4792 15.4479 43.1354 16.3438 44.6562C17.2396 46.1771 18.4479 47.3854 19.9688 48.2812C21.4896 49.1771 23.1458 49.625 24.9375 49.625ZM26.875 45.2188H24.6875V36.25H24.5938L22.0938 37.875V35.9375L24.8438 34.1875H26.875V45.2188Z" fill="#E4007F"/>
</svg>
