<svg width="43" height="64" viewBox="0 0 43 64" fill="none" xmlns="http://www.w3.org/2000/svg">
<path d="M1 1V19H42V1" stroke="#E4007F" stroke-width="2" stroke-linecap="round"/>
<path d="M21.3125 52.0312C19.0833 52.0312 17.026 51.4792 15.1406 50.375C13.2552 49.2604 11.7604 47.7604 10.6562 45.875C9.55208 43.9792 9 41.9167 9 39.6875C9 37.4583 9.55208 35.4009 10.6562 33.5155C11.7604 31.6197 13.2552 30.1198 15.1406 29.0156C17.026 27.901 19.0833 27.3438 21.3125 27.3438C23.5417 27.3438 25.599 27.901 27.4844 29.0156C29.3802 30.1198 30.8802 31.6197 31.9844 33.5155C33.099 35.4009 33.6562 37.4583 33.6562 39.6875C33.6562 41.9167 33.099 43.9792 31.9844 45.875C30.8802 47.7604 29.3802 49.2604 27.4844 50.375C25.599 51.4792 23.5417 52.0312 21.3125 52.0312ZM21.3125 49.625C23.1042 49.625 24.7604 49.1771 26.2812 48.2812C27.8125 47.3854 29.026 46.1771 29.9219 44.6562C30.8281 43.1354 31.2812 41.4792 31.2812 39.6875C31.2812 37.8958 30.8281 36.2395 29.9219 34.7188C29.026 33.1978 27.8125 31.9895 26.2812 31.0938C24.7604 30.1978 23.1042 29.75 21.3125 29.75C19.5208 29.75 17.8646 30.1978 16.3438 31.0938C14.8229 31.9895 13.6146 33.1978 12.7188 34.7188C11.8229 36.2395 11.375 37.8958 11.375 39.6875C11.375 41.4792 11.8229 43.1354 12.7188 44.6562C13.6146 46.1771 14.8229 47.3854 16.3438 48.2812C17.8646 49.1771 19.5208 49.625 21.3125 49.625ZM23.25 45.2188H21.0625V36.25H20.9688L18.4688 37.875V35.9375L21.2188 34.1875H23.25V45.2188Z" fill="#E4007F"/>
</svg>
