<svg width="60" height="118" viewBox="0 0 60 118" fill="none" xmlns="http://www.w3.org/2000/svg">
<path d="M1 59.6714V75H59V1" stroke="#00A0E9" stroke-width="2" stroke-linecap="round"/>
<path d="M28.9375 106.031C26.7083 106.031 24.651 105.479 22.7656 104.375C20.8802 103.26 19.3854 101.76 18.2812 99.875C17.1771 97.9792 16.625 95.9167 16.625 93.6875C16.625 91.4583 17.1771 89.401 18.2812 87.5156C19.3854 85.6198 20.8802 84.1198 22.7656 83.0156C24.651 81.901 26.7083 81.3438 28.9375 81.3438C31.1667 81.3438 33.224 81.901 35.1094 83.0156C37.0052 84.1198 38.5052 85.6198 39.6094 87.5156C40.724 89.401 41.2812 91.4583 41.2812 93.6875C41.2812 95.9167 40.724 97.9792 39.6094 99.875C38.5052 101.76 37.0052 103.26 35.1094 104.375C33.224 105.479 31.1667 106.031 28.9375 106.031ZM28.9375 103.625C30.7292 103.625 32.3854 103.177 33.9062 102.281C35.4375 101.385 36.651 100.177 37.5469 98.6562C38.4531 97.1354 38.9062 95.4792 38.9062 93.6875C38.9062 91.8958 38.4531 90.2396 37.5469 88.7188C36.651 87.1979 35.4375 85.9896 33.9062 85.0938C32.3854 84.1979 30.7292 83.75 28.9375 83.75C27.1458 83.75 25.4896 84.1979 23.9688 85.0938C22.4479 85.9896 21.2396 87.1979 20.3438 88.7188C19.4479 90.2396 19 91.8958 19 93.6875C19 95.4792 19.4479 97.1354 20.3438 98.6562C21.2396 100.177 22.4479 101.385 23.9688 102.281C25.4896 103.177 27.1458 103.625 28.9375 103.625ZM25.0938 97.5625L29.0312 93.8438C29.6354 93.25 30.0573 92.7865 30.2969 92.4531C30.5365 92.1094 30.6562 91.7292 30.6562 91.3125C30.6562 90.8229 30.4844 90.4323 30.1406 90.1406C29.7969 89.8385 29.3646 89.6875 28.8438 89.6875C28.3125 89.6875 27.8854 89.8438 27.5625 90.1562C27.25 90.4688 27.0938 90.8958 27.0938 91.4375H25C25 90.7396 25.1615 90.125 25.4844 89.5938C25.8177 89.0625 26.276 88.6562 26.8594 88.375C27.4427 88.0833 28.1146 87.9375 28.875 87.9375C29.6354 87.9375 30.3073 88.0781 30.8906 88.3594C31.4844 88.6302 31.9427 89.0104 32.2656 89.5C32.5885 89.9792 32.75 90.5312 32.75 91.1562C32.75 91.5938 32.6667 92.0156 32.5 92.4219C32.3333 92.8177 32.0417 93.2552 31.625 93.7344C31.2188 94.2135 30.6354 94.8021 29.875 95.5L28.125 97.25V97.3438H32.9062V99.125H25.0938V97.5625Z" fill="#00A0E9"/>
</svg>
