<svg width="600" height="350" viewBox="0 0 600 350" fill="none" xmlns="http://www.w3.org/2000/svg">
<g clip-path="url(#clip0_73_621)">
<path d="M575.57 9.3783H24.4227C11.4848 9.3783 0.996582 20.1452 0.996582 33.4268V324.952C0.996582 338.233 11.4848 349 24.4227 349H575.57C588.508 349 598.997 338.233 598.997 324.952V33.4268C598.997 20.1452 588.508 9.3783 575.57 9.3783Z" stroke="#DCDDDD" stroke-linecap="round"/>
<path d="M56.0679 24.3859C58.19 24.3859 59.9263 22.6035 59.9263 20.8777C59.9263 19.1518 58.19 17.7655 56.0679 17.7655C53.9458 17.7655 52.2095 19.1518 52.2095 20.8777C52.2095 22.6035 53.9458 24.3859 56.0679 24.3859Z" fill="#727171"/>
<path d="M55.639 20.8805C55.639 20.8805 51.064 0.283643 64.0173 1.01924C64.0173 1.01924 69.612 0.96266 69.612 7.866" stroke="#B5B5B6" stroke-width="1.54" stroke-linecap="round"/>
<path d="M106.652 24.3859C108.774 24.3859 110.51 22.6035 110.51 20.8777C110.51 19.1518 108.774 17.7655 106.652 17.7655C104.53 17.7655 102.793 19.1518 102.793 20.8777C102.793 22.6035 104.53 24.3859 106.652 24.3859Z" fill="#727171"/>
<path d="M106.252 20.8819C106.252 20.8819 101.677 0.256813 114.631 1.02071C114.631 1.02071 120.225 0.964122 120.225 7.86746" stroke="#B5B5B6" stroke-width="1.54" stroke-linecap="round"/>
<path d="M157.284 24.3859C159.406 24.3859 161.142 22.6035 161.142 20.8777C161.142 19.1518 159.406 17.7655 157.284 17.7655C155.162 17.7655 153.425 19.1518 153.425 20.8777C153.425 22.6035 155.162 24.3859 157.284 24.3859Z" fill="#727171"/>
<path d="M156.84 20.8805C156.84 20.8805 152.265 0.283643 165.218 1.01924C165.218 1.01924 170.813 0.96266 170.813 7.83771" stroke="#B5B5B6" stroke-width="1.54" stroke-linecap="round"/>
<path d="M511.535 24.3859C513.657 24.3859 515.393 22.6035 515.393 20.8777C515.393 19.1518 513.657 17.7655 511.535 17.7655C509.413 17.7655 507.676 19.1518 507.676 20.8777C507.676 22.6035 509.413 24.3859 511.535 24.3859Z" fill="#727171"/>
<path d="M511.12 20.8805C511.12 20.8805 506.545 0.283643 519.499 1.01924C519.499 1.01924 525.093 0.96266 525.093 7.83771" stroke="#B5B5B6" stroke-width="1.54" stroke-linecap="round"/>
<path d="M207.898 24.3859C210.02 24.3859 211.756 22.6035 211.756 20.8777C211.756 19.1518 210.02 17.7655 207.898 17.7655C205.776 17.7655 204.04 19.1518 204.04 20.8777C204.04 22.6035 205.776 24.3859 207.898 24.3859Z" fill="#727171"/>
<path d="M207.454 20.8805C207.454 20.8805 202.879 0.283643 215.833 1.01924C215.833 1.01924 221.427 0.96266 221.427 7.83771" stroke="#B5B5B6" stroke-width="1.54" stroke-linecap="round"/>
<path d="M562.148 24.3859C564.271 24.3859 566.007 22.6035 566.007 20.8777C566.007 19.1518 564.271 17.7655 562.148 17.7655C560.026 17.7655 558.29 19.1518 558.29 20.8777C558.29 22.6035 560.026 24.3859 562.148 24.3859Z" fill="#727171"/>
<path d="M561.708 20.8805C561.708 20.8805 557.133 0.283643 570.086 1.01924C570.086 1.01924 575.681 0.96266 575.681 7.83771" stroke="#B5B5B6" stroke-width="1.54" stroke-linecap="round"/>
<path d="M258.485 24.3859C260.608 24.3859 262.344 22.6035 262.344 20.8777C262.344 19.1518 260.608 17.7655 258.485 17.7655C256.363 17.7655 254.627 19.1518 254.627 20.8777C254.627 22.6035 256.363 24.3859 258.485 24.3859Z" fill="#727171"/>
<path d="M258.085 20.8805C258.085 20.8805 253.51 0.283643 266.464 1.01924C266.464 1.01924 272.058 0.96266 272.058 7.866" stroke="#B5B5B6" stroke-width="1.54" stroke-linecap="round"/>
<path d="M30.772 24.3859C32.8941 24.3859 34.6304 22.6035 34.6304 20.8777C34.6304 19.1518 32.8941 17.7655 30.772 17.7655C28.6499 17.7655 26.9136 19.1518 26.9136 20.8777C26.9136 22.6035 28.6499 24.3859 30.772 24.3859Z" fill="#727171"/>
<path d="M30.3255 20.8805C30.3255 20.8805 25.7505 0.283643 38.7038 1.01924C38.7038 1.01924 44.2985 0.96266 44.2985 7.866" stroke="#B5B5B6" stroke-width="1.54" stroke-linecap="round"/>
<path d="M81.3599 24.3859C83.482 24.3859 85.2183 22.6035 85.2183 20.8777C85.2183 19.1518 83.482 17.7655 81.3599 17.7655C79.2378 17.7655 77.5015 19.1518 77.5015 20.8777C77.5015 22.6035 79.2378 24.3859 81.3599 24.3859Z" fill="#727171"/>
<path d="M80.9573 20.8805C80.9573 20.8805 76.3824 0.283643 89.3356 1.01924C89.3356 1.01924 94.9303 0.96266 94.9303 7.866" stroke="#B5B5B6" stroke-width="1.54" stroke-linecap="round"/>
<path d="M131.992 24.3859C134.114 24.3859 135.85 22.6035 135.85 20.8777C135.85 19.1518 134.114 17.7655 131.992 17.7655C129.87 17.7655 128.133 19.1518 128.133 20.8777C128.133 22.6035 129.87 24.3859 131.992 24.3859Z" fill="#727171"/>
<path d="M131.548 20.8819C131.548 20.8819 126.973 0.256813 139.926 1.02071C139.926 1.02071 145.521 0.964122 145.521 7.86746" stroke="#B5B5B6" stroke-width="1.54" stroke-linecap="round"/>
<path d="M486.227 24.3859C488.349 24.3859 490.085 22.6035 490.085 20.8777C490.085 19.1518 488.349 17.7655 486.227 17.7655C484.105 17.7655 482.369 19.1518 482.369 20.8777C482.369 22.6035 484.105 24.3859 486.227 24.3859Z" fill="#727171"/>
<path d="M485.798 20.8819C485.798 20.8819 481.223 0.256813 494.176 1.02071C494.176 1.02071 499.771 0.964122 499.771 7.86746" stroke="#B5B5B6" stroke-width="1.54" stroke-linecap="round"/>
<path d="M182.605 24.3859C184.728 24.3859 186.464 22.6035 186.464 20.8777C186.464 19.1518 184.728 17.7655 182.605 17.7655C180.483 17.7655 178.747 19.1518 178.747 20.8777C178.747 22.6035 180.483 24.3859 182.605 24.3859Z" fill="#727171"/>
<path d="M182.159 20.8819C182.159 20.8819 177.584 0.256813 190.537 1.02071C190.537 1.02071 196.132 0.964122 196.132 7.86746" stroke="#B5B5B6" stroke-width="1.54" stroke-linecap="round"/>
<path d="M536.856 24.3859C538.978 24.3859 540.714 22.6035 540.714 20.8777C540.714 19.1518 538.978 17.7655 536.856 17.7655C534.734 17.7655 532.998 19.1518 532.998 20.8777C532.998 22.6035 534.734 24.3859 536.856 24.3859Z" fill="#727171"/>
<path d="M536.412 20.8819C536.412 20.8819 531.837 0.256813 544.791 1.02071C544.791 1.02071 550.385 0.964122 550.385 7.86746" stroke="#B5B5B6" stroke-width="1.54" stroke-linecap="round"/>
<path d="M233.193 24.3859C235.315 24.3859 237.051 22.6035 237.051 20.8777C237.051 19.1518 235.315 17.7655 233.193 17.7655C231.071 17.7655 229.334 19.1518 229.334 20.8777C229.334 22.6035 231.071 24.3859 233.193 24.3859Z" fill="#727171"/>
<path d="M232.746 20.8819C232.746 20.8819 228.171 0.256813 241.125 1.02071C241.125 1.02071 246.719 0.964122 246.719 7.86746" stroke="#B5B5B6" stroke-width="1.54" stroke-linecap="round"/>
<path d="M283.778 24.3859C285.9 24.3859 287.636 22.6035 287.636 20.8777C287.636 19.1518 285.9 17.7655 283.778 17.7655C281.656 17.7655 279.919 19.1518 279.919 20.8777C279.919 22.6035 281.656 24.3859 283.778 24.3859Z" fill="#727171"/>
<path d="M283.378 20.8819C283.378 20.8819 278.803 0.256813 291.756 1.02071C291.756 1.02071 297.351 0.964122 297.351 7.86746" stroke="#B5B5B6" stroke-width="1.54" stroke-linecap="round"/>
<path d="M309.099 24.3859C311.221 24.3859 312.958 22.6035 312.958 20.8777C312.958 19.1518 311.221 17.7655 309.099 17.7655C306.977 17.7655 305.241 19.1518 305.241 20.8777C305.241 22.6035 306.977 24.3859 309.099 24.3859Z" fill="#727171"/>
<path d="M308.673 20.8805C308.673 20.8805 304.098 0.283643 317.051 1.01924C317.051 1.01924 322.646 0.96266 322.646 7.866" stroke="#B5B5B6" stroke-width="1.54" stroke-linecap="round"/>
<path d="M334.152 24.3859C336.274 24.3859 338.01 22.6035 338.01 20.8777C338.01 19.1518 336.274 17.7655 334.152 17.7655C332.03 17.7655 330.293 19.1518 330.293 20.8777C330.293 22.6035 332.03 24.3859 334.152 24.3859Z" fill="#727171"/>
<path d="M333.708 20.8819C333.708 20.8819 329.133 0.256813 342.087 1.02071C342.087 1.02071 347.681 0.964122 347.681 7.83917" stroke="#B5B5B6" stroke-width="1.93" stroke-linecap="round"/>
<path d="M359.448 24.3859C361.57 24.3859 363.306 22.6035 363.306 20.8777C363.306 19.1518 361.57 17.7655 359.448 17.7655C357.326 17.7655 355.589 19.1518 355.589 20.8777C355.589 22.6035 357.326 24.3859 359.448 24.3859Z" fill="#727171"/>
<path d="M359.019 20.8805C359.019 20.8805 354.444 0.283643 367.397 1.01924C367.397 1.01924 372.992 0.96266 372.992 7.866" stroke="#B5B5B6" stroke-width="1.93" stroke-linecap="round"/>
<path d="M384.74 24.3859C386.862 24.3859 388.598 22.6035 388.598 20.8777C388.598 19.1518 386.862 17.7655 384.74 17.7655C382.618 17.7655 380.881 19.1518 380.881 20.8777C380.881 22.6035 382.618 24.3859 384.74 24.3859Z" fill="#727171"/>
<path d="M384.34 20.8819C384.34 20.8819 379.765 0.256813 392.718 1.02071C392.718 1.02071 398.313 0.964122 398.313 7.86746" stroke="#B5B5B6" stroke-width="1.93" stroke-linecap="round"/>
<path d="M410.076 24.3859C412.198 24.3859 413.934 22.6035 413.934 20.8777C413.934 19.1518 412.198 17.7655 410.076 17.7655C407.954 17.7655 406.217 19.1518 406.217 20.8777C406.217 22.6035 407.954 24.3859 410.076 24.3859Z" fill="#727171"/>
<path d="M409.632 20.8819C409.632 20.8819 405.057 0.256813 418.01 1.02071C418.01 1.02071 423.605 0.964122 423.605 7.86746" stroke="#B5B5B6" stroke-width="1.93" stroke-linecap="round"/>
<path d="M460.664 24.3859C462.786 24.3859 464.522 22.6035 464.522 20.8777C464.522 19.1518 462.786 17.7655 460.664 17.7655C458.541 17.7655 456.805 19.1518 456.805 20.8777C456.805 22.6035 458.541 24.3859 460.664 24.3859Z" fill="#727171"/>
<path d="M460.22 20.8805C460.22 20.8805 455.645 0.283643 468.598 1.01924C468.598 1.01924 474.193 0.96266 474.193 7.83771" stroke="#B5B5B6" stroke-width="1.93" stroke-linecap="round"/>
<path d="M435.369 24.3859C437.491 24.3859 439.227 22.6035 439.227 20.8777C439.227 19.1518 437.491 17.7655 435.369 17.7655C433.247 17.7655 431.51 19.1518 431.51 20.8777C431.51 22.6035 433.247 24.3859 435.369 24.3859Z" fill="#727171"/>
<path d="M434.928 20.8805C434.928 20.8805 430.353 0.283643 443.306 1.01924C443.306 1.01924 448.901 0.96266 448.901 7.83771" stroke="#B5B5B6" stroke-width="1.93" stroke-linecap="round"/>
<rect width="45" height="45" transform="translate(30 48)" fill="#EEF9FF"/>
<path d="M30 318V48" stroke="#00A0E9" stroke-miterlimit="10" stroke-dasharray="3 2"/>
<path d="M75 318V48" stroke="#00A0E9" stroke-miterlimit="10" stroke-dasharray="3 2"/>
<path d="M120 318V48" stroke="#00A0E9" stroke-miterlimit="10" stroke-dasharray="3 2"/>
<path d="M165 318V48" stroke="#00A0E9" stroke-miterlimit="10" stroke-dasharray="3 2"/>
<path d="M210 318V48" stroke="#00A0E9" stroke-miterlimit="10" stroke-dasharray="3 2"/>
<path d="M255 318V48" stroke="#00A0E9" stroke-miterlimit="10" stroke-dasharray="3 2"/>
<path d="M300 318V48" stroke="#00A0E9" stroke-miterlimit="10" stroke-dasharray="3 2"/>
<path d="M345 318V48" stroke="#00A0E9" stroke-miterlimit="10" stroke-dasharray="3 2"/>
<path d="M390 318V48" stroke="#00A0E9" stroke-miterlimit="10" stroke-dasharray="3 2"/>
<path d="M435 318V48" stroke="#00A0E9" stroke-miterlimit="10" stroke-dasharray="3 2"/>
<path d="M480 318V48" stroke="#00A0E9" stroke-miterlimit="10" stroke-dasharray="3 2"/>
<path d="M525 318V48" stroke="#00A0E9" stroke-miterlimit="10" stroke-dasharray="3 2"/>
<path d="M570 318V48" stroke="#00A0E9" stroke-miterlimit="10" stroke-dasharray="3 2"/>
<path d="M570 48L30 48" stroke="#00A0E9" stroke-miterlimit="10" stroke-dasharray="3 2"/>
<path d="M570 93L30 93" stroke="#00A0E9" stroke-miterlimit="10" stroke-dasharray="3 2"/>
<path d="M570 138L30 138" stroke="#00A0E9" stroke-miterlimit="10" stroke-dasharray="3 2"/>
<path d="M570 183L30 183" stroke="#00A0E9" stroke-miterlimit="10" stroke-dasharray="3 2"/>
<path d="M570 228L30 228" stroke="#00A0E9" stroke-miterlimit="10" stroke-dasharray="3 2"/>
<path d="M570 273L30 273" stroke="#00A0E9" stroke-miterlimit="10" stroke-dasharray="3 2"/>
<path d="M570 318L30 318" stroke="#00A0E9" stroke-miterlimit="10" stroke-dasharray="3 2"/>
</g>
<defs>
<clipPath id="clip0_73_621">
<rect width="600" height="350" fill="white"/>
</clipPath>
</defs>
</svg>
