<svg width="271" height="180" viewBox="0 0 271 180" fill="none" xmlns="http://www.w3.org/2000/svg">
<path d="M135.5 178.798L2.30278 90.0112L135.5 1.2019L268.697 90.0112L135.5 178.798Z" fill="#DCEDD8" stroke="#222222" stroke-width="2"/>
<mask id="mask0_73_620" style="mask-type:alpha" maskUnits="userSpaceOnUse" x="0" y="0" width="271" height="180">
<path d="M135.5 178.798L2.30278 90.0112L135.5 1.2019L268.697 90.0112L135.5 178.798Z" fill="#DCEDD8" stroke="#222222" stroke-width="2"/>
</mask>
<g mask="url(#mask0_73_620)">
<path d="M44 225V-45" stroke="#00A0E9" stroke-miterlimit="10" stroke-dasharray="3 2"/>
<path d="M89 225V-45" stroke="#00A0E9" stroke-miterlimit="10" stroke-dasharray="3 2"/>
<path d="M134 225V-45" stroke="#00A0E9" stroke-miterlimit="10" stroke-dasharray="3 2"/>
<path d="M179 225V-45" stroke="#00A0E9" stroke-miterlimit="10" stroke-dasharray="3 2"/>
<path d="M224 225V-45" stroke="#00A0E9" stroke-miterlimit="10" stroke-dasharray="3 2"/>
<path d="M269 225V-45" stroke="#00A0E9" stroke-miterlimit="10" stroke-dasharray="3 2"/>
<path d="M404 0L-136 0" stroke="#00A0E9" stroke-miterlimit="10" stroke-dasharray="3 2"/>
<path d="M404 45L-136 45" stroke="#00A0E9" stroke-miterlimit="10" stroke-dasharray="3 2"/>
<path d="M404 90L-136 90" stroke="#00A0E9" stroke-miterlimit="10" stroke-dasharray="3 2"/>
<path d="M404 135L-136 135" stroke="#00A0E9" stroke-miterlimit="10" stroke-dasharray="3 2"/>
<path d="M404 180L-136 180" stroke="#00A0E9" stroke-miterlimit="10" stroke-dasharray="3 2"/>
</g>
<path d="M5.5 90H265.5" stroke="#07BBA9" stroke-width="4" stroke-linecap="round"/>
<path d="M135.5 4L135.5 176" stroke="#6247DC" stroke-width="4" stroke-linecap="round"/>
<path d="M135.5 178.798L2.30278 90.0112L135.5 1.2019L268.697 90.0112L135.5 178.798Z" stroke="#222222" stroke-width="2"/>
</svg>
