<svg width="379" height="191" viewBox="0 0 379 191" fill="none" xmlns="http://www.w3.org/2000/svg">
<mask id="mask0_68_87" style="mask-type:alpha" maskUnits="userSpaceOnUse" x="0" y="0" width="377" height="189">
<path d="M2.21279 187.705L94.9932 2.40089L373.288 187.705H2.21279Z" fill="#FFEFC8" stroke="#222222" stroke-width="2" stroke-linejoin="round"/>
</mask>
<g mask="url(#mask0_68_87)">
<path d="M2.21279 187.705L94.9932 2.40089L373.288 187.705H2.21279Z" fill="#FFEFC8" stroke="#222222" stroke-width="2" stroke-linejoin="round"/>
<path d="M1 232.935V-43.0028" stroke="#00A0E9" stroke-miterlimit="10" stroke-linecap="square" stroke-dasharray="3 2"/>
<path d="M48 232.935V-43.0028" stroke="#00A0E9" stroke-miterlimit="10" stroke-linecap="square" stroke-dasharray="3 2"/>
<path d="M95 232.935V-43.0028" stroke="#00A0E9" stroke-miterlimit="10" stroke-linecap="square" stroke-dasharray="3 2"/>
<path d="M142 232.935V-43.0028" stroke="#00A0E9" stroke-miterlimit="10" stroke-linecap="square" stroke-dasharray="3 2"/>
<path d="M189 232.935V-43.0028" stroke="#00A0E9" stroke-miterlimit="10" stroke-linecap="square" stroke-dasharray="3 2"/>
<path d="M236 232.935V-43.0028" stroke="#00A0E9" stroke-miterlimit="10" stroke-linecap="square" stroke-dasharray="3 2"/>
<path d="M283 232.935V-43.0028" stroke="#00A0E9" stroke-miterlimit="10" stroke-linecap="square" stroke-dasharray="3 2"/>
<path d="M330 232.935V-43.0028" stroke="#00A0E9" stroke-miterlimit="10" stroke-linecap="square" stroke-dasharray="3 2"/>
<path d="M377 232.935V-43.0028" stroke="#00A0E9" stroke-miterlimit="10" stroke-linecap="square" stroke-dasharray="3 2"/>
<path d="M471 1H-46" stroke="#00A0E9" stroke-miterlimit="10" stroke-linecap="square" stroke-dasharray="3 2"/>
<path d="M471 48H-46" stroke="#00A0E9" stroke-miterlimit="10" stroke-linecap="square" stroke-dasharray="3 2"/>
<path d="M471 95H-46" stroke="#00A0E9" stroke-miterlimit="10" stroke-linecap="square" stroke-dasharray="3 2"/>
<path d="M471 142H-46" stroke="#00A0E9" stroke-miterlimit="10" stroke-linecap="square" stroke-dasharray="3 2"/>
<path d="M471 189H-46" stroke="#00A0E9" stroke-miterlimit="10" stroke-linecap="square" stroke-dasharray="3 2"/>
</g>
<path d="M2.21279 187.705L94.9932 2.40089L373.288 187.705H2.21279Z" stroke="#222222" stroke-width="2" stroke-linejoin="round"/>
<path d="M376.594 190.705C377.698 190.705 378.594 189.81 378.594 188.705C378.594 187.6 377.698 186.705 376.594 186.705V190.705ZM0.59375 190.705H376.594V186.705H0.59375V190.705Z" fill="#07BBA9"/>
</svg>
