<svg width="1405" height="229" viewBox="0 0 1405 229" fill="none" xmlns="http://www.w3.org/2000/svg">
<path d="M28.4664 0.369141C20.9135 0.378046 13.6731 3.39472 8.33558 8.75647C2.99805 14.1182 -5.21459e-06 21.3865 0 28.9647L0 200.337C-5.21459e-06 207.915 2.99805 215.183 8.33558 220.545C13.6731 225.907 20.9135 228.923 28.4664 228.932H218.354V0.369141H28.4664Z" fill="#E4E9F7"/>
<path d="M9.51123 76.5801H208.843" stroke="white" stroke-miterlimit="10"/>
<path d="M9.51123 152.789H208.843" stroke="white" stroke-miterlimit="10"/>
<path d="M223.076 7.90248e-05V76.2102H1405V28.5621C1405 24.804 1404.25 21.0837 1402.81 17.6138C1401.38 14.1439 1399.27 10.9925 1396.62 8.33987C1393.96 5.6872 1390.82 3.58527 1387.35 2.15426C1383.89 0.723258 1380.18 -0.00875567 1376.43 7.90248e-05H223.076Z" fill="#EFEEEE"/>
<path d="M420.063 66.6674V9.50977" stroke="white" stroke-miterlimit="10"/>
<path d="M617.051 66.6674V9.50977" stroke="white" stroke-miterlimit="10"/>
<path d="M814.038 66.6674V9.50977" stroke="white" stroke-miterlimit="10"/>
<path d="M1011.03 66.6674V9.50977" stroke="white" stroke-miterlimit="10"/>
<path d="M1208.01 66.6674V9.50977" stroke="white" stroke-miterlimit="10"/>
<path d="M1208.01 152.387H1405V198.255C1405 206.275 1401.82 213.968 1396.17 219.639C1390.52 225.311 1382.85 228.497 1374.86 228.497H1208.01V152.387ZM1011.03 152.387H1208.01V228.497H1011.03V152.387ZM814.038 152.387H1011.03V228.497H814.038V152.387ZM617.051 152.387H814.038V228.497H617.051V152.387ZM420.064 152.387H617.051V228.497H420.064V152.387ZM223.076 152.387H420.064V228.497H223.076V152.387ZM1208.01 76.2109H1405V152.387H1208.01V76.2109ZM1011.03 76.2109H1208.01V152.387H1011.03V76.2109ZM814.038 76.2109H1011.03V152.387H814.038V76.2109ZM617.051 76.2109H814.038V152.387H617.051V76.2109ZM420.064 76.2109H617.051V152.387H420.064V76.2109ZM223.076 76.2109H420.064V152.387H223.076V76.2109Z" fill="white"/>
<path d="M420.063 151.547V76.2109" stroke="#DADADA" stroke-width="0.5" stroke-miterlimit="10"/>
<path d="M617.051 151.547V76.2109" stroke="#DADADA" stroke-width="0.5" stroke-miterlimit="10"/>
<path d="M814.038 151.547V76.2109" stroke="#DADADA" stroke-width="0.5" stroke-miterlimit="10"/>
<path d="M1011.03 151.547V76.2109" stroke="#DADADA" stroke-width="0.5" stroke-miterlimit="10"/>
<path d="M1208.01 151.547V76.2109" stroke="#DADADA" stroke-width="0.5" stroke-miterlimit="10"/>
<path d="M223.076 152.387H420.064" stroke="#DADADA" stroke-width="0.5" stroke-miterlimit="10"/>
<path d="M420.063 152.387H617.051" stroke="#DADADA" stroke-width="0.5" stroke-miterlimit="10"/>
<path d="M420.063 228.597V153.227" stroke="#DADADA" stroke-width="0.5" stroke-miterlimit="10"/>
<path d="M617.051 152.387H814.038" stroke="#DADADA" stroke-width="0.5" stroke-miterlimit="10"/>
<path d="M617.051 228.597V153.227" stroke="#DADADA" stroke-width="0.5" stroke-miterlimit="10"/>
<path d="M814.038 152.387H1011.03" stroke="#DADADA" stroke-width="0.5" stroke-miterlimit="10"/>
<path d="M814.038 228.597V153.227" stroke="#DADADA" stroke-width="0.5" stroke-miterlimit="10"/>
<path d="M1011.03 152.387H1208.01" stroke="#DADADA" stroke-width="0.5" stroke-miterlimit="10"/>
<path d="M1011.03 228.597V153.227" stroke="#DADADA" stroke-width="0.5" stroke-miterlimit="10"/>
<path d="M1208.01 152.387H1405" stroke="#DADADA" stroke-width="0.5" stroke-miterlimit="10"/>
<path d="M1208.01 228.597V153.227" stroke="#DADADA" stroke-width="0.5" stroke-miterlimit="10"/>
<path d="M223.076 227.757H1375.66C1383.22 227.757 1390.46 224.749 1395.8 219.394C1401.15 214.038 1404.15 206.774 1404.16 199.195V75.2363" stroke="#DADADA" stroke-width="0.5"/>
</svg>
