<svg width="1405" height="229" viewBox="0 0 1405 229" fill="none" xmlns="http://www.w3.org/2000/svg">
<g clip-path="url(#clip0_7862_95158)">
<path d="M28.4664 0.369141C20.9135 0.378046 13.6731 3.39472 8.33558 8.75647C2.99805 14.1182 -5.21459e-06 21.3865 0 28.9647L0 200.337C-5.21459e-06 207.915 2.99805 215.183 8.33558 220.545C13.6731 225.907 20.9135 228.923 28.4664 228.932H218.354V0.369141H28.4664Z" fill="#E4E9F7"/>
<path d="M9.51074 76.5801H208.842" stroke="white" stroke-miterlimit="10"/>
<path d="M9.51074 152.789H208.842" stroke="white" stroke-miterlimit="10"/>
<path d="M223.076 7.90248e-05V76.2102H1405V28.5621C1405 24.804 1404.25 21.0837 1402.81 17.6138C1401.38 14.1439 1399.27 10.9925 1396.62 8.33987C1393.96 5.6872 1390.82 3.58527 1387.35 2.15426C1383.89 0.723258 1380.18 -0.00875567 1376.43 7.90248e-05H223.076Z" fill="#EFEEEE"/>
<path d="M420.063 66.6674V9.50977" stroke="white" stroke-miterlimit="10"/>
<path d="M617.051 66.6674V9.50977" stroke="white" stroke-miterlimit="10"/>
<path d="M814.038 66.6674V9.50977" stroke="white" stroke-miterlimit="10"/>
<path d="M1011.03 66.6674V9.50977" stroke="white" stroke-miterlimit="10"/>
<path d="M1208.01 66.6674V9.50977" stroke="white" stroke-miterlimit="10"/>
<path d="M1208.01 152.387H1405V198.255C1405 206.275 1401.82 213.968 1396.17 219.639C1390.52 225.311 1382.85 228.497 1374.86 228.497H1208.01V152.387ZM1011.03 152.387H1208.01V228.497H1011.03V152.387ZM814.038 152.387H1011.03V228.497H814.038V152.387ZM617.051 152.387H814.038V228.497H617.051V152.387ZM420.064 152.387H617.051V228.497H420.064V152.387ZM223.076 152.387H420.064V228.497H223.076V152.387ZM1208.01 76.2109H1405V152.387H1208.01V76.2109ZM1011.03 76.2109H1208.01V152.387H1011.03V76.2109ZM814.038 76.2109H1011.03V152.387H814.038V76.2109ZM617.051 76.2109H814.038V152.387H617.051V76.2109ZM420.064 76.2109H617.051V152.387H420.064V76.2109ZM223.076 76.2109H420.064V152.387H223.076V76.2109Z" fill="white"/>
<path d="M420.063 151.547V76.2109" stroke="#DADADA" stroke-width="0.5" stroke-miterlimit="10"/>
<path d="M617.051 151.547V76.2109" stroke="#DADADA" stroke-width="0.5" stroke-miterlimit="10"/>
<path d="M814.038 151.547V76.2109" stroke="#DADADA" stroke-width="0.5" stroke-miterlimit="10"/>
<path d="M1011.03 151.547V76.2109" stroke="#DADADA" stroke-width="0.5" stroke-miterlimit="10"/>
<path d="M1208.01 151.547V76.2109" stroke="#DADADA" stroke-width="0.5" stroke-miterlimit="10"/>
<path d="M223.076 152.387H420.064" stroke="#DADADA" stroke-width="0.5" stroke-miterlimit="10"/>
<path d="M420.063 152.387H617.051" stroke="#DADADA" stroke-width="0.5" stroke-miterlimit="10"/>
<path d="M420.063 228.597V153.227" stroke="#DADADA" stroke-width="0.5" stroke-miterlimit="10"/>
<path d="M617.051 152.387H814.038" stroke="#DADADA" stroke-width="0.5" stroke-miterlimit="10"/>
<path d="M617.051 228.597V153.227" stroke="#DADADA" stroke-width="0.5" stroke-miterlimit="10"/>
<path d="M814.038 152.387H1011.03" stroke="#DADADA" stroke-width="0.5" stroke-miterlimit="10"/>
<path d="M814.038 228.597V153.227" stroke="#DADADA" stroke-width="0.5" stroke-miterlimit="10"/>
<path d="M1011.03 152.387H1208.01" stroke="#DADADA" stroke-width="0.5" stroke-miterlimit="10"/>
<path d="M1011.03 228.597V153.227" stroke="#DADADA" stroke-width="0.5" stroke-miterlimit="10"/>
<path d="M1208.01 152.387H1405" stroke="#DADADA" stroke-width="0.5" stroke-miterlimit="10"/>
<path d="M1208.01 228.597V153.227" stroke="#DADADA" stroke-width="0.5" stroke-miterlimit="10"/>
<path d="M223.076 227.757H1375.66C1383.22 227.757 1390.46 224.749 1395.8 219.394C1401.15 214.038 1404.15 206.774 1404.16 199.195V75.2363" stroke="#DADADA" stroke-width="0.5"/>
<text fill="black" xml:space="preserve" style="white-space: pre" font-family="Pretendard" font-size="32" letter-spacing="-1px"><tspan x="41" y="126.375">&#xd559;&#xc0dd; &#xc218;(&#xba85;)</tspan></text>
<text fill="black" xml:space="preserve" style="white-space: pre" font-family="Pretendard" font-size="32" letter-spacing="-1px"><tspan x="34" y="49.375">&#xb4e3;&#xace0; &#xc2f6;&#xc740; &#xb9d0;</tspan></text>
<text fill="black" xml:space="preserve" style="white-space: pre" font-family="Pretendard" font-size="32" letter-spacing="-1px"><tspan x="264" y="49.375">&#xac19;&#xc774; &#xb180;&#xc790;</tspan></text>
<text fill="black" xml:space="preserve" style="white-space: pre" font-family="Pretendard" font-size="32" letter-spacing="-1px"><tspan x="312" y="125.375">8</tspan></text>
<text fill="black" xml:space="preserve" style="white-space: pre" font-family="Pretendard" font-size="32" letter-spacing="-1px"><tspan x="509" y="125.375">6</tspan></text>
<text fill="black" xml:space="preserve" style="white-space: pre" font-family="Pretendard" font-size="32" letter-spacing="-1px"><tspan x="703" y="125.375">5</tspan></text>
<text fill="black" xml:space="preserve" style="white-space: pre" font-family="Pretendard" font-size="32" letter-spacing="-1px"><tspan x="903" y="125.375">4</tspan></text>
<text fill="black" xml:space="preserve" style="white-space: pre" font-family="Pretendard" font-size="32" letter-spacing="-1px"><tspan x="1098" y="125.375">2</tspan></text>
<text fill="black" xml:space="preserve" style="white-space: pre" font-family="Pretendard" font-size="32" letter-spacing="-1px"><tspan x="1286" y="125.375">25</tspan></text>
<text fill="black" xml:space="preserve" style="white-space: pre" font-family="Pretendard" font-size="32" letter-spacing="-1px"><tspan x="303" y="202.375">32</tspan></text>
<text fill="black" xml:space="preserve" style="white-space: pre" font-family="Pretendard" font-size="32" letter-spacing="-1px"><tspan x="500" y="202.375">24</tspan></text>
<text fill="black" xml:space="preserve" style="white-space: pre" font-family="Pretendard" font-size="32" letter-spacing="-1px"><tspan x="694" y="202.375">20</tspan></text>
<text fill="black" xml:space="preserve" style="white-space: pre" font-family="Pretendard" font-size="32" letter-spacing="-1px"><tspan x="894" y="202.375">16</tspan></text>
<text fill="black" xml:space="preserve" style="white-space: pre" font-family="Pretendard" font-size="32" letter-spacing="-1px"><tspan x="1097" y="202.375">8</tspan></text>
<text fill="black" xml:space="preserve" style="white-space: pre" font-family="Pretendard" font-size="32" letter-spacing="-1px"><tspan x="1279" y="202.375">100</tspan></text>
<text fill="black" xml:space="preserve" style="white-space: pre" font-family="Pretendard" font-size="32" letter-spacing="-1px"><tspan x="448" y="49.375">&#xc815;&#xb9d0; &#xc798;&#xd55c;&#xb2e4;</tspan></text>
<text fill="black" xml:space="preserve" style="white-space: pre" font-family="Pretendard" font-size="32" letter-spacing="-1px"><tspan x="672" y="49.375">&#xace0;&#xb9c8;&#xc6cc;</tspan></text>
<text fill="black" xml:space="preserve" style="white-space: pre" font-family="Pretendard" font-size="32" letter-spacing="-1px"><tspan x="825" y="49.375">&#xb10c; &#xc88b;&#xc740; &#xce5c;&#xad6c;&#xc57c;</tspan></text>
<text fill="black" xml:space="preserve" style="white-space: pre" font-family="Pretendard" font-size="32" letter-spacing="-1px"><tspan x="1082" y="49.375">&#xae30;&#xd0c0;</tspan></text>
<text fill="black" xml:space="preserve" style="white-space: pre" font-family="Pretendard" font-size="32" letter-spacing="-1px"><tspan x="1279" y="49.375">&#xd569;&#xacc4;</tspan></text>
<text fill="black" xml:space="preserve" style="white-space: pre" font-family="Pretendard" font-size="32" letter-spacing="-1px"><tspan x="45" y="202.375">&#xbc31;&#xbd84;&#xc728;(%)</tspan></text>
</g>
<defs>
<clipPath id="clip0_7862_95158">
<rect width="1405" height="229" fill="white"/>
</clipPath>
</defs>
</svg>
