<svg width="485" height="498" viewBox="0 0 485 498" fill="none" xmlns="http://www.w3.org/2000/svg">
<g style="mix-blend-mode:multiply" opacity="0.15">
<path d="M464.5 3H20.5C9.4543 3 0.5 11.9543 0.5 23V478C0.5 489.046 9.45429 498 20.5 498H464.5C475.546 498 484.5 489.046 484.5 478V23C484.5 11.9543 475.546 3 464.5 3Z" fill="#1D1D1B"/>
</g>
<path d="M451.314 13.0332H33.797C20.9428 13.0332 10.5225 23.4361 10.5225 36.2688V464.76C10.5225 477.593 20.9428 487.996 33.797 487.996H451.314C464.168 487.996 474.589 477.593 474.589 464.76V36.2688C474.589 23.4361 464.168 13.0332 451.314 13.0332Z" fill="white"/>
<mask id="mask0_7862_157476" style="mask-type:luminance" maskUnits="userSpaceOnUse" x="10" y="13" width="465" height="475">
<path d="M451.313 13.0059H33.796C20.9418 13.0059 10.5215 23.4088 10.5215 36.2414V464.733C10.5215 477.566 20.9418 487.969 33.796 487.969H451.313C464.167 487.969 474.588 477.566 474.588 464.733V36.2414C474.588 23.4088 464.167 13.0059 451.313 13.0059Z" fill="white"/>
</mask>
<g mask="url(#mask0_7862_157476)">
<path d="M1413.04 10.9844H-49.2793V45.8651H1413.04V10.9844Z" fill="#D1EAF9"/>
</g>
<path d="M71.6935 75.3289C78.837 75.3559 85.8279 73.2659 91.7807 69.3235C97.7335 65.3811 102.38 59.7636 105.133 53.1827C107.885 46.6017 108.62 39.3532 107.243 32.3553C105.866 25.3575 102.439 18.925 97.3977 13.8726C92.3561 8.82016 85.9259 5.37514 78.9215 3.97385C71.9172 2.57256 64.6539 3.27802 58.0515 6.0009C51.4491 8.72377 45.8046 13.3416 41.833 19.2694C37.8614 25.1972 35.7413 32.1684 35.7412 39.3001C35.7339 48.8341 39.515 57.9817 46.255 64.736C52.9951 71.4904 62.1435 75.2999 71.6935 75.3289Z" fill="white"/>
<path d="M71.6935 75.3289C78.837 75.3559 85.8279 73.2659 91.7807 69.3235C97.7335 65.3811 102.38 59.7636 105.133 53.1827C107.885 46.6017 108.62 39.3532 107.243 32.3553C105.866 25.3575 102.439 18.925 97.3977 13.8726C92.3561 8.82016 85.9259 5.37514 78.9215 3.97385C71.9172 2.57256 64.6539 3.27802 58.0515 6.0009C51.4491 8.72377 45.8046 13.3416 41.833 19.2694C37.8614 25.1972 35.7413 32.1684 35.7412 39.3001C35.7339 48.8341 39.515 57.9817 46.255 64.736C52.9951 71.4904 62.1435 75.2999 71.6935 75.3289Z" stroke="#B8D5E6" stroke-width="5.46945"/>
<text fill="#706F6F" xml:space="preserve" style="white-space: pre" font-family="Pretendard" font-size="32" font-weight="bold" letter-spacing="-1px"><tspan x="62.7959" y="43.7617">1</tspan></text>
<path d="M133.903 45.916H28.3467V79.2386H133.903V45.916Z" fill="white"/>
<g opacity="0.56">
<path d="M451.889 37.0088C452.891 37.0088 453.87 36.7123 454.703 36.1566C455.536 35.6009 456.185 34.8111 456.569 33.887C456.952 32.9629 457.053 31.9461 456.857 30.9651C456.662 29.9841 456.179 29.083 455.471 28.3757C454.762 27.6685 453.86 27.1868 452.877 26.9917C451.895 26.7966 450.876 26.8967 449.95 27.2795C449.025 27.6622 448.234 28.3104 447.677 29.1421C447.12 29.9737 446.823 30.9515 446.823 31.9517C446.823 33.2882 447.353 34.5704 448.297 35.518C449.241 36.4656 450.523 37.0016 451.861 37.0088" fill="white"/>
<path d="M437.376 37.0088C438.379 37.0142 439.361 36.7222 440.198 36.1698C441.034 35.6174 441.688 34.8295 442.076 33.9059C442.463 32.9823 442.567 31.9647 442.375 30.9819C442.183 29.9991 441.702 29.0954 440.995 28.3854C440.288 27.6755 439.385 27.1911 438.402 26.9937C437.418 26.7964 436.399 26.8949 435.471 27.2769C434.544 27.6588 433.751 28.307 433.194 29.1392C432.636 29.9714 432.338 30.9502 432.338 31.9516C432.338 33.2881 432.868 34.5703 433.812 35.5179C434.756 36.4656 436.037 37.0015 437.376 37.0088Z" fill="white"/>
</g>
<path d="M143.022 298.721H342.087C344.142 298.721 346.113 299.536 347.566 300.987C349.02 302.437 349.836 304.405 349.836 306.457V376.656C349.836 378.707 349.02 380.675 347.566 382.126C346.113 383.577 344.142 384.392 342.087 384.392H143.022C142.004 384.392 140.996 384.192 140.056 383.803C139.116 383.414 138.262 382.844 137.542 382.126C136.823 381.407 136.252 380.555 135.862 379.616C135.473 378.677 135.272 377.671 135.272 376.656V306.484C135.272 304.43 136.088 302.459 137.54 301.004C138.993 299.549 140.964 298.728 143.022 298.721Z" stroke="#E6007E" stroke-width="2.73472"/>
<text fill="#1D1D1B" xml:space="preserve" style="white-space: pre" font-family="Pretendard" font-size="32" font-weight="bold" letter-spacing="-1px"><tspan x="120.002" y="455.125">&#xc2dc;&#xc791;&#xd558;&#xae30;&#xb97c; &#xb204;&#xb985;&#xb2c8;&#xb2e4;.</tspan></text>
<path d="M242.557 383.461V408.993" stroke="#E6007E" stroke-width="2.73472"/>
<path d="M237.08 408.967C237.08 410.049 237.401 411.106 238.003 412.005C238.605 412.904 239.46 413.604 240.461 414.018C241.461 414.432 242.563 414.54 243.625 414.329C244.687 414.118 245.663 413.598 246.429 412.833C247.195 412.068 247.716 411.094 247.928 410.034C248.139 408.973 248.03 407.874 247.616 406.875C247.201 405.876 246.5 405.022 245.599 404.421C244.698 403.821 243.64 403.5 242.556 403.5C241.104 403.5 239.711 404.076 238.684 405.101C237.657 406.127 237.08 407.517 237.08 408.967Z" fill="#E6007E"/>
<path d="M77.0596 60.0488H175.223C177.286 60.0488 179.264 60.8668 180.722 62.3227C182.18 63.7786 183 65.7533 183 67.8122V134.922C183 136.981 182.18 138.956 180.722 140.412C179.264 141.868 177.286 142.685 175.223 142.685H77.0596C76.042 142.685 75.0343 142.485 74.0941 142.097C73.154 141.708 72.2998 141.138 71.5802 140.42C70.8606 139.701 70.2898 138.848 69.9004 137.91C69.5109 136.971 69.3105 135.965 69.3105 134.949V67.8122C69.3105 65.758 70.1261 63.7875 71.5785 62.3323C73.031 60.8772 75.0019 60.0561 77.0596 60.0488Z" stroke="#E6007E" stroke-width="2.73472"/>
<path d="M183.958 81.1816H217.282" stroke="#E6007E" stroke-width="2.73472"/>
<path d="M217.308 86.6473C218.392 86.6473 219.45 86.3266 220.351 85.7259C221.251 85.1252 221.953 84.2713 222.368 83.2723C222.782 82.2733 222.891 81.174 222.68 80.1135C222.468 79.053 221.947 78.0788 221.181 77.3142C220.415 76.5496 219.439 76.0289 218.377 75.8179C217.314 75.607 216.213 75.7153 215.213 76.1291C214.212 76.5429 213.357 77.2436 212.755 78.1427C212.153 79.0418 211.832 80.0988 211.832 81.1801C211.832 82.6301 212.409 84.0207 213.436 85.046C214.463 86.0713 215.856 86.6473 217.308 86.6473Z" fill="#E6007E"/>
<path d="M415.253 60.625H227.031V147.799H415.253V60.625Z" fill="white"/>
<mask id="mask1_7862_157476" style="mask-type:luminance" maskUnits="userSpaceOnUse" x="81" y="65" width="272" height="317">
<path d="M352.767 65.2695H81.1123V381.602H352.767V65.2695Z" fill="white"/>
</mask>
<g mask="url(#mask1_7862_157476)">
<mask id="mask2_7862_157476" style="mask-type:luminance" maskUnits="userSpaceOnUse" x="-314" y="-319" width="3470" height="2302">
<path d="M3155.95 -318.857H-313.321V1982.83H3155.95V-318.857Z" fill="white"/>
</mask>
<g mask="url(#mask2_7862_157476)">
<path d="M415.472 60.0195H227.25V147.194H415.472V60.0195Z" fill="white"/>
<mask id="mask3_7862_157476" style="mask-type:luminance" maskUnits="userSpaceOnUse" x="-311" y="-317" width="3465" height="2298">
<path d="M3153.21 -316.123H-310.582V1980.1H3153.21V-316.123Z" fill="white"/>
</mask>
<g mask="url(#mask3_7862_157476)">
<path d="M3091.33 1941.04V1982.04M3091.33 -275.119V-316.123M-246.208 1941.04V1982.04M-246.208 -275.119V-316.123M3114.63 1917.77H3155.7M-269.509 1917.77H-310.582M3114.63 -251.883H3155.7M-269.509 -251.883H-310.582" stroke="white" stroke-width="3.4184" stroke-miterlimit="10"/>
</g>
<mask id="mask4_7862_157476" style="mask-type:luminance" maskUnits="userSpaceOnUse" x="-311" y="-317" width="3465" height="2298">
<path d="M3153.21 -316.123H-310.582V1980.1H3153.21V-316.123Z" fill="white"/>
</mask>
<g mask="url(#mask4_7862_157476)">
<path fill-rule="evenodd" clip-rule="evenodd" d="M150.308 152.582H316.241C317.379 152.578 318.506 152.799 319.557 153.232C320.608 153.665 321.564 154.301 322.368 155.104C323.172 155.907 323.809 156.861 324.243 157.91C324.676 158.96 324.898 160.085 324.894 161.22V277.945C324.898 279.08 324.676 280.205 324.243 281.255C323.809 282.304 323.172 283.258 322.368 284.061C321.564 284.864 320.608 285.5 319.557 285.933C318.506 286.366 317.379 286.587 316.241 286.583H150.308C149.171 286.587 148.044 286.366 146.992 285.933C145.941 285.5 144.986 284.864 144.182 284.061C143.377 283.258 142.74 282.304 142.307 281.255C141.873 280.205 141.652 279.08 141.655 277.945V161.22C141.652 160.085 141.873 158.96 142.307 157.91C142.74 156.861 143.377 155.907 144.182 155.104C144.986 154.301 145.941 153.665 146.992 153.232C148.044 152.799 149.171 152.578 150.308 152.582Z" fill="white"/>
<path fill-rule="evenodd" clip-rule="evenodd" d="M240.284 240.711V197.848H224.238C220.142 198.474 216.426 200.602 213.819 203.817C211.211 207.033 209.898 211.103 210.136 215.233C210.821 226.55 220.35 232.045 228.948 232.1C232.069 233.33 233.876 235.271 233.356 238.414C233.453 239.774 233.09 241.127 232.325 242.257C231.561 243.387 230.439 244.228 229.139 244.647H221.746C197.869 238.606 196.528 220.783 196.692 215.042C196.692 199.597 206.056 186.968 224.074 184.344H262.928C264.495 184.428 265.967 185.117 267.035 186.265C268.102 187.412 268.682 188.929 268.651 190.494C268.762 192.107 268.289 193.705 267.319 194.999C266.35 196.293 264.947 197.197 263.366 197.547H253.235V240.191C252.778 241.499 251.928 242.634 250.801 243.441C249.674 244.249 248.325 244.689 246.937 244.702C242.31 244.456 240.968 242.679 240.421 240.711" fill="#5DA9FF"/>
</g>
<text fill="#38366B" xml:space="preserve" style="white-space: pre" font-family="Inter" font-size="12.3507" letter-spacing="0em"><tspan x="187.546" y="176.122">&#xc27d;</tspan></text>
<text fill="#38366B" xml:space="preserve" style="white-space: pre" font-family="Inter" font-size="12.1695" letter-spacing="0em"><tspan x="198.908" y="176.122">&#xace0;</tspan></text>
<text fill="#38366B" xml:space="preserve" style="white-space: pre" font-family="Inter" font-size="12.3507" letter-spacing="0em"><tspan x="210.192" y="176.122">&#xc7ac;&#xbbf8;&#xc788;</tspan></text>
<text fill="#38366B" xml:space="preserve" style="white-space: pre" font-family="Inter" font-size="12.1695" letter-spacing="0em"><tspan x="244.277" y="176.122">&#xb294;</tspan></text>
<text fill="#38366B" xml:space="preserve" style="white-space: pre" font-family="Inter" font-size="12.3507" letter-spacing="0em"><tspan x="253.838" y="176.122">&#xd1b5;</tspan></text>
<text fill="#38366B" xml:space="preserve" style="white-space: pre" font-family="Inter" font-size="12.1695" letter-spacing="0em"><tspan x="265.2" y="176.122">&#xacc4;</tspan></text>
<text fill="#38366B" xml:space="preserve" style="white-space: pre" font-family="Inter" font-size="17.9016" letter-spacing="0em"><tspan x="154.169" y="271.199">&#xc774;&#xc9c0;&#xd1b5;</tspan></text>
<text fill="#38366B" xml:space="preserve" style="white-space: pre" font-family="Inter" font-size="17.639" letter-spacing="0em"><tspan x="203.573" y="271.199">&#xacc4;</tspan></text>
<text fill="#38366B" xml:space="preserve" style="white-space: pre" font-family="Inter" font-size="17.9016" letter-spacing="0em"><tspan x="232.945" y="270.648">&#xcd08;&#xb4f1;&#xd559;&#xad50;</tspan></text>
<text fill="#38366B" xml:space="preserve" style="white-space: pre" font-family="Inter" font-size="17.639" letter-spacing="0em"><tspan x="298.818" y="270.648">&#xc6a9;</tspan></text>
<mask id="mask5_7862_157476" style="mask-type:luminance" maskUnits="userSpaceOnUse" x="-311" y="-317" width="3465" height="2298">
<path d="M3153.21 -316.123H-310.582V1980.1H3153.21V-316.123Z" fill="white"/>
</mask>
<g mask="url(#mask5_7862_157476)">
<path d="M222.401 264.355H227.796" stroke="#363468" stroke-width="1.88696" stroke-linejoin="round"/>
<path fill-rule="evenodd" clip-rule="evenodd" d="M211.34 252.248C211.34 252.61 211.232 252.964 211.031 253.265C210.829 253.566 210.543 253.801 210.208 253.94C209.872 254.078 209.503 254.115 209.148 254.044C208.792 253.973 208.465 253.799 208.208 253.543C207.952 253.286 207.777 252.96 207.706 252.605C207.635 252.25 207.672 251.881 207.811 251.547C207.949 251.212 208.185 250.926 208.486 250.725C208.788 250.523 209.143 250.416 209.505 250.416C209.992 250.416 210.459 250.609 210.803 250.952C211.147 251.296 211.34 251.762 211.34 252.248Z" fill="#38366B"/>
<path fill-rule="evenodd" clip-rule="evenodd" d="M195.404 252.248C195.41 252.616 195.305 252.979 195.104 253.288C194.903 253.597 194.614 253.84 194.274 253.984C193.934 254.129 193.559 254.17 193.196 254.101C192.833 254.033 192.499 253.858 192.236 253.599C191.973 253.34 191.793 253.009 191.718 252.648C191.644 252.287 191.68 251.911 191.82 251.57C191.96 251.229 192.198 250.937 192.505 250.731C192.812 250.526 193.173 250.416 193.542 250.416C193.786 250.413 194.027 250.457 194.253 250.548C194.479 250.638 194.684 250.772 194.857 250.943C195.031 251.113 195.168 251.316 195.262 251.54C195.356 251.764 195.404 252.005 195.404 252.248Z" fill="#38366B"/>
<path fill-rule="evenodd" clip-rule="evenodd" d="M232.04 214.578C232.035 215.912 231.634 217.215 230.887 218.322C230.141 219.429 229.082 220.29 227.846 220.797C226.61 221.304 225.251 221.433 223.941 221.17C222.631 220.906 221.428 220.261 220.485 219.316C219.542 218.37 218.9 217.167 218.642 215.858C218.383 214.549 218.518 213.193 219.031 211.961C219.544 210.728 220.411 209.676 221.522 208.935C222.634 208.194 223.94 207.799 225.277 207.799C226.167 207.799 227.049 207.974 227.871 208.315C228.694 208.656 229.441 209.156 230.069 209.786C230.697 210.416 231.195 211.164 231.533 211.986C231.872 212.808 232.044 213.689 232.04 214.578Z" fill="#3A87EA"/>
<path d="M232.04 214.578C232.035 215.912 231.634 217.215 230.887 218.322C230.141 219.429 229.082 220.29 227.846 220.797C226.61 221.304 225.251 221.433 223.941 221.17C222.631 220.906 221.428 220.261 220.485 219.316C219.542 218.37 218.9 217.167 218.642 215.858C218.383 214.549 218.518 213.193 219.031 211.961C219.544 210.728 220.411 209.676 221.522 208.935C222.634 208.194 223.94 207.799 225.277 207.799C226.167 207.799 227.049 207.974 227.871 208.315C228.694 208.656 229.441 209.156 230.069 209.786C230.697 210.416 231.195 211.164 231.533 211.986C231.872 212.808 232.044 213.689 232.04 214.578Z" stroke="#3A87EA" stroke-width="4.70372" stroke-linejoin="round"/>
<path fill-rule="evenodd" clip-rule="evenodd" d="M104.306 66.5254H148.363C151.034 66.4264 153.697 66.8661 156.194 67.8181C158.691 68.7702 160.969 70.2151 162.894 72.0665C164.819 73.9178 166.349 76.1376 167.395 78.5931C168.441 81.0486 168.98 83.6894 168.98 86.3576C168.98 89.0258 168.441 91.6666 167.395 94.1222C166.349 96.5777 164.819 98.7975 162.894 100.649C160.969 102.5 158.691 103.945 156.194 104.897C153.697 105.849 151.034 106.289 148.363 106.19H104.306C99.1645 105.999 94.2977 103.826 90.7281 100.128C87.1585 96.4296 85.1641 91.4936 85.1641 86.3576C85.1641 81.2217 87.1585 76.2857 90.7281 72.5873C94.2977 68.8888 99.1645 66.716 104.306 66.5254Z" fill="#0D0C28"/>
</g>
<mask id="mask6_7862_157476" style="mask-type:luminance" maskUnits="userSpaceOnUse" x="85" y="67" width="83" height="39">
<path d="M104.552 67.7031C99.5923 67.7031 94.8355 69.6702 91.3282 73.1716C87.8209 76.673 85.8506 81.4219 85.8506 86.3736C85.8506 91.3253 87.8209 96.0742 91.3282 99.5756C94.8355 103.077 99.5923 105.044 104.552 105.044H148.363C153.323 105.044 158.08 103.077 161.587 99.5756C165.095 96.0742 167.065 91.3253 167.065 86.3736C167.065 81.4219 165.095 76.673 161.587 73.1716C158.08 69.6702 153.323 67.7031 148.363 67.7031H104.552Z" fill="white"/>
</mask>
<g mask="url(#mask6_7862_157476)">
<path d="M167.202 67.7031H85.8779V105.017H167.202V67.7031Z" fill="url(#paint0_linear_7862_157476)"/>
</g>
<text fill="white" xml:space="preserve" style="white-space: pre" font-family="Verdana" font-size="19.1674" letter-spacing="0em"><tspan x="92.8604" y="92.9706">ON</tspan></text>
<mask id="mask7_7862_157476" style="mask-type:luminance" maskUnits="userSpaceOnUse" x="-311" y="-317" width="3465" height="2298">
<path d="M3153.21 -316.123H-310.582V1980.1H3153.21V-316.123Z" fill="white"/>
</mask>
<g mask="url(#mask7_7862_157476)">
<path fill-rule="evenodd" clip-rule="evenodd" d="M166.382 86.3705C166.387 89.5129 165.459 92.5862 163.714 95.2016C161.969 97.817 159.487 99.857 156.58 101.063C153.674 102.27 150.474 102.588 147.386 101.978C144.299 101.368 141.461 99.858 139.234 97.6379C137.006 95.4179 135.488 92.588 134.872 89.5064C134.256 86.4248 134.57 83.23 135.773 80.3263C136.976 77.4226 139.015 74.9406 141.632 73.1942C144.249 71.4478 147.326 70.5157 150.473 70.5156C152.561 70.5121 154.629 70.9195 156.559 71.7147C158.489 72.5098 160.243 73.6771 161.721 75.1498C163.198 76.6224 164.371 78.3714 165.171 80.2968C165.97 82.2222 166.382 84.2861 166.382 86.3705Z" fill="white"/>
</g>
<text fill="black" xml:space="preserve" style="white-space: pre" font-family="Inter" font-size="19.2338" letter-spacing="0em"><tspan x="83.1934" y="132.455">&#xad50;&#xacfc;</tspan></text>
<text fill="black" xml:space="preserve" style="white-space: pre" font-family="Inter" font-size="18.9516" letter-spacing="0em"><tspan x="118.581" y="132.455">&#xc11c;</tspan></text>
<text fill="black" xml:space="preserve" style="white-space: pre" font-family="Inter" font-size="19.2338" letter-spacing="0em"><tspan x="134.783" y="132.455">&#xd45c;</tspan></text>
<text fill="black" xml:space="preserve" style="white-space: pre" font-family="Inter" font-size="18.9516" letter-spacing="0em"><tspan x="152.477" y="132.455">&#xd604;</tspan></text>
<mask id="mask8_7862_157476" style="mask-type:luminance" maskUnits="userSpaceOnUse" x="-311" y="-317" width="3465" height="2298">
<path d="M3153.21 -316.123H-310.582V1980.1H3153.21V-316.123Z" fill="white"/>
</mask>
<g mask="url(#mask8_7862_157476)">
<path fill-rule="evenodd" clip-rule="evenodd" d="M124.98 103.428C124.98 103.237 124.98 84.2928 124.98 84.2928L127.061 83.5547L128.485 84.1287C128.485 84.1287 128.485 98.2341 128.485 98.0428C128.485 97.8514 129.005 92.5756 129.005 92.5756L131.524 92.3295L132.4 93.669L135.768 94.2704L136.864 95.4458H138.616L139.629 96.7853L140.204 99.9016L139.739 107.774L138.233 110.945L134.783 114.007L129.963 114.526L125.664 113.05L122.488 109.333L120.079 102.444L119.777 99.2729L121.311 98.2341H122.926L124.98 103.428Z" fill="white"/>
<path d="M126.458 80.0287C126.239 79.8373 126.239 79.728 126.239 79.0446C126.239 78.3612 126.403 77.8145 126.978 77.8145C127.554 77.8145 127.745 78.1152 127.745 79.0172C127.745 79.9193 127.745 79.728 127.471 80.0013C127.41 80.0758 127.332 80.1358 127.245 80.177C127.157 80.2181 127.062 80.2395 126.965 80.2395C126.868 80.2395 126.772 80.2181 126.685 80.177C126.597 80.1358 126.52 80.0758 126.458 80.0013M130.648 81.7508C130.563 81.693 130.494 81.6155 130.446 81.525C130.399 81.4345 130.374 81.3337 130.374 81.2315C130.374 80.9581 130.374 80.7941 130.949 80.3294C131.524 79.8647 131.935 79.5913 132.318 80.0013C132.701 80.4114 132.647 80.7394 132.017 81.3955C131.387 82.0515 131.086 82.0789 130.648 81.7508ZM121.94 81.4228C121.735 81.197 121.543 80.9597 121.365 80.7121C121.174 80.302 121.639 79.7826 122.159 79.7826C122.454 79.8906 122.717 80.0689 122.926 80.302C123.419 80.7667 123.474 80.8761 123.474 81.2041C123.486 81.2992 123.477 81.3959 123.448 81.4872C123.418 81.5785 123.369 81.6623 123.304 81.7327C123.239 81.803 123.159 81.8583 123.07 81.8945C122.981 81.9307 122.885 81.9469 122.789 81.9422C122.515 81.9422 122.378 81.9422 121.94 81.4228ZM132.482 86.1246C132.37 86.0795 132.27 86.0085 132.19 85.9173C132.11 85.8261 132.054 85.7173 132.024 85.5999C131.995 85.4826 131.994 85.3599 132.021 85.242C132.048 85.1242 132.103 85.0144 132.181 84.9218C132.4 84.6758 132.482 84.6484 133.057 84.6211C133.632 84.5938 134.207 84.6211 134.399 85.1132C134.44 85.1991 134.463 85.2923 134.468 85.3874C134.472 85.4825 134.457 85.5775 134.424 85.6668C134.391 85.756 134.34 85.8377 134.274 85.9069C134.209 85.9762 134.13 86.0316 134.043 86.0699C133.532 86.2068 132.993 86.2068 132.482 86.0699M119.503 85.9059C119.175 85.6599 119.147 85.3865 119.312 84.9765C119.476 84.5664 119.832 84.5391 120.434 84.5391C121.037 84.5391 121.666 84.8125 121.666 85.3318C121.666 85.8512 121.31 86.1519 120.407 86.1519C119.503 86.1519 119.75 86.1519 119.503 85.9059ZM131.935 90.4437C131.332 89.9243 131.25 89.8149 131.25 89.4596C131.25 89.2711 131.325 89.0903 131.459 88.957C131.592 88.8237 131.773 88.7488 131.962 88.7488C132.589 88.9473 133.124 89.3646 133.468 89.9243C133.501 90.0781 133.487 90.2382 133.429 90.3843C133.37 90.5303 133.269 90.6556 133.139 90.7444C132.756 90.9357 132.4 90.7444 131.935 90.4437ZM120.818 90.7717C120.379 90.3617 120.462 90.0336 121.174 89.4049C121.885 88.7762 121.776 88.8855 122.077 88.8855C122.378 88.8855 122.707 89.1316 122.707 89.6236C122.707 90.1156 122.707 90.0336 122.214 90.4437C121.721 90.8537 121.228 91.2091 120.818 90.7717ZM132.455 113.488C134.075 113.205 135.572 112.443 136.754 111.301C138.028 110.078 138.873 108.477 139.163 106.736C139.163 105.971 139.163 98.7538 139.163 97.8517C138.917 96.3756 138.15 95.6375 137.274 96.1022C136.891 96.2936 136.781 96.6763 136.781 98.2891C136.781 99.9019 136.781 99.7379 136.617 99.9293C136.496 100.037 136.34 100.096 136.179 100.096C136.017 100.096 135.861 100.037 135.741 99.9293C135.576 99.7926 135.576 99.6012 135.576 97.6604C135.576 95.7195 135.576 95.0908 135.056 94.7354C134.843 94.602 134.596 94.5313 134.344 94.5313C134.092 94.5313 133.846 94.602 133.632 94.7354C133.085 95.0635 133.03 95.3642 133.03 97.469C133.03 99.5739 133.03 99.2732 132.838 99.4646C132.784 99.5234 132.719 99.5704 132.646 99.6025C132.573 99.6347 132.494 99.6513 132.414 99.6513C132.334 99.6513 132.255 99.6347 132.182 99.6025C132.109 99.5704 132.043 99.5234 131.989 99.4646C131.798 99.3005 131.798 99.1639 131.798 96.731C131.859 95.8208 131.859 94.9075 131.798 93.9974C131.757 93.8291 131.677 93.6726 131.565 93.5402C131.453 93.4077 131.312 93.303 131.153 93.2341C130.994 93.1652 130.821 93.1342 130.648 93.1433C130.475 93.1524 130.306 93.2014 130.155 93.2866C129.196 93.5053 129.196 93.5053 129.196 96.2389V98.6171L128.95 98.8085C128.649 99.0272 128.539 99.0272 128.238 98.8085L127.992 98.6171V92.0565C127.992 84.9218 127.992 85.1132 127.417 84.7305C127.22 84.636 127.005 84.5869 126.787 84.5869C126.569 84.5869 126.354 84.636 126.157 84.7305C125.609 85.0858 125.609 84.7305 125.582 94.4621C125.582 103.182 125.582 103.483 125.39 103.674C125.199 103.866 124.651 103.948 124.487 103.674C124.322 103.401 124.076 102.663 123.693 101.569C122.899 99.3825 122.734 99.1092 122.05 98.9998C121.886 98.9849 121.72 99.003 121.563 99.0529C121.406 99.1029 121.261 99.1839 121.136 99.2909C121.011 99.3979 120.909 99.5289 120.835 99.6762C120.762 99.8234 120.718 99.9838 120.708 100.148C120.917 101.074 121.182 101.987 121.502 102.882C121.968 104.166 122.406 105.615 122.515 105.861L122.762 106.545C122.914 106.85 123.033 107.171 123.118 107.501C123.648 109.473 124.896 111.177 126.618 112.279C128.339 113.381 130.411 113.803 132.427 113.461M129.908 115.183C127.526 114.859 125.335 113.707 123.72 111.93C123.081 111.17 122.538 110.335 122.105 109.442C122.105 109.141 121.639 108.267 121.365 107.447L120.571 105.096L120.133 103.92L119.558 102.362C118.819 100.285 118.874 99.3825 119.804 98.3438C120.076 98.0343 120.414 97.7899 120.793 97.629C121.173 97.4681 121.583 97.3947 121.995 97.4144C122.47 97.369 122.946 97.4951 123.337 97.7697L123.967 98.0978V91.5645C123.967 85.1132 123.967 85.0312 124.186 84.5938C124.395 84.0997 124.746 83.6781 125.194 83.3816C125.642 83.0851 126.167 82.9267 126.705 82.9263C127.179 82.8337 127.671 82.9319 128.074 83.1996C128.457 83.3756 128.794 83.6375 129.06 83.965C129.662 84.7305 129.717 85.0038 129.717 88.3661V91.3731H130.401C130.81 91.3369 131.222 91.393 131.606 91.5371C132.222 91.7853 132.741 92.2266 133.085 92.7946C133.085 92.9859 133.276 93.0679 133.386 93.0133H134.125C134.54 92.9618 134.962 93.012 135.353 93.1597C135.744 93.3073 136.093 93.5479 136.37 93.8607L136.945 94.4347H137.74C138.2 94.3702 138.668 94.4772 139.054 94.7354C139.481 94.9891 139.851 95.3293 140.138 95.7342C140.426 96.1391 140.626 96.5997 140.724 97.0863C140.95 98.6152 141.024 100.163 140.943 101.706C141.028 103.391 141.028 105.079 140.943 106.763C140.692 108.506 139.978 110.151 138.875 111.525C137.773 112.9 136.322 113.955 134.673 114.581C133.185 115.124 131.595 115.329 130.018 115.183" fill="#1B1C1B"/>
<path fill-rule="evenodd" clip-rule="evenodd" d="M173.17 308.615H299.893C303.077 308.507 306.249 309.04 309.222 310.182C312.195 311.323 314.908 313.051 317.198 315.261C319.489 317.471 321.31 320.119 322.554 323.047C323.798 325.974 324.439 329.122 324.439 332.302C324.439 335.482 323.798 338.63 322.554 341.557C321.31 344.485 319.489 347.132 317.198 349.343C314.908 351.553 312.195 353.28 309.222 354.422C306.249 355.564 303.077 356.096 299.893 355.988H173.17C167.017 355.78 161.186 353.193 156.907 348.774C152.628 344.354 150.236 338.448 150.236 332.302C150.236 326.155 152.628 320.25 156.907 315.83C161.186 311.411 167.017 308.824 173.17 308.615Z" fill="#343264"/>
</g>
<path d="M174.841 323.128C174.911 325.445 175.393 327.731 176.264 329.88C177.235 332.299 178.446 334.616 179.879 336.796C180.166 337.166 180.338 337.613 180.372 338.08C180.348 338.235 180.285 338.382 180.189 338.506C180.094 338.63 179.968 338.728 179.824 338.791C179.302 339.035 178.713 339.093 178.154 338.955C177.575 338.778 177.085 338.387 176.785 337.862C176.05 336.721 175.374 335.544 174.758 334.335C174.144 333.117 173.596 331.867 173.116 330.59C172.704 331.916 172.163 333.198 171.5 334.417C170.883 335.636 170.188 336.814 169.419 337.944C169.268 338.191 169.07 338.405 168.834 338.574C168.599 338.743 168.332 338.864 168.05 338.928C167.509 339.071 166.935 339.013 166.434 338.764C166.3 338.709 166.181 338.623 166.086 338.514C165.991 338.405 165.923 338.275 165.887 338.135C165.9 337.655 166.074 337.193 166.38 336.823C167.871 334.626 169.111 332.27 170.076 329.798C170.933 327.625 171.414 325.324 171.5 322.991V322.253C171.5 322.034 171.5 321.843 171.938 321.651C172.309 321.429 172.739 321.324 173.17 321.351C173.611 321.325 174.049 321.43 174.43 321.651C174.543 321.71 174.64 321.795 174.711 321.9C174.783 322.005 174.827 322.126 174.841 322.253V323.128ZM186.314 320.148C186.742 320.115 187.171 320.21 187.546 320.421C187.847 320.585 187.984 320.777 187.984 320.968V343.821C187.984 344.012 187.984 344.204 187.546 344.395C187.167 344.594 186.741 344.688 186.314 344.668C185.886 344.681 185.463 344.587 185.081 344.395C184.78 344.204 184.643 344.012 184.643 343.821V320.968C184.643 320.777 184.643 320.585 185.081 320.421C185.446 320.178 185.874 320.045 186.314 320.039V320.148ZM199.621 328.349C199.055 329.214 198.414 330.029 197.704 330.782C197.049 331.46 196.355 332.099 195.623 332.695C195.182 333.041 194.649 333.25 194.09 333.297C193.539 333.33 192.992 333.187 192.529 332.887C192.401 332.817 192.301 332.706 192.246 332.571C192.192 332.437 192.185 332.287 192.228 332.148C192.403 331.772 192.677 331.451 193.022 331.219C194.438 330.133 195.676 328.832 196.691 327.365C197.393 326.309 197.825 325.099 197.951 323.838H194.747C194.313 323.865 193.878 323.819 193.46 323.702C193.335 323.67 193.225 323.595 193.15 323.49C193.074 323.385 193.039 323.256 193.049 323.128C193.052 322.899 193.111 322.675 193.221 322.475C193.331 322.275 193.488 322.105 193.679 321.979C194.135 321.66 194.683 321.497 195.24 321.515H204.468C204.941 321.485 205.416 321.55 205.864 321.706C205.968 321.74 206.058 321.807 206.122 321.895C206.185 321.983 206.22 322.089 206.22 322.198C206.227 322.429 206.176 322.658 206.07 322.863C205.965 323.069 205.809 323.244 205.618 323.374C205.195 323.697 204.671 323.861 204.139 323.838H201.401C201.491 325.085 201.917 326.285 202.633 327.31C203.664 328.731 204.89 330.001 206.275 331.082C206.62 331.314 206.894 331.635 207.069 332.012C207.108 332.162 207.097 332.32 207.038 332.463C206.979 332.606 206.874 332.726 206.74 332.805C206.529 332.98 206.284 333.11 206.02 333.185C205.756 333.26 205.479 333.28 205.207 333.242C204.538 333.165 203.908 332.889 203.4 332.449C202.715 331.848 202.113 331.246 201.538 330.645C200.845 329.849 200.204 329.009 199.621 328.13V328.349ZM212.326 335.784C212.759 335.744 213.193 335.85 213.558 336.085C213.689 336.162 213.802 336.265 213.891 336.387C213.981 336.509 214.044 336.648 214.079 336.796V343.739C214.079 343.93 214.079 344.122 213.64 344.286C213.275 344.493 212.856 344.588 212.436 344.559C211.998 344.6 211.558 344.504 211.176 344.286C210.902 344.094 210.765 343.903 210.765 343.739V338.272C210.82 338.131 210.82 337.975 210.765 337.834C210.595 337.79 210.416 337.79 210.245 337.834H198.361C197.87 337.86 197.378 337.795 196.91 337.643C196.802 337.607 196.709 337.537 196.645 337.443C196.58 337.349 196.549 337.237 196.554 337.124C196.55 336.887 196.606 336.652 196.716 336.442C196.826 336.232 196.987 336.053 197.184 335.921C197.682 335.631 198.251 335.489 198.827 335.511L212.326 335.784ZM216.817 325.533C217.3 325.493 217.786 325.558 218.241 325.724C218.337 325.77 218.42 325.839 218.482 325.925C218.544 326.011 218.584 326.111 218.597 326.217C218.588 326.441 218.53 326.66 218.426 326.859C218.321 327.057 218.174 327.23 217.994 327.365C217.556 327.701 217.014 327.875 216.461 327.857H214.079V333.324C214.079 333.515 214.079 333.707 213.64 333.898C213.264 334.103 212.837 334.198 212.408 334.171C211.98 334.204 211.551 334.109 211.176 333.898C210.875 333.707 210.738 333.515 210.738 333.324V320.913C210.738 320.722 210.738 320.531 211.176 320.339C211.562 320.159 211.982 320.065 212.408 320.065C212.834 320.065 213.255 320.159 213.64 320.339C213.942 320.531 214.079 320.722 214.079 320.913V325.56L216.817 325.533ZM232.507 323.483C232.963 323.433 233.424 323.499 233.848 323.674C233.935 323.718 234.009 323.784 234.062 323.866C234.115 323.947 234.145 324.042 234.149 324.139C234.132 324.357 234.069 324.569 233.966 324.762C233.862 324.955 233.72 325.125 233.547 325.26C233.346 325.447 233.108 325.592 232.85 325.686C232.591 325.78 232.316 325.821 232.041 325.806H220.924C220.461 325.839 219.997 325.783 219.555 325.642C219.449 325.595 219.359 325.518 219.296 325.421C219.233 325.324 219.199 325.211 219.199 325.096C219.204 324.872 219.264 324.652 219.374 324.457C219.484 324.261 219.64 324.096 219.829 323.975C220.284 323.63 220.846 323.456 221.417 323.483H225.031V321.023C225.031 320.831 225.196 320.64 225.469 320.449C225.843 320.234 226.271 320.129 226.702 320.148C227.073 320.135 227.441 320.219 227.769 320.394C228.071 320.585 228.208 320.777 228.208 320.968V323.428L232.507 323.483ZM226.428 326.217C228.183 326.192 229.883 326.826 231.192 327.993C231.827 328.537 232.335 329.212 232.681 329.973C233.026 330.733 233.2 331.56 233.191 332.394C233.216 333.241 233.043 334.082 232.687 334.85C232.33 335.619 231.8 336.294 231.137 336.823C229.83 337.951 228.155 338.563 226.428 338.545C224.708 338.566 223.041 337.953 221.746 336.823C221.113 336.274 220.606 335.595 220.258 334.834C219.91 334.072 219.73 333.245 219.73 332.408C219.73 331.571 219.91 330.744 220.258 329.982C220.606 329.221 221.113 328.542 221.746 327.993C223.063 326.828 224.778 326.211 226.537 326.271L226.428 326.217ZM226.428 335.975C226.899 335.984 227.367 335.893 227.801 335.709C228.235 335.526 228.625 335.253 228.947 334.909C229.276 334.573 229.534 334.176 229.708 333.739C229.882 333.303 229.968 332.837 229.96 332.367C229.96 331.43 229.597 330.529 228.947 329.852C228.62 329.517 228.228 329.253 227.794 329.074C227.361 328.895 226.896 328.807 226.428 328.813C225.972 328.81 225.52 328.9 225.101 329.079C224.681 329.258 224.304 329.521 223.991 329.852C223.349 330.532 222.995 331.433 223.005 332.367C222.992 332.835 223.073 333.301 223.242 333.737C223.411 334.174 223.666 334.572 223.991 334.909C224.301 335.272 224.688 335.56 225.123 335.754C225.559 335.948 226.033 336.042 226.51 336.03L226.428 335.975ZM243.76 329.196C244.226 329.151 244.695 329.217 245.13 329.388C245.23 329.431 245.315 329.504 245.374 329.597C245.432 329.689 245.462 329.797 245.458 329.907C245.458 330.136 245.404 330.363 245.299 330.567C245.194 330.771 245.042 330.948 244.856 331.082C244.418 331.398 243.889 331.561 243.35 331.547H240.913V343.657C240.913 343.848 240.913 344.04 240.475 344.231C240.104 344.426 239.689 344.521 239.27 344.504C238.842 344.524 238.417 344.43 238.038 344.231C237.736 344.04 237.6 343.848 237.6 343.657V320.968C237.6 320.777 237.6 320.585 238.038 320.394C238.408 320.171 238.838 320.067 239.27 320.093C239.693 320.07 240.112 320.175 240.475 320.394C240.776 320.585 240.913 320.777 240.913 320.968V329.169L243.76 329.196ZM257.451 322.034C258.285 321.981 259.116 322.181 259.834 322.608C260.126 322.835 260.357 323.132 260.505 323.471C260.654 323.81 260.715 324.18 260.682 324.549C260.556 327.216 259.599 329.777 257.944 331.875C256.102 334.46 253.789 336.676 251.126 338.408C250.552 338.821 249.862 339.041 249.155 339.037C248.647 339.033 248.156 338.86 247.758 338.545C247.644 338.464 247.558 338.349 247.514 338.216C247.469 338.084 247.469 337.94 247.512 337.807C247.512 337.479 247.868 337.151 248.443 336.796C250.917 335.162 253.093 333.119 254.877 330.754C256.344 329.146 257.298 327.138 257.616 324.986C257.616 324.713 257.616 324.549 257.451 324.467C257.291 324.417 257.119 324.417 256.958 324.467H250.14C249.601 324.481 249.072 324.318 248.634 324.002C248.447 323.876 248.293 323.704 248.188 323.504C248.083 323.304 248.029 323.08 248.032 322.854C248.035 322.746 248.067 322.641 248.125 322.549C248.183 322.458 248.264 322.384 248.361 322.335C248.797 322.17 249.265 322.104 249.73 322.143L257.451 322.034ZM265.666 343.657V320.804C265.666 320.613 265.666 320.421 266.104 320.257C266.479 320.049 266.908 319.954 267.336 319.984C267.756 319.955 268.175 320.05 268.541 320.257C268.842 320.421 268.979 320.613 268.979 320.804V343.657C268.979 343.848 268.979 344.04 268.541 344.231C268.162 344.43 267.737 344.524 267.309 344.504C266.881 344.52 266.457 344.426 266.077 344.231C265.803 344.085 265.666 343.912 265.666 343.712V343.657Z" fill="white"/>
<mask id="mask9_7862_157476" style="mask-type:luminance" maskUnits="userSpaceOnUse" x="-311" y="-317" width="3465" height="2298">
<path d="M3153.21 -316.123H-310.582V1980.1H3153.21V-316.123Z" fill="white"/>
</mask>
<g mask="url(#mask9_7862_157476)">
<path fill-rule="evenodd" clip-rule="evenodd" d="M311.887 332.312C311.881 335.101 311.048 337.825 309.492 340.141C307.937 342.457 305.728 344.261 303.146 345.325C300.564 346.388 297.724 346.663 294.985 346.116C292.246 345.569 289.731 344.223 287.758 342.249C285.784 340.276 284.441 337.762 283.898 335.027C283.355 332.291 283.637 329.457 284.707 326.881C285.777 324.305 287.588 322.104 289.911 320.555C292.234 319.006 294.965 318.18 297.758 318.18C301.508 318.187 305.101 319.679 307.75 322.329C310.399 324.978 311.887 328.569 311.887 332.312Z" fill="white"/>
<path d="M295.239 324.934L302.578 332.26L295.267 339.586" stroke="#363468" stroke-width="3.77392" stroke-linecap="round" stroke-linejoin="round"/>
<path fill-rule="evenodd" clip-rule="evenodd" d="M320.128 361.397C320.128 361.205 320.128 342.261 320.128 342.261L322.209 341.496L323.606 342.07C323.606 342.07 323.606 356.176 323.606 356.011C323.606 355.847 324.126 350.544 324.126 350.544L326.645 350.298L327.521 351.61L330.889 352.239L331.957 353.415H333.737L334.75 354.727L335.325 357.843L334.86 365.716L333.354 368.887L329.904 371.948L325.084 372.468L320.758 371.019L317.609 367.301L315.2 360.385L314.898 357.242L316.404 356.203H318.02L320.128 361.397Z" fill="white"/>
<path d="M321.497 338.083C321.278 337.865 321.278 337.755 321.278 337.099C321.278 336.443 321.442 335.842 322.017 335.842C322.592 335.842 322.784 336.17 322.784 337.045C322.784 337.919 322.784 337.783 322.483 338.029C322.424 338.103 322.349 338.162 322.263 338.204C322.178 338.245 322.085 338.266 321.99 338.266C321.895 338.266 321.802 338.245 321.716 338.204C321.631 338.162 321.556 338.103 321.497 338.029M325.659 339.751C325.578 339.692 325.513 339.613 325.47 339.522C325.427 339.432 325.407 339.332 325.413 339.231C325.413 338.958 325.413 338.821 325.988 338.357C326.563 337.892 326.973 337.619 327.357 338.001C327.74 338.384 327.685 338.767 327.028 339.395C326.371 340.024 326.097 340.106 325.659 339.751ZM316.979 339.423C316.761 339.209 316.568 338.97 316.404 338.712C316.212 338.329 316.678 337.783 317.198 337.783C317.492 337.904 317.754 338.091 317.965 338.329C318.458 338.794 318.512 338.903 318.512 339.204C318.525 339.299 318.516 339.396 318.486 339.487C318.457 339.579 318.408 339.662 318.343 339.733C318.277 339.803 318.198 339.858 318.109 339.894C318.02 339.931 317.924 339.947 317.828 339.942C317.554 339.942 317.417 339.942 316.979 339.423ZM327.631 344.097C327.519 344.056 327.418 343.988 327.338 343.899C327.258 343.81 327.201 343.704 327.172 343.588C327.142 343.473 327.141 343.352 327.168 343.236C327.196 343.12 327.251 343.012 327.329 342.922C327.548 342.676 327.631 342.648 328.206 342.621C328.781 342.594 329.356 342.621 329.52 343.113C329.566 343.197 329.594 343.289 329.602 343.384C329.61 343.478 329.599 343.574 329.568 343.664C329.537 343.754 329.487 343.837 329.422 343.907C329.358 343.977 329.279 344.032 329.191 344.07C328.68 344.207 328.142 344.207 327.631 344.07M314.652 344.07C314.576 344.023 314.511 343.961 314.461 343.888C314.41 343.815 314.375 343.733 314.357 343.646C314.339 343.559 314.339 343.47 314.356 343.383C314.374 343.296 314.409 343.213 314.46 343.14C314.46 342.867 314.98 342.703 315.583 342.703C316.185 342.703 316.815 342.949 316.815 343.496C316.815 344.043 316.459 344.316 315.555 344.316C314.652 344.316 314.898 344.316 314.652 344.07ZM327.056 348.553C326.453 348.034 326.371 347.897 326.371 347.569C326.371 347.38 326.446 347.2 326.579 347.066C326.713 346.933 326.894 346.858 327.083 346.858C327.71 347.057 328.245 347.474 328.589 348.034C328.62 348.183 328.605 348.339 328.546 348.48C328.488 348.622 328.388 348.742 328.26 348.826C327.877 349.018 327.521 348.826 327.056 348.553ZM315.966 348.854C315.528 348.416 315.61 348.116 316.322 347.46C317.034 346.804 316.924 346.968 317.198 346.968C317.472 346.968 317.855 347.214 317.855 347.678C317.855 348.143 317.855 348.088 317.362 348.526C316.869 348.963 316.377 349.264 315.966 348.854ZM327.603 371.543C329.22 371.267 330.717 370.515 331.902 369.383C333.174 368.147 334.018 366.538 334.312 364.791C334.312 364.025 334.312 356.836 334.312 355.934C334.065 354.458 333.299 353.72 332.422 354.157C332.039 354.376 331.929 354.731 331.929 356.344C331.929 357.957 331.929 357.82 331.765 358.011C331.64 358.109 331.486 358.162 331.327 358.162C331.168 358.162 331.014 358.109 330.889 358.011C330.725 357.875 330.725 357.656 330.725 355.742C330.725 353.829 330.725 353.173 330.204 352.79C329.991 352.657 329.744 352.586 329.492 352.586C329.241 352.586 328.994 352.657 328.781 352.79C328.233 353.118 328.151 353.392 328.151 355.387C328.151 357.383 328.151 357.191 327.959 357.383C327.908 357.441 327.845 357.487 327.774 357.519C327.703 357.551 327.626 357.568 327.548 357.568C327.471 357.568 327.394 357.551 327.323 357.519C327.252 357.487 327.189 357.441 327.138 357.383C326.946 357.191 326.946 357.082 326.946 354.649C327.005 353.739 327.005 352.826 326.946 351.915C326.897 351.752 326.813 351.603 326.699 351.476C326.585 351.35 326.444 351.251 326.287 351.185C326.129 351.12 325.96 351.09 325.79 351.098C325.62 351.106 325.453 351.152 325.303 351.232C324.564 351.587 324.536 351.615 324.509 354.321V356.699L324.263 356.891C323.961 357.137 323.852 357.137 323.551 356.891L323.304 356.699V350.166C323.304 343.031 323.304 343.25 322.729 342.867C322.532 342.759 322.311 342.703 322.086 342.703C321.861 342.703 321.64 342.759 321.442 342.867C320.922 343.223 320.922 342.867 320.895 352.571C320.895 361.292 320.895 361.592 320.703 361.784C320.576 361.888 320.416 361.945 320.251 361.945C320.086 361.945 319.927 361.888 319.799 361.784C319.799 361.784 319.389 360.772 319.005 359.706C318.211 357.519 318.02 357.219 317.362 357.109C317.196 357.094 317.029 357.113 316.87 357.165C316.711 357.217 316.565 357.3 316.439 357.41C316.314 357.52 316.212 357.654 316.14 357.804C316.068 357.955 316.027 358.118 316.021 358.285C316.234 359.21 316.499 360.123 316.815 361.018C317.28 362.303 317.718 363.752 317.828 363.971C317.937 364.189 318.047 364.627 318.074 364.681C318.219 364.99 318.338 365.31 318.43 365.638C318.966 367.605 320.216 369.302 321.938 370.399C323.659 371.496 325.727 371.913 327.74 371.57M325.221 373.319C322.815 372.98 320.599 371.821 318.951 370.039C318.33 369.282 317.797 368.456 317.362 367.579C317.362 367.278 316.897 366.376 316.623 365.583C316.349 364.791 315.966 363.697 315.829 363.205L315.391 362.03C315.391 362.03 315.062 361.182 314.816 360.472C314.077 358.421 314.131 357.492 315.062 356.48C315.331 356.166 315.668 355.916 316.047 355.751C316.427 355.585 316.839 355.507 317.253 355.524C317.726 355.505 318.193 355.629 318.595 355.879L319.224 356.234V349.674C319.224 343.25 319.224 343.141 319.443 342.703C319.653 342.209 320.004 341.787 320.452 341.491C320.9 341.194 321.425 341.036 321.963 341.036C322.437 340.969 322.92 341.065 323.332 341.309C323.709 341.494 324.045 341.754 324.317 342.074C324.92 342.867 324.974 343.113 324.974 346.503V349.482H325.659C326.068 349.435 326.483 349.491 326.864 349.646C327.476 349.901 327.993 350.341 328.342 350.904C328.342 351.095 328.507 351.15 328.644 351.123C329.161 350.957 329.714 350.939 330.241 351.069C330.768 351.2 331.248 351.474 331.628 351.861L332.203 352.435H332.997C333.454 352.376 333.917 352.473 334.312 352.708C334.739 352.969 335.108 353.314 335.395 353.723C335.682 354.133 335.882 354.597 335.982 355.086C336.226 356.687 336.299 358.309 336.201 359.925C336.287 361.609 336.287 363.297 336.201 364.982C335.93 366.711 335.208 368.339 334.107 369.702C333.006 371.065 331.566 372.114 329.931 372.745C328.442 373.286 326.853 373.492 325.276 373.347L325.221 373.319Z" fill="#1B1C1B"/>
</g>
</g>
</g>
<text fill="#1D1D1B" xml:space="preserve" style="white-space: pre" font-family="Pretendard" font-size="32" font-weight="bold" letter-spacing="-1px"><tspan x="230.79" y="98.3496">ON</tspan></text>
<text fill="#1D1D1B" xml:space="preserve" style="white-space: pre" font-family="Pretendard" font-size="32" letter-spacing="-1px"><tspan x="275.571" y="98.3496">&#xc774; &#xb418;&#xb3c4;&#xb85d; &#10;</tspan><tspan x="230.79" y="146.35">&#xb204;&#xb974;&#xace0;</tspan></text>
<defs>
<linearGradient id="paint0_linear_7862_157476" x1="122.449" y1="115.145" x2="122.113" y2="69.9214" gradientUnits="userSpaceOnUse">
<stop stop-color="#38366B"/>
<stop offset="0.75" stop-color="#38366B"/>
<stop offset="1" stop-color="#0D0C28"/>
</linearGradient>
</defs>
</svg>
