<svg width="30" height="34" viewBox="0 0 30 34" fill="none" xmlns="http://www.w3.org/2000/svg">
<g clip-path="url(#clip0_0_16401)">
<path fill-rule="evenodd" clip-rule="evenodd" d="M29.1694 21.8705C30.2187 20.9013 30.2837 19.2651 29.3146 18.2158C28.3455 17.1665 26.7093 17.1015 25.66 18.0706L20.4254 22.9052L20.4254 5.54168C20.4254 2.68496 18.1095 0.36914 15.2528 0.36914C12.3961 0.36914 10.0803 2.68496 10.0803 5.54168L10.0803 22.91L4.84666 18.0715C3.79785 17.1019 2.16157 17.166 1.19194 18.2148C0.222302 19.2637 0.286488 20.8999 1.3353 21.8696L13.491 33.1077C14.4818 34.0236 16.0102 34.024 17.0015 33.1086L29.1694 21.8705Z" fill="#6B9BD2"/>
</g>
<defs>
<clipPath id="clip0_0_16401">
<rect width="33.913" height="30" fill="white" transform="translate(30 0.0429688) rotate(90)"/>
</clipPath>
</defs>
</svg>
