<svg width="517" height="96" viewBox="0 0 517 96" fill="none" xmlns="http://www.w3.org/2000/svg">
<path d="M147.857 95.5441C186.861 95.5441 453.197 96.7947 475.682 95.1533C517.006 92.183 517.006 64.3561 517.006 45.5964C517.006 28.374 517.657 12.1417 486.443 5.44553C464.218 0.677443 195.017 0 150.176 0C102.547 0 53.2509 0.26055 29.5928 2.97028C-4.98229 6.93066 0.28083 29.0254 0.28083 45.6225C0.28083 64.3822 -5.79002 92.2611 42.2556 94.2934C65.8615 95.2835 108.852 95.5702 147.857 95.5702" fill="#E8F1E0"/>
<path d="M509.398 52.1602C509.398 52.1602 503.301 83.9734 466.381 89.8098C466.381 89.8098 512.655 94.8124 509.398 52.1602Z" fill="white"/>
</svg>
