<svg width="175" height="176" viewBox="0 0 175 176" fill="none" xmlns="http://www.w3.org/2000/svg">
<path d="M173.787 87.9976C173.787 40.5245 135.293 2 87.7896 2C40.3165 2 1.79199 40.4942 1.79199 87.9976C1.79199 135.501 40.2862 173.995 87.7896 173.995C135.293 173.995 173.787 135.501 173.787 87.9976Z" fill="#887AB8"/>
<path d="M1.79199 88.002C1.79199 135.505 40.2862 174 87.7896 174V88.002H1.79199Z" fill="#F89C3E"/>
<path d="M173.787 87.9976C173.787 40.4942 135.293 2 87.7896 2C40.3165 2 1.79199 40.4942 1.79199 87.9976C1.79199 135.471 40.2862 173.995 87.7896 173.995C135.293 173.995 173.787 135.501 173.787 87.9976Z" stroke="#231F20" stroke-width="2.27507" stroke-linejoin="round"/>
<path d="M87.7879 16.2305L79.6279 30.3662H84.7544V88.0013H90.8213V30.3662H95.9781L87.7879 16.2305Z" fill="white"/>
<path d="M87.7879 16.2305L79.6279 30.3662H84.7544V88.0013H90.8213V30.3662H95.9781L87.7879 16.2305Z" stroke="#231F20" stroke-width="1.51671" stroke-linejoin="round"/>
<path d="M92.9455 87.9947C92.9455 85.1433 90.64 82.8379 87.7886 82.8379C84.9372 82.8379 82.6318 85.1433 82.6318 87.9947C82.6318 90.8461 84.9372 93.1515 87.7886 93.1515C90.64 93.1515 92.9455 90.8461 92.9455 87.9947Z" fill="#231F20"/>
</svg>
