<svg width="159" height="152" viewBox="0 0 159 152" fill="none" xmlns="http://www.w3.org/2000/svg">
<mask id="mask0_394_1457" style="mask-type:luminance" maskUnits="userSpaceOnUse" x="0" y="0" width="159" height="153">
<path d="M158.668 0.898438H0.479492V152.01H158.668V0.898438Z" fill="white"/>
</mask>
<g mask="url(#mask0_394_1457)">
<path d="M76.0332 76.4609V151.043C117.231 151.043 150.615 117.659 150.615 76.4609H76.0332Z" fill="#53B6E7"/>
<path d="M150.615 76.4573C150.615 35.2594 117.231 1.875 76.0332 1.875V76.4573H150.615Z" fill="#EF4E37"/>
<path d="M1.45215 76.4622C1.45215 117.66 34.8366 151.044 76.0344 151.044V1.90625C34.8366 1.90625 1.45215 35.2907 1.45215 76.4885" fill="#FFF23E"/>
<path d="M128.754 23.7404C99.6312 -5.38221 52.4089 -5.38221 23.2863 23.7404C-5.83631 52.863 -5.83631 100.085 23.2863 129.208C52.4089 158.33 99.6312 158.33 128.754 129.208C157.876 100.085 157.876 52.863 128.754 23.7404Z" stroke="#231F20" stroke-width="1.97308" stroke-linejoin="round"/>
<path d="M68.9551 26.4762H73.4011V76.4608H78.6626V26.4762H83.1086L76.0318 14.2168L68.9551 26.4762Z" fill="white"/>
<path d="M68.9551 26.4762H73.4011V76.4608H78.6626V26.4762H83.1086L76.0318 14.2168L68.9551 26.4762Z" stroke="#231F20" stroke-width="1.31538" stroke-linejoin="round"/>
<path d="M80.5052 76.4547C80.5052 73.9818 78.5058 71.9824 76.0329 71.9824C73.5599 71.9824 71.5605 73.9818 71.5605 76.4547C71.5605 78.9276 73.5599 80.927 76.0329 80.927C78.5058 80.927 80.5052 78.9276 80.5052 76.4547Z" fill="#231F20"/>
</g>
</svg>
