<svg width="269" height="179" viewBox="0 0 269 179" fill="none" xmlns="http://www.w3.org/2000/svg">
<mask id="mask0_9_426" style="mask-type:alpha" maskUnits="userSpaceOnUse" x="1" y="0" width="268" height="179">
<path d="M134.75 177.699L2.80285 89.7494L134.75 1.77805L266.698 89.7494L134.75 177.699Z" fill="#DCEDD8" stroke="#222222" stroke-width="2"/>
</mask>
<g mask="url(#mask0_9_426)">
<path d="M134.75 178.9L1 89.7495L134.75 0.576172L268.501 89.7495L134.75 178.9Z" fill="#DCEDD8"/>
<rect x="-133.5" y="-43.5" width="536.498" height="266.502" stroke="#00A0E9" stroke-dasharray="3 2"/>
<path d="M44.748 219.479V-41.3008" stroke="#00A0E9" stroke-miterlimit="10" stroke-dasharray="3 2"/>
<path d="M89.3262 219.479V-41.3008" stroke="#00A0E9" stroke-miterlimit="10" stroke-dasharray="3 2"/>
<path d="M133.903 219.479V-41.3008" stroke="#00A0E9" stroke-miterlimit="10" stroke-dasharray="3 2"/>
<path d="M178.498 219.479V-41.3008" stroke="#00A0E9" stroke-miterlimit="10" stroke-dasharray="3 2"/>
<path d="M223.903 219.479V-41.3008" stroke="#00A0E9" stroke-miterlimit="10" stroke-dasharray="3 2"/>
<path d="M268.498 219.479V-41.3008" stroke="#00A0E9" stroke-miterlimit="10" stroke-dasharray="3 2"/>
<path d="M223.073 134.326H221.725" stroke="#00A0E9" stroke-width="0.3" stroke-miterlimit="10"/>
<path d="M403.473 133.738H-133.527" stroke="#00A0E9" stroke-miterlimit="10" stroke-dasharray="3 2"/>
<path d="M223.073 178.898H221.725" stroke="#00A0E9" stroke-width="0.3" stroke-miterlimit="10"/>
<path d="M403.473 178.738H-133.527" stroke="#00A0E9" stroke-miterlimit="10" stroke-dasharray="3 2"/>
<path d="M223.075 89.748H221.727" stroke="#00A0E9" stroke-width="0.3" stroke-miterlimit="10"/>
<path d="M403.473 89.7383H-133.527" stroke="#00A0E9" stroke-miterlimit="10" stroke-dasharray="3 2"/>
<path d="M223.073 45.166H221.725" stroke="#00A0E9" stroke-width="0.3" stroke-miterlimit="10"/>
<path d="M403.473 44.7383H-133.527" stroke="#00A0E9" stroke-miterlimit="10" stroke-dasharray="3 2"/>
<path d="M223.073 0.572266H221.725" stroke="#00A0E9" stroke-width="0.3" stroke-miterlimit="10"/>
<path d="M403.473 0.738281H-133.527" stroke="#00A0E9" stroke-miterlimit="10" stroke-dasharray="3 2"/>
</g>
<path d="M134.75 177.699L2.80285 89.7494L134.75 1.77805L266.698 89.7494L134.75 177.699Z" stroke="#222222" stroke-width="2"/>
</svg>
