<svg width="125" height="280" viewBox="0 0 125 280" fill="none" xmlns="http://www.w3.org/2000/svg">
<path d="M92.0514 244.279C41.8693 244.279 1.21094 203.62 1.21094 153.438C1.21094 103.256 41.8999 62.5977 92.0514 62.5977" fill="#DDEDD9"/>
<path d="M92.0514 244.279C41.8693 244.279 1.21094 203.62 1.21094 153.438C1.21094 103.256 41.8999 62.5977 92.0514 62.5977" stroke="#1D1D1B" stroke-width="1.35" stroke-miterlimit="10" stroke-linejoin="round"/>
<path d="M123.767 135.397C119.799 103.468 108.078 77.0036 92.4492 62.9014" stroke="#009FE3" stroke-width="1.35" stroke-miterlimit="10" stroke-dasharray="1.25 1"/>
<path d="M92.4824 244.889C106.951 232.007 118.062 208.717 122.793 180.391" stroke="#009FE3" stroke-width="1.35" stroke-miterlimit="10" stroke-dasharray="1.25 1"/>
<path d="M92.0547 0.81543V293.055" stroke="#1D1D1B" stroke-width="1.35" stroke-linejoin="round"/>
<path d="M70.4141 20.6565C70.4141 25.1436 80.1208 28.7455 92.0558 28.7455C103.991 28.7455 113.698 25.1131 113.698 20.6565C113.698 18.6419 110.279 16.5968 106.005 15.04" stroke="#E6007E" stroke-width="1.35"/>
<path d="M98.6719 13.0266L110.119 11.9277L106.456 15.3465L107.616 20.2304L98.6719 13.0266Z" fill="#E6007E"/>
<path d="M81.9217 13.5146C75.0843 14.8882 70.4141 17.5744 70.4141 20.6573" stroke="#E6007E" stroke-width="1.35"/>
<path d="M96.3603 153.437C96.3603 155.818 94.4068 157.771 92.0259 157.771C89.645 157.771 87.6914 155.818 87.6914 153.437C87.6914 151.056 89.6144 149.103 92.0259 149.103C94.4373 149.103 96.3603 151.026 96.3603 153.437Z" fill="#1D1D1B"/>
</svg>
