<svg width="184" height="280" viewBox="0 0 184 280" fill="none" xmlns="http://www.w3.org/2000/svg">
<path d="M91.5604 244.279C41.3784 244.279 0.689453 203.62 0.689453 153.438C0.689453 103.256 41.3784 62.5977 91.5604 62.5977" fill="#DDEDD9"/>
<path d="M91.5604 244.279C41.3784 244.279 0.689453 203.62 0.689453 153.438C0.689453 103.256 41.3784 62.5977 91.5604 62.5977" stroke="#1D1D1B" stroke-width="1.35" stroke-miterlimit="10" stroke-linejoin="round"/>
<path d="M91.5684 0.81543V293.055" stroke="#1D1D1B" stroke-width="1.35" stroke-linejoin="round"/>
<path d="M69.9277 20.6565C69.9277 25.1436 79.6039 28.7455 91.5695 28.7455C103.504 28.7455 113.211 25.1131 113.211 20.6565C113.211 18.6419 109.792 16.5968 105.519 15.04" stroke="#E6007E" stroke-width="1.35"/>
<path d="M98.2227 13.0266L109.639 11.9277L105.976 15.3465L107.166 20.2304L98.2227 13.0266Z" fill="#E6007E"/>
<path d="M81.4354 13.5146C74.5979 14.8882 69.9277 17.5744 69.9277 20.6573" stroke="#E6007E" stroke-width="1.35"/>
<path d="M91.584 62.5674C141.766 62.5674 182.424 103.256 182.424 153.438C182.424 203.62 141.735 244.279 91.584 244.279" stroke="#1D1D1B" stroke-width="1.35" stroke-miterlimit="10" stroke-linejoin="round"/>
<path d="M152.132 153.438C152.132 203.62 125.027 244.279 91.572 244.279C58.1173 244.279 31.0117 203.59 31.0117 153.438C31.0117 103.256 58.1173 62.5977 91.572 62.5977C125.027 62.5671 152.132 103.256 152.132 153.438Z" stroke="#1D1D1B" stroke-width="1.35" stroke-miterlimit="10" stroke-linejoin="round"/>
<path d="M121.84 153.438C121.84 203.62 108.287 244.279 91.5594 244.279C74.8321 244.279 61.2793 203.59 61.2793 153.438C61.2793 103.256 74.8321 62.5977 91.5594 62.5977C108.287 62.5671 121.84 103.256 121.84 153.438Z" stroke="#1D1D1B" stroke-width="1.35" stroke-miterlimit="10" stroke-linejoin="round"/>
</svg>
