<svg width="872" height="302" viewBox="0 0 872 302" fill="none" xmlns="http://www.w3.org/2000/svg">
<rect x="1" y="1" width="870" height="300" fill="white" fill-opacity="0.93"/>
<rect x="1" y="1" width="870" height="300" stroke="#00A0E9" stroke-width="2"/>
<path d="M1 300.5V0.5" stroke="#00A0E9" stroke-miterlimit="10" stroke-dasharray="3 2"/>
<path d="M31 300.5V0.5" stroke="#00A0E9" stroke-miterlimit="10" stroke-dasharray="3 2"/>
<path d="M61 300.5V0.5" stroke="#00A0E9" stroke-miterlimit="10" stroke-dasharray="3 2"/>
<path d="M91 300.5V0.5" stroke="#00A0E9" stroke-miterlimit="10" stroke-dasharray="3 2"/>
<path d="M121 300.5V0.5" stroke="#00A0E9" stroke-miterlimit="10" stroke-dasharray="3 2"/>
<path d="M151 300.5V0.5" stroke="#00A0E9" stroke-miterlimit="10" stroke-dasharray="3 2"/>
<path d="M181 300.5V0.5" stroke="#00A0E9" stroke-miterlimit="10" stroke-dasharray="3 2"/>
<path d="M211 300.5V0.5" stroke="#00A0E9" stroke-miterlimit="10" stroke-dasharray="3 2"/>
<path d="M241 300.5V0.5" stroke="#00A0E9" stroke-miterlimit="10" stroke-dasharray="3 2"/>
<path d="M271 300.5V0.5" stroke="#00A0E9" stroke-miterlimit="10" stroke-dasharray="3 2"/>
<path d="M301 300.5V0.5" stroke="#00A0E9" stroke-miterlimit="10" stroke-dasharray="3 2"/>
<path d="M331 300.5V0.5" stroke="#00A0E9" stroke-miterlimit="10" stroke-dasharray="3 2"/>
<path d="M361 300.5V0.5" stroke="#00A0E9" stroke-miterlimit="10" stroke-dasharray="3 2"/>
<path d="M391 300.5V0.5" stroke="#00A0E9" stroke-miterlimit="10" stroke-dasharray="3 2"/>
<path d="M421 300.5V0.5" stroke="#00A0E9" stroke-miterlimit="10" stroke-dasharray="3 2"/>
<path d="M451 300.5V0.5" stroke="#00A0E9" stroke-miterlimit="10" stroke-dasharray="3 2"/>
<path d="M481 300.5V0.5" stroke="#00A0E9" stroke-miterlimit="10" stroke-dasharray="3 2"/>
<path d="M511 300.5V0.5" stroke="#00A0E9" stroke-miterlimit="10" stroke-dasharray="3 2"/>
<path d="M541 300.5V0.5" stroke="#00A0E9" stroke-miterlimit="10" stroke-dasharray="3 2"/>
<path d="M571 300.5V0.5" stroke="#00A0E9" stroke-miterlimit="10" stroke-dasharray="3 2"/>
<path d="M601 300.5V0.5" stroke="#00A0E9" stroke-miterlimit="10" stroke-dasharray="3 2"/>
<path d="M631 300.5V0.5" stroke="#00A0E9" stroke-miterlimit="10" stroke-dasharray="3 2"/>
<path d="M661 300.5V0.5" stroke="#00A0E9" stroke-miterlimit="10" stroke-dasharray="3 2"/>
<path d="M691 300.5V0.5" stroke="#00A0E9" stroke-miterlimit="10" stroke-dasharray="3 2"/>
<path d="M721 300.5V0.5" stroke="#00A0E9" stroke-miterlimit="10" stroke-dasharray="3 2"/>
<path d="M751 300.5V0.5" stroke="#00A0E9" stroke-miterlimit="10" stroke-dasharray="3 2"/>
<path d="M781 300.5V0.5" stroke="#00A0E9" stroke-miterlimit="10" stroke-dasharray="3 2"/>
<path d="M811 300.5V0.5" stroke="#00A0E9" stroke-miterlimit="10" stroke-dasharray="3 2"/>
<path d="M841 300.5V0.5" stroke="#00A0E9" stroke-miterlimit="10" stroke-dasharray="3 2"/>
<path d="M871 300.5V0.5" stroke="#00A0E9" stroke-miterlimit="10" stroke-dasharray="3 2"/>
<path d="M870 1H0" stroke="#00A0E9" stroke-miterlimit="10" stroke-dasharray="3 2"/>
<path d="M870 31H0" stroke="#00A0E9" stroke-miterlimit="10" stroke-dasharray="3 2"/>
<path d="M870 61H0" stroke="#00A0E9" stroke-miterlimit="10" stroke-dasharray="3 2"/>
<path d="M870 91H0" stroke="#00A0E9" stroke-miterlimit="10" stroke-dasharray="3 2"/>
<path d="M870 121H0" stroke="#00A0E9" stroke-miterlimit="10" stroke-dasharray="3 2"/>
<path d="M870 151H0" stroke="#00A0E9" stroke-miterlimit="10" stroke-dasharray="3 2"/>
<path d="M870 181H0" stroke="#00A0E9" stroke-miterlimit="10" stroke-dasharray="3 2"/>
<path d="M870 211H0" stroke="#00A0E9" stroke-miterlimit="10" stroke-dasharray="3 2"/>
<path d="M870 241H0" stroke="#00A0E9" stroke-miterlimit="10" stroke-dasharray="3 2"/>
<path d="M870 271H0" stroke="#00A0E9" stroke-miterlimit="10" stroke-dasharray="3 2"/>
<path d="M870 301H0" stroke="#00A0E9" stroke-miterlimit="10" stroke-dasharray="3 2"/>
<rect width="28" height="28" transform="translate(2 2)" fill="#EEF9FF"/>
<rect x="329.5" y="59.5" width="363" height="33" fill="#FFDE6A"/>
<rect x="329.5" y="59.5" width="363" height="33" stroke="#3B71FE" stroke-width="3" stroke-linejoin="round"/>
<rect x="209.5" y="88.5" width="63" height="183" fill="white"/>
<rect x="209.5" y="88.5" width="63" height="183" stroke="#3B71FE" stroke-width="3"/>
<rect x="211" y="90" width="30" height="30" fill="#FFDE6A"/>
<rect x="241" y="90" width="30" height="30" fill="#FFDE6A"/>
<rect x="211" y="120" width="30" height="30" fill="#FFDE6A"/>
<rect x="241" y="120" width="30" height="30" fill="#FFDE6A"/>
<rect x="211" y="150" width="30" height="30" fill="#FFDE6A"/>
<rect x="241" y="150" width="30" height="30" fill="#FFDE6A"/>
<rect x="211" y="180" width="30" height="30" fill="#FFDE6A"/>
<rect x="241" y="180" width="30" height="30" fill="#FFDE6A"/>
<rect x="211" y="210" width="30" height="30" fill="#FFDE6A"/>
<rect x="241" y="210" width="30" height="30" fill="#FFDE6A"/>
<rect x="211" y="240" width="30" height="30" fill="#FFDE6A"/>
<rect x="241" y="240" width="30" height="30" fill="#FFDE6A"/>
<rect x="449.5" y="148.5" width="123" height="93" fill="white"/>
<rect x="449.5" y="148.5" width="123" height="93" stroke="#3B71FE" stroke-width="3" stroke-linejoin="round"/>
<rect x="451" y="150" width="30" height="30" fill="#FFDE6A"/>
<rect x="481" y="150" width="30" height="30" fill="#FFDE6A"/>
<rect x="511" y="150" width="30" height="30" fill="#FFDE6A"/>
<rect x="541" y="150" width="30" height="30" fill="#FFDE6A"/>
<rect x="451" y="180" width="30" height="30" fill="#FFDE6A"/>
<rect x="481" y="180" width="30" height="30" fill="#FFDE6A"/>
<rect x="511" y="180" width="30" height="30" fill="#FFDE6A"/>
<rect x="541" y="180" width="30" height="30" fill="#FFDE6A"/>
<rect x="451" y="210" width="30" height="30" fill="#FFDE6A"/>
<rect x="481" y="210" width="30" height="30" fill="#FFDE6A"/>
<rect x="511" y="210" width="30" height="30" fill="#FFDE6A"/>
<rect x="541" y="210" width="30" height="30" fill="#FFDE6A"/>
</svg>
