<svg width="872" height="301" viewBox="0 0 872 301" fill="none" xmlns="http://www.w3.org/2000/svg">
<rect width="870" height="300" transform="translate(0 0.5)" fill="white" fill-opacity="0.9"/>
<path d="M1 300.5V0.5" stroke="#00A0E9" stroke-miterlimit="10" stroke-dasharray="3 2"/>
<path d="M31 300.5V0.5" stroke="#00A0E9" stroke-miterlimit="10" stroke-dasharray="3 2"/>
<path d="M61 300.5V0.5" stroke="#00A0E9" stroke-miterlimit="10" stroke-dasharray="3 2"/>
<path d="M91 300.5V0.5" stroke="#00A0E9" stroke-miterlimit="10" stroke-dasharray="3 2"/>
<path d="M121 300.5V0.5" stroke="#00A0E9" stroke-miterlimit="10" stroke-dasharray="3 2"/>
<path d="M151 300.5V0.5" stroke="#00A0E9" stroke-miterlimit="10" stroke-dasharray="3 2"/>
<path d="M181 300.5V0.5" stroke="#00A0E9" stroke-miterlimit="10" stroke-dasharray="3 2"/>
<path d="M211 300.5V0.5" stroke="#00A0E9" stroke-miterlimit="10" stroke-dasharray="3 2"/>
<path d="M241 300.5V0.5" stroke="#00A0E9" stroke-miterlimit="10" stroke-dasharray="3 2"/>
<path d="M271 300.5V0.5" stroke="#00A0E9" stroke-miterlimit="10" stroke-dasharray="3 2"/>
<path d="M301 300.5V0.5" stroke="#00A0E9" stroke-miterlimit="10" stroke-dasharray="3 2"/>
<path d="M331 300.5V0.5" stroke="#00A0E9" stroke-miterlimit="10" stroke-dasharray="3 2"/>
<path d="M361 300.5V0.5" stroke="#00A0E9" stroke-miterlimit="10" stroke-dasharray="3 2"/>
<path d="M391 300.5V0.5" stroke="#00A0E9" stroke-miterlimit="10" stroke-dasharray="3 2"/>
<path d="M421 300.5V0.5" stroke="#00A0E9" stroke-miterlimit="10" stroke-dasharray="3 2"/>
<path d="M451 300.5V0.5" stroke="#00A0E9" stroke-miterlimit="10" stroke-dasharray="3 2"/>
<path d="M481 300.5V0.5" stroke="#00A0E9" stroke-miterlimit="10" stroke-dasharray="3 2"/>
<path d="M511 300.5V0.5" stroke="#00A0E9" stroke-miterlimit="10" stroke-dasharray="3 2"/>
<path d="M541 300.5V0.5" stroke="#00A0E9" stroke-miterlimit="10" stroke-dasharray="3 2"/>
<path d="M571 300.5V0.5" stroke="#00A0E9" stroke-miterlimit="10" stroke-dasharray="3 2"/>
<path d="M601 300.5V0.5" stroke="#00A0E9" stroke-miterlimit="10" stroke-dasharray="3 2"/>
<path d="M631 300.5V0.5" stroke="#00A0E9" stroke-miterlimit="10" stroke-dasharray="3 2"/>
<path d="M661 300.5V0.5" stroke="#00A0E9" stroke-miterlimit="10" stroke-dasharray="3 2"/>
<path d="M691 300.5V0.5" stroke="#00A0E9" stroke-miterlimit="10" stroke-dasharray="3 2"/>
<path d="M721 300.5V0.5" stroke="#00A0E9" stroke-miterlimit="10" stroke-dasharray="3 2"/>
<path d="M751 300.5V0.5" stroke="#00A0E9" stroke-miterlimit="10" stroke-dasharray="3 2"/>
<path d="M781 300.5V0.5" stroke="#00A0E9" stroke-miterlimit="10" stroke-dasharray="3 2"/>
<path d="M811 300.5V0.5" stroke="#00A0E9" stroke-miterlimit="10" stroke-dasharray="3 2"/>
<path d="M841 300.5V0.5" stroke="#00A0E9" stroke-miterlimit="10" stroke-dasharray="3 2"/>
<path d="M871 300.5V0.5" stroke="#00A0E9" stroke-miterlimit="10" stroke-dasharray="3 2"/>
<path d="M870 0.5H0" stroke="#00A0E9" stroke-miterlimit="10" stroke-dasharray="3 2"/>
<path d="M870 30.5H0" stroke="#00A0E9" stroke-miterlimit="10" stroke-dasharray="3 2"/>
<path d="M870 60.5H0" stroke="#00A0E9" stroke-miterlimit="10" stroke-dasharray="3 2"/>
<path d="M870 90.5H0" stroke="#00A0E9" stroke-miterlimit="10" stroke-dasharray="3 2"/>
<path d="M870 120.5H0" stroke="#00A0E9" stroke-miterlimit="10" stroke-dasharray="3 2"/>
<path d="M870 150.5H0" stroke="#00A0E9" stroke-miterlimit="10" stroke-dasharray="3 2"/>
<path d="M870 180.5H0" stroke="#00A0E9" stroke-miterlimit="10" stroke-dasharray="3 2"/>
<path d="M870 210.5H0" stroke="#00A0E9" stroke-miterlimit="10" stroke-dasharray="3 2"/>
<path d="M870 240.5H0" stroke="#00A0E9" stroke-miterlimit="10" stroke-dasharray="3 2"/>
<path d="M870 270.5H0" stroke="#00A0E9" stroke-miterlimit="10" stroke-dasharray="3 2"/>
<path d="M870 300.5H0" stroke="#00A0E9" stroke-miterlimit="10" stroke-dasharray="3 2"/>
<rect x="328.5" y="59.5" width="483" height="33" stroke="#3B71FE" stroke-width="3" stroke-linejoin="round"/>
<rect x="330" y="61" width="30" height="30" fill="#FFDE6A"/>
<rect x="360" y="61" width="30" height="30" fill="#FFDE6A"/>
<rect x="390" y="61" width="30" height="30" fill="#FFDE6A"/>
<rect x="420" y="61" width="30" height="30" fill="#FFDE6A"/>
<rect x="450" y="61" width="30" height="30" fill="#FFDE6A"/>
<rect x="480" y="61" width="30" height="30" fill="#FFDE6A"/>
<rect x="510" y="61" width="30" height="30" fill="#FFDE6A"/>
<rect x="540" y="61" width="30" height="30" fill="#FFDE6A"/>
<rect x="570" y="61" width="30" height="30" fill="#FFDE6A"/>
<rect x="600" y="61" width="30" height="30" fill="#FFDE6A"/>
<rect x="630" y="61" width="30" height="30" fill="#FFDE6A"/>
<rect x="660" y="61" width="30" height="30" fill="#FFDE6A"/>
<rect x="690" y="61" width="30" height="30" fill="#FFDE6A"/>
<rect x="720" y="61" width="30" height="30" fill="#FFDE6A"/>
<rect x="750" y="61" width="30" height="30" fill="#FFDE6A"/>
<rect x="780" y="61" width="30" height="30" fill="#FFDE6A"/>
<rect x="118.5" y="88.5" width="123" height="123" fill="white"/>
<rect x="118.5" y="88.5" width="123" height="123" stroke="#3B71FE" stroke-width="3"/>
<rect x="120" y="90" width="30" height="30" fill="#FFDE6A"/>
<rect x="150" y="90" width="30" height="30" fill="#FFDE6A"/>
<rect x="180" y="90" width="30" height="30" fill="#FFDE6A"/>
<rect x="210" y="90" width="30" height="30" fill="#FFDE6A"/>
<rect x="120" y="120" width="30" height="30" fill="#FFDE6A"/>
<rect x="150" y="120" width="30" height="30" fill="#FFDE6A"/>
<rect x="180" y="120" width="30" height="30" fill="#FFDE6A"/>
<rect x="210" y="120" width="30" height="30" fill="#FFDE6A"/>
<rect x="120" y="150" width="30" height="30" fill="#FFDE6A"/>
<rect x="150" y="150" width="30" height="30" fill="#FFDE6A"/>
<rect x="180" y="150" width="30" height="30" fill="#FFDE6A"/>
<rect x="210" y="150" width="30" height="30" fill="#FFDE6A"/>
<rect x="120" y="180" width="30" height="30" fill="#FFDE6A"/>
<rect x="150" y="180" width="30" height="30" fill="#FFDE6A"/>
<rect x="180" y="180" width="30" height="30" fill="#FFDE6A"/>
<rect x="210" y="180" width="30" height="30" fill="#FFDE6A"/>
<rect x="448.5" y="148.5" width="243" height="63" fill="white"/>
<rect x="448.5" y="148.5" width="243" height="63" stroke="#3B71FE" stroke-width="3" stroke-linejoin="round"/>
<rect x="450" y="150" width="30" height="30" fill="#FFDE6A"/>
<rect x="480" y="150" width="30" height="30" fill="#FFDE6A"/>
<rect x="510" y="150" width="30" height="30" fill="#FFDE6A"/>
<rect x="540" y="150" width="30" height="30" fill="#FFDE6A"/>
<rect x="570" y="150" width="30" height="30" fill="#FFDE6A"/>
<rect x="600" y="150" width="30" height="30" fill="#FFDE6A"/>
<rect x="630" y="150" width="30" height="30" fill="#FFDE6A"/>
<rect x="660" y="150" width="30" height="30" fill="#FFDE6A"/>
<rect x="450" y="180" width="30" height="30" fill="#FFDE6A"/>
<rect x="480" y="180" width="30" height="30" fill="#FFDE6A"/>
<rect x="510" y="180" width="30" height="30" fill="#FFDE6A"/>
<rect x="540" y="180" width="30" height="30" fill="#FFDE6A"/>
<rect x="570" y="180" width="30" height="30" fill="#FFDE6A"/>
<rect x="600" y="180" width="30" height="30" fill="#FFDE6A"/>
<rect x="630" y="180" width="30" height="30" fill="#FFDE6A"/>
<rect x="660" y="180" width="30" height="30" fill="#FFDE6A"/>
</svg>
