<svg width="879" height="238" viewBox="0 0 879 238" fill="none" xmlns="http://www.w3.org/2000/svg">
<path d="M58.9824 0.662465C58.9824 0.662465 8.76061 -0.581329 4.33578 34.8979C-0.0890461 70.346 -0.0890462 151.286 1.37115 190.465C2.83134 229.614 12.4775 240.217 111.638 235.46C188.409 231.759 342.747 236.455 404.827 237.108C466.908 237.761 768.725 238.289 802.044 237.823C842.841 237.263 876.824 240.186 878.284 181.075C879.744 121.963 873.24 54.4876 875.496 36.7636C877.709 19.0395 862.93 -1.01666 804.566 1.28436C746.203 3.61648 469.12 3.39881 391.553 2.03064C313.897 0.662465 97.4342 -0.923373 58.9824 0.662465Z" fill="#E7F4EF"/>
<path d="M59.4451 9.41831C58.6023 9.41831 57.7648 9.43478 56.9331 9.46728L56.9804 10.6769C55.3164 10.742 53.6768 10.8724 52.0667 11.0647L51.9232 9.86269C50.2357 10.0642 48.5794 10.3324 46.9599 10.6635L47.2023 11.8495C45.5688 12.1834 43.9743 12.5824 42.4249 13.0421L42.0805 11.8815C40.4425 12.3676 38.8525 12.9205 37.3175 13.5356L37.7678 14.6593C36.215 15.2817 34.7212 15.9686 33.2938 16.7151L32.7328 15.6423C31.2074 16.44 29.7537 17.305 28.3808 18.2318L29.0581 19.2352C27.6661 20.1748 26.3618 21.1781 25.1549 22.2384L24.3559 21.3289C23.0516 22.4748 21.8537 23.6882 20.7749 24.9617L21.6986 25.7442C20.6145 27.024 19.6584 28.3633 18.8428 29.7533L17.7987 29.1407C16.9167 30.6439 16.1891 32.2086 15.6326 33.8247L16.7772 34.2189C16.2413 35.7751 15.8738 37.3769 15.6891 39.0144L14.4861 38.8787C14.3894 39.7354 14.3402 40.6013 14.3402 41.475V43.8873H15.5508V48.7118H14.3402V53.5364H15.5508V58.361H14.3402V63.1855H15.5508V68.0101H14.3402V72.8346H15.5508V77.6592H14.3402V82.4838H15.5508V87.3083H14.3402V92.1329H15.5508V96.9575H14.3402V101.782H15.5508V106.607H14.3402V111.431H15.5508V116.256H14.3402V121.08H15.5508V125.905H14.3402V130.729H15.5508V135.554H14.3402V140.379H15.5508V145.203H14.3402V150.028H15.5508V154.852H14.3402V159.677H15.5508V164.501H14.3402V169.326H15.5508V174.15H14.3402V178.975H15.5508V183.8H14.3402V188.624H15.5508V193.449H14.3402V195.861C14.3402 196.735 14.3893 197.601 14.4858 198.457L15.6888 198.322C15.8732 199.96 16.2401 201.562 16.7753 203.118L15.6304 203.512C16.1863 205.129 16.913 206.694 17.7942 208.198L18.8387 207.586C19.6537 208.976 20.6092 210.316 21.6928 211.597L20.7688 212.379C21.8473 213.653 23.0449 214.867 24.3493 216.013L25.1485 215.104C26.3553 216.165 27.6596 217.168 29.0518 218.108L28.3745 219.111C29.7476 220.038 31.2016 220.903 32.7276 221.701L33.2883 220.628C34.7159 221.374 36.2101 222.061 37.7636 222.683L37.3136 223.807C38.8488 224.421 40.4391 224.974 42.0778 225.459L42.4217 224.298C43.9713 224.758 45.5661 225.156 47.2003 225.489L46.9583 226.675C48.5778 227.006 50.2344 227.273 51.9225 227.474L52.0657 226.272C53.6756 226.464 55.3155 226.594 56.9801 226.659L56.9329 227.869C57.7646 227.901 58.6022 227.918 59.4451 227.918H61.8534V226.707H66.67V227.918H71.4867V226.707H76.3033V227.918H81.1199V226.707H85.9365V227.918H90.7532V226.707H95.5698V227.918H100.386V226.707H105.203V227.918H110.02V226.707H114.836V227.918H119.653V226.707H124.47V227.918H129.286V226.707H134.103V227.918H138.919V226.707H143.736V227.918H148.553V226.707H153.369V227.918H158.186V226.707H163.002V227.918H167.819V226.707H172.636V227.918H177.452V226.707H182.269V227.918H187.086V226.707H191.902V227.918H196.719V226.707H201.535V227.918H206.352V226.707H211.169V227.918H215.985V226.707H220.802V227.918H225.619V226.707H230.435V227.918H235.252V226.707H240.068V227.918H244.885V226.707H249.702V227.918H254.518V226.707H259.335V227.918H264.152V226.707H268.968V227.918H273.785V226.707H278.601V227.918H283.418V226.707H288.235V227.918H293.051V226.707H297.868V227.918H302.684V226.707H307.501V227.918H312.318V226.707H317.134V227.918H321.951V226.707H326.768V227.918H331.584V226.707H336.401V227.918H341.217V226.707H346.034V227.918H350.851V226.707H355.667V227.918H360.484V226.707H365.301V227.918H370.117V226.707H374.934V227.918H379.75V226.707H384.567V227.918H389.384V226.707H394.2V227.918H399.017V226.707H403.833V227.918H408.65V226.707H413.467V227.918H418.283V226.707H423.1V227.918H427.917V226.707H432.733V227.918H437.55V226.707H442.366V227.918H447.183V226.707H452V227.918H456.816V226.707H461.633V227.918H466.45V226.707H471.266V227.918H476.083V226.707H480.899V227.918H485.716V226.707H490.533V227.918H495.349V226.707H500.166V227.918H504.982V226.707H509.799V227.918H514.616V226.707H519.432V227.918H524.249V226.707H529.066V227.918H533.882V226.707H538.699V227.918H543.515V226.707H548.332V227.918H553.149V226.707H557.965V227.918H562.782V226.707H567.599V227.918H572.415V226.707H577.232V227.918H582.049V226.707H586.865V227.918H591.682V226.707H596.498V227.918H601.315V226.707H606.132V227.918H610.948V226.707H615.765V227.918H620.582V226.707H625.398V227.918H630.215V226.707H635.032V227.918H639.848V226.707H644.665V227.918H649.482V226.707H654.298V227.918H659.115V226.707H663.932V227.918H668.748V226.707H673.565V227.918H678.382V226.707H683.198V227.918H688.015V226.707H692.831V227.918H697.648V226.707H702.465V227.918H707.281V226.707H712.098V227.918H716.915V226.707H721.731V227.918H726.548V226.707H731.365V227.918H736.181V226.707H740.998V227.918H745.815V226.707H750.631V227.918H755.448V226.707H760.265V227.918H765.081V226.707H769.898V227.918H774.715V226.707H779.531V227.918H784.348V226.707H789.164V227.918H793.981V226.707H798.798V227.918H803.614V226.707H808.431V227.918H813.248V226.707H818.064V227.918H820.472C821.314 227.918 822.152 227.901 822.984 227.869L822.937 226.659C824.601 226.594 826.241 226.464 827.851 226.272L827.994 227.474C829.682 227.273 831.339 227.005 832.958 226.675L832.716 225.488C834.35 225.155 835.945 224.757 837.495 224.297L837.839 225.458C839.477 224.973 841.068 224.42 842.603 223.805L842.153 222.682C843.706 222.06 845.201 221.373 846.628 220.627L847.189 221.7C848.715 220.903 850.169 220.038 851.542 219.111L850.865 218.108C852.258 217.168 853.562 216.165 854.769 215.104L855.568 216.014C856.873 214.867 858.07 213.654 859.149 212.379L858.225 211.597C859.309 210.317 860.264 208.977 861.079 207.586L862.124 208.198C863.005 206.695 863.732 205.129 864.287 203.512L863.142 203.119C863.677 201.562 864.044 199.96 864.228 198.322L865.431 198.457C865.527 197.601 865.577 196.735 865.577 195.861V193.449H864.366V188.624H865.577V183.8H864.366V178.975H865.577V174.15H864.366V169.326H865.577V164.501H864.366V159.677H865.577V154.852H864.366V150.028H865.577V145.203H864.366V140.378H865.577V135.554H864.366V130.729H865.577V125.905H864.366V121.08H865.577V116.256H864.366V111.431H865.577V106.607H864.366V101.782H865.577V96.9574H864.366V92.1329H865.577V87.3083H864.366V82.4837H865.577V77.6592H864.366V72.8346H865.577V68.0101H864.366V63.1855H865.577V58.3609H864.366V53.5364H865.577V48.7118H864.366V43.8873H865.577V41.475C865.577 40.6013 865.527 39.7354 865.431 38.8786L864.228 39.0141C864.043 37.3762 863.677 35.774 863.141 34.2175L864.286 33.8239C863.73 32.2072 863.004 30.6419 862.122 29.1381L861.078 29.7502C860.263 28.3595 859.307 27.0195 858.224 25.7392L859.148 24.9571C858.069 23.6828 856.872 22.4689 855.567 21.3225L854.768 22.2318C853.561 21.1712 852.257 20.1677 850.865 19.2279L851.542 18.2245C850.169 17.2977 848.715 16.4327 847.189 15.6351L846.628 16.708C845.201 15.9618 843.707 15.2751 842.153 14.6532L842.603 13.5293C841.068 12.9147 839.478 12.3623 837.839 11.8768L837.495 13.0375C835.945 12.5784 834.351 12.1801 832.716 11.8467L832.958 10.6605C831.339 10.3302 829.682 10.0625 827.994 9.86145L827.851 11.0635C826.241 10.8718 824.601 10.7416 822.937 10.6768L822.984 9.46712C822.152 9.43472 821.315 9.41831 820.472 9.41831H818.063V10.6289H813.247V9.41831H808.43V10.6289H803.613V9.41831H798.797V10.6289H793.98V9.41831H789.164V10.6289H784.347V9.41831H779.53V10.6289H774.714V9.41831H769.897V10.6289H765.08V9.41831H760.264V10.6289H755.447V9.41831H750.63V10.6289H745.814V9.41831H740.997V10.6289H736.181V9.41831H731.364V10.6289H726.547V9.41831H721.731V10.6289H716.914V9.41831H712.098V10.6289H707.281V9.41831H702.464V10.6289H697.648V9.41831H692.831V10.6289H688.014V9.41831H683.198V10.6289H678.381V9.41831H673.565V10.6289H668.748V9.41831H663.931V10.6289H659.115V9.41831H654.298V10.6289H649.482V9.41831H644.665V10.6289H639.848V9.41831H635.032V10.6289H630.215V9.41831H625.398V10.6289H620.582V9.41831H615.765V10.6289H610.949V9.41831H606.132V10.6289H601.315V9.41831H596.499V10.6289H591.682V9.41831H586.865V10.6289H582.049V9.41831H577.232V10.6289H572.416V9.41831H567.599V10.6289H562.782V9.41831H557.966V10.6289H553.149V9.41831H548.332V10.6289H543.516V9.41831H538.699V10.6289H533.883V9.41831H529.066V10.6289H524.249V9.41831H519.433V10.6289H514.616V9.41831H509.799V10.6289H504.983V9.41831H500.166V10.6289H495.35V9.41831H490.533V10.6289H485.716V9.41831H480.9V10.6289H476.083V9.41831H471.267V10.6289H466.45V9.41831H461.633V10.6289H456.817V9.41831H452V10.6289H447.183V9.41831H442.367V10.6289H437.55V9.41831H432.734V10.6289H427.917V9.41831H423.1V10.6289H418.284V9.41831H413.467V10.6289H408.65V9.41831H403.834V10.6289H399.017V9.41831H394.201V10.6289H389.384V9.41831H384.567V10.6289H379.751V9.41831H374.934V10.6289H370.118V9.41831H365.301V10.6289H360.484V9.41831H355.668V10.6289H350.851V9.41831H346.034V10.6289H341.218V9.41831H336.401V10.6289H331.585V9.41831H326.768V10.6289H321.951V9.41831H317.135V10.6289H312.318V9.41831H307.501V10.6289H302.685V9.41831H297.868V10.6289H293.051V9.41831H288.235V10.6289H283.418V9.41831H278.602V10.6289H273.785V9.41831H268.968V10.6289H264.152V9.41831H259.335V10.6289H254.518V9.41831H249.702V10.6289H244.885V9.41831H240.068V10.6289H235.252V9.41831H230.435V10.6289H225.618V9.41831H220.802V10.6289H215.985V9.41831H211.168V10.6289H206.352V9.41831H201.535V10.6289H196.718V9.41831H191.902V10.6289H187.085V9.41831H182.269V10.6289H177.452V9.41831H172.635V10.6289H167.819V9.41831H163.002V10.6289H158.185V9.41831H153.369V10.6289H148.552V9.41831H143.735V10.6289H138.919V9.41831H134.102V10.6289H129.285V9.41831H124.469V10.6289H119.652V9.41831H114.835V10.6289H110.019V9.41831H105.202V10.6289H100.385V9.41831H95.5688V10.6289H90.7522V9.41831H85.9355V10.6289H81.1189V9.41831H76.3022V10.6289H71.4855V9.41831H66.6689V10.6289H61.8523V9.41831H59.4451Z" fill="white" stroke="#ABD5C0" stroke-width="2.42119" stroke-dasharray="4.84 4.84"/>
</svg>
