<svg width="889" height="138" viewBox="0 0 889 138" fill="none" xmlns="http://www.w3.org/2000/svg">
<mask id="mask0_528_1060" style="mask-type:alpha" maskUnits="userSpaceOnUse" x="0" y="0" width="889" height="135">
<path d="M888.5 0H0.5V135H888.5V0Z" fill="black"/>
</mask>
<g mask="url(#mask0_528_1060)">
<path d="M814.528 13.1396H6.12695V93.9626H814.528V13.1396Z" fill="#D3EAD4"/>
<path d="M6.12695 13.8506V93.9606" stroke="#231F20" stroke-width="0.855571" stroke-miterlimit="10" stroke-dasharray="4.28 3.14"/>
<path d="M178.125 13.8506V93.9606" stroke="#231F20" stroke-width="0.855571" stroke-miterlimit="10" stroke-dasharray="4.28 3.14"/>
<path d="M350.123 13.8506V93.9606" stroke="#231F20" stroke-width="0.855571" stroke-miterlimit="10" stroke-dasharray="4.28 3.14"/>
<path d="M522.121 13.8506V93.9606" stroke="#231F20" stroke-width="0.855571" stroke-miterlimit="10" stroke-dasharray="4.28 3.14"/>
<path d="M694.119 13.8506V93.9606" stroke="#231F20" stroke-width="0.855571" stroke-miterlimit="10" stroke-dasharray="4.28 3.14"/>
<path d="M814.499 13.1396H6.09766V93.9626H814.499V13.1396Z" stroke="#58595B" stroke-width="1.42595" stroke-miterlimit="10"/>
<path d="M5.49805 13.4746V93.6132" stroke="#231F20" stroke-width="0.855571" stroke-miterlimit="10" stroke-dasharray="4.28 3.14"/>
<path d="M21.6684 3.02846H161.954C170.88 3.02846 178.124 10.2723 178.124 19.1988V87.9012C178.124 96.8276 170.88 104.072 161.954 104.072H21.6684C12.7419 104.072 5.49805 96.8276 5.49805 87.9012V19.1703C5.49805 10.2438 12.7419 3 21.6684 3V3.02846Z" stroke="#ED1C24" stroke-width="2.8519"/>
<path d="M193.981 3.02051H334.266C343.193 3.02051 350.436 10.2644 350.436 19.1908V87.8932C350.436 96.8197 343.193 104.064 334.266 104.064H193.981C185.054 104.064 177.811 96.8197 177.811 87.8932V19.1908C177.811 10.2644 185.054 3.02051 193.981 3.02051Z" stroke="#ED1C24" stroke-width="2.8519"/>
<path d="M366.291 3.02051H506.577C515.503 3.02051 522.747 10.2644 522.747 19.1908V87.8932C522.747 96.8197 515.503 104.064 506.577 104.064H366.291C357.365 104.064 350.121 96.8197 350.121 87.8932V19.1908C350.121 10.2644 357.365 3.02051 366.291 3.02051Z" stroke="#ED1C24" stroke-width="2.8519"/>
<path d="M538.604 3.02051H678.889C687.816 3.02051 695.059 10.2644 695.059 19.1908V87.8932C695.059 96.8197 687.816 104.064 678.889 104.064H538.604C529.677 104.064 522.434 96.8197 522.434 87.8932V19.1908C522.434 10.2644 529.677 3.02051 538.604 3.02051Z" stroke="#ED1C24" stroke-width="2.8519"/>
<path d="M40.0059 13.4746V94.3261" stroke="#231F20" stroke-width="0.855571" stroke-miterlimit="10" stroke-dasharray="4.28 3.14"/>
<path d="M74.543 13.4746V94.3261" stroke="#231F20" stroke-width="0.855571" stroke-miterlimit="10" stroke-dasharray="4.28 3.14"/>
<path d="M109.078 13.4746V94.3261" stroke="#231F20" stroke-width="0.855571" stroke-miterlimit="10" stroke-dasharray="4.28 3.14"/>
<path d="M143.588 13.4746V94.3261" stroke="#231F20" stroke-width="0.855571" stroke-miterlimit="10" stroke-dasharray="4.28 3.14"/>
<path d="M212.662 13.4746V94.3261" stroke="#231F20" stroke-width="0.855571" stroke-miterlimit="10" stroke-dasharray="4.28 3.14"/>
<path d="M247.17 13.4746V94.3261" stroke="#231F20" stroke-width="0.855571" stroke-miterlimit="10" stroke-dasharray="4.28 3.14"/>
<path d="M281.705 13.4746V94.3261" stroke="#231F20" stroke-width="0.855571" stroke-miterlimit="10" stroke-dasharray="4.28 3.14"/>
<path d="M316.213 13.4746V94.3261" stroke="#231F20" stroke-width="0.855571" stroke-miterlimit="10" stroke-dasharray="4.28 3.14"/>
<path d="M385.287 13.4746V94.3261" stroke="#231F20" stroke-width="0.855571" stroke-miterlimit="10" stroke-dasharray="4.28 3.14"/>
<path d="M419.795 13.4746V94.3261" stroke="#231F20" stroke-width="0.855571" stroke-miterlimit="10" stroke-dasharray="4.28 3.14"/>
<path d="M454.33 13.4746V94.3261" stroke="#231F20" stroke-width="0.855571" stroke-miterlimit="10" stroke-dasharray="4.28 3.14"/>
<path d="M488.867 13.4746V94.3261" stroke="#231F20" stroke-width="0.855571" stroke-miterlimit="10" stroke-dasharray="4.28 3.14"/>
<path d="M557.912 13.4746V94.3261" stroke="#231F20" stroke-width="0.855571" stroke-miterlimit="10" stroke-dasharray="4.28 3.14"/>
<path d="M592.42 13.4746V94.3261" stroke="#231F20" stroke-width="0.855571" stroke-miterlimit="10" stroke-dasharray="4.28 3.14"/>
<path d="M626.957 13.4746V94.3261" stroke="#231F20" stroke-width="0.855571" stroke-miterlimit="10" stroke-dasharray="4.28 3.14"/>
<path d="M661.494 13.4746V94.3261" stroke="#231F20" stroke-width="0.855571" stroke-miterlimit="10" stroke-dasharray="4.28 3.14"/>
<path d="M730.539 13.4746V94.3261" stroke="#231F20" stroke-width="0.855571" stroke-miterlimit="10" stroke-dasharray="4.28 3.14"/>
<path d="M765.074 13.4746V94.3261" stroke="#231F20" stroke-width="0.855571" stroke-miterlimit="10" stroke-dasharray="4.28 3.14"/>
<path d="M799.582 13.4746V94.3261" stroke="#231F20" stroke-width="0.855571" stroke-miterlimit="10" stroke-dasharray="4.28 3.14"/>
</g>
<path d="M15.9707 129.234C11.7285 129.234 9.15039 126.07 9.15039 120.516C9.15039 114.961 11.7285 111.797 15.9707 111.797C20.2129 111.797 22.791 114.984 22.791 120.516C22.791 126.094 20.2129 129.234 15.9707 129.234ZM15.9707 126.328C17.9395 126.328 19.2051 124.43 19.1816 120.516C19.1816 116.648 17.9395 114.68 15.9707 114.68C14.002 114.68 12.7598 116.648 12.7598 120.516C12.7363 124.43 14.002 126.328 15.9707 126.328Z" fill="#231F20"/>
<path d="M183.619 129.234C180.08 129.234 177.502 127.148 177.432 124.219H180.854C180.924 125.555 182.143 126.445 183.619 126.445C185.377 126.445 186.619 125.203 186.619 123.445C186.619 121.641 185.354 120.398 183.572 120.375C182.307 120.375 181.416 120.844 180.9 121.805H177.713L178.627 112.031H189.08V114.914H181.533L181.064 119.203H181.205C181.838 118.359 183.104 117.773 184.604 117.773C187.721 117.773 190.041 120.094 190.041 123.352C190.041 126.773 187.439 129.234 183.619 129.234Z" fill="#231F20"/>
<path d="M350.697 112.031V129H347.158V115.383H347.064L343.174 117.82V114.703L347.369 112.031H350.697ZM360.721 129.234C356.479 129.234 353.9 126.07 353.9 120.516C353.9 114.961 356.479 111.797 360.721 111.797C364.963 111.797 367.541 114.984 367.541 120.516C367.541 126.094 364.963 129.234 360.721 129.234ZM360.721 126.328C362.689 126.328 363.955 124.43 363.932 120.516C363.932 116.648 362.689 114.68 360.721 114.68C358.752 114.68 357.51 116.648 357.51 120.516C357.486 124.43 358.752 126.328 360.721 126.328Z" fill="#231F20"/>
<path d="M522.697 112.031V129H519.158V115.383H519.064L515.174 117.82V114.703L519.369 112.031H522.697ZM532.369 129.234C528.83 129.234 526.252 127.148 526.182 124.219H529.604C529.674 125.555 530.893 126.445 532.369 126.445C534.127 126.445 535.369 125.203 535.369 123.445C535.369 121.641 534.104 120.398 532.322 120.375C531.057 120.375 530.166 120.844 529.65 121.805H526.463L527.377 112.031H537.83V114.914H530.283L529.814 119.203H529.955C530.588 118.359 531.854 117.773 533.354 117.773C536.471 117.773 538.791 120.094 538.791 123.352C538.791 126.773 536.189 129.234 532.369 129.234Z" fill="#231F20"/>
<path d="M683.385 129L683.361 126.445L689.455 120.844C691.049 119.32 691.893 118.383 691.893 117.047C691.893 115.547 690.744 114.609 689.197 114.609C687.604 114.609 686.572 115.617 686.572 117.234H683.221C683.197 113.906 685.658 111.797 689.244 111.797C692.877 111.797 695.291 113.859 695.291 116.812C695.291 118.734 694.354 120.328 690.861 123.492L688.283 126V126.094H695.525V129H683.385ZM704.119 129.234C699.877 129.234 697.299 126.07 697.299 120.516C697.299 114.961 699.877 111.797 704.119 111.797C708.361 111.797 710.939 114.984 710.939 120.516C710.939 126.094 708.361 129.234 704.119 129.234ZM704.119 126.328C706.088 126.328 707.354 124.43 707.33 120.516C707.33 116.648 706.088 114.68 704.119 114.68C702.15 114.68 700.908 116.648 700.908 120.516C700.885 124.43 702.15 126.328 704.119 126.328Z" fill="#231F20"/>
<path d="M786.385 129L786.361 126.445L792.455 120.844C794.049 119.32 794.893 118.383 794.893 117.047C794.893 115.547 793.744 114.609 792.197 114.609C790.604 114.609 789.572 115.617 789.572 117.234H786.221C786.197 113.906 788.658 111.797 792.244 111.797C795.877 111.797 798.291 113.859 798.291 116.812C798.291 118.734 797.354 120.328 793.861 123.492L791.283 126V126.094H798.525V129H786.385ZM806.814 129.234C803.088 129.234 800.416 127.172 800.346 124.219H803.908C803.979 125.484 805.197 126.328 806.838 126.328C808.525 126.328 809.744 125.367 809.721 124.008C809.744 122.625 808.502 121.641 806.51 121.641H804.939V119.039H806.51C808.174 119.039 809.346 118.125 809.346 116.789C809.346 115.5 808.361 114.609 806.861 114.609C805.361 114.609 804.119 115.453 804.072 116.742H800.697C800.744 113.812 803.393 111.797 806.861 111.797C810.4 111.797 812.768 113.883 812.744 116.578C812.768 118.477 811.432 119.836 809.533 120.164V120.305C812.018 120.609 813.4 122.133 813.377 124.242C813.4 127.148 810.635 129.234 806.814 129.234ZM816.932 129.211C815.83 129.211 814.939 128.32 814.963 127.242C814.939 126.164 815.83 125.297 816.932 125.297C817.963 125.297 818.877 126.164 818.877 127.242C818.877 128.32 817.963 129.211 816.932 129.211ZM827.236 129.234C823.697 129.234 821.119 127.148 821.049 124.219H824.471C824.541 125.555 825.76 126.445 827.236 126.445C828.994 126.445 830.236 125.203 830.236 123.445C830.236 121.641 828.971 120.398 827.189 120.375C825.924 120.375 825.033 120.844 824.518 121.805H821.33L822.244 112.031H832.697V114.914H825.15L824.682 119.203H824.822C825.455 118.359 826.721 117.773 828.221 117.773C831.338 117.773 833.658 120.094 833.658 123.352C833.658 126.773 831.057 129.234 827.236 129.234ZM841.119 122.531C841.119 118.125 842.479 114.469 844.729 111.305H848.033C846.416 113.648 844.729 118.336 844.729 122.531C844.729 126.75 846.416 131.438 848.033 133.781H844.729C842.479 130.617 841.119 126.938 841.119 122.531ZM849.455 129V112.031H852.924V121.148H853.111L857.236 116.273H861.221L856.486 121.781L861.479 129H857.4L853.908 123.82L852.924 124.922V129H849.455ZM867.518 134.039C864.002 134.039 861.846 132.469 861.635 130.055H865.057C865.244 131.062 866.205 131.531 867.588 131.531C869.205 131.531 870.283 130.852 870.283 129.07V126.75H870.119C869.65 127.781 868.525 128.812 866.486 128.812C863.604 128.812 861.307 126.797 861.307 122.555C861.307 118.242 863.674 116.109 866.486 116.109C868.619 116.109 869.65 117.375 870.119 118.406H870.26V116.273H873.705V129.141C873.705 132.375 871.127 134.039 867.518 134.039ZM867.564 126.211C869.299 126.211 870.283 124.852 870.283 122.602C870.283 120.328 869.299 118.875 867.564 118.875C865.807 118.875 864.869 120.398 864.869 122.602C864.869 124.805 865.807 126.211 867.564 126.211ZM882.018 122.531C882.018 126.938 880.658 130.617 878.408 133.781H875.104C876.721 131.438 878.408 126.75 878.408 122.531C878.408 118.336 876.721 113.648 875.104 111.305H878.408C880.658 114.469 882.018 118.125 882.018 122.531Z" fill="#231F20"/>
</svg>
