<svg width="78" height="120" viewBox="0 0 78 120" fill="none" xmlns="http://www.w3.org/2000/svg">
<path d="M1 59.5V75H77V1" stroke="#22B24C" stroke-width="2" stroke-linecap="round"/>
<path d="M38.4375 108.031C36.2083 108.031 34.151 107.474 32.2656 106.359C30.3802 105.245 28.8854 103.745 27.7812 101.859C26.6771 99.974 26.125 97.9167 26.125 95.6875C26.125 93.4583 26.6771 91.401 27.7812 89.5156C28.8854 87.6302 30.3802 86.1302 32.2656 85.0156C34.151 83.901 36.2083 83.3438 38.4375 83.3438C40.6667 83.3438 42.724 83.901 44.6094 85.0156C46.5052 86.1302 48.0052 87.6302 49.1094 89.5156C50.224 91.401 50.7812 93.4583 50.7812 95.6875C50.7812 97.9167 50.224 99.974 49.1094 101.859C48.0052 103.745 46.5052 105.245 44.6094 106.359C42.724 107.474 40.6667 108.031 38.4375 108.031ZM28.5 95.6875C28.5 97.4792 28.9479 99.1406 29.8438 100.672C30.7396 102.193 31.9479 103.401 33.4688 104.297C34.9896 105.182 36.6458 105.625 38.4375 105.625C40.2396 105.625 41.901 105.182 43.4219 104.297C44.9427 103.401 46.151 102.193 47.0469 100.672C47.9531 99.151 48.4062 97.4896 48.4062 95.6875C48.4062 93.8854 47.9531 92.224 47.0469 90.7031C46.151 89.1823 44.9427 87.9792 43.4219 87.0938C41.901 86.1979 40.2396 85.75 38.4375 85.75C36.6458 85.75 34.9896 86.1979 33.4688 87.0938C31.9479 87.9792 30.7396 89.1823 29.8438 90.7031C28.9479 92.224 28.5 93.8854 28.5 95.6875ZM36.5312 98.125C36.5417 98.5521 36.7292 98.8958 37.0938 99.1562C37.4583 99.4167 37.9167 99.5521 38.4688 99.5625C39.0417 99.5521 39.5104 99.401 39.875 99.1094C40.2396 98.8177 40.4271 98.4479 40.4375 98C40.4271 97.5208 40.224 97.1354 39.8281 96.8438C39.4427 96.5417 38.9167 96.3958 38.25 96.4062H37.2812V94.75H38.25C38.8229 94.75 39.2812 94.6094 39.625 94.3281C39.9792 94.0469 40.1562 93.6771 40.1562 93.2188C40.1562 92.7917 40.0052 92.4479 39.7031 92.1875C39.401 91.9167 39 91.7812 38.5 91.7812C37.9792 91.7812 37.5365 91.9115 37.1719 92.1719C36.8177 92.4323 36.6354 92.7812 36.625 93.2188H34.5312C34.5417 92.6042 34.724 92.0573 35.0781 91.5781C35.4323 91.0885 35.9062 90.7083 36.5 90.4375C37.1042 90.1667 37.7708 90.0312 38.5 90.0312C39.2396 90.0312 39.8906 90.1667 40.4531 90.4375C41.026 90.6979 41.4688 91.0625 41.7812 91.5312C42.0938 91.9896 42.25 92.5 42.25 93.0625C42.25 93.6979 42.0625 94.2292 41.6875 94.6562C41.3125 95.0833 40.8125 95.3542 40.1875 95.4688V95.5625C40.9792 95.6562 41.5938 95.9323 42.0312 96.3906C42.4688 96.849 42.6875 97.4271 42.6875 98.125C42.6875 98.7396 42.5052 99.2969 42.1406 99.7969C41.7865 100.286 41.2865 100.672 40.6406 100.953C40.0052 101.234 39.2812 101.375 38.4688 101.375C37.6771 101.375 36.9688 101.234 36.3438 100.953C35.7188 100.672 35.2292 100.286 34.875 99.7969C34.5208 99.3073 34.3438 98.75 34.3438 98.125H36.5312Z" fill="#13A538"/>
</svg>
