<svg width="721" height="375" viewBox="0 0 721 375" fill="none" xmlns="http://www.w3.org/2000/svg">
<path d="M1.61426 28.4023H2.73939" stroke="#00A0E9" stroke-width="2" stroke-miterlimit="10"/>
<path d="M4.9873 28.4023H716.953" stroke="#00A0E9" stroke-width="2" stroke-miterlimit="10" stroke-dasharray="1.2 1.2"/>
<path d="M718.079 28.4023H719.204" stroke="#00A0E9" stroke-width="2" stroke-miterlimit="10"/>
<path d="M1.61426 54.9814H2.73939" stroke="#00A0E9" stroke-width="2" stroke-miterlimit="10"/>
<path d="M4.9873 54.9814H716.953" stroke="#00A0E9" stroke-width="2" stroke-miterlimit="10" stroke-dasharray="1.2 1.2"/>
<path d="M718.079 54.9814H719.204" stroke="#00A0E9" stroke-width="2" stroke-miterlimit="10"/>
<path d="M1.61426 81.5791H2.73939" stroke="#00A0E9" stroke-width="2" stroke-miterlimit="10"/>
<path d="M4.9873 81.5791H716.953" stroke="#00A0E9" stroke-width="2" stroke-miterlimit="10" stroke-dasharray="1.2 1.2"/>
<path d="M718.079 81.5791H719.204" stroke="#00A0E9" stroke-width="2" stroke-miterlimit="10"/>
<path d="M1.61426 108.159H2.73939" stroke="#00A0E9" stroke-width="2" stroke-miterlimit="10"/>
<path d="M4.9873 108.159H716.953" stroke="#00A0E9" stroke-width="2" stroke-miterlimit="10" stroke-dasharray="1.2 1.2"/>
<path d="M718.079 108.159H719.204" stroke="#00A0E9" stroke-width="2" stroke-miterlimit="10"/>
<path d="M1.61426 134.738H2.73939" stroke="#00A0E9" stroke-width="2" stroke-miterlimit="10"/>
<path d="M4.9873 134.738H716.953" stroke="#00A0E9" stroke-width="2" stroke-miterlimit="10" stroke-dasharray="1.2 1.2"/>
<path d="M718.079 134.738H719.204" stroke="#00A0E9" stroke-width="2" stroke-miterlimit="10"/>
<path d="M1.61426 161.336H2.73939" stroke="#00A0E9" stroke-width="2" stroke-miterlimit="10"/>
<path d="M4.9873 161.336H716.953" stroke="#00A0E9" stroke-width="2" stroke-miterlimit="10" stroke-dasharray="1.2 1.2"/>
<path d="M718.079 161.336H719.204" stroke="#00A0E9" stroke-width="2" stroke-miterlimit="10"/>
<path d="M1.61426 187.915H2.73939" stroke="#00A0E9" stroke-width="2" stroke-miterlimit="10"/>
<path d="M4.9873 187.915H716.953" stroke="#00A0E9" stroke-width="2" stroke-miterlimit="10" stroke-dasharray="1.2 1.2"/>
<path d="M718.079 187.915H719.204" stroke="#00A0E9" stroke-width="2" stroke-miterlimit="10"/>
<path d="M1.61426 214.494H2.73939" stroke="#00A0E9" stroke-width="2" stroke-miterlimit="10"/>
<path d="M4.9873 214.494H716.953" stroke="#00A0E9" stroke-width="2" stroke-miterlimit="10" stroke-dasharray="1.2 1.2"/>
<path d="M718.079 214.494H719.204" stroke="#00A0E9" stroke-width="2" stroke-miterlimit="10"/>
<path d="M1.61426 241.092H2.73939" stroke="#00A0E9" stroke-width="2" stroke-miterlimit="10"/>
<path d="M4.9873 241.092H716.953" stroke="#00A0E9" stroke-width="2" stroke-miterlimit="10" stroke-dasharray="1.2 1.2"/>
<path d="M718.079 241.092H719.204" stroke="#00A0E9" stroke-width="2" stroke-miterlimit="10"/>
<path d="M1.61426 267.671H2.73939" stroke="#00A0E9" stroke-width="2" stroke-miterlimit="10"/>
<path d="M4.9873 267.671H716.953" stroke="#00A0E9" stroke-width="2" stroke-miterlimit="10" stroke-dasharray="1.2 1.2"/>
<path d="M718.079 267.671H719.204" stroke="#00A0E9" stroke-width="2" stroke-miterlimit="10"/>
<path d="M1.61426 294.25H2.73939" stroke="#00A0E9" stroke-width="2" stroke-miterlimit="10"/>
<path d="M4.9873 294.25H716.953" stroke="#00A0E9" stroke-width="2" stroke-miterlimit="10" stroke-dasharray="1.2 1.2"/>
<path d="M718.079 294.25H719.204" stroke="#00A0E9" stroke-width="2" stroke-miterlimit="10"/>
<path d="M1.61426 320.848H2.73939" stroke="#00A0E9" stroke-width="2" stroke-miterlimit="10"/>
<path d="M4.9873 320.848H716.953" stroke="#00A0E9" stroke-width="2" stroke-miterlimit="10" stroke-dasharray="1.2 1.2"/>
<path d="M718.079 320.848H719.204" stroke="#00A0E9" stroke-width="2" stroke-miterlimit="10"/>
<path d="M1.61426 347.427H2.73939" stroke="#00A0E9" stroke-width="2" stroke-miterlimit="10"/>
<path d="M4.9873 347.427H716.953" stroke="#00A0E9" stroke-width="2" stroke-miterlimit="10" stroke-dasharray="1.2 1.2"/>
<path d="M718.079 347.427H719.204" stroke="#00A0E9" stroke-width="2" stroke-miterlimit="10"/>
<path d="M28.1865 374.005V372.88" stroke="#00A0E9" stroke-width="2" stroke-miterlimit="10"/>
<path d="M28.1865 370.648V4.05566" stroke="#00A0E9" stroke-width="2" stroke-miterlimit="10" stroke-dasharray="1.2 1.2"/>
<path d="M28.1865 2.94966V1.82422" stroke="#00A0E9" stroke-width="2" stroke-miterlimit="10"/>
<path d="M54.7568 374.005V372.88" stroke="#00A0E9" stroke-width="2" stroke-miterlimit="10"/>
<path d="M54.7568 370.648V4.05566" stroke="#00A0E9" stroke-width="2" stroke-miterlimit="10" stroke-dasharray="1.2 1.2"/>
<path d="M54.7568 2.94966V1.82422" stroke="#00A0E9" stroke-width="2" stroke-miterlimit="10"/>
<path d="M81.3486 374.005V372.88" stroke="#00A0E9" stroke-width="2" stroke-miterlimit="10"/>
<path d="M81.3486 370.648V4.05566" stroke="#00A0E9" stroke-width="2" stroke-miterlimit="10" stroke-dasharray="1.2 1.2"/>
<path d="M81.3486 2.94966V1.82422" stroke="#00A0E9" stroke-width="2" stroke-miterlimit="10"/>
<path d="M107.919 374.005V372.88" stroke="#00A0E9" stroke-width="2" stroke-miterlimit="10"/>
<path d="M107.919 370.648V4.05566" stroke="#00A0E9" stroke-width="2" stroke-miterlimit="10" stroke-dasharray="1.2 1.2"/>
<path d="M107.919 2.94966V1.82422" stroke="#00A0E9" stroke-width="2" stroke-miterlimit="10"/>
<path d="M134.491 374.005V372.88" stroke="#00A0E9" stroke-width="2" stroke-miterlimit="10"/>
<path d="M134.491 370.648V4.05566" stroke="#00A0E9" stroke-width="2" stroke-miterlimit="10" stroke-dasharray="1.2 1.2"/>
<path d="M134.491 2.94966V1.82422" stroke="#00A0E9" stroke-width="2" stroke-miterlimit="10"/>
<path d="M161.081 374.005V372.88" stroke="#00A0E9" stroke-width="2" stroke-miterlimit="10"/>
<path d="M161.081 370.648V4.05566" stroke="#00A0E9" stroke-width="2" stroke-miterlimit="10" stroke-dasharray="1.2 1.2"/>
<path d="M161.081 2.94966V1.82422" stroke="#00A0E9" stroke-width="2" stroke-miterlimit="10"/>
<path d="M187.653 374.005V372.88" stroke="#00A0E9" stroke-width="2" stroke-miterlimit="10"/>
<path d="M187.653 370.648V4.05566" stroke="#00A0E9" stroke-width="2" stroke-miterlimit="10" stroke-dasharray="1.2 1.2"/>
<path d="M187.653 2.94966V1.82422" stroke="#00A0E9" stroke-width="2" stroke-miterlimit="10"/>
<path d="M214.226 374.005V372.88" stroke="#00A0E9" stroke-width="2" stroke-miterlimit="10"/>
<path d="M214.226 370.648V4.05566" stroke="#00A0E9" stroke-width="2" stroke-miterlimit="10" stroke-dasharray="1.2 1.2"/>
<path d="M214.226 2.94966V1.82422" stroke="#00A0E9" stroke-width="2" stroke-miterlimit="10"/>
<path d="M240.798 374.005V372.88" stroke="#00A0E9" stroke-width="2" stroke-miterlimit="10"/>
<path d="M240.798 370.648V4.05566" stroke="#00A0E9" stroke-width="2" stroke-miterlimit="10" stroke-dasharray="1.2 1.2"/>
<path d="M240.798 2.94966V1.82422" stroke="#00A0E9" stroke-width="2" stroke-miterlimit="10"/>
<path d="M267.39 374.005V372.88" stroke="#00A0E9" stroke-width="2" stroke-miterlimit="10"/>
<path d="M267.39 370.648V4.05566" stroke="#00A0E9" stroke-width="2" stroke-miterlimit="10" stroke-dasharray="1.2 1.2"/>
<path d="M267.39 2.94966V1.82422" stroke="#00A0E9" stroke-width="2" stroke-miterlimit="10"/>
<path d="M293.962 374.005V372.88" stroke="#00A0E9" stroke-width="2" stroke-miterlimit="10"/>
<path d="M293.962 370.648V4.05566" stroke="#00A0E9" stroke-width="2" stroke-miterlimit="10" stroke-dasharray="1.2 1.2"/>
<path d="M293.962 2.94966V1.82422" stroke="#00A0E9" stroke-width="2" stroke-miterlimit="10"/>
<path d="M320.532 374.005V372.88" stroke="#00A0E9" stroke-width="2" stroke-miterlimit="10"/>
<path d="M320.532 370.648V4.05566" stroke="#00A0E9" stroke-width="2" stroke-miterlimit="10" stroke-dasharray="1.2 1.2"/>
<path d="M320.532 2.94966V1.82422" stroke="#00A0E9" stroke-width="2" stroke-miterlimit="10"/>
<path d="M347.122 374.005V372.88" stroke="#00A0E9" stroke-width="2" stroke-miterlimit="10"/>
<path d="M347.122 370.648V4.05566" stroke="#00A0E9" stroke-width="2" stroke-miterlimit="10" stroke-dasharray="1.2 1.2"/>
<path d="M347.122 2.94966V1.82422" stroke="#00A0E9" stroke-width="2" stroke-miterlimit="10"/>
<path d="M373.694 374.005V372.88" stroke="#00A0E9" stroke-width="2" stroke-miterlimit="10"/>
<path d="M373.694 370.648V4.05566" stroke="#00A0E9" stroke-width="2" stroke-miterlimit="10" stroke-dasharray="1.2 1.2"/>
<path d="M373.694 2.94966V1.82422" stroke="#00A0E9" stroke-width="2" stroke-miterlimit="10"/>
<path d="M400.267 374.005V372.88" stroke="#00A0E9" stroke-width="2" stroke-miterlimit="10"/>
<path d="M400.267 370.648V4.05566" stroke="#00A0E9" stroke-width="2" stroke-miterlimit="10" stroke-dasharray="1.2 1.2"/>
<path d="M400.267 2.94966V1.82422" stroke="#00A0E9" stroke-width="2" stroke-miterlimit="10"/>
<path d="M426.839 374.005V372.88" stroke="#00A0E9" stroke-width="2" stroke-miterlimit="10"/>
<path d="M426.839 370.648V4.05566" stroke="#00A0E9" stroke-width="2" stroke-miterlimit="10" stroke-dasharray="1.2 1.2"/>
<path d="M426.839 2.94966V1.82422" stroke="#00A0E9" stroke-width="2" stroke-miterlimit="10"/>
<path d="M453.429 374.005V372.88" stroke="#00A0E9" stroke-width="2" stroke-miterlimit="10"/>
<path d="M453.429 370.648V4.05566" stroke="#00A0E9" stroke-width="2" stroke-miterlimit="10" stroke-dasharray="1.2 1.2"/>
<path d="M453.429 2.94966V1.82422" stroke="#00A0E9" stroke-width="2" stroke-miterlimit="10"/>
<path d="M480.001 374.005V372.88" stroke="#00A0E9" stroke-width="2" stroke-miterlimit="10"/>
<path d="M480.001 370.648V4.05566" stroke="#00A0E9" stroke-width="2" stroke-miterlimit="10" stroke-dasharray="1.2 1.2"/>
<path d="M480.001 2.94966V1.82422" stroke="#00A0E9" stroke-width="2" stroke-miterlimit="10"/>
<path d="M506.573 374.005V372.88" stroke="#00A0E9" stroke-width="2" stroke-miterlimit="10"/>
<path d="M506.573 370.648V4.05566" stroke="#00A0E9" stroke-width="2" stroke-miterlimit="10" stroke-dasharray="1.2 1.2"/>
<path d="M506.573 2.94966V1.82422" stroke="#00A0E9" stroke-width="2" stroke-miterlimit="10"/>
<path d="M533.165 374.005V372.88" stroke="#00A0E9" stroke-width="2" stroke-miterlimit="10"/>
<path d="M533.165 370.648V4.05566" stroke="#00A0E9" stroke-width="2" stroke-miterlimit="10" stroke-dasharray="1.2 1.2"/>
<path d="M533.165 2.94966V1.82422" stroke="#00A0E9" stroke-width="2" stroke-miterlimit="10"/>
<path d="M559.737 374.005V372.88" stroke="#00A0E9" stroke-width="2" stroke-miterlimit="10"/>
<path d="M559.737 370.648V4.05566" stroke="#00A0E9" stroke-width="2" stroke-miterlimit="10" stroke-dasharray="1.2 1.2"/>
<path d="M559.737 2.94966V1.82422" stroke="#00A0E9" stroke-width="2" stroke-miterlimit="10"/>
<path d="M586.308 374.005V372.88" stroke="#00A0E9" stroke-width="2" stroke-miterlimit="10"/>
<path d="M586.308 370.648V4.05566" stroke="#00A0E9" stroke-width="2" stroke-miterlimit="10" stroke-dasharray="1.2 1.2"/>
<path d="M586.308 2.94966V1.82422" stroke="#00A0E9" stroke-width="2" stroke-miterlimit="10"/>
<path d="M612.88 374.005V372.88" stroke="#00A0E9" stroke-width="2" stroke-miterlimit="10"/>
<path d="M612.88 370.648V4.05566" stroke="#00A0E9" stroke-width="2" stroke-miterlimit="10" stroke-dasharray="1.2 1.2"/>
<path d="M612.88 2.94966V1.82422" stroke="#00A0E9" stroke-width="2" stroke-miterlimit="10"/>
<path d="M639.47 374.005V372.88" stroke="#00A0E9" stroke-width="2" stroke-miterlimit="10"/>
<path d="M639.47 370.648V4.05566" stroke="#00A0E9" stroke-width="2" stroke-miterlimit="10" stroke-dasharray="1.2 1.2"/>
<path d="M639.47 2.94966V1.82422" stroke="#00A0E9" stroke-width="2" stroke-miterlimit="10"/>
<path d="M666.042 374.005V372.88" stroke="#00A0E9" stroke-width="2" stroke-miterlimit="10"/>
<path d="M666.042 370.648V4.05566" stroke="#00A0E9" stroke-width="2" stroke-miterlimit="10" stroke-dasharray="1.2 1.2"/>
<path d="M666.042 2.94966V1.82422" stroke="#00A0E9" stroke-width="2" stroke-miterlimit="10"/>
<path d="M692.614 374.005V372.88" stroke="#00A0E9" stroke-width="2" stroke-miterlimit="10"/>
<path d="M692.614 370.648V4.05566" stroke="#00A0E9" stroke-width="2" stroke-miterlimit="10" stroke-dasharray="1.2 1.2"/>
<path d="M692.614 2.94966V1.82422" stroke="#00A0E9" stroke-width="2" stroke-miterlimit="10"/>
<path d="M719.204 372.844V374.007H718.022" stroke="#00A0E9" stroke-width="2" stroke-miterlimit="10"/>
<path d="M715.68 374.007H3.95801" stroke="#00A0E9" stroke-width="2" stroke-miterlimit="10" stroke-dasharray="1.25 1.25"/>
<path d="M2.7769 374.007H1.61426V372.844" stroke="#00A0E9" stroke-width="2" stroke-miterlimit="10"/>
<path d="M1.61426 370.48V4.16895" stroke="#00A0E9" stroke-width="2" stroke-miterlimit="10" stroke-dasharray="1.26 1.26"/>
<path d="M1.61426 2.98717V1.82422H2.7769" stroke="#00A0E9" stroke-width="2" stroke-miterlimit="10"/>
<path d="M5.12012 1.82422H716.861" stroke="#00A0E9" stroke-width="2" stroke-miterlimit="10" stroke-dasharray="1.25 1.25"/>
<path d="M718.022 1.82422H719.204V2.98717" stroke="#00A0E9" stroke-width="2" stroke-miterlimit="10"/>
<path d="M719.204 5.34961V371.661" stroke="#00A0E9" stroke-width="2" stroke-miterlimit="10" stroke-dasharray="1.26 1.26"/>
</svg>
