<svg width="385" height="216" viewBox="0 0 385 216" fill="none" xmlns="http://www.w3.org/2000/svg">
<path d="M100.5 52.9103C100.5 47.9893 104.489 44 109.41 44H145.794V147.954H100.5V52.9103Z" fill="#F1EAE5"/>
<text fill="#222222" xml:space="preserve" style="white-space: pre" font-family="Pretendard" font-size="11.8804" letter-spacing="-0.371263px"><tspan x="131.686" y="77.7448">20</tspan></text>
<text fill="#222222" xml:space="preserve" style="white-space: pre" font-family="Pretendard" font-size="11.8804" letter-spacing="-0.371263px"><tspan x="133.794" y="114.871">10</tspan></text>
<text fill="#222222" xml:space="preserve" style="white-space: pre" font-family="Pretendard" font-size="11.8804" letter-spacing="-0.371263px"><tspan x="138.369" y="146.237">0</tspan></text>
<text fill="#222222" xml:space="preserve" style="white-space: pre" font-family="Pretendard" font-size="11.8804" letter-spacing="-0.371263px"><tspan x="100.5" y="57.1334">(&#xba85;)</tspan></text>
<mask id="path-6-inside-1_9459_24282" fill="white">
<path d="M145.794 44H285.389V147.954H145.794V44Z"/>
</mask>
<path d="M145.794 44H285.389V147.954H145.794V44Z" fill="white"/>
<path d="M285.389 147.954V148.696H286.132V147.954H285.389ZM145.794 147.954H145.052V148.696H145.794V147.954ZM284.647 44V147.954H286.132V44H284.647ZM285.389 147.211H145.794V148.696H285.389V147.211ZM146.537 147.954V44H145.052V147.954H146.537Z" fill="black" mask="url(#path-6-inside-1_9459_24282)"/>
<rect x="254.945" y="103.402" width="11.8804" height="43.809" fill="#C7D5ED"/>
<rect x="208.166" y="95.9766" width="11.8804" height="51.2343" fill="#C7D5ED"/>
<rect x="162.13" y="51.4253" width="11.8804" height="95.7858" fill="#C7D5ED"/>
<path d="M146.537 110.827L284.646 110.827" stroke="#444444" stroke-width="0.742526"/>
<path d="M146.537 44L284.646 44" stroke="#444444" stroke-width="0.742526"/>
<path d="M146.537 51.4253L284.646 51.4253" stroke="#D2D2D2" stroke-width="0.742526" stroke-dasharray="1.49 1.49"/>
<path d="M146.537 58.8506L284.646 58.8506" stroke="#D2D2D2" stroke-width="0.742526" stroke-dasharray="1.49 1.49"/>
<path d="M146.537 66.2759L284.646 66.2759" stroke="#D2D2D2" stroke-width="0.742526" stroke-dasharray="1.49 1.49"/>
<path d="M146.537 73.7012L284.646 73.7012" stroke="#444444" stroke-width="0.742526"/>
<path d="M146.537 81.126L284.646 81.126" stroke="#D2D2D2" stroke-width="0.742526" stroke-dasharray="1.49 1.49"/>
<path d="M146.537 88.5513L284.646 88.5513" stroke="#D2D2D2" stroke-width="0.742526" stroke-dasharray="1.49 1.49"/>
<path d="M146.537 95.9766L284.646 95.9766" stroke="#D2D2D2" stroke-width="0.742526" stroke-dasharray="1.49 1.49"/>
<path d="M146.537 103.402L284.646 103.402" stroke="#D2D2D2" stroke-width="0.742526" stroke-dasharray="1.49 1.49"/>
<path d="M146.537 118.252L284.646 118.252" stroke="#D2D2D2" stroke-width="0.742526" stroke-dasharray="1.49 1.49"/>
<path d="M146.537 125.678L284.646 125.678" stroke="#D2D2D2" stroke-width="0.742526" stroke-dasharray="1.49 1.49"/>
<path d="M146.537 133.104L284.646 133.104" stroke="#D2D2D2" stroke-width="0.742526" stroke-dasharray="1.49 1.49"/>
<path d="M146.537 140.529L284.646 140.529" stroke="#D2D2D2" stroke-width="0.742526" stroke-dasharray="1.49 1.49"/>
<path d="M190.717 147.582V44" stroke="black" stroke-width="0.742526"/>
<path d="M237.496 147.211V44" stroke="black" stroke-width="0.742526"/>
<mask id="path-27-inside-2_9459_24282" fill="white">
<path d="M100.5 148.043H145.794V171.804H109.41C104.489 171.804 100.5 167.815 100.5 162.894V148.043Z"/>
</mask>
<path d="M100.5 148.043H145.794V171.804H109.41C104.489 171.804 100.5 167.815 100.5 162.894V148.043Z" fill="#F1EAE5"/>
<path d="M100.5 147.301H146.537L145.052 148.786H100.5V147.301ZM145.794 171.804H100.5H145.794ZM100.5 171.804V148.043V171.804ZM146.537 147.301V171.804H145.052V148.786L146.537 147.301Z" fill="black" mask="url(#path-27-inside-2_9459_24282)"/>
<mask id="mask0_9459_24282" style="mask-type:alpha" maskUnits="userSpaceOnUse" x="100" y="148" width="46" height="24">
<path d="M100.5 148.042H145.794V171.803H109.41C104.489 171.803 100.5 167.814 100.5 162.893V148.042Z" fill="#F1EAE5"/>
</mask>
<g mask="url(#mask0_9459_24282)">
<path d="M145.794 148.042L100.5 171.803" stroke="black" stroke-width="0.742526"/>
</g>
<text fill="black" xml:space="preserve" style="white-space: pre" font-family="Pretendard" font-size="7.42526" letter-spacing="-0.371263px"><tspan x="101.985" y="157.365">&#xd559;&#xc0dd;&#xc218;</tspan></text>
<text fill="black" xml:space="preserve" style="white-space: pre" font-family="Pretendard" font-size="7.42526" letter-spacing="-0.371263px"><tspan x="131.686" y="167.76">&#xd559;&#xae09;</tspan></text>
<mask id="path-33-inside-3_9459_24282" fill="white">
<path d="M145.794 147.954H191.495V171.894H145.794V147.954Z"/>
</mask>
<path d="M145.794 147.954H191.495V171.894H145.794V147.954Z" fill="#F1EAE5"/>
<path d="M190.753 147.954V171.894H192.238V147.954H190.753Z" fill="black" mask="url(#path-33-inside-3_9459_24282)"/>
<text fill="#222222" xml:space="preserve" style="white-space: pre" font-family="Pretendard" font-size="11.8804" letter-spacing="-0.371263px"><tspan x="160.645" y="164.057">1&#xbc18;</tspan></text>
<mask id="path-36-inside-4_9459_24282" fill="white">
<path d="M191.495 147.954H238.196V171.894H191.495V147.954Z"/>
</mask>
<path d="M191.495 147.954H238.196V171.894H191.495V147.954Z" fill="#F1EAE5"/>
<path d="M237.454 147.954V171.894H238.939V147.954H237.454Z" fill="black" mask="url(#path-36-inside-4_9459_24282)"/>
<text fill="#222222" xml:space="preserve" style="white-space: pre" font-family="Pretendard" font-size="11.8804" letter-spacing="-0.371263px"><tspan x="206.346" y="164.057">2&#xbc18;</tspan></text>
<mask id="path-39-inside-5_9459_24282" fill="white">
<path d="M238.196 147.954H285.897V171.894H238.196V147.954Z"/>
</mask>
<path d="M238.196 147.954H285.897V171.894H238.196V147.954Z" fill="#F1EAE5"/>
<path d="M285.155 147.954V171.894H286.64V147.954H285.155Z" fill="black" mask="url(#path-39-inside-5_9459_24282)"/>
<text fill="#222222" xml:space="preserve" style="white-space: pre" font-family="Pretendard" font-size="11.8804" letter-spacing="-0.371263px"><tspan x="253.047" y="164.057">3&#xbc18;</tspan></text>
<text fill="#222222" xml:space="preserve" style="white-space: pre" font-family="Pretendard" font-size="16" font-weight="bold" letter-spacing="-0.5px"><tspan x="117.5" y="31.6875">&#xb9c9;&#xb300;&#xadf8;&#xb798;&#xd504;&#xc758; &#xb0b4;&#xc6a9; &#xc54c;&#xc544;&#xbcf4;&#xae30;</tspan></text>
<text fill="#222222" xml:space="preserve" style="white-space: pre" font-family="Pretendard" font-size="16" font-weight="bold" letter-spacing="-0.5px"><tspan x="57.5" y="195.688">&#xd559;&#xc0dd; &#xc218;&#xb294; 1&#xbc18;, 2&#xbc18;, 3&#xbc18;&#xc758; &#xcc28;&#xb840;&#xb300;&#xb85c; &#xb9ce;&#xc2b5;&#xb2c8;&#xb2e4;.</tspan></text>
</svg>
