<svg width="400" height="158" viewBox="0 0 400 158" fill="none" xmlns="http://www.w3.org/2000/svg">
<g clip-path="url(#clip0_409_986)">
<path d="M-87 -28V93.7064C-9.84404 98.0183 24.5963 135.321 24.5963 135.321C60.3578 99.5596 72.156 89.8899 245.881 89.8899C391.514 89.8899 407.11 -28 407.11 -28" fill="#B9ABF9"/>
<mask id="mask0_409_986" style="mask-type:luminance" maskUnits="userSpaceOnUse" x="-87" y="-28" width="495" height="164">
<path d="M-87 -27.999V93.7074C-9.84404 98.0193 24.5963 135.322 24.5963 135.322C60.3578 99.5606 72.156 89.8909 245.881 89.8909C391.514 89.8909 407.11 -27.999 407.11 -27.999" fill="white"/>
</mask>
<g mask="url(#mask0_409_986)">
<g opacity="0.3">
<path d="M12.1012 0.258789L7.55078 6.68081" stroke="white" stroke-width="3.66972" stroke-linecap="round" stroke-linejoin="round"/>
<path d="M28.779 0.258789L24.2285 6.68081" stroke="white" stroke-width="3.66972" stroke-linecap="round" stroke-linejoin="round"/>
<path d="M45.4587 0.258789L40.9082 6.68081" stroke="white" stroke-width="3.66972" stroke-linecap="round" stroke-linejoin="round"/>
<path d="M62.1364 0.258789L57.5859 6.68081" stroke="white" stroke-width="3.66972" stroke-linecap="round" stroke-linejoin="round"/>
<path d="M78.8161 0.258789L74.2656 6.68081" stroke="white" stroke-width="3.66972" stroke-linecap="round" stroke-linejoin="round"/>
<path d="M95.4938 0.258789L90.9434 6.68081" stroke="white" stroke-width="3.66972" stroke-linecap="round" stroke-linejoin="round"/>
<path d="M112.174 0.258789L107.623 6.68081" stroke="white" stroke-width="3.66972" stroke-linecap="round" stroke-linejoin="round"/>
<path d="M128.853 0.258789L124.303 6.68081" stroke="white" stroke-width="3.66972" stroke-linecap="round" stroke-linejoin="round"/>
<path d="M145.531 0.258789L140.98 6.68081" stroke="white" stroke-width="3.66972" stroke-linecap="round" stroke-linejoin="round"/>
<path d="M162.211 0.258789L157.66 6.68081" stroke="white" stroke-width="3.66972" stroke-linecap="round" stroke-linejoin="round"/>
<path d="M178.888 0.258789L174.338 6.68081" stroke="white" stroke-width="3.66972" stroke-linecap="round" stroke-linejoin="round"/>
<path d="M195.568 0.258789L191.018 6.68081" stroke="white" stroke-width="3.66972" stroke-linecap="round" stroke-linejoin="round"/>
<path d="M212.247 0.258789L207.715 6.68081" stroke="white" stroke-width="3.66972" stroke-linecap="round" stroke-linejoin="round"/>
<path d="M228.927 0.258789L224.395 6.68081" stroke="white" stroke-width="3.66972" stroke-linecap="round" stroke-linejoin="round"/>
<path d="M245.604 0.258789L241.072 6.68081" stroke="white" stroke-width="3.66972" stroke-linecap="round" stroke-linejoin="round"/>
<path d="M262.282 0.258789L257.75 6.68081" stroke="white" stroke-width="3.66972" stroke-linecap="round" stroke-linejoin="round"/>
<path d="M278.962 0.258789L274.43 6.68081" stroke="white" stroke-width="3.66972" stroke-linecap="round" stroke-linejoin="round"/>
<path d="M295.641 0.258789L291.109 6.68081" stroke="white" stroke-width="3.66972" stroke-linecap="round" stroke-linejoin="round"/>
<path d="M312.321 0.258789L307.789 6.68081" stroke="white" stroke-width="3.66972" stroke-linecap="round" stroke-linejoin="round"/>
<path d="M328.999 0.258789L324.467 6.68081" stroke="white" stroke-width="3.66972" stroke-linecap="round" stroke-linejoin="round"/>
<path d="M345.679 0.258789L341.146 6.68081" stroke="white" stroke-width="3.66972" stroke-linecap="round" stroke-linejoin="round"/>
<path d="M362.356 0.258789L357.824 6.68081" stroke="white" stroke-width="3.66972" stroke-linecap="round" stroke-linejoin="round"/>
<path d="M379.036 0.258789L374.504 6.68081" stroke="white" stroke-width="3.66972" stroke-linecap="round" stroke-linejoin="round"/>
<path d="M395.716 0.258789L391.184 6.68081" stroke="white" stroke-width="3.66972" stroke-linecap="round" stroke-linejoin="round"/>
<path d="M391.184 21.1016L395.716 27.5236" stroke="white" stroke-width="3.66972" stroke-linecap="round" stroke-linejoin="round"/>
<path d="M374.504 21.1016L379.036 27.5236" stroke="white" stroke-width="3.66972" stroke-linecap="round" stroke-linejoin="round"/>
<path d="M357.824 21.1016L362.356 27.5236" stroke="white" stroke-width="3.66972" stroke-linecap="round" stroke-linejoin="round"/>
<path d="M341.146 21.1016L345.679 27.5236" stroke="white" stroke-width="3.66972" stroke-linecap="round" stroke-linejoin="round"/>
<path d="M324.467 21.1016L328.999 27.5236" stroke="white" stroke-width="3.66972" stroke-linecap="round" stroke-linejoin="round"/>
<path d="M307.789 21.1016L312.321 27.5236" stroke="white" stroke-width="3.66972" stroke-linecap="round" stroke-linejoin="round"/>
<path d="M291.109 21.1016L295.641 27.5236" stroke="white" stroke-width="3.66972" stroke-linecap="round" stroke-linejoin="round"/>
<path d="M274.412 21.1016L278.963 27.5236" stroke="white" stroke-width="3.66972" stroke-linecap="round" stroke-linejoin="round"/>
<path d="M257.732 21.1016L262.283 27.5236" stroke="white" stroke-width="3.66972" stroke-linecap="round" stroke-linejoin="round"/>
<path d="M241.055 21.1016L245.605 27.5236" stroke="white" stroke-width="3.66972" stroke-linecap="round" stroke-linejoin="round"/>
<path d="M224.375 21.1016L228.925 27.5236" stroke="white" stroke-width="3.66972" stroke-linecap="round" stroke-linejoin="round"/>
<path d="M207.697 21.1016L212.248 27.5236" stroke="white" stroke-width="3.66972" stroke-linecap="round" stroke-linejoin="round"/>
<path d="M191.018 21.1016L195.568 27.5236" stroke="white" stroke-width="3.66972" stroke-linecap="round" stroke-linejoin="round"/>
<path d="M174.338 21.1016L178.888 27.5236" stroke="white" stroke-width="3.66972" stroke-linecap="round" stroke-linejoin="round"/>
<path d="M157.66 21.1016L162.211 27.5236" stroke="white" stroke-width="3.66972" stroke-linecap="round" stroke-linejoin="round"/>
<path d="M140.98 21.1016L145.531 27.5236" stroke="white" stroke-width="3.66972" stroke-linecap="round" stroke-linejoin="round"/>
<path d="M124.303 21.1016L128.853 27.5236" stroke="white" stroke-width="3.66972" stroke-linecap="round" stroke-linejoin="round"/>
<path d="M107.623 21.1016L112.174 27.5236" stroke="white" stroke-width="3.66972" stroke-linecap="round" stroke-linejoin="round"/>
<path d="M90.9434 21.1016L95.4938 27.5236" stroke="white" stroke-width="3.66972" stroke-linecap="round" stroke-linejoin="round"/>
<path d="M74.2656 21.1016L78.8161 27.5236" stroke="white" stroke-width="3.66972" stroke-linecap="round" stroke-linejoin="round"/>
<path d="M57.5859 21.1016L62.1364 27.5236" stroke="white" stroke-width="3.66972" stroke-linecap="round" stroke-linejoin="round"/>
<path d="M40.9082 21.1016L45.4587 27.5236" stroke="white" stroke-width="3.66972" stroke-linecap="round" stroke-linejoin="round"/>
<path d="M24.2285 21.1016L28.779 27.5236" stroke="white" stroke-width="3.66972" stroke-linecap="round" stroke-linejoin="round"/>
<path d="M7.55078 21.1016L12.1012 27.5236" stroke="white" stroke-width="3.66972" stroke-linecap="round" stroke-linejoin="round"/>
<path d="M12.1012 41.9482L7.55078 48.3703" stroke="white" stroke-width="3.66972" stroke-linecap="round" stroke-linejoin="round"/>
<path d="M28.779 41.9482L24.2285 48.3703" stroke="white" stroke-width="3.66972" stroke-linecap="round" stroke-linejoin="round"/>
<path d="M45.4587 41.9482L40.9082 48.3703" stroke="white" stroke-width="3.66972" stroke-linecap="round" stroke-linejoin="round"/>
<path d="M62.1364 41.9482L57.5859 48.3703" stroke="white" stroke-width="3.66972" stroke-linecap="round" stroke-linejoin="round"/>
<path d="M78.8161 41.9482L74.2656 48.3703" stroke="white" stroke-width="3.66972" stroke-linecap="round" stroke-linejoin="round"/>
<path d="M95.4938 41.9482L90.9434 48.3703" stroke="white" stroke-width="3.66972" stroke-linecap="round" stroke-linejoin="round"/>
<path d="M112.174 41.9482L107.623 48.3703" stroke="white" stroke-width="3.66972" stroke-linecap="round" stroke-linejoin="round"/>
<path d="M128.853 41.9482L124.303 48.3703" stroke="white" stroke-width="3.66972" stroke-linecap="round" stroke-linejoin="round"/>
<path d="M145.531 41.9482L140.98 48.3703" stroke="white" stroke-width="3.66972" stroke-linecap="round" stroke-linejoin="round"/>
<path d="M162.211 41.9482L157.66 48.3703" stroke="white" stroke-width="3.66972" stroke-linecap="round" stroke-linejoin="round"/>
<path d="M178.888 41.9482L174.338 48.3703" stroke="white" stroke-width="3.66972" stroke-linecap="round" stroke-linejoin="round"/>
<path d="M195.568 41.9482L191.018 48.3703" stroke="white" stroke-width="3.66972" stroke-linecap="round" stroke-linejoin="round"/>
<path d="M212.247 41.9482L207.715 48.3703" stroke="white" stroke-width="3.66972" stroke-linecap="round" stroke-linejoin="round"/>
<path d="M228.927 41.9482L224.395 48.3703" stroke="white" stroke-width="3.66972" stroke-linecap="round" stroke-linejoin="round"/>
<path d="M245.604 41.9482L241.072 48.3703" stroke="white" stroke-width="3.66972" stroke-linecap="round" stroke-linejoin="round"/>
<path d="M262.282 41.9482L257.75 48.3703" stroke="white" stroke-width="3.66972" stroke-linecap="round" stroke-linejoin="round"/>
<path d="M278.962 41.9482L274.43 48.3703" stroke="white" stroke-width="3.66972" stroke-linecap="round" stroke-linejoin="round"/>
<path d="M295.641 41.9482L291.109 48.3703" stroke="white" stroke-width="3.66972" stroke-linecap="round" stroke-linejoin="round"/>
<path d="M312.321 41.9482L307.789 48.3703" stroke="white" stroke-width="3.66972" stroke-linecap="round" stroke-linejoin="round"/>
<path d="M328.999 41.9482L324.467 48.3703" stroke="white" stroke-width="3.66972" stroke-linecap="round" stroke-linejoin="round"/>
<path d="M345.679 41.9482L341.146 48.3703" stroke="white" stroke-width="3.66972" stroke-linecap="round" stroke-linejoin="round"/>
<path d="M362.356 41.9482L357.824 48.3703" stroke="white" stroke-width="3.66972" stroke-linecap="round" stroke-linejoin="round"/>
<path d="M379.036 41.9482L374.504 48.3703" stroke="white" stroke-width="3.66972" stroke-linecap="round" stroke-linejoin="round"/>
<path d="M395.716 41.9482L391.184 48.3703" stroke="white" stroke-width="3.66972" stroke-linecap="round" stroke-linejoin="round"/>
<path d="M391.184 62.8086L395.716 69.2306" stroke="white" stroke-width="3.66972" stroke-linecap="round" stroke-linejoin="round"/>
<path d="M374.504 62.8086L379.036 69.2306" stroke="white" stroke-width="3.66972" stroke-linecap="round" stroke-linejoin="round"/>
<path d="M357.824 62.8086L362.356 69.2306" stroke="white" stroke-width="3.66972" stroke-linecap="round" stroke-linejoin="round"/>
<path d="M341.146 62.8086L345.679 69.2306" stroke="white" stroke-width="3.66972" stroke-linecap="round" stroke-linejoin="round"/>
<path d="M324.467 62.8086L328.999 69.2306" stroke="white" stroke-width="3.66972" stroke-linecap="round" stroke-linejoin="round"/>
<path d="M307.789 62.8086L312.321 69.2306" stroke="white" stroke-width="3.66972" stroke-linecap="round" stroke-linejoin="round"/>
<path d="M291.109 62.8086L295.641 69.2306" stroke="white" stroke-width="3.66972" stroke-linecap="round" stroke-linejoin="round"/>
<path d="M274.412 62.8086L278.963 69.2306" stroke="white" stroke-width="3.66972" stroke-linecap="round" stroke-linejoin="round"/>
<path d="M257.732 62.8086L262.283 69.2306" stroke="white" stroke-width="3.66972" stroke-linecap="round" stroke-linejoin="round"/>
<path d="M241.055 62.8086L245.605 69.2306" stroke="white" stroke-width="3.66972" stroke-linecap="round" stroke-linejoin="round"/>
<path d="M224.375 62.8086L228.925 69.2306" stroke="white" stroke-width="3.66972" stroke-linecap="round" stroke-linejoin="round"/>
<path d="M207.697 62.8086L212.248 69.2306" stroke="white" stroke-width="3.66972" stroke-linecap="round" stroke-linejoin="round"/>
<path d="M191.018 62.8086L195.568 69.2306" stroke="white" stroke-width="3.66972" stroke-linecap="round" stroke-linejoin="round"/>
<path d="M174.338 62.8086L178.888 69.2306" stroke="white" stroke-width="3.66972" stroke-linecap="round" stroke-linejoin="round"/>
<path d="M157.66 62.8086L162.211 69.2306" stroke="white" stroke-width="3.66972" stroke-linecap="round" stroke-linejoin="round"/>
<path d="M140.98 62.8086L145.531 69.2306" stroke="white" stroke-width="3.66972" stroke-linecap="round" stroke-linejoin="round"/>
<path d="M124.303 62.8086L128.853 69.2306" stroke="white" stroke-width="3.66972" stroke-linecap="round" stroke-linejoin="round"/>
<path d="M107.623 62.8086L112.174 69.2306" stroke="white" stroke-width="3.66972" stroke-linecap="round" stroke-linejoin="round"/>
<path d="M90.9434 62.8086L95.4938 69.2306" stroke="white" stroke-width="3.66972" stroke-linecap="round" stroke-linejoin="round"/>
<path d="M74.2656 62.8086L78.8161 69.2306" stroke="white" stroke-width="3.66972" stroke-linecap="round" stroke-linejoin="round"/>
<path d="M57.5859 62.8086L62.1364 69.2306" stroke="white" stroke-width="3.66972" stroke-linecap="round" stroke-linejoin="round"/>
<path d="M40.9082 62.8086L45.4587 69.2306" stroke="white" stroke-width="3.66972" stroke-linecap="round" stroke-linejoin="round"/>
<path d="M24.2285 62.8086L28.779 69.2306" stroke="white" stroke-width="3.66972" stroke-linecap="round" stroke-linejoin="round"/>
<path d="M7.55078 62.8086L12.1012 69.2306" stroke="white" stroke-width="3.66972" stroke-linecap="round" stroke-linejoin="round"/>
<path d="M12.1012 83.6514L7.55078 90.0734" stroke="white" stroke-width="3.66972" stroke-linecap="round" stroke-linejoin="round"/>
<path d="M28.779 83.6514L24.2285 90.0734" stroke="white" stroke-width="3.66972" stroke-linecap="round" stroke-linejoin="round"/>
<path d="M45.4587 83.6514L40.9082 90.0734" stroke="white" stroke-width="3.66972" stroke-linecap="round" stroke-linejoin="round"/>
<path d="M62.1364 83.6514L57.5859 90.0734" stroke="white" stroke-width="3.66972" stroke-linecap="round" stroke-linejoin="round"/>
<path d="M78.8161 83.6514L74.2656 90.0734" stroke="white" stroke-width="3.66972" stroke-linecap="round" stroke-linejoin="round"/>
<path d="M95.4938 83.6514L90.9434 90.0734" stroke="white" stroke-width="3.66972" stroke-linecap="round" stroke-linejoin="round"/>
<path d="M112.174 83.6514L107.623 90.0734" stroke="white" stroke-width="3.66972" stroke-linecap="round" stroke-linejoin="round"/>
<path d="M128.853 83.6514L124.303 90.0734" stroke="white" stroke-width="3.66972" stroke-linecap="round" stroke-linejoin="round"/>
<path d="M145.531 83.6514L140.98 90.0734" stroke="white" stroke-width="3.66972" stroke-linecap="round" stroke-linejoin="round"/>
<path d="M162.211 83.6514L157.66 90.0734" stroke="white" stroke-width="3.66972" stroke-linecap="round" stroke-linejoin="round"/>
<path d="M178.888 83.6514L174.338 90.0734" stroke="white" stroke-width="3.66972" stroke-linecap="round" stroke-linejoin="round"/>
<path d="M195.568 83.6514L191.018 90.0734" stroke="white" stroke-width="3.66972" stroke-linecap="round" stroke-linejoin="round"/>
<path d="M212.247 83.6514L207.715 90.0734" stroke="white" stroke-width="3.66972" stroke-linecap="round" stroke-linejoin="round"/>
<path d="M228.927 83.6514L224.395 90.0734" stroke="white" stroke-width="3.66972" stroke-linecap="round" stroke-linejoin="round"/>
<path d="M245.604 83.6514L241.072 90.0734" stroke="white" stroke-width="3.66972" stroke-linecap="round" stroke-linejoin="round"/>
<path d="M262.282 83.6514L257.75 90.0734" stroke="white" stroke-width="3.66972" stroke-linecap="round" stroke-linejoin="round"/>
<path d="M278.962 83.6514L274.43 90.0734" stroke="white" stroke-width="3.66972" stroke-linecap="round" stroke-linejoin="round"/>
<path d="M295.641 83.6514L291.109 90.0734" stroke="white" stroke-width="3.66972" stroke-linecap="round" stroke-linejoin="round"/>
<path d="M312.321 83.6514L307.789 90.0734" stroke="white" stroke-width="3.66972" stroke-linecap="round" stroke-linejoin="round"/>
<path d="M328.999 83.6514L324.467 90.0734" stroke="white" stroke-width="3.66972" stroke-linecap="round" stroke-linejoin="round"/>
<path d="M345.679 83.6514L341.146 90.0734" stroke="white" stroke-width="3.66972" stroke-linecap="round" stroke-linejoin="round"/>
<path d="M362.356 83.6514L357.824 90.0734" stroke="white" stroke-width="3.66972" stroke-linecap="round" stroke-linejoin="round"/>
<path d="M379.036 83.6514L374.504 90.0734" stroke="white" stroke-width="3.66972" stroke-linecap="round" stroke-linejoin="round"/>
<path d="M395.716 83.6514L391.184 90.0734" stroke="white" stroke-width="3.66972" stroke-linecap="round" stroke-linejoin="round"/>
<path d="M391.184 104.498L395.716 110.92" stroke="white" stroke-width="3.66972" stroke-linecap="round" stroke-linejoin="round"/>
<path d="M374.504 104.498L379.036 110.92" stroke="white" stroke-width="3.66972" stroke-linecap="round" stroke-linejoin="round"/>
<path d="M357.824 104.498L362.356 110.92" stroke="white" stroke-width="3.66972" stroke-linecap="round" stroke-linejoin="round"/>
<path d="M341.146 104.498L345.679 110.92" stroke="white" stroke-width="3.66972" stroke-linecap="round" stroke-linejoin="round"/>
<path d="M324.467 104.498L328.999 110.92" stroke="white" stroke-width="3.66972" stroke-linecap="round" stroke-linejoin="round"/>
<path d="M307.789 104.498L312.321 110.92" stroke="white" stroke-width="3.66972" stroke-linecap="round" stroke-linejoin="round"/>
<path d="M291.109 104.498L295.641 110.92" stroke="white" stroke-width="3.66972" stroke-linecap="round" stroke-linejoin="round"/>
<path d="M274.412 104.498L278.963 110.92" stroke="white" stroke-width="3.66972" stroke-linecap="round" stroke-linejoin="round"/>
<path d="M257.732 104.498L262.283 110.92" stroke="white" stroke-width="3.66972" stroke-linecap="round" stroke-linejoin="round"/>
<path d="M241.055 104.498L245.605 110.92" stroke="white" stroke-width="3.66972" stroke-linecap="round" stroke-linejoin="round"/>
<path d="M224.375 104.498L228.925 110.92" stroke="white" stroke-width="3.66972" stroke-linecap="round" stroke-linejoin="round"/>
<path d="M207.697 104.498L212.248 110.92" stroke="white" stroke-width="3.66972" stroke-linecap="round" stroke-linejoin="round"/>
<path d="M191.018 104.498L195.568 110.92" stroke="white" stroke-width="3.66972" stroke-linecap="round" stroke-linejoin="round"/>
<path d="M174.338 104.498L178.888 110.92" stroke="white" stroke-width="3.66972" stroke-linecap="round" stroke-linejoin="round"/>
<path d="M157.66 104.498L162.211 110.92" stroke="white" stroke-width="3.66972" stroke-linecap="round" stroke-linejoin="round"/>
<path d="M140.98 104.498L145.531 110.92" stroke="white" stroke-width="3.66972" stroke-linecap="round" stroke-linejoin="round"/>
<path d="M124.303 104.498L128.853 110.92" stroke="white" stroke-width="3.66972" stroke-linecap="round" stroke-linejoin="round"/>
<path d="M107.623 104.498L112.174 110.92" stroke="white" stroke-width="3.66972" stroke-linecap="round" stroke-linejoin="round"/>
<path d="M90.9434 104.498L95.4938 110.92" stroke="white" stroke-width="3.66972" stroke-linecap="round" stroke-linejoin="round"/>
<path d="M74.2656 104.498L78.8161 110.92" stroke="white" stroke-width="3.66972" stroke-linecap="round" stroke-linejoin="round"/>
<path d="M57.5859 104.498L62.1364 110.92" stroke="white" stroke-width="3.66972" stroke-linecap="round" stroke-linejoin="round"/>
<path d="M40.9082 104.498L45.4587 110.92" stroke="white" stroke-width="3.66972" stroke-linecap="round" stroke-linejoin="round"/>
<path d="M24.2285 104.498L28.779 110.92" stroke="white" stroke-width="3.66972" stroke-linecap="round" stroke-linejoin="round"/>
<path d="M7.55078 104.498L12.1012 110.92" stroke="white" stroke-width="3.66972" stroke-linecap="round" stroke-linejoin="round"/>
<path d="M12.1012 125.341L7.55078 131.763" stroke="white" stroke-width="3.66972" stroke-linecap="round" stroke-linejoin="round"/>
<path d="M28.779 125.341L24.2285 131.763" stroke="white" stroke-width="3.66972" stroke-linecap="round" stroke-linejoin="round"/>
<path d="M45.4587 125.341L40.9082 131.763" stroke="white" stroke-width="3.66972" stroke-linecap="round" stroke-linejoin="round"/>
<path d="M62.1364 125.341L57.5859 131.763" stroke="white" stroke-width="3.66972" stroke-linecap="round" stroke-linejoin="round"/>
<path d="M78.8161 125.341L74.2656 131.763" stroke="white" stroke-width="3.66972" stroke-linecap="round" stroke-linejoin="round"/>
<path d="M95.4938 125.341L90.9434 131.763" stroke="white" stroke-width="3.66972" stroke-linecap="round" stroke-linejoin="round"/>
<path d="M112.174 125.341L107.623 131.763" stroke="white" stroke-width="3.66972" stroke-linecap="round" stroke-linejoin="round"/>
<path d="M128.853 125.341L124.303 131.763" stroke="white" stroke-width="3.66972" stroke-linecap="round" stroke-linejoin="round"/>
<path d="M145.531 125.341L140.98 131.763" stroke="white" stroke-width="3.66972" stroke-linecap="round" stroke-linejoin="round"/>
<path d="M162.211 125.341L157.66 131.763" stroke="white" stroke-width="3.66972" stroke-linecap="round" stroke-linejoin="round"/>
<path d="M178.888 125.341L174.338 131.763" stroke="white" stroke-width="3.66972" stroke-linecap="round" stroke-linejoin="round"/>
<path d="M195.568 125.341L191.018 131.763" stroke="white" stroke-width="3.66972" stroke-linecap="round" stroke-linejoin="round"/>
<path d="M212.247 125.341L207.715 131.763" stroke="white" stroke-width="3.66972" stroke-linecap="round" stroke-linejoin="round"/>
<path d="M228.927 125.341L224.395 131.763" stroke="white" stroke-width="3.66972" stroke-linecap="round" stroke-linejoin="round"/>
<path d="M245.604 125.341L241.072 131.763" stroke="white" stroke-width="3.66972" stroke-linecap="round" stroke-linejoin="round"/>
<path d="M262.282 125.341L257.75 131.763" stroke="white" stroke-width="3.66972" stroke-linecap="round" stroke-linejoin="round"/>
<path d="M278.962 125.341L274.43 131.763" stroke="white" stroke-width="3.66972" stroke-linecap="round" stroke-linejoin="round"/>
<path d="M295.641 125.341L291.109 131.763" stroke="white" stroke-width="3.66972" stroke-linecap="round" stroke-linejoin="round"/>
<path d="M312.321 125.341L307.789 131.763" stroke="white" stroke-width="3.66972" stroke-linecap="round" stroke-linejoin="round"/>
<path d="M328.999 125.341L324.467 131.763" stroke="white" stroke-width="3.66972" stroke-linecap="round" stroke-linejoin="round"/>
<path d="M345.679 125.341L341.146 131.763" stroke="white" stroke-width="3.66972" stroke-linecap="round" stroke-linejoin="round"/>
<path d="M362.356 125.341L357.824 131.763" stroke="white" stroke-width="3.66972" stroke-linecap="round" stroke-linejoin="round"/>
<path d="M379.036 125.341L374.504 131.763" stroke="white" stroke-width="3.66972" stroke-linecap="round" stroke-linejoin="round"/>
<path d="M395.716 125.341L391.184 131.763" stroke="white" stroke-width="3.66972" stroke-linecap="round" stroke-linejoin="round"/>
</g>
</g>
<path d="M232.303 81.6871C232.303 81.6871 237.698 101.155 213.551 108.751C195.973 114.274 170.285 100.054 167.624 99.1733C113.826 81.265 89.8077 122.182 64.8903 132.531C39.9728 142.88 22.4499 126.201 18.0279 113.522C12.6701 98.1274 21.2022 85.0265 45.6609 71.8338C82.8719 51.7605 131.386 46.366 160.688 48.7329C215.588 53.1733 229.276 67.3935 232.303 81.7054" fill="#8F659D"/>
<mask id="mask1_409_986" style="mask-type:luminance" maskUnits="userSpaceOnUse" x="16" y="48" width="217" height="88">
<path d="M45.6808 71.8137C21.2404 85.0064 12.69 98.1073 18.0478 113.502C22.4514 126.181 39.9927 142.86 64.9101 132.511C89.8276 122.162 113.846 81.2449 167.644 99.1531C170.305 100.034 195.993 114.272 213.571 108.731C237.717 101.135 232.323 81.6669 232.323 81.6669C229.295 67.355 215.607 53.1348 160.708 48.6944C156.506 48.3641 151.919 48.1807 147.02 48.1807C117.736 48.1807 77.5523 54.6027 45.6808 71.8137Z" fill="white"/>
</mask>
<g mask="url(#mask1_409_986)">
<g style="mix-blend-mode:multiply">
<mask id="mask2_409_986" style="mask-type:luminance" maskUnits="userSpaceOnUse" x="4" y="79" width="58" height="26">
<path d="M61.7905 79.3574H4.26758V104.752H61.7905V79.3574Z" fill="white"/>
</mask>
<g mask="url(#mask2_409_986)">
<path d="M6.10156 99.6866C6.10156 99.6866 19.8814 107.742 33.1474 98.3839C41.5878 92.4389 50.2484 86.1637 59.9364 86.1637C59.9364 86.1637 50.5052 79.3563 32.0098 81.6499C15.9364 83.6316 6.10156 99.6866 6.10156 99.6866Z" fill="#8F659D"/>
</g>
</g>
<path d="M32.7812 119.247C32.7812 119.247 22.139 128.311 22.6528 138.642" stroke="#B9ABF9" stroke-width="2.97248" stroke-linecap="round"/>
</g>
<path d="M219.533 83.0453C219.533 83.0453 225.955 87.7609 224.12 98.293C222.029 110.22 207.148 110.183 184.946 109.926C125.882 109.229 79.8636 138.825 56.8544 153.192C33.8453 167.577 24.5975 146.073 24.6526 136.697C24.7076 125.504 41.3682 111.779 65.1664 99.4123C105.221 78.6049 141.864 70.1462 197.754 75.2655C204.799 75.9077 212.267 77.1737 219.552 83.0453" fill="#8F659D"/>
<path d="M215.697 73.0432L217.936 72.1074" stroke="white" stroke-width="2.42202" stroke-linecap="round" stroke-linejoin="round"/>
<path d="M210.799 70.1992L212.597 69.502" stroke="white" stroke-width="2.42202" stroke-linecap="round" stroke-linejoin="round"/>
<path d="M219.111 76.9517L221.68 75.4287" stroke="white" stroke-width="2.42202" stroke-linecap="round" stroke-linejoin="round"/>
<path d="M221.422 81.0984L223.624 80.0342" stroke="white" stroke-width="2.42202" stroke-linecap="round" stroke-linejoin="round"/>
<path d="M59.8078 86.0723C59.8078 86.0723 50.0096 82.8613 35.1656 90.6228C29.9179 93.375 26.1931 94.2558 22.0096 94.8429C15.4224 95.7604 8.30317 91.8888 5.31235 85.9438C2.46831 80.3108 3.40409 71.5402 12.083 64.4576C21.0922 57.1182 29.661 54.4576 37.3123 53.1732C47.9362 51.3934 54.6151 57.0998 56.1013 65.687C57.294 72.5494 53.3857 76.4943 46.6518 80.7328C46.6518 80.7328 55.3857 79.8338 59.8078 86.0723Z" fill="#FFE200"/>
</g>
<defs>
<clipPath id="clip0_409_986">
<rect width="400" height="158" fill="white"/>
</clipPath>
</defs>
</svg>
