<svg width="163" height="159" viewBox="0 0 163 159" fill="none" xmlns="http://www.w3.org/2000/svg">
<path d="M138.426 135.153C149.613 124.244 157.232 110.346 160.319 95.2153C163.405 80.0849 161.82 64.402 155.765 50.1496C149.71 35.8973 139.456 23.7156 126.301 15.145C113.145 6.5745 97.6778 2 81.8555 2C66.0332 2 50.5662 6.5745 37.4104 15.145C24.2545 23.7156 14.0007 35.8973 7.94559 50.1496C1.89044 64.402 0.305904 80.0849 3.39234 95.2153C6.47877 110.346 14.0976 124.244 25.2853 135.153C32.714 142.396 41.5333 148.142 51.2397 152.062C60.946 155.982 71.3493 158 81.8555 158C92.3616 158 102.765 155.982 112.471 152.062C122.178 148.142 130.997 142.396 138.426 135.153Z" fill="#FFEF2C"/>
<path d="M81.5402 1.52149C67.3324 1.51822 53.3836 5.22123 41.1465 12.2449L81.5402 79.3002V1.52149Z" fill="#60B565"/>
<path d="M138.028 134.234C149.2 123.364 156.807 109.515 159.889 94.4381C162.971 79.3613 161.389 63.7338 155.343 49.5319C149.296 35.33 139.057 23.1915 125.921 14.6512C112.784 6.11104 97.3394 1.55273 81.54 1.55273C65.7407 1.55273 50.2962 6.11104 37.1595 14.6512C24.0228 23.1915 13.7839 35.33 7.73753 49.5319C1.69117 63.7338 0.108936 79.3613 3.19088 94.4381C6.27283 109.515 13.8806 123.364 25.052 134.234C32.47 141.452 41.2765 147.177 50.9687 151.084C60.661 154.99 71.0492 157 81.54 157C92.0309 157 102.419 154.99 112.111 151.084C121.804 147.177 130.61 141.452 138.028 134.234Z" stroke="#1D1D1B" stroke-width="2.03691" stroke-linejoin="round"/>
<path d="M117.426 40.4899L79.541 77.3498L83.5156 81.2168L121.401 44.3569L124.783 47.648L128.701 33.3867L114.043 37.1989L117.426 40.4899Z" fill="white"/>
<path d="M117.426 40.4899L79.541 77.3498L83.5156 81.2168L121.401 44.3569L124.783 47.648L128.701 33.3867L114.043 37.1989L117.426 40.4899Z" stroke="#1D1D1B" stroke-width="1.35794" stroke-linejoin="round"/>
<path d="M86.334 79.2737C86.334 78.3515 86.0529 77.4501 85.5264 76.6834C84.9998 75.9167 84.2514 75.3191 83.3758 74.9662C82.5002 74.6134 81.5367 74.521 80.6071 74.7009C79.6776 74.8808 78.8237 75.3249 78.1535 75.9769C77.4833 76.6289 77.027 77.4597 76.8421 78.3641C76.6572 79.2685 76.7521 80.2059 77.1148 81.0579C77.4775 81.9098 78.0916 82.638 78.8797 83.1503C79.6677 83.6626 80.5942 83.936 81.542 83.936C82.8129 83.936 84.0318 83.4448 84.9304 82.5704C85.8291 81.6961 86.334 80.5102 86.334 79.2737Z" fill="#1D1D1B"/>
</svg>
