<svg width="163" height="159" viewBox="0 0 163 159" fill="none" xmlns="http://www.w3.org/2000/svg">
<path d="M138.16 135.139C149.344 124.229 156.959 110.33 160.042 95.201C163.125 80.0717 161.539 64.3907 155.482 50.1406C149.426 35.8905 139.172 23.7112 126.017 15.1423C112.862 6.57352 97.3968 2 81.5762 2C65.7556 2 50.2902 6.57352 37.1352 15.1423C23.9803 23.7112 13.7264 35.8905 7.67013 50.1406C1.61381 64.3907 0.0269177 80.0717 3.11011 95.201C6.19331 110.33 13.8081 124.229 24.9919 135.139C32.4211 142.387 41.2423 148.136 50.9512 152.058C60.6602 155.981 71.0667 158 81.5762 158C92.0857 158 102.492 155.981 112.201 152.058C121.91 148.136 130.731 142.387 138.16 135.139Z" fill="#60B565"/>
<path d="M81.5762 157C125.759 157 161.576 122.302 161.576 79.5C161.576 36.6979 125.759 2 81.5762 2C37.3934 2 1.57617 36.6979 1.57617 79.5C1.57617 122.302 37.3934 157 81.5762 157Z" stroke="#1D1D1B" stroke-width="2.03691" stroke-linejoin="round"/>
<path d="M116.339 40.5641L78.7695 77.3933L82.7389 81.2571L120.281 44.4279L123.635 47.7162L127.521 33.4668L112.985 37.2758L116.339 40.5641Z" fill="white"/>
<path d="M116.339 40.5641L78.7695 77.3933L82.7389 81.2571L120.281 44.4279L123.635 47.7162L127.521 33.4668L112.985 37.2758L116.339 40.5641Z" stroke="#1D1D1B" stroke-width="1.35794" stroke-linejoin="round"/>
<path d="M85.5062 79.3147C85.5062 78.3934 85.2275 77.4927 84.7053 76.7266C84.1832 75.9605 83.441 75.3634 82.5726 75.0109C81.7043 74.6583 80.7488 74.566 79.827 74.7458C78.9052 74.9255 78.0585 75.3692 77.3939 76.0207C76.7293 76.6722 76.2766 77.5022 76.0933 78.4059C75.9099 79.3095 76.004 80.2462 76.3637 81.0974C76.7234 81.9486 77.3325 82.6762 78.1139 83.1881C78.8954 83.7 79.8143 83.9732 80.7541 83.9732C82.0145 83.9732 83.2231 83.4824 84.1143 82.6087C85.0055 81.7351 85.5062 80.5502 85.5062 79.3147Z" fill="#1D1D1B"/>
</svg>
