<svg width="163" height="159" viewBox="0 0 163 159" fill="none" xmlns="http://www.w3.org/2000/svg">
<path d="M137.432 135.153C148.62 124.244 156.239 110.346 159.325 95.2153C162.412 80.0849 160.827 64.402 154.772 50.1496C148.717 35.8973 138.463 23.7156 125.307 15.145C112.152 6.5745 96.6846 2 80.8623 2C65.04 2 49.573 6.5745 36.4172 15.145C23.2614 23.7156 13.0076 35.8973 6.95243 50.1496C0.897279 64.402 -0.68726 80.0849 2.39917 95.2153C5.4856 110.346 13.1044 124.244 24.2921 135.153C31.7209 142.396 40.5402 148.142 50.2466 152.062C59.9529 155.982 70.3562 158 80.8623 158C91.3684 158 101.772 155.982 111.478 152.062C121.184 148.142 130.004 142.396 137.432 135.153Z" fill="#FFEF2C"/>
<path d="M81.2281 157C125.52 157 161.425 122.243 161.425 79.369C161.425 36.4948 125.52 1.73828 81.2281 1.73828C36.9366 1.73828 1.03125 36.4948 1.03125 79.369C1.03125 122.243 36.9366 157 81.2281 157Z" stroke="#1D1D1B" stroke-width="2.03691" stroke-linejoin="round"/>
<path d="M117.242 40.6469L79.2217 77.4496L83.2104 81.3106L121.23 44.5079L124.625 47.7938L128.557 33.5547L113.847 37.3609L117.242 40.6469Z" fill="white"/>
<path d="M117.242 40.6469L79.2217 77.4496L83.2104 81.3106L121.23 44.5079L124.625 47.7938L128.557 33.5547L113.847 37.3609L117.242 40.6469Z" stroke="#1D1D1B" stroke-width="1.35794" stroke-linejoin="round"/>
<path d="M86.0381 79.37C86.0381 78.4493 85.756 77.5492 85.2276 76.7837C84.6992 76.0182 83.9481 75.4215 83.0694 75.0692C82.1906 74.7169 81.2237 74.6247 80.2908 74.8043C79.3579 74.9839 78.501 75.4273 77.8285 76.0783C77.1559 76.7293 76.6979 77.5588 76.5123 78.4618C76.3268 79.3648 76.422 80.3008 76.786 81.1514C77.15 82.002 77.7664 82.729 78.5572 83.2405C79.3481 83.752 80.2779 84.0251 81.229 84.0251C82.5045 84.0251 83.7276 83.5346 84.6295 82.6616C85.5314 81.7886 86.0381 80.6046 86.0381 79.37Z" fill="#1D1D1B"/>
</svg>
