<svg width="162" height="159" viewBox="0 0 162 159" fill="none" xmlns="http://www.w3.org/2000/svg">
<path d="M137.126 134.244C148.25 123.376 155.826 109.53 158.895 94.455C161.965 79.3804 160.391 63.7549 154.372 49.5545C148.353 35.3542 138.159 23.2168 125.08 14.6774C112.001 6.13799 96.624 1.58008 80.8939 1.58008C65.1637 1.58008 49.7869 6.13799 36.7079 14.6774C23.6289 23.2168 13.4352 35.3542 7.41605 49.5545C1.39691 63.7549 -0.177306 79.3804 2.89235 94.455C5.96201 109.53 13.5377 123.376 24.6614 134.244C39.576 148.815 59.8031 157.001 80.8939 157.001C101.985 157.001 122.212 148.815 137.126 134.244Z" fill="#FFEF2C"/>
<path d="M81.0196 2.00001C63.4531 1.98978 46.372 7.62051 32.4152 18.0223C18.4583 28.4241 8.40254 43.018 3.80141 59.5494C-0.799713 76.0808 0.30991 93.6297 6.95875 109.485C13.6076 125.34 25.4256 138.619 40.5871 147.27L81.0196 80V158C102.234 158 122.58 149.782 137.581 135.154C152.582 120.526 161.01 100.687 161.01 80C161.01 59.3131 152.582 39.4735 137.581 24.8457C122.58 10.2178 102.234 2.00001 81.0196 2.00001Z" fill="#60B565"/>
<path d="M137.126 134.244C148.25 123.376 155.826 109.53 158.895 94.455C161.965 79.3804 160.391 63.7549 154.372 49.5545C148.353 35.3542 138.159 23.2168 125.08 14.6774C112.001 6.13799 96.624 1.58008 80.8939 1.58008C65.1637 1.58008 49.7869 6.13799 36.7079 14.6774C23.6289 23.2168 13.4352 35.3542 7.41605 49.5545C1.39691 63.7549 -0.177306 79.3804 2.89235 94.455C5.96201 109.53 13.5377 123.376 24.6614 134.244C39.576 148.815 59.8031 157.001 80.8939 157.001C101.985 157.001 122.212 148.815 137.126 134.244Z" stroke="#1D1D1B" stroke-width="2.03691" stroke-linejoin="round"/>
<path d="M116.591 40.5233L78.8867 77.3637L82.8423 81.2286L120.546 44.3882L123.913 47.6776L127.812 33.4238L113.224 37.234L116.591 40.5233Z" fill="white"/>
<path d="M116.591 40.5233L78.8867 77.3637L82.8423 81.2286L120.546 44.3882L123.913 47.6776L127.812 33.4238L113.224 37.234L116.591 40.5233Z" stroke="#1D1D1B" stroke-width="1.35794" stroke-linejoin="round"/>
<path d="M85.6457 79.2849C85.6457 78.3632 85.366 77.4623 84.842 76.696C84.3179 75.9297 83.5731 75.3324 82.7016 74.9797C81.8302 74.627 80.8713 74.5347 79.9462 74.7145C79.0211 74.8943 78.1713 75.3382 77.5043 75.9898C76.8373 76.6415 76.3831 77.4719 76.1991 78.3758C76.015 79.2797 76.1095 80.2166 76.4705 81.0681C76.8314 81.9196 77.4427 82.6474 78.227 83.1594C79.0113 83.6714 79.9334 83.9447 80.8766 83.9447C82.1415 83.9447 83.3544 83.4538 84.2488 82.5799C85.1432 81.706 85.6457 80.5208 85.6457 79.2849Z" fill="#1D1D1B"/>
</svg>
