<svg width="240" height="192" viewBox="0 0 240 192" fill="none" xmlns="http://www.w3.org/2000/svg">
<path d="M150.892 190.734H1.99023V2.03711H150.892L237.857 96.4023L150.892 190.734Z" stroke="#1D1D1B" stroke-width="2.49643" stroke-linejoin="round" stroke-dasharray="4.99 4.99"/>
<path d="M124.632 96.3672C124.638 97.3035 124.367 98.2205 123.851 99.0022C123.336 99.7838 122.6 100.395 121.737 100.758C120.874 101.121 119.923 101.219 119.004 101.04C118.085 100.862 117.24 100.414 116.576 99.7545C115.911 99.0948 115.458 98.2527 115.273 97.3349C115.088 96.4172 115.18 95.4651 115.536 94.5995C115.893 93.7339 116.499 92.9937 117.277 92.4729C118.054 91.952 118.969 91.674 119.906 91.6739C120.525 91.6696 121.138 91.7877 121.712 92.0216C122.285 92.2555 122.806 92.6005 123.245 93.0367C123.685 93.473 124.033 93.9919 124.271 94.5635C124.509 95.1351 124.632 95.7481 124.632 96.3672Z" fill="#E6007E"/>
</svg>
