<svg width="192" height="192" viewBox="0 0 192 192" fill="none" xmlns="http://www.w3.org/2000/svg">
<path d="M142.869 190.734H48.5156L1.35547 2.03711H190.029L142.869 190.734Z" stroke="#1D1D1B" stroke-width="2.49643" stroke-linejoin="round" stroke-dasharray="4.99 4.99"/>
<path d="M100.401 96.3671C100.408 97.3033 100.136 98.2204 99.6208 99.0021C99.1056 99.7837 98.3698 100.395 97.5068 100.758C96.6438 101.12 95.6926 101.219 94.7737 101.04C93.8547 100.862 93.0095 100.414 92.3453 99.7544C91.681 99.0947 91.2276 98.2526 91.0425 97.3348C90.8574 96.4171 90.9491 95.465 91.3058 94.5994C91.6625 93.7338 92.2682 92.9936 93.0461 92.4728C93.824 91.9519 94.739 91.6739 95.6751 91.6738C96.9228 91.6738 98.1198 92.1672 99.0052 93.0464C99.8905 93.9256 100.392 95.1193 100.401 96.3671Z" fill="#E6007E"/>
</svg>
