<svg width="769" height="324" viewBox="0 0 769 324" fill="none" xmlns="http://www.w3.org/2000/svg">
<g clip-path="url(#clip0_13136_179097)">
<path d="M25.877 245.957L49.2029 299.734H123.51L193.505 245.957L170.162 192.18H95.8549L25.877 245.957Z" stroke="#1D1D1B" stroke-width="1.23461" stroke-linejoin="round"/>
<mask id="mask0_13136_179097" style="mask-type:luminance" maskUnits="userSpaceOnUse" x="7" y="175" width="202" height="145">
<path d="M208.995 175.076H7.11133V319.401H208.995V175.076Z" fill="white"/>
</mask>
<g mask="url(#mask0_13136_179097)">
<path d="M93.2374 187.298H91.8546V180.254H83.377V179.1H93.2539L93.2374 187.298Z" fill="#1D1D1B"/>
</g>
<path d="M173.454 184.062H180.484V181.109H181.883V189.605H172.006V181.109H173.389L173.454 184.062ZM180.484 188.384V185.266H173.454V188.384H180.484Z" fill="#1D1D1B"/>
<mask id="mask1_13136_179097" style="mask-type:luminance" maskUnits="userSpaceOnUse" x="7" y="175" width="202" height="145">
<path d="M208.995 175.076H7.11133V319.401H208.995V175.076Z" fill="white"/>
</mask>
<g mask="url(#mask1_13136_179097)">
<path d="M205.275 255.084H195.398V246.836H205.275V255.084ZM196.781 253.946H203.86V248.007H196.781V253.946Z" fill="#1D1D1B"/>
<path d="M127.772 308.846H119.196V312.146H117.895V307.774H126.439V305.184H117.846V304.062H127.723L127.772 308.846ZM128.052 312.591H117.895V311.453H128.052V312.591Z" fill="#1D1D1B"/>
<path d="M53.5161 305.35H45.2854V311.784H43.9026V304.195H53.5491L53.5161 305.35ZM53.6972 312.46H43.8203V311.338H53.6972V312.46Z" fill="#1D1D1B"/>
<path d="M11.5223 248.8H10.123V241.426H11.5223V248.8ZM20.1975 249.509H10.123V248.371H20.1646L20.1975 249.509Z" fill="#1D1D1B"/>
<path d="M112.021 245.963C112.024 246.427 111.89 246.881 111.635 247.269C111.38 247.656 111.016 247.959 110.589 248.139C110.162 248.318 109.692 248.367 109.237 248.279C108.783 248.19 108.365 247.968 108.036 247.641C107.708 247.314 107.483 246.897 107.392 246.442C107.3 245.987 107.346 245.516 107.522 245.087C107.698 244.658 107.998 244.291 108.383 244.033C108.768 243.775 109.22 243.637 109.683 243.637C109.989 243.635 110.293 243.693 110.576 243.809C110.86 243.925 111.118 244.096 111.335 244.312C111.552 244.528 111.725 244.786 111.842 245.069C111.96 245.352 112.021 245.656 112.021 245.963Z" fill="#E6007E"/>
</g>
<path d="M111.524 251.484C112.246 251.829 112.861 252.365 113.302 253.034C113.743 253.698 113.973 254.48 113.961 255.278C113.971 256.065 113.741 256.836 113.302 257.488C112.861 258.157 112.246 258.693 111.524 259.039C110.738 259.414 109.877 259.605 109.006 259.6C108.136 259.59 107.28 259.381 106.504 258.989C105.78 258.639 105.161 258.104 104.709 257.439C104.278 256.783 104.048 256.014 104.051 255.228C104.046 254.432 104.275 253.652 104.709 252.985C105.161 252.319 105.78 251.784 106.504 251.434C107.284 251.059 108.14 250.867 109.006 250.873C109.881 250.883 110.742 251.092 111.524 251.484ZM107.195 252.556C106.669 252.799 106.219 253.181 105.895 253.661C105.576 254.151 105.41 254.726 105.417 255.311C105.403 255.897 105.57 256.473 105.895 256.96C106.226 257.443 106.673 257.834 107.195 258.098C107.763 258.37 108.385 258.51 109.014 258.51C109.643 258.51 110.265 258.37 110.833 258.098C111.36 257.842 111.809 257.449 112.133 256.96C112.453 256.471 112.614 255.895 112.594 255.311C112.608 254.727 112.447 254.153 112.133 253.661C111.809 253.181 111.359 252.799 110.833 252.556C110.262 252.294 109.642 252.159 109.014 252.159C108.386 252.159 107.766 252.294 107.195 252.556Z" fill="#1D1D1B"/>
<mask id="mask2_13136_179097" style="mask-type:luminance" maskUnits="userSpaceOnUse" x="9" y="7" width="103" height="106">
<path d="M111.558 7.94922H9.33203V112.238H111.558V7.94922Z" fill="white"/>
</mask>
<g mask="url(#mask2_13136_179097)">
<path d="M17.3483 14.4645C16.8218 15.9159 16.0165 17.2498 14.9778 18.3906C13.7961 19.6428 12.4029 20.6759 10.8624 21.4423L10.0723 20.2876C11.4386 19.6183 12.6847 18.7264 13.7596 17.6482C14.7191 16.669 15.4746 15.5082 15.982 14.2335C16.4831 12.9401 16.7345 11.563 16.7227 10.1755V9.89507H18.1055C18.1136 11.4502 17.8575 12.9954 17.3483 14.4645ZM17.447 11.1653H10.8624V9.89507H17.447V11.1653ZM22.1879 24.6426H20.7887V8.14648H22.1879V24.6426ZM24.6901 16.0811H21.8258V14.8439H24.6901V16.0811Z" fill="#1D1D1B"/>
<path d="M73.6809 64.8464C73.6809 65.3096 73.5438 65.7625 73.287 66.1478C73.0301 66.533 72.6651 66.8332 72.2379 67.0105C71.8108 67.1878 71.3408 67.2342 70.8874 67.1438C70.4339 67.0534 70.0174 66.8303 69.6905 66.5027C69.3636 66.1751 69.141 65.7577 69.0508 65.3033C68.9606 64.849 69.0069 64.378 69.1838 63.9499C69.3607 63.5219 69.6603 63.1561 70.0447 62.8987C70.4291 62.6413 70.8811 62.5039 71.3434 62.5039C71.9634 62.5039 72.5579 62.7507 72.9963 63.19C73.4347 63.6293 73.6809 64.2251 73.6809 64.8464Z" fill="#E6007E"/>
<path d="M71.3429 111.609L36.3457 64.8426L71.3429 18.0762L106.34 64.8426L71.3429 111.609Z" stroke="#1D1D1B" stroke-width="1.23461" stroke-linejoin="round"/>
</g>
<mask id="mask3_13136_179097" style="mask-type:luminance" maskUnits="userSpaceOnUse" x="639" y="7" width="121" height="106">
<path d="M759.629 7.94922H639.279V112.238H759.629V7.94922Z" fill="white"/>
</mask>
<g mask="url(#mask3_13136_179097)">
<path d="M714.675 64.8464C714.675 65.3096 714.538 65.7625 714.281 66.1478C714.024 66.533 713.659 66.8332 713.232 67.0105C712.805 67.1878 712.335 67.2342 711.882 67.1438C711.428 67.0534 711.012 66.8303 710.685 66.5027C710.358 66.1751 710.135 65.7577 710.045 65.3033C709.955 64.849 710.001 64.378 710.178 63.9499C710.355 63.5219 710.654 63.1561 711.039 62.8987C711.423 62.6413 711.875 62.5039 712.338 62.5039C712.958 62.5039 713.552 62.7507 713.99 63.19C714.429 63.6293 714.675 64.2251 714.675 64.8464Z" fill="#E6007E"/>
<path d="M665.686 18.0762L689.011 88.2341L665.686 111.609H759.006L735.68 41.4676L759.006 18.0762H665.686Z" stroke="#1D1D1B" stroke-width="1.23461" stroke-linejoin="round"/>
<path d="M650.508 20.437H643.232V9.89594H650.508V20.437ZM644.582 19.2492H649.126V11.0012H644.582V19.2492ZM654.788 24.627H653.406V8.13086H654.788V24.627ZM657.439 15.983H654.476V14.7293H657.439V15.983Z" fill="#1D1D1B"/>
</g>
<mask id="mask4_13136_179097" style="mask-type:luminance" maskUnits="userSpaceOnUse" x="137" y="7" width="149" height="106">
<path d="M285.456 7.94922H137.072V112.238H285.456V7.94922Z" fill="white"/>
</mask>
<g mask="url(#mask4_13136_179097)">
<path d="M141.664 19.9751H140.281V9.78047H141.664V19.9751ZM145.236 19.0348C146.475 18.9112 147.706 18.7184 148.924 18.4574L149.105 19.6946C147.86 19.9558 146.601 20.1485 145.335 20.272C144.117 20.3875 142.849 20.437 141.549 20.437H140.281V19.2162H141.565C142.8 19.2162 144.034 19.1503 145.236 19.0348ZM151.821 24.627H150.454V8.13086H151.837L151.821 24.627ZM154.372 15.95H151.442V14.7293H154.356L154.372 15.95Z" fill="#1D1D1B"/>
<path d="M239.644 111.609H166.012V18.0762H239.644L282.658 64.8426L239.644 111.609Z" stroke="#1D1D1B" stroke-width="1.23461" stroke-linejoin="round"/>
<path d="M226.673 64.8464C226.673 65.3096 226.536 65.7625 226.279 66.1478C226.022 66.533 225.657 66.8332 225.23 67.0105C224.803 67.1878 224.333 67.2342 223.88 67.1438C223.426 67.0534 223.01 66.8303 222.683 66.5027C222.356 66.1751 222.133 65.7577 222.043 65.3033C221.953 64.849 221.999 64.378 222.176 63.9499C222.353 63.5219 222.653 63.1561 223.037 62.8987C223.421 62.6413 223.873 62.5039 224.336 62.5039C224.954 62.5082 225.546 62.7564 225.984 63.1948C226.421 63.6331 226.669 64.2264 226.673 64.8464Z" fill="#E6007E"/>
</g>
<mask id="mask5_13136_179097" style="mask-type:luminance" maskUnits="userSpaceOnUse" x="312" y="7" width="126" height="106">
<path d="M437.463 7.94922H312.865V112.238H437.463V7.94922Z" fill="white"/>
</mask>
<g mask="url(#mask5_13136_179097)">
<path d="M410.645 111.609H363.993L340.65 18.0762H433.987L410.645 111.609Z" stroke="#1D1D1B" stroke-width="1.23461" stroke-linejoin="round"/>
<path d="M389.659 64.8464C389.659 65.3096 389.522 65.7625 389.266 66.1478C389.009 66.533 388.644 66.8332 388.216 67.0105C387.789 67.1878 387.319 67.2342 386.866 67.1438C386.412 67.0534 385.996 66.8303 385.669 66.5027C385.342 66.1751 385.119 65.7577 385.029 65.3033C384.939 64.849 384.985 64.378 385.162 63.9499C385.339 63.5219 385.639 63.1561 386.023 62.8987C386.408 62.6413 386.86 62.5039 387.322 62.5039C387.941 62.5082 388.533 62.7564 388.97 63.1948C389.407 63.6331 389.655 64.2264 389.659 64.8464Z" fill="#E6007E"/>
<path d="M324.372 10.968H318.396V19.7934H317.014V9.76374H324.372V10.968ZM322.216 19.216C323.359 19.1191 324.497 18.9594 325.623 18.7376L325.788 20.0078C324.655 20.22 323.512 20.3687 322.364 20.4532C321.244 20.4532 319.878 20.5687 318.248 20.5687H317.014V19.2985H318.248C319.779 19.2985 321.096 19.2655 322.216 19.183V19.216ZM328.52 24.7422H327.137V8.24609H328.52V24.7422ZM331.171 15.9828H328.208V14.6796H331.171V15.9828Z" fill="#1D1D1B"/>
</g>
<mask id="mask6_13136_179097" style="mask-type:luminance" maskUnits="userSpaceOnUse" x="465" y="7" width="149" height="106">
<path d="M613.486 7.94922H465.102V112.238H613.486V7.94922Z" fill="white"/>
</mask>
<g mask="url(#mask6_13136_179097)">
<path d="M552.691 64.8464C552.691 65.3104 552.553 65.7639 552.296 66.1495C552.038 66.5351 551.672 66.8353 551.244 67.0121C550.816 67.1889 550.345 67.2343 549.891 67.1426C549.437 67.0508 549.021 66.8261 548.694 66.4968C548.368 66.1676 548.147 65.7487 548.059 65.2932C547.97 64.8377 548.019 64.3662 548.198 63.9385C548.378 63.5108 548.68 63.1461 549.066 62.8907C549.453 62.6353 549.907 62.5007 550.37 62.504C550.987 62.5083 551.577 62.757 552.012 63.1959C552.447 63.6347 552.691 64.228 552.691 64.8464Z" fill="#E6007E"/>
<path d="M492.031 64.8426V18.0762H562.026L608.694 64.8426V111.609H538.7L492.031 64.8426Z" stroke="#1D1D1B" stroke-width="1.23461" stroke-linejoin="round"/>
<path d="M475.19 15.5869H469.445V19.9418H468.062V14.3826H473.807V10.902H468.029V9.69775H475.19V15.5869ZM473.412 19.315C474.551 19.2319 475.684 19.0776 476.803 18.8531L476.951 20.0573C475.803 20.2792 474.644 20.4389 473.478 20.5357C472.342 20.6182 470.943 20.6677 469.313 20.6677H468.062V19.4305H469.313C470.943 19.4305 472.309 19.3975 473.412 19.315ZM479.618 24.7422H478.219V8.24609H479.618V24.7422ZM482.318 15.9333H479.355V14.7126H482.318V15.9333Z" fill="#1D1D1B"/>
</g>
<path d="M205.833 170.09H9.74384C4.58899 170.09 0.410156 174.277 0.410156 179.443V314.216C0.410156 319.382 4.58899 323.57 9.74384 323.57H205.833C210.988 323.57 215.167 319.382 215.167 314.216V179.443C215.167 174.277 210.988 170.09 205.833 170.09Z" stroke="#E6007E" stroke-width="0.823076" stroke-miterlimit="10"/>
<path d="M106.916 0.412109H9.74384C4.58899 0.412109 0.410156 4.59972 0.410156 9.7654V113.212C0.410156 118.378 4.58899 122.566 9.74384 122.566H106.916C112.071 122.566 116.25 118.378 116.25 113.212V9.7654C116.25 4.59972 112.071 0.412109 106.916 0.412109Z" stroke="#E6007E" stroke-width="0.823076" stroke-miterlimit="10"/>
<path d="M283.301 0.412109H140.398C135.243 0.412109 131.064 4.59972 131.064 9.7654V113.212C131.064 118.378 135.243 122.566 140.398 122.566H283.301C288.455 122.566 292.634 118.378 292.634 113.212V9.7654C292.634 4.59972 288.455 0.412109 283.301 0.412109Z" stroke="#E6007E" stroke-width="0.823076" stroke-miterlimit="10"/>
<path d="M434.944 0.412109H316.783C311.628 0.412109 307.449 4.59972 307.449 9.7654V113.212C307.449 118.378 311.628 122.566 316.783 122.566H434.944C440.099 122.566 444.277 118.378 444.277 113.212V9.7654C444.277 4.59972 440.099 0.412109 434.944 0.412109Z" stroke="#E6007E" stroke-width="0.823076" stroke-miterlimit="10"/>
<path d="M609.471 0.412109H468.445C463.29 0.412109 459.111 4.59972 459.111 9.7654V113.212C459.111 118.378 463.29 122.566 468.445 122.566H609.471C614.626 122.566 618.805 118.378 618.805 113.212V9.7654C618.805 4.59972 614.626 0.412109 609.471 0.412109Z" stroke="#E6007E" stroke-width="0.823076" stroke-miterlimit="10"/>
<path d="M759.253 0.412109H642.953C637.798 0.412109 633.619 4.59972 633.619 9.7654V113.212C633.619 118.378 637.798 122.566 642.953 122.566H759.253C764.408 122.566 768.587 118.378 768.587 113.212V9.7654C768.587 4.59972 764.408 0.412109 759.253 0.412109Z" stroke="#E6007E" stroke-width="0.823076" stroke-miterlimit="10"/>
</g>
<defs>
<clipPath id="clip0_13136_179097">
<rect width="769" height="324" fill="white"/>
</clipPath>
</defs>
</svg>
