<svg xmlns="http://www.w3.org/2000/svg" width="133" height="137" viewBox="0 0 133 137" fill="none">
  <g clip-path="url(#clip0_9836_52505)">
    <path d="M71.6787 1.17514C70.0867 0.495141 68.3347 0.119141 66.5027 0.119141C64.6707 0.119141 62.9107 0.495141 61.3187 1.17514L6.27866 24.5591C4.54266 25.2951 2.99866 26.5351 1.87866 28.2311C0.758656 29.9191 0.222656 31.8231 0.222656 33.7111V103.407C0.222656 105.287 0.758656 107.199 1.87866 108.887C2.99866 110.583 4.54266 111.815 6.27866 112.559L61.3187 135.943C62.9107 136.623 64.6627 136.999 66.5027 136.999C68.3427 136.999 70.0947 136.623 71.6787 135.943L126.719 112.559C128.455 111.823 130.007 110.583 131.127 108.887C132.247 107.199 132.775 105.287 132.775 103.407V33.7111C132.775 31.8311 132.247 29.9191 131.127 28.2311C130.007 26.5351 128.463 25.3031 126.719 24.5671L71.6787 1.17514Z" fill="#3A9CE7"/>
    <path d="M131.127 28.2307C130.007 26.5347 128.463 25.3027 126.719 24.5667L125.847 24.1907C126.671 24.5427 127.255 25.3667 127.255 26.3267C127.255 27.2867 126.671 28.1027 125.847 28.4547L71.6787 51.4787C70.0867 52.1587 68.3347 52.5347 66.5027 52.5347C64.6707 52.5347 62.9107 52.1587 61.3187 51.4787L7.15866 28.4627C6.32666 28.1107 5.74266 27.2947 5.74266 26.3347C5.74266 25.3747 6.32666 24.5507 7.15866 24.1987L30.4387 14.3027L6.27866 24.5587C4.54266 25.2947 2.99866 26.5347 1.87866 28.2307C0.758656 29.9187 0.222656 31.8227 0.222656 33.7107V33.7667C0.222656 32.6947 0.750656 31.6387 1.71066 30.9987C2.67066 30.3667 3.84666 30.2947 4.83866 30.7107L56.9427 52.8547C59.2547 53.8467 61.3187 55.4867 62.8147 57.7427C64.3027 59.9987 65.0147 62.5347 65.0147 65.0547V133.999C65.0147 134.751 64.6547 135.487 63.9747 135.935C63.4147 136.311 62.7427 136.399 62.1347 136.247C63.5027 136.727 64.9667 136.991 66.5027 136.991C68.0387 136.991 69.5027 136.727 70.8787 136.247C70.2707 136.399 69.5987 136.303 69.0307 135.935C68.3587 135.487 67.9987 134.751 67.9987 133.999V65.0547C67.9987 62.5347 68.7027 59.9987 70.1987 57.7427C71.6867 55.4867 73.7507 53.8467 76.0707 52.8547L128.175 30.7107C129.159 30.2947 130.335 30.3587 131.303 30.9987C132.263 31.6307 132.783 32.6867 132.783 33.7667V33.7107C132.783 31.8307 132.255 29.9187 131.135 28.2307H131.127Z" fill="#6CC0F4"/>
    <path d="M19.4399 101.743C19.4399 105.863 16.7759 108.071 13.4719 106.687C10.1839 105.295 7.50391 100.831 7.50391 96.7193C7.50391 92.6073 10.1759 90.3913 13.4719 91.7753C16.7679 93.1673 19.4399 97.6233 19.4399 101.743Z" fill="white"/>
    <path d="M59.2133 118.504C59.2133 122.616 56.5413 124.832 53.2453 123.44C49.9493 122.056 47.2773 117.592 47.2773 113.472C47.2773 109.352 49.9493 107.144 53.2453 108.536C56.5413 109.928 59.2133 114.392 59.2133 118.504Z" fill="white"/>
    <path d="M19.4399 52.0404C19.4399 56.1524 16.7759 58.3604 13.4719 56.9764C10.1839 55.5844 7.50391 51.1284 7.50391 47.0084C7.50391 42.8884 10.1759 40.6724 13.4719 42.0644C16.7679 43.4564 19.4399 47.9124 19.4399 52.0404Z" fill="white"/>
    <path d="M59.2133 68.8008C59.2133 72.9208 56.5413 75.1288 53.2453 73.7448C49.9493 72.3528 47.2773 67.8888 47.2773 63.7688C47.2773 59.6488 49.9493 57.4408 53.2453 58.8328C56.5413 60.2168 59.2133 64.6808 59.2133 68.8008Z" fill="white"/>
    <path d="M19.3264 77.2717C19.3264 81.3917 16.6544 83.5997 13.3664 82.2157C10.0704 80.8237 7.39844 76.3597 7.39844 72.2397C7.39844 68.1197 10.0624 65.9117 13.3664 67.2957C16.6544 68.6877 19.3264 73.1437 19.3264 77.2637V77.2717Z" fill="white"/>
    <path d="M59.7249 93.6721C59.7249 97.7921 57.0529 100 53.7649 98.6161C50.4689 97.2241 47.7969 92.7601 47.7969 88.6401C47.7969 84.5201 50.4609 82.3121 53.7649 83.6961C57.0529 85.0881 59.7249 89.5441 59.7249 93.6641V93.6721Z" fill="white"/>
    <path d="M112.871 54.0724C112.871 58.1924 115.543 60.4004 118.839 59.0164C122.135 57.6244 124.799 53.1604 124.799 49.0404C124.799 44.9204 122.135 42.7124 118.839 44.0964C115.543 45.4884 112.871 49.9444 112.871 54.0644V54.0724Z" fill="white"/>
    <path d="M76.0703 118.072C76.0703 122.192 78.7423 124.4 82.0383 123.016C85.3343 121.624 87.9983 117.16 87.9983 113.04C87.9983 108.92 85.3343 106.712 82.0383 108.096C78.7423 109.488 76.0703 113.944 76.0703 118.064V118.072Z" fill="white"/>
    <path d="M32.693 29.6727C29.397 31.0727 24.061 31.0727 20.765 29.6727C17.469 28.2727 17.469 26.0087 20.765 24.6087C24.061 23.2007 29.397 23.2007 32.693 24.6087C35.989 26.0087 35.989 28.2727 32.693 29.6727Z" fill="white"/>
    <path d="M112.23 29.6727C108.942 31.0727 103.598 31.0727 100.302 29.6727C97.0139 28.2727 97.0139 26.0087 100.302 24.6087C103.598 23.2007 108.934 23.2007 112.23 24.6087C115.526 26.0087 115.526 28.2727 112.23 29.6727Z" fill="white"/>
    <path d="M72.4625 12.872C69.1665 14.272 63.8225 14.272 60.5345 12.872C57.2385 11.472 57.2385 9.20795 60.5345 7.80795C63.8225 6.39995 69.1665 6.39995 72.4625 7.80795C75.7585 9.20795 75.7585 11.472 72.4625 12.872Z" fill="white"/>
    <path d="M73.2633 44.872C69.9673 46.272 64.6233 46.272 61.3353 44.872C58.0393 43.472 58.0393 41.208 61.3353 39.808C64.6233 38.4 69.9673 38.4 73.2633 39.808C76.5593 41.208 76.5593 43.472 73.2633 44.872Z" fill="white"/>
  </g>
  <defs>
    <clipPath id="clip0_9836_52505">
      <rect width="132.552" height="136.88" fill="white" transform="translate(0.222656 0.119141)"/>
    </clipPath>
  </defs>
</svg>