 <svg xmlns="http://www.w3.org/2000/svg" width="128" height="82" viewBox="0 0 128 82" fill="none">
  <mask id="path-1-inside-1_9836_60785" fill="white">
    <path d="M62.6338 0.828125C63.0187 0.161458 63.9813 0.161458 64.3662 0.828125L71.9707 14H94C112.778 14 128 29.2223 128 48C128 66.7777 112.778 82 94 82H34C15.2223 82 0 66.7777 0 48C0 29.2223 15.2223 14 34 14H55.0293L62.6338 0.828125Z"/>
  </mask>
  <path d="M62.6338 0.828125C63.0187 0.161458 63.9813 0.161458 64.3662 0.828125L71.9707 14H94C112.778 14 128 29.2223 128 48C128 66.7777 112.778 82 94 82H34C15.2223 82 0 66.7777 0 48C0 29.2223 15.2223 14 34 14H55.0293L62.6338 0.828125Z" fill="#1454B9"/>
  <path d="M62.6338 0.828125L61.7678 0.328125L61.7678 0.328139L62.6338 0.828125ZM64.3662 0.828125L65.2322 0.328139L65.2322 0.328125L64.3662 0.828125ZM71.9707 14L71.1047 14.5L71.3933 15H71.9707V14ZM94 14V13V14ZM94 82V83V82ZM34 14V13V14ZM55.0293 14V15H55.6067L55.8953 14.5L55.0293 14ZM63.4998 1.32812H63.5002L65.2322 0.328125C64.4624 -1.00521 62.5376 -1.00521 61.7678 0.328125L63.4998 1.32812ZM63.5002 1.32811L71.1047 14.5L72.8367 13.5L65.2322 0.328139L63.5002 1.32811ZM71.9707 15H94V13H71.9707V15ZM94 15C112.225 15 127 29.7746 127 48H129C129 28.67 113.33 13 94 13V15ZM127 48C127 66.2254 112.225 81 94 81V83C113.33 83 129 67.33 129 48H127ZM94 81H34V83H94V81ZM34 81C15.7746 81 1 66.2254 1 48H-1C-1 67.33 14.67 83 34 83V81ZM1 48C1 29.7746 15.7746 15 34 15V13C14.67 13 -1 28.67 -1 48H1ZM34 15H55.0293V13H34V15ZM55.8953 14.5L63.4998 1.32811L61.7678 0.328139L54.1633 13.5L55.8953 14.5Z" fill="#D2D2D2" mask="url(#path-1-inside-1_9836_60785)"/>
</svg>