<svg width="334" height="177" viewBox="0 0 334 177" fill="none" xmlns="http://www.w3.org/2000/svg">
<path d="M140.317 175.741L21.8866 76.1306L1.95361 1.375" stroke="#1D1D1B" stroke-width="2.04143" stroke-linejoin="round"/>
<path d="M194.413 1.375L312.436 100.685L332.478 175.741" stroke="#1D1D1B" stroke-width="2.04143" stroke-linejoin="round"/>
<path d="M171.058 88.5714C171.047 89.3353 170.812 90.0789 170.382 90.7088C169.951 91.3386 169.346 91.8267 168.64 92.1116C167.935 92.3965 167.161 92.4654 166.417 92.3099C165.672 92.1543 164.99 91.781 164.456 91.2371C163.922 90.6932 163.56 90.0028 163.416 89.2528C163.271 88.5029 163.351 87.7267 163.644 87.022C163.938 86.3172 164.432 85.7153 165.065 85.292C165.698 84.8687 166.441 84.6428 167.202 84.6427C167.709 84.639 168.212 84.7368 168.682 84.9302C169.151 85.1236 169.578 85.4088 169.936 85.7693C170.295 86.1298 170.579 86.5583 170.772 87.03C170.964 87.5017 171.061 88.0071 171.058 88.5169" fill="#E6007E"/>
<path d="M1.95361 1.375H194.413" stroke="#1D1D1B" stroke-width="2.04143" stroke-linejoin="round"/>
<path d="M332.75 175.742H140.317" stroke="#1D1D1B" stroke-width="2.04143" stroke-linejoin="round"/>
</svg>
