<svg width="554" height="150" viewBox="0 0 554 150" fill="none" xmlns="http://www.w3.org/2000/svg">
<path d="M32.7585 35.0447C59.6726 35.0447 65.349 27.2021 65.349 17.5224C65.349 7.84268 59.1245 0 32.7585 0C6.39253 0 0.167969 7.84268 0.167969 17.5224C0.167969 27.2021 5.84434 35.0447 32.7585 35.0447Z" fill="#EBF3DE"/>
<mask id="mask0_423_984" style="mask-type:luminance" maskUnits="userSpaceOnUse" x="0" y="0" width="66" height="36">
<path d="M0 17.5224C0 27.2021 5.67637 35.0447 32.5905 35.0447C59.5047 35.0447 65.1634 27.2021 65.1634 17.5224C65.1634 7.84268 58.9565 0 32.5905 0C6.22456 0 0 7.84268 0 17.5224Z" fill="white"/>
</mask>
<g mask="url(#mask0_423_984)">
<path d="M-2.43104 15.7929C-2.43104 15.7929 0.893441 29.9592 19.5494 31.8845C38.2054 33.8099 61.2116 32.8031 66.1275 9.75195L66.1983 36.0885H-4.5" fill="#DDEBC7"/>
</g>
<path d="M124.979 35.0447C151.893 35.0447 157.552 27.2021 157.552 17.5224C157.552 7.84268 151.363 0 124.979 0C98.5954 0 92.4062 7.84268 92.4062 17.5224C92.4062 27.2021 98.0649 35.0447 124.979 35.0447Z" fill="#EBF3DE"/>
<mask id="mask1_423_984" style="mask-type:luminance" maskUnits="userSpaceOnUse" x="92" y="0" width="66" height="36">
<path d="M92 17.5224C92 27.2021 97.6587 35.0447 124.573 35.0447C151.487 35.0447 157.163 27.2021 157.163 17.5224C157.163 7.84268 150.956 0 124.573 0C98.1892 0 92 7.84268 92 17.5224Z" fill="white"/>
</mask>
<g mask="url(#mask1_423_984)">
<path d="M89.7877 15.7929C89.7877 15.7929 93.1122 29.9592 111.75 31.8845C130.406 33.8099 153.413 32.8031 158.329 9.75195L158.399 36.0885H87.7188" fill="#DDEBC7"/>
</g>
<path d="M268.338 35.0447C295.253 35.0447 300.911 27.2021 300.911 17.5224C300.911 7.84268 294.722 0 268.338 0C241.955 0 235.766 7.84268 235.766 17.5224C235.766 27.2021 241.424 35.0447 268.338 35.0447Z" fill="#EBF3DE"/>
<mask id="mask2_423_984" style="mask-type:luminance" maskUnits="userSpaceOnUse" x="236" y="0" width="66" height="36">
<path d="M236 17.5224C236 27.2021 241.676 35.0447 268.573 35.0447C295.469 35.0447 301.163 27.2021 301.163 17.5224C301.163 7.84268 294.956 0 268.573 0C242.189 0 236 7.84268 236 17.5224Z" fill="white"/>
</mask>
<g mask="url(#mask2_423_984)">
<path d="M233.165 15.7929C233.165 15.7929 236.489 29.9592 255.127 31.8845C273.783 33.8099 296.79 32.8031 301.706 9.75195L301.776 36.0885H231.096" fill="#DDEBC7"/>
</g>
<path d="M463.333 35.0447C490.247 35.0447 495.923 27.2021 495.923 17.5224C495.923 7.84268 489.716 0 463.333 0C436.949 0 430.76 7.84268 430.76 17.5224C430.76 27.2021 436.418 35.0447 463.333 35.0447Z" fill="#EBF3DE"/>
<mask id="mask3_423_984" style="mask-type:luminance" maskUnits="userSpaceOnUse" x="431" y="0" width="66" height="36">
<path d="M431 17.5224C431 27.2021 436.676 35.0447 463.573 35.0447C490.469 35.0447 496.163 27.2021 496.163 17.5224C496.163 7.84268 489.956 0 463.573 0C437.189 0 431 7.84268 431 17.5224Z" fill="white"/>
</mask>
<g mask="url(#mask3_423_984)">
<path d="M428.143 15.7929C428.143 15.7929 431.468 29.9592 450.106 31.8845C468.762 33.8099 491.768 32.8031 496.684 9.75195L496.755 36.0885H426.074" fill="#DDEBC7"/>
</g>
<path d="M45.2971 46.8984H19.6738V72.5108H45.2971V46.8984Z" fill="#DCEDD8"/>
<mask id="mask4_423_984" style="mask-type:luminance" maskUnits="userSpaceOnUse" x="18" y="45" width="536" height="105">
<path d="M553.5 45.0625H18.7715V149.985H553.5V45.0625Z" fill="white"/>
</mask>
<g mask="url(#mask4_423_984)">
<path d="M45.2971 46.8972H19.6738V72.5096H45.2971V46.8972Z" stroke="#231815" stroke-width="1.3601" stroke-linejoin="round"/>
</g>
<path d="M111.946 72.5078H86.3223V98.1202H111.946V72.5078Z" fill="#DCEDD8"/>
<path d="M111.946 72.5078H86.3223V98.1202H111.946V72.5078Z" stroke="#231815" stroke-width="1.3601" stroke-linejoin="round"/>
<path d="M137.569 72.5078H111.945V98.1202H137.569V72.5078Z" fill="#DCEDD8"/>
<path d="M137.569 72.5078H111.945V98.1202H137.569V72.5078Z" stroke="#231815" stroke-width="1.3601" stroke-linejoin="round"/>
<path d="M137.569 46.8984H111.945V72.5108H137.569V46.8984Z" fill="#DCEDD8"/>
<path d="M137.569 46.8984H111.945V72.5108H137.569V46.8984Z" stroke="#231815" stroke-width="1.3601" stroke-linejoin="round"/>
<path d="M163.209 72.5078H137.586V98.1202H163.209V72.5078Z" fill="#DCEDD8"/>
<path d="M163.209 72.5078H137.586V98.1202H163.209V72.5078Z" stroke="#231815" stroke-width="1.3601" stroke-linejoin="round"/>
<path d="M255.483 98.1016H229.859V123.714H255.483V98.1016Z" fill="#DCEDD8"/>
<path d="M255.483 98.1016H229.859V123.714H255.483V98.1016Z" stroke="#231815" stroke-width="1.3601" stroke-linejoin="round"/>
<path d="M229.858 98.1016H204.234V123.714H229.858V98.1016Z" fill="#DCEDD8"/>
<path d="M229.858 98.1016H204.234V123.714H229.858V98.1016Z" stroke="#231815" stroke-width="1.3601" stroke-linejoin="round"/>
<path d="M281.123 98.1016H255.5V123.714H281.123V98.1016Z" fill="#DCEDD8"/>
<path d="M281.123 98.1016H255.5V123.714H281.123V98.1016Z" stroke="#231815" stroke-width="1.3601" stroke-linejoin="round"/>
<path d="M281.123 72.5078H255.5V98.1202H281.123V72.5078Z" fill="#DCEDD8"/>
<path d="M281.123 72.5078H255.5V98.1202H281.123V72.5078Z" stroke="#231815" stroke-width="1.3601" stroke-linejoin="round"/>
<path d="M281.123 46.8984H255.5V72.5108H281.123V46.8984Z" fill="#DCEDD8"/>
<path d="M281.123 46.8984H255.5V72.5108H281.123V46.8984Z" stroke="#231815" stroke-width="1.3601" stroke-linejoin="round"/>
<path d="M306.746 98.1016H281.123V123.714H306.746V98.1016Z" fill="#DCEDD8"/>
<path d="M306.746 98.1016H281.123V123.714H306.746V98.1016Z" stroke="#231815" stroke-width="1.3601" stroke-linejoin="round"/>
<path d="M332.387 98.1016H306.764V123.714H332.387V98.1016Z" fill="#DCEDD8"/>
<path d="M332.387 98.1016H306.764V123.714H332.387V98.1016Z" stroke="#231815" stroke-width="1.3601" stroke-linejoin="round"/>
<path d="M255.483 72.5078H229.859V98.1202H255.483V72.5078Z" fill="#DCEDD8"/>
<path d="M255.483 72.5078H229.859V98.1202H255.483V72.5078Z" stroke="#231815" stroke-width="1.3601" stroke-linejoin="round"/>
<path d="M306.746 72.5078H281.123V98.1202H306.746V72.5078Z" fill="#DCEDD8"/>
<path d="M306.746 72.5078H281.123V98.1202H306.746V72.5078Z" stroke="#231815" stroke-width="1.3601" stroke-linejoin="round"/>
<path d="M399.018 123.715H373.395V149.327H399.018V123.715Z" fill="#DCEDD8"/>
<mask id="mask5_423_984" style="mask-type:luminance" maskUnits="userSpaceOnUse" x="18" y="45" width="536" height="105">
<path d="M553.5 45.0625H18.7715V149.985H553.5V45.0625Z" fill="white"/>
</mask>
<g mask="url(#mask5_423_984)">
<path d="M399.018 123.719H373.395V149.331H399.018V123.719Z" stroke="#231815" stroke-width="1.3601" stroke-linejoin="round"/>
</g>
<path d="M424.658 123.715H399.035V149.327H424.658V123.715Z" fill="#DCEDD8"/>
<mask id="mask6_423_984" style="mask-type:luminance" maskUnits="userSpaceOnUse" x="18" y="45" width="536" height="105">
<path d="M553.5 45.0625H18.7715V149.985H553.5V45.0625Z" fill="white"/>
</mask>
<g mask="url(#mask6_423_984)">
<path d="M424.658 123.719H399.035V149.331H424.658V123.719Z" stroke="#231815" stroke-width="1.3601" stroke-linejoin="round"/>
</g>
<path d="M424.658 98.1016H399.035V123.714H424.658V98.1016Z" fill="#DCEDD8"/>
<path d="M424.658 98.1016H399.035V123.714H424.658V98.1016Z" stroke="#231815" stroke-width="1.3601" stroke-linejoin="round"/>
<path d="M450.281 123.715H424.658V149.327H450.281V123.715Z" fill="#DCEDD8"/>
<mask id="mask7_423_984" style="mask-type:luminance" maskUnits="userSpaceOnUse" x="18" y="45" width="536" height="105">
<path d="M553.5 45.0625H18.7715V149.985H553.5V45.0625Z" fill="white"/>
</mask>
<g mask="url(#mask7_423_984)">
<path d="M450.299 123.719H424.676V149.331H450.299V123.719Z" stroke="#231815" stroke-width="1.3601" stroke-linejoin="round"/>
</g>
<path d="M475.924 123.715H450.301V149.327H475.924V123.715Z" fill="#DCEDD8"/>
<mask id="mask8_423_984" style="mask-type:luminance" maskUnits="userSpaceOnUse" x="18" y="45" width="536" height="105">
<path d="M553.5 45.0625H18.7715V149.985H553.5V45.0625Z" fill="white"/>
</mask>
<g mask="url(#mask8_423_984)">
<path d="M475.922 123.719H450.299V149.331H475.922V123.719Z" stroke="#231815" stroke-width="1.3601" stroke-linejoin="round"/>
</g>
<path d="M501.545 123.715H475.922V149.327H501.545V123.715Z" fill="#DCEDD8"/>
<mask id="mask9_423_984" style="mask-type:luminance" maskUnits="userSpaceOnUse" x="18" y="45" width="536" height="105">
<path d="M553.5 45.0625H18.7715V149.985H553.5V45.0625Z" fill="white"/>
</mask>
<g mask="url(#mask9_423_984)">
<path d="M501.547 123.719H475.924V149.331H501.547V123.719Z" stroke="#231815" stroke-width="1.3601" stroke-linejoin="round"/>
</g>
<path d="M527.186 123.715H501.562V149.327H527.186V123.715Z" fill="#DCEDD8"/>
<mask id="mask10_423_984" style="mask-type:luminance" maskUnits="userSpaceOnUse" x="18" y="45" width="536" height="105">
<path d="M553.5 45.0625H18.7715V149.985H553.5V45.0625Z" fill="white"/>
</mask>
<g mask="url(#mask10_423_984)">
<path d="M527.188 123.719H501.564V149.331H527.188V123.719Z" stroke="#231815" stroke-width="1.3601" stroke-linejoin="round"/>
</g>
<path d="M450.281 98.1016H424.658V123.714H450.281V98.1016Z" fill="#DCEDD8"/>
<path d="M450.299 98.1016H424.676V123.714H450.299V98.1016Z" stroke="#231815" stroke-width="1.3601" stroke-linejoin="round"/>
<path d="M475.924 98.1016H450.301V123.714H475.924V98.1016Z" fill="#DCEDD8"/>
<path d="M475.924 98.1016H450.301V123.714H475.924V98.1016Z" stroke="#231815" stroke-width="1.3601" stroke-linejoin="round"/>
<path d="M501.545 98.1016H475.922V123.714H501.545V98.1016Z" fill="#DCEDD8"/>
<path d="M501.545 98.1016H475.922V123.714H501.545V98.1016Z" stroke="#231815" stroke-width="1.3601" stroke-linejoin="round"/>
<path d="M450.281 72.5078H424.658V98.1202H450.281V72.5078Z" fill="#DCEDD8"/>
<path d="M450.299 72.5078H424.676V98.1202H450.299V72.5078Z" stroke="#231815" stroke-width="1.3601" stroke-linejoin="round"/>
<path d="M475.924 72.5078H450.301V98.1202H475.924V72.5078Z" fill="#DCEDD8"/>
<path d="M475.924 72.5078H450.301V98.1202H475.924V72.5078Z" stroke="#231815" stroke-width="1.3601" stroke-linejoin="round"/>
<path d="M475.924 46.8984H450.301V72.5108H475.924V46.8984Z" fill="#DCEDD8"/>
<path d="M475.924 46.8984H450.301V72.5108H475.924V46.8984Z" stroke="#231815" stroke-width="1.3601" stroke-linejoin="round"/>
<path d="M501.545 72.5078H475.922V98.1202H501.545V72.5078Z" fill="#DCEDD8"/>
<path d="M501.545 72.5078H475.922V98.1202H501.545V72.5078Z" stroke="#231815" stroke-width="1.3601" stroke-linejoin="round"/>
<path d="M527.186 98.1016H501.562V123.714H527.186V98.1016Z" fill="#DCEDD8"/>
<path d="M527.186 98.1016H501.562V123.714H527.186V98.1016Z" stroke="#231815" stroke-width="1.3601" stroke-linejoin="round"/>
<path d="M552.828 123.715H527.205V149.327H552.828V123.715Z" fill="#DCEDD8"/>
<mask id="mask11_423_984" style="mask-type:luminance" maskUnits="userSpaceOnUse" x="18" y="45" width="536" height="105">
<path d="M553.5 45.0625H18.7715V149.985H553.5V45.0625Z" fill="white"/>
</mask>
<g mask="url(#mask11_423_984)">
<path d="M552.828 123.72H527.205V149.332H552.828V123.72Z" stroke="#231815" stroke-width="1.3601" stroke-linejoin="round"/>
</g>
</svg>
