<svg width="137" height="84" viewBox="0 0 137 84" fill="none" xmlns="http://www.w3.org/2000/svg">
<path d="M135.611 28.7656H2.14844V82.1294H135.611V28.7656Z" fill="#E0DEF0"/>
<mask id="mask0_9422_137576" style="mask-type:luminance" maskUnits="userSpaceOnUse" x="1" y="0" width="136" height="84">
<path d="M136.275 0.727539H1.20703V83.0681H136.275V0.727539Z" fill="white"/>
</mask>
<g mask="url(#mask0_9422_137576)">
<path d="M2.14844 28.7617H135.613" stroke="#231F20" stroke-width="0.70386" stroke-miterlimit="10" stroke-dasharray="3.52 2.58"/>
<path d="M2.14844 55.4434H135.613" stroke="#231F20" stroke-width="0.70386" stroke-miterlimit="10" stroke-dasharray="3.52 2.58"/>
</g>
<path d="M28.8438 82.1278V28.6719" stroke="#231F20" stroke-width="0.70386" stroke-miterlimit="10" stroke-dasharray="3.52 2.58"/>
<path d="M55.5352 82.1278V28.6719" stroke="#231F20" stroke-width="0.70386" stroke-miterlimit="10" stroke-dasharray="3.52 2.58"/>
<path d="M82.2285 82.1278V28.6719" stroke="#231F20" stroke-width="0.70386" stroke-miterlimit="10" stroke-dasharray="3.52 2.58"/>
<path d="M108.922 82.1278V28.6719" stroke="#231F20" stroke-width="0.70386" stroke-miterlimit="10" stroke-dasharray="3.52 2.58"/>
<path d="M11.7381 28.7627L2.14844 35.5269" stroke="#ED1C24" stroke-width="0.70386" stroke-miterlimit="10"/>
<path d="M25.2291 28.7627L2.14844 45.0397" stroke="#ED1C24" stroke-width="0.70386" stroke-miterlimit="10"/>
<path d="M28.8414 35.7285L2.14844 54.5544" stroke="#ED1C24" stroke-width="0.70386" stroke-miterlimit="10"/>
<path d="M28.8414 45.2432L2.14844 64.069" stroke="#ED1C24" stroke-width="0.70386" stroke-miterlimit="10"/>
<path d="M28.8414 54.7568L2.14844 73.5827" stroke="#ED1C24" stroke-width="0.70386" stroke-miterlimit="10"/>
<path d="M28.8434 64.2705L3.52344 82.1269" stroke="#ED1C24" stroke-width="0.70386" stroke-miterlimit="10"/>
<path d="M28.8406 73.7842L17.0117 82.1278" stroke="#ED1C24" stroke-width="0.70386" stroke-miterlimit="10"/>
<path d="M135.613 2.08105H2.14844V82.1286H135.613V2.08105Z" stroke="#58595B" stroke-width="1.1731" stroke-miterlimit="10"/>
<path d="M28.8414 28.7627H2.14844V82.1283H28.8414V28.7627Z" stroke="#ED1C24" stroke-width="2.3462" stroke-miterlimit="10"/>
</svg>
