<svg width="445" height="349" viewBox="0 0 445 349" fill="none" xmlns="http://www.w3.org/2000/svg">
<path d="M6.95898 26.49C6.95898 15.1738 18.2883 6 32.2639 6H413.447C427.422 6 438.752 15.1738 438.752 26.49V208.7C438.752 220.016 427.422 229.19 413.447 229.19" stroke="#D1D3D4" stroke-width="11.731" stroke-linecap="round" stroke-linejoin="round"/>
<path d="M413.015 229.189C426.984 229.189 438.309 239.222 438.309 251.597V320.72C438.309 333.097 426.984 343.13 413.015 343.13H31.9953C18.0256 343.13 6.70117 333.097 6.70117 320.72" stroke="#D1D3D4" stroke-width="11.731" stroke-linecap="round" stroke-linejoin="round"/>
<path d="M400.45 342.995H40.9238" stroke="white" stroke-width="2.3462" stroke-linecap="round" stroke-dasharray="9.29 9.29"/>
<path d="M437.402 264.519V311.984" stroke="white" stroke-width="2.3462" stroke-linecap="round" stroke-dasharray="9.85 9.85"/>
<path d="M3.89069 325.226C3.55474 323.771 3.38016 322.264 3.38016 320.72M36.1916 343.13H31.8719C30.2357 343.13 28.6344 342.99 27.0855 342.726M416.883 342.726C415.332 342.99 413.733 343.13 412.096 343.13H407.775M437.338 316.4V320.72C437.338 322.264 437.161 323.771 436.827 325.226M436.827 247.093C437.161 248.548 437.338 250.055 437.338 251.597V255.919" stroke="white" stroke-width="2.3462" stroke-linecap="round"/>
<path d="M18.4975 339.397C14.3071 336.989 10.9741 333.516 8.98828 329.409" stroke="white" stroke-width="2.3462" stroke-linecap="round" stroke-dasharray="10.35 10.35"/>
<path d="M418.245 228.823C416.692 229.064 415.087 229.19 413.447 229.19M438.752 204.903V208.7C438.752 210.11 438.577 211.488 438.24 212.819M438.24 22.3691C438.577 23.7 438.752 25.0781 438.752 26.49V30.2854M409.116 6H413.447C415.087 6 416.692 6.12617 418.245 6.36712M27.4654 6.36712C29.0204 6.12617 30.6236 6 32.2639 6H36.5945M6.95898 26.49C6.95898 25.0781 7.13612 23.7 7.47072 22.3691" stroke="white" stroke-width="2.3462" stroke-linecap="round"/>
<path d="M31.7559 229.189H406.51" stroke="#D1D3D4" stroke-width="2.3462" stroke-linecap="round" stroke-dasharray="9.35 9.35"/>
<path d="M436.897 16.8706C434.213 13.8235 428.263 9.23144 423.82 7.83008" stroke="white" stroke-width="2.3462" stroke-linecap="round" stroke-dasharray="10.35 10.35"/>
<path d="M436.897 240.871C434.213 237.823 428.263 233.231 423.82 231.83" stroke="white" stroke-width="2.3462" stroke-linecap="round" stroke-dasharray="10.35 10.35"/>
<path d="M434.897 332.83C432.213 335.877 426.263 340.469 421.82 341.87" stroke="white" stroke-width="2.3462" stroke-linecap="round" stroke-dasharray="10.35 10.35"/>
<path d="M21.4176 7.20431C17.7798 9.00759 11.8043 13.5663 9.30078 17.4951" stroke="white" stroke-width="2.3462" stroke-linecap="round" stroke-dasharray="10.35 10.35"/>
<path d="M436.897 218.83C434.213 221.877 428.263 226.469 423.82 227.87" stroke="white" stroke-width="2.3462" stroke-linecap="round" stroke-dasharray="10.35 10.35"/>
<path d="M439 36.8789V200.109" stroke="white" stroke-width="2.3462" stroke-linecap="round" stroke-dasharray="9.46 9.46"/>
</svg>
