<svg width="136" height="84" viewBox="0 0 136 84" fill="none" xmlns="http://www.w3.org/2000/svg">
<path d="M135.219 28.7656H1.75391V82.1294H135.219V28.7656Z" fill="#E0DEF0"/>
<path d="M1.75391 28.7627H135.219" stroke="#231F20" stroke-width="0.70386" stroke-miterlimit="10" stroke-dasharray="3.52 2.58"/>
<path d="M1.75391 55.4434H135.219" stroke="#231F20" stroke-width="0.70386" stroke-miterlimit="10" stroke-dasharray="3.52 2.58"/>
<path d="M28.4492 82.1285V2.08105" stroke="#231F20" stroke-width="0.70386" stroke-miterlimit="10" stroke-dasharray="3.52 2.58"/>
<path d="M55.1406 82.1285V2.08105" stroke="#231F20" stroke-width="0.70386" stroke-miterlimit="10" stroke-dasharray="3.52 2.58"/>
<path d="M81.8359 82.1285V2.08105" stroke="#231F20" stroke-width="0.70386" stroke-miterlimit="10" stroke-dasharray="3.52 2.58"/>
<path d="M108.527 82.1285V2.08105" stroke="#231F20" stroke-width="0.70386" stroke-miterlimit="10" stroke-dasharray="3.52 2.58"/>
<path d="M11.3436 28.7627L1.75391 35.5269" stroke="#ED1C24" stroke-width="0.70386" stroke-miterlimit="10"/>
<path d="M24.8345 28.7627L1.75391 45.0397" stroke="#ED1C24" stroke-width="0.70386" stroke-miterlimit="10"/>
<path d="M28.447 35.7285L1.75391 54.5544" stroke="#ED1C24" stroke-width="0.70386" stroke-miterlimit="10"/>
<path d="M28.447 45.2432L1.75391 64.069" stroke="#ED1C24" stroke-width="0.70386" stroke-miterlimit="10"/>
<path d="M28.447 54.7568L1.75391 73.5827" stroke="#ED1C24" stroke-width="0.70386" stroke-miterlimit="10"/>
<path d="M28.4489 64.2705L3.12891 82.1269" stroke="#ED1C24" stroke-width="0.70386" stroke-miterlimit="10"/>
<path d="M28.45 73.7842L16.6211 82.1278" stroke="#ED1C24" stroke-width="0.70386" stroke-miterlimit="10"/>
<mask id="mask0_9422_137577" style="mask-type:luminance" maskUnits="userSpaceOnUse" x="0" y="0" width="136" height="84">
<path d="M135.691 0.727539H0.625V83.0681H135.691V0.727539Z" fill="white"/>
</mask>
<g mask="url(#mask0_9422_137577)">
<path d="M135.219 2.08105H1.75391V82.1286H135.219V2.08105Z" stroke="#58595B" stroke-width="1.1731" stroke-miterlimit="10"/>
<path d="M28.4488 28.7627H1.75586V82.1283H28.4488V28.7627Z" stroke="#ED1C24" stroke-width="2.3462" stroke-miterlimit="10"/>
</g>
</svg>
