<svg width="182" height="158" viewBox="0 0 182 158" fill="none" xmlns="http://www.w3.org/2000/svg">
<mask id="path-1-inside-1_7529_26526" fill="white">
<path d="M181.076 79C181.076 35.375 140.751 0 91.0008 0C41.2508 0 0.925781 35.375 0.925781 79C0.925781 122.625 40.4508 157.225 89.5008 157.925V158H175.376V137.675H151.151C169.476 123.225 181.051 102.325 181.051 79"/>
</mask>
<path d="M181.076 79C181.076 35.375 140.751 0 91.0008 0C41.2508 0 0.925781 35.375 0.925781 79C0.925781 122.625 40.4508 157.225 89.5008 157.925V158H175.376V137.675H151.151C169.476 123.225 181.051 102.325 181.051 79" fill="#F37053"/>
<path d="M89.5008 157.925H92.5008V154.967L89.5436 154.925L89.5008 157.925ZM89.5008 158H86.5008V161H89.5008V158ZM175.376 158V161H178.376V158H175.376ZM175.376 137.675H178.376V134.675H175.376V137.675ZM151.151 137.675L149.293 135.319L142.501 140.675H151.151V137.675ZM184.076 79C184.076 33.3607 142.026 -3 91.0008 -3V3C139.476 3 178.076 37.3893 178.076 79H184.076ZM91.0008 -3C39.9756 -3 -2.07422 33.3607 -2.07422 79H3.92578C3.92578 37.3893 42.526 3 91.0008 3V-3ZM-2.07422 79C-2.07422 124.63 39.1591 160.207 89.458 160.925L89.5436 154.925C41.7425 154.243 3.92578 120.62 3.92578 79H-2.07422ZM86.5008 157.925V158H92.5008V157.925H86.5008ZM89.5008 161H175.376V155H89.5008V161ZM178.376 158V137.675H172.376V158H178.376ZM175.376 134.675H151.151V140.675H175.376V134.675ZM153.008 140.031C171.951 125.094 184.051 103.368 184.051 79H178.051C178.051 101.282 167.001 121.356 149.293 135.319L153.008 140.031Z" fill="#231F20" mask="url(#path-1-inside-1_7529_26526)"/>
</svg>
