<svg width="254" height="297" viewBox="0 0 254 297" fill="none" xmlns="http://www.w3.org/2000/svg">
<mask id="mask0_10423_62604" style="mask-type:luminance" maskUnits="userSpaceOnUse" x="1" y="48" width="252" height="248">
<path d="M1.97266 48.0371V249.238C1.97266 275.08 58.0796 296 127.338 296C196.559 296 252.704 275.042 252.704 249.238V48.0371H1.97266Z" fill="white"/>
</mask>
<g mask="url(#mask0_10423_62604)">
<path d="M252.703 48.0361H1.97168V295.999H252.703V48.0361Z" fill="white"/>
</g>
<mask id="mask1_10423_62604" style="mask-type:luminance" maskUnits="userSpaceOnUse" x="1" y="48" width="252" height="248">
<path d="M1.97266 48.0371V249.238C1.97266 275.08 58.0796 296 127.338 296C196.559 296 252.704 275.042 252.704 249.238V48.0371H1.97266Z" fill="white"/>
</mask>
<g mask="url(#mask1_10423_62604)">
<path d="M252.703 48.0361H1.97168V295.999H252.703V48.0361Z" stroke="#1D1D1B" stroke-width="0.75" stroke-miterlimit="10" stroke-linejoin="round"/>
</g>
<path d="M2 249.762C2 223.92 58.1069 203 127.366 203C196.586 203 252.732 223.92 252.732 249.762C252.732 275.566 196.625 296.525 127.366 296.525C58.1069 296.525 2 275.605 2 249.762Z" fill="#808080"/>
<path d="M1.96582 48.0288V249.229C1.96582 275.072 58.0727 295.992 127.332 295.992C196.552 295.992 252.698 275.072 252.698 249.229V48.0288H1.96582Z" stroke="#1D1D1B" stroke-width="2" stroke-miterlimit="10" stroke-linejoin="round"/>
<path d="M2 48.0279C2 22.1856 58.1069 1.26562 127.366 1.26562C196.586 1.26562 252.732 22.1856 252.732 48.0279C252.732 73.8317 196.625 94.7901 127.366 94.7901C58.1069 94.7901 2 73.8702 2 48.0279Z" fill="#808080"/>
<path d="M2 249.266C2 223.424 58.1069 202.504 127.366 202.504C196.586 202.504 252.732 223.424 252.732 249.266" stroke="#1D1D1B" stroke-width="2" stroke-linejoin="round" stroke-dasharray="4 4"/>
<path d="M2 48.0279C2 22.1856 58.1069 1.26562 127.366 1.26562C196.586 1.26562 252.732 22.1856 252.732 48.0279C252.732 73.8317 196.625 94.7901 127.366 94.7901C58.1069 94.7901 2 73.8702 2 48.0279Z" stroke="#1D1D1B" stroke-width="2" stroke-miterlimit="10" stroke-linejoin="round"/>
</svg>
