<svg width="399" height="555" viewBox="0 0 399 555" fill="none" xmlns="http://www.w3.org/2000/svg">
<path d="M62.6957 509.528V471.16" stroke="#1D1D1B" stroke-miterlimit="10"/>
<path d="M62.6958 460.48L68.8826 475.533L62.6958 471.986L56.5522 475.533L62.6958 460.48Z" fill="#1D1D1B"/>
<path d="M82.9366 535.095C82.9177 539.05 81.729 542.909 79.5207 546.187C77.3123 549.465 74.1834 552.014 70.5294 553.511C66.8753 555.008 62.8601 555.387 58.9912 554.599C55.1223 553.812 51.5733 551.893 48.7928 549.086C46.0122 546.279 44.1248 542.709 43.3692 538.828C42.6135 534.947 43.0235 530.928 44.5474 527.281C46.0712 523.633 48.6405 520.519 51.9305 518.333C55.2205 516.148 59.0836 514.988 63.0316 515C65.655 514.996 68.2535 515.51 70.6781 516.514C73.1026 517.518 75.3056 518.991 77.1606 520.849C79.0157 522.707 80.4864 524.913 81.4884 527.341C82.4905 529.77 83.0041 532.372 83 535" fill="#F7E1B1"/>
<path d="M58.2694 21H305.731C308.985 21 312.105 22.278 314.406 24.5528C316.707 26.8276 318 29.9129 318 33.13V54.9127C318 58.1185 316.712 61.1929 314.419 63.4597C312.126 65.7265 309.016 67 305.774 67H58.2262C54.9836 67 51.8738 65.7265 49.581 63.4597C47.2881 61.1929 46 58.1185 46 54.9127V33.13C46 31.5371 46.3173 29.9597 46.9339 28.488C47.5505 27.0164 48.4543 25.6792 49.5936 24.5528C50.7329 23.4264 52.0855 22.5329 53.5741 21.9233C55.0627 21.3138 56.6581 21 58.2694 21Z" fill="#CAE2C0"/>
<path d="M31.8115 0.78125H309.015" stroke="#DADADA" stroke-linecap="round" stroke-dasharray="4.22 4.22"/>
<path d="M355.921 5.79688C365.678 9.66938 374.376 15.6332 381.345 23.2289C388.314 30.8246 393.368 39.8496 396.118 49.6087" stroke="#DADADA" stroke-linecap="round" stroke-dasharray="3.71 3.71"/>
<path d="M398.451 95.4336V430.813" stroke="#DADADA" stroke-linecap="round" stroke-dasharray="4.12 4.12"/>
<path d="M398.451 440.295V449.876M397.868 57.9878C398.257 60.8407 398.452 63.7148 398.451 66.592V76.1729M319.271 0.781253H329.576C332.583 0.780331 335.586 0.966763 338.568 1.33937M0.994873 0.781253H11.2509" stroke="#DADADA" stroke-linecap="round"/>
<path d="M355.921 537.276C365.683 533.399 374.385 527.428 381.354 519.824C388.324 512.22 393.375 503.186 396.118 493.418" stroke="#DADADA" stroke-linecap="round" stroke-dasharray="3.71 3.71"/>
<path d="M398.451 451.646V443.367M397.868 484.947C398.261 482.094 398.456 479.22 398.451 476.342V468.203M329.576 542.618C332.583 542.619 335.587 542.433 338.568 542.06" stroke="#DADADA" stroke-linecap="round"/>
</svg>
