<svg width="399" height="555" viewBox="0 0 399 555" fill="none" xmlns="http://www.w3.org/2000/svg">
<path d="M186.244 509.528V471.16" stroke="#1D1D1B" stroke-miterlimit="10"/>
<path d="M186.244 460.48L192.431 475.533L186.244 471.986L180.101 475.533L186.244 460.48Z" fill="#1D1D1B"/>
<path d="M205.937 535.095C205.918 539.05 204.729 542.909 202.521 546.187C200.312 549.465 197.183 552.014 193.529 553.511C189.875 555.008 185.86 555.387 181.991 554.599C178.122 553.812 174.573 551.893 171.793 549.086C169.012 546.279 167.125 542.709 166.369 538.828C165.614 534.947 166.024 530.928 167.547 527.281C169.071 523.633 171.64 520.519 174.93 518.333C178.22 516.148 182.084 514.988 186.032 515C188.655 514.996 191.254 515.51 193.678 516.514C196.103 517.518 198.306 518.991 200.161 520.849C202.016 522.707 203.486 524.913 204.488 527.341C205.49 529.77 206.004 532.372 206 535" fill="#F7E1B1"/>
<path d="M65.2694 21H312.731C315.985 21 319.105 22.278 321.406 24.5528C323.707 26.8276 325 29.9129 325 33.13V54.9127C325 58.1185 323.712 61.1929 321.419 63.4597C319.126 65.7265 316.016 67 312.774 67H65.2262C61.9836 67 58.8738 65.7265 56.581 63.4597C54.2881 61.1929 53 58.1185 53 54.9127V33.13C53 31.5371 53.3173 29.9597 53.9339 28.488C54.5505 27.0164 55.4543 25.6792 56.5936 24.5528C57.7329 23.4264 59.0855 22.5329 60.5741 21.9233C62.0627 21.3138 63.6581 21 65.2694 21Z" fill="#CAE2C0"/>
<path d="M31.3601 0.78125H308.564" stroke="#DADADA" stroke-linecap="round" stroke-dasharray="4.22 4.22"/>
<path d="M355.469 5.79688C365.226 9.66938 373.925 15.6332 380.894 23.2289C387.863 30.8246 392.917 39.8496 395.667 49.6087" stroke="#DADADA" stroke-linecap="round" stroke-dasharray="3.71 3.71"/>
<path d="M398 95.4336V430.813" stroke="#DADADA" stroke-linecap="round" stroke-dasharray="4.12 4.12"/>
<path d="M398 440.295V449.876M397.416 57.9878C397.806 60.8407 398.001 63.7148 398 66.592V76.1729M318.82 0.781253H329.124C332.131 0.780331 335.135 0.966763 338.116 1.33937M0.543396 0.781253H10.7994" stroke="#DADADA" stroke-linecap="round"/>
<path d="M355.469 537.276C365.232 533.399 373.933 527.428 380.903 519.824C387.872 512.22 392.924 503.186 395.667 493.418" stroke="#DADADA" stroke-linecap="round" stroke-dasharray="3.71 3.71"/>
<path d="M398 451.646V443.367M397.417 484.947C397.81 482.094 398.004 479.22 398 476.342V468.203M329.124 542.618C332.131 542.619 335.135 542.433 338.117 542.06" stroke="#DADADA" stroke-linecap="round"/>
</svg>
