<svg width="341" height="369" viewBox="0 0 341 369" fill="none" xmlns="http://www.w3.org/2000/svg">
<path d="M310.401 0.308594H30.599C13.6996 0.308594 0 14.0362 0 30.9701V337.647C0 354.581 13.6996 368.309 30.599 368.309H310.401C327.3 368.309 341 354.581 341 337.647V30.9701C341 14.0362 327.3 0.308594 310.401 0.308594Z" fill="#D6E8CE"/>
<path d="M64.0021 312.32L88.9913 301.109" stroke="#1D1D1B" stroke-miterlimit="10"/>
<path d="M95.9724 297.984L87.9412 306.385L88.4663 301.32L84.3581 298.386L95.9724 297.984Z" fill="#1D1D1B"/>
<path d="M61 322.778C61.0061 326.636 59.8676 330.409 57.7287 333.62C55.5897 336.831 52.5464 339.335 48.9838 340.815C45.4212 342.296 41.4994 342.687 37.7147 341.938C33.9301 341.189 30.4526 339.334 27.7224 336.608C24.9922 333.882 23.1319 330.408 22.377 326.624C21.622 322.841 22.0064 318.918 23.4814 315.353C24.9564 311.788 27.4557 308.741 30.6632 306.597C33.8706 304.453 37.6419 303.309 41.5 303.309C46.6663 303.309 51.6216 305.359 55.2776 309.009C58.9337 312.659 60.9918 317.611 61 322.778Z" fill="#F7E1B1"/>
<path d="M117.873 163.406L169.674 179.558V240.86L117.873 224.678V163.406Z" fill="#FAC393"/>
<path d="M213.752 161.176L169.674 179.551V240.854L213.752 222.447V161.176Z" fill="#F6A865"/>
<path d="M213.753 161.179L169.674 179.554L117.873 163.402L161.951 144.996L213.753 161.179Z" fill="#FDDBBE"/>
<path d="M162.013 176.891C162.029 183.113 162.65 189.318 163.867 195.42C165.269 202.678 167.21 209.822 169.674 216.791" stroke="#F8B87F" stroke-linejoin="round"/>
<path d="M148.329 172.914C148.766 181.652 149.725 190.356 151.202 198.979C154.291 213.71 162.013 238.448 162.013 238.448" stroke="#F8B87F" stroke-linejoin="round"/>
<path d="M134.182 168.496C134.631 179.057 136.184 189.542 138.815 199.78C142.615 215.901 148.329 233.968 148.329 233.968" stroke="#F8B87F" stroke-linejoin="round"/>
<path d="M120.622 164.539C120.916 177.381 122.626 190.151 125.719 202.618C127.912 211.797 130.878 220.775 134.584 229.455" stroke="#F8B87F" stroke-linejoin="round"/>
<path d="M118.213 209.453C118.648 212.575 119.267 215.669 120.066 218.718C120.835 221.348 121.87 223.894 123.155 226.315" stroke="#F8B87F" stroke-linejoin="round"/>
<path d="M162.013 176.893C162.013 176.893 163.372 175.071 170.199 174.701C173.316 174.216 176.506 174.535 179.465 175.627" stroke="#FCD2AD" stroke-linejoin="round"/>
<path d="M148.329 172.921C155.257 170.39 162.576 169.094 169.952 169.091C177.343 168.769 184.749 169.151 192.068 170.234" stroke="#FCD2AD" stroke-linejoin="round"/>
<path d="M134.182 168.496C145.683 164.913 157.63 162.958 169.674 162.69C181.235 162.518 192.789 163.345 204.208 165.161" stroke="#FCD2AD" stroke-linejoin="round"/>
<path d="M118.398 163.955C133.288 160.035 148.509 157.502 163.867 156.389C175.642 155.827 187.443 156.137 199.173 157.315" stroke="#FCD2AD" stroke-linejoin="round"/>
<path d="M143.14 153.118C149.223 151.069 155.568 149.905 161.982 149.659C167.58 149.349 173.195 149.66 178.724 150.586" stroke="#FCD2AD" stroke-linejoin="round"/>
<path d="M169.674 216.794C173.289 209.945 175.752 202.547 176.964 194.898C179.805 180.167 179.373 175.781 179.373 175.781" stroke="#F49A56" stroke-linejoin="round"/>
<path d="M174.647 238.416C174.647 238.416 180.67 229.49 187.003 203.611C189.955 192.702 191.634 181.489 192.007 170.195" stroke="#F49A56" stroke-linejoin="round"/>
<path d="M190.4 232.238C195.14 221.903 198.625 211.037 200.779 199.873C203.365 188.501 204.516 176.85 204.208 165.191" stroke="#F49A56" stroke-linejoin="round"/>
<path d="M205.536 226.317C207.388 222.021 208.846 217.566 209.891 213.006C211.93 204.452 213.413 192.191 213.413 192.191" stroke="#F49A56" stroke-linejoin="round"/>
<path d="M117.873 163.406L169.674 179.558V240.86L117.873 224.678V163.406Z" stroke="#966C44" stroke-linejoin="round"/>
<path d="M213.752 161.176L169.674 179.551V240.854L213.752 222.447V161.176Z" stroke="#966C44" stroke-linejoin="round"/>
<path d="M213.753 161.179L169.674 179.554L117.873 163.402L161.951 144.996L213.753 161.179Z" stroke="#966C44" stroke-linejoin="round"/>
<path d="M169.272 179.523L221.073 195.675V256.978L169.272 240.795V179.523Z" fill="#FAC393"/>
<path d="M265.152 177.301L221.073 195.676V256.979L265.152 238.603V177.301Z" fill="#F6A865"/>
<path d="M265.152 177.296L221.073 195.671L169.272 179.519L213.32 161.113L265.152 177.296Z" fill="#FDDBBE"/>
<path d="M213.382 193.02C213.42 199.242 214.051 205.447 215.266 211.549C216.673 218.776 218.614 225.888 221.073 232.828" stroke="#F8B87F" stroke-linejoin="round"/>
<path d="M199.729 189.004C200.165 197.742 201.125 206.446 202.602 215.069C205.69 229.8 213.382 254.537 213.382 254.537" stroke="#F8B87F" stroke-linejoin="round"/>
<path d="M185.582 184.613C186.031 195.174 187.583 205.66 190.215 215.898C194.014 232.018 199.729 250.085 199.729 250.085" stroke="#F8B87F" stroke-linejoin="round"/>
<path d="M172.021 180.668C172.316 193.509 174.025 206.279 177.118 218.747C179.311 227.926 182.277 236.904 185.983 245.584" stroke="#F8B87F" stroke-linejoin="round"/>
<path d="M169.519 225.57C169.955 228.692 170.574 231.786 171.373 234.835C172.142 237.466 173.177 240.011 174.462 242.432" stroke="#F8B87F" stroke-linejoin="round"/>
<path d="M213.382 193.026C213.382 193.026 214.772 191.204 221.598 190.802C224.718 190.338 227.905 190.667 230.865 191.759" stroke="#FCD2AD" stroke-linejoin="round"/>
<path d="M199.729 188.999C206.657 186.468 213.975 185.172 221.351 185.169C228.743 184.847 236.149 185.229 243.468 186.312" stroke="#FCD2AD" stroke-linejoin="round"/>
<path d="M185.582 184.613C197.083 181.03 209.029 179.075 221.073 178.807C232.634 178.635 244.188 179.462 255.607 181.278" stroke="#FCD2AD" stroke-linejoin="round"/>
<path d="M169.797 180.072C184.687 176.148 199.908 173.615 215.266 172.505C227.041 171.945 238.842 172.254 250.572 173.432" stroke="#FCD2AD" stroke-linejoin="round"/>
<path d="M194.539 169.235C200.622 167.187 206.968 166.022 213.382 165.776C218.979 165.466 224.594 165.777 230.123 166.703" stroke="#FCD2AD" stroke-linejoin="round"/>
<path d="M221.073 232.766C224.689 225.917 227.152 218.52 228.363 210.87C231.205 196.139 230.741 191.754 230.741 191.754" stroke="#F49A56" stroke-linejoin="round"/>
<path d="M226.046 254.572C226.046 254.572 232.07 245.647 238.402 219.767C241.371 208.861 243.061 197.648 243.437 186.352" stroke="#F49A56" stroke-linejoin="round"/>
<path d="M241.8 248.332C246.54 237.997 250.024 227.131 252.179 215.967C254.764 204.594 255.916 192.943 255.607 181.285" stroke="#F49A56" stroke-linejoin="round"/>
<path d="M256.935 242.434C258.769 238.142 260.226 233.699 261.291 229.155C263.329 220.6 264.812 208.309 264.812 208.309" stroke="#F49A56" stroke-linejoin="round"/>
<path d="M169.272 179.523L221.073 195.675V256.978L169.272 240.795V179.523Z" stroke="#966C44" stroke-linejoin="round"/>
<path d="M265.152 177.301L221.073 195.676V256.979L265.152 238.603V177.301Z" stroke="#966C44" stroke-linejoin="round"/>
<path d="M265.152 177.296L221.073 195.671L169.272 179.519L213.32 161.113L265.152 177.296Z" stroke="#966C44" stroke-linejoin="round"/>
<path d="M221.073 195.676L272.874 211.858V273.161L221.073 256.978V195.676Z" fill="#FAC393"/>
<path d="M316.953 193.48L272.905 211.856V273.158L316.953 254.752V193.48Z" fill="#F6A865"/>
<path d="M316.953 193.483L272.905 211.859L221.073 195.676L265.152 177.301L316.953 193.483Z" fill="#FDDBBE"/>
<path d="M265.275 209.176C265.315 215.398 265.946 221.603 267.16 227.706C268.552 234.925 270.494 242.028 272.967 248.953" stroke="#F8B87F" stroke-linejoin="round"/>
<path d="M251.53 205.184C251.983 213.922 252.953 222.625 254.433 231.249C257.522 246.011 265.214 270.748 265.214 270.748" stroke="#F8B87F" stroke-linejoin="round"/>
<path d="M237.475 200.766C237.927 211.329 239.49 221.814 242.139 232.05C245.939 248.202 251.622 266.268 251.622 266.268" stroke="#F8B87F" stroke-linejoin="round"/>
<path d="M223.853 196.82C224.144 209.66 225.843 222.429 228.919 234.899C231.129 244.074 234.095 253.05 237.784 261.736" stroke="#F8B87F" stroke-linejoin="round"/>
<path d="M221.444 241.746C221.881 244.865 222.489 247.958 223.266 251.011C224.04 253.63 225.075 256.165 226.355 258.577" stroke="#F8B87F" stroke-linejoin="round"/>
<path d="M265.275 209.175C265.275 209.175 266.635 207.383 273.492 206.982C276.609 206.497 279.799 206.816 282.759 207.908" stroke="#FCD2AD" stroke-linejoin="round"/>
<path d="M251.53 205.191C258.463 202.679 265.778 201.383 273.152 201.362C280.554 201.06 287.968 201.442 295.3 202.504" stroke="#FCD2AD" stroke-linejoin="round"/>
<path d="M237.475 200.77C248.99 197.202 260.945 195.248 272.998 194.964C284.548 194.792 296.092 195.619 307.501 197.434" stroke="#FCD2AD" stroke-linejoin="round"/>
<path d="M221.629 196.235C236.519 192.311 251.74 189.778 267.098 188.668C278.854 188.129 290.633 188.449 302.342 189.626" stroke="#FCD2AD" stroke-linejoin="round"/>
<path d="M246.371 185.427C252.448 183.356 258.797 182.191 265.214 181.968C270.801 181.637 276.408 181.948 281.925 182.895" stroke="#FCD2AD" stroke-linejoin="round"/>
<path d="M272.905 248.919C276.524 242.074 278.977 234.674 280.164 227.023C283.006 212.292 282.573 207.906 282.573 207.906" stroke="#F49A56" stroke-linejoin="round"/>
<path d="M277.847 270.755C277.847 270.755 283.871 261.83 290.203 235.919C293.154 225.01 294.844 213.798 295.238 202.504" stroke="#F49A56" stroke-linejoin="round"/>
<path d="M293.601 264.482C298.332 254.186 301.816 243.362 303.98 232.24C306.566 220.868 307.718 209.217 307.408 197.559" stroke="#F49A56" stroke-linejoin="round"/>
<path d="M308.767 258.586C310.6 254.294 312.057 249.851 313.122 245.307C315.161 236.752 316.644 224.461 316.644 224.461" stroke="#F49A56" stroke-linejoin="round"/>
<path d="M221.073 195.676L272.874 211.858V273.161L221.073 256.978V195.676Z" stroke="#966C44" stroke-linejoin="round"/>
<path d="M316.953 193.48L272.905 211.856V273.158L316.953 254.752V193.48Z" stroke="#966C44" stroke-linejoin="round"/>
<path d="M316.953 193.483L272.905 211.859L221.073 195.676L265.152 177.301L316.953 193.483Z" stroke="#966C44" stroke-linejoin="round"/>
<path d="M73.7322 181.719L125.564 197.87V259.173L73.7322 242.99V181.719Z" fill="#FAC393"/>
<path d="M169.612 179.496L125.564 197.871V259.174L169.612 240.799V179.496Z" fill="#F6A865"/>
<path d="M169.612 179.491L125.564 197.867L73.7322 181.715L117.811 163.309L169.612 179.491Z" fill="#FDDBBE"/>
<path d="M117.873 195.184C117.913 201.406 118.544 207.61 119.757 213.713C121.15 220.933 123.091 228.036 125.564 234.961" stroke="#F8B87F" stroke-linejoin="round"/>
<path d="M104.22 191.227C104.656 199.964 105.616 208.668 107.092 217.292C110.181 232.023 117.873 256.76 117.873 256.76" stroke="#F8B87F" stroke-linejoin="round"/>
<path d="M90.0417 186.809C90.4937 197.371 92.057 207.857 94.7059 218.093C98.5053 234.214 104.22 252.28 104.22 252.28" stroke="#F8B87F" stroke-linejoin="round"/>
<path d="M76.5123 182.828C76.8047 195.668 78.5035 208.437 81.5781 220.907C83.7985 230.062 86.774 239.018 90.4741 247.682" stroke="#F8B87F" stroke-linejoin="round"/>
<path d="M74.1028 227.766C74.5368 230.886 75.1452 233.979 75.9253 237.03C76.7033 239.658 77.7379 242.203 79.0142 244.628" stroke="#F8B87F" stroke-linejoin="round"/>
<path d="M117.873 195.181C117.873 195.181 119.232 193.359 126.089 192.957C129.209 192.482 132.399 192.812 135.356 193.915" stroke="#FCD2AD" stroke-linejoin="round"/>
<path d="M104.22 191.232C111.146 188.696 118.466 187.4 125.842 187.403C133.234 187.082 140.639 187.465 147.959 188.545" stroke="#FCD2AD" stroke-linejoin="round"/>
<path d="M90.0417 186.809C101.553 183.223 113.51 181.269 125.564 181.003C137.115 180.831 148.659 181.658 160.067 183.473" stroke="#FCD2AD" stroke-linejoin="round"/>
<path d="M74.2882 182.271C89.1776 178.348 104.399 175.815 119.757 174.705C131.532 174.144 143.333 174.454 155.063 175.631" stroke="#FCD2AD" stroke-linejoin="round"/>
<path d="M99.0304 171.43C105.112 169.377 111.458 168.212 117.873 167.972C123.47 167.662 129.085 167.972 134.615 168.898" stroke="#FCD2AD" stroke-linejoin="round"/>
<path d="M125.564 234.962C129.177 228.114 131.629 220.715 132.823 213.066C135.696 198.335 135.233 193.949 135.233 193.949" stroke="#F49A56" stroke-linejoin="round"/>
<path d="M130.506 256.767C130.506 256.767 136.684 247.842 142.862 221.962C145.811 211.053 147.501 199.841 147.897 188.547" stroke="#F49A56" stroke-linejoin="round"/>
<path d="M146.291 250.527C151.011 240.187 154.485 229.322 156.638 218.162C159.224 206.79 160.376 195.139 160.067 183.48" stroke="#F49A56" stroke-linejoin="round"/>
<path d="M161.426 244.59C163.262 240.288 164.719 235.835 165.782 231.28C167.82 222.756 169.303 210.465 169.303 210.465" stroke="#F49A56" stroke-linejoin="round"/>
<path d="M73.7322 181.719L125.564 197.87V259.173L73.7322 242.99V181.719Z" stroke="#966C44" stroke-linejoin="round"/>
<path d="M169.612 179.496L125.564 197.871V259.174L169.612 240.799V179.496Z" stroke="#966C44" stroke-linejoin="round"/>
<path d="M169.612 179.491L125.564 197.867L73.7322 181.715L117.811 163.309L169.612 179.491Z" stroke="#966C44" stroke-linejoin="round"/>
<path d="M125.163 198.027L176.994 214.179V275.482L125.163 259.299V198.027Z" fill="#FAC393"/>
<path d="M221.042 195.797L176.995 214.172V275.475L221.042 257.099V195.797Z" fill="#F6A865"/>
<path d="M221.042 195.804L176.994 214.179L125.163 198.027L169.241 179.621L221.042 195.804Z" fill="#FDDBBE"/>
<path d="M169.303 211.516C169.341 217.738 169.972 223.943 171.187 230.045C172.577 237.276 174.519 244.389 176.994 251.324" stroke="#F8B87F" stroke-linejoin="round"/>
<path d="M155.65 207.535C156.087 216.273 157.046 224.977 158.523 233.6C161.612 248.331 169.303 273.069 169.303 273.069" stroke="#F8B87F" stroke-linejoin="round"/>
<path d="M141.472 203.121C141.924 213.684 143.487 224.17 146.136 234.405C149.936 250.526 155.65 268.593 155.65 268.593" stroke="#F8B87F" stroke-linejoin="round"/>
<path d="M127.943 199.16C128.235 212 129.934 224.769 133.009 237.239C135.219 246.417 138.195 255.394 141.905 264.076" stroke="#F8B87F" stroke-linejoin="round"/>
<path d="M125.533 244.062C125.967 247.182 126.576 250.276 127.356 253.327C128.134 255.955 129.168 258.5 130.445 260.925" stroke="#F8B87F" stroke-linejoin="round"/>
<path d="M169.303 211.514C169.303 211.514 170.662 209.692 177.519 209.322C180.637 208.837 183.827 209.156 186.786 210.248" stroke="#FCD2AD" stroke-linejoin="round"/>
<path d="M155.65 207.529C162.577 204.993 169.896 203.697 177.273 203.7C184.664 203.379 192.07 203.762 199.389 204.842" stroke="#FCD2AD" stroke-linejoin="round"/>
<path d="M141.472 203.121C152.983 199.535 164.941 197.581 176.995 197.315C188.545 197.143 200.089 197.97 211.498 199.786" stroke="#FCD2AD" stroke-linejoin="round"/>
<path d="M125.719 198.578C140.608 194.654 155.829 192.121 171.187 191.011C182.997 190.485 194.83 190.847 206.586 192.092" stroke="#FCD2AD" stroke-linejoin="round"/>
<path d="M150.461 187.769C156.538 185.697 162.886 184.521 169.303 184.28C174.902 183.967 180.518 184.289 186.045 185.237" stroke="#FCD2AD" stroke-linejoin="round"/>
<path d="M176.995 251.259C180.614 244.414 183.067 237.014 184.253 229.363C187.095 214.631 186.663 210.246 186.663 210.246" stroke="#F49A56" stroke-linejoin="round"/>
<path d="M181.875 273.064C181.875 273.064 188.053 264.17 194.231 238.259C197.18 227.349 198.869 216.138 199.265 204.844" stroke="#F49A56" stroke-linejoin="round"/>
<path d="M197.721 266.824C202.441 256.484 205.915 245.619 208.069 234.459C210.654 223.087 211.806 211.436 211.497 199.777" stroke="#F49A56" stroke-linejoin="round"/>
<path d="M212.764 260.935C214.628 256.656 216.116 252.223 217.212 247.686C219.251 239.132 220.733 226.871 220.733 226.871" stroke="#F49A56" stroke-linejoin="round"/>
<path d="M125.163 198.027L176.994 214.179V275.482L125.163 259.299V198.027Z" stroke="#966C44" stroke-linejoin="round"/>
<path d="M221.042 195.797L176.995 214.172V275.475L221.042 257.099V195.797Z" stroke="#966C44" stroke-linejoin="round"/>
<path d="M221.042 195.804L176.994 214.179L125.163 198.027L169.241 179.621L221.042 195.804Z" stroke="#966C44" stroke-linejoin="round"/>
<path d="M176.995 214.168L228.796 230.351V291.653L176.995 275.47V214.168Z" fill="#FAC393"/>
<path d="M272.874 211.984L228.795 230.36V291.662L272.874 273.256V211.984Z" fill="#F6A865"/>
<path d="M272.874 211.98L228.796 230.355L176.995 214.172L221.073 195.797L272.874 211.98Z" fill="#FDDBBE"/>
<path d="M221.104 227.668C221.143 233.89 221.774 240.095 222.988 246.198C224.4 253.423 226.341 260.535 228.795 267.476" stroke="#F8B87F" stroke-linejoin="round"/>
<path d="M207.451 223.688C207.888 232.425 208.847 241.129 210.324 249.753C213.413 264.515 221.104 289.252 221.104 289.252" stroke="#F8B87F" stroke-linejoin="round"/>
<path d="M193.304 219.273C193.751 229.835 195.304 240.32 197.937 250.558C201.737 266.71 207.451 284.776 207.451 284.776" stroke="#F8B87F" stroke-linejoin="round"/>
<path d="M179.744 215.316C180.077 228.163 181.827 240.933 184.964 253.395C187.157 262.575 190.123 271.552 193.829 280.232" stroke="#F8B87F" stroke-linejoin="round"/>
<path d="M177.334 260.254C177.773 263.375 178.391 266.469 179.188 269.519C179.954 272.141 180.989 274.676 182.277 277.085" stroke="#F8B87F" stroke-linejoin="round"/>
<path d="M221.104 227.667C221.104 227.667 222.494 225.876 229.32 225.474C232.438 224.989 235.627 225.308 238.587 226.401" stroke="#FCD2AD" stroke-linejoin="round"/>
<path d="M207.451 223.684C214.384 221.171 221.699 219.876 229.074 219.854C236.465 219.551 243.869 219.934 251.19 220.997" stroke="#FCD2AD" stroke-linejoin="round"/>
<path d="M193.304 219.271C204.809 215.708 216.754 213.764 228.795 213.496C240.357 213.305 251.913 214.131 263.329 215.966" stroke="#FCD2AD" stroke-linejoin="round"/>
<path d="M177.519 214.73C192.41 210.81 207.631 208.277 222.988 207.163C234.764 206.619 246.565 206.939 258.294 208.121" stroke="#FCD2AD" stroke-linejoin="round"/>
<path d="M202.262 203.918C208.34 201.852 214.688 200.687 221.104 200.459C226.702 200.13 232.319 200.441 237.846 201.386" stroke="#FCD2AD" stroke-linejoin="round"/>
<path d="M228.795 267.446C232.414 260.587 234.877 253.179 236.085 245.519C238.927 230.788 238.495 226.402 238.495 226.402" stroke="#F49A56" stroke-linejoin="round"/>
<path d="M233.769 289.247C233.769 289.247 239.792 280.322 246.124 254.411C249.078 243.504 250.757 232.29 251.128 220.996" stroke="#F49A56" stroke-linejoin="round"/>
<path d="M249.522 282.986C254.25 272.7 257.735 261.887 259.901 250.776C262.487 239.414 263.638 227.773 263.329 216.125" stroke="#F49A56" stroke-linejoin="round"/>
<path d="M264.658 277.079C266.507 272.793 267.965 268.348 269.013 263.799C271.052 255.245 272.534 242.953 272.534 242.953" stroke="#F49A56" stroke-linejoin="round"/>
<path d="M176.995 214.168L228.796 230.351V291.653L176.995 275.47V214.168Z" stroke="#966C44" stroke-linejoin="round"/>
<path d="M272.874 211.984L228.795 230.36V291.662L272.874 273.256V211.984Z" stroke="#966C44" stroke-linejoin="round"/>
<path d="M272.874 211.98L228.796 230.355L176.995 214.172L221.073 195.797L272.874 211.98Z" stroke="#966C44" stroke-linejoin="round"/>
<path d="M81.4854 216.27L133.317 232.421V293.724L81.4854 277.541V216.27Z" fill="#FAC393"/>
<path d="M177.365 214.051L133.317 232.426V293.729L177.365 275.322V214.051Z" fill="#F6A865"/>
<path d="M177.365 214.054L133.317 232.429L81.4854 216.277L125.564 197.871L177.365 214.054Z" fill="#FDDBBE"/>
<path d="M125.626 229.742C125.665 235.965 126.296 242.169 127.51 248.272C128.9 255.502 130.842 262.616 133.317 269.55" stroke="#F8B87F" stroke-linejoin="round"/>
<path d="M111.973 225.789C112.41 234.517 113.369 243.21 114.846 251.823C117.934 266.585 125.626 291.322 125.626 291.322" stroke="#F8B87F" stroke-linejoin="round"/>
<path d="M97.7949 221.371C98.2463 231.924 99.8097 242.4 102.459 252.625C106.259 268.776 111.973 286.843 111.973 286.843" stroke="#F8B87F" stroke-linejoin="round"/>
<path d="M84.2655 217.391C84.5158 230.226 86.1731 242.995 89.2078 255.469C91.4184 264.648 94.3942 273.625 98.1038 282.306" stroke="#F8B87F" stroke-linejoin="round"/>
<path d="M81.856 262.312C82.293 265.432 82.9014 268.525 83.6785 271.577C84.4528 274.196 85.4876 276.731 86.7674 279.144" stroke="#F8B87F" stroke-linejoin="round"/>
<path d="M125.626 229.745C125.626 229.745 126.985 227.954 133.842 227.552C136.96 227.067 140.15 227.386 143.109 228.479" stroke="#FCD2AD" stroke-linejoin="round"/>
<path d="M111.973 225.779C118.9 223.243 126.219 221.947 133.595 221.95C140.987 221.629 148.393 222.012 155.712 223.092" stroke="#FCD2AD" stroke-linejoin="round"/>
<path d="M97.7949 221.371C109.306 217.785 121.263 215.831 133.317 215.565C144.868 215.393 156.412 216.22 167.821 218.036" stroke="#FCD2AD" stroke-linejoin="round"/>
<path d="M82.0414 216.794C96.9273 212.854 112.15 210.321 127.51 209.228C139.286 208.667 151.086 208.977 162.816 210.155" stroke="#FCD2AD" stroke-linejoin="round"/>
<path d="M106.784 205.993C112.865 203.94 119.211 202.775 125.626 202.534C131.224 202.224 136.838 202.535 142.368 203.461" stroke="#FCD2AD" stroke-linejoin="round"/>
<path d="M133.317 269.521C136.923 262.692 139.376 255.315 140.576 247.686C143.418 232.924 142.986 228.539 142.986 228.539" stroke="#F49A56" stroke-linejoin="round"/>
<path d="M138.26 291.32C138.26 291.32 144.437 282.395 150.615 256.484C153.596 245.548 155.306 234.305 155.712 222.977" stroke="#F49A56" stroke-linejoin="round"/>
<path d="M154.075 285.043C158.801 274.705 162.275 263.84 164.423 252.678C167.008 241.316 168.16 229.675 167.851 218.027" stroke="#F49A56" stroke-linejoin="round"/>
<path d="M169.18 279.153C171.012 274.86 172.469 270.417 173.535 265.873C175.574 257.319 177.056 245.027 177.056 245.027" stroke="#F49A56" stroke-linejoin="round"/>
<path d="M81.4854 216.27L133.317 232.421V293.724L81.4854 277.541V216.27Z" stroke="#966C44" stroke-linejoin="round"/>
<path d="M177.365 214.051L133.317 232.426V293.729L177.365 275.322V214.051Z" stroke="#966C44" stroke-linejoin="round"/>
<path d="M177.365 214.054L133.317 232.429L81.4854 216.277L125.564 197.871L177.365 214.054Z" stroke="#966C44" stroke-linejoin="round"/>
<path d="M117.873 102.098L169.674 118.249V179.552L117.873 163.369V102.098Z" fill="#FAC393"/>
<path d="M213.752 99.8789L169.674 118.254V179.557L213.752 161.181V99.8789Z" fill="#F6A865"/>
<path d="M213.753 99.8783L169.674 118.254L117.873 102.102L161.951 83.7266L213.753 99.8783Z" fill="#FDDBBE"/>
<path d="M162.013 115.598C162.032 121.82 162.652 128.025 163.867 134.127C165.276 141.343 167.217 148.445 169.674 155.375" stroke="#F8B87F" stroke-linejoin="round"/>
<path d="M148.329 111.617C148.766 120.355 149.725 129.059 151.202 137.682C154.291 152.413 162.013 177.182 162.013 177.182" stroke="#F8B87F" stroke-linejoin="round"/>
<path d="M134.182 107.199C134.631 117.76 136.184 128.246 138.815 138.484C142.615 154.604 148.329 172.702 148.329 172.702" stroke="#F8B87F" stroke-linejoin="round"/>
<path d="M120.622 103.246C120.915 116.088 122.624 128.858 125.719 141.325C127.912 150.504 130.878 159.482 134.584 168.162" stroke="#F8B87F" stroke-linejoin="round"/>
<path d="M118.213 148.18C118.648 151.302 119.267 154.395 120.066 157.445C120.828 160.077 121.864 162.624 123.155 165.042" stroke="#F8B87F" stroke-linejoin="round"/>
<path d="M162.013 115.596C162.013 115.596 163.372 113.805 170.199 113.404C173.316 112.919 176.506 113.238 179.465 114.33" stroke="#FCD2AD" stroke-linejoin="round"/>
<path d="M148.329 111.612C155.262 109.1 162.577 107.804 169.952 107.783C177.343 107.46 184.749 107.843 192.068 108.925" stroke="#FCD2AD" stroke-linejoin="round"/>
<path d="M134.182 107.192C145.687 103.625 157.632 101.671 169.674 101.386C181.235 101.213 192.789 102.04 204.208 103.856" stroke="#FCD2AD" stroke-linejoin="round"/>
<path d="M118.398 102.526C133.288 98.6064 148.509 96.0735 163.867 94.9601C175.643 94.4161 187.443 94.7361 199.173 95.9175" stroke="#FCD2AD" stroke-linejoin="round"/>
<path d="M143.14 91.848C149.218 89.7817 155.566 88.6164 161.982 88.3891C167.58 88.0594 173.197 88.3702 178.724 89.3156" stroke="#FCD2AD" stroke-linejoin="round"/>
<path d="M169.674 155.34C173.3 148.485 175.763 141.075 176.964 133.413C179.805 118.682 179.373 114.297 179.373 114.297" stroke="#F49A56" stroke-linejoin="round"/>
<path d="M174.647 177.146C174.647 177.146 180.67 168.252 187.003 142.341C189.956 131.433 191.636 120.22 192.007 108.926" stroke="#F49A56" stroke-linejoin="round"/>
<path d="M190.4 170.906C195.14 160.571 198.625 149.705 200.779 138.541C203.365 127.169 204.516 115.518 204.208 103.859" stroke="#F49A56" stroke-linejoin="round"/>
<path d="M205.536 165.008C207.388 160.713 208.846 156.257 209.891 151.698C211.93 143.174 213.413 130.883 213.413 130.883" stroke="#F49A56" stroke-linejoin="round"/>
<path d="M117.873 102.098L169.674 118.249V179.552L117.873 163.369V102.098Z" stroke="#966C44" stroke-linejoin="round"/>
<path d="M213.752 99.8789L169.674 118.254V179.557L213.752 161.181V99.8789Z" stroke="#966C44" stroke-linejoin="round"/>
<path d="M213.753 99.8783L169.674 118.254L117.873 102.102L161.951 83.7266L213.753 99.8783Z" stroke="#966C44" stroke-linejoin="round"/>
<path d="M73.7322 120.41L125.564 136.593V197.864L73.7322 181.682V120.41Z" fill="#FAC393"/>
<path d="M169.612 118.191L125.564 136.598V197.869L169.612 179.494V118.191Z" fill="#F6A865"/>
<path d="M169.612 118.191L125.564 136.597L73.7322 120.414L117.811 102.039L169.612 118.191Z" fill="#FDDBBE"/>
<path d="M117.873 133.91C117.913 140.132 118.544 146.337 119.757 152.44C121.156 159.618 123.097 166.679 125.564 173.564" stroke="#F8B87F" stroke-linejoin="round"/>
<path d="M104.22 129.93C104.656 138.668 105.616 147.372 107.092 155.995C110.181 170.726 117.873 195.494 117.873 195.494" stroke="#F8B87F" stroke-linejoin="round"/>
<path d="M90.0417 125.516C90.4937 136.079 92.057 146.564 94.7059 156.8C98.5053 172.921 104.22 191.018 104.22 191.018" stroke="#F8B87F" stroke-linejoin="round"/>
<path d="M76.5123 121.559C76.803 134.398 78.5018 147.168 81.5781 159.637C83.7887 168.816 86.7645 177.793 90.4741 186.474" stroke="#F8B87F" stroke-linejoin="round"/>
<path d="M74.1028 166.457C74.5368 169.577 75.1452 172.67 75.9253 175.722C76.6961 178.352 77.731 180.897 79.0142 183.319" stroke="#F8B87F" stroke-linejoin="round"/>
<path d="M117.873 133.909C117.873 133.909 119.232 132.118 126.089 131.716C129.207 131.231 132.396 131.55 135.356 132.643" stroke="#FCD2AD" stroke-linejoin="round"/>
<path d="M104.22 129.921C111.151 127.404 118.467 126.109 125.842 126.092C133.213 125.775 140.598 126.158 147.897 127.235" stroke="#FCD2AD" stroke-linejoin="round"/>
<path d="M90.0417 125.516C101.557 121.948 113.512 119.994 125.564 119.71C137.115 119.538 148.659 120.365 160.067 122.18" stroke="#FCD2AD" stroke-linejoin="round"/>
<path d="M74.2882 121.065C89.1776 117.141 104.399 114.608 119.757 113.498C131.533 112.956 143.334 113.276 155.063 114.456" stroke="#FCD2AD" stroke-linejoin="round"/>
<path d="M99.0304 110.161C105.108 108.09 111.456 106.924 117.873 106.702C123.47 106.372 129.088 106.683 134.615 107.628" stroke="#FCD2AD" stroke-linejoin="round"/>
<path d="M125.564 173.559C129.183 166.714 131.637 159.314 132.823 151.663C135.696 136.932 135.233 132.547 135.233 132.547" stroke="#F49A56" stroke-linejoin="round"/>
<path d="M130.506 195.489C130.506 195.489 136.684 186.564 142.862 160.654C145.813 149.744 147.503 138.533 147.897 127.238" stroke="#F49A56" stroke-linejoin="round"/>
<path d="M146.291 189.219C151.011 178.878 154.485 168.014 156.638 156.853C159.224 145.481 160.376 133.83 160.067 122.172" stroke="#F49A56" stroke-linejoin="round"/>
<path d="M161.426 183.321C163.259 179.028 164.716 174.585 165.782 170.041C167.82 161.487 169.303 149.195 169.303 149.195" stroke="#F49A56" stroke-linejoin="round"/>
<path d="M73.7322 120.41L125.564 136.593V197.864L73.7322 181.682V120.41Z" stroke="#966C44" stroke-linejoin="round"/>
<path d="M169.612 118.191L125.564 136.598V197.869L169.612 179.494V118.191Z" stroke="#966C44" stroke-linejoin="round"/>
<path d="M169.612 118.191L125.564 136.597L73.7322 120.414L117.811 102.039L169.612 118.191Z" stroke="#966C44" stroke-linejoin="round"/>
<path d="M133.008 232.578L184.809 248.73V310.032L133.008 293.85V232.578Z" fill="#FAC393"/>
<path d="M228.888 230.359L184.809 248.735V310.037L228.888 291.631V230.359Z" fill="#F6A865"/>
<path d="M228.888 230.351L184.809 248.726L133.008 232.574L177.087 214.168L228.888 230.351Z" fill="#FDDBBE"/>
<path d="M177.149 246.039C177.166 252.261 177.787 258.467 179.002 264.569C180.461 271.789 182.454 278.891 184.964 285.816" stroke="#F8B87F" stroke-linejoin="round"/>
<path d="M163.341 242.098C163.796 250.836 164.766 259.539 166.245 268.163C169.334 282.894 177.025 307.631 177.025 307.631" stroke="#F8B87F" stroke-linejoin="round"/>
<path d="M149.318 237.684C149.806 248.239 151.401 258.714 154.075 268.937C157.781 285.089 163.341 303.279 163.341 303.279" stroke="#F8B87F" stroke-linejoin="round"/>
<path d="M135.758 233.688C136.05 246.529 137.759 259.299 140.854 271.766C143.051 280.955 146.017 289.942 149.719 298.634" stroke="#F8B87F" stroke-linejoin="round"/>
<path d="M133.348 278.566C133.804 281.685 134.422 284.778 135.202 287.831C135.964 290.464 136.999 293.011 138.291 295.428" stroke="#F8B87F" stroke-linejoin="round"/>
<path d="M177.149 246.043C177.149 246.043 178.508 244.252 185.365 243.851C188.483 243.382 191.669 243.701 194.632 244.777" stroke="#FCD2AD" stroke-linejoin="round"/>
<path d="M163.341 242.094C170.279 239.616 177.597 238.372 184.964 238.419C192.366 238.097 199.782 238.48 207.111 239.561" stroke="#FCD2AD" stroke-linejoin="round"/>
<path d="M149.318 237.672C160.868 234.074 172.868 232.12 184.964 231.866C196.525 231.694 208.079 232.52 219.498 234.337" stroke="#FCD2AD" stroke-linejoin="round"/>
<path d="M133.533 233.142C148.434 229.22 163.665 226.687 179.033 225.576C190.808 225.015 202.609 225.325 214.339 226.502" stroke="#FCD2AD" stroke-linejoin="round"/>
<path d="M158.307 222.293C164.388 220.24 170.734 219.075 177.149 218.834C182.736 218.525 188.341 218.836 193.86 219.761" stroke="#FCD2AD" stroke-linejoin="round"/>
<path d="M184.964 285.825C188.596 278.983 191.06 271.583 192.254 263.929C195.095 249.198 194.663 244.812 194.663 244.812" stroke="#F49A56" stroke-linejoin="round"/>
<path d="M189.782 307.627C189.782 307.627 195.806 298.701 202.138 272.791C205.088 261.892 206.778 250.69 207.173 239.406" stroke="#F49A56" stroke-linejoin="round"/>
<path d="M205.536 301.356C210.258 291.03 213.722 280.174 215.853 269.021C218.438 257.649 219.59 245.998 219.282 234.34" stroke="#F49A56" stroke-linejoin="round"/>
<path d="M220.703 295.496C222.529 291.194 223.976 286.74 225.027 282.186C227.097 273.631 228.548 261.34 228.548 261.34" stroke="#F49A56" stroke-linejoin="round"/>
<path d="M133.008 232.578L184.809 248.73V310.032L133.008 293.85V232.578Z" stroke="#966C44" stroke-linejoin="round"/>
<path d="M228.888 230.359L184.809 248.735V310.037L228.888 291.631V230.359Z" stroke="#966C44" stroke-linejoin="round"/>
<path d="M228.888 230.351L184.809 248.726L133.008 232.574L177.087 214.168L228.888 230.351Z" stroke="#966C44" stroke-linejoin="round"/>
<path d="M169.272 118.348L221.073 134.499V195.802L169.272 179.65V118.348Z" fill="#FAC393"/>
<path d="M265.152 116.117L221.073 134.492V195.795L265.152 177.42V116.117Z" fill="#F6A865"/>
<path d="M265.152 116.12L221.073 134.495L169.272 118.344L213.32 99.9375L265.152 116.12Z" fill="#FDDBBE"/>
<path d="M213.382 131.836C213.422 138.058 214.053 144.263 215.266 150.366C216.675 157.581 218.616 164.683 221.073 171.613" stroke="#F8B87F" stroke-linejoin="round"/>
<path d="M199.729 127.855C200.165 136.593 201.125 145.297 202.602 153.921C205.69 168.652 213.382 193.42 213.382 193.42" stroke="#F8B87F" stroke-linejoin="round"/>
<path d="M185.582 123.441C186.031 134.003 187.583 144.488 190.215 154.726C194.014 170.847 199.729 188.944 199.729 188.944" stroke="#F8B87F" stroke-linejoin="round"/>
<path d="M172.021 119.484C172.314 132.326 174.023 145.096 177.118 157.563C179.311 166.743 182.277 175.72 185.983 184.4" stroke="#F8B87F" stroke-linejoin="round"/>
<path d="M169.519 164.297C169.955 167.419 170.574 170.512 171.373 173.562C172.135 176.195 173.17 178.741 174.462 181.159" stroke="#F8B87F" stroke-linejoin="round"/>
<path d="M213.382 131.835C213.382 131.835 214.772 130.043 221.598 129.642C224.716 129.157 227.905 129.476 230.865 130.569" stroke="#FCD2AD" stroke-linejoin="round"/>
<path d="M199.729 127.862C206.657 125.331 213.975 124.035 221.351 124.033C228.743 123.71 236.149 124.093 243.468 125.175" stroke="#FCD2AD" stroke-linejoin="round"/>
<path d="M185.582 123.438C197.087 119.871 209.031 117.917 221.073 117.632C232.634 117.459 244.188 118.286 255.607 120.102" stroke="#FCD2AD" stroke-linejoin="round"/>
<path d="M169.797 118.898C184.687 114.974 199.908 112.441 215.266 111.331C227.042 110.769 238.844 111.089 250.572 112.289" stroke="#FCD2AD" stroke-linejoin="round"/>
<path d="M194.539 108.098C200.618 106.032 206.966 104.866 213.382 104.639C218.979 104.309 224.596 104.62 230.123 105.566" stroke="#FCD2AD" stroke-linejoin="round"/>
<path d="M221.073 171.583C224.696 164.737 227.159 157.338 228.363 149.687C231.205 134.956 230.741 130.57 230.741 130.57" stroke="#F49A56" stroke-linejoin="round"/>
<path d="M226.046 193.415C226.046 193.415 232.07 184.49 238.402 158.579C241.373 147.674 243.063 136.46 243.437 125.164" stroke="#F49A56" stroke-linejoin="round"/>
<path d="M241.8 187.156C246.54 176.821 250.024 165.955 252.179 154.791C254.764 143.419 255.916 131.768 255.607 120.109" stroke="#F49A56" stroke-linejoin="round"/>
<path d="M256.935 181.258C258.771 176.956 260.228 172.503 261.291 167.948C263.329 159.424 264.812 147.133 264.812 147.133" stroke="#F49A56" stroke-linejoin="round"/>
<path d="M169.272 118.348L221.073 134.499V195.802L169.272 179.65V118.348Z" stroke="#966C44" stroke-linejoin="round"/>
<path d="M265.152 116.117L221.073 134.492V195.795L265.152 177.42V116.117Z" stroke="#966C44" stroke-linejoin="round"/>
<path d="M265.152 116.12L221.073 134.495L169.272 118.344L213.32 99.9375L265.152 116.12Z" stroke="#966C44" stroke-linejoin="round"/>
<path d="M117.873 40.9258L169.674 57.1084V118.38L117.873 102.228V40.9258Z" fill="#FAC393"/>
<path d="M213.752 38.7305L169.674 57.1058V118.377L213.752 100.002V38.7305Z" fill="#F6A865"/>
<path d="M213.753 38.7334L169.674 57.1087L117.873 40.9261L161.951 22.5508L213.753 38.7334Z" fill="#FDDBBE"/>
<path d="M162.013 54.4219C162.03 60.6438 162.651 66.8494 163.867 72.9516C165.276 80.1674 167.217 87.2692 169.674 94.199" stroke="#F8B87F" stroke-linejoin="round"/>
<path d="M148.329 50.4297C148.766 59.1676 149.725 67.8715 151.202 76.4948C154.291 91.2568 162.013 115.994 162.013 115.994" stroke="#F8B87F" stroke-linejoin="round"/>
<path d="M134.182 46.0156C134.631 56.5768 136.184 67.062 138.815 77.3C142.615 93.4517 148.329 111.518 148.329 111.518" stroke="#F8B87F" stroke-linejoin="round"/>
<path d="M120.622 42.0703C120.915 54.912 122.624 67.6821 125.719 80.1489C127.912 89.3285 130.878 98.3062 134.584 106.986" stroke="#F8B87F" stroke-linejoin="round"/>
<path d="M118.213 87.0938C118.651 90.2152 119.269 93.3087 120.066 96.3586C120.832 98.9804 121.867 101.516 123.155 103.925" stroke="#F8B87F" stroke-linejoin="round"/>
<path d="M162.013 54.4246C162.013 54.4246 163.372 52.6333 170.199 52.2319C173.316 51.7471 176.506 52.066 179.465 53.1584" stroke="#FCD2AD" stroke-linejoin="round"/>
<path d="M148.329 50.4416C155.262 47.9293 162.577 46.6337 169.952 46.6122C177.343 46.3093 184.747 46.6918 192.068 47.7548" stroke="#FCD2AD" stroke-linejoin="round"/>
<path d="M134.182 46.0156C145.687 42.4493 157.632 40.4953 169.674 40.2096C181.236 40.0372 192.791 40.8742 204.208 42.7111" stroke="#FCD2AD" stroke-linejoin="round"/>
<path d="M118.398 41.4756C133.288 37.5556 148.509 35.0227 163.867 33.9093C175.643 33.3653 187.443 33.6853 199.173 34.8667" stroke="#FCD2AD" stroke-linejoin="round"/>
<path d="M143.14 30.6722C149.218 28.6059 155.566 27.4406 161.982 27.2133C167.58 26.8836 173.197 27.1944 178.724 28.1398" stroke="#FCD2AD" stroke-linejoin="round"/>
<path d="M169.674 94.1687C173.297 87.3228 175.76 79.9239 176.964 72.2727C179.805 57.5416 179.373 53.1562 179.373 53.1562" stroke="#F49A56" stroke-linejoin="round"/>
<path d="M174.647 116.001C174.647 116.001 180.67 107.076 187.003 81.1653C189.956 70.2576 191.636 59.0443 192.007 47.75" stroke="#F49A56" stroke-linejoin="round"/>
<path d="M190.4 109.727C195.14 99.3915 198.625 88.5256 200.779 77.3615C203.365 65.9998 204.517 54.359 204.208 42.7109" stroke="#F49A56" stroke-linejoin="round"/>
<path d="M205.536 103.833C207.386 99.5465 208.843 95.1018 209.891 90.553C211.93 81.9984 213.413 69.707 213.413 69.707" stroke="#F49A56" stroke-linejoin="round"/>
<path d="M117.873 40.9258L169.674 57.1084V118.38L117.873 102.228V40.9258Z" stroke="#966C44" stroke-linejoin="round"/>
<path d="M213.752 38.7305L169.674 57.1058V118.377L213.752 100.002V38.7305Z" stroke="#966C44" stroke-linejoin="round"/>
<path d="M213.753 38.7334L169.674 57.1087L117.873 40.9261L161.951 22.5508L213.753 38.7334Z" stroke="#966C44" stroke-linejoin="round"/>
<path d="M169.272 57.1602L221.073 73.3428V134.614L169.272 118.463V57.1602Z" fill="#FAC393"/>
<path d="M265.152 54.9414L221.073 73.3476V134.65L265.152 116.244V54.9414Z" fill="#F6A865"/>
<path d="M265.152 54.9408L221.073 73.347L169.272 57.1644L213.32 38.7891L265.152 54.9408Z" fill="#FDDBBE"/>
<path d="M213.382 70.6602C213.421 76.8825 214.052 83.087 215.266 89.1899C216.678 96.4152 218.619 103.527 221.073 110.468" stroke="#F8B87F" stroke-linejoin="round"/>
<path d="M199.729 66.6797C200.165 75.4176 201.125 84.1215 202.602 92.7448C205.69 107.507 213.382 132.244 213.382 132.244" stroke="#F8B87F" stroke-linejoin="round"/>
<path d="M185.582 62.3867C186.031 72.9479 187.583 83.4331 190.215 93.6711C194.014 109.823 199.729 127.889 199.729 127.889" stroke="#F8B87F" stroke-linejoin="round"/>
<path d="M172.021 58.3086C172.316 71.1399 174.025 83.8996 177.118 96.3563C179.311 105.536 182.277 114.514 185.983 123.193" stroke="#F8B87F" stroke-linejoin="round"/>
<path d="M169.519 103.246C169.957 106.368 170.576 109.461 171.373 112.511C172.139 115.133 173.174 117.668 174.462 120.077" stroke="#F8B87F" stroke-linejoin="round"/>
<path d="M213.382 70.6589C213.382 70.6589 214.772 68.8677 221.598 68.4662C224.716 67.9815 227.905 68.3004 230.865 69.3927" stroke="#FCD2AD" stroke-linejoin="round"/>
<path d="M199.729 66.6745C206.662 64.1621 213.977 62.8666 221.351 62.845C228.743 62.5226 236.149 62.9052 243.468 63.9877" stroke="#FCD2AD" stroke-linejoin="round"/>
<path d="M185.582 62.3867C197.087 58.8203 209.031 56.8664 221.073 56.5807C232.635 56.4083 244.191 57.2453 255.607 59.0822" stroke="#FCD2AD" stroke-linejoin="round"/>
<path d="M169.797 57.7234C184.683 53.7583 199.904 51.184 215.266 50.0335C227.042 49.4907 238.842 49.8107 250.572 50.9909" stroke="#FCD2AD" stroke-linejoin="round"/>
<path d="M194.539 46.9496C200.618 44.8832 206.966 43.7179 213.382 43.4907C218.979 43.1609 224.596 43.4718 230.123 44.4172" stroke="#FCD2AD" stroke-linejoin="round"/>
<path d="M221.073 110.438C224.692 103.579 227.154 96.1708 228.363 88.511C231.205 73.7799 230.741 69.3945 230.741 69.3945" stroke="#F49A56" stroke-linejoin="round"/>
<path d="M226.046 132.239C226.046 132.239 232.07 123.314 238.402 97.4035C241.373 86.4985 243.063 75.2844 243.437 63.9883" stroke="#F49A56" stroke-linejoin="round"/>
<path d="M241.8 125.977C246.54 115.642 250.024 104.776 252.179 93.6115C254.764 82.2498 255.916 70.609 255.607 58.9609" stroke="#F49A56" stroke-linejoin="round"/>
<path d="M256.935 120.071C258.768 115.778 260.225 111.335 261.291 106.791C263.329 98.2367 264.812 85.9453 264.812 85.9453" stroke="#F49A56" stroke-linejoin="round"/>
<path d="M169.272 57.1602L221.073 73.3428V134.614L169.272 118.463V57.1602Z" stroke="#966C44" stroke-linejoin="round"/>
<path d="M265.152 54.9414L221.073 73.3476V134.65L265.152 116.244V54.9414Z" stroke="#966C44" stroke-linejoin="round"/>
<path d="M265.152 54.9408L221.073 73.347L169.272 57.1644L213.32 38.7891L265.152 54.9408Z" stroke="#966C44" stroke-linejoin="round"/>
<path d="M221.073 134.5L272.874 150.683V211.985L221.073 195.803V134.5Z" fill="#FAC393"/>
<path d="M316.953 132.305L272.905 150.68V211.982L316.953 193.576V132.305Z" fill="#F6A865"/>
<path d="M316.953 132.3L272.905 150.675L221.073 134.492L265.152 116.117L316.953 132.3Z" fill="#FDDBBE"/>
<path d="M265.275 147.988C265.315 154.211 265.946 160.415 267.16 166.518C268.55 173.748 270.491 180.862 272.967 187.796" stroke="#F8B87F" stroke-linejoin="round"/>
<path d="M251.53 144.008C251.983 152.746 252.953 161.449 254.433 170.073C257.522 184.835 265.214 209.572 265.214 209.572" stroke="#F8B87F" stroke-linejoin="round"/>
<path d="M237.475 139.59C237.926 150.143 239.49 160.618 242.139 170.843C245.939 186.995 251.622 205.062 251.622 205.062" stroke="#F8B87F" stroke-linejoin="round"/>
<path d="M223.853 135.637C224.144 148.477 225.843 161.246 228.919 173.715C231.129 182.89 234.095 191.866 237.784 200.552" stroke="#F8B87F" stroke-linejoin="round"/>
<path d="M221.444 180.57C221.881 183.69 222.489 186.783 223.266 189.835C224.04 192.454 225.075 194.989 226.355 197.401" stroke="#F8B87F" stroke-linejoin="round"/>
<path d="M265.275 147.987C265.275 147.987 266.635 146.196 273.492 145.794C276.609 145.31 279.799 145.628 282.759 146.721" stroke="#FCD2AD" stroke-linejoin="round"/>
<path d="M251.53 144.007C258.463 141.498 265.779 140.213 273.152 140.209C280.553 139.889 287.968 140.261 295.3 141.32" stroke="#FCD2AD" stroke-linejoin="round"/>
<path d="M237.475 139.598C248.986 136.013 260.944 134.058 272.998 133.792C284.549 133.602 296.094 134.429 307.501 136.263" stroke="#FCD2AD" stroke-linejoin="round"/>
<path d="M221.629 135.056C236.517 131.134 251.74 128.611 267.098 127.521C278.873 126.96 290.674 127.27 302.404 128.448" stroke="#FCD2AD" stroke-linejoin="round"/>
<path d="M246.371 124.154C252.448 122.083 258.797 120.917 265.214 120.695C270.801 120.363 276.408 120.674 281.925 121.621" stroke="#FCD2AD" stroke-linejoin="round"/>
<path d="M272.905 187.766C276.517 180.918 278.97 173.519 280.164 165.87C283.006 151.139 282.573 146.723 282.573 146.723" stroke="#F49A56" stroke-linejoin="round"/>
<path d="M277.847 209.568C277.847 209.568 283.871 200.642 290.203 174.732C293.154 163.822 294.844 152.611 295.238 141.316" stroke="#F49A56" stroke-linejoin="round"/>
<path d="M293.601 203.301C298.347 192.968 301.832 182.102 303.98 170.936C306.565 159.574 307.717 147.933 307.408 136.285" stroke="#F49A56" stroke-linejoin="round"/>
<path d="M308.767 197.411C310.6 193.118 312.057 188.675 313.122 184.131C315.161 175.577 316.644 163.285 316.644 163.285" stroke="#F49A56" stroke-linejoin="round"/>
<path d="M221.073 134.5L272.874 150.683V211.985L221.073 195.803V134.5Z" stroke="#966C44" stroke-linejoin="round"/>
<path d="M316.953 132.305L272.905 150.68V211.982L316.953 193.576V132.305Z" stroke="#966C44" stroke-linejoin="round"/>
<path d="M316.953 132.3L272.905 150.675L221.073 134.492L265.152 116.117L316.953 132.3Z" stroke="#966C44" stroke-linejoin="round"/>
<path d="M176.995 152.996L228.796 169.179V230.481L176.995 214.299V152.996Z" fill="#FAC393"/>
<path d="M272.874 150.801L228.795 169.176V230.479L272.874 212.072V150.801Z" fill="#F6A865"/>
<path d="M272.874 150.804L228.796 169.179L176.995 153.027L221.073 134.621L272.874 150.804Z" fill="#FDDBBE"/>
<path d="M221.104 166.52C221.142 172.742 221.773 178.947 222.988 185.049C224.395 192.276 226.336 199.388 228.795 206.328" stroke="#F8B87F" stroke-linejoin="round"/>
<path d="M207.451 162.539C207.889 171.277 208.848 179.981 210.324 188.604C213.413 203.335 221.104 228.073 221.104 228.073" stroke="#F8B87F" stroke-linejoin="round"/>
<path d="M193.304 158.121C193.753 168.682 195.306 179.167 197.937 189.405C201.737 205.526 207.451 223.593 207.451 223.593" stroke="#F8B87F" stroke-linejoin="round"/>
<path d="M179.744 154.141C180.077 166.997 181.828 179.777 184.964 192.25C187.16 201.419 190.125 210.386 193.829 219.056" stroke="#F8B87F" stroke-linejoin="round"/>
<path d="M177.334 199.078C177.773 202.2 178.391 205.293 179.188 208.343C179.957 210.973 180.992 213.519 182.277 215.94" stroke="#F8B87F" stroke-linejoin="round"/>
<path d="M221.104 166.522C221.104 166.522 222.494 164.7 229.32 164.298C232.441 163.834 235.628 164.163 238.587 165.255" stroke="#FCD2AD" stroke-linejoin="round"/>
<path d="M207.451 162.53C214.379 159.999 221.698 158.703 229.074 158.7C236.465 158.378 243.871 158.761 251.19 159.843" stroke="#FCD2AD" stroke-linejoin="round"/>
<path d="M193.304 158.121C204.805 154.538 216.752 152.583 228.795 152.315C240.356 152.143 251.911 152.97 263.329 154.786" stroke="#FCD2AD" stroke-linejoin="round"/>
<path d="M177.519 153.584C192.406 149.648 207.629 147.114 222.988 146.018C234.764 145.456 246.565 145.766 258.294 146.944" stroke="#FCD2AD" stroke-linejoin="round"/>
<path d="M202.262 142.684C208.344 140.636 214.69 139.471 221.104 139.225C226.702 138.916 232.316 139.226 237.846 140.152" stroke="#FCD2AD" stroke-linejoin="round"/>
<path d="M228.795 206.262C232.411 199.413 234.874 192.016 236.085 184.366C238.927 169.635 238.495 165.25 238.495 165.25" stroke="#F49A56" stroke-linejoin="round"/>
<path d="M233.769 228.071C233.769 228.071 239.792 219.146 246.124 193.236C249.078 182.328 250.757 171.115 251.128 159.82" stroke="#F49A56" stroke-linejoin="round"/>
<path d="M249.522 221.84C254.262 211.504 257.747 200.639 259.901 189.474C262.486 178.102 263.638 166.451 263.329 154.793" stroke="#F49A56" stroke-linejoin="round"/>
<path d="M264.658 215.934C266.51 211.638 267.967 207.183 269.013 202.623C271.052 194.069 272.534 181.777 272.534 181.777" stroke="#F49A56" stroke-linejoin="round"/>
<path d="M176.995 152.996L228.796 169.179V230.481L176.995 214.299V152.996Z" stroke="#966C44" stroke-linejoin="round"/>
<path d="M272.874 150.801L228.795 169.176V230.479L272.874 212.072V150.801Z" stroke="#966C44" stroke-linejoin="round"/>
<path d="M272.874 150.804L228.796 169.179L176.995 153.027L221.073 134.621L272.874 150.804Z" stroke="#966C44" stroke-linejoin="round"/>
</svg>
