<svg width="241" height="241" viewBox="0 0 241 241" fill="none" xmlns="http://www.w3.org/2000/svg">
<path d="M204.751 36.8234C188.13 20.2055 166.955 8.88919 143.903 4.30543C120.851 -0.278327 96.9575 2.07632 75.2436 11.0716C53.5297 20.0669 34.9708 35.2989 21.9134 54.8416C8.85606 74.3842 1.88672 97.3598 1.88672 120.863C1.88672 144.367 8.85606 167.342 21.9134 186.885C34.9708 206.427 53.5297 221.659 75.2436 230.655C96.9575 239.65 120.851 242.005 143.903 237.421C166.955 232.837 188.13 221.521 204.751 204.903C215.789 193.867 224.544 180.766 230.518 166.346C236.492 151.926 239.566 136.471 239.566 120.863C239.566 105.255 236.492 89.8 230.518 75.3804C224.544 60.9607 215.789 47.859 204.751 36.8234Z" fill="#E8412C"/>
<path d="M239.566 120.885C239.566 97.3804 232.596 74.4039 219.538 54.8609C206.48 35.3178 187.92 20.0858 166.204 11.0911C144.489 2.09641 120.595 -0.257009 97.542 4.32845C74.4894 8.9139 53.3142 20.2323 36.6941 36.8523C20.0741 53.4723 8.75569 74.6475 4.17024 97.7002C-0.415215 120.753 1.93822 144.648 10.9329 166.363C19.9276 188.078 35.1596 206.638 54.7027 219.696C74.2457 232.754 97.2222 239.724 120.726 239.724C152.245 239.724 182.472 227.204 204.759 204.917C227.046 182.63 239.566 152.403 239.566 120.885Z" stroke="#1D1D1B" stroke-width="2.51566" stroke-linejoin="round"/>
<path d="M131.998 41.2191L120.727 21.6641L109.424 41.2191H116.535V120.882H124.92V41.2191H131.998Z" fill="white"/>
<path d="M131.998 41.2191L120.727 21.6641L109.424 41.2191H116.535V120.882H124.92V41.2191H131.998Z" stroke="#1D1D1B" stroke-width="1.67711" stroke-linejoin="round"/>
<path d="M127.84 120.887C127.84 119.472 127.42 118.089 126.633 116.914C125.847 115.738 124.729 114.823 123.422 114.283C122.114 113.743 120.676 113.604 119.289 113.882C117.902 114.16 116.629 114.844 115.631 115.847C114.634 116.849 113.956 118.125 113.684 119.513C113.412 120.902 113.558 122.339 114.104 123.644C114.65 124.949 115.571 126.062 116.75 126.843C117.93 127.624 119.314 128.038 120.729 128.031C122.618 128.022 124.426 127.266 125.759 125.927C127.092 124.588 127.84 122.776 127.84 120.887Z" fill="#1D1D1B"/>
</svg>
