<svg width="242" height="241" viewBox="0 0 242 241" fill="none" xmlns="http://www.w3.org/2000/svg">
<path d="M205.058 36.8234C188.437 20.2055 167.262 8.88919 144.21 4.30543C121.158 -0.278327 97.2641 2.07632 75.5502 11.0716C53.8363 20.0669 35.2773 35.2989 22.22 54.8416C9.16266 74.3842 2.19336 97.3598 2.19336 120.863C2.19336 144.367 9.16266 167.342 22.22 186.885C35.2773 206.427 53.8363 221.659 75.5502 230.655C97.2641 239.65 121.158 242.005 144.21 237.421C167.262 232.837 188.437 221.521 205.058 204.903C227.333 182.607 239.845 152.38 239.845 120.863C239.845 89.3467 227.333 59.1195 205.058 36.8234Z" fill="#63B9E9"/>
<path d="M239.873 120.885C239.88 97.373 232.914 74.3868 219.856 54.8338C206.798 35.2808 188.235 20.0393 166.514 11.0369C144.794 2.03451 120.891 -0.324364 97.8298 4.2586C74.7684 8.84156 53.5841 20.1605 36.956 36.7839C20.328 53.4072 9.00304 74.5884 4.41358 97.6484C-0.175891 120.708 2.17624 144.612 11.1725 166.335C20.1687 188.058 35.405 206.625 54.9543 219.689C74.5036 232.752 97.4879 239.725 121 239.725C152.522 239.725 182.752 227.205 205.044 204.92C227.336 182.634 239.865 152.407 239.873 120.885Z" stroke="#1D1D1B" stroke-width="2.51566" stroke-linejoin="round"/>
<path d="M121.005 21.6641L109.734 41.2191H116.812V120.915H125.197V41.2191H132.308L121.005 21.6641Z" fill="white"/>
<path d="M121.005 21.6641L109.734 41.2191H116.812V120.915H125.197V41.2191H132.308L121.005 21.6641Z" stroke="#1D1D1B" stroke-width="1.67711" stroke-linejoin="round"/>
<path d="M128.143 120.887C128.143 119.474 127.724 118.092 126.939 116.917C126.154 115.743 125.039 114.827 123.733 114.286C122.428 113.745 120.991 113.604 119.605 113.879C118.219 114.155 116.946 114.836 115.947 115.835C114.948 116.834 114.267 118.107 113.992 119.493C113.716 120.879 113.858 122.315 114.398 123.621C114.939 124.926 115.855 126.042 117.03 126.827C118.205 127.612 119.586 128.031 120.999 128.031C122.894 128.031 124.711 127.278 126.051 125.939C127.391 124.599 128.143 122.781 128.143 120.887Z" fill="#1D1D1B"/>
</svg>
