<svg width="133" height="134" viewBox="0 0 133 134" fill="none" xmlns="http://www.w3.org/2000/svg">
<path d="M118.786 1.17969H14.3514C7.1459 1.17969 1.30469 7.07231 1.30469 14.3412V119.696C1.30469 126.964 7.1459 132.857 14.3514 132.857H118.786C125.992 132.857 131.833 126.964 131.833 119.696V14.3412C131.833 7.07231 125.992 1.17969 118.786 1.17969Z" fill="#E4F0DF"/>
<path d="M118.786 1.17969H14.3514C7.1459 1.17969 1.30469 7.07231 1.30469 14.3412V119.696C1.30469 126.964 7.1459 132.857 14.3514 132.857H118.786C125.992 132.857 131.833 126.964 131.833 119.696V14.3412C131.833 7.07231 125.992 1.17969 118.786 1.17969Z" stroke="#C6E0BC" stroke-width="2.30529" stroke-miterlimit="10"/>
<path d="M43.9123 30.6589C43.9183 32.8591 43.2772 35.0116 42.0699 36.844C40.8626 38.6763 39.1436 40.1061 37.1304 40.9523C35.1171 41.7986 32.9004 42.0231 30.7606 41.5977C28.6207 41.1722 26.6542 40.1158 25.1099 38.5622C23.5655 37.0086 22.5128 35.0277 22.0851 32.8703C21.6574 30.7128 21.8739 28.4758 22.7071 26.4425C23.5403 24.4093 24.9528 22.6711 26.7658 21.4481C28.5788 20.2251 30.7107 19.5723 32.8917 19.5723C35.8092 19.5723 38.6078 20.7393 40.6736 22.8176C42.7395 24.8959 43.9041 27.7157 43.9123 30.6589Z" fill="#1D1D1B"/>
<path d="M43.9123 67.018C43.9123 69.2169 43.266 71.3664 42.0551 73.1947C40.8441 75.0229 39.1229 76.4479 37.1092 77.2894C35.0954 78.1309 32.8795 78.351 30.7417 77.922C28.6039 77.4931 26.6402 76.4342 25.099 74.8794C23.5577 73.3245 22.5081 71.3436 22.0828 69.187C21.6576 67.0304 21.8759 64.795 22.71 62.7635C23.5442 60.732 24.9566 58.9957 26.769 57.7741C28.5813 56.5524 30.7121 55.9004 32.8917 55.9004C35.8146 55.9004 38.6177 57.0717 40.6845 59.1567C42.7513 61.2416 43.9123 64.0694 43.9123 67.018Z" fill="#1D1D1B"/>
<path d="M43.9123 103.338C43.9123 105.537 43.266 107.687 42.0551 109.515C40.8441 111.343 39.1229 112.768 37.1092 113.61C35.0954 114.451 32.8795 114.671 30.7417 114.242C28.6039 113.813 26.6402 112.755 25.099 111.2C23.5577 109.645 22.5081 107.664 22.0828 105.507C21.6576 103.351 21.8759 101.115 22.71 99.0838C23.5442 97.0523 24.9566 95.316 26.769 94.0944C28.5813 92.8727 30.7121 92.2207 32.8917 92.2207C35.8146 92.2207 38.6177 93.392 40.6845 95.477C42.7513 97.5619 43.9123 100.39 43.9123 103.338Z" fill="#1D1D1B"/>
<path d="M111.299 30.6589C111.305 32.8591 110.664 35.0116 109.457 36.844C108.249 38.6763 106.53 40.1061 104.517 40.9523C102.504 41.7986 100.287 42.0231 98.1472 41.5977C96.0074 41.1722 94.0408 40.1158 92.4965 38.5622C90.9522 37.0086 89.8996 35.0277 89.4718 32.8703C89.0441 30.7128 89.2605 28.4758 90.0937 26.4425C90.9269 24.4093 92.3395 22.6711 94.1525 21.4481C95.9654 20.2251 98.0974 19.5723 100.278 19.5723C103.196 19.5723 105.994 20.7393 108.06 22.8176C110.126 24.8959 111.291 27.7157 111.299 30.6589Z" fill="#1D1D1B"/>
<path d="M111.299 67.018C111.299 69.2169 110.653 71.3664 109.442 73.1947C108.231 75.0229 106.51 76.4479 104.496 77.2894C102.482 78.1309 100.266 78.351 98.1284 77.922C95.9907 77.4931 94.027 76.4342 92.4857 74.8794C90.9445 73.3245 89.8948 71.3436 89.4696 69.187C89.0443 67.0304 89.2626 64.795 90.0967 62.7635C90.9308 60.732 92.3434 58.9957 94.1557 57.7741C95.968 56.5524 98.0988 55.9004 100.278 55.9004C103.201 55.9004 106.004 57.0717 108.071 59.1567C110.138 61.2416 111.299 64.0694 111.299 67.018Z" fill="#1D1D1B"/>
<path d="M111.299 103.338C111.299 105.537 110.653 107.687 109.442 109.515C108.231 111.343 106.51 112.768 104.496 113.61C102.482 114.451 100.266 114.671 98.1284 114.242C95.9907 113.813 94.027 112.755 92.4857 111.2C90.9445 109.645 89.8948 107.664 89.4696 105.507C89.0443 103.351 89.2626 101.115 90.0967 99.0838C90.9308 97.0523 92.3434 95.316 94.1557 94.0944C95.968 92.8727 98.0988 92.2207 100.278 92.2207C103.201 92.2207 106.004 93.392 108.071 95.477C110.138 97.5619 111.299 100.39 111.299 103.338Z" fill="#1D1D1B"/>
</svg>
