<svg width="133" height="134" viewBox="0 0 133 134" fill="none" xmlns="http://www.w3.org/2000/svg">
<path d="M118.677 1.17969H14.242C7.03652 1.17969 1.19531 7.07231 1.19531 14.3412V119.696C1.19531 126.964 7.03652 132.857 14.242 132.857H118.677C125.883 132.857 131.724 126.964 131.724 119.696V14.3412C131.724 7.07231 125.883 1.17969 118.677 1.17969Z" fill="#E4F0DF"/>
<path d="M118.677 1.17969H14.242C7.03652 1.17969 1.19531 7.07231 1.19531 14.3412V119.696C1.19531 126.964 7.03652 132.857 14.242 132.857H118.677C125.883 132.857 131.724 126.964 131.724 119.696V14.3412C131.724 7.07231 125.883 1.17969 118.677 1.17969Z" stroke="#C6E0BC" stroke-width="2.30529" stroke-miterlimit="10"/>
<path d="M43.7717 30.659C43.7778 32.8591 43.1366 35.0117 41.9293 36.844C40.7221 38.6764 39.003 40.1062 36.9898 40.9524C34.9766 41.7986 32.7597 42.0232 30.6199 41.5977C28.4801 41.1722 26.5135 40.1158 24.9692 38.5623C23.4249 37.0087 22.3722 35.0277 21.9445 32.8703C21.5168 30.7128 21.7332 28.4759 22.5664 26.4426C23.3996 24.4093 24.8122 22.6711 26.6252 21.4481C28.4381 20.2251 30.5701 19.5723 32.7511 19.5723C34.1969 19.5682 35.6292 19.852 36.9661 20.4073C38.303 20.9627 39.5182 21.7786 40.542 22.8085C41.5657 23.8384 42.378 25.062 42.9322 26.4091C43.4864 27.7562 43.7717 29.2004 43.7717 30.659Z" fill="#1D1D1B"/>
<path d="M111.158 103.338C111.158 105.537 110.512 107.687 109.301 109.515C108.09 111.343 106.369 112.768 104.355 113.61C102.341 114.451 100.126 114.671 97.9878 114.242C95.85 113.813 93.8863 112.755 92.3451 111.2C90.8038 109.645 89.7542 107.664 89.329 105.507C88.9037 103.351 89.1219 101.115 89.9561 99.0838C90.7902 97.0523 92.2028 95.316 94.0151 94.0944C95.8274 92.8727 97.9582 92.2207 100.138 92.2207C103.061 92.2207 105.864 93.392 107.931 95.477C109.997 97.5619 111.158 100.39 111.158 103.338Z" fill="#1D1D1B"/>
</svg>
