<svg width="133" height="134" viewBox="0 0 133 134" fill="none" xmlns="http://www.w3.org/2000/svg">
<path d="M118.654 1.17969H14.2186C7.01308 1.17969 1.17188 7.07231 1.17188 14.3412V119.696C1.17188 126.964 7.01308 132.857 14.2186 132.857H118.654C125.859 132.857 131.7 126.964 131.7 119.696V14.3412C131.7 7.07231 125.859 1.17969 118.654 1.17969Z" fill="#E4F0DF"/>
<path d="M118.65 1.17969H14.2147C7.00918 1.17969 1.16797 7.07231 1.16797 14.3412V119.696C1.16797 126.964 7.00918 132.857 14.2147 132.857H118.65C125.855 132.857 131.696 126.964 131.696 119.696V14.3412C131.696 7.07231 125.855 1.17969 118.65 1.17969Z" stroke="#C6E0BC" stroke-width="2.30529" stroke-miterlimit="10"/>
<path d="M77.4163 67.0181C77.4163 69.2182 76.7691 71.369 75.5568 73.1979C74.3445 75.0269 72.6215 76.4518 70.6059 77.2924C68.5904 78.1329 66.3729 78.3513 64.2343 77.9198C62.0957 77.4883 60.132 76.4263 58.592 74.8684C57.052 73.3105 56.0048 71.3266 55.583 69.168C55.1613 67.0093 55.3839 64.773 56.2227 62.742C57.0616 60.7111 58.4789 58.9769 60.2953 57.759C62.1116 56.5411 64.2454 55.8943 66.4263 55.9004C67.8721 55.9004 69.3037 56.1882 70.6391 56.7473C71.9745 57.3064 73.1873 58.1258 74.2083 59.1586C75.2292 60.1914 76.038 61.4172 76.5885 62.7659C77.139 64.1145 77.4203 65.5595 77.4163 67.0181Z" fill="#1D1D1B"/>
</svg>
