<svg width="133" height="134" viewBox="0 0 133 134" fill="none" xmlns="http://www.w3.org/2000/svg">
<path d="M118.763 1.17969H14.328C7.12246 1.17969 1.28125 7.07231 1.28125 14.3412V119.696C1.28125 126.964 7.12246 132.857 14.328 132.857H118.763C125.969 132.857 131.81 126.964 131.81 119.696V14.3412C131.81 7.07231 125.969 1.17969 118.763 1.17969Z" fill="#E4F0DF"/>
<path d="M118.759 1.17969H14.324C7.11855 1.17969 1.27734 7.07231 1.27734 14.3412V119.696C1.27734 126.964 7.11855 132.857 14.324 132.857H118.759C125.965 132.857 131.806 126.964 131.806 119.696V14.3412C131.806 7.07231 125.965 1.17969 118.759 1.17969Z" stroke="#C6E0BC" stroke-width="2.30529" stroke-miterlimit="10"/>
<path d="M43.8264 30.6589C43.8325 32.8591 43.1913 35.0116 41.984 36.844C40.7767 38.6763 39.0577 40.1061 37.0445 40.9523C35.0313 41.7986 32.8144 42.0231 30.6746 41.5977C28.5348 41.1722 26.5683 40.1158 25.0239 38.5622C23.4796 37.0086 22.4269 35.0277 21.9992 32.8703C21.5714 30.7128 21.7879 28.4758 22.6211 26.4425C23.4543 24.4093 24.8669 22.6711 26.6799 21.4481C28.4929 20.2251 30.6248 19.5723 32.8058 19.5723C35.7233 19.5723 38.5218 20.7393 40.5877 22.8176C42.6536 24.8959 43.8183 27.7157 43.8264 30.6589Z" fill="#1D1D1B"/>
<path d="M43.8264 103.338C43.8264 105.537 43.1801 107.687 41.9691 109.515C40.7581 111.343 39.0369 112.768 37.0232 113.61C35.0094 114.451 32.7936 114.671 30.6558 114.242C28.518 113.813 26.5543 112.755 25.013 111.2C23.4718 109.645 22.4221 107.664 21.9969 105.507C21.5717 103.351 21.79 101.115 22.6241 99.0838C23.4582 97.0523 24.8707 95.316 26.683 94.0944C28.4954 92.8727 30.6261 92.2207 32.8058 92.2207C35.7287 92.2207 38.5318 93.392 40.5986 95.477C42.6653 97.5619 43.8264 100.39 43.8264 103.338Z" fill="#1D1D1B"/>
<path d="M111.362 30.6589C111.368 32.8591 110.726 35.0116 109.519 36.844C108.312 38.6763 106.593 40.1061 104.58 40.9523C102.566 41.7986 100.35 42.0231 98.2098 41.5977C96.07 41.1722 94.1034 40.1158 92.559 38.5622C91.0147 37.0086 89.9621 35.0277 89.5343 32.8703C89.1066 30.7128 89.323 28.4758 90.1563 26.4425C90.9895 24.4093 92.402 22.6711 94.215 21.4481C96.028 20.2251 98.16 19.5723 100.341 19.5723C103.258 19.5723 106.057 20.7393 108.123 22.8176C110.189 24.8959 111.353 27.7157 111.362 30.6589Z" fill="#1D1D1B"/>
<path d="M111.362 103.338C111.362 105.537 110.715 107.687 109.504 109.515C108.293 111.343 106.572 112.768 104.558 113.61C102.545 114.451 100.329 114.671 98.1909 114.242C96.0532 113.813 94.0895 112.755 92.5482 111.2C91.007 109.645 89.9573 107.664 89.5321 105.507C89.1068 103.351 89.3251 101.115 90.1592 99.0838C90.9933 97.0523 92.4059 95.316 94.2182 94.0944C96.0305 92.8727 98.1613 92.2207 100.341 92.2207C103.264 92.2207 106.067 93.392 108.134 95.477C110.201 97.5619 111.362 100.39 111.362 103.338Z" fill="#1D1D1B"/>
<path d="M77.596 67.018C77.596 69.2169 76.9496 71.3664 75.7386 73.1947C74.5277 75.0229 72.8065 76.4479 70.7927 77.2894C68.779 78.1309 66.5631 78.351 64.4253 77.922C62.2875 77.4931 60.3238 76.4342 58.7826 74.8794C57.2413 73.3245 56.1917 71.3436 55.7664 69.187C55.3412 67.0304 55.5595 64.795 56.3936 62.7635C57.2277 60.732 58.6402 58.9957 60.4526 57.7741C62.2649 56.5524 64.3957 55.9004 66.5753 55.9004C69.4982 55.9004 72.3013 57.0717 74.3681 59.1567C76.4349 61.2416 77.596 64.0694 77.596 67.018Z" fill="#1D1D1B"/>
</svg>
