<svg width="33" height="178" viewBox="0 0 33 178" fill="none" xmlns="http://www.w3.org/2000/svg">
<mask id="mask0_12460_20876" style="mask-type:luminance" maskUnits="userSpaceOnUse" x="0" y="6" width="33" height="172">
<path d="M0.588867 6.72656V171.386C0.588867 174.649 7.68631 177.288 16.4273 177.288C25.1683 177.288 32.2657 174.649 32.2657 171.386V6.72656H0.588867Z" fill="white"/>
</mask>
<g mask="url(#mask0_12460_20876)">
<path d="M32.2667 6.72656H0.589844V177.288H32.2667V6.72656Z" fill="url(#paint0_linear_12460_20876)"/>
</g>
<path d="M0.599609 6.72852V171.388C0.599609 174.651 7.69705 177.29 16.4381 177.29C25.1791 177.29 32.2764 174.651 32.2764 171.388V6.72852H0.599609Z" stroke="#1D1D1B" stroke-width="0.75" stroke-miterlimit="10" stroke-linejoin="round"/>
<path d="M0.599609 6.73017C0.599609 3.46786 7.69705 0.828125 16.4381 0.828125C25.1791 0.828125 32.2764 3.46786 32.2764 6.73017C32.2764 9.99248 25.1791 12.6322 16.4381 12.6322C7.69705 12.6322 0.599609 9.99248 0.599609 6.73017Z" fill="#FDEEF1"/>
<path d="M0.599609 6.73017C0.599609 3.46786 7.69705 0.828125 16.4381 0.828125C25.1791 0.828125 32.2764 3.46786 32.2764 6.73017C32.2764 9.99248 25.1791 12.6322 16.4381 12.6322C7.69705 12.6322 0.599609 9.99248 0.599609 6.73017Z" stroke="#1D1D1B" stroke-width="0.75" stroke-miterlimit="10" stroke-linejoin="round"/>
<path d="M0.599609 171.385C0.599609 168.123 7.69705 165.483 16.4381 165.483C25.1791 165.483 32.2764 168.123 32.2764 171.385" stroke="#1D1D1B" stroke-width="0.5" stroke-linejoin="round" stroke-dasharray="1.5 1"/>
<defs>
<linearGradient id="paint0_linear_12460_20876" x1="0.579683" y1="92.0374" x2="32.268" y2="92.0374" gradientUnits="userSpaceOnUse">
<stop stop-color="#F9CED5"/>
<stop offset="0.38" stop-color="#FEF6F7"/>
<stop offset="1" stop-color="#F9CED5"/>
</linearGradient>
</defs>
</svg>
