<svg width="58" height="152" viewBox="0 0 58 152" fill="none" xmlns="http://www.w3.org/2000/svg">
<mask id="mask0_10423_104700" style="mask-type:luminance" maskUnits="userSpaceOnUse" x="0" y="11" width="58" height="141">
<path d="M0.65625 11.6523V140.427C0.65625 146.453 13.2822 151.334 28.8965 151.334C44.4858 151.334 57.1366 146.453 57.1366 140.427V11.6523H0.65625Z" fill="white"/>
</mask>
<g mask="url(#mask0_10423_104700)">
<path d="M57.1357 11.6533H0.655273V151.335H57.1357V11.6533Z" fill="url(#paint0_linear_10423_104700)"/>
</g>
<mask id="mask1_10423_104700" style="mask-type:luminance" maskUnits="userSpaceOnUse" x="0" y="11" width="58" height="141">
<path d="M0.65625 11.6523V140.427C0.65625 146.453 13.2822 151.334 28.8965 151.334C44.4858 151.334 57.1366 146.453 57.1366 140.427V11.6523H0.65625Z" fill="white"/>
</mask>
<g mask="url(#mask1_10423_104700)">
<path d="M57.1357 11.6533H0.655273V151.335H57.1357V11.6533Z" stroke="#1D1D1B" stroke-width="0.75" stroke-miterlimit="10" stroke-linejoin="round"/>
</g>
<path d="M0.657227 11.6445V140.419C0.657227 146.445 13.2832 151.326 28.8974 151.326C44.4868 151.326 57.1376 146.445 57.1376 140.419V11.6445H0.657227Z" stroke="#1D1D1B" stroke-width="0.75" stroke-miterlimit="10" stroke-linejoin="round"/>
<path d="M0.657227 11.6459C0.657227 5.6193 13.2832 0.738281 28.8974 0.738281C44.4868 0.738281 57.1376 5.6193 57.1376 11.6459C57.1376 17.6724 44.4868 22.5534 28.8974 22.5534C13.2832 22.5285 0.657227 17.6724 0.657227 11.6459Z" fill="#EFEFF8"/>
<path d="M0.657227 11.6459C0.657227 5.6193 13.2832 0.738281 28.8974 0.738281C44.4868 0.738281 57.1376 5.6193 57.1376 11.6459C57.1376 17.6724 44.4868 22.5534 28.8974 22.5534C13.2832 22.5285 0.657227 17.6724 0.657227 11.6459Z" stroke="#1D1D1B" stroke-width="0.75" stroke-miterlimit="10" stroke-linejoin="round"/>
<path d="M0.657227 140.421C0.657227 134.395 13.2832 129.514 28.8974 129.514C44.4868 129.514 57.1376 134.395 57.1376 140.421" stroke="#1D1D1B" stroke-width="0.5" stroke-linejoin="round" stroke-dasharray="1.5 1"/>
<defs>
<linearGradient id="paint0_linear_10423_104700" x1="0.6686" y1="81.5016" x2="57.144" y2="81.5016" gradientUnits="userSpaceOnUse">
<stop stop-color="#D2D1EA"/>
<stop offset="0.38" stop-color="#F6F6FB"/>
<stop offset="1" stop-color="#D2D1EA"/>
</linearGradient>
</defs>
</svg>
