<svg width="244" height="203" viewBox="0 0 244 203" fill="none" xmlns="http://www.w3.org/2000/svg">
<path d="M3.6243 154.015C3.6243 154.015 1.87477 157.221 1.58318 158.678C0.999999 160.136 1 162.176 1 162.176C1 184.035 55.2355 201.814 122.009 201.814C188.783 201.814 243.019 184.035 243.019 162.176C243.019 162.176 243.31 161.01 242.436 158.678C241.852 156.347 240.103 153.432 240.103 153.432L122.009 1L3.6243 154.015Z" fill="url(#paint0_linear_10423_118521)" stroke="black" stroke-width="1.35" stroke-miterlimit="10" stroke-linejoin="round"/>
<path d="M1 162.175C1 140.316 55.2355 122.537 122.009 122.537C188.783 122.537 243.019 140.316 243.019 162.175" stroke="black" stroke-width="1.35" stroke-linejoin="round" stroke-dasharray="2 2"/>
<defs>
<linearGradient id="paint0_linear_10423_118521" x1="223.719" y1="112.834" x2="1.00003" y2="64.7777" gradientUnits="userSpaceOnUse">
<stop stop-color="#BAE1B1"/>
<stop offset="0.372732" stop-color="#C3E5BB"/>
<stop offset="0.56606" stop-color="#EFF7EC"/>
<stop offset="0.929374" stop-color="#C9E7C0"/>
</linearGradient>
</defs>
</svg>
