<svg width="137" height="259" viewBox="0 0 137 259" fill="none" xmlns="http://www.w3.org/2000/svg">
<path d="M20.0241 127.551C4.35333 155.521 -2.03904 183.626 1.89887 204.232" stroke="#009FE3" stroke-width="1.3486" stroke-miterlimit="10" stroke-dasharray="3.37 3.37"/>
<path d="M112.216 56.4219C91.2047 58.6875 65.8241 73.1715 43.1406 96.5832" stroke="#009FE3" stroke-width="1.3486" stroke-miterlimit="10" stroke-dasharray="3.37 3.37"/>
<path d="M135.683 122.396C132.986 93.2388 124.328 68.964 112.703 56.1523" stroke="#009FE3" stroke-width="1.3486" stroke-miterlimit="10" stroke-dasharray="3.37 3.37"/>
<path d="M112.703 204.202C123.519 193.899 131.772 175.019 135.036 152.146" stroke="#009FE3" stroke-width="1.3486" stroke-miterlimit="10" stroke-dasharray="3.37 3.37"/>
<path d="M87.6484 223.895C98.2754 218.932 106.96 212.135 112.705 204.205" stroke="#009FE3" stroke-width="1.3486" stroke-miterlimit="10" stroke-dasharray="3.37 3.37"/>
<path d="M1.84375 204.205C6.67174 211.299 13.7923 217.502 22.4504 222.384" stroke="#009FE3" stroke-width="1.3486" stroke-miterlimit="10" stroke-dasharray="3.37 3.37"/>
<path d="M112.689 204.205H2.26562L112.689 56.9648" fill="#DDEDD9"/>
<path d="M112.689 204.205H2.26562L112.689 56.9648" stroke="#1D1D1B" stroke-width="2.0229" stroke-miterlimit="10" stroke-linejoin="round"/>
<path d="M112.703 -0.00390625V258.253" stroke="#1D1D1B" stroke-width="1.3486" stroke-linejoin="round"/>
<path d="M93.5859 17.5293C93.5859 21.4942 102.136 24.6768 112.709 24.6768C123.255 24.6768 131.832 21.4672 131.832 17.5293C131.832 15.7492 128.811 13.942 125.008 12.5664" stroke="#E6007E" stroke-width="1.3486"/>
<path d="M118.578 10.7874L128.666 9.81641L125.429 12.8373L126.481 17.1527L118.578 10.7874Z" fill="#E6007E"/>
<path d="M103.754 11.2168C97.7127 12.4305 93.5859 14.8041 93.5859 17.5283" stroke="#E6007E" stroke-width="1.3486"/>
</svg>
