<svg width="1111" height="140" viewBox="0 0 1111 140" fill="none" xmlns="http://www.w3.org/2000/svg">
<mask id="mask0_400_992" style="mask-type:luminance" maskUnits="userSpaceOnUse" x="2" y="1" width="137" height="138">
<path d="M19.1413 1.5H121.847C131.309 1.5 138.958 9.15027 138.958 18.6125V121.327C138.958 130.79 131.269 138.44 121.847 138.44H19.1413C9.67989 138.44 2.03027 130.749 2.03027 121.327V18.6125C2.03027 9.15027 9.72015 1.5 19.1413 1.5Z" fill="white"/>
</mask>
<g mask="url(#mask0_400_992)">
<path d="M138.958 1.5H2.03027V138.48H138.958V1.5Z" fill="url(#paint0_linear_400_992)"/>
</g>
<mask id="mask1_400_992" style="mask-type:luminance" maskUnits="userSpaceOnUse" x="0" y="0" width="1111" height="140">
<path d="M1110.5 0H0.5V140H1110.5V0Z" fill="white"/>
</mask>
<g mask="url(#mask1_400_992)">
<path d="M121.846 1.49609H19.1403C9.69015 1.49609 2.0293 9.1576 2.0293 18.6085V121.364C2.0293 130.815 9.69015 138.476 19.1403 138.476H121.846C131.297 138.476 138.957 130.815 138.957 121.364V18.6085C138.957 9.1576 131.297 1.49609 121.846 1.49609Z" stroke="#FCDCCE" stroke-width="3.01984" stroke-miterlimit="10"/>
<path d="M82.0679 69.9896C82.0679 76.3916 76.8742 81.5455 70.5129 81.5455C64.1517 81.5455 58.958 76.3514 58.958 69.9896C58.958 63.6278 64.1517 58.4336 70.5129 58.4336C76.8742 58.4336 82.0679 63.6278 82.0679 69.9896Z" fill="#231F20"/>
</g>
<mask id="mask2_400_992" style="mask-type:luminance" maskUnits="userSpaceOnUse" x="196" y="1" width="137" height="138">
<path d="M213.16 1.5H315.866C325.327 1.5 332.977 9.15027 332.977 18.6125V121.327C332.977 130.79 325.287 138.44 315.866 138.44H213.16C203.698 138.44 196.049 130.749 196.049 121.327V18.6125C196.049 9.15027 203.739 1.5 213.16 1.5Z" fill="white"/>
</mask>
<g mask="url(#mask2_400_992)">
<path d="M332.937 1.5H196.009V138.48H332.937V1.5Z" fill="url(#paint1_linear_400_992)"/>
</g>
<mask id="mask3_400_992" style="mask-type:luminance" maskUnits="userSpaceOnUse" x="0" y="0" width="1111" height="140">
<path d="M1110.5 0H0.5V140H1110.5V0Z" fill="white"/>
</mask>
<g mask="url(#mask3_400_992)">
<path d="M315.826 1.49609H213.12C203.67 1.49609 196.009 9.1576 196.009 18.6085V121.364C196.009 130.815 203.67 138.476 213.12 138.476H315.826C325.276 138.476 332.937 130.815 332.937 121.364V18.6085C332.937 9.1576 325.276 1.49609 315.826 1.49609Z" stroke="#FCDCCE" stroke-width="3.01984" stroke-miterlimit="10"/>
<path d="M288.287 32.2239C288.287 38.626 293.481 43.7798 299.842 43.7798C306.203 43.7798 311.397 38.5857 311.397 32.2239C311.397 25.8621 306.244 20.668 299.842 20.668C293.441 20.668 288.287 25.8621 288.287 32.2239Z" fill="#231F20"/>
<path d="M217.589 107.798C217.589 114.2 222.742 119.354 229.144 119.354C235.545 119.354 240.699 114.16 240.699 107.798C240.699 101.436 235.505 96.2422 229.144 96.2422C222.783 96.2422 217.589 101.436 217.589 107.798Z" fill="#231F20"/>
</g>
<mask id="mask4_400_992" style="mask-type:luminance" maskUnits="userSpaceOnUse" x="390" y="1" width="137" height="138">
<path d="M407.137 1.5H509.844C519.305 1.5 526.955 9.19054 526.955 18.6125V121.327C526.955 130.79 519.265 138.44 509.844 138.44H407.137C397.676 138.44 390.026 130.749 390.026 121.327V18.6125C390.026 9.15027 397.716 1.5 407.137 1.5Z" fill="white"/>
</mask>
<g mask="url(#mask4_400_992)">
<path d="M526.995 1.5H390.026V138.48H526.995V1.5Z" fill="url(#paint2_linear_400_992)"/>
</g>
<mask id="mask5_400_992" style="mask-type:luminance" maskUnits="userSpaceOnUse" x="0" y="0" width="1111" height="140">
<path d="M1110.5 0H0.5V140H1110.5V0Z" fill="white"/>
</mask>
<g mask="url(#mask5_400_992)">
<path d="M509.844 1.49609H407.137C397.687 1.49609 390.026 9.1576 390.026 18.6085V121.364C390.026 130.815 397.687 138.476 407.137 138.476H509.844C519.294 138.476 526.955 130.815 526.955 121.364V18.6085C526.955 9.1576 519.294 1.49609 509.844 1.49609Z" stroke="#FCDCCE" stroke-width="3.01984" stroke-miterlimit="10"/>
<path d="M482.305 32.2239C482.305 38.626 487.498 43.7798 493.86 43.7798C500.221 43.7798 505.415 38.5857 505.415 32.2239C505.415 25.8621 500.261 20.668 493.86 20.668C487.458 20.668 482.305 25.8621 482.305 32.2239Z" fill="#231F20"/>
<path d="M411.606 107.798C411.606 114.2 416.76 119.354 423.161 119.354C429.563 119.354 434.716 114.16 434.716 107.798C434.716 101.436 429.523 96.2422 423.161 96.2422C416.8 96.2422 411.606 101.436 411.606 107.798Z" fill="#231F20"/>
<path d="M446.955 69.9896C446.955 76.3916 452.149 81.5455 458.51 81.5455C464.871 81.5455 470.065 76.3514 470.065 69.9896C470.065 63.6278 464.871 58.4336 458.51 58.4336C452.149 58.4336 446.955 63.6278 446.955 69.9896Z" fill="#231F20"/>
</g>
<mask id="mask6_400_992" style="mask-type:luminance" maskUnits="userSpaceOnUse" x="584" y="1" width="137" height="138">
<path d="M601.157 1.5H703.863C713.324 1.5 720.974 9.15027 720.974 18.6125V121.327C720.974 130.79 713.284 138.44 703.863 138.44H601.157C591.696 138.44 584.046 130.749 584.046 121.327V18.6125C584.046 9.15027 591.736 1.5 601.157 1.5Z" fill="white"/>
</mask>
<g mask="url(#mask6_400_992)">
<path d="M720.974 1.5H584.046V138.48H720.974V1.5Z" fill="url(#paint3_linear_400_992)"/>
</g>
<mask id="mask7_400_992" style="mask-type:luminance" maskUnits="userSpaceOnUse" x="0" y="0" width="1111" height="140">
<path d="M1110.5 0H0.5V140H1110.5V0Z" fill="white"/>
</mask>
<g mask="url(#mask7_400_992)">
<path d="M703.902 1.49609H601.156C591.706 1.49609 584.045 9.1576 584.045 18.6085V121.364C584.045 130.815 591.706 138.476 601.156 138.476H703.902C713.352 138.476 721.013 130.815 721.013 121.364V18.6085C721.013 9.1576 713.352 1.49609 703.902 1.49609Z" stroke="#FCDCCE" stroke-width="3.01984" stroke-miterlimit="10"/>
<path d="M628.734 32.2239C628.734 38.626 623.54 43.7798 617.179 43.7798C610.818 43.7798 605.624 38.5857 605.624 32.2239C605.624 25.8621 610.777 20.668 617.179 20.668C623.581 20.668 628.734 25.8621 628.734 32.2239Z" fill="#231F20"/>
<path d="M628.734 107.798C628.734 114.2 623.54 119.354 617.179 119.354C610.818 119.354 605.624 114.16 605.624 107.798C605.624 101.436 610.777 96.2422 617.179 96.2422C623.581 96.2422 628.734 101.436 628.734 107.798Z" fill="#231F20"/>
<path d="M699.433 32.2239C699.433 38.626 694.28 43.7798 687.878 43.7798C681.477 43.7798 676.323 38.5857 676.323 32.2239C676.323 25.8621 681.517 20.668 687.878 20.668C694.239 20.668 699.433 25.8621 699.433 32.2239Z" fill="#231F20"/>
<path d="M699.433 107.798C699.433 114.2 694.28 119.354 687.878 119.354C681.477 119.354 676.323 114.16 676.323 107.798C676.323 101.436 681.517 96.2422 687.878 96.2422C694.239 96.2422 699.433 101.436 699.433 107.798Z" fill="#231F20"/>
</g>
<mask id="mask8_400_992" style="mask-type:luminance" maskUnits="userSpaceOnUse" x="778" y="1" width="138" height="138">
<path d="M897.922 1.5H795.175C785.725 1.5 778.064 9.1615 778.064 18.6124V121.368C778.064 130.819 785.725 138.48 795.175 138.48H897.922C907.372 138.48 915.033 130.819 915.033 121.368V18.6124C915.033 9.1615 907.372 1.5 897.922 1.5Z" fill="white"/>
</mask>
<g mask="url(#mask8_400_992)">
<path d="M915.033 1.5H778.064V138.48H915.033V1.5Z" fill="url(#paint4_linear_400_992)"/>
</g>
<mask id="mask9_400_992" style="mask-type:luminance" maskUnits="userSpaceOnUse" x="0" y="0" width="1111" height="140">
<path d="M1110.5 0H0.5V140H1110.5V0Z" fill="white"/>
</mask>
<g mask="url(#mask9_400_992)">
<path d="M897.922 1.49609H795.175C785.725 1.49609 778.064 9.1576 778.064 18.6085V121.364C778.064 130.815 785.725 138.476 795.175 138.476H897.922C907.372 138.476 915.033 130.815 915.033 121.364V18.6085C915.033 9.1576 907.372 1.49609 897.922 1.49609Z" stroke="#FCDCCE" stroke-width="3.01984" stroke-miterlimit="10"/>
<path d="M822.754 32.2239C822.754 38.626 817.561 43.7798 811.199 43.7798C804.838 43.7798 799.645 38.5857 799.645 32.2239C799.645 25.8621 804.798 20.668 811.199 20.668C817.601 20.668 822.754 25.8621 822.754 32.2239Z" fill="#231F20"/>
<path d="M822.754 107.798C822.754 114.2 817.561 119.354 811.199 119.354C804.838 119.354 799.645 114.16 799.645 107.798C799.645 101.436 804.798 96.2422 811.199 96.2422C817.601 96.2422 822.754 101.436 822.754 107.798Z" fill="#231F20"/>
<path d="M893.413 32.2239C893.413 38.626 888.259 43.7798 881.858 43.7798C875.456 43.7798 870.303 38.5857 870.303 32.2239C870.303 25.8621 875.496 20.668 881.858 20.668C888.219 20.668 893.413 25.8621 893.413 32.2239Z" fill="#231F20"/>
<path d="M893.413 107.798C893.413 114.2 888.259 119.354 881.858 119.354C875.456 119.354 870.303 114.16 870.303 107.798C870.303 101.436 875.496 96.2422 881.858 96.2422C888.219 96.2422 893.413 101.436 893.413 107.798Z" fill="#231F20"/>
<path d="M858.104 69.9896C858.104 76.3916 852.91 81.5455 846.549 81.5455C840.188 81.5455 834.994 76.3514 834.994 69.9896C834.994 63.6278 840.188 58.4336 846.549 58.4336C852.91 58.4336 858.104 63.6278 858.104 69.9896Z" fill="#231F20"/>
</g>
<mask id="mask10_400_992" style="mask-type:luminance" maskUnits="userSpaceOnUse" x="972" y="1" width="138" height="138">
<path d="M989.193 1.5H1091.9C1101.36 1.5 1109.01 9.15027 1109.01 18.6125V121.327C1109.01 130.79 1101.32 138.44 1091.9 138.44H989.193C979.732 138.44 972.082 130.749 972.082 121.327V18.6125C972.082 9.15027 979.772 1.5 989.193 1.5Z" fill="white"/>
</mask>
<g mask="url(#mask10_400_992)">
<path d="M1109.01 1.5H972.082V138.48H1109.01V1.5Z" fill="url(#paint5_linear_400_992)"/>
</g>
<mask id="mask11_400_992" style="mask-type:luminance" maskUnits="userSpaceOnUse" x="0" y="0" width="1111" height="140">
<path d="M1110.5 0H0.5V140H1110.5V0Z" fill="white"/>
</mask>
<g mask="url(#mask11_400_992)">
<path d="M1091.94 1.49609H989.193C979.743 1.49609 972.082 9.1576 972.082 18.6085V121.364C972.082 130.815 979.743 138.476 989.193 138.476H1091.94C1101.39 138.476 1109.05 130.815 1109.05 121.364V18.6085C1109.05 9.1576 1101.39 1.49609 1091.94 1.49609Z" stroke="#FCDCCE" stroke-width="3.01984" stroke-miterlimit="10"/>
<path d="M1016.77 32.2239C1016.77 38.626 1011.58 43.7798 1005.22 43.7798C998.856 43.7798 993.662 38.5857 993.662 32.2239C993.662 25.8621 998.816 20.668 1005.22 20.668C1011.62 20.668 1016.77 25.8621 1016.77 32.2239Z" fill="#231F20"/>
<path d="M1016.77 69.9896C1016.77 76.3916 1011.58 81.5455 1005.22 81.5455C998.856 81.5455 993.662 76.3514 993.662 69.9896C993.662 63.6278 998.816 58.4336 1005.22 58.4336C1011.62 58.4336 1016.77 63.6278 1016.77 69.9896Z" fill="#231F20"/>
<path d="M1016.77 107.798C1016.77 114.2 1011.58 119.354 1005.22 119.354C998.856 119.354 993.662 114.16 993.662 107.798C993.662 101.436 998.816 96.2422 1005.22 96.2422C1011.62 96.2422 1016.77 101.436 1016.77 107.798Z" fill="#231F20"/>
<path d="M1087.43 32.2239C1087.43 38.626 1082.28 43.7798 1075.88 43.7798C1069.47 43.7798 1064.32 38.5857 1064.32 32.2239C1064.32 25.8621 1069.51 20.668 1075.88 20.668C1082.24 20.668 1087.43 25.8621 1087.43 32.2239Z" fill="#231F20"/>
<path d="M1087.43 69.9896C1087.43 76.3916 1082.28 81.5455 1075.88 81.5455C1069.47 81.5455 1064.32 76.3514 1064.32 69.9896C1064.32 63.6278 1069.51 58.4336 1075.88 58.4336C1082.24 58.4336 1087.43 63.6278 1087.43 69.9896Z" fill="#231F20"/>
<path d="M1087.43 107.798C1087.43 114.2 1082.28 119.354 1075.88 119.354C1069.47 119.354 1064.32 114.16 1064.32 107.798C1064.32 101.436 1069.51 96.2422 1075.88 96.2422C1082.24 96.2422 1087.43 101.436 1087.43 107.798Z" fill="#231F20"/>
</g>
<defs>
<linearGradient id="paint0_linear_400_992" x1="75.7758" y1="2.10961" x2="75.7758" y2="139.09" gradientUnits="userSpaceOnUse">
<stop stop-color="#FDE8DE"/>
<stop offset="1" stop-color="#FCDACB"/>
</linearGradient>
<linearGradient id="paint1_linear_400_992" x1="269.795" y1="-1240.3" x2="269.795" y2="-1103.32" gradientUnits="userSpaceOnUse">
<stop stop-color="#FDE8DE"/>
<stop offset="1" stop-color="#FCDACB"/>
</linearGradient>
<linearGradient id="paint2_linear_400_992" x1="463.812" y1="2.10961" x2="463.812" y2="-1103.32" gradientUnits="userSpaceOnUse">
<stop stop-color="#FDE8DE"/>
<stop offset="1" stop-color="#FCDACB"/>
</linearGradient>
<linearGradient id="paint3_linear_400_992" x1="657.791" y1="2.10961" x2="657.791" y2="139.09" gradientUnits="userSpaceOnUse">
<stop stop-color="#FDE8DE"/>
<stop offset="1" stop-color="#FCDACB"/>
</linearGradient>
<linearGradient id="paint4_linear_400_992" x1="851.81" y1="2.10961" x2="851.81" y2="139.09" gradientUnits="userSpaceOnUse">
<stop stop-color="#FDE8DE"/>
<stop offset="1" stop-color="#FCDACB"/>
</linearGradient>
<linearGradient id="paint5_linear_400_992" x1="1045.83" y1="2.10961" x2="1045.83" y2="139.09" gradientUnits="userSpaceOnUse">
<stop stop-color="#FDE8DE"/>
<stop offset="1" stop-color="#FCDACB"/>
</linearGradient>
</defs>
</svg>
