<svg width="300" height="300" viewBox="0 0 300 300" fill="none" xmlns="http://www.w3.org/2000/svg">
<mask id="mask0_400_1075" style="mask-type:alpha" maskUnits="userSpaceOnUse" x="0" y="0" width="300" height="300">
<path d="M300 0H0V300H300V0Z" fill="black"/>
</mask>
<g mask="url(#mask0_400_1075)">
<path d="M278.497 75.8203L150 150.013L278.497 224.206C291.146 202.398 298.386 177.056 298.386 150.013C298.386 122.971 291.146 97.6726 278.497 75.8203Z" fill="#53B6E7"/>
<path d="M278.497 75.8122C252.85 31.497 204.914 1.61914 150 1.61914V150.005L278.497 75.8122Z" fill="#FFF23E"/>
<path d="M150.001 150.012V1.66992C95.0863 1.66992 47.1945 31.5041 21.5039 75.863L150.001 150.056V150.012Z" fill="#53B6E7"/>
<path d="M21.5467 75.8203C8.89769 97.6726 1.65723 122.971 1.65723 150.013C1.65723 177.056 8.89769 202.354 21.5467 224.206L150 150.013L21.5467 75.8203Z" fill="#FFF23E"/>
<path d="M150 298.355C204.914 298.355 252.806 268.521 278.453 224.162L150 149.969V298.355Z" fill="#FFF23E"/>
<path d="M150.001 150.004L21.5039 224.197C47.1509 268.556 95.0427 298.39 149.957 298.39V150.004H150.001Z" fill="#53B6E7"/>
<path d="M298.387 150.005C298.387 68.0483 231.957 1.61914 150 1.61914C68.0434 1.61914 1.65788 68.0483 1.61426 150.005C1.61426 231.962 68.0434 298.391 150 298.391C231.957 298.391 298.387 231.962 298.387 150.005Z" stroke="#231F20" stroke-width="3.2713" stroke-linejoin="round"/>
<path d="M150 26.1367L135.912 50.5624H144.766V150.01H155.235V50.5624H164.089L150 26.1367Z" fill="white"/>
<path d="M150 26.1367L135.912 50.5624H144.766V150.01H155.235V50.5624H164.089L150 26.1367Z" stroke="#231F20" stroke-width="2.18087" stroke-linejoin="round"/>
<path d="M158.898 150.007C158.898 145.079 154.929 141.109 150 141.109C145.072 141.109 141.103 145.079 141.103 150.007C141.103 154.936 145.072 158.905 150 158.905C154.929 158.905 158.898 154.936 158.898 150.007Z" fill="#231F20"/>
</g>
</svg>
