<svg width="545" height="72" viewBox="0 0 545 72" fill="none" xmlns="http://www.w3.org/2000/svg">
<g clip-path="url(#clip0_306_782)">
<path d="M20.5 72.375C40.5 36.697 106.5 31.8147 123.5 57.7309V72.375H20.5Z" fill="#E1F3F5"/>
<rect x="123.5" y="57" width="28" height="15" fill="#EEF9FF"/>
<g clip-path="url(#clip1_306_782)">
<path fill-rule="evenodd" clip-rule="evenodd" d="M123.856 20.4024C132.838 17.2027 142.617 21.938 145.788 30.8388L145.796 30.8612L145.796 30.8612L149.494 41.3338C149.495 41.338 149.497 41.3422 149.498 41.3464C152.689 50.3248 147.954 60.096 139.057 63.2654C130.075 66.4652 120.297 61.7298 117.126 52.829L117.118 52.8066L117.118 52.8066L113.42 42.334C113.418 42.3296 113.417 42.3253 113.415 42.321C110.225 33.3427 114.96 23.5718 123.856 20.4024ZM129.617 36.3783C129.61 36.3779 129.593 36.3769 129.552 36.3913C129.501 36.4095 129.478 36.4278 129.464 36.4403C129.446 36.4568 129.428 36.48 129.414 36.5084C129.401 36.5367 129.397 36.5595 129.396 36.5728L129.396 36.573C129.395 36.5801 129.394 36.5976 129.409 36.6379L129.417 36.6603L129.417 36.6603L133.116 47.1371C133.134 47.1854 133.151 47.208 133.164 47.2214C133.18 47.2395 133.203 47.2574 133.232 47.271C133.26 47.2846 133.283 47.2887 133.296 47.2895L133.296 47.2895C133.303 47.2899 133.321 47.2909 133.361 47.2765C133.412 47.2583 133.436 47.24 133.45 47.2275C133.468 47.211 133.486 47.1879 133.499 47.1594C133.513 47.1311 133.517 47.1083 133.518 47.095C133.518 47.088 133.519 47.0705 133.505 47.0299L133.497 47.0075L133.497 47.0075L129.798 36.5307C129.78 36.4824 129.762 36.4598 129.75 36.4464C129.734 36.4284 129.71 36.4104 129.682 36.3968C129.654 36.3832 129.631 36.3791 129.618 36.3783L129.617 36.3783Z" fill="#E1F3F5"/>
<path fill-rule="evenodd" clip-rule="evenodd" d="M113.885 8.89781C118.077 6.80172 123.174 8.50094 125.27 12.6931L128.043 18.2377C130.139 22.4298 128.44 27.5275 124.247 29.6236C120.055 31.7197 114.958 30.0205 112.861 25.8283L110.089 20.2837C107.993 16.0915 109.692 10.9939 113.885 8.89781Z" fill="#E1F3F5"/>
<path fill-rule="evenodd" clip-rule="evenodd" d="M101.625 20.662C103.974 16.6063 109.166 15.2229 113.222 17.5721L118.399 20.5707C122.455 22.9199 123.838 28.1122 121.489 32.1679C119.14 36.2237 113.947 37.6071 109.892 35.2579L104.715 32.2593C100.659 29.9101 99.2756 24.7178 101.625 20.662Z" fill="#E1F3F5"/>
<path fill-rule="evenodd" clip-rule="evenodd" d="M116.782 14.692C117.774 14.1959 118.98 14.598 119.476 15.5902L122.249 21.1348C122.745 22.1269 122.342 23.3333 121.35 23.8294C120.358 24.3255 119.152 23.9233 118.656 22.9312L115.883 17.3866C115.387 16.3945 115.789 15.188 116.782 14.692Z" fill="#5DBDAF"/>
<path fill-rule="evenodd" clip-rule="evenodd" d="M107.231 23.9093C107.787 22.9495 109.016 22.6221 109.975 23.1781L115.152 26.1767C116.112 26.7326 116.44 27.9615 115.884 28.9213C115.328 29.8812 114.099 30.2086 113.139 29.6526L107.962 26.654C107.002 26.098 106.675 24.8692 107.231 23.9093Z" fill="#5DBDAF"/>
<path d="M122.29 29.9807C120.197 30.7162 119.122 33.0075 119.857 35.1009L128.033 58.2126L144.412 52.4135L136.236 29.3017C135.501 27.2084 133.209 26.1334 131.116 26.8689L122.29 30.0089V29.9807Z" fill="#FCD57F"/>
<path d="M129.362 57.8158L140.225 66.5852L143.139 52.9219L129.362 57.8158Z" fill="white"/>
<path fill-rule="evenodd" clip-rule="evenodd" d="M144.07 51.8567C144.455 52.1945 144.627 52.7142 144.521 53.2153L141.607 66.8787C141.504 67.3594 141.16 67.7525 140.696 67.9168C140.233 68.0811 139.718 67.993 139.335 67.6842L128.472 58.9148C128.074 58.5931 127.88 58.0812 127.966 57.5764C128.053 57.0717 128.405 56.6528 128.887 56.4814L142.664 51.5875C143.147 51.416 143.684 51.519 144.07 51.8567ZM132.216 58.3011L139.32 64.0368L141.226 55.1002L132.216 58.3011Z" fill="#FCD57F"/>
<path fill-rule="evenodd" clip-rule="evenodd" d="M131.162 32.0591C131.531 31.9291 131.935 32.1223 132.065 32.4906L138.515 50.765C138.645 51.1333 138.451 51.5373 138.083 51.6673C137.715 51.7973 137.311 51.6041 137.181 51.2357L130.731 32.9613C130.601 32.593 130.794 32.1891 131.162 32.0591Z" fill="white"/>
<path fill-rule="evenodd" clip-rule="evenodd" d="M125.225 34.2905C125.593 34.1605 125.997 34.3537 126.127 34.722L132.577 52.9964C132.707 53.3647 132.514 53.7687 132.145 53.8987C131.777 54.0287 131.373 53.8355 131.243 53.4672L124.793 35.1928C124.663 34.8245 124.857 34.4205 125.225 34.2905Z" fill="white"/>
<path d="M135.334 63.2776L140.228 66.5874L141.954 60.9297L135.334 63.2776Z" fill="#FCD57F"/>
<path d="M122.29 29.9807C120.197 30.7162 119.122 33.0075 119.857 35.1009L128.033 58.2126L144.412 52.4135L136.236 29.3017C135.501 27.2084 133.209 26.1334 131.116 26.8689L122.29 30.0089V29.9807Z" fill="#5DBDAF"/>
<path d="M129.362 57.8158L140.225 66.5852L143.139 52.9219L129.362 57.8158Z" fill="white"/>
<path fill-rule="evenodd" clip-rule="evenodd" d="M144.07 51.8567C144.455 52.1945 144.627 52.7142 144.521 53.2153L141.607 66.8787C141.504 67.3594 141.16 67.7525 140.696 67.9168C140.233 68.0811 139.718 67.993 139.335 67.6842L128.472 58.9148C128.074 58.5931 127.88 58.0812 127.966 57.5764C128.053 57.0717 128.405 56.6528 128.887 56.4814L142.664 51.5875C143.147 51.416 143.684 51.519 144.07 51.8567ZM132.216 58.3011L139.32 64.0368L141.226 55.1002L132.216 58.3011Z" fill="#5DBDAF"/>
<path fill-rule="evenodd" clip-rule="evenodd" d="M131.162 32.0591C131.531 31.9291 131.935 32.1223 132.065 32.4906L138.515 50.765C138.645 51.1333 138.451 51.5373 138.083 51.6673C137.715 51.7973 137.311 51.6041 137.181 51.2357L130.731 32.9613C130.601 32.593 130.794 32.1891 131.162 32.0591Z" fill="white"/>
<path fill-rule="evenodd" clip-rule="evenodd" d="M125.225 34.2905C125.593 34.1605 125.997 34.3537 126.127 34.722L132.577 52.9964C132.707 53.3647 132.514 53.7687 132.145 53.8987C131.777 54.0287 131.373 53.8355 131.243 53.4672L124.793 35.1928C124.663 34.8245 124.857 34.4205 125.225 34.2905Z" fill="white"/>
<path d="M135.334 63.2776L140.228 66.5874L141.954 60.9297L135.334 63.2776Z" fill="#5DBDAF"/>
</g>
<path d="M144.5 32C144.5 14.3269 158.827 0 176.5 0H512.5C530.173 0 544.5 14.3269 544.5 32V72H144.5V32Z" fill="#E1F3F5"/>
</g>
<defs>
<clipPath id="clip0_306_782">
<rect width="524" height="72" fill="white" transform="translate(20.5)"/>
</clipPath>
<clipPath id="clip1_306_782">
<rect width="50.0424" height="60" fill="white" transform="translate(100.48 8)"/>
</clipPath>
</defs>
</svg>
