<svg width="277" height="131" viewBox="0 0 277 131" fill="none" xmlns="http://www.w3.org/2000/svg">
<path d="M138.5 130.23C174.971 130.23 216.83 131.915 237.871 129.701C276.5 125.648 276.5 87.7296 276.5 62.1627C276.5 38.6846 273.158 16.5711 243.971 7.43612C223.194 0.932993 182.601 0 140.672 0C96.1112 0 57.9421 0.362056 35.8148 4.06619C3.48017 9.46922 0.5 39.5619 0.5 62.1627C0.5 87.7296 2.71427 125.732 47.6374 128.489C69.723 129.882 101.946 130.23 138.5 130.23Z" fill="#FEF2F5"/>
<path d="M270.097 76.7432C270.097 76.7432 269.247 119.188 233.125 123.88C233.125 123.88 272.91 130.133 270.097 76.7432Z" fill="white"/>
</svg>
