<svg width="30" height="32" viewBox="0 0 30 32" fill="none" xmlns="http://www.w3.org/2000/svg">
<path d="M26.5748 9.77898L20.7829 4.35323C20.3829 3.96687 19.9086 3.6657 19.3888 3.46793C18.869 3.27017 18.3145 3.17992 17.7588 3.20266C17.2031 3.22539 16.6578 3.36063 16.1559 3.6002C15.654 3.83977 15.2059 4.17868 14.8388 4.59642L3.16682 18.0258C2.50635 18.7865 2.1621 19.7713 2.2047 20.7778C2.24731 21.7844 2.67354 22.7365 3.39593 23.4387L8.53242 28.437C8.77227 28.6702 9.09387 28.8002 9.42839 28.7992H14.9834C15.1719 28.7994 15.3581 28.758 15.5286 28.6779C15.6992 28.5978 15.85 28.481 15.9703 28.3359L26.8704 15.1523C27.5175 14.3886 27.8475 13.4062 27.7925 12.4068C27.7375 11.4073 27.3017 10.467 26.5748 9.77898ZM14.3767 26.2406H9.94422L5.1802 21.6045C4.92281 21.3607 4.77036 21.0263 4.75507 20.672C4.73978 20.3178 4.86286 19.9715 5.09828 19.7064L8.23419 16.0994L16.737 23.3875L14.3767 26.2406Z" fill="#222222"/>
</svg>
