<svg width="30" height="30" viewBox="0 0 30 30" fill="none" xmlns="http://www.w3.org/2000/svg">
<path d="M5.14708 26.2324C5.07676 26.243 5.00645 26.25 4.93614 26.25C4.62325 26.25 4.33145 26.127 4.09942 25.902C3.96335 25.7673 3.86214 25.6016 3.80455 25.419C3.74697 25.2365 3.73475 25.0426 3.76895 24.8543L4.80606 18.941C4.82012 18.8707 4.85176 18.8074 4.9045 18.7547L19.8072 3.85195C19.874 3.78516 19.9619 3.75 20.0568 3.75C20.1518 3.75 20.2397 3.78516 20.3065 3.85195L26.1494 9.69844C26.182 9.73096 26.2079 9.76959 26.2255 9.81212C26.2432 9.85465 26.2522 9.90025 26.2522 9.94629C26.2522 9.99233 26.2432 10.0379 26.2255 10.0805C26.2079 10.123 26.182 10.1616 26.1494 10.1941L11.2467 25.0969C11.1975 25.1496 11.1307 25.1812 11.0604 25.1953L5.14708 26.2324Z" fill="#222222"/>
</svg>
