<svg width="305" height="54" viewBox="0 0 305 54" fill="none" xmlns="http://www.w3.org/2000/svg">
<mask id="mask0_519_1046" style="mask-type:luminance" maskUnits="userSpaceOnUse" x="0" y="18" width="302" height="17">
<path d="M301.238 18.75H0.380859V34.1786H301.238V18.75Z" fill="white"/>
</mask>
<g mask="url(#mask0_519_1046)">
<path d="M7.07812 25.4473H294.194" stroke="#B1B3B6" stroke-width="8.03572" stroke-linecap="round" stroke-linejoin="round"/>
</g>
<mask id="mask1_519_1046" style="mask-type:luminance" maskUnits="userSpaceOnUse" x="277" y="7" width="28" height="39">
<path d="M304.744 7.3623H277.744V45.9337H304.744V7.3623Z" fill="white"/>
</mask>
<g mask="url(#mask1_519_1046)">
<path d="M284.816 14.0596L296.2 25.4435L284.441 36.8542" stroke="#B1B3B6" stroke-width="8.03572" stroke-linecap="round" stroke-linejoin="round"/>
</g>
<mask id="mask2_519_1046" style="mask-type:luminance" maskUnits="userSpaceOnUse" x="125" y="0" width="55" height="54">
<path d="M179.066 0H125.066V54H179.066V0Z" fill="white"/>
</mask>
<g mask="url(#mask2_519_1046)">
<path d="M150.62 45.778C161.789 45.778 170.816 36.7245 170.816 25.5816C170.816 14.4388 161.763 5.3584 150.62 5.3584C139.477 5.3584 130.396 14.412 130.396 25.5816C130.396 36.7513 139.45 45.778 150.62 45.778Z" fill="white"/>
<path d="M150.62 45.778C161.789 45.778 170.816 36.7245 170.816 25.5816C170.816 14.4388 161.763 5.3584 150.62 5.3584C139.477 5.3584 130.396 14.412 130.396 25.5816C130.396 36.7513 139.45 45.778 150.62 45.778Z" stroke="#A7A9AC" stroke-width="5.35714" stroke-linecap="round" stroke-linejoin="round"/>
</g>
<path d="M163.906 25.3151H136.906V23.8152H163.906V25.3151ZM150.433 18.1366C149.897 18.1366 149.469 18.0294 149.121 17.7884C148.772 17.5741 148.504 17.2794 148.317 16.9312C148.129 16.583 148.022 16.208 148.022 15.7794C148.022 15.3509 148.103 14.9758 148.263 14.6276C148.424 14.2794 148.692 13.9848 149.04 13.7437C149.388 13.5026 149.817 13.3955 150.353 13.3955C151.129 13.3955 151.719 13.6365 152.147 14.1187C152.549 14.6008 152.763 15.1366 152.763 15.7259C152.763 16.3151 152.576 16.8509 152.174 17.3598C151.799 17.8687 151.21 18.1098 150.433 18.1098V18.1366ZM150.433 35.7616C149.897 35.7616 149.469 35.6544 149.121 35.4134C148.772 35.1991 148.504 34.9044 148.317 34.5562C148.129 34.208 148.022 33.833 148.022 33.4044C148.022 32.9759 148.103 32.6008 148.263 32.2526C148.424 31.9044 148.692 31.6098 149.04 31.3687C149.388 31.1276 149.817 31.0205 150.353 31.0205C151.129 31.0205 151.719 31.2616 152.147 31.7437C152.549 32.2258 152.763 32.7616 152.763 33.3509C152.763 33.9401 152.576 34.4759 152.174 34.9848C151.799 35.4937 151.21 35.7348 150.433 35.7348V35.7616Z" fill="#231F20"/>
</svg>
