<svg width="664" height="378" viewBox="0 0 664 378" fill="none" xmlns="http://www.w3.org/2000/svg">
<path d="M333.576 9.36472C661.413 12.0647 663.366 -5.8012 663.424 196.986C663.424 363.581 674.31 379.121 293.193 377.943C31.3596 377.11 13.2645 393.425 13.207 163.695C13.207 27.8338 15.7633 6.77961 333.576 9.42217" fill="#DFF0FB"/>
<path d="M321.255 1.2069C649.092 4.07924 651.045 -13.959 651.102 188.857C651.102 355.452 661.988 370.963 280.871 369.814C19.1527 368.924 1.05765 385.238 1.0002 155.48C0.97148 19.676 3.52776 -1.43565 321.255 1.2069Z" fill="white"/>
<path d="M321.255 1.2069C649.092 4.07924 651.045 -13.959 651.102 188.857C651.102 355.452 661.988 370.963 280.871 369.814C19.1527 368.924 1.05765 385.238 1.0002 155.48C0.97148 19.676 3.52776 -1.43565 321.255 1.2069Z" stroke="#D1EAF9" stroke-miterlimit="10"/>
<path d="M21.1346 18.1594C0.569436 37.1743 5.62457 50.5593 5.62457 50.5593C21.824 21.1466 46.0944 15.5743 46.0944 15.5743C46.0944 3.48173 21.1346 18.1594 21.1346 18.1594Z" fill="#DFF0FB"/>
<path d="M324.931 283.9V258.422" stroke="#1D1D1B" stroke-miterlimit="10"/>
<path d="M324.96 251.332L329.038 261.328L324.96 258.944L320.853 261.328L324.96 251.332Z" fill="#1D1D1B"/>
<path d="M343.027 306.044C343.032 309.625 341.975 313.128 339.989 316.108C338.003 319.088 335.177 321.412 331.869 322.785C328.562 324.158 324.921 324.519 321.408 323.822C317.896 323.124 314.669 321.4 312.136 318.868C309.604 316.335 307.88 313.108 307.183 309.596C306.485 306.083 306.846 302.442 308.219 299.134C309.592 295.826 311.916 293 314.896 291.014C317.876 289.028 321.379 287.971 324.96 287.977C329.749 287.984 334.34 289.89 337.727 293.277C341.113 296.663 343.019 301.254 343.027 306.044Z" fill="#F7E1B1"/>
<path d="M410.437 237.801V239.582H408.628" stroke="#009FE3" stroke-miterlimit="10"/>
<path d="M405.066 239.586H243.043" stroke="#009FE3" stroke-miterlimit="10" stroke-dasharray="1.24 1.24"/>
<path d="M241.263 239.582H239.453V237.801" stroke="#009FE3" stroke-miterlimit="10"/>
<path d="M239.453 234.241V72.1836" stroke="#009FE3" stroke-miterlimit="10" stroke-dasharray="1.24 1.24"/>
<path d="M239.453 70.4059V68.625H241.263" stroke="#009FE3" stroke-miterlimit="10"/>
<path d="M244.825 68.625H406.848" stroke="#009FE3" stroke-miterlimit="10" stroke-dasharray="1.24 1.24"/>
<path d="M408.628 68.625H410.437V70.4059" stroke="#009FE3" stroke-miterlimit="10"/>
<path d="M410.438 73.9648V236.022" stroke="#009FE3" stroke-miterlimit="10" stroke-dasharray="1.24 1.24"/>
<path d="M296.438 239.579V237.855" stroke="#009FE3" stroke-miterlimit="10"/>
<path d="M296.438 234.437V72.0352" stroke="#009FE3" stroke-miterlimit="10" stroke-dasharray="1.19 1.19"/>
<path d="M296.438 70.3484V68.625" stroke="#009FE3" stroke-miterlimit="10"/>
<path d="M353.452 239.579V237.855" stroke="#009FE3" stroke-miterlimit="10"/>
<path d="M353.452 234.437V72.0352" stroke="#009FE3" stroke-miterlimit="10" stroke-dasharray="1.19 1.19"/>
<path d="M353.452 70.3484V68.625" stroke="#009FE3" stroke-miterlimit="10"/>
<path d="M410.438 125.613H408.714" stroke="#009FE3" stroke-miterlimit="10"/>
<path d="M405.296 125.613H242.9" stroke="#009FE3" stroke-miterlimit="10" stroke-dasharray="1.19 1.19"/>
<path d="M241.176 125.613H239.453" stroke="#009FE3" stroke-miterlimit="10"/>
<path d="M410.438 182.598H408.714" stroke="#009FE3" stroke-miterlimit="10"/>
<path d="M405.296 182.598H242.9" stroke="#009FE3" stroke-miterlimit="10" stroke-dasharray="1.19 1.19"/>
<path d="M241.176 182.598H239.453" stroke="#009FE3" stroke-miterlimit="10"/>
<path d="M296.438 182.598H239.453V239.585H296.438V182.598Z" fill="#FAC393"/>
<path d="M296.438 182.598H239.453V239.585H296.438V182.598Z" stroke="#966C44" stroke-miterlimit="10"/>
<path d="M296.438 125.609H239.453V182.597H296.438V125.609Z" fill="#FAC393"/>
<path d="M296.438 125.609H239.453V182.597H296.438V125.609Z" stroke="#966C44" stroke-miterlimit="10"/>
<path d="M296.438 68.5898H239.453V125.577H296.438V68.5898Z" fill="#FAC393"/>
<path d="M296.438 68.5898H239.453V125.577H296.438V68.5898Z" stroke="#966C44" stroke-miterlimit="10"/>
<path d="M353.424 125.609H296.438V182.597H353.424V125.609Z" fill="#FAC393"/>
<path d="M353.424 125.609H296.438V182.597H353.424V125.609Z" stroke="#966C44" stroke-miterlimit="10"/>
<path d="M410.437 125.609H353.452V182.597H410.437V125.609Z" fill="#FAC393"/>
<path d="M410.437 125.609H353.452V182.597H410.437V125.609Z" stroke="#966C44" stroke-miterlimit="10"/>
<path d="M343.256 25.3594H306.635C302.13 25.3594 298.478 29.0116 298.478 33.5168V48.137C298.478 52.6423 302.13 56.2945 306.635 56.2945H343.256C347.761 56.2945 351.413 52.6423 351.413 48.137V33.5168C351.413 29.0116 347.761 25.3594 343.256 25.3594Z" fill="#DADADA"/>
<path d="M536.644 283.9V258.422" stroke="#1D1D1B" stroke-miterlimit="10"/>
<path d="M536.643 251.332L540.722 261.328L536.643 258.944L532.536 261.328L536.643 251.332Z" fill="#1D1D1B"/>
<path d="M554.71 306.044C554.716 309.625 553.659 313.128 551.673 316.108C549.686 319.088 546.861 321.412 543.553 322.785C540.245 324.158 536.605 324.519 533.092 323.822C529.579 323.124 526.352 321.4 523.82 318.868C521.288 316.335 519.564 313.108 518.866 309.596C518.169 306.083 518.53 302.442 519.903 299.134C521.276 295.826 523.6 293 526.58 291.014C529.56 289.028 533.063 287.971 536.644 287.977C541.433 287.984 546.024 289.89 549.41 293.277C552.797 296.663 554.703 301.254 554.71 306.044Z" fill="#F7E1B1"/>
<path d="M622.122 237.801V239.582H620.341" stroke="#009FE3" stroke-miterlimit="10"/>
<path d="M616.779 239.586H454.728" stroke="#009FE3" stroke-miterlimit="10" stroke-dasharray="1.24 1.24"/>
<path d="M452.947 239.582H451.137V237.801" stroke="#009FE3" stroke-miterlimit="10"/>
<path d="M451.137 234.241V72.1836" stroke="#009FE3" stroke-miterlimit="10" stroke-dasharray="1.24 1.24"/>
<path d="M451.137 70.4059V68.625H452.947" stroke="#009FE3" stroke-miterlimit="10"/>
<path d="M456.508 68.625H618.56" stroke="#009FE3" stroke-miterlimit="10" stroke-dasharray="1.24 1.24"/>
<path d="M620.341 68.625H622.122V70.4059" stroke="#009FE3" stroke-miterlimit="10"/>
<path d="M622.121 73.9648V236.022" stroke="#009FE3" stroke-miterlimit="10" stroke-dasharray="1.24 1.24"/>
<path d="M508.151 239.579V237.855" stroke="#009FE3" stroke-miterlimit="10"/>
<path d="M508.151 234.437V72.0352" stroke="#009FE3" stroke-miterlimit="10" stroke-dasharray="1.19 1.19"/>
<path d="M508.151 70.3484V68.625" stroke="#009FE3" stroke-miterlimit="10"/>
<path d="M565.136 239.579V237.855" stroke="#009FE3" stroke-miterlimit="10"/>
<path d="M565.136 234.437V72.0352" stroke="#009FE3" stroke-miterlimit="10" stroke-dasharray="1.19 1.19"/>
<path d="M565.136 70.3484V68.625" stroke="#009FE3" stroke-miterlimit="10"/>
<path d="M622.121 125.613H620.398" stroke="#009FE3" stroke-miterlimit="10"/>
<path d="M616.98 125.613H454.584" stroke="#009FE3" stroke-miterlimit="10" stroke-dasharray="1.19 1.19"/>
<path d="M452.861 125.613H451.137" stroke="#009FE3" stroke-miterlimit="10"/>
<path d="M622.121 182.598H620.398" stroke="#009FE3" stroke-miterlimit="10"/>
<path d="M616.98 182.598H454.584" stroke="#009FE3" stroke-miterlimit="10" stroke-dasharray="1.19 1.19"/>
<path d="M452.861 182.598H451.137" stroke="#009FE3" stroke-miterlimit="10"/>
<path d="M508.122 68.5898H451.137V125.577H508.122V68.5898Z" fill="#FAC393"/>
<path d="M508.122 68.5898H451.137V125.577H508.122V68.5898Z" stroke="#966C44" stroke-miterlimit="10"/>
<path d="M508.122 125.609H451.137V182.597H508.122V125.609Z" fill="#FAC393"/>
<path d="M508.122 125.609H451.137V182.597H508.122V125.609Z" stroke="#966C44" stroke-miterlimit="10"/>
<path d="M518.319 25.3594H554.825C556.988 25.3594 559.063 26.2188 560.593 27.7486C562.123 29.2785 562.982 31.3533 562.982 33.5168V48.1657C562.982 49.2332 562.772 50.2902 562.363 51.2765C561.955 52.2627 561.356 53.1588 560.601 53.9136C559.847 54.6684 558.95 55.2672 557.964 55.6757C556.978 56.0842 555.921 56.2945 554.854 56.2945H518.319C517.251 56.2945 516.194 56.0842 515.208 55.6757C514.222 55.2672 513.326 54.6684 512.571 53.9136C511.816 53.1588 511.218 52.2627 510.809 51.2765C510.401 50.2902 510.19 49.2332 510.19 48.1657V33.5168C510.19 31.3583 511.046 29.2878 512.569 27.7588C514.093 26.2298 516.16 25.367 518.319 25.3594Z" fill="#DADADA"/>
<path d="M113.276 283.9V258.422" stroke="#1D1D1B" stroke-miterlimit="10"/>
<path d="M113.276 251.332L117.355 261.328L113.276 258.944L109.169 261.328L113.276 251.332Z" fill="#1D1D1B"/>
<path d="M131.343 306.044C131.349 309.625 130.292 313.128 128.305 316.108C126.319 319.088 123.493 321.412 120.186 322.785C116.878 324.158 113.238 324.519 109.725 323.822C106.212 323.124 102.985 321.4 100.453 318.868C97.9204 316.335 96.1964 313.108 95.4991 309.596C94.8018 306.083 95.1626 302.442 96.5357 299.134C97.9089 295.826 100.233 293 103.213 291.014C106.193 289.028 109.695 287.971 113.277 287.977C118.066 287.984 122.657 289.89 126.043 293.277C129.43 296.663 131.335 301.254 131.343 306.044Z" fill="#F7E1B1"/>
<path d="M198.754 237.801V239.582H196.944" stroke="#009FE3" stroke-miterlimit="10"/>
<path d="M193.383 239.586H31.3599" stroke="#009FE3" stroke-miterlimit="10" stroke-dasharray="1.24 1.24"/>
<path d="M29.579 239.582H27.7695V237.801" stroke="#009FE3" stroke-miterlimit="10"/>
<path d="M27.7695 234.241V72.1836" stroke="#009FE3" stroke-miterlimit="10" stroke-dasharray="1.24 1.24"/>
<path d="M27.7695 70.4059V68.625H29.579" stroke="#009FE3" stroke-miterlimit="10"/>
<path d="M33.1409 68.625H195.164" stroke="#009FE3" stroke-miterlimit="10" stroke-dasharray="1.24 1.24"/>
<path d="M196.944 68.625H198.754V70.4059" stroke="#009FE3" stroke-miterlimit="10"/>
<path d="M198.754 73.9648V236.022" stroke="#009FE3" stroke-miterlimit="10" stroke-dasharray="1.24 1.24"/>
<path d="M84.7549 239.579V237.855" stroke="#009FE3" stroke-miterlimit="10"/>
<path d="M84.7549 234.437V72.0352" stroke="#009FE3" stroke-miterlimit="10" stroke-dasharray="1.19 1.19"/>
<path d="M84.7549 70.3484V68.625" stroke="#009FE3" stroke-miterlimit="10"/>
<path d="M141.768 239.579V237.855" stroke="#009FE3" stroke-miterlimit="10"/>
<path d="M141.768 234.437V72.0352" stroke="#009FE3" stroke-miterlimit="10" stroke-dasharray="1.19 1.19"/>
<path d="M141.768 70.3484V68.625" stroke="#009FE3" stroke-miterlimit="10"/>
<path d="M198.754 125.613H197.031" stroke="#009FE3" stroke-miterlimit="10"/>
<path d="M193.612 125.613H31.2161" stroke="#009FE3" stroke-miterlimit="10" stroke-dasharray="1.19 1.19"/>
<path d="M29.4929 125.613H27.7695" stroke="#009FE3" stroke-miterlimit="10"/>
<path d="M198.754 182.598H197.031" stroke="#009FE3" stroke-miterlimit="10"/>
<path d="M193.612 182.598H31.2161" stroke="#009FE3" stroke-miterlimit="10" stroke-dasharray="1.19 1.19"/>
<path d="M29.4929 182.598H27.7695" stroke="#009FE3" stroke-miterlimit="10"/>
<path d="M84.7547 182.598H27.7695V239.585H84.7547V182.598Z" fill="#FAC393"/>
<path d="M84.7547 182.598H27.7695V239.585H84.7547V182.598Z" stroke="#966C44" stroke-miterlimit="10"/>
<path d="M84.7547 125.609H27.7695V182.597H84.7547V125.609Z" fill="#FAC393"/>
<path d="M84.7547 125.609H27.7695V182.597H84.7547V125.609Z" stroke="#966C44" stroke-miterlimit="10"/>
<path d="M141.74 125.609H84.7549V182.597H141.74V125.609Z" fill="#FAC393"/>
<path d="M141.74 125.609H84.7549V182.597H141.74V125.609Z" stroke="#966C44" stroke-miterlimit="10"/>
<path d="M198.753 125.609H141.768V182.597H198.753V125.609Z" fill="#FAC393"/>
<path d="M198.753 125.609H141.768V182.597H198.753V125.609Z" stroke="#966C44" stroke-miterlimit="10"/>
<path d="M84.7547 68.5898H27.7695V125.577H84.7547V68.5898Z" fill="#FAC393"/>
<path d="M84.7547 68.5898H27.7695V125.577H84.7547V68.5898Z" stroke="#966C44" stroke-miterlimit="10"/>
<path d="M141.74 182.598H84.7549V239.585H141.74V182.598Z" fill="#FAC393"/>
<path d="M141.74 182.598H84.7549V239.585H141.74V182.598Z" stroke="#966C44" stroke-miterlimit="10"/>
<path d="M198.753 182.598H141.768V239.585H198.753V182.598Z" fill="#FAC393"/>
<path d="M198.753 182.598H141.768V239.585H198.753V182.598Z" stroke="#966C44" stroke-miterlimit="10"/>
<path d="M94.9513 25.3594H131.572C132.644 25.3594 133.704 25.5704 134.694 25.9803C135.684 26.3903 136.583 26.9911 137.34 27.7486C138.098 28.5061 138.699 29.4054 139.109 30.3951C139.519 31.3848 139.73 32.4456 139.73 33.5168V48.1657C139.73 49.2332 139.519 50.2902 139.111 51.2765C138.702 52.2627 138.104 53.1588 137.349 53.9136C136.594 54.6684 135.698 55.2672 134.712 55.6757C133.725 56.0842 132.669 56.2945 131.601 56.2945H94.9513C92.7879 56.2945 90.7131 55.435 89.1833 53.9052C87.6536 52.3754 86.7942 50.3005 86.7942 48.137V33.4881C86.8018 31.3296 87.6646 29.2621 89.1935 27.7385C90.7224 26.2149 92.7929 25.3594 94.9513 25.3594Z" fill="#DADADA"/>
</svg>
