<svg width="506" height="301" viewBox="0 0 506 301" fill="none" xmlns="http://www.w3.org/2000/svg">
<path d="M39.0103 272.743L62.2466 262.316" stroke="#1D1D1B" stroke-miterlimit="10"/>
<path d="M68.7092 259.41L61.2701 267.252L61.7585 262.541L57.9097 259.784L68.7092 259.41Z" fill="#1D1D1B"/>
<path d="M36.1669 282.912C36.1612 286.484 35.0968 289.974 33.1082 292.942C31.1196 295.909 28.2961 298.22 24.9944 299.583C21.6927 300.946 18.061 301.3 14.5584 300.6C11.0558 299.899 7.83929 298.176 5.31554 295.649C2.79179 293.121 1.074 289.901 0.379234 286.398C-0.315535 282.894 0.0439051 279.263 1.41215 275.963C2.78039 272.663 5.096 269.843 8.06638 267.859C11.0367 265.875 14.5286 264.816 18.1005 264.816C20.4755 264.816 22.8271 265.285 25.0209 266.194C27.2147 267.104 29.2075 268.438 30.8855 270.118C32.5635 271.799 33.8937 273.794 34.7999 275.989C35.7061 278.185 36.1707 280.537 36.1669 282.912Z" fill="#F7E1B1"/>
<path d="M85.6558 132.285L133.823 147.336V204.323L85.6558 189.301V132.285Z" fill="#FAC393"/>
<path d="M174.81 130.219L133.852 147.338V204.325L174.81 187.235V130.219Z" fill="#F6A865"/>
<path d="M174.81 130.218L133.852 147.337L85.6558 132.286L126.643 115.195L174.81 130.218Z" fill="#FDDBBE"/>
<path d="M126.7 144.828C126.737 150.615 127.323 156.386 128.452 162.062C129.745 168.787 131.55 175.403 133.852 181.853" stroke="#F8B87F" stroke-linejoin="round"/>
<path d="M113.976 141.152C114.398 149.27 115.3 157.355 116.676 165.366C119.548 179.096 126.7 202.103 126.7 202.103" stroke="#F8B87F" stroke-linejoin="round"/>
<path d="M100.821 137.043C101.241 146.858 102.695 156.601 105.158 166.111C108.691 181.133 113.976 197.937 113.976 197.937" stroke="#F8B87F" stroke-linejoin="round"/>
<path d="M88.2407 133.34C88.5111 145.282 90.0906 157.158 92.9511 168.756C94.999 177.338 97.7562 185.735 101.194 193.86" stroke="#F8B87F" stroke-linejoin="round"/>
<path d="M86.0005 175.133C86.4068 178.034 86.9726 180.911 87.6952 183.75C88.4186 186.194 89.3806 188.56 90.5674 190.816" stroke="#F8B87F" stroke-linejoin="round"/>
<path d="M126.7 144.826C126.7 144.826 127.964 143.16 134.34 142.787C137.239 142.336 140.205 142.633 142.957 143.648" stroke="#FCD2AD" stroke-linejoin="round"/>
<path d="M113.976 141.151C120.418 138.795 127.222 137.58 134.082 137.561C140.965 137.279 147.86 137.644 154.676 138.653" stroke="#FCD2AD" stroke-linejoin="round"/>
<path d="M100.821 137.046C111.525 133.711 122.644 131.893 133.852 131.646C144.593 131.486 155.327 132.255 165.935 133.943" stroke="#FCD2AD" stroke-linejoin="round"/>
<path d="M86.1729 132.792C100.017 129.144 114.172 126.797 128.452 125.783C139.402 125.262 150.375 125.55 161.282 126.645" stroke="#FCD2AD" stroke-linejoin="round"/>
<path d="M109.18 122.74C114.835 120.83 120.736 119.747 126.7 119.523C131.896 119.233 137.107 119.522 142.239 120.384" stroke="#FCD2AD" stroke-linejoin="round"/>
<path d="M133.852 181.824C137.211 175.455 139.492 168.574 140.602 161.459C143.244 147.758 142.842 143.68 142.842 143.68" stroke="#F49A56" stroke-linejoin="round"/>
<path d="M138.448 202.102C138.448 202.102 144.192 193.801 149.937 169.702C152.68 159.566 154.251 149.147 154.618 138.652" stroke="#F49A56" stroke-linejoin="round"/>
<path d="M153.096 196.271C157.51 186.661 160.75 176.554 162.747 166.169C165.151 155.602 166.222 144.775 165.935 133.941" stroke="#F49A56" stroke-linejoin="round"/>
<path d="M167.199 190.815C168.9 186.812 170.255 182.67 171.249 178.435C173.144 170.479 174.523 159.047 174.523 159.047" stroke="#F49A56" stroke-linejoin="round"/>
<path d="M85.6558 132.285L133.823 147.336V204.323L85.6558 189.301V132.285Z" stroke="#966C44" stroke-linejoin="round"/>
<path d="M174.81 130.219L133.852 147.338V204.325L174.81 187.235V130.219Z" stroke="#966C44" stroke-linejoin="round"/>
<path d="M174.81 130.218L133.852 147.337L85.6558 132.286L126.643 115.195L174.81 130.218Z" stroke="#966C44" stroke-linejoin="round"/>
<path d="M44.6401 149.316L92.8075 164.367V221.355L44.6401 206.332V149.316Z" fill="#FAC393"/>
<path d="M133.794 147.254L92.8076 164.373V221.36L133.794 204.27V147.254Z" fill="#F6A865"/>
<path d="M133.794 147.253L92.8075 164.372L44.6401 149.321L85.5982 132.23L133.794 147.253Z" fill="#FDDBBE"/>
<path d="M85.6846 161.875C85.7211 167.662 86.3078 173.433 87.4366 179.109C88.7449 185.83 90.5498 192.445 92.8364 198.899" stroke="#F8B87F" stroke-linejoin="round"/>
<path d="M72.9604 158.199C73.3701 166.307 74.262 174.383 75.6316 182.384C78.5038 196.085 85.6557 219.093 85.6557 219.093" stroke="#F8B87F" stroke-linejoin="round"/>
<path d="M59.834 154.09C60.2514 163.912 61.6954 173.665 64.1423 183.187C67.6752 198.18 72.9888 214.983 72.9888 214.983" stroke="#F8B87F" stroke-linejoin="round"/>
<path d="M47.1963 150.387C47.4691 162.34 49.0584 174.226 51.9355 185.831C53.9773 194.359 56.7348 202.699 60.1788 210.763" stroke="#F8B87F" stroke-linejoin="round"/>
<path d="M44.9561 192.176C45.3635 195.079 45.9389 197.956 46.6794 200.793C47.395 203.239 48.3574 205.607 49.5517 207.859" stroke="#F8B87F" stroke-linejoin="round"/>
<path d="M85.6846 161.873C85.6846 161.873 86.9771 160.207 93.3247 159.834C96.2235 159.383 99.1894 159.679 101.941 160.695" stroke="#FCD2AD" stroke-linejoin="round"/>
<path d="M72.9604 158.199C79.4028 155.843 86.2065 154.628 93.0661 154.608C99.9402 154.325 106.826 154.691 113.631 155.7" stroke="#FCD2AD" stroke-linejoin="round"/>
<path d="M59.834 154.089C70.5284 150.756 81.637 148.938 92.836 148.689C103.586 148.529 114.33 149.297 124.948 150.987" stroke="#FCD2AD" stroke-linejoin="round"/>
<path d="M45.1284 149.839C58.9724 146.191 73.1271 143.845 87.4077 142.831C98.3572 142.308 109.33 142.596 120.237 143.693" stroke="#FCD2AD" stroke-linejoin="round"/>
<path d="M68.1353 139.786C73.7914 137.881 79.6918 136.797 85.6558 136.569C90.8609 136.281 96.0819 136.57 101.223 137.431" stroke="#FCD2AD" stroke-linejoin="round"/>
<path d="M92.8076 198.871C96.1697 192.501 98.4598 185.621 99.5861 178.506C102.229 164.805 101.826 160.727 101.826 160.727" stroke="#F49A56" stroke-linejoin="round"/>
<path d="M97.4316 219.151C97.4316 219.151 103.176 210.849 108.921 186.779C111.683 176.627 113.254 166.188 113.602 155.672" stroke="#F49A56" stroke-linejoin="round"/>
<path d="M112.08 213.318C116.494 203.708 119.734 193.601 121.731 183.216C124.135 172.649 125.206 161.822 124.919 150.988" stroke="#F49A56" stroke-linejoin="round"/>
<path d="M126.154 207.862C127.871 203.864 129.226 199.721 130.204 195.482C132.1 187.526 133.479 176.094 133.479 176.094" stroke="#F49A56" stroke-linejoin="round"/>
<path d="M44.6401 149.316L92.8075 164.367V221.355L44.6401 206.332V149.316Z" stroke="#966C44" stroke-linejoin="round"/>
<path d="M133.794 147.254L92.8076 164.373V221.36L133.794 204.27V147.254Z" stroke="#966C44" stroke-linejoin="round"/>
<path d="M133.794 147.253L92.8075 164.372L44.6401 149.321L85.5982 132.23L133.794 147.253Z" stroke="#966C44" stroke-linejoin="round"/>
<path d="M3.65332 166.52L51.8208 181.571V238.558L3.65332 223.535V166.52Z" fill="#FAC393"/>
<path d="M92.8076 164.488L51.8208 181.579V238.595L92.8076 221.475V164.488Z" fill="#F6A865"/>
<path d="M92.8076 164.481L51.8208 181.571L3.65332 166.52L44.6402 149.43L92.8076 164.481Z" fill="#FDDBBE"/>
<path d="M44.6978 179.102C44.7125 184.889 45.2895 190.66 46.421 196.336C47.7293 203.057 49.5342 209.672 51.8208 216.126" stroke="#F8B87F" stroke-linejoin="round"/>
<path d="M31.9736 175.398C32.3952 183.525 33.2967 191.62 34.6735 199.641C37.5458 213.342 44.6977 236.349 44.6977 236.349" stroke="#F8B87F" stroke-linejoin="round"/>
<path d="M18.8188 171.289C19.2363 181.112 20.6802 190.864 23.1272 200.386C26.6888 215.379 31.9737 232.183 31.9737 232.183" stroke="#F8B87F" stroke-linejoin="round"/>
<path d="M6.20947 167.613C6.50199 179.559 8.11058 191.436 11.0061 203.029C13.0454 211.567 15.803 219.917 19.2494 227.99" stroke="#F8B87F" stroke-linejoin="round"/>
<path d="M3.96924 209.379C4.3897 212.28 4.96494 215.156 5.69255 217.996C6.40102 220.445 7.36367 222.813 8.56479 225.062" stroke="#F8B87F" stroke-linejoin="round"/>
<path d="M44.6978 179.104C44.6978 179.104 45.9615 177.41 52.3379 177.036C55.2391 176.594 58.205 176.901 60.9546 177.927" stroke="#FCD2AD" stroke-linejoin="round"/>
<path d="M31.9736 175.398C38.4157 173.045 45.2207 171.839 52.0792 171.837C58.9621 171.538 65.8577 171.894 72.6732 172.9" stroke="#FCD2AD" stroke-linejoin="round"/>
<path d="M18.8188 171.292C29.5132 167.959 40.6219 166.141 51.8208 165.892C62.5709 165.732 73.3147 166.5 83.9325 168.19" stroke="#FCD2AD" stroke-linejoin="round"/>
<path d="M4.1416 167.067C17.9966 163.419 32.1599 161.063 46.4496 160.029C57.3991 159.508 68.3722 159.796 79.2793 160.891" stroke="#FCD2AD" stroke-linejoin="round"/>
<path d="M27.1768 156.986C32.8318 155.076 38.7329 153.993 44.6974 153.769C49.8929 153.479 55.1045 153.768 60.2362 154.631" stroke="#FCD2AD" stroke-linejoin="round"/>
<path d="M51.8208 216.07C55.1986 209.707 57.4896 202.824 58.5993 195.706C61.2418 182.005 60.8397 177.926 60.8397 177.926" stroke="#F49A56" stroke-linejoin="round"/>
<path d="M56.4448 236.348C56.4448 236.348 62.0457 228.047 67.9338 203.977C70.6763 193.83 72.2472 183.403 72.6155 172.898" stroke="#F49A56" stroke-linejoin="round"/>
<path d="M71.0933 230.546C75.5008 220.933 78.7408 210.827 80.7439 200.444C83.1481 189.867 84.2192 179.031 83.9322 168.188" stroke="#F49A56" stroke-linejoin="round"/>
<path d="M85.1958 225.061C86.8996 221.061 88.2454 216.919 89.217 212.681C91.1414 204.725 92.4913 193.293 92.4913 193.293" stroke="#F49A56" stroke-linejoin="round"/>
<path d="M3.65332 166.52L51.8208 181.571V238.558L3.65332 223.535V166.52Z" stroke="#966C44" stroke-linejoin="round"/>
<path d="M92.8076 164.488L51.8208 181.579V238.595L92.8076 221.475V164.488Z" stroke="#966C44" stroke-linejoin="round"/>
<path d="M92.8076 164.481L51.8208 181.571L3.65332 166.52L44.6402 149.43L92.8076 164.481Z" stroke="#966C44" stroke-linejoin="round"/>
<path d="M92.4629 164.488L140.63 179.539V236.527L92.4629 221.504V164.488Z" fill="#FAC393"/>
<path d="M181.617 162.41L140.63 179.529V236.545L181.617 219.426V162.41Z" fill="#F6A865"/>
<path d="M181.617 162.409L140.63 179.528L92.4629 164.477L133.421 147.387L181.617 162.409Z" fill="#FDDBBE"/>
<path d="M133.479 177.031C133.515 182.818 134.102 188.589 135.231 194.265C136.543 200.957 138.348 207.543 140.63 213.97" stroke="#F8B87F" stroke-linejoin="round"/>
<path d="M120.783 173.355C121.191 181.482 122.083 189.577 123.454 197.598C126.327 211.299 133.479 234.306 133.479 234.306" stroke="#F8B87F" stroke-linejoin="round"/>
<path d="M107.628 169.246C108.045 179.059 109.489 188.802 111.937 198.314C115.47 213.336 120.783 230.14 120.783 230.14" stroke="#F8B87F" stroke-linejoin="round"/>
<path d="M95.019 165.543C95.2911 177.487 96.8805 189.364 99.7582 200.959C101.801 209.505 104.558 217.864 108.002 225.948" stroke="#F8B87F" stroke-linejoin="round"/>
<path d="M92.7788 207.332C93.1863 210.235 93.7617 213.112 94.5022 215.949C95.2178 218.396 96.1801 220.763 97.3744 223.015" stroke="#F8B87F" stroke-linejoin="round"/>
<path d="M133.479 177.03C133.479 177.03 134.771 175.364 141.119 174.991C144.018 174.563 146.978 174.859 149.735 175.853" stroke="#FCD2AD" stroke-linejoin="round"/>
<path d="M120.783 173.352C127.225 170.998 134.03 169.793 140.889 169.79C147.762 169.491 154.648 169.846 161.454 170.853" stroke="#FCD2AD" stroke-linejoin="round"/>
<path d="M107.628 169.245C118.323 165.912 129.431 164.094 140.63 163.845C151.38 163.685 162.124 164.454 172.742 166.143" stroke="#FCD2AD" stroke-linejoin="round"/>
<path d="M92.9512 165.138C106.793 161.473 120.948 159.117 135.23 158.1C146.18 157.578 157.153 157.866 168.06 158.962" stroke="#FCD2AD" stroke-linejoin="round"/>
<path d="M115.958 154.942C121.614 153.037 127.514 151.953 133.478 151.725C138.683 151.437 143.904 151.726 149.046 152.587" stroke="#FCD2AD" stroke-linejoin="round"/>
<path d="M140.63 213.969C143.992 207.599 146.283 200.718 147.409 193.604C150.051 179.903 149.649 175.824 149.649 175.824" stroke="#F49A56" stroke-linejoin="round"/>
<path d="M145.254 234.304C145.254 234.304 150.855 226.003 156.743 201.904C159.512 191.782 161.093 181.371 161.454 170.883" stroke="#F49A56" stroke-linejoin="round"/>
<path d="M159.903 228.474C164.314 218.873 167.554 208.776 169.554 198.401C171.958 187.824 173.029 176.988 172.742 166.145" stroke="#F49A56" stroke-linejoin="round"/>
<path d="M173.977 223.018C175.694 219.021 177.049 214.877 178.027 210.638C179.923 202.682 181.301 191.25 181.301 191.25" stroke="#F49A56" stroke-linejoin="round"/>
<path d="M92.4629 164.488L140.63 179.539V236.527L92.4629 221.504V164.488Z" stroke="#966C44" stroke-linejoin="round"/>
<path d="M181.617 162.41L140.63 179.529V236.545L181.617 219.426V162.41Z" stroke="#966C44" stroke-linejoin="round"/>
<path d="M181.617 162.409L140.63 179.528L92.4629 164.477L133.421 147.387L181.617 162.409Z" stroke="#966C44" stroke-linejoin="round"/>
<path d="M140.63 179.531L188.798 194.554V251.569L140.63 236.518V179.531Z" fill="#FAC393"/>
<path d="M229.784 177.469L188.826 194.559V251.575L229.784 234.485V177.469Z" fill="#F6A865"/>
<path d="M229.785 177.461L188.826 194.552L140.63 179.529L181.617 162.41L229.785 177.461Z" fill="#FDDBBE"/>
<path d="M181.674 192.086C181.711 197.873 182.298 203.644 183.426 209.32C184.721 216.035 186.527 222.641 188.826 229.082" stroke="#F8B87F" stroke-linejoin="round"/>
<path d="M168.979 188.383C169.385 196.51 170.277 204.605 171.65 212.625C174.522 226.355 181.674 249.363 181.674 249.363" stroke="#F8B87F" stroke-linejoin="round"/>
<path d="M155.795 184.273C156.216 194.098 157.669 203.85 160.133 213.37C163.665 228.335 168.979 245.196 168.979 245.196" stroke="#F8B87F" stroke-linejoin="round"/>
<path d="M143.129 180.598C143.399 192.54 144.979 204.416 147.839 216.014C149.895 224.55 152.662 232.9 156.111 240.974" stroke="#F8B87F" stroke-linejoin="round"/>
<path d="M140.975 222.391C141.381 225.292 141.947 228.169 142.669 231.008C143.389 233.443 144.351 235.801 145.541 238.045" stroke="#F8B87F" stroke-linejoin="round"/>
<path d="M181.674 192.088C181.674 192.088 182.938 190.422 189.314 190.049C192.213 189.598 195.179 189.894 197.931 190.91" stroke="#FCD2AD" stroke-linejoin="round"/>
<path d="M168.979 188.382C175.424 186.041 182.227 184.836 189.085 184.821C195.958 184.523 202.844 184.878 209.65 185.884" stroke="#FCD2AD" stroke-linejoin="round"/>
<path d="M155.795 184.276C166.503 180.958 177.619 179.14 188.826 178.876C199.567 178.716 210.301 179.485 220.909 181.174" stroke="#FCD2AD" stroke-linejoin="round"/>
<path d="M141.147 180.053C154.964 176.409 169.089 174.053 183.34 173.016C194.29 172.511 205.263 172.808 216.17 173.906" stroke="#FCD2AD" stroke-linejoin="round"/>
<path d="M164.153 170C169.804 168.074 175.708 166.99 181.674 166.783C186.879 166.476 192.102 166.765 197.241 167.644" stroke="#FCD2AD" stroke-linejoin="round"/>
<path d="M188.826 229.055C192.191 222.689 194.473 215.806 195.576 208.69C198.218 194.989 197.816 190.91 197.816 190.91" stroke="#F49A56" stroke-linejoin="round"/>
<path d="M193.422 249.361C193.422 249.361 199.023 241.06 204.911 216.962C207.655 206.815 209.226 196.387 209.593 185.883" stroke="#F49A56" stroke-linejoin="round"/>
<path d="M208.099 243.53C212.518 233.917 215.777 223.812 217.807 213.428C220.212 202.851 221.283 192.015 220.995 181.172" stroke="#F49A56" stroke-linejoin="round"/>
<path d="M222.173 238.044C223.877 234.052 225.232 229.919 226.223 225.693C228.118 217.737 229.497 206.305 229.497 206.305" stroke="#F49A56" stroke-linejoin="round"/>
<path d="M140.63 179.531L188.798 194.554V251.569L140.63 236.518V179.531Z" stroke="#966C44" stroke-linejoin="round"/>
<path d="M229.784 177.469L188.826 194.559V251.575L229.784 234.485V177.469Z" stroke="#966C44" stroke-linejoin="round"/>
<path d="M229.785 177.461L188.826 194.552L140.63 179.529L181.617 162.41L229.785 177.461Z" stroke="#966C44" stroke-linejoin="round"/>
<path d="M51.8496 181.461L100.017 196.483V253.499L51.8496 238.448V181.461Z" fill="#FAC393"/>
<path d="M141.004 179.387L100.017 196.477V253.493L141.004 236.403V179.387Z" fill="#F6A865"/>
<path d="M141.004 179.386L100.017 196.476L51.8496 181.454L92.8077 164.363L141.004 179.386Z" fill="#FDDBBE"/>
<path d="M92.8652 194.004C92.9018 199.791 93.4884 205.562 94.6173 211.238C95.9411 217.949 97.7555 224.554 100.046 231" stroke="#F8B87F" stroke-linejoin="round"/>
<path d="M80.1699 190.301C80.5664 198.427 81.4488 206.522 82.8124 214.543C85.6847 228.331 92.8652 251.309 92.8652 251.309" stroke="#F8B87F" stroke-linejoin="round"/>
<path d="M67.0151 186.191C67.4326 196.014 68.8765 205.766 71.3235 215.288C74.8563 230.311 80.1699 247.114 80.1699 247.114" stroke="#F8B87F" stroke-linejoin="round"/>
<path d="M54.4058 182.516C54.6778 194.459 56.2673 206.337 59.145 217.932C61.1843 226.469 63.9419 234.819 67.3883 242.892" stroke="#F8B87F" stroke-linejoin="round"/>
<path d="M52.1655 224.309C52.573 227.212 53.1484 230.089 53.8889 232.926C54.6012 235.364 55.5637 237.722 56.7611 239.963" stroke="#F8B87F" stroke-linejoin="round"/>
<path d="M92.8652 194.006C92.8652 194.006 94.1578 192.34 100.505 191.966C103.404 191.516 106.37 191.812 109.122 192.828" stroke="#FCD2AD" stroke-linejoin="round"/>
<path d="M80.1699 190.3C86.6166 187.963 93.4186 186.758 100.276 186.738C107.149 186.456 114.033 186.812 120.841 187.801" stroke="#FCD2AD" stroke-linejoin="round"/>
<path d="M67.0151 186.194C77.7225 182.874 88.8388 181.057 100.046 180.794C110.797 180.634 121.542 181.412 132.157 183.121" stroke="#FCD2AD" stroke-linejoin="round"/>
<path d="M52.3379 181.972C66.1819 178.324 80.3365 175.978 94.6171 174.964C105.567 174.441 116.54 174.729 127.447 175.825" stroke="#FCD2AD" stroke-linejoin="round"/>
<path d="M75.3447 171.918C81.0009 170.012 86.9013 168.929 92.8654 168.701C98.0704 168.394 103.294 168.683 108.433 169.562" stroke="#FCD2AD" stroke-linejoin="round"/>
<path d="M100.046 231.001C103.411 224.622 105.701 217.732 106.824 210.608C109.467 196.907 109.065 192.828 109.065 192.828" stroke="#F49A56" stroke-linejoin="round"/>
<path d="M104.641 251.311C104.641 251.311 110.242 243.01 116.13 218.911C118.893 208.768 120.464 198.338 120.812 187.832" stroke="#F49A56" stroke-linejoin="round"/>
<path d="M119.29 245.564C123.697 235.952 126.937 225.845 128.94 215.462C131.345 204.895 132.416 194.068 132.128 183.234" stroke="#F49A56" stroke-linejoin="round"/>
<path d="M133.364 239.962C135.084 235.976 136.439 231.842 137.414 227.611C139.309 219.655 140.688 208.223 140.688 208.223" stroke="#F49A56" stroke-linejoin="round"/>
<path d="M51.8496 181.461L100.017 196.483V253.499L51.8496 238.448V181.461Z" stroke="#966C44" stroke-linejoin="round"/>
<path d="M141.004 179.387L100.017 196.477V253.493L141.004 236.403V179.387Z" stroke="#966C44" stroke-linejoin="round"/>
<path d="M141.004 179.386L100.017 196.476L51.8496 181.454L92.8077 164.363L141.004 179.386Z" stroke="#966C44" stroke-linejoin="round"/>
<path d="M99.6724 196.508L147.84 211.53V268.546L99.6724 253.495V196.508Z" fill="#FAC393"/>
<path d="M188.827 194.445L147.84 211.536V268.552L188.827 251.461V194.445Z" fill="#F6A865"/>
<path d="M188.827 194.438L147.84 211.528L99.6724 196.506L140.63 179.387L188.827 194.438Z" fill="#FDDBBE"/>
<path d="M140.688 209.062C140.724 214.85 141.311 220.62 142.44 226.297C143.75 233.008 145.555 239.613 147.839 246.058" stroke="#F8B87F" stroke-linejoin="round"/>
<path d="M127.992 205.359C128.398 213.486 129.29 221.582 130.663 229.602C133.536 243.303 140.687 266.339 140.687 266.339" stroke="#F8B87F" stroke-linejoin="round"/>
<path d="M114.837 201.25C115.255 211.073 116.699 220.825 119.146 230.347C122.679 245.369 127.992 262.172 127.992 262.172" stroke="#F8B87F" stroke-linejoin="round"/>
<path d="M102.229 197.574C102.501 209.518 104.09 221.395 106.968 232.99C109.007 241.528 111.765 249.878 115.211 257.951" stroke="#F8B87F" stroke-linejoin="round"/>
<path d="M100.045 239.367C100.45 242.271 101.026 245.148 101.769 247.984C102.478 250.433 103.44 252.801 104.641 255.05" stroke="#F8B87F" stroke-linejoin="round"/>
<path d="M140.688 209.064C140.688 209.064 141.98 207.398 148.328 207.025C151.226 206.574 154.192 206.871 156.944 207.887" stroke="#FCD2AD" stroke-linejoin="round"/>
<path d="M127.992 205.36C134.439 203.023 141.241 201.818 148.098 201.798C154.971 201.498 161.857 201.854 168.663 202.861" stroke="#FCD2AD" stroke-linejoin="round"/>
<path d="M114.837 201.253C125.536 197.936 136.642 196.118 147.839 195.853C158.591 195.692 169.335 196.471 179.951 198.179" stroke="#FCD2AD" stroke-linejoin="round"/>
<path d="M100.045 197.03C113.89 193.381 128.044 191.025 142.325 189.993C153.275 189.487 164.248 189.785 175.154 190.883" stroke="#FCD2AD" stroke-linejoin="round"/>
<path d="M123.167 186.976C128.819 185.054 134.722 183.97 140.688 183.759C145.893 183.452 151.116 183.742 156.255 184.621" stroke="#FCD2AD" stroke-linejoin="round"/>
<path d="M147.839 246.031C151.208 239.664 153.499 232.783 154.618 225.666C157.26 211.965 156.858 207.887 156.858 207.887" stroke="#F49A56" stroke-linejoin="round"/>
<path d="M152.464 266.338C152.464 266.338 158.065 258.037 163.953 233.938C166.715 223.796 168.287 213.366 168.635 202.859" stroke="#F49A56" stroke-linejoin="round"/>
<path d="M167.112 260.509C171.52 250.897 174.76 240.791 176.763 230.407C179.167 219.84 180.239 209.013 179.951 198.18" stroke="#F49A56" stroke-linejoin="round"/>
<path d="M181.186 255.021C182.906 251.034 184.261 246.9 185.236 242.67C187.132 234.713 188.51 223.281 188.51 223.281" stroke="#F49A56" stroke-linejoin="round"/>
<path d="M99.6724 196.508L147.84 211.53V268.546L99.6724 253.495V196.508Z" stroke="#966C44" stroke-linejoin="round"/>
<path d="M188.827 194.445L147.84 211.536V268.552L188.827 251.461V194.445Z" stroke="#966C44" stroke-linejoin="round"/>
<path d="M188.827 194.438L147.84 211.528L99.6724 196.506L140.63 179.387L188.827 194.438Z" stroke="#966C44" stroke-linejoin="round"/>
<path d="M85.6558 75.2656L133.823 90.3166V147.333L85.6558 132.281V75.2656Z" fill="#FAC393"/>
<path d="M174.81 73.2344L133.852 90.3248V147.341L174.81 130.222V73.2344Z" fill="#F6A865"/>
<path d="M174.81 73.2268L133.852 90.3172L85.6558 75.2662L126.643 58.1758L174.81 73.2268Z" fill="#FDDBBE"/>
<path d="M126.7 87.8477C126.736 93.6349 127.322 99.4057 128.452 105.082C129.742 111.826 131.547 118.461 133.852 124.93" stroke="#F8B87F" stroke-linejoin="round"/>
<path d="M113.976 84.1445C114.398 92.2715 115.299 100.366 116.676 108.387C119.548 122.088 126.7 145.096 126.7 145.096" stroke="#F8B87F" stroke-linejoin="round"/>
<path d="M100.821 80.0352C101.242 89.8594 102.695 99.6122 105.158 109.132C108.691 124.126 113.976 140.929 113.976 140.929" stroke="#F8B87F" stroke-linejoin="round"/>
<path d="M88.2407 76.3594C88.5127 88.3013 90.0922 100.177 92.9511 111.775C95.0066 120.308 97.7637 128.657 101.194 136.736" stroke="#F8B87F" stroke-linejoin="round"/>
<path d="M86.0005 118.125C86.404 121.027 86.9698 123.904 87.6952 126.742C88.4186 129.186 89.3806 131.553 90.5674 133.808" stroke="#F8B87F" stroke-linejoin="round"/>
<path d="M126.7 87.8504C126.7 87.8504 127.964 86.1557 134.34 85.7823C137.242 85.3406 140.207 85.647 142.957 86.6727" stroke="#FCD2AD" stroke-linejoin="round"/>
<path d="M113.976 84.1446C120.418 81.7909 127.223 80.5854 134.082 80.5829C140.965 80.284 147.86 80.6398 154.676 81.6456" stroke="#FCD2AD" stroke-linejoin="round"/>
<path d="M100.821 80.0378C111.525 76.7029 122.644 74.8852 133.852 74.6378C144.593 74.4782 155.327 75.247 165.935 76.9356" stroke="#FCD2AD" stroke-linejoin="round"/>
<path d="M86.1729 75.8147C100.018 72.1657 114.172 69.8098 128.452 68.7774C139.402 68.2544 150.376 68.552 161.282 69.6679" stroke="#FCD2AD" stroke-linejoin="round"/>
<path d="M109.18 65.7319C114.835 63.8223 120.736 62.7388 126.7 62.5149C131.896 62.2255 137.107 62.5146 142.239 63.3766" stroke="#FCD2AD" stroke-linejoin="round"/>
<path d="M133.852 124.93C137.211 118.561 139.492 111.679 140.602 104.565C143.244 90.8639 142.842 86.7852 142.842 86.7852" stroke="#F49A56" stroke-linejoin="round"/>
<path d="M138.448 145.037C138.448 145.037 144.192 136.736 149.937 112.666C152.675 102.538 154.246 92.1296 154.618 81.6445" stroke="#F49A56" stroke-linejoin="round"/>
<path d="M153.096 139.292C157.504 129.679 160.744 119.573 162.747 109.19C165.151 98.6129 166.222 87.7766 165.935 76.9336" stroke="#F49A56" stroke-linejoin="round"/>
<path d="M167.199 133.807C168.905 129.806 170.26 125.664 171.249 121.427C173.144 113.471 174.523 102.039 174.523 102.039" stroke="#F49A56" stroke-linejoin="round"/>
<path d="M85.6558 75.2656L133.823 90.3166V147.333L85.6558 132.281V75.2656Z" stroke="#966C44" stroke-linejoin="round"/>
<path d="M174.81 73.2344L133.852 90.3248V147.341L174.81 130.222V73.2344Z" stroke="#966C44" stroke-linejoin="round"/>
<path d="M174.81 73.2268L133.852 90.3172L85.6558 75.2662L126.643 58.1758L174.81 73.2268Z" stroke="#966C44" stroke-linejoin="round"/>
<path d="M85.6558 18.2539L133.823 33.305V90.3208L85.6558 75.2698V18.2539Z" fill="#FAC393"/>
<path d="M174.81 16.2148L133.852 33.3053V90.3212L174.81 73.2021V16.2148Z" fill="#F6A865"/>
<path d="M174.81 16.2073L133.852 33.2977L85.6558 18.2754L126.643 1.15625L174.81 16.2073Z" fill="#FDDBBE"/>
<path d="M126.7 30.8281C126.738 36.6153 127.325 42.3858 128.452 48.0622C129.747 54.7771 131.552 61.3835 133.852 67.8238" stroke="#F8B87F" stroke-linejoin="round"/>
<path d="M113.976 27.2656C114.398 35.3926 115.299 43.4876 116.676 51.5082C119.548 65.2092 126.7 88.2454 126.7 88.2454" stroke="#F8B87F" stroke-linejoin="round"/>
<path d="M100.821 23.0156C101.242 32.8399 102.695 42.5926 105.158 52.1124C108.691 67.106 113.976 83.9379 113.976 83.9379" stroke="#F8B87F" stroke-linejoin="round"/>
<path d="M88.2407 19.3398C88.5111 31.2819 90.0906 43.1582 92.9511 54.7558C95.0066 63.2889 97.7637 71.6375 101.194 79.7164" stroke="#F8B87F" stroke-linejoin="round"/>
<path d="M86.0005 61.1016C86.404 64.0033 86.9698 66.8801 87.6952 69.7186C88.4119 72.1647 89.3742 74.5321 90.5674 76.7845" stroke="#F8B87F" stroke-linejoin="round"/>
<path d="M126.7 30.83C126.7 30.83 127.964 29.1641 134.34 28.7907C137.239 28.3398 140.205 28.6364 142.957 29.6524" stroke="#FCD2AD" stroke-linejoin="round"/>
<path d="M113.976 27.2657C120.423 24.929 127.225 23.724 134.082 23.704C140.965 23.405 147.86 23.7609 154.676 24.7667" stroke="#FCD2AD" stroke-linejoin="round"/>
<path d="M100.821 23.0143C111.529 19.6959 122.645 17.8785 133.852 17.6143C144.593 17.4547 155.327 18.2235 165.935 19.9122" stroke="#FCD2AD" stroke-linejoin="round"/>
<path d="M86.1729 18.7951C100.018 15.1462 114.172 12.7903 128.452 11.7579C139.402 11.2349 150.376 11.5325 161.282 12.6483" stroke="#FCD2AD" stroke-linejoin="round"/>
<path d="M109.18 8.74012C114.831 6.8125 120.733 5.71909 126.7 5.49438C131.897 5.2036 137.11 5.50231 142.239 6.3848" stroke="#FCD2AD" stroke-linejoin="round"/>
<path d="M133.852 67.7958C137.223 61.4117 139.505 54.5093 140.602 47.3735C143.244 33.6725 142.842 29.5938 142.842 29.5938" stroke="#F49A56" stroke-linejoin="round"/>
<path d="M138.448 88.0749C138.448 88.0749 144.192 79.8026 149.937 55.7037C152.679 45.557 154.25 35.1294 154.618 24.625" stroke="#F49A56" stroke-linejoin="round"/>
<path d="M153.096 82.2725C157.504 72.66 160.744 62.5539 162.747 52.1704C165.151 41.5934 166.222 30.7571 165.935 19.9141" stroke="#F49A56" stroke-linejoin="round"/>
<path d="M167.199 76.7862C168.905 72.785 170.26 68.6427 171.249 64.4064C173.144 56.4788 174.523 45.0469 174.523 45.0469" stroke="#F49A56" stroke-linejoin="round"/>
<path d="M85.6558 18.2539L133.823 33.305V90.3208L85.6558 75.2698V18.2539Z" stroke="#966C44" stroke-linejoin="round"/>
<path d="M174.81 16.2148L133.852 33.3053V90.3212L174.81 73.2021V16.2148Z" stroke="#966C44" stroke-linejoin="round"/>
<path d="M174.81 16.2073L133.852 33.2977L85.6558 18.2754L126.643 1.15625L174.81 16.2073Z" stroke="#966C44" stroke-linejoin="round"/>
<path d="M44.6401 92.2969L92.8075 107.348V164.335L44.6401 149.313V92.2969Z" fill="#FAC393"/>
<path d="M133.794 90.2656L92.8076 107.356V164.372L133.794 147.253V90.2656Z" fill="#F6A865"/>
<path d="M133.794 90.2581L92.8075 107.348L44.6401 92.2974L85.5982 75.207L133.794 90.2581Z" fill="#FDDBBE"/>
<path d="M85.6846 104.82C85.7222 110.607 86.3088 116.378 87.4366 122.054C88.7473 128.766 90.5521 135.371 92.8364 141.816" stroke="#F8B87F" stroke-linejoin="round"/>
<path d="M72.9604 101.172C73.3664 109.299 74.2584 117.394 75.6316 125.414C78.4751 139.115 85.6844 162.266 85.6844 162.266" stroke="#F8B87F" stroke-linejoin="round"/>
<path d="M59.834 97.0664C60.2514 106.889 61.6954 116.641 64.1423 126.163C67.6752 141.157 72.9888 157.96 72.9888 157.96" stroke="#F8B87F" stroke-linejoin="round"/>
<path d="M47.1963 93.332C47.47 105.276 49.0593 117.153 51.9355 128.748C53.9779 137.266 56.7354 145.597 60.1788 153.651" stroke="#F8B87F" stroke-linejoin="round"/>
<path d="M44.9561 135.152C45.3609 138.056 45.9363 140.933 46.6794 143.769C47.395 146.216 48.3574 148.583 49.5517 150.835" stroke="#F8B87F" stroke-linejoin="round"/>
<path d="M85.6846 104.822C85.6846 104.822 86.9771 103.128 93.3247 102.783C96.2235 102.332 99.1894 102.629 101.941 103.645" stroke="#FCD2AD" stroke-linejoin="round"/>
<path d="M72.9604 101.172C79.4025 98.8187 86.2075 97.6132 93.0661 97.6107C99.9394 97.3108 106.826 97.6667 113.631 98.6735" stroke="#FCD2AD" stroke-linejoin="round"/>
<path d="M59.834 97.0652C70.5284 93.7322 81.637 91.9146 92.836 91.6652C103.586 91.5051 114.33 92.2739 124.948 93.9631" stroke="#FCD2AD" stroke-linejoin="round"/>
<path d="M45.1284 92.8428C58.9734 89.1938 73.1272 86.838 87.4077 85.8055C98.3578 85.2813 109.332 85.579 120.237 86.696" stroke="#FCD2AD" stroke-linejoin="round"/>
<path d="M68.1353 82.7906C73.7969 80.8642 79.7084 79.7709 85.6846 79.5449C90.8907 79.2546 96.113 79.5533 101.252 80.4353" stroke="#FCD2AD" stroke-linejoin="round"/>
<path d="M92.8076 141.848C96.1697 135.478 98.4598 128.597 99.5861 121.483C102.229 107.782 101.826 103.703 101.826 103.703" stroke="#F49A56" stroke-linejoin="round"/>
<path d="M97.4316 162.266C97.4316 162.266 103.176 153.965 108.921 129.895C111.681 119.752 113.253 109.323 113.602 98.8164" stroke="#F49A56" stroke-linejoin="round"/>
<path d="M112.08 156.323C116.488 146.711 119.728 136.605 121.731 126.221C124.135 115.644 125.206 104.808 124.919 93.9648" stroke="#F49A56" stroke-linejoin="round"/>
<path d="M126.154 150.778C127.876 146.783 129.232 142.639 130.204 138.399C132.1 130.471 133.479 119.039 133.479 119.039" stroke="#F49A56" stroke-linejoin="round"/>
<path d="M44.6401 92.2969L92.8075 107.348V164.335L44.6401 149.313V92.2969Z" stroke="#966C44" stroke-linejoin="round"/>
<path d="M133.794 90.2656L92.8076 107.356V164.372L133.794 147.253V90.2656Z" stroke="#966C44" stroke-linejoin="round"/>
<path d="M133.794 90.2581L92.8075 107.348L44.6401 92.2974L85.5982 75.207L133.794 90.2581Z" stroke="#966C44" stroke-linejoin="round"/>
<path d="M44.6401 35.3086L92.8075 50.3309V107.347L44.6401 92.2958V35.3086Z" fill="#FAC393"/>
<path d="M133.794 33.2461L92.8076 50.3365V107.352L133.794 90.2333V33.2461Z" fill="#F6A865"/>
<path d="M133.794 33.2503L92.8075 50.3407L44.6401 35.3184L85.5982 18.1992L133.794 33.2503Z" fill="#FDDBBE"/>
<path d="M85.6846 47.8633C85.7222 53.6504 86.3088 59.421 87.4366 65.0973C88.7447 71.7592 90.54 78.3162 92.8077 84.7154" stroke="#F8B87F" stroke-linejoin="round"/>
<path d="M72.9604 44.1602C73.3664 52.2871 74.2584 60.3824 75.6316 68.4027C78.5038 82.1037 85.6557 105.14 85.6557 105.14" stroke="#F8B87F" stroke-linejoin="round"/>
<path d="M59.834 40.0508C60.2514 49.8734 61.6954 59.6255 64.1423 69.1476C67.6752 84.1699 72.9888 100.973 72.9888 100.973" stroke="#F8B87F" stroke-linejoin="round"/>
<path d="M47.1963 36.375C47.4684 48.3187 49.0577 60.1959 51.9355 71.7909C53.9748 80.3286 56.7324 88.6786 60.1788 96.7515" stroke="#F8B87F" stroke-linejoin="round"/>
<path d="M44.9561 78.1406C45.3609 81.0443 45.9363 83.9216 46.6794 86.7576C47.3885 89.2064 48.3511 91.5746 49.5517 93.8236" stroke="#F8B87F" stroke-linejoin="round"/>
<path d="M85.6846 47.8652C85.6846 47.8652 86.9771 46.1993 93.3247 45.8258C96.2235 45.375 99.1894 45.6716 101.941 46.6876" stroke="#FCD2AD" stroke-linejoin="round"/>
<path d="M72.9604 44.1607C79.4071 41.824 86.2091 40.619 93.0661 40.599C99.9394 40.2991 106.826 40.655 113.631 41.6618" stroke="#FCD2AD" stroke-linejoin="round"/>
<path d="M59.834 40.0535C70.5322 36.7366 81.6386 34.9193 92.836 34.6535C103.586 34.4934 114.33 35.2622 124.948 36.9514" stroke="#FCD2AD" stroke-linejoin="round"/>
<path d="M45.1284 35.8856C58.9734 32.2366 73.1272 29.8808 87.4077 28.8484C98.358 28.3424 109.331 28.64 120.237 29.7388" stroke="#FCD2AD" stroke-linejoin="round"/>
<path d="M68.1353 25.7769C73.7871 23.8551 79.6899 22.7712 85.6558 22.5599C90.8609 22.2532 96.084 22.5423 101.223 23.4216" stroke="#FCD2AD" stroke-linejoin="round"/>
<path d="M92.8076 84.7182C96.1497 78.4311 98.4395 71.6391 99.5861 64.6118C102.229 50.9108 101.826 46.832 101.826 46.832" stroke="#F49A56" stroke-linejoin="round"/>
<path d="M97.4316 105.14C97.4316 105.14 103.176 96.8391 108.921 72.7402C111.695 62.5896 113.276 52.1499 113.631 41.6328" stroke="#F49A56" stroke-linejoin="round"/>
<path d="M112.08 99.3077C116.488 89.6951 119.728 79.589 121.731 69.2056C124.136 58.6287 125.207 47.7923 124.919 36.9492" stroke="#F49A56" stroke-linejoin="round"/>
<path d="M126.154 93.8214C127.876 89.826 129.232 85.6823 130.204 81.4416C132.1 73.5139 133.479 62.082 133.479 62.082" stroke="#F49A56" stroke-linejoin="round"/>
<path d="M44.6401 35.3086L92.8075 50.3309V107.347L44.6401 92.2958V35.3086Z" stroke="#966C44" stroke-linejoin="round"/>
<path d="M133.794 33.2461L92.8076 50.3365V107.352L133.794 90.2333V33.2461Z" stroke="#966C44" stroke-linejoin="round"/>
<path d="M133.794 33.2503L92.8075 50.3407L44.6401 35.3184L85.5982 18.1992L133.794 33.2503Z" stroke="#966C44" stroke-linejoin="round"/>
<path d="M92.4629 107.465L140.63 122.516V179.532L92.4629 164.481V107.465Z" fill="#FAC393"/>
<path d="M181.617 105.426L140.63 122.516V179.532L181.617 162.413V105.426Z" fill="#F6A865"/>
<path d="M181.617 105.43L140.63 122.52L92.4629 107.469L133.421 90.3789L181.617 105.43Z" fill="#FDDBBE"/>
<path d="M133.479 120.051C133.514 125.838 134.101 131.609 135.231 137.285C136.539 144.006 138.344 150.621 140.63 157.075" stroke="#F8B87F" stroke-linejoin="round"/>
<path d="M120.783 116.316C121.189 124.443 122.081 132.539 123.454 140.559C126.327 154.26 133.479 177.267 133.479 177.267" stroke="#F8B87F" stroke-linejoin="round"/>
<path d="M107.628 112.238C108.046 122.061 109.49 131.813 111.937 141.335C115.47 156.329 120.783 173.161 120.783 173.161" stroke="#F8B87F" stroke-linejoin="round"/>
<path d="M95.019 108.562C95.2928 120.506 96.8821 132.383 99.7582 143.978C101.798 152.516 104.555 160.866 108.002 168.939" stroke="#F8B87F" stroke-linejoin="round"/>
<path d="M92.7788 150.324C93.1836 153.228 93.7591 156.105 94.5022 158.941C95.2178 161.388 96.1801 163.755 97.3744 166.007" stroke="#F8B87F" stroke-linejoin="round"/>
<path d="M133.479 120.053C133.479 120.053 134.771 118.358 141.119 118.013C144.017 117.562 146.983 117.859 149.735 118.875" stroke="#FCD2AD" stroke-linejoin="round"/>
<path d="M120.783 116.317C127.225 113.963 134.03 112.758 140.889 112.755C147.762 112.455 154.648 112.811 161.454 113.818" stroke="#FCD2AD" stroke-linejoin="round"/>
<path d="M107.628 112.237C118.327 108.92 129.433 107.103 140.63 106.837C151.38 106.677 162.124 107.446 172.742 109.135" stroke="#FCD2AD" stroke-linejoin="round"/>
<path d="M92.9512 108.017C106.796 104.368 120.95 102.012 135.23 100.979C146.18 100.457 157.153 100.745 168.06 101.841" stroke="#FCD2AD" stroke-linejoin="round"/>
<path d="M115.958 97.9625C121.61 96.0388 127.512 94.9455 133.478 94.7167C138.684 94.4265 143.907 94.7252 149.046 95.6072" stroke="#FCD2AD" stroke-linejoin="round"/>
<path d="M140.63 157.02C143.999 150.652 146.29 143.771 147.409 136.655C150.051 122.954 149.649 118.875 149.649 118.875" stroke="#F49A56" stroke-linejoin="round"/>
<path d="M145.254 177.298C145.254 177.298 150.855 169.025 156.743 144.926C159.504 134.783 161.075 124.354 161.425 113.848" stroke="#F49A56" stroke-linejoin="round"/>
<path d="M159.903 171.495C164.31 161.883 167.55 151.777 169.554 141.393C171.958 130.816 173.029 119.98 172.742 109.137" stroke="#F49A56" stroke-linejoin="round"/>
<path d="M173.977 166.007C175.698 162.021 177.053 157.887 178.027 153.656C179.923 145.7 181.301 134.297 181.301 134.297" stroke="#F49A56" stroke-linejoin="round"/>
<path d="M92.4629 107.465L140.63 122.516V179.532L92.4629 164.481V107.465Z" stroke="#966C44" stroke-linejoin="round"/>
<path d="M181.617 105.426L140.63 122.516V179.532L181.617 162.413V105.426Z" stroke="#966C44" stroke-linejoin="round"/>
<path d="M181.617 105.43L140.63 122.52L92.4629 107.469L133.421 90.3789L181.617 105.43Z" stroke="#966C44" stroke-linejoin="round"/>
<path d="M140.63 122.512L188.798 137.534V194.55L140.63 179.499V122.512Z" fill="#FAC393"/>
<path d="M229.784 120.449L188.826 137.54V194.556L229.784 177.465V120.449Z" fill="#F6A865"/>
<path d="M229.785 120.453L188.826 137.544L140.63 122.521L181.617 105.402L229.785 120.453Z" fill="#FDDBBE"/>
<path d="M181.674 135.066C181.711 140.854 182.298 146.624 183.426 152.3C184.719 159.025 186.524 165.641 188.826 172.091" stroke="#F8B87F" stroke-linejoin="round"/>
<path d="M168.979 131.363C169.385 139.49 170.277 147.585 171.65 155.606C174.522 169.336 181.674 192.343 181.674 192.343" stroke="#F8B87F" stroke-linejoin="round"/>
<path d="M155.795 127.254C156.214 137.078 157.668 146.831 160.133 156.351C163.665 171.373 168.979 188.119 168.979 188.119" stroke="#F8B87F" stroke-linejoin="round"/>
<path d="M143.129 123.578C143.399 135.52 144.979 147.397 147.839 158.994C149.895 167.531 152.662 175.88 156.111 183.955" stroke="#F8B87F" stroke-linejoin="round"/>
<path d="M140.975 165.371C141.381 168.272 141.947 171.149 142.669 173.988C143.389 176.424 144.351 178.781 145.541 181.025" stroke="#F8B87F" stroke-linejoin="round"/>
<path d="M181.674 135.068C181.674 135.068 182.938 133.402 189.314 133.029C192.213 132.578 195.179 132.875 197.931 133.891" stroke="#FCD2AD" stroke-linejoin="round"/>
<path d="M168.979 131.361C175.424 129.02 182.227 127.815 189.085 127.8C195.958 127.52 202.842 127.875 209.65 128.862" stroke="#FCD2AD" stroke-linejoin="round"/>
<path d="M155.795 127.255C166.503 123.939 177.62 122.131 188.826 121.884C199.567 121.707 210.303 122.476 220.909 124.182" stroke="#FCD2AD" stroke-linejoin="round"/>
<path d="M141.147 123.033C154.964 119.39 169.089 117.034 183.34 115.996C194.29 115.491 205.263 115.789 216.17 116.887" stroke="#FCD2AD" stroke-linejoin="round"/>
<path d="M164.153 112.98C169.804 111.054 175.708 109.97 181.674 109.763C186.879 109.456 192.102 109.745 197.241 110.625" stroke="#FCD2AD" stroke-linejoin="round"/>
<path d="M188.826 172.064C192.188 165.686 194.468 158.795 195.576 151.67C198.218 137.998 197.816 133.891 197.816 133.891" stroke="#F49A56" stroke-linejoin="round"/>
<path d="M193.422 192.342C193.422 192.342 199.023 184.041 204.911 159.942C207.655 149.796 209.226 139.368 209.593 128.863" stroke="#F49A56" stroke-linejoin="round"/>
<path d="M208.099 186.512C212.509 176.935 215.768 166.869 217.807 156.525C220.211 145.957 221.282 135.13 220.995 124.297" stroke="#F49A56" stroke-linejoin="round"/>
<path d="M222.173 181.024C223.877 177.032 225.232 172.9 226.223 168.673C228.118 160.717 229.497 149.285 229.497 149.285" stroke="#F49A56" stroke-linejoin="round"/>
<path d="M140.63 122.512L188.798 137.534V194.55L140.63 179.499V122.512Z" stroke="#966C44" stroke-linejoin="round"/>
<path d="M229.784 120.449L188.826 137.54V194.556L229.784 177.465V120.449Z" stroke="#966C44" stroke-linejoin="round"/>
<path d="M229.785 120.453L188.826 137.544L140.63 122.521L181.617 105.402L229.785 120.453Z" stroke="#966C44" stroke-linejoin="round"/>
<path d="M3.65332 109.508L51.8208 124.559V181.575L3.65332 166.524V109.508Z" fill="#FAC393"/>
<path d="M92.8076 107.465L51.8208 124.555V181.571L92.8076 164.452V107.465Z" fill="#F6A865"/>
<path d="M92.8076 107.473L51.8208 124.563L3.65332 109.541L44.6402 92.4219L92.8076 107.473Z" fill="#FDDBBE"/>
<path d="M44.6978 122.055C44.7125 127.842 45.2895 133.613 46.421 139.289C47.7293 146.01 49.5342 152.625 51.8208 159.079" stroke="#F8B87F" stroke-linejoin="round"/>
<path d="M31.9736 118.379C32.3952 126.506 33.2967 134.601 34.6735 142.621C37.5458 156.322 44.6977 179.33 44.6977 179.33" stroke="#F8B87F" stroke-linejoin="round"/>
<path d="M18.8188 114.27C19.2363 124.092 20.6802 133.844 23.1272 143.366C26.6888 158.36 31.9737 175.163 31.9737 175.163" stroke="#F8B87F" stroke-linejoin="round"/>
<path d="M6.20947 110.562C6.49989 122.518 8.10849 134.405 11.0061 146.007C13.0315 154.514 15.7698 162.835 19.192 170.882" stroke="#F8B87F" stroke-linejoin="round"/>
<path d="M3.96924 152.355C4.3897 155.256 4.96494 158.133 5.69255 160.972C6.40102 163.422 7.36367 165.79 8.56479 168.038" stroke="#F8B87F" stroke-linejoin="round"/>
<path d="M44.6978 122.053C44.6978 122.053 45.9615 120.358 52.3379 120.013C55.2367 119.562 58.2025 119.859 60.9546 120.875" stroke="#FCD2AD" stroke-linejoin="round"/>
<path d="M31.9736 118.379C38.4157 116.025 45.2207 114.82 52.0792 114.817C58.9621 114.518 65.8577 114.874 72.6732 115.88" stroke="#FCD2AD" stroke-linejoin="round"/>
<path d="M18.8188 114.268C29.5132 110.935 40.6219 109.118 51.8208 108.868C62.5709 108.708 73.3147 109.477 83.9325 111.166" stroke="#FCD2AD" stroke-linejoin="round"/>
<path d="M4.1416 110.049C17.9966 106.401 32.1599 104.046 46.4496 103.012C57.3997 102.489 68.3736 102.786 79.2793 103.902" stroke="#FCD2AD" stroke-linejoin="round"/>
<path d="M27.1768 99.994C32.8282 98.0664 38.7305 96.973 44.6974 96.7483C49.894 96.4575 55.1068 96.7562 60.2362 97.6387" stroke="#FCD2AD" stroke-linejoin="round"/>
<path d="M51.8208 159.051C55.2056 152.69 57.497 145.806 58.5993 138.686C61.2418 124.985 60.8397 120.906 60.8397 120.906" stroke="#F49A56" stroke-linejoin="round"/>
<path d="M56.4448 179.329C56.4448 179.329 62.0457 171.057 67.9338 146.958C70.6763 136.811 72.2472 126.383 72.6155 115.879" stroke="#F49A56" stroke-linejoin="round"/>
<path d="M71.0933 173.526C75.5008 163.914 78.7408 153.808 80.7439 143.424C83.1481 132.847 84.2192 122.011 83.9322 111.168" stroke="#F49A56" stroke-linejoin="round"/>
<path d="M85.1958 168.013C86.8996 164.013 88.2454 159.87 89.217 155.633C91.1414 147.677 92.4913 136.273 92.4913 136.273" stroke="#F49A56" stroke-linejoin="round"/>
<path d="M3.65332 109.508L51.8208 124.559V181.575L3.65332 166.524V109.508Z" stroke="#966C44" stroke-linejoin="round"/>
<path d="M92.8076 107.465L51.8208 124.555V181.571L92.8076 164.452V107.465Z" stroke="#966C44" stroke-linejoin="round"/>
<path d="M92.8076 107.473L51.8208 124.563L3.65332 109.541L44.6402 92.4219L92.8076 107.473Z" stroke="#966C44" stroke-linejoin="round"/>
<path d="M315.98 272.743L339.217 262.316" stroke="#1D1D1B" stroke-miterlimit="10"/>
<path d="M345.679 259.41L338.24 267.252L338.728 262.541L334.908 259.784L345.679 259.41Z" fill="#1D1D1B"/>
<path d="M313.137 282.912C313.131 286.484 312.067 289.974 310.078 292.942C308.089 295.909 305.266 298.22 301.964 299.583C298.662 300.946 295.031 301.3 291.528 300.6C288.026 299.899 284.809 298.176 282.285 295.649C279.762 293.121 278.044 289.901 277.349 286.398C276.654 282.894 277.014 279.263 278.382 275.963C279.75 272.663 282.066 269.843 285.036 267.859C288.006 265.875 291.498 264.816 295.07 264.816C297.446 264.813 299.8 265.278 301.995 266.187C304.191 267.095 306.185 268.428 307.864 270.11C309.543 271.791 310.873 273.788 311.777 275.985C312.682 278.182 313.144 280.536 313.137 282.912Z" fill="#F7E1B1"/>
<path d="M360.644 132.285L408.84 147.336V204.323L360.644 189.301V132.285Z" fill="#FAC393"/>
<path d="M449.797 130.219L408.839 147.338V204.325L449.797 187.235V130.219Z" fill="#F6A865"/>
<path d="M449.798 130.218L408.84 147.337L360.644 132.286L401.63 115.195L449.798 130.218Z" fill="#FDDBBE"/>
<path d="M401.63 144.828C401.667 150.615 402.254 156.386 403.382 162.062C404.691 168.783 406.496 175.398 408.782 181.853" stroke="#F8B87F" stroke-linejoin="round"/>
<path d="M388.993 141.152C389.399 149.27 390.291 157.355 391.664 165.366C394.536 179.096 401.688 202.103 401.688 202.103" stroke="#F8B87F" stroke-linejoin="round"/>
<path d="M375.78 137.043C376.2 146.858 377.654 156.601 380.117 166.111C383.65 181.133 388.964 197.937 388.964 197.937" stroke="#F8B87F" stroke-linejoin="round"/>
<path d="M363.229 133.34C363.499 145.282 365.078 157.158 367.939 168.756C369.987 177.341 372.754 185.739 376.211 193.86" stroke="#F8B87F" stroke-linejoin="round"/>
<path d="M360.988 175.129C361.396 178.032 361.971 180.909 362.712 183.746C363.427 186.192 364.39 188.56 365.584 190.812" stroke="#F8B87F" stroke-linejoin="round"/>
<path d="M401.63 144.826C401.63 144.826 402.923 143.16 409.271 142.787C412.169 142.336 415.135 142.633 417.887 143.648" stroke="#FCD2AD" stroke-linejoin="round"/>
<path d="M388.993 141.151C395.434 138.791 402.238 137.575 409.098 137.561C415.972 137.279 422.858 137.645 429.664 138.652" stroke="#FCD2AD" stroke-linejoin="round"/>
<path d="M375.78 137.042C386.485 133.711 397.603 131.893 408.811 131.642C419.552 131.481 430.286 132.249 440.894 133.94" stroke="#FCD2AD" stroke-linejoin="round"/>
<path d="M361.161 132.792C375.005 129.144 389.159 126.797 403.44 125.783C414.389 125.262 425.363 125.55 436.27 126.645" stroke="#FCD2AD" stroke-linejoin="round"/>
<path d="M384.167 122.739C389.823 120.829 395.723 119.746 401.688 119.522C406.893 119.234 412.114 119.523 417.256 120.384" stroke="#FCD2AD" stroke-linejoin="round"/>
<path d="M408.84 181.824C412.202 175.454 414.492 168.574 415.618 161.459C418.261 147.758 417.83 143.68 417.83 143.68" stroke="#F49A56" stroke-linejoin="round"/>
<path d="M413.435 202.102C413.435 202.102 419.18 193.801 424.924 169.702C427.667 159.566 429.238 149.147 429.606 138.652" stroke="#F49A56" stroke-linejoin="round"/>
<path d="M428.112 196.271C432.507 186.656 435.738 176.551 437.734 166.169C440.139 155.602 441.21 144.775 440.922 133.941" stroke="#F49A56" stroke-linejoin="round"/>
<path d="M442.187 190.815C443.887 186.812 445.242 182.67 446.236 178.435C448.132 170.479 449.511 159.047 449.511 159.047" stroke="#F49A56" stroke-linejoin="round"/>
<path d="M360.644 132.285L408.84 147.336V204.323L360.644 189.301V132.285Z" stroke="#966C44" stroke-linejoin="round"/>
<path d="M449.797 130.219L408.839 147.338V204.325L449.797 187.235V130.219Z" stroke="#966C44" stroke-linejoin="round"/>
<path d="M449.798 130.218L408.84 147.337L360.644 132.286L401.63 115.195L449.798 130.218Z" stroke="#966C44" stroke-linejoin="round"/>
<path d="M319.628 149.316L367.795 164.367V221.355L319.628 206.332V149.316Z" fill="#FAC393"/>
<path d="M408.782 147.254L367.795 164.373V221.36L408.782 204.27V147.254Z" fill="#F6A865"/>
<path d="M408.782 147.253L367.795 164.372L319.628 149.321L360.586 132.23L408.782 147.253Z" fill="#FDDBBE"/>
<path d="M360.672 161.875C360.688 167.662 361.265 173.434 362.396 179.109C363.704 185.83 365.509 192.445 367.796 198.899" stroke="#F8B87F" stroke-linejoin="round"/>
<path d="M347.948 158.199C348.356 166.326 349.248 174.421 350.619 182.442C353.492 196.143 360.672 219.15 360.672 219.15" stroke="#F8B87F" stroke-linejoin="round"/>
<path d="M334.793 154.09C335.211 163.912 336.655 173.665 339.102 183.187C342.663 198.18 347.948 214.983 347.948 214.983" stroke="#F8B87F" stroke-linejoin="round"/>
<path d="M322.184 150.387C322.466 162.341 324.065 174.228 326.952 185.831C328.994 194.359 331.751 202.699 335.195 210.763" stroke="#F8B87F" stroke-linejoin="round"/>
<path d="M319.944 192.176C320.367 195.076 320.942 197.953 321.667 200.793C322.376 203.242 323.338 205.61 324.539 207.859" stroke="#F8B87F" stroke-linejoin="round"/>
<path d="M360.672 161.873C360.672 161.873 361.936 160.207 368.284 159.834C371.183 159.383 374.148 159.679 376.901 160.695" stroke="#FCD2AD" stroke-linejoin="round"/>
<path d="M347.948 158.199C354.391 155.843 361.194 154.628 368.054 154.608C374.928 154.325 381.814 154.691 388.619 155.7" stroke="#FCD2AD" stroke-linejoin="round"/>
<path d="M334.793 154.089C345.488 150.756 356.597 148.938 367.795 148.689C378.545 148.529 389.289 149.297 399.907 150.987" stroke="#FCD2AD" stroke-linejoin="round"/>
<path d="M320.116 149.839C333.961 146.194 348.115 143.848 362.396 142.831C373.345 142.308 384.318 142.596 395.225 143.693" stroke="#FCD2AD" stroke-linejoin="round"/>
<path d="M343.151 139.786C348.797 137.878 354.688 136.795 360.643 136.569C365.848 136.281 371.069 136.57 376.211 137.431" stroke="#FCD2AD" stroke-linejoin="round"/>
<path d="M367.795 198.871C371.158 192.501 373.448 185.621 374.574 178.506C377.216 164.805 376.814 160.727 376.814 160.727" stroke="#F49A56" stroke-linejoin="round"/>
<path d="M372.419 219.151C372.419 219.151 378.02 210.849 383.908 186.779C386.654 176.624 388.216 166.186 388.561 155.672" stroke="#F49A56" stroke-linejoin="round"/>
<path d="M387.068 213.318C391.481 203.708 394.722 193.601 396.719 183.216C399.123 172.649 400.194 161.822 399.907 150.988" stroke="#F49A56" stroke-linejoin="round"/>
<path d="M401.142 207.862C402.859 203.864 404.214 199.721 405.192 195.482C407.088 187.526 408.466 176.094 408.466 176.094" stroke="#F49A56" stroke-linejoin="round"/>
<path d="M319.628 149.316L367.795 164.367V221.355L319.628 206.332V149.316Z" stroke="#966C44" stroke-linejoin="round"/>
<path d="M408.782 147.254L367.795 164.373V221.36L408.782 204.27V147.254Z" stroke="#966C44" stroke-linejoin="round"/>
<path d="M408.782 147.253L367.795 164.372L319.628 149.321L360.586 132.23L408.782 147.253Z" stroke="#966C44" stroke-linejoin="round"/>
<path d="M278.641 166.52L326.809 181.571V238.558L278.641 223.535V166.52Z" fill="#FAC393"/>
<path d="M367.795 164.488L326.837 181.579V238.595L367.795 221.475V164.488Z" fill="#F6A865"/>
<path d="M367.795 164.481L326.837 181.571L278.641 166.52L319.628 149.43L367.795 164.481Z" fill="#FDDBBE"/>
<path d="M319.686 179.102C319.721 184.889 320.308 190.66 321.438 196.336C322.77 203.044 324.614 209.641 326.952 216.069" stroke="#F8B87F" stroke-linejoin="round"/>
<path d="M306.847 175.398C307.326 183.519 308.285 191.605 309.719 199.612C312.591 213.313 319.743 236.321 319.743 236.321" stroke="#F8B87F" stroke-linejoin="round"/>
<path d="M293.807 171.289C294.255 181.116 295.738 190.869 298.23 200.386C301.677 215.379 306.847 232.183 306.847 232.183" stroke="#F8B87F" stroke-linejoin="round"/>
<path d="M281.226 167.613C281.498 179.555 283.078 191.431 285.937 203.029C287.992 211.562 290.749 219.911 294.18 227.99" stroke="#F8B87F" stroke-linejoin="round"/>
<path d="M278.986 209.379C279.389 212.281 279.955 215.157 280.681 217.996C281.404 220.44 282.366 222.806 283.553 225.062" stroke="#F8B87F" stroke-linejoin="round"/>
<path d="M319.686 179.104C319.686 179.104 320.949 177.41 327.326 177.036C330.227 176.594 333.193 176.901 335.942 177.927" stroke="#FCD2AD" stroke-linejoin="round"/>
<path d="M306.847 175.398C313.289 173.045 320.094 171.839 326.952 171.837C333.835 171.538 340.731 171.894 347.546 172.9" stroke="#FCD2AD" stroke-linejoin="round"/>
<path d="M293.807 171.292C304.547 167.946 315.705 166.128 326.952 165.892C337.693 165.732 348.427 166.501 359.035 168.19" stroke="#FCD2AD" stroke-linejoin="round"/>
<path d="M279.158 167.067C293.003 163.418 307.157 161.062 321.438 160.029C332.387 159.508 343.36 159.796 354.267 160.891" stroke="#FCD2AD" stroke-linejoin="round"/>
<path d="M302.165 156.986C307.82 155.076 313.721 153.993 319.686 153.769C324.881 153.479 330.093 153.768 335.225 154.631" stroke="#FCD2AD" stroke-linejoin="round"/>
<path d="M326.952 216.07C330.311 209.701 332.592 202.82 333.702 195.706C336.344 182.005 335.942 177.926 335.942 177.926" stroke="#F49A56" stroke-linejoin="round"/>
<path d="M331.433 236.348C331.433 236.348 337.034 228.047 342.922 203.977C345.665 193.83 347.235 183.403 347.604 172.898" stroke="#F49A56" stroke-linejoin="round"/>
<path d="M346.082 230.546C350.469 220.931 353.69 210.825 355.675 200.444C358.079 189.867 359.15 179.031 358.863 168.188" stroke="#F49A56" stroke-linejoin="round"/>
<path d="M360.184 225.061C361.91 221.062 363.285 216.919 364.291 212.681C366.187 204.725 367.566 193.293 367.566 193.293" stroke="#F49A56" stroke-linejoin="round"/>
<path d="M278.641 166.52L326.809 181.571V238.558L278.641 223.535V166.52Z" stroke="#966C44" stroke-linejoin="round"/>
<path d="M367.795 164.488L326.837 181.579V238.595L367.795 221.475V164.488Z" stroke="#966C44" stroke-linejoin="round"/>
<path d="M367.795 164.481L326.837 181.571L278.641 166.52L319.628 149.43L367.795 164.481Z" stroke="#966C44" stroke-linejoin="round"/>
<path d="M367.451 164.488L415.618 179.539V236.527L367.451 221.504V164.488Z" fill="#FAC393"/>
<path d="M456.605 162.41L415.618 179.529V236.545L456.605 219.426V162.41Z" fill="#F6A865"/>
<path d="M456.605 162.409L415.618 179.528L367.451 164.477L408.437 147.387L456.605 162.409Z" fill="#FDDBBE"/>
<path d="M408.495 177.031C408.511 182.818 409.088 188.59 410.218 194.265C411.531 200.957 413.336 207.543 415.618 213.97" stroke="#F8B87F" stroke-linejoin="round"/>
<path d="M395.886 173.355C396.293 181.482 397.185 189.577 398.557 197.598C401.429 211.299 408.61 234.306 408.61 234.306" stroke="#F8B87F" stroke-linejoin="round"/>
<path d="M382.616 169.246C383.033 179.059 384.477 188.802 386.925 198.314C390.486 213.336 395.771 230.14 395.771 230.14" stroke="#F8B87F" stroke-linejoin="round"/>
<path d="M370.036 165.543C370.308 177.487 371.897 189.364 374.775 200.959C376.818 209.505 379.575 217.864 383.018 225.948" stroke="#F8B87F" stroke-linejoin="round"/>
<path d="M367.767 207.332C368.19 210.233 368.765 213.109 369.49 215.949C370.198 218.398 371.161 220.766 372.362 223.015" stroke="#F8B87F" stroke-linejoin="round"/>
<path d="M408.495 177.029C408.495 177.029 409.759 175.363 416.107 174.99C419.006 174.558 421.967 174.854 424.723 175.852" stroke="#FCD2AD" stroke-linejoin="round"/>
<path d="M395.886 173.356C402.328 171.002 409.133 169.796 415.991 169.794C422.874 169.495 429.77 169.851 436.585 170.857" stroke="#FCD2AD" stroke-linejoin="round"/>
<path d="M382.616 169.245C393.311 165.912 404.419 164.094 415.618 163.845C426.368 163.685 437.112 164.454 447.73 166.143" stroke="#FCD2AD" stroke-linejoin="round"/>
<path d="M367.939 165.139C381.787 161.437 395.952 159.042 410.247 157.987C421.206 157.465 432.189 157.753 443.105 158.848" stroke="#FCD2AD" stroke-linejoin="round"/>
<path d="M390.946 154.942C396.602 153.037 402.502 151.953 408.466 151.725C413.672 151.437 418.892 151.726 424.034 152.587" stroke="#FCD2AD" stroke-linejoin="round"/>
<path d="M415.618 213.969C418.98 207.599 421.27 200.718 422.397 193.604C425.039 179.903 424.637 175.824 424.637 175.824" stroke="#F49A56" stroke-linejoin="round"/>
<path d="M420.242 234.304C420.242 234.304 425.843 226.003 431.731 201.904C434.492 191.779 436.082 181.37 436.47 170.883" stroke="#F49A56" stroke-linejoin="round"/>
<path d="M434.891 228.474C439.301 218.873 442.542 208.776 444.541 198.401C446.946 187.824 448.017 176.988 447.73 166.145" stroke="#F49A56" stroke-linejoin="round"/>
<path d="M448.965 223.018C450.681 219.021 452.037 214.877 453.015 210.638C454.91 202.682 456.289 191.25 456.289 191.25" stroke="#F49A56" stroke-linejoin="round"/>
<path d="M367.451 164.488L415.618 179.539V236.527L367.451 221.504V164.488Z" stroke="#966C44" stroke-linejoin="round"/>
<path d="M456.605 162.41L415.618 179.529V236.545L456.605 219.426V162.41Z" stroke="#966C44" stroke-linejoin="round"/>
<path d="M456.605 162.409L415.618 179.528L367.451 164.477L408.437 147.387L456.605 162.409Z" stroke="#966C44" stroke-linejoin="round"/>
<path d="M415.618 179.531L463.814 194.554V251.569L415.618 236.518V179.531Z" fill="#FAC393"/>
<path d="M504.772 177.469L463.814 194.559V251.575L504.772 234.485V177.469Z" fill="#F6A865"/>
<path d="M504.772 177.461L463.814 194.552L415.618 179.529L456.605 162.41L504.772 177.461Z" fill="#FDDBBE"/>
<path d="M456.662 192.086C456.699 197.873 457.285 203.644 458.414 209.32C459.709 216.035 461.514 222.641 463.814 229.082" stroke="#F8B87F" stroke-linejoin="round"/>
<path d="M443.967 188.383C444.373 196.51 445.265 204.605 446.638 212.625C449.51 226.355 456.662 249.363 456.662 249.363" stroke="#F8B87F" stroke-linejoin="round"/>
<path d="M430.783 184.273C431.203 194.098 432.657 203.85 435.12 213.37C438.653 228.393 443.967 245.196 443.967 245.196" stroke="#F8B87F" stroke-linejoin="round"/>
<path d="M418.203 180.598C418.473 192.54 420.053 204.416 422.913 216.014C424.969 224.55 427.736 232.9 431.185 240.974" stroke="#F8B87F" stroke-linejoin="round"/>
<path d="M415.991 222.391C416.398 225.292 416.963 228.169 417.686 231.008C418.406 233.443 419.368 235.801 420.558 238.045" stroke="#F8B87F" stroke-linejoin="round"/>
<path d="M456.662 192.088C456.662 192.088 457.926 190.422 464.302 190.049C467.201 189.598 470.167 189.894 472.919 190.91" stroke="#FCD2AD" stroke-linejoin="round"/>
<path d="M443.967 188.382C450.412 186.041 457.215 184.836 464.072 184.821C470.946 184.523 477.832 184.878 484.638 185.884" stroke="#FCD2AD" stroke-linejoin="round"/>
<path d="M430.783 184.277C441.491 180.958 452.607 179.141 463.814 178.876C474.554 178.715 485.289 179.484 495.897 181.174" stroke="#FCD2AD" stroke-linejoin="round"/>
<path d="M416.135 180.053C429.98 176.404 444.134 174.048 458.414 173.016C469.364 172.511 480.337 172.808 491.244 173.906" stroke="#FCD2AD" stroke-linejoin="round"/>
<path d="M439.142 170C444.792 168.074 450.696 166.99 456.662 166.783C461.867 166.476 467.09 166.765 472.23 167.644" stroke="#FCD2AD" stroke-linejoin="round"/>
<path d="M463.814 229.055C467.173 222.686 469.454 215.804 470.564 208.69C473.206 194.989 472.775 190.91 472.775 190.91" stroke="#F49A56" stroke-linejoin="round"/>
<path d="M468.41 249.361C468.41 249.361 474.154 241.06 479.899 216.962C482.661 206.819 484.232 196.389 484.58 185.883" stroke="#F49A56" stroke-linejoin="round"/>
<path d="M483.086 243.53C487.476 233.913 490.706 223.808 492.708 213.428C495.114 202.851 496.185 192.015 495.897 181.172" stroke="#F49A56" stroke-linejoin="round"/>
<path d="M497.161 238.044C498.865 234.052 500.22 229.919 501.211 225.693C503.106 217.737 504.485 206.305 504.485 206.305" stroke="#F49A56" stroke-linejoin="round"/>
<path d="M415.618 179.531L463.814 194.554V251.569L415.618 236.518V179.531Z" stroke="#966C44" stroke-linejoin="round"/>
<path d="M504.772 177.469L463.814 194.559V251.575L504.772 234.485V177.469Z" stroke="#966C44" stroke-linejoin="round"/>
<path d="M504.772 177.461L463.814 194.552L415.618 179.529L456.605 162.41L504.772 177.461Z" stroke="#966C44" stroke-linejoin="round"/>
<path d="M326.837 181.461L375.005 196.483V253.499L326.837 238.448V181.461Z" fill="#FAC393"/>
<path d="M415.992 179.387L375.005 196.477V253.493L415.992 236.403V179.387Z" fill="#F6A865"/>
<path d="M415.992 179.386L375.005 196.476L326.837 181.454L367.795 164.363L415.992 179.386Z" fill="#FDDBBE"/>
<path d="M367.882 194.004C367.898 199.791 368.475 205.562 369.605 211.238C370.918 217.958 372.723 224.573 375.005 231.028" stroke="#F8B87F" stroke-linejoin="round"/>
<path d="M355.158 190.301C355.564 198.428 356.456 206.523 357.829 214.543C360.701 228.273 367.882 251.28 367.882 251.28" stroke="#F8B87F" stroke-linejoin="round"/>
<path d="M342.003 186.191C342.42 196.014 343.864 205.766 346.311 215.288C349.873 230.311 355.158 247.114 355.158 247.114" stroke="#F8B87F" stroke-linejoin="round"/>
<path d="M329.394 182.516C329.666 194.459 331.255 206.337 334.133 217.932C336.172 226.469 338.93 234.819 342.376 242.892" stroke="#F8B87F" stroke-linejoin="round"/>
<path d="M327.153 224.309C327.577 227.209 328.152 230.085 328.877 232.926C329.582 235.367 330.545 237.726 331.749 239.963" stroke="#F8B87F" stroke-linejoin="round"/>
<path d="M367.882 194.006C367.882 194.006 369.146 192.34 375.493 191.966C378.392 191.516 381.358 191.812 384.11 192.828" stroke="#FCD2AD" stroke-linejoin="round"/>
<path d="M355.158 190.299C361.604 187.962 368.406 186.757 375.263 186.737C382.146 186.457 389.04 186.812 395.857 187.8" stroke="#FCD2AD" stroke-linejoin="round"/>
<path d="M342.003 186.194C352.701 182.877 363.808 181.06 375.005 180.794C385.756 180.634 396.501 181.412 407.117 183.121" stroke="#FCD2AD" stroke-linejoin="round"/>
<path d="M327.326 181.972C341.17 178.326 355.325 175.98 369.605 174.963C380.564 174.441 391.547 174.729 402.463 175.825" stroke="#FCD2AD" stroke-linejoin="round"/>
<path d="M350.361 171.917C356.016 170.008 361.917 168.924 367.881 168.7C373.077 168.394 378.29 168.683 383.42 169.562" stroke="#FCD2AD" stroke-linejoin="round"/>
<path d="M375.005 231.001C378.369 224.622 380.66 217.732 381.783 210.608C384.426 196.907 384.024 192.828 384.024 192.828" stroke="#F49A56" stroke-linejoin="round"/>
<path d="M379.629 251.308C379.629 251.308 385.373 243.007 391.118 218.908C393.893 208.756 395.493 198.318 395.886 187.801" stroke="#F49A56" stroke-linejoin="round"/>
<path d="M394.277 245.564C398.685 235.952 401.925 225.845 403.928 215.462C406.332 204.895 407.404 194.068 407.116 183.234" stroke="#F49A56" stroke-linejoin="round"/>
<path d="M408.352 239.962C410.071 235.976 411.427 231.842 412.401 227.611C414.297 219.655 415.676 208.223 415.676 208.223" stroke="#F49A56" stroke-linejoin="round"/>
<path d="M326.837 181.461L375.005 196.483V253.499L326.837 238.448V181.461Z" stroke="#966C44" stroke-linejoin="round"/>
<path d="M415.992 179.387L375.005 196.477V253.493L415.992 236.403V179.387Z" stroke="#966C44" stroke-linejoin="round"/>
<path d="M415.992 179.386L375.005 196.476L326.837 181.454L367.795 164.363L415.992 179.386Z" stroke="#966C44" stroke-linejoin="round"/>
<path d="M374.66 196.508L422.828 211.53V268.546L374.66 253.495V196.508Z" fill="#FAC393"/>
<path d="M463.814 194.445L422.828 211.536V268.552L463.814 251.461V194.445Z" fill="#F6A865"/>
<path d="M463.814 194.438L422.828 211.528L374.66 196.506L415.647 179.387L463.814 194.438Z" fill="#FDDBBE"/>
<path d="M415.704 209.062C415.72 214.849 416.297 220.621 417.427 226.297C418.738 233.008 420.543 239.613 422.827 246.058" stroke="#F8B87F" stroke-linejoin="round"/>
<path d="M402.98 205.359C403.386 213.486 404.278 221.582 405.651 229.602C408.523 243.303 415.704 266.339 415.704 266.339" stroke="#F8B87F" stroke-linejoin="round"/>
<path d="M389.825 201.25C390.243 211.073 391.687 220.825 394.134 230.347C397.695 245.369 402.98 262.172 402.98 262.172" stroke="#F8B87F" stroke-linejoin="round"/>
<path d="M377.216 197.574C377.488 209.518 379.077 221.395 381.955 232.99C383.976 241.526 386.714 249.876 390.141 257.951" stroke="#F8B87F" stroke-linejoin="round"/>
<path d="M374.976 239.367C375.396 242.268 375.972 245.145 376.699 247.984C377.401 250.435 378.364 252.804 379.571 255.05" stroke="#F8B87F" stroke-linejoin="round"/>
<path d="M415.704 209.064C415.704 209.064 416.968 207.398 423.316 207.025C426.214 206.574 429.18 206.871 431.932 207.887" stroke="#FCD2AD" stroke-linejoin="round"/>
<path d="M402.98 205.359C409.427 203.023 416.229 201.818 423.086 201.798C429.968 201.499 436.864 201.855 443.68 202.86" stroke="#FCD2AD" stroke-linejoin="round"/>
<path d="M389.825 201.253C400.523 197.936 411.63 196.118 422.827 195.853C433.578 195.692 444.323 196.471 454.939 198.179" stroke="#FCD2AD" stroke-linejoin="round"/>
<path d="M375.148 197.03C388.994 193.384 403.147 191.028 417.427 189.992C428.387 189.487 439.369 189.785 450.286 190.883" stroke="#FCD2AD" stroke-linejoin="round"/>
<path d="M398.155 186.976C403.807 185.054 409.71 183.97 415.675 183.759C420.88 183.452 426.103 183.742 431.243 184.621" stroke="#FCD2AD" stroke-linejoin="round"/>
<path d="M422.827 246.031C426.196 239.664 428.487 232.783 429.606 225.666C432.248 211.965 431.846 207.887 431.846 207.887" stroke="#F49A56" stroke-linejoin="round"/>
<path d="M427.48 266.338C427.48 266.338 433.081 258.037 438.969 233.938C441.713 223.792 443.284 213.364 443.651 202.859" stroke="#F49A56" stroke-linejoin="round"/>
<path d="M442.1 260.509C446.507 250.897 449.747 240.791 451.75 230.407C454.155 219.84 455.226 209.013 454.939 198.18" stroke="#F49A56" stroke-linejoin="round"/>
<path d="M456.203 255.023C457.911 251.045 459.257 246.921 460.224 242.701C462.119 234.744 463.498 223.312 463.498 223.312" stroke="#F49A56" stroke-linejoin="round"/>
<path d="M374.66 196.508L422.828 211.53V268.546L374.66 253.495V196.508Z" stroke="#966C44" stroke-linejoin="round"/>
<path d="M463.814 194.445L422.828 211.536V268.552L463.814 251.461V194.445Z" stroke="#966C44" stroke-linejoin="round"/>
<path d="M463.814 194.438L422.828 211.528L374.66 196.506L415.647 179.387L463.814 194.438Z" stroke="#966C44" stroke-linejoin="round"/>
<path d="M360.644 75.2656L408.84 90.3166V147.333L360.644 132.281V75.2656Z" fill="#FAC393"/>
<path d="M449.797 73.2344L408.839 90.3248V147.341L449.797 130.222V73.2344Z" fill="#F6A865"/>
<path d="M449.798 73.2268L408.84 90.3172L360.644 75.2662L401.63 58.1758L449.798 73.2268Z" fill="#FDDBBE"/>
<path d="M401.63 87.8477C401.666 93.6349 402.252 99.4057 403.382 105.082C404.707 111.824 406.531 118.458 408.84 124.93" stroke="#F8B87F" stroke-linejoin="round"/>
<path d="M388.993 84.1445C389.399 92.2714 390.291 100.367 391.664 108.387C394.479 122.059 401.63 145.038 401.63 145.038" stroke="#F8B87F" stroke-linejoin="round"/>
<path d="M375.78 80.0352C376.201 89.8594 377.654 99.6122 380.117 109.132C383.65 124.126 388.964 140.929 388.964 140.929" stroke="#F8B87F" stroke-linejoin="round"/>
<path d="M363.229 76.3594C363.5 88.3013 365.08 100.177 367.939 111.775C369.995 120.312 372.762 128.661 376.211 136.736" stroke="#F8B87F" stroke-linejoin="round"/>
<path d="M360.988 118.121C361.393 121.025 361.969 123.902 362.712 126.738C363.427 129.185 364.39 131.552 365.584 133.804" stroke="#F8B87F" stroke-linejoin="round"/>
<path d="M401.63 87.8465C401.63 87.8465 402.923 86.1518 409.271 85.7784C412.172 85.3366 415.138 85.6431 417.887 86.6688" stroke="#FCD2AD" stroke-linejoin="round"/>
<path d="M388.993 84.1442C395.434 81.7858 402.239 80.5802 409.098 80.5825C415.972 80.2843 422.858 80.6402 429.664 81.6452" stroke="#FCD2AD" stroke-linejoin="round"/>
<path d="M375.78 80.0343C386.485 76.7031 397.603 74.8855 408.811 74.6343C419.552 74.4728 430.286 75.2417 440.894 76.9322" stroke="#FCD2AD" stroke-linejoin="round"/>
<path d="M361.161 75.8147C375.006 72.1657 389.159 69.8098 403.44 68.7774C414.39 68.2544 425.364 68.552 436.27 69.6679" stroke="#FCD2AD" stroke-linejoin="round"/>
<path d="M384.167 65.7313C389.823 63.8217 395.723 62.7382 401.688 62.5142C406.893 62.2261 412.114 62.5151 417.256 63.3759" stroke="#FCD2AD" stroke-linejoin="round"/>
<path d="M408.84 124.93C412.202 118.56 414.492 111.679 415.618 104.565C418.261 90.8639 417.83 86.7852 417.83 86.7852" stroke="#F49A56" stroke-linejoin="round"/>
<path d="M413.435 145.036C413.435 145.036 419.18 136.735 424.924 112.665C427.667 102.518 429.237 92.0903 429.606 81.5859" stroke="#F49A56" stroke-linejoin="round"/>
<path d="M428.112 139.292C432.502 129.675 435.732 119.57 437.734 109.19C440.138 98.6129 441.21 87.7766 440.922 76.9336" stroke="#F49A56" stroke-linejoin="round"/>
<path d="M442.187 133.807C443.893 129.806 445.248 125.664 446.236 121.427C448.132 113.471 449.511 102.039 449.511 102.039" stroke="#F49A56" stroke-linejoin="round"/>
<path d="M360.644 75.2656L408.84 90.3166V147.333L360.644 132.281V75.2656Z" stroke="#966C44" stroke-linejoin="round"/>
<path d="M449.797 73.2344L408.839 90.3248V147.341L449.797 130.222V73.2344Z" stroke="#966C44" stroke-linejoin="round"/>
<path d="M449.798 73.2268L408.84 90.3172L360.644 75.2662L401.63 58.1758L449.798 73.2268Z" stroke="#966C44" stroke-linejoin="round"/>
<path d="M360.644 18.2539L408.84 33.305V90.3208L360.644 75.2698V18.2539Z" fill="#FAC393"/>
<path d="M449.797 16.2148L408.839 33.3053V90.3212L449.797 73.2021V16.2148Z" fill="#F6A865"/>
<path d="M449.798 16.2073L408.84 33.2977L360.644 18.2754L401.63 1.15625L449.798 16.2073Z" fill="#FDDBBE"/>
<path d="M401.63 30.8281C401.668 36.6153 402.255 42.3858 403.382 48.0622C404.693 54.7734 406.498 61.3786 408.782 67.8238" stroke="#F8B87F" stroke-linejoin="round"/>
<path d="M388.993 27.2656C389.399 35.3925 390.291 43.4878 391.664 51.5082C394.536 65.2092 401.688 88.2454 401.688 88.2454" stroke="#F8B87F" stroke-linejoin="round"/>
<path d="M375.78 23.0156C376.201 32.8399 377.654 42.5926 380.117 52.1124C383.65 67.106 388.964 83.9379 388.964 83.9379" stroke="#F8B87F" stroke-linejoin="round"/>
<path d="M363.229 19.3398C363.499 31.2819 365.078 43.1582 367.939 54.7558C369.995 63.2924 372.762 71.6418 376.211 79.7164" stroke="#F8B87F" stroke-linejoin="round"/>
<path d="M360.988 61.1016C361.393 64.0052 361.969 66.8826 362.712 69.7186C363.421 72.1674 364.383 74.5355 365.584 76.7845" stroke="#F8B87F" stroke-linejoin="round"/>
<path d="M401.63 30.83C401.63 30.83 402.923 29.1641 409.271 28.7907C412.169 28.3398 415.135 28.6364 417.887 29.6524" stroke="#FCD2AD" stroke-linejoin="round"/>
<path d="M388.993 27.2653C395.438 24.9241 402.241 23.719 409.098 23.7036C415.972 23.4054 422.858 23.7613 429.664 24.7663" stroke="#FCD2AD" stroke-linejoin="round"/>
<path d="M375.78 23.0148C386.489 19.6999 397.604 17.8827 408.811 17.6148C419.552 17.4533 430.286 18.2221 440.894 19.9126" stroke="#FCD2AD" stroke-linejoin="round"/>
<path d="M361.161 18.7912C375.006 15.1422 389.159 12.7864 403.44 11.754C414.39 11.231 425.364 11.5286 436.27 12.6444" stroke="#FCD2AD" stroke-linejoin="round"/>
<path d="M384.167 8.73983C389.819 6.81221 395.721 5.71879 401.688 5.49408C406.894 5.20384 412.117 5.50254 417.256 6.38451" stroke="#FCD2AD" stroke-linejoin="round"/>
<path d="M408.84 67.7958C412.215 61.4108 414.505 54.5094 415.618 47.3735C418.261 33.6725 417.83 29.5938 417.83 29.5938" stroke="#F49A56" stroke-linejoin="round"/>
<path d="M413.435 88.0749C413.435 88.0749 419.18 79.8026 424.924 55.7037C427.667 45.557 429.237 35.1294 429.606 24.625" stroke="#F49A56" stroke-linejoin="round"/>
<path d="M428.112 82.2725C432.502 72.6554 435.732 62.5504 437.734 52.1704C440.138 41.5934 441.21 30.7571 440.922 19.9141" stroke="#F49A56" stroke-linejoin="round"/>
<path d="M442.187 76.7862C443.893 72.785 445.248 68.6427 446.236 64.4064C448.132 56.4788 449.511 45.0469 449.511 45.0469" stroke="#F49A56" stroke-linejoin="round"/>
<path d="M360.644 18.2539L408.84 33.305V90.3208L360.644 75.2698V18.2539Z" stroke="#966C44" stroke-linejoin="round"/>
<path d="M449.797 16.2148L408.839 33.3053V90.3212L449.797 73.2021V16.2148Z" stroke="#966C44" stroke-linejoin="round"/>
<path d="M449.798 16.2073L408.84 33.2977L360.644 18.2754L401.63 1.15625L449.798 16.2073Z" stroke="#966C44" stroke-linejoin="round"/>
<path d="M319.628 92.2969L367.795 107.348V164.335L319.628 149.313V92.2969Z" fill="#FAC393"/>
<path d="M408.782 90.2656L367.795 107.356V164.372L408.782 147.253V90.2656Z" fill="#F6A865"/>
<path d="M408.782 90.2581L367.795 107.348L319.628 92.2974L360.586 75.207L408.782 90.2581Z" fill="#FDDBBE"/>
<path d="M360.672 104.82C360.689 110.607 361.267 116.379 362.396 122.054C363.706 128.766 365.511 135.371 367.796 141.816" stroke="#F8B87F" stroke-linejoin="round"/>
<path d="M347.948 101.172C348.354 109.299 349.246 117.394 350.619 125.414C353.492 139.115 360.672 162.123 360.672 162.123" stroke="#F8B87F" stroke-linejoin="round"/>
<path d="M334.793 97.0664C335.211 106.889 336.655 116.641 339.102 126.163C342.663 141.157 347.948 157.96 347.948 157.96" stroke="#F8B87F" stroke-linejoin="round"/>
<path d="M322.184 93.332C322.463 105.296 324.062 117.192 326.952 128.805C328.988 137.303 331.736 145.614 335.167 153.651" stroke="#F8B87F" stroke-linejoin="round"/>
<path d="M319.944 135.152C320.364 138.053 320.94 140.93 321.667 143.769C322.376 146.218 323.338 148.587 324.539 150.835" stroke="#F8B87F" stroke-linejoin="round"/>
<path d="M360.672 104.822C360.672 104.822 361.936 103.128 368.284 102.783C371.183 102.332 374.148 102.629 376.901 103.645" stroke="#FCD2AD" stroke-linejoin="round"/>
<path d="M347.948 101.172C354.39 98.8187 361.195 97.6132 368.054 97.6107C374.927 97.3108 381.813 97.6667 388.619 98.6735" stroke="#FCD2AD" stroke-linejoin="round"/>
<path d="M334.793 97.0652C345.488 93.7322 356.597 91.9146 367.795 91.6652C378.545 91.5051 389.289 92.2739 399.907 93.9631" stroke="#FCD2AD" stroke-linejoin="round"/>
<path d="M320.116 92.8428C333.962 89.1969 348.115 86.8411 362.396 85.8055C373.346 85.2813 384.32 85.579 395.225 86.696" stroke="#FCD2AD" stroke-linejoin="round"/>
<path d="M343.151 82.7906C348.793 80.8649 354.686 79.7715 360.643 79.5449C365.849 79.2546 371.072 79.5533 376.211 80.4353" stroke="#FCD2AD" stroke-linejoin="round"/>
<path d="M367.795 141.848C371.158 135.478 373.448 128.597 374.574 121.483C377.216 107.782 376.814 103.703 376.814 103.703" stroke="#F49A56" stroke-linejoin="round"/>
<path d="M372.419 162.266C372.419 162.266 378.02 153.965 383.908 129.895C386.653 119.75 388.215 109.321 388.561 98.8164" stroke="#F49A56" stroke-linejoin="round"/>
<path d="M387.068 156.323C391.475 146.711 394.716 136.605 396.719 126.221C399.123 115.644 400.194 104.808 399.907 93.9648" stroke="#F49A56" stroke-linejoin="round"/>
<path d="M401.142 150.779C402.864 146.784 404.22 142.64 405.192 138.4C407.088 130.673 408.466 119.184 408.466 119.184" stroke="#F49A56" stroke-linejoin="round"/>
<path d="M319.628 92.2969L367.795 107.348V164.335L319.628 149.313V92.2969Z" stroke="#966C44" stroke-linejoin="round"/>
<path d="M408.782 90.2656L367.795 107.356V164.372L408.782 147.253V90.2656Z" stroke="#966C44" stroke-linejoin="round"/>
<path d="M408.782 90.2581L367.795 107.348L319.628 92.2974L360.586 75.207L408.782 90.2581Z" stroke="#966C44" stroke-linejoin="round"/>
<path d="M319.628 35.3086L367.795 50.3309V107.347L319.628 92.2958V35.3086Z" fill="#FAC393"/>
<path d="M408.782 33.2461L367.795 50.3365V107.352L408.782 90.2333V33.2461Z" fill="#F6A865"/>
<path d="M408.782 33.2503L367.795 50.3407L319.628 35.3184L360.586 18.1992L408.782 33.2503Z" fill="#FDDBBE"/>
<path d="M360.672 47.8633C360.689 53.6501 361.267 59.4217 362.396 65.0973C363.713 71.76 365.518 78.3169 367.796 84.7154" stroke="#F8B87F" stroke-linejoin="round"/>
<path d="M347.948 44.1602C348.354 52.2871 349.246 60.3824 350.619 68.4027C353.492 82.1037 360.672 105.14 360.672 105.14" stroke="#F8B87F" stroke-linejoin="round"/>
<path d="M334.793 40.0508C335.211 49.8734 336.655 59.6255 339.102 69.1476C342.663 84.1699 347.948 100.973 347.948 100.973" stroke="#F8B87F" stroke-linejoin="round"/>
<path d="M322.184 36.375C322.466 48.3198 324.065 60.197 326.952 71.7909C328.991 80.3286 331.749 88.6786 335.195 96.7515" stroke="#F8B87F" stroke-linejoin="round"/>
<path d="M319.944 78.1406C320.364 81.0416 320.94 83.9181 321.667 86.7576C322.369 89.2089 323.332 91.5778 324.539 93.8236" stroke="#F8B87F" stroke-linejoin="round"/>
<path d="M360.672 47.8652C360.672 47.8652 361.936 46.1993 368.284 45.8258C371.183 45.375 374.148 45.6716 376.901 46.6876" stroke="#FCD2AD" stroke-linejoin="round"/>
<path d="M347.948 44.1607C354.395 41.824 361.197 40.619 368.054 40.599C374.927 40.2991 381.813 40.655 388.619 41.6618" stroke="#FCD2AD" stroke-linejoin="round"/>
<path d="M334.793 40.0535C345.492 36.7366 356.598 34.9193 367.795 34.6535C378.545 34.4934 389.289 35.2622 399.907 36.9514" stroke="#FCD2AD" stroke-linejoin="round"/>
<path d="M320.116 35.8856C333.962 32.2397 348.115 29.8839 362.396 28.8484C373.346 28.3424 384.318 28.64 395.225 29.7388" stroke="#FCD2AD" stroke-linejoin="round"/>
<path d="M343.151 25.7769C348.793 23.853 354.686 22.7691 360.643 22.5599C365.848 22.2532 371.071 22.5423 376.211 23.4216" stroke="#FCD2AD" stroke-linejoin="round"/>
<path d="M367.795 84.7182C371.138 78.4311 373.427 71.6391 374.574 64.6118C377.216 50.9108 376.814 46.832 376.814 46.832" stroke="#F49A56" stroke-linejoin="round"/>
<path d="M372.419 105.14C372.419 105.14 378.02 96.8391 383.908 72.7402C386.677 62.5882 388.257 52.1493 388.619 41.6328" stroke="#F49A56" stroke-linejoin="round"/>
<path d="M387.068 99.3077C391.475 89.6951 394.716 79.589 396.719 69.2056C399.124 58.6287 400.195 47.7923 399.907 36.9492" stroke="#F49A56" stroke-linejoin="round"/>
<path d="M401.142 93.8214C402.864 89.826 404.22 85.6823 405.192 81.4416C407.088 73.5139 408.466 62.082 408.466 62.082" stroke="#F49A56" stroke-linejoin="round"/>
<path d="M319.628 35.3086L367.795 50.3309V107.347L319.628 92.2958V35.3086Z" stroke="#966C44" stroke-linejoin="round"/>
<path d="M408.782 33.2461L367.795 50.3365V107.352L408.782 90.2333V33.2461Z" stroke="#966C44" stroke-linejoin="round"/>
<path d="M408.782 33.2503L367.795 50.3407L319.628 35.3184L360.586 18.1992L408.782 33.2503Z" stroke="#966C44" stroke-linejoin="round"/>
<path d="M367.451 107.465L415.618 122.516V179.532L367.451 164.481V107.465Z" fill="#FAC393"/>
<path d="M456.605 105.426L415.618 122.516V179.532L456.605 162.413V105.426Z" fill="#F6A865"/>
<path d="M456.605 105.43L415.618 122.52L367.451 107.469L408.437 90.3789L456.605 105.43Z" fill="#FDDBBE"/>
<path d="M408.495 120.051C408.51 125.838 409.087 131.61 410.218 137.285C411.527 144.006 413.332 150.621 415.618 157.075" stroke="#F8B87F" stroke-linejoin="round"/>
<path d="M395.886 116.316C396.292 124.443 397.184 132.539 398.557 140.559C401.429 154.26 408.61 177.267 408.61 177.267" stroke="#F8B87F" stroke-linejoin="round"/>
<path d="M382.616 112.238C383.034 122.061 384.478 131.813 386.925 141.335C390.486 156.329 395.771 173.161 395.771 173.161" stroke="#F8B87F" stroke-linejoin="round"/>
<path d="M370.036 108.562C370.309 120.506 371.899 132.383 374.775 143.978C376.814 152.516 379.572 160.866 383.018 168.939" stroke="#F8B87F" stroke-linejoin="round"/>
<path d="M367.767 150.324C368.187 153.225 368.762 156.102 369.49 158.941C370.198 161.39 371.161 163.758 372.362 166.007" stroke="#F8B87F" stroke-linejoin="round"/>
<path d="M408.495 120.053C408.495 120.053 409.759 118.358 416.107 118.013C419.005 117.562 421.971 117.859 424.723 118.875" stroke="#FCD2AD" stroke-linejoin="round"/>
<path d="M395.886 116.316C402.328 113.963 409.133 112.757 415.991 112.755C422.874 112.456 429.77 112.812 436.585 113.818" stroke="#FCD2AD" stroke-linejoin="round"/>
<path d="M382.616 112.237C393.314 108.92 404.421 107.103 415.618 106.837C426.368 106.677 437.112 107.446 447.73 109.135" stroke="#FCD2AD" stroke-linejoin="round"/>
<path d="M367.939 108.016C381.794 104.368 395.957 102.013 410.247 100.979C421.206 100.457 432.189 100.745 443.105 101.841" stroke="#FCD2AD" stroke-linejoin="round"/>
<path d="M390.946 97.9625C396.598 96.0388 402.5 94.9455 408.466 94.7167C413.673 94.4265 418.895 94.7252 424.034 95.6072" stroke="#FCD2AD" stroke-linejoin="round"/>
<path d="M415.618 157.02C418.987 150.652 421.278 143.771 422.397 136.655C425.039 122.954 424.637 118.875 424.637 118.875" stroke="#F49A56" stroke-linejoin="round"/>
<path d="M420.242 177.298C420.242 177.298 425.843 169.025 431.731 144.926C434.474 134.78 436.044 124.352 436.413 113.848" stroke="#F49A56" stroke-linejoin="round"/>
<path d="M434.891 171.495C439.298 161.883 442.538 151.777 444.541 141.393C446.946 130.816 448.017 119.98 447.73 109.137" stroke="#F49A56" stroke-linejoin="round"/>
<path d="M448.965 166.007C450.685 162.021 452.041 157.887 453.015 153.656C454.91 145.7 456.289 134.297 456.289 134.297" stroke="#F49A56" stroke-linejoin="round"/>
<path d="M367.451 107.465L415.618 122.516V179.532L367.451 164.481V107.465Z" stroke="#966C44" stroke-linejoin="round"/>
<path d="M456.605 105.426L415.618 122.516V179.532L456.605 162.413V105.426Z" stroke="#966C44" stroke-linejoin="round"/>
<path d="M456.605 105.43L415.618 122.52L367.451 107.469L408.437 90.3789L456.605 105.43Z" stroke="#966C44" stroke-linejoin="round"/>
<path d="M415.618 122.512L463.814 137.534V194.55L415.618 179.499V122.512Z" fill="#FAC393"/>
<path d="M504.772 120.449L463.814 137.54V194.556L504.772 177.465V120.449Z" fill="#F6A865"/>
<path d="M504.772 120.453L463.814 137.544L415.618 122.521L456.605 105.402L504.772 120.453Z" fill="#FDDBBE"/>
<path d="M456.662 135.066C456.699 140.854 457.285 146.624 458.414 152.3C459.707 159.025 461.512 165.641 463.814 172.091" stroke="#F8B87F" stroke-linejoin="round"/>
<path d="M443.967 131.363C444.373 139.49 445.265 147.585 446.638 155.606C449.51 169.336 456.662 192.343 456.662 192.343" stroke="#F8B87F" stroke-linejoin="round"/>
<path d="M430.783 127.254C431.202 137.078 432.656 146.831 435.12 156.351C438.653 171.373 443.967 188.176 443.967 188.176" stroke="#F8B87F" stroke-linejoin="round"/>
<path d="M418.203 123.578C418.473 135.52 420.053 147.397 422.913 158.994C424.969 167.531 427.736 175.88 431.185 183.955" stroke="#F8B87F" stroke-linejoin="round"/>
<path d="M415.991 165.371C416.398 168.272 416.963 171.149 417.686 173.988C418.406 176.424 419.368 178.781 420.558 181.025" stroke="#F8B87F" stroke-linejoin="round"/>
<path d="M456.662 135.068C456.662 135.068 457.926 133.402 464.302 133.029C467.201 132.578 470.167 132.875 472.919 133.891" stroke="#FCD2AD" stroke-linejoin="round"/>
<path d="M443.967 131.361C450.412 129.02 457.215 127.815 464.072 127.8C470.946 127.52 477.83 127.875 484.638 128.862" stroke="#FCD2AD" stroke-linejoin="round"/>
<path d="M430.783 127.256C441.49 123.94 452.608 122.132 463.814 121.885C474.555 121.706 485.291 122.475 495.897 124.183" stroke="#FCD2AD" stroke-linejoin="round"/>
<path d="M416.135 123.033C429.98 119.384 444.134 117.028 458.414 115.996C469.364 115.491 480.337 115.789 491.244 116.887" stroke="#FCD2AD" stroke-linejoin="round"/>
<path d="M439.142 112.98C444.792 111.054 450.696 109.97 456.662 109.763C461.867 109.456 467.09 109.745 472.23 110.625" stroke="#FCD2AD" stroke-linejoin="round"/>
<path d="M463.814 172.064C467.179 165.685 469.469 158.795 470.592 151.67C473.235 137.998 472.804 133.891 472.804 133.891" stroke="#F49A56" stroke-linejoin="round"/>
<path d="M468.41 192.342C468.41 192.342 474.154 184.041 479.899 159.942C482.661 149.799 484.232 139.37 484.58 128.863" stroke="#F49A56" stroke-linejoin="round"/>
<path d="M483.086 186.512C487.467 176.931 490.697 166.865 492.708 156.525C495.113 145.957 496.184 135.13 495.897 124.297" stroke="#F49A56" stroke-linejoin="round"/>
<path d="M497.161 181.024C498.865 177.032 500.22 172.9 501.211 168.673C503.106 160.717 504.485 149.285 504.485 149.285" stroke="#F49A56" stroke-linejoin="round"/>
<path d="M415.618 122.512L463.814 137.534V194.55L415.618 179.499V122.512Z" stroke="#966C44" stroke-linejoin="round"/>
<path d="M504.772 120.449L463.814 137.54V194.556L504.772 177.465V120.449Z" stroke="#966C44" stroke-linejoin="round"/>
<path d="M504.772 120.453L463.814 137.544L415.618 122.521L456.605 105.402L504.772 120.453Z" stroke="#966C44" stroke-linejoin="round"/>
</svg>
