<svg width="896" height="255" viewBox="0 0 896 255" fill="none" xmlns="http://www.w3.org/2000/svg">
<path d="M85.3638 214.449V189.219" stroke="#1D1D1B" stroke-miterlimit="10"/>
<path d="M85.3639 182.195L89.4035 192.094L85.3639 189.762L81.3242 192.094L85.3639 182.195Z" fill="#1D1D1B"/>
<path d="M103.258 236.381C103.252 239.919 102.198 243.375 100.228 246.314C98.2584 249.252 95.4618 251.541 92.1917 252.891C88.9215 254.241 85.3245 254.591 81.8553 253.897C78.3861 253.204 75.2003 251.497 72.7007 248.994C70.201 246.491 68.4996 243.303 67.8115 239.833C67.1233 236.363 67.4794 232.767 68.8345 229.499C70.1897 226.232 72.4832 223.439 75.4253 221.474C78.3673 219.51 81.8258 218.461 85.3636 218.461C87.7159 218.461 90.0451 218.925 92.2179 219.826C94.3908 220.727 96.3646 222.047 98.0266 223.711C99.6886 225.376 101.006 227.352 101.904 229.526C102.801 231.7 103.261 234.029 103.258 236.381Z" fill="#F7E1B1"/>
<path d="M170.025 168.793V170.557H168.262" stroke="#009FE3" stroke-miterlimit="10"/>
<path d="M164.734 170.559H4.22949" stroke="#009FE3" stroke-miterlimit="10" stroke-dasharray="1.24 1.24"/>
<path d="M2.46559 170.557H0.67334V168.793" stroke="#009FE3" stroke-miterlimit="10"/>
<path d="M0.70166 165.267V4.78125" stroke="#009FE3" stroke-miterlimit="10" stroke-dasharray="1.24 1.24"/>
<path d="M0.67334 3.02139V1.25781H2.46559" stroke="#009FE3" stroke-miterlimit="10"/>
<path d="M5.99316 1.25781H166.498" stroke="#009FE3" stroke-miterlimit="10" stroke-dasharray="1.24 1.24"/>
<path d="M168.262 1.25781H170.025V3.02139" stroke="#009FE3" stroke-miterlimit="10"/>
<path d="M170.025 6.54688V167.032" stroke="#009FE3" stroke-miterlimit="10" stroke-dasharray="1.24 1.24"/>
<path d="M57.1431 170.554V168.848" stroke="#009FE3" stroke-miterlimit="10"/>
<path d="M57.1431 165.464V4.63672" stroke="#009FE3" stroke-miterlimit="10" stroke-dasharray="1.19 1.19"/>
<path d="M57.1431 2.9645V1.25781" stroke="#009FE3" stroke-miterlimit="10"/>
<path d="M113.584 170.554V168.848" stroke="#009FE3" stroke-miterlimit="10"/>
<path d="M113.584 165.464V4.63672" stroke="#009FE3" stroke-miterlimit="10" stroke-dasharray="1.19 1.19"/>
<path d="M113.584 2.9645V1.25781" stroke="#009FE3" stroke-miterlimit="10"/>
<path d="M170.026 57.6914H168.319" stroke="#009FE3" stroke-miterlimit="10"/>
<path d="M164.934 57.6914H4.0874" stroke="#009FE3" stroke-miterlimit="10" stroke-dasharray="1.19 1.19"/>
<path d="M2.40855 57.6914H0.70166" stroke="#009FE3" stroke-miterlimit="10"/>
<path d="M170.026 114.125H168.319" stroke="#009FE3" stroke-miterlimit="10"/>
<path d="M164.934 114.125H4.0874" stroke="#009FE3" stroke-miterlimit="10" stroke-dasharray="1.19 1.19"/>
<path d="M2.40855 114.125H0.70166" stroke="#009FE3" stroke-miterlimit="10"/>
<path d="M57.1429 114.125H0.70166V170.559H57.1429V114.125Z" fill="#FAC393"/>
<path d="M57.1429 114.125H0.70166V170.559H57.1429V114.125Z" stroke="#966C44" stroke-miterlimit="10"/>
<path d="M170.026 57.6914H113.584V114.126H170.026V57.6914Z" fill="#FAC393"/>
<path d="M170.026 57.6914H113.584V114.126H170.026V57.6914Z" stroke="#966C44" stroke-miterlimit="10"/>
<path d="M113.584 1.25781H57.1431V57.6923H113.584V1.25781Z" fill="#FAC393"/>
<path d="M113.584 1.25781H57.1431V57.6923H113.584V1.25781Z" stroke="#966C44" stroke-miterlimit="10"/>
<path d="M113.584 57.6914H57.1431V114.126H113.584V57.6914Z" fill="#FAC393"/>
<path d="M113.584 57.6914H57.1431V114.126H113.584V57.6914Z" stroke="#966C44" stroke-miterlimit="10"/>
<path d="M344.556 236.381C344.556 239.927 343.504 243.392 341.533 246.34C339.563 249.288 336.762 251.585 333.485 252.94C330.209 254.296 326.604 254.649 323.126 253.955C319.649 253.261 316.456 251.552 313.95 249.043C311.445 246.534 309.74 243.338 309.052 239.86C308.364 236.382 308.723 232.778 310.083 229.504C311.444 226.23 313.746 223.433 316.697 221.467C319.648 219.502 323.116 218.455 326.662 218.461C329.014 218.461 331.343 218.925 333.516 219.826C335.689 220.727 337.663 222.047 339.325 223.711C340.987 225.376 342.304 227.352 343.202 229.526C344.099 231.7 344.559 234.029 344.556 236.381Z" fill="#F7E1B1"/>
<path d="M326.661 214.449V189.219" stroke="#1D1D1B" stroke-miterlimit="10"/>
<path d="M326.661 182.195L330.701 192.094L326.661 189.762L322.622 192.094L326.661 182.195Z" fill="#1D1D1B"/>
<path d="M411.323 168.793V170.557H409.56" stroke="#009FE3" stroke-miterlimit="10"/>
<path d="M406.032 170.559H245.527" stroke="#009FE3" stroke-miterlimit="10" stroke-dasharray="1.24 1.24"/>
<path d="M243.763 170.557H241.971V168.793" stroke="#009FE3" stroke-miterlimit="10"/>
<path d="M241.971 165.267V4.78125" stroke="#009FE3" stroke-miterlimit="10" stroke-dasharray="1.24 1.24"/>
<path d="M241.971 3.02139V1.25781H243.763" stroke="#009FE3" stroke-miterlimit="10"/>
<path d="M247.291 1.25781H407.796" stroke="#009FE3" stroke-miterlimit="10" stroke-dasharray="1.24 1.24"/>
<path d="M409.56 1.25781H411.323V3.02139" stroke="#009FE3" stroke-miterlimit="10"/>
<path d="M411.323 6.54688V167.032" stroke="#009FE3" stroke-miterlimit="10" stroke-dasharray="1.24 1.24"/>
<path d="M298.441 170.554V168.848" stroke="#009FE3" stroke-miterlimit="10"/>
<path d="M298.441 165.464V4.63672" stroke="#009FE3" stroke-miterlimit="10" stroke-dasharray="1.19 1.19"/>
<path d="M298.441 2.9645V1.25781" stroke="#009FE3" stroke-miterlimit="10"/>
<path d="M354.882 170.554V168.848" stroke="#009FE3" stroke-miterlimit="10"/>
<path d="M354.882 165.464V4.63672" stroke="#009FE3" stroke-miterlimit="10" stroke-dasharray="1.19 1.19"/>
<path d="M354.882 2.9645V1.25781" stroke="#009FE3" stroke-miterlimit="10"/>
<path d="M411.323 57.6914H409.616" stroke="#009FE3" stroke-miterlimit="10"/>
<path d="M406.231 57.6914H245.385" stroke="#009FE3" stroke-miterlimit="10" stroke-dasharray="1.19 1.19"/>
<path d="M243.678 57.6914H241.971" stroke="#009FE3" stroke-miterlimit="10"/>
<path d="M411.323 114.125H409.616" stroke="#009FE3" stroke-miterlimit="10"/>
<path d="M406.231 114.125H245.385" stroke="#009FE3" stroke-miterlimit="10" stroke-dasharray="1.19 1.19"/>
<path d="M243.678 114.125H241.971" stroke="#009FE3" stroke-miterlimit="10"/>
<path d="M298.412 57.6914H241.971V114.126H298.412V57.6914Z" fill="#FAC393"/>
<path d="M298.412 57.6914H241.971V114.126H298.412V57.6914Z" stroke="#966C44" stroke-miterlimit="10"/>
<path d="M411.323 57.6914H354.882V114.126H411.323V57.6914Z" fill="#FAC393"/>
<path d="M411.323 57.6914H354.882V114.126H411.323V57.6914Z" stroke="#966C44" stroke-miterlimit="10"/>
<path d="M411.323 1.25781H354.882V57.6923H411.323V1.25781Z" fill="#FAC393"/>
<path d="M411.323 1.25781H354.882V57.6923H411.323V1.25781Z" stroke="#966C44" stroke-miterlimit="10"/>
<path d="M354.882 1.25781H298.441V57.6923H354.882V1.25781Z" fill="#FAC393"/>
<path d="M354.882 1.25781H298.441V57.6923H354.882V1.25781Z" stroke="#966C44" stroke-miterlimit="10"/>
<path d="M354.882 57.6914H298.441V114.126H354.882V57.6914Z" fill="#FAC393"/>
<path d="M354.882 57.6914H298.441V114.126H354.882V57.6914Z" stroke="#966C44" stroke-miterlimit="10"/>
<path d="M568.756 214.449V189.219" stroke="#1D1D1B" stroke-miterlimit="10"/>
<path d="M568.756 182.195L572.795 192.094L568.756 189.762L564.716 192.094L568.756 182.195Z" fill="#1D1D1B"/>
<path d="M586.649 236.381C586.644 239.919 585.589 243.375 583.62 246.314C581.65 249.252 578.853 251.541 575.583 252.891C572.313 254.241 568.716 254.591 565.247 253.897C561.778 253.204 558.592 251.497 556.092 248.994C553.593 246.491 551.891 243.303 551.203 239.833C550.515 236.363 550.871 232.767 552.226 229.499C553.581 226.232 555.875 223.439 558.817 221.474C561.759 219.51 565.217 218.461 568.755 218.461C571.109 218.457 573.439 218.918 575.614 219.818C577.788 220.718 579.764 222.038 581.427 223.703C583.089 225.368 584.407 227.345 585.303 229.521C586.199 231.697 586.657 234.028 586.649 236.381Z" fill="#F7E1B1"/>
<path d="M653.417 168.793V170.557H651.653" stroke="#009FE3" stroke-miterlimit="10"/>
<path d="M648.126 170.559H487.621" stroke="#009FE3" stroke-miterlimit="10" stroke-dasharray="1.24 1.24"/>
<path d="M485.858 170.557H484.094V168.793" stroke="#009FE3" stroke-miterlimit="10"/>
<path d="M484.094 165.267V4.78125" stroke="#009FE3" stroke-miterlimit="10" stroke-dasharray="1.24 1.24"/>
<path d="M484.094 3.02139V1.25781H485.858" stroke="#009FE3" stroke-miterlimit="10"/>
<path d="M489.385 1.25781H649.889" stroke="#009FE3" stroke-miterlimit="10" stroke-dasharray="1.24 1.24"/>
<path d="M651.653 1.25781H653.417V3.02139" stroke="#009FE3" stroke-miterlimit="10"/>
<path d="M653.417 6.54688V167.032" stroke="#009FE3" stroke-miterlimit="10" stroke-dasharray="1.24 1.24"/>
<path d="M540.535 170.554V168.848" stroke="#009FE3" stroke-miterlimit="10"/>
<path d="M540.535 165.464V4.63672" stroke="#009FE3" stroke-miterlimit="10" stroke-dasharray="1.19 1.19"/>
<path d="M540.535 2.9645V1.25781" stroke="#009FE3" stroke-miterlimit="10"/>
<path d="M596.977 170.554V168.848" stroke="#009FE3" stroke-miterlimit="10"/>
<path d="M596.977 165.464V4.63672" stroke="#009FE3" stroke-miterlimit="10" stroke-dasharray="1.19 1.19"/>
<path d="M596.977 2.9645V1.25781" stroke="#009FE3" stroke-miterlimit="10"/>
<path d="M653.418 57.6914H651.711" stroke="#009FE3" stroke-miterlimit="10"/>
<path d="M648.325 57.6914H487.479" stroke="#009FE3" stroke-miterlimit="10" stroke-dasharray="1.19 1.19"/>
<path d="M485.801 57.6914H484.094" stroke="#009FE3" stroke-miterlimit="10"/>
<path d="M653.418 114.125H651.711" stroke="#009FE3" stroke-miterlimit="10"/>
<path d="M648.325 114.125H487.479" stroke="#009FE3" stroke-miterlimit="10" stroke-dasharray="1.19 1.19"/>
<path d="M485.801 114.125H484.094" stroke="#009FE3" stroke-miterlimit="10"/>
<path d="M540.535 114.125H484.094V170.559H540.535V114.125Z" fill="#FAC393"/>
<path d="M540.535 114.125H484.094V170.559H540.535V114.125Z" stroke="#966C44" stroke-miterlimit="10"/>
<path d="M540.535 57.6914H484.094V114.126H540.535V57.6914Z" fill="#FAC393"/>
<path d="M540.535 57.6914H484.094V114.126H540.535V57.6914Z" stroke="#966C44" stroke-miterlimit="10"/>
<path d="M653.418 57.6914H596.977V114.126H653.418V57.6914Z" fill="#FAC393"/>
<path d="M653.418 57.6914H596.977V114.126H653.418V57.6914Z" stroke="#966C44" stroke-miterlimit="10"/>
<path d="M596.976 1.25781H540.535V57.6923H596.976V1.25781Z" fill="#FAC393"/>
<path d="M596.976 1.25781H540.535V57.6923H596.976V1.25781Z" stroke="#966C44" stroke-miterlimit="10"/>
<path d="M596.976 57.6914H540.535V114.126H596.976V57.6914Z" fill="#FAC393"/>
<path d="M596.976 57.6914H540.535V114.126H596.976V57.6914Z" stroke="#966C44" stroke-miterlimit="10"/>
<path d="M596.976 114.125H540.535V170.559H596.976V114.125Z" fill="#FAC393"/>
<path d="M596.976 114.125H540.535V170.559H596.976V114.125Z" stroke="#966C44" stroke-miterlimit="10"/>
<path d="M828.345 236.381C828.34 239.919 827.286 243.375 825.316 246.314C823.346 249.252 820.55 251.541 817.28 252.891C814.009 254.241 810.412 254.591 806.943 253.897C803.474 253.204 800.288 251.497 797.789 248.994C795.289 246.491 793.588 243.303 792.899 239.833C792.211 236.363 792.567 232.767 793.922 229.499C795.278 226.232 797.571 223.439 800.513 221.474C803.455 219.51 806.914 218.461 810.452 218.461C812.805 218.457 815.136 218.918 817.31 219.818C819.485 220.718 821.46 222.038 823.123 223.703C824.786 225.368 826.103 227.345 826.999 229.521C827.895 231.697 828.353 234.028 828.345 236.381Z" fill="#F7E1B1"/>
<path d="M810.451 214.449V189.219" stroke="#1D1D1B" stroke-miterlimit="10"/>
<path d="M810.452 182.195L814.491 192.094L810.452 189.762L806.412 192.094L810.452 182.195Z" fill="#1D1D1B"/>
<path d="M895.113 168.793V170.557H893.35" stroke="#009FE3" stroke-miterlimit="10"/>
<path d="M889.822 170.559H729.317" stroke="#009FE3" stroke-miterlimit="10" stroke-dasharray="1.24 1.24"/>
<path d="M727.554 170.557H725.79V168.793" stroke="#009FE3" stroke-miterlimit="10"/>
<path d="M725.79 165.267V4.78125" stroke="#009FE3" stroke-miterlimit="10" stroke-dasharray="1.24 1.24"/>
<path d="M725.79 3.02139V1.25781H727.554" stroke="#009FE3" stroke-miterlimit="10"/>
<path d="M731.081 1.25781H891.586" stroke="#009FE3" stroke-miterlimit="10" stroke-dasharray="1.24 1.24"/>
<path d="M893.35 1.25781H895.113V3.02139" stroke="#009FE3" stroke-miterlimit="10"/>
<path d="M895.113 6.54688V167.032" stroke="#009FE3" stroke-miterlimit="10" stroke-dasharray="1.24 1.24"/>
<path d="M782.231 170.554V168.848" stroke="#009FE3" stroke-miterlimit="10"/>
<path d="M782.231 165.464V4.63672" stroke="#009FE3" stroke-miterlimit="10" stroke-dasharray="1.19 1.19"/>
<path d="M782.231 2.9645V1.25781" stroke="#009FE3" stroke-miterlimit="10"/>
<path d="M838.673 170.554V168.848" stroke="#009FE3" stroke-miterlimit="10"/>
<path d="M838.673 165.464V4.63672" stroke="#009FE3" stroke-miterlimit="10" stroke-dasharray="1.19 1.19"/>
<path d="M838.673 2.9645V1.25781" stroke="#009FE3" stroke-miterlimit="10"/>
<path d="M895.113 57.6914H893.406" stroke="#009FE3" stroke-miterlimit="10"/>
<path d="M890.022 57.6914H729.176" stroke="#009FE3" stroke-miterlimit="10" stroke-dasharray="1.19 1.19"/>
<path d="M727.497 57.6914H725.79" stroke="#009FE3" stroke-miterlimit="10"/>
<path d="M895.113 114.125H893.406" stroke="#009FE3" stroke-miterlimit="10"/>
<path d="M890.022 114.125H729.176" stroke="#009FE3" stroke-miterlimit="10" stroke-dasharray="1.19 1.19"/>
<path d="M727.497 114.125H725.79" stroke="#009FE3" stroke-miterlimit="10"/>
<path d="M782.231 57.6914H725.79V114.126H782.231V57.6914Z" fill="#FAC393"/>
<path d="M782.231 57.6914H725.79V114.126H782.231V57.6914Z" stroke="#966C44" stroke-miterlimit="10"/>
<path d="M895.114 57.6914H838.673V114.126H895.114V57.6914Z" fill="#FAC393"/>
<path d="M895.114 57.6914H838.673V114.126H895.114V57.6914Z" stroke="#966C44" stroke-miterlimit="10"/>
<path d="M895.114 114.125H838.673V170.559H895.114V114.125Z" fill="#FAC393"/>
<path d="M895.114 114.125H838.673V170.559H895.114V114.125Z" stroke="#966C44" stroke-miterlimit="10"/>
<path d="M838.673 57.6914H782.231V114.126H838.673V57.6914Z" fill="#FAC393"/>
<path d="M838.673 57.6914H782.231V114.126H838.673V57.6914Z" stroke="#966C44" stroke-miterlimit="10"/>
</svg>
