<svg width="222" height="347" viewBox="0 0 222 347" fill="none" xmlns="http://www.w3.org/2000/svg">
<path d="M192.78 1.26562H29.4877C13.9019 1.26562 1.26709 13.8989 1.26709 29.4829V317.515C1.26709 333.099 13.9019 345.732 29.4877 345.732H192.78C208.366 345.732 221.001 333.099 221.001 317.515V29.4829C221.001 13.8989 208.366 1.26562 192.78 1.26562Z" stroke="#FDE3D7"/>
<path d="M21.8063 2.32031C16.8167 3.75688 12.3191 6.53936 8.80642 10.3627C5.29376 14.186 2.90173 18.9026 1.89258 23.9953" stroke="white" stroke-dasharray="2.32 1.57"/>
<path d="M1.26709 36.9648V312.168" stroke="white" stroke-dasharray="2.25 1.5"/>
<path d="M2.31934 325.191C3.77091 330.168 6.55485 334.653 10.3704 338.162C14.1859 341.671 18.8879 344.071 23.9684 345.103" stroke="white" stroke-dasharray="2.32 1.57"/>
<path d="M37.1118 345.703H187.347" stroke="white" stroke-dasharray="2.29 1.54"/>
<path d="M200.461 344.65C205.447 343.216 209.942 340.438 213.455 336.62C216.967 332.802 219.361 328.091 220.375 323.004" stroke="white" stroke-dasharray="2.32 1.57"/>
<path d="M221.001 310.035V34.832" stroke="white" stroke-dasharray="2.25 1.5"/>
<path d="M219.948 21.7981C218.523 16.8082 215.747 12.3088 211.927 8.79549C208.107 5.28221 203.391 2.89148 198.299 1.88672" stroke="white" stroke-dasharray="2.32 1.57"/>
<path d="M185.156 1.26562H34.9214" stroke="white" stroke-dasharray="2.29 1.54"/>
<path d="M32.7307 1.26593H29.4876C28.3845 1.26051 27.2821 1.32702 26.1876 1.46505M196.137 1.46505C195.043 1.32702 193.94 1.26051 192.837 1.26593H189.537M221.001 32.6974V29.4832C221.001 28.3811 220.945 27.2797 220.83 26.1836M220.83 320.786C220.945 319.69 221.002 318.589 221.001 317.487V314.301M189.537 345.59H192.78C193.882 345.591 194.984 345.534 196.08 345.42M26.1876 345.42C27.2839 345.534 28.3854 345.591 29.4876 345.59H32.7307M1.267 314.301V317.487C1.26076 318.59 1.32729 319.692 1.46614 320.786M1.46614 26.1836C1.3281 27.2779 1.26158 28.3802 1.267 29.4832V32.6974" stroke="white"/>
<path d="M128.516 303.377C128.516 306.923 127.464 310.389 125.493 313.336C123.523 316.284 120.722 318.581 117.445 319.936C114.169 321.292 110.564 321.645 107.086 320.951C103.609 320.257 100.416 318.548 97.9102 316.039C95.4048 313.53 93.7001 310.334 93.0118 306.856C92.3235 303.378 92.6825 299.774 94.0433 296.5C95.4042 293.226 97.7058 290.429 100.657 288.463C103.608 286.498 107.076 285.451 110.622 285.457C112.974 285.457 115.303 285.921 117.476 286.822C119.649 287.723 121.623 289.043 123.285 290.707C124.947 292.372 126.264 294.348 127.162 296.522C128.059 298.696 128.519 301.025 128.516 303.377Z" fill="#F7E1B1"/>
<path d="M110.622 281.445V256.215" stroke="#1D1D1B" stroke-miterlimit="10"/>
<path d="M110.622 249.191L114.661 259.09L110.622 256.758L106.582 259.09L110.622 249.191Z" fill="#1D1D1B"/>
<path d="M195.284 235.789V237.553H193.52" stroke="#009FE3" stroke-miterlimit="10"/>
<path d="M189.993 237.555H29.4878" stroke="#009FE3" stroke-miterlimit="10" stroke-dasharray="1.24 1.24"/>
<path d="M27.7239 237.553H25.9316V235.789" stroke="#009FE3" stroke-miterlimit="10"/>
<path d="M25.9316 232.263V71.7773" stroke="#009FE3" stroke-miterlimit="10" stroke-dasharray="1.24 1.24"/>
<path d="M25.9316 70.0175V68.2539H27.7239" stroke="#009FE3" stroke-miterlimit="10"/>
<path d="M31.2515 68.2539H191.728" stroke="#009FE3" stroke-miterlimit="10" stroke-dasharray="1.24 1.24"/>
<path d="M193.52 68.2539H195.284V70.0175" stroke="#009FE3" stroke-miterlimit="10"/>
<path d="M195.284 73.543V234.029" stroke="#009FE3" stroke-miterlimit="10" stroke-dasharray="1.24 1.24"/>
<path d="M82.3726 237.55V235.844" stroke="#009FE3" stroke-miterlimit="10"/>
<path d="M82.3726 232.46V71.6328" stroke="#009FE3" stroke-miterlimit="10" stroke-dasharray="1.19 1.19"/>
<path d="M82.3726 69.9606V68.2539" stroke="#009FE3" stroke-miterlimit="10"/>
<path d="M138.842 237.55V235.844" stroke="#009FE3" stroke-miterlimit="10"/>
<path d="M138.842 232.46V71.6328" stroke="#009FE3" stroke-miterlimit="10" stroke-dasharray="1.19 1.19"/>
<path d="M138.842 69.9606V68.2539" stroke="#009FE3" stroke-miterlimit="10"/>
<path d="M195.284 124.688H193.577" stroke="#009FE3" stroke-miterlimit="10"/>
<path d="M190.191 124.688H29.3452" stroke="#009FE3" stroke-miterlimit="10" stroke-dasharray="1.19 1.19"/>
<path d="M27.6385 124.688H25.9316" stroke="#009FE3" stroke-miterlimit="10"/>
<path d="M195.284 181.121H193.577" stroke="#009FE3" stroke-miterlimit="10"/>
<path d="M190.191 181.121H29.3452" stroke="#009FE3" stroke-miterlimit="10" stroke-dasharray="1.19 1.19"/>
<path d="M27.6385 181.121H25.9316" stroke="#009FE3" stroke-miterlimit="10"/>
<path d="M82.3729 181.125H25.9316V237.559H82.3729V181.125Z" fill="#FAC393"/>
<path d="M82.3729 181.125H25.9316V237.559H82.3729V181.125Z" stroke="#966C44" stroke-miterlimit="10"/>
<path d="M82.3729 124.688H25.9316V181.122H82.3729V124.688Z" fill="#FAC393"/>
<path d="M82.3729 124.688H25.9316V181.122H82.3729V124.688Z" stroke="#966C44" stroke-miterlimit="10"/>
<path d="M195.283 124.688H138.842V181.122H195.283V124.688Z" fill="#FAC393"/>
<path d="M195.283 124.688H138.842V181.122H195.283V124.688Z" stroke="#966C44" stroke-miterlimit="10"/>
<path d="M138.843 68.2539H82.4014V124.688H138.843V68.2539Z" fill="#FAC393"/>
<path d="M138.843 68.2539H82.4014V124.688H138.843V68.2539Z" stroke="#966C44" stroke-miterlimit="10"/>
<path d="M138.843 124.688H82.4014V181.122H138.843V124.688Z" fill="#FAC393"/>
<path d="M138.843 124.688H82.4014V181.122H138.843V124.688Z" stroke="#966C44" stroke-miterlimit="10"/>
<path d="M138.843 181.125H82.4014V237.559H138.843V181.125Z" fill="#FAC393"/>
<path d="M138.843 181.125H82.4014V237.559H138.843V181.125Z" stroke="#966C44" stroke-miterlimit="10"/>
<path d="M80.79 6H138.21C141.602 6 144.855 7.33354 147.254 9.70726C149.652 12.081 151 15.3004 151 18.6574V41.3872C151 44.7323 149.657 47.9404 147.267 50.3058C144.877 52.6712 141.635 54 138.255 54H80.79C77.3979 54 74.1447 52.6665 71.7461 50.2927C69.3475 47.919 68 44.6996 68 41.3426V18.6128C68.0119 15.2636 69.3647 12.0556 71.762 9.69149C74.1593 7.3274 77.4057 5.99998 80.79 6Z" fill="#DADADA"/>
</svg>
