<svg width="422" height="275" viewBox="0 0 422 275" fill="none" xmlns="http://www.w3.org/2000/svg">
<path d="M105.786 211.363V0.328125H19.1237C8.98067 0.681089 0.695312 8.96645 0.695312 19.1095V256.301C0.695312 266.444 8.98067 274.73 19.1237 274.73L403.056 274.915C413.199 274.915 421.484 266.63 421.484 256.487V211.345H105.804L105.786 211.363Z" fill="#EFE7E3"/>
<path d="M105.451 211.365L7.27148 270.254" stroke="#231F20" stroke-width="0.743082" stroke-miterlimit="10"/>
<path d="M115.736 237.109C114.59 237.109 113.609 236.798 112.793 236.175C111.984 235.552 111.364 234.642 110.935 233.446C110.512 232.25 110.301 230.807 110.301 229.117C110.301 227.449 110.516 226.016 110.945 224.82C111.375 223.617 111.998 222.701 112.814 222.07C113.631 221.44 114.605 221.125 115.736 221.125C116.868 221.125 117.842 221.44 118.658 222.07C119.475 222.701 120.098 223.617 120.527 224.82C120.957 226.016 121.172 227.449 121.172 229.117C121.172 230.807 120.957 232.25 120.527 233.446C120.105 234.642 119.485 235.552 118.669 236.175C117.853 236.798 116.875 237.109 115.736 237.109ZM115.736 235.391C116.481 235.391 117.118 235.147 117.648 234.66C118.178 234.173 118.583 233.461 118.862 232.522C119.142 231.584 119.281 230.449 119.281 229.117C119.281 227.785 119.142 226.646 118.862 225.701C118.583 224.756 118.178 224.036 117.648 223.542C117.118 223.048 116.481 222.801 115.736 222.801C114.992 222.801 114.351 223.048 113.813 223.542C113.284 224.036 112.875 224.756 112.589 225.701C112.31 226.646 112.17 227.785 112.17 229.117C112.17 230.449 112.31 231.584 112.589 232.522C112.868 233.461 113.273 234.173 113.803 234.66C114.34 235.147 114.984 235.391 115.736 235.391Z" fill="#231F20"/>
<path d="M362.885 236.895H360.93V223.359H360.844L357.062 225.873V223.918L360.93 221.34H362.885V236.895ZM371.623 237.109C370.477 237.109 369.496 236.798 368.68 236.175C367.87 235.552 367.251 234.642 366.821 233.446C366.399 232.25 366.188 230.807 366.188 229.117C366.188 227.449 366.402 226.016 366.832 224.82C367.262 223.617 367.885 222.701 368.701 222.07C369.518 221.44 370.492 221.125 371.623 221.125C372.755 221.125 373.729 221.44 374.545 222.07C375.361 222.701 375.984 223.617 376.414 224.82C376.844 226.016 377.059 227.449 377.059 229.117C377.059 230.807 376.844 232.25 376.414 233.446C375.992 234.642 375.372 235.552 374.556 236.175C373.739 236.798 372.762 237.109 371.623 237.109ZM371.623 235.391C372.368 235.391 373.005 235.147 373.535 234.66C374.065 234.173 374.47 233.461 374.749 232.522C375.028 231.584 375.168 230.449 375.168 229.117C375.168 227.785 375.028 226.646 374.749 225.701C374.47 224.756 374.065 224.036 373.535 223.542C373.005 223.048 372.368 222.801 371.623 222.801C370.878 222.801 370.237 223.048 369.7 223.542C369.17 224.036 368.762 224.756 368.476 225.701C368.196 226.646 368.057 227.785 368.057 229.117C368.057 230.449 368.196 231.584 368.476 232.522C368.755 233.461 369.16 234.173 369.689 234.66C370.227 235.147 370.871 235.391 371.623 235.391Z" fill="#231F20"/>
<path d="M237.098 237.109C236.174 237.109 235.332 236.934 234.573 236.583C233.821 236.225 233.22 235.734 232.769 235.111C232.325 234.481 232.085 233.772 232.049 232.984H233.918C233.968 233.443 234.14 233.858 234.434 234.23C234.727 234.596 235.107 234.886 235.572 235.101C236.038 235.308 236.546 235.412 237.098 235.412C237.757 235.412 238.351 235.262 238.881 234.961C239.411 234.66 239.826 234.248 240.127 233.726C240.428 233.203 240.578 232.619 240.578 231.975C240.578 231.309 240.421 230.711 240.105 230.181C239.798 229.644 239.368 229.225 238.816 228.924C238.272 228.616 237.656 228.458 236.969 228.451C235.587 228.43 234.62 228.895 234.068 229.848H232.199L233.295 221.34H241.717V223.059H234.906L234.326 227.613H234.477C234.827 227.341 235.254 227.123 235.755 226.958C236.256 226.793 236.775 226.711 237.312 226.711C238.286 226.711 239.164 226.937 239.944 227.388C240.732 227.832 241.348 228.451 241.792 229.246C242.243 230.041 242.469 230.936 242.469 231.932C242.469 232.92 242.236 233.808 241.771 234.596C241.305 235.383 240.664 235.999 239.848 236.443C239.031 236.887 238.115 237.109 237.098 237.109Z" fill="#231F20"/>
<path d="M368.465 211.369V0.742188" stroke="#231F20" stroke-width="0.371541" stroke-miterlimit="10"/>
<path d="M342.141 211.369V0.742188" stroke="#6D6E71" stroke-width="0.371541" stroke-miterlimit="10" stroke-dasharray="1.47 1.47"/>
<path d="M315.816 211.369V0.742188" stroke="#6D6E71" stroke-width="0.371541" stroke-miterlimit="10" stroke-dasharray="1.47 1.47"/>
<path d="M289.475 211.369V0.742188" stroke="#6D6E71" stroke-width="0.371541" stroke-miterlimit="10" stroke-dasharray="1.47 1.47"/>
<path d="M263.15 211.369V0.742188" stroke="#6D6E71" stroke-width="0.371541" stroke-miterlimit="10" stroke-dasharray="1.47 1.47"/>
<path d="M236.828 211.369V0.742188" stroke="#231F20" stroke-width="0.371541" stroke-miterlimit="10"/>
<path d="M210.504 211.369V0.742188" stroke="#6D6E71" stroke-width="0.371541" stroke-miterlimit="10" stroke-dasharray="1.47 1.47"/>
<path d="M184.16 211.369V0.742188" stroke="#6D6E71" stroke-width="0.371541" stroke-miterlimit="10" stroke-dasharray="1.47 1.47"/>
<path d="M157.838 211.369V0.742188" stroke="#6D6E71" stroke-width="0.371541" stroke-miterlimit="10" stroke-dasharray="1.47 1.47"/>
<path d="M131.514 211.369V0.742188" stroke="#6D6E71" stroke-width="0.371541" stroke-miterlimit="10" stroke-dasharray="1.47 1.47"/>
<path d="M421.131 211.369V0.742188" stroke="#231F20" stroke-width="0.743082" stroke-miterlimit="10"/>
<path d="M394.787 211.369V0.742188" stroke="#6D6E71" stroke-width="0.371541" stroke-miterlimit="10" stroke-dasharray="1.47 1.47"/>
<path d="M421.131 0.742188H105.451" stroke="#231F20" stroke-width="0.743082" stroke-miterlimit="10"/>
<path d="M105.451 0.685547V274.939" stroke="#231F20" stroke-width="0.743082" stroke-miterlimit="10"/>
<path d="M0.341797 158.697H421.13" stroke="#231F20" stroke-width="0.743082" stroke-miterlimit="10"/>
<path d="M0.341797 106.051H421.13" stroke="#231F20" stroke-width="0.743082" stroke-miterlimit="10"/>
<path d="M0.341797 53.3906H421.13" stroke="#231F20" stroke-width="0.743082" stroke-miterlimit="10"/>
<path d="M0.341797 211.371H421.13" stroke="#231F20" stroke-width="0.743082" stroke-miterlimit="10"/>
</svg>
