<svg width="19" height="31" viewBox="0 0 19 31" fill="none" xmlns="http://www.w3.org/2000/svg">
<mask id="path-1-outside-1_29_2" maskUnits="userSpaceOnUse" x="0" y="0" width="19" height="31" fill="black">
<rect fill="white" width="19" height="31"/>
<path d="M14.5312 4.375V27H9.8125V8.84375H9.6875L4.5 12.0938V7.9375L10.0938 4.375H14.5312Z"/>
</mask>
<path d="M14.5312 4.375H18.5312C18.5312 2.16586 16.7404 0.375 14.5312 0.375V4.375ZM14.5312 27V31C16.7404 31 18.5312 29.2091 18.5312 27H14.5312ZM9.8125 27H5.8125C5.8125 29.2091 7.60336 31 9.8125 31V27ZM9.8125 8.84375H13.8125C13.8125 6.63461 12.0216 4.84375 9.8125 4.84375V8.84375ZM9.6875 8.84375V4.84375C8.93635 4.84375 8.20038 5.05526 7.56383 5.45405L9.6875 8.84375ZM4.5 12.0938H0.5C0.5 13.5486 1.28994 14.8888 2.56282 15.5934C3.8357 16.298 5.39077 16.2559 6.62367 15.4834L4.5 12.0938ZM4.5 7.9375L2.35128 4.56363C1.19818 5.298 0.5 6.57041 0.5 7.9375H4.5ZM10.0938 4.375V0.375C9.33252 0.375 8.5871 0.592214 7.94503 1.00113L10.0938 4.375ZM10.5312 4.375V27H18.5312V4.375H10.5312ZM14.5312 23H9.8125V31H14.5312V23ZM13.8125 27V8.84375H5.8125V27H13.8125ZM9.8125 4.84375H9.6875V12.8438H9.8125V4.84375ZM7.56383 5.45405L2.37633 8.70405L6.62367 15.4834L11.8112 12.2334L7.56383 5.45405ZM8.5 12.0938V7.9375H0.5V12.0938H8.5ZM6.64872 11.3114L12.2425 7.74887L7.94503 1.00113L2.35128 4.56363L6.64872 11.3114ZM10.0938 8.375H14.5312V0.375H10.0938V8.375Z" fill="#DA511D" mask="url(#path-1-outside-1_29_2)"/>
</svg>
