<svg width="555" height="381" viewBox="0 0 555 381" fill="none" xmlns="http://www.w3.org/2000/svg">
<path d="M1.89722 30.2332H3.12653" stroke="#00A0E9" stroke-width="2" stroke-miterlimit="10"/>
<path d="M5.58938 30.2332H551.181" stroke="#00A0E9" stroke-width="2" stroke-miterlimit="10" stroke-dasharray="1.2 1.2"/>
<path d="M552.404 30.2332H553.633" stroke="#00A0E9" stroke-width="2" stroke-miterlimit="10"/>
<path d="M1.89722 59.3062H3.12653" stroke="#00A0E9" stroke-width="2" stroke-miterlimit="10"/>
<path d="M5.58938 59.3062H551.181" stroke="#00A0E9" stroke-width="2" stroke-miterlimit="10" stroke-dasharray="1.2 1.2"/>
<path d="M552.404 59.3062H553.633" stroke="#00A0E9" stroke-width="2" stroke-miterlimit="10"/>
<path d="M1.89722 88.3799H3.12653" stroke="#00A0E9" stroke-width="2" stroke-miterlimit="10"/>
<path d="M5.58938 88.3799H551.181" stroke="#00A0E9" stroke-width="2" stroke-miterlimit="10" stroke-dasharray="1.2 1.2"/>
<path d="M552.404 88.3799H553.633" stroke="#00A0E9" stroke-width="2" stroke-miterlimit="10"/>
<path d="M1.89722 117.473H3.12653" stroke="#00A0E9" stroke-width="2" stroke-miterlimit="10"/>
<path d="M5.58938 117.473H551.181" stroke="#00A0E9" stroke-width="2" stroke-miterlimit="10" stroke-dasharray="1.2 1.2"/>
<path d="M552.404 117.473H553.633" stroke="#00A0E9" stroke-width="2" stroke-miterlimit="10"/>
<path d="M1.89722 146.546H3.12653" stroke="#00A0E9" stroke-width="2" stroke-miterlimit="10"/>
<path d="M5.58938 146.546H551.181" stroke="#00A0E9" stroke-width="2" stroke-miterlimit="10" stroke-dasharray="1.2 1.2"/>
<path d="M552.404 146.546H553.633" stroke="#00A0E9" stroke-width="2" stroke-miterlimit="10"/>
<path d="M1.89722 175.619H3.12653" stroke="#00A0E9" stroke-width="2" stroke-miterlimit="10"/>
<path d="M5.58938 175.619H551.181" stroke="#00A0E9" stroke-width="2" stroke-miterlimit="10" stroke-dasharray="1.2 1.2"/>
<path d="M552.404 175.619H553.633" stroke="#00A0E9" stroke-width="2" stroke-miterlimit="10"/>
<path d="M1.89722 204.712H3.12653" stroke="#00A0E9" stroke-width="2" stroke-miterlimit="10"/>
<path d="M5.58938 204.712H551.181" stroke="#00A0E9" stroke-width="2" stroke-miterlimit="10" stroke-dasharray="1.2 1.2"/>
<path d="M552.404 204.712H553.633" stroke="#00A0E9" stroke-width="2" stroke-miterlimit="10"/>
<path d="M1.89722 233.787H3.12653" stroke="#00A0E9" stroke-width="2" stroke-miterlimit="10"/>
<path d="M5.58938 233.787H551.181" stroke="#00A0E9" stroke-width="2" stroke-miterlimit="10" stroke-dasharray="1.2 1.2"/>
<path d="M552.404 233.787H553.633" stroke="#00A0E9" stroke-width="2" stroke-miterlimit="10"/>
<path d="M1.89722 262.858H3.12653" stroke="#00A0E9" stroke-width="2" stroke-miterlimit="10"/>
<path d="M5.58938 262.858H551.181" stroke="#00A0E9" stroke-width="2" stroke-miterlimit="10" stroke-dasharray="1.2 1.2"/>
<path d="M552.404 262.858H553.633" stroke="#00A0E9" stroke-width="2" stroke-miterlimit="10"/>
<path d="M1.89722 291.952H3.12653" stroke="#00A0E9" stroke-width="2" stroke-miterlimit="10"/>
<path d="M5.58938 291.952H551.181" stroke="#00A0E9" stroke-width="2" stroke-miterlimit="10" stroke-dasharray="1.2 1.2"/>
<path d="M552.404 291.952H553.633" stroke="#00A0E9" stroke-width="2" stroke-miterlimit="10"/>
<path d="M1.89722 321.026H3.12653" stroke="#00A0E9" stroke-width="2" stroke-miterlimit="10"/>
<path d="M5.58938 321.026H551.181" stroke="#00A0E9" stroke-width="2" stroke-miterlimit="10" stroke-dasharray="1.2 1.2"/>
<path d="M552.404 321.026H553.633" stroke="#00A0E9" stroke-width="2" stroke-miterlimit="10"/>
<path d="M1.89722 350.098H3.12653" stroke="#00A0E9" stroke-width="2" stroke-miterlimit="10"/>
<path d="M5.58938 350.098H551.181" stroke="#00A0E9" stroke-width="2" stroke-miterlimit="10" stroke-dasharray="1.2 1.2"/>
<path d="M552.404 350.098H553.633" stroke="#00A0E9" stroke-width="2" stroke-miterlimit="10"/>
<path d="M30.9292 379.192V377.961" stroke="#00A0E9" stroke-width="2" stroke-miterlimit="10"/>
<path d="M30.9292 375.499V3.60132" stroke="#00A0E9" stroke-width="2" stroke-miterlimit="10" stroke-dasharray="1.2 1.2"/>
<path d="M30.9292 2.3702V1.13916" stroke="#00A0E9" stroke-width="2" stroke-miterlimit="10"/>
<path d="M59.9649 379.192V377.961" stroke="#00A0E9" stroke-width="2" stroke-miterlimit="10"/>
<path d="M59.9649 375.499V3.60132" stroke="#00A0E9" stroke-width="2" stroke-miterlimit="10" stroke-dasharray="1.2 1.2"/>
<path d="M59.9649 2.3702V1.13916" stroke="#00A0E9" stroke-width="2" stroke-miterlimit="10"/>
<path d="M89.0179 379.192V377.961" stroke="#00A0E9" stroke-width="2" stroke-miterlimit="10"/>
<path d="M89.0179 375.499V3.60132" stroke="#00A0E9" stroke-width="2" stroke-miterlimit="10" stroke-dasharray="1.2 1.2"/>
<path d="M89.0179 2.3702V1.13916" stroke="#00A0E9" stroke-width="2" stroke-miterlimit="10"/>
<path d="M118.05 379.192V377.961" stroke="#00A0E9" stroke-width="2" stroke-miterlimit="10"/>
<path d="M118.05 375.499V3.60132" stroke="#00A0E9" stroke-width="2" stroke-miterlimit="10" stroke-dasharray="1.2 1.2"/>
<path d="M118.05 2.3702V1.13916" stroke="#00A0E9" stroke-width="2" stroke-miterlimit="10"/>
<path d="M147.08 379.192V377.961" stroke="#00A0E9" stroke-width="2" stroke-miterlimit="10"/>
<path d="M147.08 375.499V3.60132" stroke="#00A0E9" stroke-width="2" stroke-miterlimit="10" stroke-dasharray="1.2 1.2"/>
<path d="M147.08 2.3702V1.13916" stroke="#00A0E9" stroke-width="2" stroke-miterlimit="10"/>
<path d="M176.133 379.192V377.961" stroke="#00A0E9" stroke-width="2" stroke-miterlimit="10"/>
<path d="M176.133 375.499V3.60132" stroke="#00A0E9" stroke-width="2" stroke-miterlimit="10" stroke-dasharray="1.2 1.2"/>
<path d="M176.133 2.3702V1.13916" stroke="#00A0E9" stroke-width="2" stroke-miterlimit="10"/>
<path d="M205.165 379.192V377.961" stroke="#00A0E9" stroke-width="2" stroke-miterlimit="10"/>
<path d="M205.165 375.499V3.60132" stroke="#00A0E9" stroke-width="2" stroke-miterlimit="10" stroke-dasharray="1.2 1.2"/>
<path d="M205.165 2.3702V1.13916" stroke="#00A0E9" stroke-width="2" stroke-miterlimit="10"/>
<path d="M234.199 379.192V377.961" stroke="#00A0E9" stroke-width="2" stroke-miterlimit="10"/>
<path d="M234.199 375.499V3.60132" stroke="#00A0E9" stroke-width="2" stroke-miterlimit="10" stroke-dasharray="1.2 1.2"/>
<path d="M234.199 2.3702V1.13916" stroke="#00A0E9" stroke-width="2" stroke-miterlimit="10"/>
<path d="M263.232 379.192V377.961" stroke="#00A0E9" stroke-width="2" stroke-miterlimit="10"/>
<path d="M263.232 375.499V3.60132" stroke="#00A0E9" stroke-width="2" stroke-miterlimit="10" stroke-dasharray="1.2 1.2"/>
<path d="M263.232 2.3702V1.13916" stroke="#00A0E9" stroke-width="2" stroke-miterlimit="10"/>
<path d="M292.285 379.192V377.961" stroke="#00A0E9" stroke-width="2" stroke-miterlimit="10"/>
<path d="M292.285 375.499V3.60132" stroke="#00A0E9" stroke-width="2" stroke-miterlimit="10" stroke-dasharray="1.2 1.2"/>
<path d="M292.285 2.3702V1.13916" stroke="#00A0E9" stroke-width="2" stroke-miterlimit="10"/>
<path d="M321.317 379.192V377.961" stroke="#00A0E9" stroke-width="2" stroke-miterlimit="10"/>
<path d="M321.317 375.499V3.60132" stroke="#00A0E9" stroke-width="2" stroke-miterlimit="10" stroke-dasharray="1.2 1.2"/>
<path d="M321.317 2.3702V1.13916" stroke="#00A0E9" stroke-width="2" stroke-miterlimit="10"/>
<path d="M350.347 379.192V377.961" stroke="#00A0E9" stroke-width="2" stroke-miterlimit="10"/>
<path d="M350.347 375.499V3.60132" stroke="#00A0E9" stroke-width="2" stroke-miterlimit="10" stroke-dasharray="1.2 1.2"/>
<path d="M350.347 2.3702V1.13916" stroke="#00A0E9" stroke-width="2" stroke-miterlimit="10"/>
<path d="M379.379 379.192V377.961" stroke="#00A0E9" stroke-width="2" stroke-miterlimit="10"/>
<path d="M379.379 375.499V3.60132" stroke="#00A0E9" stroke-width="2" stroke-miterlimit="10" stroke-dasharray="1.2 1.2"/>
<path d="M379.379 2.3702V1.13916" stroke="#00A0E9" stroke-width="2" stroke-miterlimit="10"/>
<path d="M408.434 379.192V377.961" stroke="#00A0E9" stroke-width="2" stroke-miterlimit="10"/>
<path d="M408.434 375.499V3.60132" stroke="#00A0E9" stroke-width="2" stroke-miterlimit="10" stroke-dasharray="1.2 1.2"/>
<path d="M408.434 2.3702V1.13916" stroke="#00A0E9" stroke-width="2" stroke-miterlimit="10"/>
<path d="M437.468 379.192V377.961" stroke="#00A0E9" stroke-width="2" stroke-miterlimit="10"/>
<path d="M437.468 375.499V3.60132" stroke="#00A0E9" stroke-width="2" stroke-miterlimit="10" stroke-dasharray="1.2 1.2"/>
<path d="M437.468 2.3702V1.13916" stroke="#00A0E9" stroke-width="2" stroke-miterlimit="10"/>
<path d="M466.5 379.192V377.961" stroke="#00A0E9" stroke-width="2" stroke-miterlimit="10"/>
<path d="M466.5 375.499V3.60132" stroke="#00A0E9" stroke-width="2" stroke-miterlimit="10" stroke-dasharray="1.2 1.2"/>
<path d="M466.5 2.3702V1.13916" stroke="#00A0E9" stroke-width="2" stroke-miterlimit="10"/>
<path d="M495.553 379.192V377.961" stroke="#00A0E9" stroke-width="2" stroke-miterlimit="10"/>
<path d="M495.553 375.499V3.60132" stroke="#00A0E9" stroke-width="2" stroke-miterlimit="10" stroke-dasharray="1.2 1.2"/>
<path d="M495.553 2.3702V1.13916" stroke="#00A0E9" stroke-width="2" stroke-miterlimit="10"/>
<path d="M524.583 379.192V377.961" stroke="#00A0E9" stroke-width="2" stroke-miterlimit="10"/>
<path d="M524.583 375.499V3.60132" stroke="#00A0E9" stroke-width="2" stroke-miterlimit="10" stroke-dasharray="1.2 1.2"/>
<path d="M524.583 2.3702V1.13916" stroke="#00A0E9" stroke-width="2" stroke-miterlimit="10"/>
<path d="M553.636 377.899V379.192H552.366" stroke="#00A0E9" stroke-width="2" stroke-miterlimit="10"/>
<path d="M549.806 379.192H4.46037" stroke="#00A0E9" stroke-width="2" stroke-miterlimit="10" stroke-dasharray="1.25 1.25"/>
<path d="M3.16752 379.192H1.89722V377.899" stroke="#00A0E9" stroke-width="2" stroke-miterlimit="10"/>
<path d="M1.89722 375.354V3.70337" stroke="#00A0E9" stroke-width="2" stroke-miterlimit="10" stroke-dasharray="1.25 1.25"/>
<path d="M1.89722 2.43175V1.13916H3.16752" stroke="#00A0E9" stroke-width="2" stroke-miterlimit="10"/>
<path d="M5.73051 1.13916H551.096" stroke="#00A0E9" stroke-width="2" stroke-miterlimit="10" stroke-dasharray="1.25 1.25"/>
<path d="M552.366 1.13916H553.636V2.43175" stroke="#00A0E9" stroke-width="2" stroke-miterlimit="10"/>
<path d="M553.636 4.97534V376.626" stroke="#00A0E9" stroke-width="2" stroke-miterlimit="10" stroke-dasharray="1.25 1.25"/>
</svg>
