<svg width="565" height="388" viewBox="0 0 565 388" fill="none" xmlns="http://www.w3.org/2000/svg">
<path d="M11.8972 37.5007H13.1265" stroke="#00A0E9" stroke-width="2" stroke-miterlimit="10"/>
<path d="M15.5894 37.5007H561.181" stroke="#00A0E9" stroke-width="2" stroke-miterlimit="10" stroke-dasharray="1.2 1.2"/>
<path d="M562.404 37.5007H563.633" stroke="#00A0E9" stroke-width="2" stroke-miterlimit="10"/>
<path d="M11.8972 66.5737H13.1265" stroke="#00A0E9" stroke-width="2" stroke-miterlimit="10"/>
<path d="M15.5894 66.5737H561.181" stroke="#00A0E9" stroke-width="2" stroke-miterlimit="10" stroke-dasharray="1.2 1.2"/>
<path d="M562.404 66.5737H563.633" stroke="#00A0E9" stroke-width="2" stroke-miterlimit="10"/>
<path d="M11.8972 95.6477H13.1265" stroke="#00A0E9" stroke-width="2" stroke-miterlimit="10"/>
<path d="M15.5894 95.6477H561.181" stroke="#00A0E9" stroke-width="2" stroke-miterlimit="10" stroke-dasharray="1.2 1.2"/>
<path d="M562.404 95.6477H563.633" stroke="#00A0E9" stroke-width="2" stroke-miterlimit="10"/>
<path d="M11.8972 124.741H13.1265" stroke="#00A0E9" stroke-width="2" stroke-miterlimit="10"/>
<path d="M15.5894 124.741H561.181" stroke="#00A0E9" stroke-width="2" stroke-miterlimit="10" stroke-dasharray="1.2 1.2"/>
<path d="M562.404 124.741H563.633" stroke="#00A0E9" stroke-width="2" stroke-miterlimit="10"/>
<path d="M11.8972 153.813H13.1265" stroke="#00A0E9" stroke-width="2" stroke-miterlimit="10"/>
<path d="M15.5894 153.813H561.181" stroke="#00A0E9" stroke-width="2" stroke-miterlimit="10" stroke-dasharray="1.2 1.2"/>
<path d="M562.404 153.813H563.633" stroke="#00A0E9" stroke-width="2" stroke-miterlimit="10"/>
<path d="M11.8972 182.886H13.1265" stroke="#00A0E9" stroke-width="2" stroke-miterlimit="10"/>
<path d="M15.5894 182.886H561.181" stroke="#00A0E9" stroke-width="2" stroke-miterlimit="10" stroke-dasharray="1.2 1.2"/>
<path d="M562.404 182.886H563.633" stroke="#00A0E9" stroke-width="2" stroke-miterlimit="10"/>
<path d="M11.8972 211.979H13.1265" stroke="#00A0E9" stroke-width="2" stroke-miterlimit="10"/>
<path d="M15.5894 211.979H561.181" stroke="#00A0E9" stroke-width="2" stroke-miterlimit="10" stroke-dasharray="1.2 1.2"/>
<path d="M562.404 211.979H563.633" stroke="#00A0E9" stroke-width="2" stroke-miterlimit="10"/>
<path d="M11.8972 241.054H13.1265" stroke="#00A0E9" stroke-width="2" stroke-miterlimit="10"/>
<path d="M15.5894 241.054H561.181" stroke="#00A0E9" stroke-width="2" stroke-miterlimit="10" stroke-dasharray="1.2 1.2"/>
<path d="M562.404 241.054H563.633" stroke="#00A0E9" stroke-width="2" stroke-miterlimit="10"/>
<path d="M11.8972 270.125H13.1265" stroke="#00A0E9" stroke-width="2" stroke-miterlimit="10"/>
<path d="M15.5894 270.125H561.181" stroke="#00A0E9" stroke-width="2" stroke-miterlimit="10" stroke-dasharray="1.2 1.2"/>
<path d="M562.404 270.125H563.633" stroke="#00A0E9" stroke-width="2" stroke-miterlimit="10"/>
<path d="M11.8972 299.219H13.1265" stroke="#00A0E9" stroke-width="2" stroke-miterlimit="10"/>
<path d="M15.5894 299.219H561.181" stroke="#00A0E9" stroke-width="2" stroke-miterlimit="10" stroke-dasharray="1.2 1.2"/>
<path d="M562.404 299.219H563.633" stroke="#00A0E9" stroke-width="2" stroke-miterlimit="10"/>
<path d="M11.8972 328.294H13.1265" stroke="#00A0E9" stroke-width="2" stroke-miterlimit="10"/>
<path d="M15.5894 328.294H561.181" stroke="#00A0E9" stroke-width="2" stroke-miterlimit="10" stroke-dasharray="1.2 1.2"/>
<path d="M562.404 328.294H563.633" stroke="#00A0E9" stroke-width="2" stroke-miterlimit="10"/>
<path d="M11.8972 357.366H13.1265" stroke="#00A0E9" stroke-width="2" stroke-miterlimit="10"/>
<path d="M15.5894 357.366H561.181" stroke="#00A0E9" stroke-width="2" stroke-miterlimit="10" stroke-dasharray="1.2 1.2"/>
<path d="M562.404 357.366H563.633" stroke="#00A0E9" stroke-width="2" stroke-miterlimit="10"/>
<path d="M40.9292 386.46V385.229" stroke="#00A0E9" stroke-width="2" stroke-miterlimit="10"/>
<path d="M40.9292 382.766V10.8689" stroke="#00A0E9" stroke-width="2" stroke-miterlimit="10" stroke-dasharray="1.2 1.2"/>
<path d="M40.9292 9.63778V8.40674" stroke="#00A0E9" stroke-width="2" stroke-miterlimit="10"/>
<path d="M69.965 386.46V385.229" stroke="#00A0E9" stroke-width="2" stroke-miterlimit="10"/>
<path d="M69.965 382.766V10.8689" stroke="#00A0E9" stroke-width="2" stroke-miterlimit="10" stroke-dasharray="1.2 1.2"/>
<path d="M69.965 9.63778V8.40674" stroke="#00A0E9" stroke-width="2" stroke-miterlimit="10"/>
<path d="M99.0178 386.46V385.229" stroke="#00A0E9" stroke-width="2" stroke-miterlimit="10"/>
<path d="M99.0178 382.766V10.8689" stroke="#00A0E9" stroke-width="2" stroke-miterlimit="10" stroke-dasharray="1.2 1.2"/>
<path d="M99.0178 9.63778V8.40674" stroke="#00A0E9" stroke-width="2" stroke-miterlimit="10"/>
<path d="M128.05 386.46V385.229" stroke="#00A0E9" stroke-width="2" stroke-miterlimit="10"/>
<path d="M128.05 382.766V10.8689" stroke="#00A0E9" stroke-width="2" stroke-miterlimit="10" stroke-dasharray="1.2 1.2"/>
<path d="M128.05 9.63778V8.40674" stroke="#00A0E9" stroke-width="2" stroke-miterlimit="10"/>
<path d="M157.08 386.46V385.229" stroke="#00A0E9" stroke-width="2" stroke-miterlimit="10"/>
<path d="M157.08 382.766V10.8689" stroke="#00A0E9" stroke-width="2" stroke-miterlimit="10" stroke-dasharray="1.2 1.2"/>
<path d="M157.08 9.63778V8.40674" stroke="#00A0E9" stroke-width="2" stroke-miterlimit="10"/>
<path d="M186.133 386.46V385.229" stroke="#00A0E9" stroke-width="2" stroke-miterlimit="10"/>
<path d="M186.133 382.766V10.8689" stroke="#00A0E9" stroke-width="2" stroke-miterlimit="10" stroke-dasharray="1.2 1.2"/>
<path d="M186.133 9.63778V8.40674" stroke="#00A0E9" stroke-width="2" stroke-miterlimit="10"/>
<path d="M215.165 386.46V385.229" stroke="#00A0E9" stroke-width="2" stroke-miterlimit="10"/>
<path d="M215.165 382.766V10.8689" stroke="#00A0E9" stroke-width="2" stroke-miterlimit="10" stroke-dasharray="1.2 1.2"/>
<path d="M215.165 9.63778V8.40674" stroke="#00A0E9" stroke-width="2" stroke-miterlimit="10"/>
<path d="M244.199 386.46V385.229" stroke="#00A0E9" stroke-width="2" stroke-miterlimit="10"/>
<path d="M244.199 382.766V10.8689" stroke="#00A0E9" stroke-width="2" stroke-miterlimit="10" stroke-dasharray="1.2 1.2"/>
<path d="M244.199 9.63778V8.40674" stroke="#00A0E9" stroke-width="2" stroke-miterlimit="10"/>
<path d="M273.232 386.46V385.229" stroke="#00A0E9" stroke-width="2" stroke-miterlimit="10"/>
<path d="M273.232 382.766V10.8689" stroke="#00A0E9" stroke-width="2" stroke-miterlimit="10" stroke-dasharray="1.2 1.2"/>
<path d="M273.232 9.63778V8.40674" stroke="#00A0E9" stroke-width="2" stroke-miterlimit="10"/>
<path d="M302.285 386.46V385.229" stroke="#00A0E9" stroke-width="2" stroke-miterlimit="10"/>
<path d="M302.285 382.766V10.8689" stroke="#00A0E9" stroke-width="2" stroke-miterlimit="10" stroke-dasharray="1.2 1.2"/>
<path d="M302.285 9.63778V8.40674" stroke="#00A0E9" stroke-width="2" stroke-miterlimit="10"/>
<path d="M331.317 386.46V385.229" stroke="#00A0E9" stroke-width="2" stroke-miterlimit="10"/>
<path d="M331.317 382.766V10.8689" stroke="#00A0E9" stroke-width="2" stroke-miterlimit="10" stroke-dasharray="1.2 1.2"/>
<path d="M331.317 9.63778V8.40674" stroke="#00A0E9" stroke-width="2" stroke-miterlimit="10"/>
<path d="M360.347 386.46V385.229" stroke="#00A0E9" stroke-width="2" stroke-miterlimit="10"/>
<path d="M360.347 382.766V10.8689" stroke="#00A0E9" stroke-width="2" stroke-miterlimit="10" stroke-dasharray="1.2 1.2"/>
<path d="M360.347 9.63778V8.40674" stroke="#00A0E9" stroke-width="2" stroke-miterlimit="10"/>
<path d="M389.379 386.46V385.229" stroke="#00A0E9" stroke-width="2" stroke-miterlimit="10"/>
<path d="M389.379 382.766V10.8689" stroke="#00A0E9" stroke-width="2" stroke-miterlimit="10" stroke-dasharray="1.2 1.2"/>
<path d="M389.379 9.63778V8.40674" stroke="#00A0E9" stroke-width="2" stroke-miterlimit="10"/>
<path d="M418.434 386.46V385.229" stroke="#00A0E9" stroke-width="2" stroke-miterlimit="10"/>
<path d="M418.434 382.766V10.8689" stroke="#00A0E9" stroke-width="2" stroke-miterlimit="10" stroke-dasharray="1.2 1.2"/>
<path d="M418.434 9.63778V8.40674" stroke="#00A0E9" stroke-width="2" stroke-miterlimit="10"/>
<path d="M447.468 386.46V385.229" stroke="#00A0E9" stroke-width="2" stroke-miterlimit="10"/>
<path d="M447.468 382.766V10.8689" stroke="#00A0E9" stroke-width="2" stroke-miterlimit="10" stroke-dasharray="1.2 1.2"/>
<path d="M447.468 9.63778V8.40674" stroke="#00A0E9" stroke-width="2" stroke-miterlimit="10"/>
<path d="M476.5 386.46V385.229" stroke="#00A0E9" stroke-width="2" stroke-miterlimit="10"/>
<path d="M476.5 382.766V10.8689" stroke="#00A0E9" stroke-width="2" stroke-miterlimit="10" stroke-dasharray="1.2 1.2"/>
<path d="M476.5 9.63778V8.40674" stroke="#00A0E9" stroke-width="2" stroke-miterlimit="10"/>
<path d="M505.553 386.46V385.229" stroke="#00A0E9" stroke-width="2" stroke-miterlimit="10"/>
<path d="M505.553 382.766V10.8689" stroke="#00A0E9" stroke-width="2" stroke-miterlimit="10" stroke-dasharray="1.2 1.2"/>
<path d="M505.553 9.63778V8.40674" stroke="#00A0E9" stroke-width="2" stroke-miterlimit="10"/>
<path d="M534.583 386.46V385.229" stroke="#00A0E9" stroke-width="2" stroke-miterlimit="10"/>
<path d="M534.583 382.766V10.8689" stroke="#00A0E9" stroke-width="2" stroke-miterlimit="10" stroke-dasharray="1.2 1.2"/>
<path d="M534.583 9.63778V8.40674" stroke="#00A0E9" stroke-width="2" stroke-miterlimit="10"/>
<path d="M563.636 385.167V386.46H562.366" stroke="#00A0E9" stroke-width="2" stroke-miterlimit="10"/>
<path d="M559.806 386.46H14.4604" stroke="#00A0E9" stroke-width="2" stroke-miterlimit="10" stroke-dasharray="1.25 1.25"/>
<path d="M13.1675 386.46H11.8972V385.167" stroke="#00A0E9" stroke-width="2" stroke-miterlimit="10"/>
<path d="M11.8972 382.622V10.9709" stroke="#00A0E9" stroke-width="2" stroke-miterlimit="10" stroke-dasharray="1.25 1.25"/>
<path d="M11.8972 9.69933V8.40674H13.1675" stroke="#00A0E9" stroke-width="2" stroke-miterlimit="10"/>
<path d="M15.7305 8.40674H561.096" stroke="#00A0E9" stroke-width="2" stroke-miterlimit="10" stroke-dasharray="1.25 1.25"/>
<path d="M562.366 8.40674H563.636V9.69933" stroke="#00A0E9" stroke-width="2" stroke-miterlimit="10"/>
<path d="M563.636 12.2429V383.894" stroke="#00A0E9" stroke-width="2" stroke-miterlimit="10" stroke-dasharray="1.25 1.25"/>
<path d="M2.4303 32.2695C4.84795 34.4854 8.10563 36.2909 11.896 37.5014" stroke="#00A0E9" stroke-width="2" stroke-miterlimit="10" stroke-dasharray="1.25 1"/>
<path d="M11.8999 8.40674C7.29 9.88399 3.47912 12.223 1 15.1364" stroke="#00A0E9" stroke-width="2" stroke-miterlimit="10" stroke-dasharray="1.25 1"/>
<path d="M14.7261 1.47363C13.5787 3.52537 12.6158 5.86434 11.8782 8.42901" stroke="#00A0E9" stroke-width="2" stroke-miterlimit="10" stroke-dasharray="1.25 1"/>
<path d="M40.933 8.40761C40.175 5.76088 39.171 3.36035 37.9827 1.26758" stroke="#00A0E9" stroke-width="2" stroke-miterlimit="10" stroke-dasharray="1.25 1"/>
</svg>
