<svg width="731" height="381" viewBox="0 0 731 381" fill="none" xmlns="http://www.w3.org/2000/svg">
<path d="M11.6143 34.4023H12.7394" stroke="#00A0E9" stroke-width="2" stroke-miterlimit="10"/>
<path d="M14.9873 34.4023H726.953" stroke="#00A0E9" stroke-width="2" stroke-miterlimit="10" stroke-dasharray="1.2 1.2"/>
<path d="M728.079 34.4023H729.204" stroke="#00A0E9" stroke-width="2" stroke-miterlimit="10"/>
<path d="M11.6143 60.9814H12.7394" stroke="#00A0E9" stroke-width="2" stroke-miterlimit="10"/>
<path d="M14.9873 60.9814H726.953" stroke="#00A0E9" stroke-width="2" stroke-miterlimit="10" stroke-dasharray="1.2 1.2"/>
<path d="M728.079 60.9814H729.204" stroke="#00A0E9" stroke-width="2" stroke-miterlimit="10"/>
<path d="M11.6143 87.5791H12.7394" stroke="#00A0E9" stroke-width="2" stroke-miterlimit="10"/>
<path d="M14.9873 87.5791H726.953" stroke="#00A0E9" stroke-width="2" stroke-miterlimit="10" stroke-dasharray="1.2 1.2"/>
<path d="M728.079 87.5791H729.204" stroke="#00A0E9" stroke-width="2" stroke-miterlimit="10"/>
<path d="M11.6143 114.159H12.7394" stroke="#00A0E9" stroke-width="2" stroke-miterlimit="10"/>
<path d="M14.9873 114.159H726.953" stroke="#00A0E9" stroke-width="2" stroke-miterlimit="10" stroke-dasharray="1.2 1.2"/>
<path d="M728.079 114.159H729.204" stroke="#00A0E9" stroke-width="2" stroke-miterlimit="10"/>
<path d="M11.6143 140.738H12.7394" stroke="#00A0E9" stroke-width="2" stroke-miterlimit="10"/>
<path d="M14.9873 140.738H726.953" stroke="#00A0E9" stroke-width="2" stroke-miterlimit="10" stroke-dasharray="1.2 1.2"/>
<path d="M728.079 140.738H729.204" stroke="#00A0E9" stroke-width="2" stroke-miterlimit="10"/>
<path d="M11.6143 167.336H12.7394" stroke="#00A0E9" stroke-width="2" stroke-miterlimit="10"/>
<path d="M14.9873 167.336H726.953" stroke="#00A0E9" stroke-width="2" stroke-miterlimit="10" stroke-dasharray="1.2 1.2"/>
<path d="M728.079 167.336H729.204" stroke="#00A0E9" stroke-width="2" stroke-miterlimit="10"/>
<path d="M11.6143 193.915H12.7394" stroke="#00A0E9" stroke-width="2" stroke-miterlimit="10"/>
<path d="M14.9873 193.915H726.953" stroke="#00A0E9" stroke-width="2" stroke-miterlimit="10" stroke-dasharray="1.2 1.2"/>
<path d="M728.079 193.915H729.204" stroke="#00A0E9" stroke-width="2" stroke-miterlimit="10"/>
<path d="M11.6143 220.494H12.7394" stroke="#00A0E9" stroke-width="2" stroke-miterlimit="10"/>
<path d="M14.9873 220.494H726.953" stroke="#00A0E9" stroke-width="2" stroke-miterlimit="10" stroke-dasharray="1.2 1.2"/>
<path d="M728.079 220.494H729.204" stroke="#00A0E9" stroke-width="2" stroke-miterlimit="10"/>
<path d="M11.6143 247.092H12.7394" stroke="#00A0E9" stroke-width="2" stroke-miterlimit="10"/>
<path d="M14.9873 247.092H726.953" stroke="#00A0E9" stroke-width="2" stroke-miterlimit="10" stroke-dasharray="1.2 1.2"/>
<path d="M728.079 247.092H729.204" stroke="#00A0E9" stroke-width="2" stroke-miterlimit="10"/>
<path d="M11.6143 273.671H12.7394" stroke="#00A0E9" stroke-width="2" stroke-miterlimit="10"/>
<path d="M14.9873 273.671H726.953" stroke="#00A0E9" stroke-width="2" stroke-miterlimit="10" stroke-dasharray="1.2 1.2"/>
<path d="M728.079 273.671H729.204" stroke="#00A0E9" stroke-width="2" stroke-miterlimit="10"/>
<path d="M11.6143 300.25H12.7394" stroke="#00A0E9" stroke-width="2" stroke-miterlimit="10"/>
<path d="M14.9873 300.25H726.953" stroke="#00A0E9" stroke-width="2" stroke-miterlimit="10" stroke-dasharray="1.2 1.2"/>
<path d="M728.079 300.25H729.204" stroke="#00A0E9" stroke-width="2" stroke-miterlimit="10"/>
<path d="M11.6143 326.848H12.7394" stroke="#00A0E9" stroke-width="2" stroke-miterlimit="10"/>
<path d="M14.9873 326.848H726.953" stroke="#00A0E9" stroke-width="2" stroke-miterlimit="10" stroke-dasharray="1.2 1.2"/>
<path d="M728.079 326.848H729.204" stroke="#00A0E9" stroke-width="2" stroke-miterlimit="10"/>
<path d="M11.6143 353.427H12.7394" stroke="#00A0E9" stroke-width="2" stroke-miterlimit="10"/>
<path d="M14.9873 353.427H726.953" stroke="#00A0E9" stroke-width="2" stroke-miterlimit="10" stroke-dasharray="1.2 1.2"/>
<path d="M728.079 353.427H729.204" stroke="#00A0E9" stroke-width="2" stroke-miterlimit="10"/>
<path d="M38.1865 380.005V378.88" stroke="#00A0E9" stroke-width="2" stroke-miterlimit="10"/>
<path d="M38.1865 376.648V10.0557" stroke="#00A0E9" stroke-width="2" stroke-miterlimit="10" stroke-dasharray="1.2 1.2"/>
<path d="M38.1865 8.94966V7.82422" stroke="#00A0E9" stroke-width="2" stroke-miterlimit="10"/>
<path d="M64.7568 380.005V378.88" stroke="#00A0E9" stroke-width="2" stroke-miterlimit="10"/>
<path d="M64.7568 376.648V10.0557" stroke="#00A0E9" stroke-width="2" stroke-miterlimit="10" stroke-dasharray="1.2 1.2"/>
<path d="M64.7568 8.94966V7.82422" stroke="#00A0E9" stroke-width="2" stroke-miterlimit="10"/>
<path d="M91.3486 380.005V378.88" stroke="#00A0E9" stroke-width="2" stroke-miterlimit="10"/>
<path d="M91.3486 376.648V10.0557" stroke="#00A0E9" stroke-width="2" stroke-miterlimit="10" stroke-dasharray="1.2 1.2"/>
<path d="M91.3486 8.94966V7.82422" stroke="#00A0E9" stroke-width="2" stroke-miterlimit="10"/>
<path d="M117.919 380.005V378.88" stroke="#00A0E9" stroke-width="2" stroke-miterlimit="10"/>
<path d="M117.919 376.648V10.0557" stroke="#00A0E9" stroke-width="2" stroke-miterlimit="10" stroke-dasharray="1.2 1.2"/>
<path d="M117.919 8.94966V7.82422" stroke="#00A0E9" stroke-width="2" stroke-miterlimit="10"/>
<path d="M144.491 380.005V378.88" stroke="#00A0E9" stroke-width="2" stroke-miterlimit="10"/>
<path d="M144.491 376.648V10.0557" stroke="#00A0E9" stroke-width="2" stroke-miterlimit="10" stroke-dasharray="1.2 1.2"/>
<path d="M144.491 8.94966V7.82422" stroke="#00A0E9" stroke-width="2" stroke-miterlimit="10"/>
<path d="M171.081 380.005V378.88" stroke="#00A0E9" stroke-width="2" stroke-miterlimit="10"/>
<path d="M171.081 376.648V10.0557" stroke="#00A0E9" stroke-width="2" stroke-miterlimit="10" stroke-dasharray="1.2 1.2"/>
<path d="M171.081 8.94966V7.82422" stroke="#00A0E9" stroke-width="2" stroke-miterlimit="10"/>
<path d="M197.653 380.005V378.88" stroke="#00A0E9" stroke-width="2" stroke-miterlimit="10"/>
<path d="M197.653 376.648V10.0557" stroke="#00A0E9" stroke-width="2" stroke-miterlimit="10" stroke-dasharray="1.2 1.2"/>
<path d="M197.653 8.94966V7.82422" stroke="#00A0E9" stroke-width="2" stroke-miterlimit="10"/>
<path d="M224.226 380.005V378.88" stroke="#00A0E9" stroke-width="2" stroke-miterlimit="10"/>
<path d="M224.226 376.648V10.0557" stroke="#00A0E9" stroke-width="2" stroke-miterlimit="10" stroke-dasharray="1.2 1.2"/>
<path d="M224.226 8.94966V7.82422" stroke="#00A0E9" stroke-width="2" stroke-miterlimit="10"/>
<path d="M250.798 380.005V378.88" stroke="#00A0E9" stroke-width="2" stroke-miterlimit="10"/>
<path d="M250.798 376.648V10.0557" stroke="#00A0E9" stroke-width="2" stroke-miterlimit="10" stroke-dasharray="1.2 1.2"/>
<path d="M250.798 8.94966V7.82422" stroke="#00A0E9" stroke-width="2" stroke-miterlimit="10"/>
<path d="M277.39 380.005V378.88" stroke="#00A0E9" stroke-width="2" stroke-miterlimit="10"/>
<path d="M277.39 376.648V10.0557" stroke="#00A0E9" stroke-width="2" stroke-miterlimit="10" stroke-dasharray="1.2 1.2"/>
<path d="M277.39 8.94966V7.82422" stroke="#00A0E9" stroke-width="2" stroke-miterlimit="10"/>
<path d="M303.962 380.005V378.88" stroke="#00A0E9" stroke-width="2" stroke-miterlimit="10"/>
<path d="M303.962 376.648V10.0557" stroke="#00A0E9" stroke-width="2" stroke-miterlimit="10" stroke-dasharray="1.2 1.2"/>
<path d="M303.962 8.94966V7.82422" stroke="#00A0E9" stroke-width="2" stroke-miterlimit="10"/>
<path d="M330.532 380.005V378.88" stroke="#00A0E9" stroke-width="2" stroke-miterlimit="10"/>
<path d="M330.532 376.648V10.0557" stroke="#00A0E9" stroke-width="2" stroke-miterlimit="10" stroke-dasharray="1.2 1.2"/>
<path d="M330.532 8.94966V7.82422" stroke="#00A0E9" stroke-width="2" stroke-miterlimit="10"/>
<path d="M357.122 380.005V378.88" stroke="#00A0E9" stroke-width="2" stroke-miterlimit="10"/>
<path d="M357.122 376.648V10.0557" stroke="#00A0E9" stroke-width="2" stroke-miterlimit="10" stroke-dasharray="1.2 1.2"/>
<path d="M357.122 8.94966V7.82422" stroke="#00A0E9" stroke-width="2" stroke-miterlimit="10"/>
<path d="M383.694 380.005V378.88" stroke="#00A0E9" stroke-width="2" stroke-miterlimit="10"/>
<path d="M383.694 376.648V10.0557" stroke="#00A0E9" stroke-width="2" stroke-miterlimit="10" stroke-dasharray="1.2 1.2"/>
<path d="M383.694 8.94966V7.82422" stroke="#00A0E9" stroke-width="2" stroke-miterlimit="10"/>
<path d="M410.267 380.005V378.88" stroke="#00A0E9" stroke-width="2" stroke-miterlimit="10"/>
<path d="M410.267 376.648V10.0557" stroke="#00A0E9" stroke-width="2" stroke-miterlimit="10" stroke-dasharray="1.2 1.2"/>
<path d="M410.267 8.94966V7.82422" stroke="#00A0E9" stroke-width="2" stroke-miterlimit="10"/>
<path d="M436.839 380.005V378.88" stroke="#00A0E9" stroke-width="2" stroke-miterlimit="10"/>
<path d="M436.839 376.648V10.0557" stroke="#00A0E9" stroke-width="2" stroke-miterlimit="10" stroke-dasharray="1.2 1.2"/>
<path d="M436.839 8.94966V7.82422" stroke="#00A0E9" stroke-width="2" stroke-miterlimit="10"/>
<path d="M463.429 380.005V378.88" stroke="#00A0E9" stroke-width="2" stroke-miterlimit="10"/>
<path d="M463.429 376.648V10.0557" stroke="#00A0E9" stroke-width="2" stroke-miterlimit="10" stroke-dasharray="1.2 1.2"/>
<path d="M463.429 8.94966V7.82422" stroke="#00A0E9" stroke-width="2" stroke-miterlimit="10"/>
<path d="M490.001 380.005V378.88" stroke="#00A0E9" stroke-width="2" stroke-miterlimit="10"/>
<path d="M490.001 376.648V10.0557" stroke="#00A0E9" stroke-width="2" stroke-miterlimit="10" stroke-dasharray="1.2 1.2"/>
<path d="M490.001 8.94966V7.82422" stroke="#00A0E9" stroke-width="2" stroke-miterlimit="10"/>
<path d="M516.573 380.005V378.88" stroke="#00A0E9" stroke-width="2" stroke-miterlimit="10"/>
<path d="M516.573 376.648V10.0557" stroke="#00A0E9" stroke-width="2" stroke-miterlimit="10" stroke-dasharray="1.2 1.2"/>
<path d="M516.573 8.94966V7.82422" stroke="#00A0E9" stroke-width="2" stroke-miterlimit="10"/>
<path d="M543.165 380.005V378.88" stroke="#00A0E9" stroke-width="2" stroke-miterlimit="10"/>
<path d="M543.165 376.648V10.0557" stroke="#00A0E9" stroke-width="2" stroke-miterlimit="10" stroke-dasharray="1.2 1.2"/>
<path d="M543.165 8.94966V7.82422" stroke="#00A0E9" stroke-width="2" stroke-miterlimit="10"/>
<path d="M569.737 380.005V378.88" stroke="#00A0E9" stroke-width="2" stroke-miterlimit="10"/>
<path d="M569.737 376.648V10.0557" stroke="#00A0E9" stroke-width="2" stroke-miterlimit="10" stroke-dasharray="1.2 1.2"/>
<path d="M569.737 8.94966V7.82422" stroke="#00A0E9" stroke-width="2" stroke-miterlimit="10"/>
<path d="M596.308 380.005V378.88" stroke="#00A0E9" stroke-width="2" stroke-miterlimit="10"/>
<path d="M596.308 376.648V10.0557" stroke="#00A0E9" stroke-width="2" stroke-miterlimit="10" stroke-dasharray="1.2 1.2"/>
<path d="M596.308 8.94966V7.82422" stroke="#00A0E9" stroke-width="2" stroke-miterlimit="10"/>
<path d="M622.88 380.005V378.88" stroke="#00A0E9" stroke-width="2" stroke-miterlimit="10"/>
<path d="M622.88 376.648V10.0557" stroke="#00A0E9" stroke-width="2" stroke-miterlimit="10" stroke-dasharray="1.2 1.2"/>
<path d="M622.88 8.94966V7.82422" stroke="#00A0E9" stroke-width="2" stroke-miterlimit="10"/>
<path d="M649.47 380.005V378.88" stroke="#00A0E9" stroke-width="2" stroke-miterlimit="10"/>
<path d="M649.47 376.648V10.0557" stroke="#00A0E9" stroke-width="2" stroke-miterlimit="10" stroke-dasharray="1.2 1.2"/>
<path d="M649.47 8.94966V7.82422" stroke="#00A0E9" stroke-width="2" stroke-miterlimit="10"/>
<path d="M676.042 380.005V378.88" stroke="#00A0E9" stroke-width="2" stroke-miterlimit="10"/>
<path d="M676.042 376.648V10.0557" stroke="#00A0E9" stroke-width="2" stroke-miterlimit="10" stroke-dasharray="1.2 1.2"/>
<path d="M676.042 8.94966V7.82422" stroke="#00A0E9" stroke-width="2" stroke-miterlimit="10"/>
<path d="M702.614 380.005V378.88" stroke="#00A0E9" stroke-width="2" stroke-miterlimit="10"/>
<path d="M702.614 376.648V10.0557" stroke="#00A0E9" stroke-width="2" stroke-miterlimit="10" stroke-dasharray="1.2 1.2"/>
<path d="M702.614 8.94966V7.82422" stroke="#00A0E9" stroke-width="2" stroke-miterlimit="10"/>
<path d="M729.204 378.844V380.007H728.022" stroke="#00A0E9" stroke-width="2" stroke-miterlimit="10"/>
<path d="M725.68 380.007H13.958" stroke="#00A0E9" stroke-width="2" stroke-miterlimit="10" stroke-dasharray="1.25 1.25"/>
<path d="M12.7769 380.007H11.6143V378.844" stroke="#00A0E9" stroke-width="2" stroke-miterlimit="10"/>
<path d="M11.6143 376.48V10.1689" stroke="#00A0E9" stroke-width="2" stroke-miterlimit="10" stroke-dasharray="1.26 1.26"/>
<path d="M11.6143 8.98717V7.82422H12.7769" stroke="#00A0E9" stroke-width="2" stroke-miterlimit="10"/>
<path d="M15.1201 7.82422H726.861" stroke="#00A0E9" stroke-width="2" stroke-miterlimit="10" stroke-dasharray="1.25 1.25"/>
<path d="M728.022 7.82422H729.204V8.98717" stroke="#00A0E9" stroke-width="2" stroke-miterlimit="10"/>
<path d="M729.204 11.3496V377.661" stroke="#00A0E9" stroke-width="2" stroke-miterlimit="10" stroke-dasharray="1.26 1.26"/>
<path d="M2.9502 29.6191C5.16296 31.6449 8.14456 33.2956 11.6137 34.4023" stroke="#00A0E9" stroke-width="2" stroke-miterlimit="10" stroke-dasharray="1.25 1"/>
<path d="M11.6139 7.82422C7.39463 9.15599 3.90671 11.3131 1.6377 13.9579" stroke="#00A0E9" stroke-width="2" stroke-miterlimit="10" stroke-dasharray="1.25 1"/>
<path d="M14.2208 1.46484C13.1707 3.34057 12.2893 5.47891 11.6143 7.82357" stroke="#00A0E9" stroke-width="2" stroke-miterlimit="10" stroke-dasharray="1.25 1"/>
<path d="M38.1857 7.82344C37.4918 5.40375 36.573 3.20914 35.4854 1.2959" stroke="#00A0E9" stroke-width="2" stroke-miterlimit="10" stroke-dasharray="1.25 1"/>
</svg>
