<svg width="477" height="320" viewBox="0 0 477 320" fill="none" xmlns="http://www.w3.org/2000/svg">
<path d="M31.2824 19.1792C31.2824 21.0125 29.7748 22.5167 27.8844 22.5167C25.9939 22.5167 24.4863 21.036 24.4863 19.1792C24.4863 17.3225 26.0178 15.8418 27.8844 15.8418C29.7509 15.8418 31.2824 17.346 31.2824 19.1792Z" fill="#9FA0A0"/>
<path d="M85.5441 19.1792C85.5441 21.0125 84.0365 22.5167 82.1461 22.5167C80.2556 22.5167 78.748 21.036 78.748 19.1792C78.748 17.3225 80.2795 15.8418 82.1461 15.8418C84.0126 15.8418 85.5441 17.346 85.5441 19.1792Z" fill="#9FA0A0"/>
<path d="M139.808 19.1792C139.808 21.0125 138.3 22.5167 136.41 22.5167C134.519 22.5167 133.012 21.036 133.012 19.1792C133.012 17.3225 134.543 15.8418 136.41 15.8418C138.276 15.8418 139.808 17.346 139.808 19.1792Z" fill="#9FA0A0"/>
<path d="M194.071 19.1792C194.071 21.0125 192.564 22.5167 190.673 22.5167C188.783 22.5167 187.275 21.036 187.275 19.1792C187.275 17.3225 188.807 15.8418 190.673 15.8418C192.54 15.8418 194.071 17.346 194.071 19.1792Z" fill="#9FA0A0"/>
<path d="M248.31 19.1792C248.31 21.0125 246.802 22.5167 244.912 22.5167C243.021 22.5167 241.514 21.036 241.514 19.1792C241.514 17.3225 243.045 15.8418 244.912 15.8418C246.778 15.8418 248.31 17.346 248.31 19.1792Z" fill="#9FA0A0"/>
<path d="M302.569 19.1792C302.569 21.0125 301.062 22.5167 299.171 22.5167C297.281 22.5167 295.773 21.036 295.773 19.1792C295.773 17.3225 297.305 15.8418 299.171 15.8418C301.038 15.8418 302.569 17.346 302.569 19.1792Z" fill="#9FA0A0"/>
<path d="M356.833 19.1792C356.833 21.0125 355.326 22.5167 353.435 22.5167C351.545 22.5167 350.037 21.036 350.037 19.1792C350.037 17.3225 351.569 15.8418 353.435 15.8418C355.302 15.8418 356.833 17.346 356.833 19.1792Z" fill="#9FA0A0"/>
<path d="M411.071 19.1792C411.071 21.0125 409.564 22.5167 407.673 22.5167C405.783 22.5167 404.275 21.036 404.275 19.1792C404.275 17.3225 405.807 15.8418 407.673 15.8418C409.54 15.8418 411.071 17.346 411.071 19.1792Z" fill="#9FA0A0"/>
<path d="M465.335 19.1792C465.335 21.0125 463.828 22.5167 461.937 22.5167C460.047 22.5167 458.539 21.036 458.539 19.1792C458.539 17.3225 460.071 15.8418 461.937 15.8418C463.804 15.8418 465.335 17.346 465.335 19.1792Z" fill="#9FA0A0"/>
<path d="M58.4132 65.3296C58.4132 67.1629 56.9057 68.6671 55.0152 68.6671C53.1248 68.6671 51.6172 67.1864 51.6172 65.3296C51.6172 63.4729 53.1487 61.9922 55.0152 61.9922C56.8817 61.9922 58.4132 63.4729 58.4132 65.3296Z" fill="#9FA0A0"/>
<path d="M112.679 65.3296C112.679 67.1629 111.171 68.6671 109.281 68.6671C107.39 68.6671 105.883 67.1864 105.883 65.3296C105.883 63.4729 107.414 61.9922 109.281 61.9922C111.147 61.9922 112.679 63.4729 112.679 65.3296Z" fill="#9FA0A0"/>
<path d="M166.939 65.3296C166.939 67.1629 165.431 68.6671 163.541 68.6671C161.65 68.6671 160.143 67.1864 160.143 65.3296C160.143 63.4729 161.674 61.9922 163.541 61.9922C165.407 61.9922 166.939 63.4729 166.939 65.3296Z" fill="#9FA0A0"/>
<path d="M221.177 65.3296C221.177 67.1629 219.669 68.6671 217.779 68.6671C215.888 68.6671 214.381 67.1864 214.381 65.3296C214.381 63.4729 215.912 61.9922 217.779 61.9922C219.645 61.9922 221.177 63.4729 221.177 65.3296Z" fill="#9FA0A0"/>
<path d="M275.439 65.3296C275.439 67.1629 273.931 68.6671 272.041 68.6671C270.15 68.6671 268.643 67.1864 268.643 65.3296C268.643 63.4729 270.174 61.9922 272.041 61.9922C273.907 61.9922 275.439 63.4729 275.439 65.3296Z" fill="#9FA0A0"/>
<path d="M329.702 65.3296C329.702 67.1629 328.195 68.6671 326.304 68.6671C324.414 68.6671 322.906 67.1864 322.906 65.3296C322.906 63.4729 324.438 61.9922 326.304 61.9922C328.171 61.9922 329.702 63.4729 329.702 65.3296Z" fill="#9FA0A0"/>
<path d="M383.964 65.3296C383.964 67.1629 382.456 68.6671 380.566 68.6671C378.676 68.6671 377.168 67.1864 377.168 65.3296C377.168 63.4729 378.7 61.9922 380.566 61.9922C382.433 61.9922 383.964 63.4729 383.964 65.3296Z" fill="#9FA0A0"/>
<path d="M438.202 65.3296C438.202 67.1629 436.695 68.6671 434.804 68.6671C432.914 68.6671 431.406 67.1864 431.406 65.3296C431.406 63.4729 432.938 61.9922 434.804 61.9922C436.671 61.9922 438.202 63.4729 438.202 65.3296Z" fill="#9FA0A0"/>
<path d="M31.2824 111.482C31.2824 113.315 29.7748 114.819 27.8844 114.819C25.9939 114.819 24.4863 113.339 24.4863 111.482C24.4863 109.625 26.0178 108.145 27.8844 108.145C29.7509 108.145 31.2824 109.625 31.2824 111.482Z" fill="#9FA0A0"/>
<path d="M85.5441 111.482C85.5441 113.315 84.0365 114.819 82.1461 114.819C80.2556 114.819 78.748 113.339 78.748 111.482C78.748 109.625 80.2795 108.145 82.1461 108.145C84.0126 108.145 85.5441 109.625 85.5441 111.482Z" fill="#9FA0A0"/>
<path d="M139.808 111.482C139.808 113.315 138.3 114.819 136.41 114.819C134.519 114.819 133.012 113.339 133.012 111.482C133.012 109.625 134.543 108.145 136.41 108.145C138.276 108.145 139.808 109.625 139.808 111.482Z" fill="#9FA0A0"/>
<path d="M194.071 111.482C194.071 113.315 192.564 114.819 190.673 114.819C188.783 114.819 187.275 113.339 187.275 111.482C187.275 109.625 188.807 108.145 190.673 108.145C192.54 108.145 194.071 109.625 194.071 111.482Z" fill="#9FA0A0"/>
<path d="M248.31 111.482C248.31 113.315 246.802 114.819 244.912 114.819C243.021 114.819 241.514 113.339 241.514 111.482C241.514 109.625 243.045 108.145 244.912 108.145C246.778 108.145 248.31 109.625 248.31 111.482Z" fill="#9FA0A0"/>
<path d="M302.569 111.482C302.569 113.315 301.062 114.819 299.171 114.819C297.281 114.819 295.773 113.339 295.773 111.482C295.773 109.625 297.305 108.145 299.171 108.145C301.038 108.145 302.569 109.625 302.569 111.482Z" fill="#9FA0A0"/>
<path d="M356.833 111.482C356.833 113.315 355.326 114.819 353.435 114.819C351.545 114.819 350.037 113.339 350.037 111.482C350.037 109.625 351.569 108.145 353.435 108.145C355.302 108.145 356.833 109.625 356.833 111.482Z" fill="#9FA0A0"/>
<path d="M411.071 111.482C411.071 113.315 409.564 114.819 407.673 114.819C405.783 114.819 404.275 113.339 404.275 111.482C404.275 109.625 405.807 108.145 407.673 108.145C409.54 108.145 411.071 109.625 411.071 111.482Z" fill="#9FA0A0"/>
<path d="M465.335 111.482C465.335 113.315 463.828 114.819 461.937 114.819C460.047 114.819 458.539 113.339 458.539 111.482C458.539 109.625 460.071 108.145 461.937 108.145C463.804 108.145 465.335 109.625 465.335 111.482Z" fill="#9FA0A0"/>
<path d="M58.4132 157.633C58.4132 159.467 56.9057 160.971 55.0152 160.971C53.1248 160.971 51.6172 159.49 51.6172 157.633C51.6172 155.777 53.1487 154.296 55.0152 154.296C56.8817 154.296 58.4132 155.777 58.4132 157.633Z" fill="#9FA0A0"/>
<path d="M112.679 157.633C112.679 159.467 111.171 160.971 109.281 160.971C107.39 160.971 105.883 159.49 105.883 157.633C105.883 155.777 107.414 154.296 109.281 154.296C111.147 154.296 112.679 155.777 112.679 157.633Z" fill="#9FA0A0"/>
<path d="M166.939 157.633C166.939 159.467 165.431 160.971 163.541 160.971C161.65 160.971 160.143 159.49 160.143 157.633C160.143 155.777 161.674 154.296 163.541 154.296C165.407 154.296 166.939 155.777 166.939 157.633Z" fill="#9FA0A0"/>
<path d="M221.177 157.633C221.177 159.467 219.669 160.971 217.779 160.971C215.888 160.971 214.381 159.49 214.381 157.633C214.381 155.777 215.912 154.296 217.779 154.296C219.645 154.296 221.177 155.777 221.177 157.633Z" fill="#9FA0A0"/>
<path d="M275.439 157.633C275.439 159.467 273.931 160.971 272.041 160.971C270.15 160.971 268.643 159.49 268.643 157.633C268.643 155.777 270.174 154.296 272.041 154.296C273.907 154.296 275.439 155.777 275.439 157.633Z" fill="#9FA0A0"/>
<path d="M329.702 157.633C329.702 159.467 328.195 160.971 326.304 160.971C324.414 160.971 322.906 159.49 322.906 157.633C322.906 155.777 324.438 154.296 326.304 154.296C328.171 154.296 329.702 155.777 329.702 157.633Z" fill="#9FA0A0"/>
<path d="M383.964 157.633C383.964 159.467 382.456 160.971 380.566 160.971C378.676 160.971 377.168 159.49 377.168 157.633C377.168 155.777 378.7 154.296 380.566 154.296C382.433 154.296 383.964 155.777 383.964 157.633Z" fill="#9FA0A0"/>
<path d="M438.202 157.633C438.202 159.467 436.695 160.971 434.804 160.971C432.914 160.971 431.406 159.49 431.406 157.633C431.406 155.777 432.938 154.296 434.804 154.296C436.671 154.296 438.202 155.777 438.202 157.633Z" fill="#9FA0A0"/>
<path d="M31.2824 203.784C31.2824 205.617 29.7748 207.121 27.8844 207.121C25.9939 207.121 24.4863 205.64 24.4863 203.784C24.4863 201.927 26.0178 200.446 27.8844 200.446C29.7509 200.446 31.2824 201.927 31.2824 203.784Z" fill="#9FA0A0"/>
<path d="M85.5441 203.784C85.5441 205.617 84.0365 207.121 82.1461 207.121C80.2556 207.121 78.748 205.64 78.748 203.784C78.748 201.927 80.2795 200.446 82.1461 200.446C84.0126 200.446 85.5441 201.927 85.5441 203.784Z" fill="#9FA0A0"/>
<path d="M139.808 203.784C139.808 205.617 138.3 207.121 136.41 207.121C134.519 207.121 133.012 205.64 133.012 203.784C133.012 201.927 134.543 200.446 136.41 200.446C138.276 200.446 139.808 201.927 139.808 203.784Z" fill="#9FA0A0"/>
<path d="M194.071 203.784C194.071 205.617 192.564 207.121 190.673 207.121C188.783 207.121 187.275 205.64 187.275 203.784C187.275 201.927 188.807 200.446 190.673 200.446C192.54 200.446 194.071 201.927 194.071 203.784Z" fill="#9FA0A0"/>
<path d="M248.31 203.784C248.31 205.617 246.802 207.121 244.912 207.121C243.021 207.121 241.514 205.64 241.514 203.784C241.514 201.927 243.045 200.446 244.912 200.446C246.778 200.446 248.31 201.927 248.31 203.784Z" fill="#9FA0A0"/>
<path d="M302.569 203.958C302.569 205.791 301.062 207.295 299.171 207.295C297.281 207.295 295.773 205.814 295.773 203.958C295.773 202.101 297.305 200.62 299.171 200.62C301.038 200.62 302.569 202.101 302.569 203.958Z" fill="#9FA0A0"/>
<path d="M411.071 203.784C411.071 205.617 409.564 207.121 407.673 207.121C405.783 207.121 404.275 205.64 404.275 203.784C404.275 201.927 405.807 200.446 407.673 200.446C409.54 200.446 411.071 201.927 411.071 203.784Z" fill="#9FA0A0"/>
<path d="M465.335 203.784C465.335 205.617 463.828 207.121 461.937 207.121C460.047 207.121 458.539 205.64 458.539 203.784C458.539 201.927 460.071 200.446 461.937 200.446C463.804 200.446 465.335 201.927 465.335 203.784Z" fill="#9FA0A0"/>
<path d="M58.4132 249.934C58.4132 251.767 56.9057 253.272 55.0152 253.272C53.1248 253.272 51.6172 251.791 51.6172 249.934C51.6172 248.077 53.1487 246.597 55.0152 246.597C56.8817 246.597 58.4132 248.077 58.4132 249.934Z" fill="#9FA0A0"/>
<path d="M112.679 249.934C112.679 251.767 111.171 253.272 109.281 253.272C107.39 253.272 105.883 251.791 105.883 249.934C105.883 248.077 107.414 246.597 109.281 246.597C111.147 246.597 112.679 248.077 112.679 249.934Z" fill="#9FA0A0"/>
<path d="M221.177 249.934C221.177 251.767 219.669 253.272 217.779 253.272C215.888 253.272 214.381 251.791 214.381 249.934C214.381 248.077 215.912 246.597 217.779 246.597C219.645 246.597 221.177 248.077 221.177 249.934Z" fill="#9FA0A0"/>
<path d="M275.439 249.934C275.439 251.767 273.931 253.272 272.041 253.272C270.15 253.272 268.643 251.791 268.643 249.934C268.643 248.077 270.174 246.597 272.041 246.597C273.907 246.597 275.439 248.077 275.439 249.934Z" fill="#9FA0A0"/>
<path d="M329.702 249.934C329.702 251.767 328.195 253.272 326.304 253.272C324.414 253.272 322.906 251.791 322.906 249.934C322.906 248.077 324.438 246.597 326.304 246.597C328.171 246.597 329.702 248.077 329.702 249.934Z" fill="#9FA0A0"/>
<path d="M383.964 249.934C383.964 251.767 382.456 253.272 380.566 253.272C378.676 253.272 377.168 251.791 377.168 249.934C377.168 248.077 378.7 246.597 380.566 246.597C382.433 246.597 383.964 248.077 383.964 249.934Z" fill="#9FA0A0"/>
<path d="M438.202 249.934C438.202 251.767 436.695 253.272 434.804 253.272C432.914 253.272 431.406 251.791 431.406 249.934C431.406 248.077 432.938 246.597 434.804 246.597C436.671 246.597 438.202 248.077 438.202 249.934Z" fill="#9FA0A0"/>
<path d="M31.2824 296.086C31.2824 297.92 29.7748 299.424 27.8844 299.424C25.9939 299.424 24.4863 297.943 24.4863 296.086C24.4863 294.23 26.0178 292.749 27.8844 292.749C29.7509 292.749 31.2824 294.23 31.2824 296.086Z" fill="#9FA0A0"/>
<path d="M85.5441 296.086C85.5441 297.92 84.0365 299.424 82.1461 299.424C80.2556 299.424 78.748 297.943 78.748 296.086C78.748 294.23 80.2795 292.749 82.1461 292.749C84.0126 292.749 85.5441 294.23 85.5441 296.086Z" fill="#9FA0A0"/>
<path d="M139.808 296.086C139.808 297.92 138.3 299.424 136.41 299.424C134.519 299.424 133.012 297.943 133.012 296.086C133.012 294.23 134.543 292.749 136.41 292.749C138.276 292.749 139.808 294.23 139.808 296.086Z" fill="#9FA0A0"/>
<path d="M194.071 296.086C194.071 297.92 192.564 299.424 190.673 299.424C188.783 299.424 187.275 297.943 187.275 296.086C187.275 294.23 188.807 292.749 190.673 292.749C192.54 292.749 194.071 294.23 194.071 296.086Z" fill="#9FA0A0"/>
<path d="M248.31 296.086C248.31 297.92 246.802 299.424 244.912 299.424C243.021 299.424 241.514 297.943 241.514 296.086C241.514 294.23 243.045 292.749 244.912 292.749C246.778 292.749 248.31 294.23 248.31 296.086Z" fill="#9FA0A0"/>
<path d="M302.569 296.086C302.569 297.92 301.062 299.424 299.171 299.424C297.281 299.424 295.773 297.943 295.773 296.086C295.773 294.23 297.305 292.749 299.171 292.749C301.038 292.749 302.569 294.23 302.569 296.086Z" fill="#9FA0A0"/>
<path d="M356.833 296.086C356.833 297.92 355.326 299.424 353.435 299.424C351.545 299.424 350.037 297.943 350.037 296.086C350.037 294.23 351.569 292.749 353.435 292.749C355.302 292.749 356.833 294.23 356.833 296.086Z" fill="#9FA0A0"/>
<path d="M411.071 296.086C411.071 297.92 409.564 299.424 407.673 299.424C405.783 299.424 404.275 297.943 404.275 296.086C404.275 294.23 405.807 292.749 407.673 292.749C409.54 292.749 411.071 294.23 411.071 296.086Z" fill="#9FA0A0"/>
<path d="M465.335 296.086C465.335 297.92 463.828 299.424 461.937 299.424C460.047 299.424 458.539 297.943 458.539 296.086C458.539 294.23 460.071 292.749 461.937 292.749C463.804 292.749 465.335 294.23 465.335 296.086Z" fill="#9FA0A0"/>
<path d="M356.566 203.958C356.566 205.791 355.058 207.295 353.168 207.295C351.277 207.295 349.77 205.814 349.77 203.958C349.77 202.101 351.301 200.62 353.168 200.62C355.034 200.62 356.566 202.101 356.566 203.958Z" fill="#9FA0A0"/>
<path d="M160.718 252.402C160.718 254.235 159.21 255.739 157.32 255.739C155.429 255.739 153.922 254.259 153.922 252.402C153.922 250.545 155.453 249.064 157.32 249.064C159.186 249.064 160.718 250.545 160.718 252.402Z" fill="#9FA0A0"/>
<path d="M462.487 1.67188H14.8918C7.39974 1.67188 1.32617 7.63712 1.32617 14.9956V305.204C1.32617 312.563 7.39974 318.528 14.8918 318.528H462.487C469.979 318.528 476.052 312.563 476.052 305.204V14.9956C476.052 7.63712 469.979 1.67188 462.487 1.67188Z" stroke="#D3EDFB" stroke-width="1.52516" stroke-linejoin="round"/>
</svg>
