<svg width="240" height="271" viewBox="0 0 240 271" fill="none" xmlns="http://www.w3.org/2000/svg">
<path d="M20.5254 96.8438V242.531L127.193 254.065V108.378L20.5254 96.8438Z" stroke="#231F20" stroke-width="2" stroke-linejoin="round"/>
<path d="M127.193 108.376V254.037L214.594 177.246V31.5586L127.193 108.376Z" stroke="#231F20" stroke-width="2" stroke-linejoin="round"/>
<path d="M107.9 20.0273L20.5254 96.8448L127.193 108.379L214.593 31.5616L107.9 20.0273Z" fill="#F1E2D6"/>
<path d="M107.9 20.0273L20.5254 96.8448L127.193 108.379L214.593 31.5616L107.9 20.0273Z" stroke="#231F20" stroke-width="2" stroke-linejoin="round"/>
<path d="M20.5 242.53L107.565 165.223L214.233 176.783" stroke="#231F20" stroke-width="2" stroke-linejoin="round" stroke-dasharray="4 4"/>
<path d="M107.564 165.223V20" stroke="#231F20" stroke-width="2" stroke-linejoin="round" stroke-dasharray="4 4"/>
<path d="M104.674 8.04688V17.5977H102.193V10.0586H93.3262V8.04688H104.674Z" fill="#222222"/>
<path d="M104.717 154.08V163.48H93.3574V154.08H104.717ZM95.8774 161.48H102.237V156.08H95.8774V161.48Z" fill="#222222"/>
<path d="M17.8774 94.3591V96.3191H6.35742V87.0391H8.83742V94.3591H17.8774Z" fill="#222222"/>
<path d="M8.83648 242.801V245.641H15.1965V242.801H17.7165V252.601H6.39648V242.801H8.83648ZM8.83648 250.441H15.1965V247.801H8.83648V250.441Z" fill="#222222"/>
<path d="M141.596 113V115H132.916V120.64H141.716V122.56H130.396V113H141.596Z" fill="#222222"/>
<path d="M137.278 261.4C137.258 263.98 138.918 266.18 142.558 266.92L141.398 268.92C138.818 268.32 137.018 267 136.038 265.18C135.058 267 133.278 268.32 130.718 268.92L129.518 266.92C133.138 266.18 134.798 263.98 134.798 261.4V258.76H137.278V261.4Z" fill="#222222"/>
<path d="M228.598 19.8008V25.6008H219.638V27.6008H228.878V29.6008H217.278V23.6408H226.238V21.7608H217.238V19.8008H228.598Z" fill="#222222"/>
<path d="M222.998 165.721C226.178 165.741 228.738 167.841 228.758 170.761C228.738 173.661 226.178 175.781 222.998 175.801C219.878 175.781 217.318 173.661 217.318 170.761C217.318 167.841 219.878 165.741 222.998 165.721ZM219.678 170.761C219.678 172.521 221.158 173.721 222.998 173.721C224.878 173.721 226.318 172.521 226.318 170.761C226.318 169.001 224.878 167.881 222.998 167.881C221.158 167.881 219.678 169.001 219.678 170.761Z" fill="#222222"/>
</svg>
