<svg width="239" height="271" viewBox="0 0 239 271" fill="none" xmlns="http://www.w3.org/2000/svg">
<g clip-path="url(#clip0_363_1012)">
<path d="M37.0703 70.8516V244.092L140.468 254.93V81.7178L37.0703 70.8516Z" stroke="#231F20" stroke-width="2" stroke-linejoin="round"/>
<path d="M140.469 81.7172V254.93L202.958 200.148V26.9355L140.469 81.7172Z" fill="#FFE9C2"/>
<path d="M140.469 81.7172V254.93L202.958 200.148V26.9355L140.469 81.7172Z" stroke="#231F20" stroke-width="2" stroke-linejoin="round"/>
<path d="M99.5334 16.0703L37.0723 70.852L140.47 81.7183L202.959 26.9366L99.5334 16.0703Z" stroke="#231F20" stroke-width="2" stroke-linejoin="round"/>
<path d="M37.043 244.091L99.3069 188.943L202.705 199.838" stroke="#231F20" stroke-width="2" stroke-linejoin="round" stroke-dasharray="4 4"/>
<path d="M99.3066 188.944V16.041" stroke="#231F20" stroke-width="2" stroke-linejoin="round" stroke-dasharray="4 4"/>
</g>
<path d="M95.6738 1.04688V10.5977H93.1934V3.05859H84.3262V1.04688H95.6738Z" fill="#222222"/>
<path d="M90.7174 175.08V184.48H79.3574V175.08H90.7174ZM81.8774 182.48H88.2374V177.08H81.8774V182.48Z" fill="#222222"/>
<path d="M32.8774 71.3591V73.3191H21.3574V64.0391H23.8374V71.3591H32.8774Z" fill="#222222"/>
<path d="M23.8365 238.801V241.641H30.1965V238.801H32.7165V248.601H21.3965V238.801H23.8365ZM23.8365 246.441H30.1965V243.801H23.8365V246.441Z" fill="#222222"/>
<path d="M157.596 87V89H148.916V94.64H157.716V96.56H146.396V87H157.596Z" fill="#222222"/>
<path d="M155.278 257.4C155.258 259.98 156.918 262.18 160.558 262.92L159.398 264.92C156.818 264.32 155.018 263 154.038 261.18C153.058 263 151.278 264.32 148.718 264.92L147.518 262.92C151.138 262.18 152.798 259.98 152.798 257.4V254.76H155.278V257.4Z" fill="#222222"/>
<path d="M218.598 16.8008V22.6008H209.638V24.6008H218.878V26.6008H207.278V20.6408H216.238V18.7608H207.238V16.8008H218.598Z" fill="#222222"/>
<path d="M216.998 190.721C220.178 190.741 222.738 192.841 222.758 195.761C222.738 198.661 220.178 200.781 216.998 200.801C213.878 200.781 211.318 198.661 211.318 195.761C211.318 192.841 213.878 190.741 216.998 190.721ZM213.678 195.761C213.678 197.521 215.158 198.721 216.998 198.721C218.878 198.721 220.318 197.521 220.318 195.761C220.318 194.001 218.878 192.881 216.998 192.881C215.158 192.881 213.678 194.001 213.678 195.761Z" fill="#222222"/>
<defs>
<clipPath id="clip0_363_1012">
<rect width="168" height="241" fill="white" transform="translate(36 15)"/>
</clipPath>
</defs>
</svg>
