<svg width="753" height="452" viewBox="0 0 753 452" fill="none" xmlns="http://www.w3.org/2000/svg">
<path d="M376.33 449.836C475.602 449.836 606.636 455.683 663.899 448.052C769.053 434.043 751.938 303.029 751.938 214.725C751.938 133.596 753.57 57.2118 674.145 25.6637C617.603 3.22695 496.359 0 382.288 0C261.044 0 135.589 1.21485 75.3274 14.0087C-12.6738 32.6871 0.721848 136.671 0.721848 214.763C0.721848 303.067 -14.7229 434.347 107.545 443.876C167.655 448.545 277.058 449.874 376.33 449.874" fill="#FEF0F0"/>
<path d="M731.484 311.305C731.484 311.305 720.858 416.769 635.703 436.928C635.703 436.928 747.725 442.622 731.484 311.305Z" fill="white"/>
</svg>
