<svg width="625" height="386" viewBox="0 0 625 386" fill="none" xmlns="http://www.w3.org/2000/svg">
<path d="M560.906 156.57C553.985 169.004 542.284 179.1 527.795 185.217" stroke="#00AEEF" stroke-width="2" stroke-miterlimit="10" stroke-dasharray="4 4"/>
<path d="M560.557 102.859C553.586 90.7244 542.035 80.8274 527.795 74.8594" stroke="#00AEEF" stroke-width="2" stroke-miterlimit="10" stroke-dasharray="4 4"/>
<path d="M504.691 260.016C521.77 234.503 529.935 207.249 527.794 184.023" stroke="#00AEEF" stroke-width="2" stroke-miterlimit="10" stroke-dasharray="4 4"/>
<path d="M383.203 313.629C407.551 317.806 437.923 310.545 467.1 293.039" stroke="#00AEEF" stroke-width="2" stroke-miterlimit="10" stroke-dasharray="4 4"/>
<path d="M291.838 345.758C329.479 341.282 360.847 330.34 380.863 314.873" stroke="#00AEEF" stroke-width="2" stroke-miterlimit="10" stroke-dasharray="4 4"/>
<path d="M64.2949 279.164C80.6262 298.51 109.156 315.967 145.204 328.699" stroke="#00AEEF" stroke-width="2" stroke-miterlimit="10" stroke-dasharray="4 4"/>
<path d="M64.8926 169.352V278.964L383.203 313.629V204.016L64.8926 169.352Z" fill="#D3EAD4"/>
<path d="M64.8926 169.352V278.964L383.203 313.629V204.016L64.8926 169.352Z" stroke="#231F20" stroke-width="2" stroke-linejoin="round"/>
<path d="M383.203 204.017V313.629L528.143 185.167V75.5547L383.203 204.017Z" stroke="#231F20" stroke-width="2" stroke-linejoin="round"/>
<path d="M209.783 40.8906L64.8926 169.352L383.203 204.017L528.143 75.5549L209.783 40.8906Z" stroke="#231F20" stroke-width="2" stroke-linejoin="round"/>
<path d="M64.8418 278.966L209.433 150.057L527.794 184.771" stroke="#231F20" stroke-width="2" stroke-linejoin="round" stroke-dasharray="4 4"/>
<path d="M209.434 150.056V40.8906" stroke="#231F20" stroke-width="2" stroke-linejoin="round" stroke-dasharray="4 4"/>
<path d="M186.692 328.344V351H182.02V332.824H181.828L176.644 336.088V331.928L182.276 328.344H186.692ZM199.253 351.32C194.517 351.32 191.061 348.536 190.997 344.664H195.541C195.637 346.392 197.269 347.608 199.253 347.608C201.589 347.608 203.253 345.944 203.221 343.576C203.253 341.208 201.557 339.512 199.189 339.544C197.461 339.512 196.277 340.152 195.605 341.4H191.381L192.597 328.344H206.485V332.248H196.437L195.861 337.944H195.989C196.853 336.824 198.549 336.024 200.533 336.024C204.693 336.024 207.797 339.128 207.765 343.448C207.797 348.056 204.309 351.32 199.253 351.32ZM224.081 351.32C218.833 351.32 215.729 347.736 215.697 342.552C215.729 337.368 218.897 333.816 224.017 333.784C228.433 333.816 231.377 336.376 231.569 340.248H227.217C226.961 338.584 225.841 337.432 224.081 337.432C221.873 337.432 220.401 339.288 220.433 342.488C220.401 345.784 221.873 347.672 224.081 347.672C225.745 347.672 226.929 346.648 227.217 344.856H231.569C231.377 348.696 228.529 351.32 224.081 351.32ZM233.464 351V334.04H237.88V336.984H238.072C238.776 335.032 240.504 333.816 242.808 333.784C245.144 333.816 246.872 335.032 247.416 336.984H247.608C248.28 335.064 250.232 333.816 252.728 333.784C255.864 333.816 258.04 335.896 258.04 339.608V351H253.432V340.504C253.432 338.552 252.28 337.624 250.744 337.624C249.016 337.624 247.992 338.84 247.992 340.632V351H243.512V340.376C243.512 338.712 242.456 337.624 240.888 337.624C239.32 337.624 238.104 338.904 238.072 340.824V351H233.464Z" fill="#222222"/>
<path d="M490.71 291.32C485.526 291.32 481.814 288.6 481.814 284.92C481.814 282.072 483.99 279.736 486.806 279.288V279.16C484.374 278.68 482.678 276.632 482.646 274.168C482.678 270.648 486.07 268.056 490.71 268.088C495.318 268.056 498.71 270.648 498.71 274.168C498.71 276.632 496.982 278.68 494.614 279.16V279.288C497.334 279.736 499.542 282.072 499.542 284.92C499.542 288.6 495.83 291.32 490.71 291.32ZM486.742 284.472C486.71 286.36 488.31 287.736 490.71 287.736C493.078 287.736 494.678 286.392 494.678 284.472C494.678 282.488 492.982 281.048 490.71 281.016C488.406 281.048 486.71 282.488 486.742 284.472ZM487.254 274.616C487.254 276.44 488.694 277.688 490.71 277.688C492.662 277.688 494.102 276.44 494.102 274.616C494.102 272.856 492.694 271.608 490.71 271.608C488.662 271.608 487.254 272.856 487.254 274.616ZM515.847 291.32C510.599 291.32 507.495 287.736 507.463 282.552C507.495 277.368 510.663 273.816 515.783 273.784C520.199 273.816 523.143 276.376 523.335 280.248H518.983C518.727 278.584 517.607 277.432 515.847 277.432C513.639 277.432 512.167 279.288 512.199 282.488C512.167 285.784 513.639 287.672 515.847 287.672C517.511 287.672 518.695 286.648 518.983 284.856H523.335C523.143 288.696 520.295 291.32 515.847 291.32ZM525.23 291V274.04H529.646V276.984H529.838C530.542 275.032 532.27 273.816 534.574 273.784C536.91 273.816 538.638 275.032 539.182 276.984H539.374C540.046 275.064 541.998 273.816 544.494 273.784C547.63 273.816 549.806 275.896 549.806 279.608V291H545.198V280.504C545.198 278.552 544.046 277.624 542.51 277.624C540.782 277.624 539.758 278.84 539.758 280.632V291H535.278V280.376C535.278 278.712 534.222 277.624 532.654 277.624C531.086 277.624 529.87 278.904 529.838 280.824V291H525.23Z" fill="#222222"/>
<path d="M399.043 334.64C399.011 338.768 401.667 342.288 407.491 343.472L405.635 346.672C401.507 345.712 398.627 343.6 397.059 340.688C395.491 343.6 392.643 345.712 388.547 346.672L386.627 343.472C392.419 342.288 395.075 338.768 395.075 334.64V330.416H399.043V334.64Z" fill="#222222"/>
<path d="M543.996 196.352C549.084 196.384 553.18 199.744 553.212 204.416C553.18 209.056 549.084 212.448 543.996 212.48C539.004 212.448 534.908 209.056 534.908 204.416C534.908 199.744 539.004 196.384 543.996 196.352ZM538.684 204.416C538.684 207.232 541.052 209.152 543.996 209.152C547.004 209.152 549.308 207.232 549.308 204.416C549.308 201.6 547.004 199.808 543.996 199.808C541.052 199.808 538.684 201.6 538.684 204.416Z" fill="#222222"/>
<path d="M546.955 44.4805V53.7605H532.619V56.9605H547.403V60.1605H528.843V50.6245H543.179V47.6165H528.779V44.4805H546.955Z" fill="#222222"/>
<path d="M232.084 16.8633V32.1593H228.116V20.0633H213.908V16.8633H232.084Z" fill="#222222"/>
<path d="M59.4047 160.575V163.711H40.9727V148.863H44.9407V160.575H59.4047Z" fill="#222222"/>
<path d="M410.955 211.801V215.001H397.067V224.025H411.147V227.097H393.035V211.801H410.955Z" fill="#222222"/>
<path d="M45.9392 276.48V281.024H56.1152V276.48H60.1472V292.16H42.0352V276.48H45.9392ZM45.9392 288.704H56.1152V284.48H45.9392V288.704Z" fill="#222222"/>
<path d="M204.149 130.928V145.968H185.973V130.928H204.149ZM190.005 142.768H200.181V134.128H190.005V142.768Z" fill="#222222"/>
<path d="M534.611 140.968V137.256L544.211 122.344H550.099V137.192H552.915V140.968H550.099V145H545.619V140.968H534.611ZM539.347 137.192H545.683V127.528H545.427L539.347 137.064V137.192ZM569.05 145.32C563.802 145.32 560.698 141.736 560.666 136.552C560.698 131.368 563.866 127.816 568.986 127.784C573.402 127.816 576.346 130.376 576.538 134.248H572.186C571.93 132.584 570.81 131.432 569.05 131.432C566.842 131.432 565.37 133.288 565.402 136.488C565.37 139.784 566.842 141.672 569.05 141.672C570.714 141.672 571.898 140.648 572.186 138.856H576.538C576.346 142.696 573.498 145.32 569.05 145.32ZM578.433 145V128.04H582.849V130.984H583.041C583.745 129.032 585.473 127.816 587.777 127.784C590.113 127.816 591.841 129.032 592.385 130.984H592.577C593.249 129.064 595.201 127.816 597.697 127.784C600.833 127.816 603.009 129.896 603.009 133.608V145H598.401V134.504C598.401 132.552 597.249 131.624 595.713 131.624C593.985 131.624 592.961 132.84 592.961 134.632V145H588.481V134.376C588.481 132.712 587.425 131.624 585.857 131.624C584.289 131.624 583.073 132.904 583.041 134.824V145H578.433Z" fill="#222222"/>
</svg>
