<svg width="342" height="360" viewBox="0 0 342 360" fill="none" xmlns="http://www.w3.org/2000/svg">
<path d="M30.8535 110.131V308.546L227.441 333.203V134.787L30.8535 110.131Z" stroke="#231F20" stroke-width="2" stroke-linejoin="round"/>
<path d="M227.441 134.788V333.155L310.195 249.867V51.4512L227.441 134.788Z" fill="#F3D6A2"/>
<path d="M227.441 134.788V333.155L310.195 249.867V51.4512L227.441 134.788Z" stroke="#231F20" stroke-width="2" stroke-linejoin="round"/>
<path d="M113.558 26.8438L30.8535 110.132L227.441 134.788L310.145 51.4515L113.558 26.8438Z" fill="#C4DFF5"/>
<path d="M113.558 26.8438L30.8535 110.132L227.441 134.788L310.145 51.4515L113.558 26.8438Z" stroke="#231F20" stroke-width="2" stroke-linejoin="round"/>
<path d="M30.8047 308.546L113.216 224.725L309.852 249.381" stroke="#231F20" stroke-width="2" stroke-linejoin="round" stroke-dasharray="4 4"/>
<path d="M113.217 224.725V26.8438" stroke="#231F20" stroke-width="2" stroke-linejoin="round" stroke-dasharray="4 4"/>
<path d="M229.543 344.64C229.511 348.768 232.167 352.288 237.991 353.472L236.135 356.672C232.007 355.712 229.127 353.6 227.559 350.688C225.991 353.6 223.143 355.712 219.047 356.672L217.127 353.472C222.919 352.288 225.575 348.768 225.575 344.64V340.416H229.543V344.64Z" fill="#222222"/>
<path d="M322.496 253.352C327.584 253.384 331.68 256.744 331.712 261.416C331.68 266.056 327.584 269.448 322.496 269.48C317.504 269.448 313.408 266.056 313.408 261.416C313.408 256.744 317.504 253.384 322.496 253.352ZM317.184 261.416C317.184 264.232 319.552 266.152 322.496 266.152C325.504 266.152 327.808 264.232 327.808 261.416C327.808 258.6 325.504 256.808 322.496 256.808C319.552 256.808 317.184 258.6 317.184 261.416Z" fill="#222222"/>
<path d="M331.455 29.4805V38.7605H317.119V41.9605H331.903V45.1605H313.343V35.6245H327.679V32.6165H313.279V29.4805H331.455Z" fill="#222222"/>
<path d="M102.084 7.86328V23.1593H98.1162V11.0633H83.9082V7.86328H102.084Z" fill="#222222"/>
<path d="M23.4047 118.575V121.711H4.97266V106.863H8.94066V118.575H23.4047Z" fill="#222222"/>
<path d="M250.455 142.801V146.001H236.567V155.025H250.647V158.097H232.535V142.801H250.455Z" fill="#222222"/>
<path d="M9.93916 313.48V318.024H20.1152V313.48H24.1472V329.16H6.03516V313.48H9.93916ZM9.93916 325.704H20.1152V321.48H9.93916V325.704Z" fill="#222222"/>
<path d="M102.149 205.928V220.968H83.9727V205.928H102.149ZM88.0047 217.768H98.1807V209.128H88.0047V217.768Z" fill="#222222"/>
</svg>
