<svg width="375" height="350" viewBox="0 0 375 350" fill="none" xmlns="http://www.w3.org/2000/svg">
<path d="M175.597 101.453L186.986 111.975L198.388 101.453" stroke="#6B9BD2" stroke-width="6.88948" stroke-linecap="round" stroke-linejoin="round"/>
<path d="M186.992 87.9434V105.213" stroke="#6B9BD2" stroke-width="13.779" stroke-linecap="round"/>
<path d="M341.779 131.191H309.667V147.249H341.779V131.191Z" fill="#D3EAD4"/>
<path d="M341.779 147.246H309.667V163.303H341.779V147.246Z" fill="#FCD8DB"/>
<path d="M341.779 163.305H309.667V179.362H341.779V163.305Z" fill="#FFE9C2"/>
<path d="M341.779 179.361H309.667V195.419H341.779V179.361Z" fill="#CCE2F5"/>
<path d="M309.666 147.25H373.893" stroke="#231F20" stroke-width="0.826738" stroke-miterlimit="10" stroke-dasharray="4.13 2.81"/>
<path d="M309.666 163.305H373.893" stroke="#231F20" stroke-width="0.826738" stroke-miterlimit="10" stroke-dasharray="4.13 2.81"/>
<path d="M309.666 179.361H373.893" stroke="#231F20" stroke-width="0.826738" stroke-miterlimit="10" stroke-dasharray="4.13 2.81"/>
<path d="M341.779 195.416V131.191" stroke="#231F20" stroke-width="0.826738" stroke-miterlimit="10" stroke-dasharray="4.13 2.89"/>
<path d="M373.892 131.191H309.665V195.416H373.892V131.191Z" stroke="#58595B" stroke-width="1.3779" stroke-miterlimit="10"/>
<path d="M296.819 131.191H232.592V195.416H296.819V131.191Z" fill="#D3EAD4"/>
<path d="M296.819 131.191H232.592V195.416H296.819V131.191Z" stroke="#58595B" stroke-width="1.3779" stroke-miterlimit="10"/>
<path d="M219.748 131.191H155.521V195.416H219.748V131.191Z" fill="#FCD8DB"/>
<path d="M219.748 131.191H155.521V195.416H219.748V131.191Z" stroke="#58595B" stroke-width="1.3779" stroke-miterlimit="10"/>
<path d="M142.677 131.191H78.4502V195.416H142.677V131.191Z" fill="#FFE9C2"/>
<path d="M142.677 131.191H78.4502V195.416H142.677V131.191Z" stroke="#58595B" stroke-width="1.3779" stroke-miterlimit="10"/>
<path d="M65.6056 131.191H1.37891V195.416H65.6056V131.191Z" fill="#CCE2F5"/>
<path d="M65.6056 131.191H1.37891V195.416H65.6056V131.191Z" stroke="#58595B" stroke-width="1.3779" stroke-miterlimit="10"/>
<path d="M175.597 230.885L186.986 241.407L198.388 230.885" stroke="#6B9BD2" stroke-width="6.88948" stroke-linecap="round" stroke-linejoin="round"/>
<path d="M186.992 217.373V234.642" stroke="#6B9BD2" stroke-width="13.779" stroke-linecap="round"/>
<path d="M126.623 259.477H248.649C261.056 259.477 271.129 269.55 271.129 281.957V326.665C271.129 339.071 261.057 349.143 248.651 349.143H126.621C114.215 349.143 104.143 339.071 104.143 326.665V281.957C104.143 269.55 114.216 259.477 126.623 259.477Z" stroke="#ED1C24" stroke-width="2.75579"/>
<path d="M194.058 288.346H258.182" stroke="#231F20" stroke-width="0.826738" stroke-miterlimit="10" stroke-dasharray="4.13 2.81"/>
<path d="M226.122 320.395H194.06V336.422H226.122V320.395Z" fill="#CCE2F5"/>
<path d="M194.059 304.371H258.183" stroke="#231F20" stroke-width="0.826738" stroke-miterlimit="10" stroke-dasharray="4.13 2.81"/>
<path d="M194.059 320.395H258.183" stroke="#231F20" stroke-width="0.826738" stroke-miterlimit="10" stroke-dasharray="4.13 2.81"/>
<path d="M226.121 336.42V272.318" stroke="#231F20" stroke-width="0.826738" stroke-miterlimit="10" stroke-dasharray="4.13 2.89"/>
<path d="M258.284 272.195H194.159V336.297H258.284V272.195Z" stroke="#58595B" stroke-width="1.3779" stroke-miterlimit="10"/>
<path d="M181.212 272.195H116.985V336.422H181.212V272.195Z" fill="#CCE2F5"/>
<path d="M181.212 272.195H116.985V336.422H181.212V272.195Z" stroke="#58595B" stroke-width="1.3779" stroke-miterlimit="10"/>
<path d="M65.6034 0.978516H1.37891V65.2053H65.6034V0.978516Z" fill="#CCE2F5"/>
<path d="M65.6056 0.978516H1.37891V65.2052H65.6056V0.978516Z" stroke="#58595B" stroke-width="1.3779" stroke-miterlimit="10"/>
<path d="M142.677 0.978516H78.4502V65.2053H142.677V0.978516Z" fill="#CCE2F5"/>
<path d="M142.677 0.978516H78.4502V65.2052H142.677V0.978516Z" stroke="#58595B" stroke-width="1.3779" stroke-miterlimit="10"/>
<path d="M219.748 1.62891H155.521V65.8557H219.748V1.62891Z" fill="#CCE2F5"/>
<path d="M219.748 1.62891H155.521V65.8556H219.748V1.62891Z" stroke="#58595B" stroke-width="1.3779" stroke-miterlimit="10"/>
<path d="M341.779 1.62891H309.667V65.8557H341.779V1.62891Z" fill="#CCE2F5"/>
<path d="M341.779 65.8556V1.62891" stroke="#231F20" stroke-width="0.826738" stroke-miterlimit="10" stroke-dasharray="4.13 2.89"/>
<path d="M373.892 1.62891H309.665V65.8556H373.892V1.62891Z" stroke="#58595B" stroke-width="1.3779" stroke-miterlimit="10"/>
<path d="M296.819 1.62891H232.592V65.8557H296.819V1.62891Z" fill="#CCE2F5"/>
<path d="M296.819 1.62891H232.592V65.8556H296.819V1.62891Z" stroke="#58595B" stroke-width="1.3779" stroke-miterlimit="10"/>
</svg>
