<svg width="293" height="351" viewBox="0 0 293 351" fill="none" xmlns="http://www.w3.org/2000/svg">
<path d="M138 74L146.5 82L155 74" stroke="#6B9BD2" stroke-width="4.9505" stroke-linecap="round" stroke-linejoin="round"/>
<path d="M146 65V77" stroke="#6B9BD2" stroke-width="9.90099" stroke-linecap="round"/>
<path d="M57.314 1H10.3867V47.9273H57.314V1Z" fill="#CCE2F5"/>
<path d="M57.314 1H10.3867V47.9273H57.314V1Z" stroke="#58595B" stroke-width="0.990099" stroke-miterlimit="10"/>
<path d="M113.611 1H66.6836V47.9273H113.611V1Z" fill="#CCE2F5"/>
<path d="M113.927 1H67V47.9273H113.927V1Z" stroke="#58595B" stroke-width="0.990099" stroke-miterlimit="10"/>
<path d="M169.921 1.48047H122.994V48.4078H169.921V1.48047Z" fill="#CCE2F5"/>
<path d="M169.921 1.48047H122.994V48.4078H169.921V1.48047Z" stroke="#58595B" stroke-width="0.990099" stroke-miterlimit="10"/>
<path d="M259.059 1.48047H235.604V48.4078H259.059V1.48047Z" fill="#CCE2F5"/>
<path d="M259.076 48.3912V1.48047" stroke="#231F20" stroke-width="0.594059" stroke-miterlimit="10" stroke-dasharray="2.97 2.08"/>
<path d="M282.531 1.48047H235.604V48.4078H282.531V1.48047Z" stroke="#58595B" stroke-width="0.990099" stroke-miterlimit="10"/>
<path d="M226.236 1.48047H179.309V48.4078H226.236V1.48047Z" fill="#CCE2F5"/>
<path d="M226.236 1.48047H179.309V48.4078H226.236V1.48047Z" stroke="#58595B" stroke-width="0.990099" stroke-miterlimit="10"/>
<path d="M138 169L146.5 177L155 169" stroke="#6B9BD2" stroke-width="4.9505" stroke-linecap="round" stroke-linejoin="round"/>
<path d="M146 159V172" stroke="#6B9BD2" stroke-width="9.90099" stroke-linecap="round"/>
<path d="M138 264L146.5 271L155 264" stroke="#6B9BD2" stroke-width="4.9505" stroke-linecap="round" stroke-linejoin="round"/>
<path d="M146 254V266" stroke="#6B9BD2" stroke-width="9.90099" stroke-linecap="round"/>
<path d="M17.4251 285H275.575C284.648 285 292 292.31 292 301.295V333.705C292 342.707 284.632 350 275.575 350H17.4251C8.35158 350 1 342.69 1 333.705V301.295C1 292.293 8.36814 285 17.4251 285Z" stroke="#ED1C24" stroke-width="1.9802"/>
<path d="M259.026 329.012H235.604V340.715H259.026V329.012Z" fill="#CCE2F5"/>
<path d="M235.604 305.59H282.448" stroke="#231F20" stroke-width="0.594059" stroke-miterlimit="10" stroke-dasharray="2.97 2.02"/>
<path d="M235.604 317.309H282.448" stroke="#231F20" stroke-width="0.594059" stroke-miterlimit="10" stroke-dasharray="2.97 2.02"/>
<path d="M235.604 329.012H282.448" stroke="#231F20" stroke-width="0.594059" stroke-miterlimit="10" stroke-dasharray="2.97 2.02"/>
<path d="M259.025 340.717V293.889" stroke="#231F20" stroke-width="0.594059" stroke-miterlimit="10" stroke-dasharray="2.97 2.08"/>
<path d="M282.532 293.805H235.688V340.633H282.532V293.805Z" stroke="#58595B" stroke-width="0.990099" stroke-miterlimit="10"/>
<path d="M226.153 329.012H179.309V340.715H226.153V329.012Z" fill="#CCE2F5"/>
<path d="M179.309 305.59H226.153" stroke="#231F20" stroke-width="0.594059" stroke-miterlimit="10" stroke-dasharray="2.97 2.02"/>
<path d="M179.309 317.309H226.153" stroke="#231F20" stroke-width="0.594059" stroke-miterlimit="10" stroke-dasharray="2.97 2.02"/>
<path d="M179.309 329.012H226.153" stroke="#231F20" stroke-width="0.594059" stroke-miterlimit="10" stroke-dasharray="2.97 2.02"/>
<path d="M202.73 340.717V293.889" stroke="#231F20" stroke-width="0.594059" stroke-miterlimit="10" stroke-dasharray="2.97 2.08"/>
<path d="M226.22 293.805H179.375V340.633H226.22V293.805Z" stroke="#58595B" stroke-width="0.990099" stroke-miterlimit="10"/>
<path d="M169.921 329.012H122.994V340.715H169.921V329.012Z" fill="#CCE2F5"/>
<path d="M122.994 305.59H169.839" stroke="#231F20" stroke-width="0.594059" stroke-miterlimit="10" stroke-dasharray="2.97 2.02"/>
<path d="M122.994 317.309H169.839" stroke="#231F20" stroke-width="0.594059" stroke-miterlimit="10" stroke-dasharray="2.97 2.02"/>
<path d="M122.994 329.012H169.839" stroke="#231F20" stroke-width="0.594059" stroke-miterlimit="10" stroke-dasharray="2.97 2.02"/>
<path d="M146.416 340.717V293.889" stroke="#231F20" stroke-width="0.594059" stroke-miterlimit="10" stroke-dasharray="2.97 2.08"/>
<path d="M169.921 293.805H123.076V340.633H169.921V293.805Z" stroke="#58595B" stroke-width="0.990099" stroke-miterlimit="10"/>
<path d="M113.544 329.012H66.6992V340.715H113.544V329.012Z" fill="#CCE2F5"/>
<path d="M66.6992 305.59H113.544" stroke="#231F20" stroke-width="0.594059" stroke-miterlimit="10" stroke-dasharray="2.97 2.02"/>
<path d="M66.6992 317.309H113.544" stroke="#231F20" stroke-width="0.594059" stroke-miterlimit="10" stroke-dasharray="2.97 2.02"/>
<path d="M66.6992 329.012H113.544" stroke="#231F20" stroke-width="0.594059" stroke-miterlimit="10" stroke-dasharray="2.97 2.02"/>
<path d="M90.1211 340.717V293.889" stroke="#231F20" stroke-width="0.594059" stroke-miterlimit="10" stroke-dasharray="2.97 2.08"/>
<path d="M113.61 293.805H66.7656V340.633H113.61V293.805Z" stroke="#58595B" stroke-width="0.990099" stroke-miterlimit="10"/>
<path d="M57.2313 329.012H10.3867V340.715H57.2313V329.012Z" fill="#CCE2F5"/>
<path d="M10.3867 305.59H57.2313" stroke="#231F20" stroke-width="0.594059" stroke-miterlimit="10" stroke-dasharray="2.97 2.02"/>
<path d="M10.3867 317.309H57.2313" stroke="#231F20" stroke-width="0.594059" stroke-miterlimit="10" stroke-dasharray="2.97 2.02"/>
<path d="M10.3867 329.012H57.2313" stroke="#231F20" stroke-width="0.594059" stroke-miterlimit="10" stroke-dasharray="2.97 2.02"/>
<path d="M33.8086 340.717V293.889" stroke="#231F20" stroke-width="0.594059" stroke-miterlimit="10" stroke-dasharray="2.97 2.08"/>
<path d="M57.2977 293.805H10.4531V340.633H57.2977V293.805Z" stroke="#58595B" stroke-width="0.990099" stroke-miterlimit="10"/>
<path d="M259.026 190.879H235.604V237.707H259.026V190.879Z" fill="#CCE2F5"/>
<path d="M235.604 202.584H282.448" stroke="#231F20" stroke-width="0.594059" stroke-miterlimit="10" stroke-dasharray="2.97 2.02"/>
<path d="M235.604 214.285H282.448" stroke="#231F20" stroke-width="0.594059" stroke-miterlimit="10" stroke-dasharray="2.97 2.02"/>
<path d="M235.604 226.002H282.448" stroke="#231F20" stroke-width="0.594059" stroke-miterlimit="10" stroke-dasharray="2.97 2.02"/>
<path d="M259.025 237.707V190.879" stroke="#231F20" stroke-width="0.594059" stroke-miterlimit="10" stroke-dasharray="2.97 2.08"/>
<path d="M282.532 190.779H235.688V237.607H282.532V190.779Z" stroke="#58595B" stroke-width="0.990099" stroke-miterlimit="10"/>
<path d="M226.153 190.779H179.309V237.707H226.153V190.779Z" fill="#CCE2F5"/>
<path d="M179.309 202.584H226.153" stroke="#231F20" stroke-width="0.594059" stroke-miterlimit="10" stroke-dasharray="2.97 2.02"/>
<path d="M179.309 214.285H226.153" stroke="#231F20" stroke-width="0.594059" stroke-miterlimit="10" stroke-dasharray="2.97 2.02"/>
<path d="M179.309 226.002H226.153" stroke="#231F20" stroke-width="0.594059" stroke-miterlimit="10" stroke-dasharray="2.97 2.02"/>
<path d="M202.73 237.707V190.879" stroke="#231F20" stroke-width="0.594059" stroke-miterlimit="10" stroke-dasharray="2.97 2.08"/>
<path d="M226.22 190.779H179.375V237.607H226.22V190.779Z" stroke="#58595B" stroke-width="0.990099" stroke-miterlimit="10"/>
<path d="M169.921 190.779H122.994V237.707H169.921V190.779Z" fill="#CCE2F5"/>
<path d="M122.994 202.584H169.839" stroke="#231F20" stroke-width="0.594059" stroke-miterlimit="10" stroke-dasharray="2.97 2.02"/>
<path d="M122.994 214.285H169.839" stroke="#231F20" stroke-width="0.594059" stroke-miterlimit="10" stroke-dasharray="2.97 2.02"/>
<path d="M122.994 226.002H169.839" stroke="#231F20" stroke-width="0.594059" stroke-miterlimit="10" stroke-dasharray="2.97 2.02"/>
<path d="M146.416 237.707V190.879" stroke="#231F20" stroke-width="0.594059" stroke-miterlimit="10" stroke-dasharray="2.97 2.08"/>
<path d="M169.921 190.779H123.076V237.607H169.921V190.779Z" stroke="#58595B" stroke-width="0.990099" stroke-miterlimit="10"/>
<path d="M113.544 190.279H66.6992V237.703H113.544V190.279Z" fill="#CCE2F5"/>
<path d="M66.6992 202.576H113.544" stroke="#231F20" stroke-width="0.594059" stroke-miterlimit="10" stroke-dasharray="2.97 2.02"/>
<path d="M66.6992 214.281H113.544" stroke="#231F20" stroke-width="0.594059" stroke-miterlimit="10" stroke-dasharray="2.97 2.02"/>
<path d="M66.6992 226.002H113.544" stroke="#231F20" stroke-width="0.594059" stroke-miterlimit="10" stroke-dasharray="2.97 2.02"/>
<path d="M90.1211 237.701V190.873" stroke="#231F20" stroke-width="0.594059" stroke-miterlimit="10" stroke-dasharray="2.97 2.08"/>
<path d="M113.61 190.777H66.7656V237.605H113.61V190.777Z" stroke="#58595B" stroke-width="0.990099" stroke-miterlimit="10"/>
<path d="M57.2313 190.279H10.3867V237.703H57.2313V190.279Z" fill="#CCE2F5"/>
<path d="M10.3867 202.576H57.2313" stroke="#231F20" stroke-width="0.594059" stroke-miterlimit="10" stroke-dasharray="2.97 2.02"/>
<path d="M10.3867 214.281H57.2313" stroke="#231F20" stroke-width="0.594059" stroke-miterlimit="10" stroke-dasharray="2.97 2.02"/>
<path d="M10.3867 226.002H57.2313" stroke="#231F20" stroke-width="0.594059" stroke-miterlimit="10" stroke-dasharray="2.97 2.02"/>
<path d="M33.8086 237.701V190.873" stroke="#231F20" stroke-width="0.594059" stroke-miterlimit="10" stroke-dasharray="2.97 2.08"/>
<path d="M57.2977 190.777H10.4531V237.605H57.2977V190.777Z" stroke="#58595B" stroke-width="0.990099" stroke-miterlimit="10"/>
<path d="M259.059 95.998H235.604V142.925H259.059V95.998Z" fill="#CCE2F5"/>
<path d="M259.076 142.909V95.998" stroke="#231F20" stroke-width="0.594059" stroke-miterlimit="10" stroke-dasharray="2.97 2.08"/>
<path d="M282.531 95.9805H235.604V142.908H282.531V95.9805Z" stroke="#58595B" stroke-width="0.990099" stroke-miterlimit="10"/>
<path d="M226.153 95.998H179.309V142.925H226.153V95.998Z" fill="#CCE2F5"/>
<path d="M202.764 142.909V95.998" stroke="#231F20" stroke-width="0.594059" stroke-miterlimit="10" stroke-dasharray="2.97 2.08"/>
<path d="M226.236 95.9805H179.309V142.908H226.236V95.9805Z" stroke="#58595B" stroke-width="0.990099" stroke-miterlimit="10"/>
<path d="M169.839 95.998H122.994V142.925H169.839V95.998Z" fill="#CCE2F5"/>
<path d="M146.449 142.909V95.998" stroke="#231F20" stroke-width="0.594059" stroke-miterlimit="10" stroke-dasharray="2.97 2.08"/>
<path d="M169.921 95.9805H122.994V142.908H169.921V95.9805Z" stroke="#58595B" stroke-width="0.990099" stroke-miterlimit="10"/>
<path d="M113.544 95.998H66.6992V142.925H113.544V95.998Z" fill="#CCE2F5"/>
<path d="M90.1543 142.909V95.998" stroke="#231F20" stroke-width="0.594059" stroke-miterlimit="10" stroke-dasharray="2.97 2.08"/>
<path d="M113.627 95.9805H66.6992V142.908H113.627V95.9805Z" stroke="#58595B" stroke-width="0.990099" stroke-miterlimit="10"/>
<path d="M34 143V96" stroke="#231F20" stroke-width="0.594059" stroke-miterlimit="10" stroke-dasharray="2.97 2.08"/>
<path d="M57.2313 95.998H10.3867V142.925H57.2313V95.998Z" fill="#CCE2F5"/>
<path d="M57.314 95.9805H10.3867V142.908H57.314V95.9805Z" stroke="#58595B" stroke-width="0.990099" stroke-miterlimit="10"/>
</svg>
