<svg width="51" height="45" viewBox="0 0 51 45" fill="none" xmlns="http://www.w3.org/2000/svg">
<path d="M36.7743 13.0781L36.3993 10.6406C36.3993 10.6406 38.0868 9.14061 38.0868 8.95311C38.8368 8.20311 38.8368 7.26561 37.7118 7.07811L35.0868 6.70309L33.9618 4.45312C33.3993 3.51563 32.6493 3.51563 32.0868 4.45312L30.9618 6.70309L28.3368 7.07811C27.3993 7.26561 27.2118 8.20311 27.9618 8.95311L29.6493 10.6406L29.2743 13.0781C29.0868 14.2031 29.8368 14.7656 30.9618 14.2031C31.1493 14.2031 33.0243 13.0781 33.0243 13.0781C33.0243 13.0781 34.8993 14.0156 35.0868 14.2031C36.2118 14.7656 36.9618 14.3906 36.7743 13.0781Z" fill="#F59C00"/>
<path d="M48.7743 21.0781L48.3993 18.6406C48.3993 18.6406 50.0868 17.1406 50.0868 16.9531C50.8368 16.2031 50.8368 15.2656 49.7118 15.0781L47.0868 14.7031L45.9618 12.4531C45.3993 11.5156 44.6493 11.5156 44.0868 12.4531L42.9618 14.7031L40.3368 15.0781C39.3993 15.2656 39.2118 16.2031 39.9618 16.9531L41.6493 18.6406L41.2743 21.0781C41.0868 22.2031 41.8368 22.7656 42.9618 22.2031C43.1493 22.2031 45.0243 21.0781 45.0243 21.0781C45.0243 21.0781 46.8993 22.0156 47.0868 22.2031C48.2118 22.7656 48.9618 22.3906 48.7743 21.0781Z" fill="#F59C00"/>
<path d="M33.3991 26.2024C34.1491 25.0774 34.8991 24.1399 34.8991 23.9524C36.7741 21.3274 36.0241 19.2649 33.2116 18.8899L25.8991 19.0774L21.5866 13.2649C19.7116 11.2024 17.6491 11.5774 16.5241 14.2024L14.4616 21.1399L7.52409 23.3899C5.08659 24.7024 4.89909 26.9524 7.52409 28.6399C7.71159 28.8274 12.9616 32.3899 12.9616 32.3899V39.1399C13.1491 42.5149 15.3991 43.4524 18.0241 41.3899C18.0241 41.3899 18.7741 40.8274 19.7116 40.0774" stroke="#F59C00" stroke-width="2" stroke-linecap="round" stroke-linejoin="round"/>
<path d="M25.8994 23.7656L23.8369 25.4531L27.0244 25.6406" stroke="#F59C00" stroke-width="2" stroke-linecap="round" stroke-linejoin="round"/>
<path d="M18.3996 26.7668C18.2121 26.0168 17.4621 25.4543 16.7121 25.6418C15.9621 25.8293 15.3996 26.5793 15.5871 27.3293" stroke="#F59C00" stroke-width="2" stroke-linecap="round" stroke-linejoin="round"/>
</svg>
