<svg width="162" height="110" viewBox="0 0 162 110" fill="none" xmlns="http://www.w3.org/2000/svg">
<g clip-path="url(#clip0_9373_57372)">
<rect y="110" width="110" height="162" rx="6" transform="rotate(-90 0 110)" fill="#C2B2D7"/>
<path d="M19.6395 10.9255C19.6395 10.9255 19.6395 20.2269 10.165 20.2269L10.165 90.6986C10.165 90.6986 19.6395 90.6986 19.6395 100L142.171 100C142.171 100 142.171 90.6986 151.646 90.6986L151.646 20.2269C151.646 20.2269 142.171 20.2269 142.171 10.9255L19.6395 10.9255Z" fill="white" stroke="#231F20" stroke-width="1.51875" stroke-linecap="round" stroke-linejoin="round"/>
<path d="M12.5357 14.9785C13.9351 14.9785 15.0714 13.8629 15.0714 12.4891C15.0714 11.1153 13.9351 9.99972 12.5357 9.99972C11.1363 9.99972 10 11.1153 10 12.4891C10 13.8629 11.1363 14.9785 12.5357 14.9785Z" fill="#F48C99"/>
<path d="M12.5357 99.6172C13.9351 99.6172 15.0714 98.5016 15.0714 97.1278C15.0714 95.754 13.9351 94.6384 12.5357 94.6384C11.1363 94.6384 10 95.754 10 97.1278C10 98.5016 11.1363 99.6172 12.5357 99.6172Z" fill="#F48C99"/>
<path d="M149.464 99.6172C150.864 99.6172 152 98.5016 152 97.1278C152 95.754 150.864 94.6384 149.464 94.6384C148.065 94.6384 146.929 95.754 146.929 97.1278C146.929 98.5016 148.065 99.6172 149.464 99.6172Z" fill="#F48C99"/>
<path d="M149.464 14.9785C150.864 14.9785 152 13.8629 152 12.4891C152 11.1153 150.864 9.99972 149.464 9.99972C148.065 9.99972 146.929 11.1153 146.929 12.4891C146.929 13.8629 148.065 14.9785 149.464 14.9785Z" fill="#F48C99"/>
</g>
<defs>
<clipPath id="clip0_9373_57372">
<rect y="110" width="110" height="162" rx="6" transform="rotate(-90 0 110)" fill="white"/>
</clipPath>
</defs>
</svg>
