<svg width="163" height="110" viewBox="0 0 163 110" fill="none" xmlns="http://www.w3.org/2000/svg">
<g clip-path="url(#clip0_9373_56799)">
<rect width="110" height="162" rx="5.56341" transform="matrix(4.37114e-08 -1 -1 -4.37114e-08 162.117 110)" fill="#C2B2D7"/>
<path d="M142.526 10.0004C142.526 10.0004 142.526 19.3984 152.035 19.3984L152.035 90.602C152.035 90.602 142.526 90.602 142.526 100L19.5444 100C19.5444 100 19.5444 90.602 10.0352 90.602L10.0352 19.3984C10.0352 19.3984 19.5444 19.3984 19.5444 10.0004L142.526 10.0004Z" fill="#AD96C7" stroke="#231F20" stroke-width="1.51875" stroke-linecap="round" stroke-linejoin="round"/>
<mask id="mask0_9373_56799" style="mask-type:alpha" maskUnits="userSpaceOnUse" x="9" y="9" width="144" height="92">
<path d="M142.526 10.0004C142.526 10.0004 142.526 19.3984 152.035 19.3984L152.035 90.602C152.035 90.602 142.526 90.602 142.526 100L19.5444 100C19.5444 100 19.5444 90.602 10.0352 90.602L10.0352 19.3984C10.0352 19.3984 19.5444 19.3984 19.5444 10.0004L142.526 10.0004Z" fill="white" stroke="#231F20" stroke-width="1.51875" stroke-linecap="round" stroke-linejoin="round"/>
</mask>
<g mask="url(#mask0_9373_56799)">
<mask id="mask1_9373_56799" style="mask-type:luminance" maskUnits="userSpaceOnUse" x="9" y="9" width="144" height="92">
<path d="M142.526 10.0004C142.526 10.0004 142.526 19.3984 152.035 19.3984L152.035 90.602C152.035 90.602 142.526 90.602 142.526 100L19.5444 100C19.5444 100 19.5444 90.602 10.0352 90.602L10.0352 19.3984C10.0352 19.3984 19.5444 19.3984 19.5444 10.0004L142.526 10.0004Z" fill="white" stroke="white" stroke-width="1.51875" stroke-linecap="round" stroke-linejoin="round"/>
</mask>
<g mask="url(#mask1_9373_56799)">
<path d="M150.888 72.5657L118.311 99.7305" stroke="#F49092" stroke-width="2.22536"/>
<path d="M150.888 45.401L87.7711 99.7305" stroke="#F49092" stroke-width="2.22536"/>
<path d="M151.905 19.2424L58.2484 99.7305" stroke="#F49092" stroke-width="2.22536"/>
<path d="M134.601 9.18138L27.7096 99.7305" stroke="#F49092" stroke-width="2.22536"/>
<path d="M104.061 9.18183L10.4037 89.6699" stroke="#F49092" stroke-width="2.22536"/>
<path d="M72.5029 10.1884L9.38636 63.5117" stroke="#F49092" stroke-width="2.22536"/>
<path d="M42.9795 9.18073L9.38519 37.3516" stroke="#F49092" stroke-width="2.22536"/>
</g>
</g>
<path d="M142.526 10.0004C142.526 10.0004 142.526 19.3984 152.035 19.3984L152.035 90.602C152.035 90.602 142.526 90.602 142.526 100L19.5444 100C19.5444 100 19.5444 90.602 10.0352 90.602L10.0352 19.3984C10.0352 19.3984 19.5444 19.3984 19.5444 10.0004L142.526 10.0004Z" stroke="#231F20" stroke-width="1.51875" stroke-linecap="round" stroke-linejoin="round"/>
<path d="M149.668 13.5488C148.271 13.5488 147.137 12.4145 147.137 11.0176C147.137 9.62066 148.271 8.48633 149.668 8.48633C151.065 8.48633 152.199 9.62066 152.199 11.0176C152.199 12.4145 151.065 13.5488 149.668 13.5488Z" fill="#F7A8AF"/>
<path d="M149.668 99.6113C148.271 99.6113 147.137 98.477 147.137 97.0801C147.137 95.6832 148.271 94.5488 149.668 94.5488C151.065 94.5488 152.199 95.6832 152.199 97.0801C152.199 98.477 151.065 99.6113 149.668 99.6113Z" fill="#F7A8AF"/>
<path d="M12.9805 99.6113C11.5836 99.6113 10.4492 98.477 10.4492 97.0801C10.4492 95.6832 11.5836 94.5488 12.9805 94.5488C14.3774 94.5488 15.5117 95.6832 15.5117 97.0801C15.5117 98.477 14.3774 99.6113 12.9805 99.6113Z" fill="#F7A8AF"/>
<path d="M12.9805 13.5488C11.5836 13.5488 10.4492 12.4145 10.4492 11.0176C10.4492 9.62066 11.5836 8.48633 12.9805 8.48633C14.3774 8.48633 15.5117 9.62066 15.5117 11.0176C15.5117 12.4145 14.3774 13.5488 12.9805 13.5488Z" fill="#F7A8AF"/>
</g>
<defs>
<clipPath id="clip0_9373_56799">
<rect width="110" height="162" rx="5.56341" transform="matrix(4.37114e-08 -1 -1 -4.37114e-08 162.117 110)" fill="white"/>
</clipPath>
</defs>
</svg>
