<svg width="46" height="52" viewBox="0 0 46 52" fill="none" xmlns="http://www.w3.org/2000/svg">
<g clip-path="url(#clip0_2288_19)">
<path d="M44.9482 27.8667C46.4342 29.4756 46.3345 31.9842 44.7256 33.4702L26.0683 50.7017C24.5485 52.1054 22.2047 52.1052 20.6855 50.7007L2.04685 33.4692C0.43867 31.9825 0.340342 29.4729 1.82712 27.8647C3.31383 26.2567 5.82247 26.1585 7.43064 27.645L15.456 35.0649V8.43213C15.456 4.05198 19.0066 0.50073 23.3867 0.500488C27.767 0.500488 31.3183 4.05184 31.3183 8.43213V35.0571L39.3447 27.644C40.9536 26.1581 43.4622 26.2578 44.9482 27.8667Z" fill="#6B9BD2"/>
</g>
<defs>
<clipPath id="clip0_2288_19">
<rect width="52" height="46" fill="white" transform="matrix(0 1 -1 0 46 0)"/>
</clipPath>
</defs>
</svg>
