<svg width="461" height="216" viewBox="0 0 461 216" fill="none" xmlns="http://www.w3.org/2000/svg">
<path d="M2.5 160L41.5 140" stroke="#D2E4C0" stroke-width="4" stroke-linecap="round"/>
<path d="M2.5 56L41.5 76" stroke="#D2E4C0" stroke-width="4" stroke-linecap="round"/>
<path fill-rule="evenodd" clip-rule="evenodd" d="M10.0655 109.763L30.6806 109.763L22.6746 117.769C21.9857 118.458 21.9857 119.574 22.6746 120.261C23.3634 120.95 24.4782 120.95 25.167 120.261L36.1825 109.246C36.1869 109.243 36.1883 109.237 36.1928 109.233C36.3499 109.072 36.4762 108.883 36.5629 108.674C36.7421 108.243 36.7421 107.758 36.5629 107.326C36.4762 107.116 36.3499 106.928 36.1928 106.768C36.1883 106.764 36.1869 106.758 36.1825 106.753L25.167 95.7378C24.8233 95.3941 24.3724 95.2223 23.9215 95.2223C23.4691 95.2223 23.0182 95.3941 22.6746 95.7378C21.9857 96.4266 21.9857 97.5429 22.6746 98.2302L30.6806 106.238L10.0655 106.238C9.09173 106.238 8.30302 107.026 8.30302 108C8.30302 108.973 9.09173 109.763 10.0655 109.763Z" fill="#3B71FE"/>
<path d="M76.5 34H385.5C395.441 34 403.5 42.0589 403.5 52V164C403.5 173.941 395.441 182 385.5 182H76.5C66.5589 182 58.5 173.941 58.5 164V52L58.5059 51.5352C58.7524 41.8089 66.7143 34 76.5 34Z" fill="white"/>
<path d="M76.5 34H385.5C395.441 34 403.5 42.0589 403.5 52V164C403.5 173.941 395.441 182 385.5 182H76.5C66.5589 182 58.5 173.941 58.5 164V52L58.5059 51.5352C58.7524 41.8089 66.7143 34 76.5 34Z" stroke="#D2E4C0" stroke-width="4"/>
<rect x="68.5" y="44" width="325" height="128" rx="12" fill="#E2EDD7"/>
<path d="M458.5 160L419.5 140" stroke="#D2E4C0" stroke-width="4" stroke-linecap="round"/>
<path d="M458.5 56L419.5 76" stroke="#D2E4C0" stroke-width="4" stroke-linecap="round"/>
<path fill-rule="evenodd" clip-rule="evenodd" d="M427.065 109.763L447.681 109.763L439.675 117.769C438.986 118.458 438.986 119.574 439.675 120.261C440.363 120.95 441.478 120.95 442.167 120.261L453.182 109.246C453.187 109.243 453.188 109.237 453.193 109.233C453.35 109.072 453.476 108.883 453.563 108.674C453.742 108.243 453.742 107.758 453.563 107.326C453.476 107.116 453.35 106.928 453.193 106.768C453.188 106.764 453.187 106.758 453.182 106.753L442.167 95.7378C441.823 95.3941 441.372 95.2223 440.922 95.2223C440.469 95.2223 440.018 95.3941 439.675 95.7378C438.986 96.4266 438.986 97.5429 439.675 98.2302L447.681 106.238L427.065 106.238C426.092 106.238 425.303 107.026 425.303 108C425.303 108.973 426.092 109.763 427.065 109.763Z" fill="#3B71FE"/>
</svg>
