<svg width="36" height="31" viewBox="0 0 36 31" fill="none" xmlns="http://www.w3.org/2000/svg">
<path d="M25.7949 20.6021L15.9487 10.7559M25.7949 10.7559L15.9487 20.6021" stroke="#7F7F7F" stroke-opacity="0.4" stroke-width="3.28205" stroke-linecap="round" style="mix-blend-mode:luminosity"/>
<path d="M25.7949 20.6021L15.9487 10.7559M25.7949 10.7559L15.9487 20.6021" stroke="#3D3D3D" stroke-opacity="0.5" stroke-width="3.28205" stroke-linecap="round" style="mix-blend-mode:overlay"/>
<path d="M10.041 3.8636C10.6609 3.03717 11.6336 2.55078 12.6667 2.55078H30.7179C32.5306 2.55078 34 4.0202 34 5.83283V25.5251C34 27.3378 32.5306 28.8072 30.7179 28.8072H12.6667C11.6336 28.8072 10.6609 28.3208 10.041 27.4944L2.65641 17.6482C1.7812 16.4813 1.7812 14.8767 2.65641 13.7098L10.041 3.8636Z" stroke="#7F7F7F" stroke-opacity="0.4" stroke-width="3.28205" stroke-linecap="round" stroke-linejoin="round" style="mix-blend-mode:luminosity"/>
<path d="M10.041 3.8636C10.6609 3.03717 11.6336 2.55078 12.6667 2.55078H30.7179C32.5306 2.55078 34 4.0202 34 5.83283V25.5251C34 27.3378 32.5306 28.8072 30.7179 28.8072H12.6667C11.6336 28.8072 10.6609 28.3208 10.041 27.4944L2.65641 17.6482C1.7812 16.4813 1.7812 14.8767 2.65641 13.7098L10.041 3.8636Z" stroke="#3D3D3D" stroke-opacity="0.5" stroke-width="3.28205" stroke-linecap="round" stroke-linejoin="round" style="mix-blend-mode:overlay"/>
</svg>
