<svg width="40" height="41" viewBox="0 0 40 41" fill="none" xmlns="http://www.w3.org/2000/svg">
<path fill-rule="evenodd" clip-rule="evenodd" d="M7 7.82866C4.79086 7.82866 3 9.61952 3 11.8287V29.8287C3 32.0378 4.79086 33.8287 7 33.8287H33C35.2091 33.8287 37 32.0378 37 29.8287V11.8287C37 9.61952 35.2091 7.82866 33 7.82866H7ZM15.4336 27.1304C14.8813 27.1304 14.4336 27.5781 14.4336 28.1304C14.4336 28.6827 14.8813 29.1304 15.4336 29.1304H24.5664C25.1187 29.1304 25.5664 28.6827 25.5664 28.1304C25.5664 27.5781 25.1187 27.1304 24.5664 27.1304H15.4336ZM11.5 14.8335C11.5 15.9381 10.6046 16.8335 9.5 16.8335C8.39543 16.8335 7.5 15.9381 7.5 14.8335C7.5 13.729 8.39543 12.8335 9.5 12.8335C10.6046 12.8335 11.5 13.729 11.5 14.8335ZM16.5 16.8335C17.6046 16.8335 18.5 15.9381 18.5 14.8335C18.5 13.729 17.6046 12.8335 16.5 12.8335C15.3954 12.8335 14.5 13.729 14.5 14.8335C14.5 15.9381 15.3954 16.8335 16.5 16.8335ZM25.5 14.8335C25.5 15.9381 24.6046 16.8335 23.5 16.8335C22.3954 16.8335 21.5 15.9381 21.5 14.8335C21.5 13.729 22.3954 12.8335 23.5 12.8335C24.6046 12.8335 25.5 13.729 25.5 14.8335ZM9.5 22.4966C10.6046 22.4966 11.5 21.6012 11.5 20.4966C11.5 19.3921 10.6046 18.4966 9.5 18.4966C8.39543 18.4966 7.5 19.3921 7.5 20.4966C7.5 21.6012 8.39543 22.4966 9.5 22.4966ZM18.5 20.4966C18.5 21.6012 17.6046 22.4966 16.5 22.4966C15.3954 22.4966 14.5 21.6012 14.5 20.4966C14.5 19.3921 15.3954 18.4966 16.5 18.4966C17.6046 18.4966 18.5 19.3921 18.5 20.4966ZM23.5 22.4966C24.6046 22.4966 25.5 21.6012 25.5 20.4966C25.5 19.3921 24.6046 18.4966 23.5 18.4966C22.3954 18.4966 21.5 19.3921 21.5 20.4966C21.5 21.6012 22.3954 22.4966 23.5 22.4966ZM32.5 14.8335C32.5 15.9381 31.6046 16.8335 30.5 16.8335C29.3954 16.8335 28.5 15.9381 28.5 14.8335C28.5 13.729 29.3954 12.8335 30.5 12.8335C31.6046 12.8335 32.5 13.729 32.5 14.8335ZM30.5 22.4966C31.6046 22.4966 32.5 21.6012 32.5 20.4966C32.5 19.3921 31.6046 18.4966 30.5 18.4966C29.3954 18.4966 28.5 19.3921 28.5 20.4966C28.5 21.6012 29.3954 22.4966 30.5 22.4966Z" fill="white"/>
</svg>
