<svg width="28" height="32" viewBox="0 0 28 32" fill="none" xmlns="http://www.w3.org/2000/svg">
<path fill-rule="evenodd" clip-rule="evenodd" d="M21.2908 6.38307L14.1971 10.9278C13.8954 11.121 13.5 10.9037 13.5 10.5447V7.75704C8.23459 7.86691 4 12.1696 4 17.4613C4 22.8221 8.34573 27.1678 13.7065 27.1678C19.0672 27.1678 23.4129 22.8221 23.4129 17.4613C23.4129 16.3568 24.3084 15.4613 25.4129 15.4613C26.5175 15.4613 27.4129 16.3568 27.4129 17.4613C27.4129 25.0312 21.2763 31.1678 13.7065 31.1678C6.13659 31.1678 0 25.0312 0 17.4613C0 9.96042 6.02533 3.86678 13.5 3.75641V1.45528C13.5 1.09627 13.8954 0.878959 14.1971 1.07221L21.2908 5.61693C21.5697 5.79565 21.5697 6.20435 21.2908 6.38307Z" fill="white"/>
</svg>
