<svg width="1715" height="764" viewBox="0 0 1715 764" fill="none" xmlns="http://www.w3.org/2000/svg">
<g clip-path="url(#clip0_6143_3376)">
<rect width="1715" height="764" fill="#A28DFF"/>
<path d="M1250.1 -61.0769C1266.77 -77.2034 1293.23 -77.2034 1309.9 -61.0769L1333.37 -38.369C1342.9 -29.1471 1356.16 -24.8404 1369.29 -26.6979L1401.63 -31.2719C1424.59 -34.5201 1446 -18.9699 1450 3.87499L1455.65 36.0432C1457.94 49.107 1466.13 60.3822 1477.85 66.5985L1506.7 81.9056C1527.18 92.7763 1535.36 117.937 1525.17 138.774L1510.83 168.116C1505.01 180.032 1505.01 193.968 1510.83 205.884L1525.17 235.226C1535.36 256.063 1527.18 281.224 1506.7 292.094L1477.85 307.402C1466.13 313.618 1457.94 324.893 1455.65 337.957L1450 370.125C1446 392.97 1424.59 408.52 1401.63 405.272L1369.29 400.698C1356.16 398.84 1342.9 403.147 1333.37 412.369L1309.9 435.077C1293.23 451.203 1266.77 451.203 1250.1 435.077L1226.63 412.369C1217.1 403.147 1203.84 398.84 1190.71 400.698L1158.37 405.272C1135.41 408.52 1114 392.97 1110 370.125L1104.35 337.957C1102.06 324.893 1093.87 313.618 1082.15 307.402L1053.3 292.094C1032.82 281.224 1024.64 256.063 1034.83 235.226L1049.17 205.884C1054.99 193.968 1054.99 180.032 1049.17 168.116L1034.83 138.774C1024.64 117.937 1032.82 92.7763 1053.3 81.9056L1082.15 66.5985C1093.87 60.3822 1102.06 49.107 1104.35 36.0432L1110 3.87498C1114 -18.9699 1135.41 -34.5201 1158.37 -31.2719L1190.71 -26.6979C1203.84 -24.8404 1217.1 -29.1471 1226.63 -38.369L1250.1 -61.0769Z" fill="#947DFA"/>
<path d="M307.458 -49.2467C153.616 -1.13718 67.9035 162.577 116.013 316.418C164.123 470.26 327.836 555.973 481.678 507.863" stroke="#947DFA" stroke-width="6.82709" stroke-linecap="round" stroke-linejoin="round" stroke-dasharray="3.41 13.65"/>
<path d="M1395.53 841.419L1400.45 529.689L1667.95 689.815L1395.53 841.419Z" stroke="#947DFA" stroke-width="6"/>
<circle cx="1666" cy="690" r="11" fill="#846BF3"/>
<circle cx="1400" cy="529" r="11" fill="#846BF3"/>
<path d="M1387.63 220.502C1386.55 222.363 1384.91 223.828 1382.94 224.681L1333.15 246.204C1327 248.864 1320.02 244.836 1319.25 238.178L1312.99 184.3C1312.75 182.165 1313.19 180.008 1314.27 178.147L1472.58 -96.0559C1475.34 -100.839 1481.46 -102.478 1486.24 -99.7162L1542.28 -67.3611C1547.06 -64.5997 1548.7 -58.4838 1545.94 -53.7009L1387.63 220.502Z" fill="#F482F2"/>
<mask id="mask0_6143_3376" style="mask-type:alpha" maskUnits="userSpaceOnUse" x="1274" y="171" width="121" height="108">
<rect x="1361.24" y="278.416" width="100.736" height="65.6313" transform="rotate(-150 1361.24 278.416)" fill="#D9D9D9"/>
</mask>
<g mask="url(#mask0_6143_3376)">
<path d="M1387.63 220.502C1386.55 222.363 1384.91 223.828 1382.94 224.681L1333.15 246.204C1327 248.864 1320.02 244.836 1319.25 238.178L1312.99 184.3C1312.75 182.165 1313.19 180.008 1314.27 178.147L1472.58 -96.0559C1475.34 -100.839 1481.46 -102.478 1486.24 -99.7162L1542.28 -67.3611C1547.06 -64.5997 1548.7 -58.4838 1545.94 -53.7009L1387.63 220.502Z" fill="#FFD5BD"/>
</g>
<mask id="mask1_6143_3376" style="mask-type:alpha" maskUnits="userSpaceOnUse" x="1274" y="208" width="99" height="71">
<rect x="1361.24" y="278.416" width="100.736" height="22.8946" transform="rotate(-150 1361.24 278.416)" fill="#D9D9D9"/>
</mask>
<g mask="url(#mask1_6143_3376)">
<path d="M1387.63 220.502C1386.55 222.363 1384.91 223.828 1382.94 224.681L1333.15 246.204C1327 248.864 1320.02 244.836 1319.25 238.178L1312.99 184.3C1312.75 182.165 1313.19 180.008 1314.27 178.147L1472.58 -96.0559C1475.34 -100.839 1481.46 -102.478 1486.24 -99.7162L1542.28 -67.3611C1547.06 -64.5997 1548.7 -58.4838 1545.94 -53.7009L1387.63 220.502Z" fill="#864726"/>
</g>
<rect x="1364.31" y="204.406" width="28.9999" height="309.077" transform="rotate(-150 1364.31 204.406)" fill="#E05FDE"/>
<path d="M425.3 94.6725C418.154 105.222 420.897 119.565 431.424 126.695C441.95 133.825 456.287 131.051 463.433 120.502C470.578 109.953 467.835 95.6093 457.309 88.4793C446.783 81.3493 432.445 84.1234 425.3 94.6725ZM514.317 154.968C488.135 193.622 435.453 203.815 396.883 177.69C358.313 151.564 348.234 98.8601 374.416 60.2064C400.597 21.5526 453.28 11.3596 491.85 37.485C530.42 63.6105 540.499 116.314 514.317 154.968Z" fill="#FFBF58"/>
<path d="M420.199 145.747C416.775 150.803 411.814 154.876 405.696 157.236C389.813 163.318 372.076 155.369 366.03 139.486L322.069 23.8781C316.023 7.99434 324.001 -9.77253 339.885 -15.8551C355.768 -21.9376 373.504 -13.9888 379.55 1.89493L423.511 117.502C427.211 127.268 425.646 137.706 420.199 145.747Z" fill="#EB9662"/>
<g clip-path="url(#clip1_6143_3376)">
<path d="M1375.5 602.074L1279.75 642.709C1264.67 649.107 1247.12 641.845 1240.62 626.516C1234.11 611.186 1241.08 593.521 1256.16 587.123L1351.87 546.506C1366.98 540.09 1384.49 547.37 1390.99 562.7C1397.5 578.029 1390.53 595.694 1375.46 602.092" fill="#98DDFF"/>
<path d="M1279.75 642.71C1273.64 645.301 1266.56 645.845 1259.67 643.746C1243.87 638.923 1234.78 622.129 1239.35 606.195L1284.9 447.371C1289.48 431.438 1305.97 422.44 1321.77 427.263C1337.58 432.086 1346.67 448.88 1342.11 464.857L1296.57 623.681C1293.98 632.671 1287.62 639.418 1279.72 642.771" fill="#98DDFF"/>
<path d="M1325.33 483.867C1310.22 490.283 1292.71 483.003 1286.21 467.673C1281.32 456.165 1268.18 450.725 1256.86 455.528C1245.54 460.331 1240.32 473.565 1245.21 485.073C1251.73 500.446 1244.74 518.068 1229.67 524.466C1214.59 530.864 1196.98 523.681 1190.45 508.308C1172.56 466.141 1191.74 417.516 1233.21 399.917C1274.68 382.318 1322.98 402.307 1340.87 444.474C1347.4 459.847 1340.41 477.469 1325.33 483.867Z" fill="#FFE88A"/>
</g>
<path d="M548.526 656.396L555.75 616.576L596.568 645.241L591.571 672.783C588.846 686.996 566.445 682.966 555.426 681.299C530.168 676.457 527.34 669.893 528.331 664.725C529.916 656.455 542.459 655.679 548.526 656.396Z" fill="#FF8C78" stroke="black" stroke-width="4.24175" stroke-linecap="round" stroke-linejoin="round"/>
<path d="M650.122 675.874L658.138 636.207L609.613 647.742L604.068 675.178C601.343 689.391 623.647 693.932 634.5 696.46C659.758 701.302 664.814 696.25 665.804 691.082C667.39 682.813 656.023 677.452 650.122 675.874Z" fill="#FF8C78" stroke="black" stroke-width="4.24175" stroke-linecap="round" stroke-linejoin="round"/>
<path d="M529.631 567.837L531.621 543.384C501.145 549.202 494.232 574.187 494.585 585.952L529.631 567.837Z" fill="#FF8C78"/>
<path d="M700.431 600.584L707.627 577.13C733.789 593.807 730.971 619.577 726.292 630.377L700.431 600.584Z" fill="#FF8C78"/>
<circle cx="619.524" cy="560.779" r="90.1371" transform="rotate(10.8537 619.524 560.779)" fill="#FF8C78" stroke="black" stroke-width="4.24175"/>
<circle cx="610.535" cy="528.822" r="4.24175" transform="rotate(10.8537 610.535 528.822)" fill="black"/>
<circle cx="639.696" cy="534.414" r="4.24175" transform="rotate(10.8537 639.696 534.414)" fill="black"/>
<path d="M655.525 550.404C649.215 555.158 638.841 558.003 620.722 554.529C602.604 551.055 594.017 544.574 589.913 537.824" stroke="black" stroke-width="4.24175" stroke-linecap="round"/>
<path d="M719.438 606.654C728.327 615.404 729.219 628.811 721.431 636.6C713.643 644.389 700.124 643.611 691.236 634.861C682.347 626.111 683.319 613.103 691.107 605.314C698.894 597.525 710.549 597.905 719.438 606.654Z" fill="#FF8C78"/>
<path d="M701.323 601.374C688.722 600.834 680.621 618.113 687.046 630.807C690.725 638.078 700.285 647.494 714.259 641.849C728.234 636.204 735.236 616.359 723.588 594.259C720.85 589.404 715.629 583.08 708.468 577.011" stroke="black" stroke-width="4.24175" stroke-linecap="round"/>
<path d="M509.727 566.448C498.233 571.289 492.445 583.416 496.8 593.533C501.154 603.65 514.003 607.927 525.497 603.085C536.992 598.243 540.9 585.798 536.546 575.681C532.191 565.564 521.222 561.606 509.727 566.448Z" fill="#FF8C78"/>
<path d="M528.511 568.241C540.418 572.401 541.553 591.45 530.889 600.868C524.781 606.262 512.417 611.475 501.521 601.062C490.626 590.648 491.46 569.62 510.456 553.396C514.796 549.898 521.986 545.954 530.883 542.963" stroke="black" stroke-width="4.24175" stroke-linecap="round"/>
<mask id="mask2_6143_3376" style="mask-type:alpha" maskUnits="userSpaceOnUse" x="96" y="413" width="473" height="237">
<path d="M569 649.5C569 586.776 544.083 526.622 499.731 482.269C455.378 437.917 395.224 413 332.5 413C269.776 413 209.622 437.917 165.269 482.269C120.917 526.622 96 586.776 96 649.5L226.403 649.5C226.403 621.361 237.581 594.375 257.478 574.478C277.375 554.581 304.361 543.403 332.5 543.403C360.639 543.403 387.625 554.581 407.522 574.478C427.419 594.375 438.597 621.361 438.597 649.5H569Z" fill="#4A98FE"/>
</mask>
<g mask="url(#mask2_6143_3376)">
<path d="M569 649.5C569 586.776 544.083 526.622 499.731 482.269C455.378 437.917 395.224 413 332.5 413C269.776 413 209.622 437.917 165.269 482.269C120.917 526.622 96 586.776 96 649.5L226.137 649.5C226.137 621.291 237.343 594.237 257.29 574.29C277.237 554.343 304.291 543.137 332.5 543.137C360.709 543.137 387.763 554.343 407.71 574.29C427.657 594.237 438.863 621.291 438.863 649.5H569Z" fill="#57A5FF"/>
<path d="M569 649.5C569 586.776 544.083 526.622 499.731 482.269C455.378 437.917 395.224 413 332.5 413C269.776 413 209.622 437.917 165.269 482.269C120.917 526.622 96 586.776 96 649.5L181.923 649.5C181.923 609.565 197.788 571.265 226.026 543.026C254.265 514.788 292.565 498.923 332.5 498.923C372.435 498.923 410.735 514.788 438.974 543.026C467.212 571.265 483.077 609.565 483.077 649.5H569Z" fill="#62B3FF"/>
<path d="M569 649.5C569 586.776 544.083 526.622 499.731 482.269C455.378 437.917 395.224 413 332.5 413C269.776 413 209.622 437.917 165.269 482.269C120.917 526.622 96 586.776 96 649.5H139.576C139.576 598.333 159.902 549.262 196.082 513.082C232.262 476.902 281.333 456.576 332.5 456.576C383.667 456.576 432.738 476.902 468.918 513.082C505.098 549.262 525.424 598.333 525.424 649.5H569Z" fill="#77C2FF"/>
</g>
<rect width="247" height="104" rx="52" transform="matrix(-1 0 0 1 641 622)" fill="#DBC6FF"/>
<rect width="111" height="89" rx="44.5" transform="matrix(-1 0 0 1 597 561)" fill="#DBC6FF"/>
<g filter="url(#filter0_d_6143_3376)">
<path d="M276.012 253.973C282.644 247.342 293.395 247.342 300.027 253.973C306.658 260.605 306.658 271.356 300.027 277.988L233.988 344.027C227.356 350.658 216.605 350.658 209.973 344.027C203.342 337.395 203.342 326.644 209.973 320.012L276.012 253.973Z" fill="url(#paint0_linear_6143_3376)"/>
<path d="M233.988 253.973C227.356 247.342 216.605 247.342 209.974 253.973C203.342 260.605 203.342 271.356 209.974 277.988L276.012 344.027C282.644 350.658 293.395 350.658 300.027 344.027C306.658 337.395 306.658 326.644 300.027 320.012L233.988 253.973Z" fill="url(#paint1_linear_6143_3376)"/>
</g>
<rect width="405" height="143" rx="71.5" transform="matrix(-1 0 0 1 269 636)" fill="#D0C6FF"/>
<rect width="258" height="142" rx="71" transform="matrix(-1 0 0 1 175 534)" fill="#D0C6FF"/>
<g filter="url(#filter1_d_6143_3376)">
<path d="M1528.89 488.814C1521.26 494.19 1510.71 492.361 1505.34 484.73C1499.96 477.099 1501.79 466.555 1509.42 461.179L1585.42 407.647C1593.05 402.271 1603.59 404.1 1608.97 411.731C1614.34 419.362 1612.51 429.906 1604.88 435.282L1528.89 488.814Z" fill="url(#paint2_linear_6143_3376)"/>
<path d="M1567.26 483.341C1568.86 474.144 1577.61 467.981 1586.81 469.576C1596 471.171 1602.17 479.92 1600.57 489.117C1598.98 498.314 1590.23 504.477 1581.03 502.881C1571.83 501.286 1565.67 492.538 1567.26 483.341Z" fill="url(#paint3_linear_6143_3376)"/>
<path d="M1513.35 406.806C1514.95 397.608 1523.7 391.446 1532.89 393.041C1542.09 394.636 1548.25 403.385 1546.66 412.582C1545.06 421.779 1536.31 427.941 1527.12 426.346C1517.92 424.751 1511.76 416.003 1513.35 406.806Z" fill="url(#paint4_linear_6143_3376)"/>
</g>
<path d="M163.37 93.0866C170.053 89.8353 178.09 92.5836 181.321 99.2252C184.552 105.867 181.754 113.887 175.071 117.138L122.818 142.511C116.135 145.762 108.099 143.014 104.868 136.372C101.637 129.731 104.435 121.711 111.118 118.46L163.37 93.0866Z" fill="#C2B5FF"/>
<path d="M181.431 129.95C188.113 126.699 196.15 129.447 199.381 136.089C202.612 142.731 199.814 150.75 193.131 154.002L140.878 179.375C134.196 182.626 126.159 179.878 122.928 173.236C119.697 166.595 122.495 158.575 129.178 155.324L181.431 129.95Z" fill="#C2B5FF"/>
<circle cx="76" cy="481" r="30" fill="#DBC6FF"/>
</g>
<defs>
<filter id="filter0_d_6143_3376" x="205" y="249" width="100" height="110" filterUnits="userSpaceOnUse" color-interpolation-filters="sRGB">
<feFlood flood-opacity="0" result="BackgroundImageFix"/>
<feColorMatrix in="SourceAlpha" type="matrix" values="0 0 0 0 0 0 0 0 0 0 0 0 0 0 0 0 0 0 127 0" result="hardAlpha"/>
<feOffset dy="10"/>
<feComposite in2="hardAlpha" operator="out"/>
<feColorMatrix type="matrix" values="0 0 0 0 0.475312 0 0 0 0 0.368125 0 0 0 0 0.95 0 0 0 0.3 0"/>
<feBlend mode="normal" in2="BackgroundImageFix" result="effect1_dropShadow_6143_3376"/>
<feBlend mode="normal" in="SourceGraphic" in2="effect1_dropShadow_6143_3376" result="shape"/>
</filter>
<filter id="filter1_d_6143_3376" x="1502.25" y="392.789" width="109.802" height="120.344" filterUnits="userSpaceOnUse" color-interpolation-filters="sRGB">
<feFlood flood-opacity="0" result="BackgroundImageFix"/>
<feColorMatrix in="SourceAlpha" type="matrix" values="0 0 0 0 0 0 0 0 0 0 0 0 0 0 0 0 0 0 127 0" result="hardAlpha"/>
<feOffset dy="10"/>
<feComposite in2="hardAlpha" operator="out"/>
<feColorMatrix type="matrix" values="0 0 0 0 0.475312 0 0 0 0 0.368125 0 0 0 0 0.95 0 0 0 0.3 0"/>
<feBlend mode="normal" in2="BackgroundImageFix" result="effect1_dropShadow_6143_3376"/>
<feBlend mode="normal" in="SourceGraphic" in2="effect1_dropShadow_6143_3376" result="shape"/>
</filter>
<linearGradient id="paint0_linear_6143_3376" x1="209.973" y1="253.973" x2="300.027" y2="344.026" gradientUnits="userSpaceOnUse">
<stop stop-color="#FFFFC4"/>
<stop offset="1" stop-color="#58B9FF"/>
</linearGradient>
<linearGradient id="paint1_linear_6143_3376" x1="209.973" y1="253.973" x2="300.027" y2="344.026" gradientUnits="userSpaceOnUse">
<stop stop-color="#FFFFC4"/>
<stop offset="1" stop-color="#58B9FF"/>
</linearGradient>
<linearGradient id="paint2_linear_6143_3376" x1="1548.42" y1="497.226" x2="1565.51" y2="398.696" gradientUnits="userSpaceOnUse">
<stop stop-color="#FFFAC4"/>
<stop offset="1" stop-color="#E4C5FF"/>
</linearGradient>
<linearGradient id="paint3_linear_6143_3376" x1="1548.42" y1="497.226" x2="1565.51" y2="398.696" gradientUnits="userSpaceOnUse">
<stop stop-color="#FFFAC4"/>
<stop offset="1" stop-color="#E4C5FF"/>
</linearGradient>
<linearGradient id="paint4_linear_6143_3376" x1="1548.42" y1="497.226" x2="1565.51" y2="398.696" gradientUnits="userSpaceOnUse">
<stop stop-color="#FFFAC4"/>
<stop offset="1" stop-color="#E4C5FF"/>
</linearGradient>
<clipPath id="clip0_6143_3376">
<rect width="1715" height="764" fill="white"/>
</clipPath>
<clipPath id="clip1_6143_3376">
<rect width="163.403" height="241.68" fill="white" transform="translate(1158 431.834) rotate(-22.9953)"/>
</clipPath>
</defs>
</svg>
