<svg width="1715" height="764" viewBox="0 0 1715 764" fill="none" xmlns="http://www.w3.org/2000/svg">
<g clip-path="url(#clip0_6143_3571)">
<rect width="1715" height="764" fill="#756EF5"/>
<path d="M883.338 426.551L882.738 159.266C882.695 149.345 884.616 139.515 888.392 130.343C892.167 121.171 897.721 112.838 904.734 105.825C911.748 98.812 920.08 93.2576 929.253 89.4823C938.425 85.707 948.255 83.7856 958.175 83.8288L1225.46 84.4282C1236.24 82.7581 1247.26 83.456 1257.75 86.4734C1268.23 89.4908 1277.94 94.7553 1286.19 101.901C1294.44 109.047 1301.03 117.903 1305.52 127.853C1310 137.803 1312.26 148.608 1312.15 159.519C1312.03 170.429 1309.54 181.182 1304.85 191.032C1300.16 200.881 1293.38 209.589 1284.98 216.552C1276.59 223.514 1266.77 228.564 1256.23 231.35C1245.68 234.136 1234.65 234.591 1223.9 232.684L1137.82 232.662L1530.79 625.627C1544.88 639.724 1552.8 658.84 1552.81 678.771C1552.82 698.702 1544.9 717.814 1530.81 731.904C1516.72 745.993 1497.61 753.906 1477.68 753.901C1457.75 753.895 1438.63 745.973 1424.54 731.877L1031.57 338.911L1031.59 424.995C1031.54 444.848 1023.63 463.869 1009.6 477.904C995.561 491.939 976.54 499.847 956.687 499.901C937.384 499.434 918.997 491.556 905.34 477.899C891.683 464.242 883.804 445.855 883.338 426.551Z" fill="url(#paint0_linear_6143_3571)"/>
<path d="M-56.8374 163.153C-47.9559 163.153 -40.756 155.955 -40.756 147.076C-40.756 138.198 -47.9559 131 -56.8374 131C-65.7188 131 -72.9187 138.198 -72.9187 147.076C-72.9187 155.955 -65.7188 163.153 -56.8374 163.153Z" fill="#6961F6"/>
<path d="M-56.8374 171.191C-81.3614 171.191 -89 187.267 -89 187.267V195.305H-24.6747V187.267C-24.6747 187.267 -32.3133 171.191 -56.8374 171.191Z" fill="#6961F6"/>
<path d="M20.6976 163.153C29.579 163.153 36.7789 155.955 36.7789 147.076C36.7789 138.198 29.579 131 20.6976 131C11.8161 131 4.61626 138.198 4.61626 147.076C4.61626 155.955 11.8161 163.153 20.6976 163.153Z" fill="#6961F6"/>
<path d="M20.6976 171.191C-3.82644 171.191 -11.4651 187.267 -11.4651 187.267V195.305H52.8602V187.267C52.8602 187.267 45.2216 171.191 20.6976 171.191Z" fill="#6961F6"/>
<path d="M98.2325 163.153C107.114 163.153 114.314 155.955 114.314 147.076C114.314 138.198 107.114 131 98.2325 131C89.351 131 82.1512 138.198 82.1512 147.076C82.1512 155.955 89.351 163.153 98.2325 163.153Z" fill="#6961F6"/>
<path d="M98.2325 171.191C73.7085 171.191 66.0699 187.267 66.0699 187.267V195.305H130.395V187.267C130.395 187.267 122.757 171.191 98.2325 171.191Z" fill="#6961F6"/>
<path d="M175.767 163.153C184.649 163.153 191.849 155.955 191.849 147.076C191.849 138.198 184.649 131 175.767 131C166.886 131 159.686 138.198 159.686 147.076C159.686 155.955 166.886 163.153 175.767 163.153Z" fill="#6961F6"/>
<path d="M175.767 171.191C151.243 171.191 143.605 187.267 143.605 187.267V195.305H207.93V187.267C207.93 187.267 200.291 171.191 175.767 171.191Z" fill="#6961F6"/>
<path d="M253.302 163.153C262.184 163.153 269.384 155.955 269.384 147.076C269.384 138.198 262.184 131 253.302 131C244.421 131 237.221 138.198 237.221 147.076C237.221 155.955 244.421 163.153 253.302 163.153Z" fill="#6961F6"/>
<path d="M253.302 171.191C228.778 171.191 221.14 187.267 221.14 187.267V195.305H285.465V187.267C285.465 187.267 277.826 171.191 253.302 171.191Z" fill="#6961F6"/>
<path d="M330.837 163.153C339.719 163.153 346.919 155.955 346.919 147.076C346.919 138.198 339.719 131 330.837 131C321.956 131 314.756 138.198 314.756 147.076C314.756 155.955 321.956 163.153 330.837 163.153Z" fill="#6961F6"/>
<path d="M330.837 171.191C306.313 171.191 298.675 187.267 298.675 187.267V195.305H363V187.267C363 187.267 355.361 171.191 330.837 171.191Z" fill="#6961F6"/>
<path d="M-56.8374 256.5C-47.9559 256.5 -40.756 249.302 -40.756 240.424C-40.756 231.545 -47.9559 224.347 -56.8374 224.347C-65.7188 224.347 -72.9187 231.545 -72.9187 240.424C-72.9187 249.302 -65.7188 256.5 -56.8374 256.5Z" fill="#6961F6"/>
<path d="M-56.8374 264.538C-81.3614 264.538 -89 280.614 -89 280.614V288.653H-24.6747V280.614C-24.6747 280.614 -32.3133 264.538 -56.8374 264.538Z" fill="#6961F6"/>
<path d="M20.6976 256.5C29.579 256.5 36.7789 249.302 36.7789 240.424C36.7789 231.545 29.579 224.347 20.6976 224.347C11.8161 224.347 4.61626 231.545 4.61626 240.424C4.61626 249.302 11.8161 256.5 20.6976 256.5Z" fill="#6961F6"/>
<path d="M20.6976 264.538C-3.82644 264.538 -11.4651 280.614 -11.4651 280.614V288.653H52.8602V280.614C52.8602 280.614 45.2216 264.538 20.6976 264.538Z" fill="#6961F6"/>
<path d="M98.2325 256.5C107.114 256.5 114.314 249.302 114.314 240.424C114.314 231.545 107.114 224.347 98.2325 224.347C89.351 224.347 82.1512 231.545 82.1512 240.424C82.1512 249.302 89.351 256.5 98.2325 256.5Z" fill="#6961F6"/>
<path d="M98.2325 264.538C73.7085 264.538 66.0699 280.614 66.0699 280.614V288.653H130.395V280.614C130.395 280.614 122.757 264.538 98.2325 264.538Z" fill="#6961F6"/>
<path d="M175.767 256.5C184.649 256.5 191.849 249.302 191.849 240.424C191.849 231.545 184.649 224.347 175.767 224.347C166.886 224.347 159.686 231.545 159.686 240.424C159.686 249.302 166.886 256.5 175.767 256.5Z" fill="#6961F6"/>
<path d="M175.767 264.538C151.243 264.538 143.605 280.614 143.605 280.614V288.653H207.93V280.614C207.93 280.614 200.291 264.538 175.767 264.538Z" fill="#6961F6"/>
<path d="M253.302 256.5C262.184 256.5 269.384 249.302 269.384 240.424C269.384 231.545 262.184 224.347 253.302 224.347C244.421 224.347 237.221 231.545 237.221 240.424C237.221 249.302 244.421 256.5 253.302 256.5Z" fill="#6961F6"/>
<path d="M253.302 264.538C228.778 264.538 221.14 280.614 221.14 280.614V288.653H285.465V280.614C285.465 280.614 277.826 264.538 253.302 264.538Z" fill="#6961F6"/>
<path d="M330.837 256.5C339.719 256.5 346.919 249.302 346.919 240.424C346.919 231.545 339.719 224.347 330.837 224.347C321.956 224.347 314.756 231.545 314.756 240.424C314.756 249.302 321.956 256.5 330.837 256.5Z" fill="#6961F6"/>
<path d="M330.837 264.538C306.313 264.538 298.675 280.614 298.675 280.614V288.653H363V280.614C363 280.614 355.361 264.538 330.837 264.538Z" fill="#6961F6"/>
<path d="M-56.8374 349.847C-47.9559 349.847 -40.756 342.65 -40.756 333.771C-40.756 324.893 -47.9559 317.695 -56.8374 317.695C-65.7188 317.695 -72.9187 324.893 -72.9187 333.771C-72.9187 342.65 -65.7188 349.847 -56.8374 349.847Z" fill="#6961F6"/>
<path d="M-56.8374 357.886C-81.3614 357.886 -89 373.962 -89 373.962V382H-24.6747V373.962C-24.6747 373.962 -32.3133 357.886 -56.8374 357.886Z" fill="#6961F6"/>
<path d="M20.6976 349.847C29.579 349.847 36.7789 342.65 36.7789 333.771C36.7789 324.893 29.579 317.695 20.6976 317.695C11.8161 317.695 4.61626 324.893 4.61626 333.771C4.61626 342.65 11.8161 349.847 20.6976 349.847Z" fill="#6961F6"/>
<path d="M20.6976 357.886C-3.82644 357.886 -11.4651 373.962 -11.4651 373.962V382H52.8602V373.962C52.8602 373.962 45.2216 357.886 20.6976 357.886Z" fill="#6961F6"/>
<path d="M98.2325 349.847C107.114 349.847 114.314 342.65 114.314 333.771C114.314 324.893 107.114 317.695 98.2325 317.695C89.351 317.695 82.1512 324.893 82.1512 333.771C82.1512 342.65 89.351 349.847 98.2325 349.847Z" fill="#6961F6"/>
<path d="M98.2325 357.886C73.7085 357.886 66.0699 373.962 66.0699 373.962V382H130.395V373.962C130.395 373.962 122.757 357.886 98.2325 357.886Z" fill="#6961F6"/>
<path d="M175.767 349.847C184.649 349.847 191.849 342.65 191.849 333.771C191.849 324.893 184.649 317.695 175.767 317.695C166.886 317.695 159.686 324.893 159.686 333.771C159.686 342.65 166.886 349.847 175.767 349.847Z" fill="#6961F6"/>
<path d="M175.767 357.886C151.243 357.886 143.605 373.962 143.605 373.962V382H207.93V373.962C207.93 373.962 200.291 357.886 175.767 357.886Z" fill="#6961F6"/>
<rect x="123" y="662" width="115" height="166" fill="url(#paint1_linear_6143_3571)"/>
<mask id="path-4-inside-1_6143_3571" fill="white">
<path d="M-54 384C-54 372.954 -45.0457 364 -34 364H460C471.046 364 480 372.954 480 384V672C480 683.046 471.046 692 460 692H-34C-45.0457 692 -54 683.046 -54 672V384Z"/>
</mask>
<path d="M-54 384C-54 372.954 -45.0457 364 -34 364H460C471.046 364 480 372.954 480 384V672C480 683.046 471.046 692 460 692H-34C-45.0457 692 -54 683.046 -54 672V384Z" fill="url(#paint2_linear_6143_3571)"/>
<path d="M-54 364H480H-54ZM480 672C480 692.435 463.435 709 443 709H-17C-37.4345 709 -54 692.435 -54 672C-54 673.657 -45.0457 675 -34 675H460C471.046 675 480 673.657 480 672ZM-54 692V364V692ZM480 364V692V364Z" fill="#4A42DE" mask="url(#path-4-inside-1_6143_3571)"/>
<mask id="mask0_6143_3571" style="mask-type:alpha" maskUnits="userSpaceOnUse" x="-54" y="364" width="534" height="328">
<mask id="path-6-inside-2_6143_3571" fill="white">
<path d="M-54 384C-54 372.954 -45.0457 364 -34 364H460C471.046 364 480 372.954 480 384V672C480 683.046 471.046 692 460 692H-34C-45.0457 692 -54 683.046 -54 672V384Z"/>
</mask>
<path d="M-54 384C-54 372.954 -45.0457 364 -34 364H460C471.046 364 480 372.954 480 384V672C480 683.046 471.046 692 460 692H-34C-45.0457 692 -54 683.046 -54 672V384Z" fill="url(#paint3_linear_6143_3571)"/>
<path d="M-54 364H480H-54ZM480 672C480 692.435 463.435 709 443 709H-17C-37.4345 709 -54 692.435 -54 672C-54 673.657 -45.0457 675 -34 675H460C471.046 675 480 673.657 480 672ZM-54 692V364V692ZM480 364V692V364Z" fill="#3A61C0" mask="url(#path-6-inside-2_6143_3571)"/>
</mask>
<g mask="url(#mask0_6143_3571)">
<path opacity="0.3" d="M374.638 524.993L375.53 512.524L374.638 524.993ZM532 451.5C525.096 451.5 519.5 457.096 519.5 464C519.5 470.904 525.096 476.5 532 476.5V451.5ZM579 464H591.5C591.5 457.096 585.904 451.5 579 451.5V464ZM566.5 511C566.5 517.904 572.096 523.5 579 523.5C585.904 523.5 591.5 517.904 591.5 511H566.5ZM241.621 632.052C273.262 601.917 299.439 577.36 321.921 560.585C344.871 543.461 361.294 536.57 373.746 537.461L375.53 512.524C353.319 510.936 330.423 523.049 306.97 540.548C283.049 558.397 255.738 584.083 224.379 613.948L241.621 632.052ZM373.746 537.461C391.009 538.696 401.829 546.168 414.371 555.181C426.736 564.068 441.71 575.308 464.5 575.308V550.308C450.745 550.308 441.857 544.148 428.961 534.88C416.243 525.74 400.405 514.304 375.53 512.524L373.746 537.461ZM464.5 575.308C475.142 575.308 485.11 571.014 494.202 565.133C503.341 559.221 512.632 551.022 522.116 541.703C531.639 532.346 541.827 521.385 552.646 509.761C563.534 498.063 575.17 485.573 587.86 472.821L570.14 455.186C557.114 468.275 545.21 481.056 534.346 492.729C523.413 504.475 513.637 514.986 504.595 523.87C495.515 532.792 487.64 539.603 480.623 544.142C473.559 548.712 468.382 550.308 464.5 550.308V575.308ZM587.86 472.821C588.188 472.491 588.517 472.162 588.846 471.832L571.154 454.168C570.815 454.508 570.477 454.847 570.14 455.186L587.86 472.821ZM532 476.5H579V451.5H532V476.5ZM566.5 464V464.003H591.5V464H566.5ZM566.5 464.003V511H591.5V464.003H566.5Z" fill="#8B85FF"/>
</g>
<g opacity="0.5">
<path d="M204 414V626" stroke="#8B85FF" stroke-opacity="0.3" stroke-width="62"/>
<path d="M270 414V626" stroke="#8B85FF" stroke-opacity="0.3" stroke-width="62"/>
<path d="M336 414V626" stroke="#8B85FF" stroke-opacity="0.3" stroke-width="62"/>
<path d="M402 414V626" stroke="#8B85FF" stroke-opacity="0.3" stroke-width="62"/>
<path d="M0 468H98M0 486H98M0 504H81.3898M0 522H98M0 540H64.7797M0 558H64.7797" stroke="#8B85FF" stroke-width="6"/>
<path d="M29.5975 429.384C28.4455 428.844 27.7975 427.872 28.2655 426.432C29.2735 423.048 29.2375 421.14 29.2375 417.972V415.2H12.1735C9.54545 415.2 8.89745 414.156 8.89745 412.68C8.89745 411.42 9.54545 410.232 12.1735 410.232H32.4415C35.0335 410.232 35.2135 411.276 35.2135 412.968V417.648C35.2135 421.932 35.0695 426.252 33.2695 428.628C32.2975 429.996 30.6415 429.852 29.5975 429.384ZM34.7815 439.896H9.76145C7.13345 439.896 6.48545 438.708 6.48545 437.448C6.48545 435.972 7.13345 434.928 9.76145 434.928H34.7815C37.4095 434.928 38.0575 435.972 38.0575 437.448C38.0575 438.708 37.4095 439.896 34.7815 439.896ZM51.2845 439.428H43.4365C40.8085 439.428 40.5205 438.348 40.5205 436.908V424.848C40.5205 423.372 40.8085 422.076 43.4365 422.076H48.0085V414.84H43.8325C41.2045 414.84 40.5565 413.652 40.5565 412.392C40.5565 410.916 41.2045 409.872 43.8325 409.872H50.5645C53.1925 409.872 53.4805 411.168 53.4805 412.644V424.2C53.4805 426.216 52.2205 427.044 50.1685 427.044H45.9925V434.46H51.2845C53.9125 434.46 54.5605 435.648 54.5605 436.908C54.5605 438.384 53.9125 439.428 51.2845 439.428ZM58.9885 440.328C57.6205 440.328 56.4325 439.608 56.4325 437.16V412.572C56.4325 410.16 57.6565 409.44 58.9885 409.44C60.2845 409.44 61.5085 410.16 61.5085 412.572V421.716H64.3525V412.572C64.3525 410.16 65.5765 409.44 66.9085 409.44C68.2045 409.44 69.4285 410.16 69.4285 412.572V437.16C69.4285 439.608 68.2405 440.328 66.9085 440.328C65.5405 440.328 64.3525 439.608 64.3525 437.16V426.684H61.5085V437.16C61.5085 439.608 60.3205 440.328 58.9885 440.328ZM99.5755 428.124H77.7955C75.1675 428.124 74.5195 426.936 74.5195 425.676C74.5195 424.2 75.1675 423.156 77.7955 423.156H79.3435V414.804H77.9755C75.3475 414.804 74.6995 413.616 74.6995 412.356C74.6995 410.88 75.3475 409.836 77.9755 409.836H99.3955C102.024 409.836 102.672 410.88 102.672 412.356C102.672 413.616 102.024 414.804 99.3955 414.804H98.0275V423.156H99.5755C102.204 423.156 102.852 424.2 102.852 425.676C102.852 426.936 102.204 428.124 99.5755 428.124ZM101.196 439.896H76.1755C73.5475 439.896 72.8995 438.708 72.8995 437.448C72.8995 435.972 73.5475 434.928 76.1755 434.928H101.196C103.824 434.928 104.472 435.972 104.472 437.448C104.472 438.708 103.824 439.896 101.196 439.896ZM85.1755 423.156H92.1955V414.804H85.1755V423.156Z" fill="#8B85FF"/>
<path d="M20 614L70 592L122 626" stroke="#8B85FF" stroke-width="3"/>
<circle cx="21" cy="613" r="10" fill="#8B85FF"/>
<circle cx="70" cy="594" r="15" fill="#8B85FF"/>
<circle cx="117" cy="623" r="7" fill="#8B85FF"/>
</g>
<path d="M354.638 474.993L355.53 462.524L354.638 474.993ZM512 401.5C505.096 401.5 499.5 407.096 499.5 414C499.5 420.904 505.096 426.5 512 426.5V401.5ZM559 414H571.5C571.5 407.096 565.904 401.5 559 401.5V414ZM546.5 461C546.5 467.904 552.096 473.5 559 473.5C565.904 473.5 571.5 467.904 571.5 461H546.5ZM221.621 582.052C253.262 551.917 279.439 527.36 301.921 510.585C324.871 493.461 341.294 486.57 353.746 487.461L355.53 462.524C333.319 460.936 310.423 473.049 286.97 490.548C263.049 508.397 235.738 534.083 204.379 563.948L221.621 582.052ZM353.746 487.461C371.009 488.696 381.829 496.168 394.371 505.181C406.736 514.068 421.71 525.308 444.5 525.308V500.308C430.745 500.308 421.857 494.148 408.961 484.88C396.243 475.74 380.405 464.304 355.53 462.524L353.746 487.461ZM444.5 525.308C455.142 525.308 465.11 521.014 474.202 515.133C483.341 509.221 492.632 501.022 502.116 491.703C511.639 482.346 521.827 471.385 532.646 459.761C543.534 448.063 555.17 435.573 567.86 422.821L550.14 405.186C537.114 418.275 525.21 431.056 514.346 442.729C503.413 454.475 493.637 464.986 484.595 473.87C475.515 482.792 467.64 489.603 460.623 494.142C453.559 498.712 448.382 500.308 444.5 500.308V525.308ZM567.86 422.821C568.188 422.491 568.517 422.162 568.846 421.832L551.154 404.168C550.815 404.508 550.477 404.847 550.14 405.186L567.86 422.821ZM512 426.5H559V401.5H512V426.5ZM546.5 414V414.003H571.5V414H546.5ZM546.5 414.003V461H571.5V414.003H546.5Z" fill="url(#paint4_linear_6143_3571)"/>
<path d="M1537.92 647.706L1590.23 437.654L1798.29 377.93L1954.05 528.259L1901.74 738.312L1693.67 798.035L1537.92 647.706Z" stroke="#6961F6" stroke-width="6"/>
<path d="M1072 611.665C1072 613.888 1072.74 615.699 1074.3 617.18C1075.87 618.662 1077.84 619.32 1080.22 619.32H1094.13C1096.35 619.32 1098.24 618.579 1099.8 617.098C1101.36 615.616 1102.19 613.805 1102.19 611.665C1102.19 609.278 1101.45 607.303 1099.88 605.821C1098.32 604.34 1096.43 603.517 1094.21 603.517H1080.22C1077.84 603.517 1075.87 604.257 1074.3 605.821C1072.74 607.221 1072 609.196 1072 611.665ZM1086.56 662.533C1086.56 670.517 1089.44 677.431 1095.28 683.275C1101.12 689.119 1107.94 692 1115.92 692H1172.34C1180.32 692 1187.15 689.119 1192.82 683.357C1198.5 677.596 1201.38 670.682 1201.38 662.533C1201.38 658.582 1200.8 655.207 1199.65 652.409C1206.48 648.046 1211.91 642.202 1215.85 634.959C1219.8 627.716 1221.86 619.896 1221.86 611.583C1221.86 604.916 1220.54 598.496 1217.91 592.405C1215.28 586.314 1211.74 581.046 1207.38 576.683C1203.02 572.321 1197.76 568.782 1191.67 566.148C1185.59 563.514 1179.25 562.197 1172.59 562.197C1163.63 562.197 1155.32 564.419 1147.75 568.864C1140.18 573.309 1134.18 579.317 1129.82 586.808C1125.46 594.38 1123.32 602.611 1123.32 611.583V614.382C1115.1 619.073 1109.67 625.905 1107.04 634.877C1100.79 636.852 1095.85 640.309 1092.15 645.33C1088.45 650.351 1086.56 656.113 1086.56 662.533ZM1099.39 545.982C1099.39 548.286 1100.13 550.18 1101.53 551.497L1114.77 565.407C1118.64 568.37 1122.5 568.37 1126.37 565.407C1127.93 563.843 1128.67 561.95 1128.67 559.645C1128.67 557.423 1127.93 555.53 1126.37 553.884L1112.8 540.302C1111.07 538.739 1109.09 537.915 1107.04 537.915C1104.74 537.915 1102.84 538.656 1101.45 540.22C1100.05 541.784 1099.39 543.677 1099.39 545.982ZM1102.84 662.533C1102.84 659.076 1103.91 656.113 1106.13 653.643C1108.35 651.174 1111.15 649.775 1114.52 649.446L1119.62 648.787C1120.69 648.787 1121.27 648.129 1121.27 646.894L1122.01 642.285C1122.58 637.511 1124.56 633.56 1128.01 630.432C1131.47 627.222 1135.5 625.658 1140.18 625.658C1144.96 625.658 1149.15 627.222 1152.6 630.432C1156.14 633.642 1158.2 637.593 1158.77 642.285L1159.43 647.635C1159.92 648.869 1160.58 649.528 1161.4 649.528H1172.26C1175.8 649.528 1178.84 650.845 1181.47 653.397C1184.11 655.948 1185.34 658.994 1185.34 662.615C1185.34 666.319 1184.02 669.447 1181.47 672.081C1178.92 674.715 1175.8 676.032 1172.26 676.032H1115.92C1112.22 676.032 1109.09 674.715 1106.63 672.081C1104.08 669.447 1102.84 666.237 1102.84 662.533ZM1139.2 609.937C1139.77 600.965 1143.23 593.392 1149.64 587.219C1155.98 581.128 1163.71 578 1172.59 578C1181.72 578 1189.53 581.293 1195.95 587.795C1202.37 594.298 1205.57 602.282 1205.57 611.583C1205.57 617.345 1204.17 622.695 1201.38 627.633C1198.58 632.572 1194.8 636.523 1190.03 639.568C1185.17 635.535 1179.58 633.56 1173.33 633.56C1170.95 626.317 1166.67 620.637 1160.66 616.357C1154.66 612.077 1147.83 609.937 1140.27 609.937H1139.2ZM1164.61 537.915C1164.61 540.138 1165.44 542.113 1167 543.677C1168.56 545.241 1170.45 546.064 1172.67 546.064C1174.98 546.064 1176.87 545.241 1178.43 543.677C1179.99 542.113 1180.82 540.22 1180.82 537.915V518.655C1180.82 516.515 1179.99 514.704 1178.43 513.222C1176.87 511.741 1174.98 511 1172.67 511C1170.45 511 1168.56 511.741 1167 513.222C1165.44 514.704 1164.61 516.515 1164.61 518.655V537.915ZM1216.59 663.274C1216.59 665.496 1217.33 667.389 1218.81 669.035L1232.3 682.37C1235.76 685.827 1239.62 685.827 1243.9 682.37C1245.38 680.97 1246.04 679.16 1246.04 676.773C1246.04 674.55 1245.3 672.739 1243.9 671.258L1230 657.512C1228.52 656.113 1226.63 655.454 1224.41 655.454C1222.1 655.454 1220.3 656.195 1218.81 657.677C1217.33 659.158 1216.59 661.051 1216.59 663.274ZM1216.59 559.481C1216.59 561.785 1217.33 563.761 1218.81 565.407C1220.3 566.889 1222.19 567.629 1224.41 567.629C1226.63 567.629 1228.52 566.889 1230 565.407L1243.9 551.497C1245.38 550.097 1246.04 548.286 1246.04 545.982C1246.04 543.677 1245.22 541.784 1243.65 540.302C1242.09 538.821 1240.2 537.998 1237.9 537.998C1235.76 537.998 1233.87 538.821 1232.3 540.385L1218.81 553.801C1217.33 555.283 1216.59 557.176 1216.59 559.481ZM1237.81 611.665C1237.81 613.888 1238.55 615.699 1240.12 617.18C1241.68 618.662 1243.65 619.32 1246.04 619.32H1259.94C1262.16 619.32 1264.05 618.579 1265.61 617.098C1267.18 615.616 1268 613.805 1268 611.665C1268 609.278 1267.26 607.303 1265.7 605.821C1264.13 604.34 1262.24 603.517 1260.02 603.517H1246.12C1243.74 603.517 1241.76 604.257 1240.2 605.821C1238.64 607.221 1237.81 609.196 1237.81 611.665Z" fill="#9F9AFF"/>
<path d="M475.661 -48.7488C489.902 -41.7263 501.74 -30.6387 509.679 -16.8882C517.617 -3.13774 521.301 12.6581 520.262 28.5018" stroke="#3386F1" stroke-width="62"/>
<path d="M481.828 93.9157C468.078 101.855 452.282 105.538 436.438 104.499C420.594 103.461 405.414 97.7474 392.818 88.0817C380.221 78.416 370.774 65.2319 365.67 50.1969C360.566 35.1618 360.035 18.9509 364.145 3.61424C368.254 -11.7224 376.819 -25.4961 388.757 -35.965C400.694 -46.4339 415.468 -53.1278 431.21 -55.2003C446.952 -57.2728 462.955 -54.6307 477.195 -47.6081C491.435 -40.5856 503.273 -29.498 511.212 -15.7475" stroke="url(#paint5_linear_6143_3571)" stroke-width="62"/>
<path d="M365.67 50.1967C360.566 35.1616 360.036 18.9507 364.145 3.61405C368.255 -11.7226 376.82 -25.4963 388.757 -35.9652C400.695 -46.4341 415.468 -53.128 431.21 -55.2005" stroke="#3497E3" stroke-width="62"/>
<path d="M1412.27 686.02C1403.11 671.125 1392.95 670.049 1383.78 674.859L1383.73 665.476C1383.73 665.476 1387.83 656.383 1383.63 648.617C1379.67 641.275 1356.08 628.788 1356.08 628.788C1351.48 643.968 1350.72 644.597 1352.11 657.275C1349.77 691.988 1368.43 705.886 1376.42 709.934C1412.93 717.535 1412.85 691.626 1412.27 686.02Z" fill="#FF8C78"/>
<path d="M1486.74 686.02C1495.91 671.125 1506.07 670.049 1515.23 674.859L1515.29 665.476C1515.29 665.476 1511.19 656.383 1515.38 648.617C1519.35 641.275 1542.93 628.788 1542.93 628.788C1547.53 643.968 1548.29 644.597 1546.9 657.275C1549.24 691.988 1530.59 705.886 1522.59 709.934C1486.09 717.535 1486.17 691.626 1486.74 686.02Z" fill="#FF8C78"/>
<path d="M1392.76 727.581L1392.32 683.184L1442.22 705.637L1442.53 736.345C1442.53 752.223 1417.56 752.508 1405.34 752.989C1377.12 752.989 1372.72 746.501 1372.72 740.727C1372.72 731.49 1386.07 728.062 1392.76 727.581Z" fill="#FF8C78" stroke="black" stroke-width="4.096" stroke-linecap="round" stroke-linejoin="round"/>
<path d="M1506.25 727.581L1506.69 683.184L1456.79 705.637L1456.49 736.345C1456.49 752.223 1481.46 752.508 1493.67 752.989C1521.89 752.989 1526.29 746.501 1526.29 740.727C1526.29 731.49 1512.94 728.062 1506.25 727.581Z" fill="#FF8C78" stroke="black" stroke-width="4.096" stroke-linecap="round" stroke-linejoin="round"/>
<path d="M1442.53 720.414C1417.86 707.224 1400.93 708.703 1391.92 707.455V691.328C1406.11 703.078 1431.57 708.703 1442.53 710.047V720.414Z" fill="black"/>
<path d="M1456.49 720.414C1481.15 707.224 1498.08 708.703 1507.1 707.455V691.328C1492.9 703.078 1467.44 708.703 1456.49 710.047V720.414Z" fill="black"/>
<circle cx="1449.51" cy="609.891" r="98.8912" fill="#FF8C78" stroke="black" stroke-width="4.096"/>
<path d="M1440.2 654.682C1442.79 656.167 1451.45 657.723 1458.81 654.682" stroke="black" stroke-width="5.25475" stroke-linecap="round"/>
<mask id="mask1_6143_3571" style="mask-type:alpha" maskUnits="userSpaceOnUse" x="1398" y="591" width="103" height="56">
<path fill-rule="evenodd" clip-rule="evenodd" d="M1449.51 646.538C1480.78 646.538 1496.02 626.542 1500.03 600.328C1500.78 595.368 1496.62 591.275 1491.58 591.275H1407.43C1402.39 591.275 1398.23 595.368 1398.99 600.328C1402.99 626.542 1418.23 646.538 1449.51 646.538Z" fill="#D9D9D9"/>
</mask>
<g mask="url(#mask1_6143_3571)">
<path fill-rule="evenodd" clip-rule="evenodd" d="M1449.51 646.538C1480.78 646.538 1496.02 626.542 1500.03 600.328C1500.78 595.368 1496.62 591.275 1491.58 591.275H1407.43C1402.39 591.275 1398.23 595.368 1398.99 600.328C1402.99 626.542 1418.23 646.538 1449.51 646.538Z" fill="black"/>
<ellipse cx="1449.51" cy="640.14" rx="55.8444" ry="29.0856" fill="#464646"/>
<path d="M1449.51 631.993C1444.92 631.993 1444.27 637.05 1444.27 640.719H1454.74C1454.74 637.05 1453.9 632.092 1449.51 631.993Z" fill="white"/>
<path d="M1433.22 631.993C1428.64 631.993 1427.98 637.05 1427.98 640.719H1438.45C1438.45 637.05 1437.61 632.092 1433.22 631.993Z" fill="white"/>
<path d="M1465.79 631.993C1461.21 631.993 1460.56 637.05 1460.56 640.719H1471.03C1471.03 637.05 1470.19 632.092 1465.79 631.993Z" fill="white"/>
<path d="M1449.51 605.816C1444.92 605.816 1444.27 600.759 1444.27 597.09H1454.74C1454.74 600.759 1453.9 605.716 1449.51 605.816Z" fill="white"/>
<path d="M1433.22 605.816C1428.64 605.816 1427.98 600.759 1427.98 597.09H1438.45C1438.45 600.759 1437.61 605.716 1433.22 605.816Z" fill="white"/>
<path d="M1465.79 605.816C1461.21 605.816 1460.56 600.759 1460.56 597.09H1471.03C1471.03 600.759 1470.19 605.716 1465.79 605.816Z" fill="white"/>
<path d="M1407.43 593.835H1491.58C1495.35 593.835 1497.97 596.81 1497.49 599.941L1497.3 601.132C1495.25 613.375 1490.66 623.923 1483.17 631.459C1475.5 639.189 1464.55 643.978 1449.51 643.979C1434.46 643.979 1423.51 639.189 1415.84 631.459C1408.11 623.68 1403.46 612.692 1401.52 599.941L1401.48 599.648C1401.2 596.627 1403.78 593.835 1407.43 593.835Z" stroke="black" stroke-width="5.12"/>
</g>
<circle cx="1433.22" cy="577.314" r="4.6537" fill="black"/>
<circle cx="1465.79" cy="577.314" r="4.6537" fill="black"/>
<path d="M1410.53 663.986H1488.48L1500.11 739.609H1398.9L1410.53 663.986Z" fill="white" stroke="black" stroke-width="4.096"/>
<path d="M1422.17 720.994H1476.85" stroke="black" stroke-width="4.096" stroke-linecap="round"/>
<path d="M1424.49 709.359H1474.52" stroke="black" stroke-width="4.096" stroke-linecap="round"/>
<path d="M1371.48 687.472C1370.98 701.213 1380.43 712.636 1392.59 712.986C1404.74 713.337 1415.01 702.481 1415.52 688.74C1416.02 675 1405.38 665.307 1393.22 664.956C1381.06 664.606 1371.99 673.731 1371.48 687.472Z" fill="#FF8C78"/>
<path d="M1370.39 681.168C1385.92 659.564 1411.34 667.285 1415.81 682.324C1418.37 690.937 1417.83 705.72 1402.32 711.77C1386.82 717.821 1360.34 707.211 1352.94 680.68C1348.19 657.702 1351.29 645.796 1353.73 636.424" stroke="black" stroke-width="4.096" stroke-linecap="round"/>
<path d="M1527.53 687.472C1528.03 701.213 1518.59 712.636 1506.43 712.986C1494.27 713.337 1484 702.481 1483.5 688.74C1482.99 675 1493.63 665.307 1505.79 664.956C1517.95 664.606 1527.02 673.731 1527.53 687.472Z" fill="#FF8C78"/>
<path d="M1528.62 681.168C1513.09 659.564 1487.67 667.285 1483.2 682.324C1480.65 690.937 1481.18 705.72 1496.69 711.77C1512.19 717.821 1538.68 707.211 1546.08 680.68C1550.82 657.702 1547.72 645.796 1545.28 636.424" stroke="black" stroke-width="4.096" stroke-linecap="round"/>
<rect x="1210" y="92" width="612" height="106" fill="url(#paint6_linear_6143_3571)"/>
<rect x="1210" y="-18" width="612" height="106" fill="url(#paint7_linear_6143_3571)"/>
<rect x="1210" y="202" width="612" height="106" fill="url(#paint8_linear_6143_3571)"/>
<path d="M1210 312H1822V418H1250C1227.91 418 1210 400.091 1210 378V312Z" fill="url(#paint9_linear_6143_3571)"/>
<rect x="1210" y="92" width="58" height="106" fill="#A49DFF"/>
<rect x="1210" y="-18" width="58" height="106" fill="#A49DFF"/>
<rect x="1210" y="202" width="58" height="106" fill="#A49DFF"/>
<path d="M1210 312H1268V418H1250C1227.91 418 1210 400.091 1210 378V312Z" fill="#A49DFF"/>
<path d="M1362.18 55.7783L1344.57 55.8784V59.4381C1344.57 61.4088 1342.99 63 1341.01 63C1339.04 63 1337.43 61.4065 1337.43 59.4403V55.8806L1319.7 55.8795C1316.52 55.8795 1314.82 52.0417 1316.94 49.6036L1324.64 40.7473H1322.95C1320.11 40.7473 1318.58 37.4313 1320.42 35.2803L1327.16 27.3965H1325.96C1323.58 27.3965 1322.29 24.8928 1323.81 23.2449L1338.85 6.9431C1340.01 5.68569 1342 5.68569 1343.16 6.94273L1358.22 23.2445C1359.74 24.8925 1358.44 27.3962 1356.06 27.3962H1354.86L1361.6 35.2811C1363.43 37.4331 1361.9 40.7469 1359.07 40.7469H1357.37L1365.07 49.6033C1367.19 52.0617 1365.45 55.7783 1362.18 55.7783Z" fill="#50AABE"/>
<path d="M1433.18 55.7783L1415.57 55.8784V59.4381C1415.57 61.4088 1413.99 63 1412.01 63C1410.04 63 1408.43 61.4065 1408.43 59.4403V55.8806L1390.7 55.8795C1387.52 55.8795 1385.82 52.0417 1387.94 49.6036L1395.64 40.7473H1393.95C1391.11 40.7473 1389.58 37.4313 1391.42 35.2803L1398.16 27.3965H1396.96C1394.58 27.3965 1393.29 24.8928 1394.81 23.2449L1409.85 6.9431C1411.01 5.68569 1413 5.68569 1414.16 6.94273L1429.22 23.2445C1430.74 24.8925 1429.44 27.3962 1427.06 27.3962H1425.86L1432.6 35.2811C1434.43 37.4331 1432.9 40.7469 1430.07 40.7469H1428.37L1436.07 49.6033C1438.19 52.0617 1436.45 55.7783 1433.18 55.7783Z" fill="#50AABE"/>
<path d="M1504.18 55.7783L1486.57 55.8784V59.4381C1486.57 61.4088 1484.99 63 1483.01 63C1481.04 63 1479.43 61.4065 1479.43 59.4403V55.8806L1461.7 55.8795C1458.52 55.8795 1456.82 52.0417 1458.94 49.6036L1466.64 40.7473H1464.95C1462.11 40.7473 1460.58 37.4313 1462.42 35.2803L1469.16 27.3965H1467.96C1465.58 27.3965 1464.29 24.8928 1465.81 23.2449L1480.85 6.9431C1482.01 5.68569 1484 5.68569 1485.16 6.94273L1500.22 23.2445C1501.74 24.8925 1500.44 27.3962 1498.06 27.3962H1496.86L1503.6 35.2811C1505.43 37.4331 1503.9 40.7469 1501.07 40.7469H1499.37L1507.07 49.6033C1509.19 52.0617 1507.45 55.7783 1504.18 55.7783Z" fill="#50AABE"/>
<path d="M1362.18 167.778L1344.57 167.878V171.438C1344.57 173.409 1342.99 175 1341.01 175C1339.04 175 1337.43 173.407 1337.43 171.44V167.881L1319.7 167.88C1316.52 167.88 1314.82 164.042 1316.94 161.604L1324.64 152.747H1322.95C1320.11 152.747 1318.58 149.431 1320.42 147.28L1327.16 139.397H1325.96C1323.58 139.397 1322.29 136.893 1323.81 135.245L1338.85 118.943C1340.01 117.686 1342 117.686 1343.16 118.943L1358.22 135.244C1359.74 136.892 1358.44 139.396 1356.06 139.396H1354.86L1361.6 147.281C1363.43 149.433 1361.9 152.747 1359.07 152.747H1357.37L1365.07 161.603C1367.19 164.062 1365.45 167.778 1362.18 167.778Z" fill="#50AABE"/>
<path d="M1362.18 271.778L1344.57 271.878V275.438C1344.57 277.409 1342.99 279 1341.01 279C1339.04 279 1337.43 277.407 1337.43 275.44V271.881L1319.7 271.88C1316.52 271.88 1314.82 268.042 1316.94 265.604L1324.64 256.747H1322.95C1320.11 256.747 1318.58 253.431 1320.42 251.28L1327.16 243.397H1325.96C1323.58 243.397 1322.29 240.893 1323.81 239.245L1338.85 222.943C1340.01 221.686 1342 221.686 1343.16 222.943L1358.22 239.244C1359.74 240.892 1358.44 243.396 1356.06 243.396H1354.86L1361.6 251.281C1363.43 253.433 1361.9 256.747 1359.07 256.747H1357.37L1365.07 265.603C1367.19 268.062 1365.45 271.778 1362.18 271.778Z" fill="#50AABE"/>
<path d="M1362.18 387.778L1344.57 387.878V391.438C1344.57 393.409 1342.99 395 1341.01 395C1339.04 395 1337.43 393.407 1337.43 391.44V387.881L1319.7 387.88C1316.52 387.88 1314.82 384.042 1316.94 381.604L1324.64 372.747H1322.95C1320.11 372.747 1318.58 369.431 1320.42 367.28L1327.16 359.397H1325.96C1323.58 359.397 1322.29 356.893 1323.81 355.245L1338.85 338.943C1340.01 337.686 1342 337.686 1343.16 338.943L1358.22 355.244C1359.74 356.892 1358.44 359.396 1356.06 359.396H1354.86L1361.6 367.281C1363.43 369.433 1361.9 372.747 1359.07 372.747H1357.37L1365.07 381.603C1367.19 384.062 1365.45 387.778 1362.18 387.778Z" fill="#50AABE"/>
<path d="M1433.18 167.778L1415.57 167.878V171.438C1415.57 173.409 1413.99 175 1412.01 175C1410.04 175 1408.43 173.407 1408.43 171.44V167.881L1390.7 167.88C1387.52 167.88 1385.82 164.042 1387.94 161.604L1395.64 152.747H1393.95C1391.11 152.747 1389.58 149.431 1391.42 147.28L1398.16 139.397H1396.96C1394.58 139.397 1393.29 136.893 1394.81 135.245L1409.85 118.943C1411.01 117.686 1413 117.686 1414.16 118.943L1429.22 135.244C1430.74 136.892 1429.44 139.396 1427.06 139.396H1425.86L1432.6 147.281C1434.43 149.433 1432.9 152.747 1430.07 152.747H1428.37L1436.07 161.603C1438.19 164.062 1436.45 167.778 1433.18 167.778Z" fill="#50AABE"/>
<path d="M1504.18 167.778L1486.57 167.878V171.438C1486.57 173.409 1484.99 175 1483.01 175C1481.04 175 1479.43 173.407 1479.43 171.44V167.881L1461.7 167.88C1458.52 167.88 1456.82 164.042 1458.94 161.604L1466.64 152.747H1464.95C1462.11 152.747 1460.58 149.431 1462.42 147.28L1469.16 139.397H1467.96C1465.58 139.397 1464.29 136.893 1465.81 135.245L1480.85 118.943C1482.01 117.686 1484 117.686 1485.16 118.943L1500.22 135.244C1501.74 136.892 1500.44 139.396 1498.06 139.396H1496.86L1503.6 147.281C1505.43 149.433 1503.9 152.747 1501.07 152.747H1499.37L1507.07 161.603C1509.19 164.062 1507.45 167.778 1504.18 167.778Z" fill="#50AABE"/>
<path d="M1433.18 387.778L1415.57 387.878V391.438C1415.57 393.409 1413.99 395 1412.01 395C1410.04 395 1408.43 393.407 1408.43 391.44V387.881L1390.7 387.88C1387.52 387.88 1385.82 384.042 1387.94 381.604L1395.64 372.747H1393.95C1391.11 372.747 1389.58 369.431 1391.42 367.28L1398.16 359.397H1396.96C1394.58 359.397 1393.29 356.893 1394.81 355.245L1409.85 338.943C1411.01 337.686 1413 337.686 1414.16 338.943L1429.22 355.244C1430.74 356.892 1429.44 359.396 1427.06 359.396H1425.86L1432.6 367.281C1434.43 369.433 1432.9 372.747 1430.07 372.747H1428.37L1436.07 381.603C1438.19 384.062 1436.45 387.778 1433.18 387.778Z" fill="#50AABE"/>
<path d="M1561.95 169.172L1547.86 169.253V172.125C1547.86 173.716 1546.59 175 1545.01 175C1543.43 175 1542.14 173.714 1542.14 172.127V169.255L1527.96 169.254C1525.41 169.254 1524.06 166.156 1525.75 164.189L1531.91 157.042H1530.56C1528.29 157.042 1527.06 154.366 1528.53 152.63L1533.93 146.267H1532.97C1531.07 146.267 1530.03 144.247 1531.25 142.917L1543.28 129.761C1544.21 128.746 1545.8 128.746 1546.73 129.761L1558.77 142.917C1559.99 144.247 1558.95 146.267 1557.05 146.267H1556.09L1561.48 152.63C1562.95 154.367 1561.72 157.041 1559.45 157.041H1558.1L1564.25 164.189C1565.95 166.173 1564.56 169.172 1561.95 169.172Z" fill="#50AABE"/>
<path d="M1419.95 273.172L1405.86 273.253V276.125C1405.86 277.716 1404.59 279 1403.01 279C1401.43 279 1400.14 277.714 1400.14 276.127V273.255L1385.96 273.254C1383.41 273.254 1382.06 270.156 1383.75 268.189L1389.91 261.042H1388.56C1386.29 261.042 1385.06 258.366 1386.53 256.63L1391.93 250.267H1390.97C1389.07 250.267 1388.03 248.247 1389.25 246.917L1401.28 233.761C1402.21 232.746 1403.8 232.746 1404.73 233.761L1416.77 246.917C1417.99 248.247 1416.95 250.267 1415.05 250.267H1414.09L1419.48 256.63C1420.95 258.367 1419.72 261.041 1417.45 261.041H1416.1L1422.25 268.189C1423.95 270.173 1422.56 273.172 1419.95 273.172Z" fill="#50AABE"/>
<path d="M1476.95 273.172L1462.86 273.253V276.125C1462.86 277.716 1461.59 279 1460.01 279C1458.43 279 1457.14 277.714 1457.14 276.127V273.255L1442.96 273.254C1440.41 273.254 1439.06 270.156 1440.75 268.189L1446.91 261.042H1445.56C1443.29 261.042 1442.06 258.366 1443.53 256.63L1448.93 250.267H1447.97C1446.07 250.267 1445.03 248.247 1446.25 246.917L1458.28 233.761C1459.21 232.746 1460.8 232.746 1461.73 233.761L1473.77 246.917C1474.99 248.247 1473.95 250.267 1472.05 250.267H1471.09L1476.48 256.63C1477.95 258.367 1476.72 261.041 1474.45 261.041H1473.1L1479.25 268.189C1480.95 270.173 1479.56 273.172 1476.95 273.172Z" fill="#50AABE"/>
<path d="M1533.95 273.172L1519.86 273.253V276.125C1519.86 277.716 1518.59 279 1517.01 279C1515.43 279 1514.14 277.714 1514.14 276.127V273.255L1499.96 273.254C1497.41 273.254 1496.06 270.156 1497.75 268.189L1503.91 261.042H1502.56C1500.29 261.042 1499.06 258.366 1500.53 256.63L1505.93 250.267H1504.97C1503.07 250.267 1502.03 248.247 1503.25 246.917L1515.28 233.761C1516.21 232.746 1517.8 232.746 1518.73 233.761L1530.77 246.917C1531.99 248.247 1530.95 250.267 1529.05 250.267H1528.09L1533.48 256.63C1534.95 258.367 1533.72 261.041 1531.45 261.041H1530.1L1536.25 268.189C1537.95 270.173 1536.56 273.172 1533.95 273.172Z" fill="#50AABE"/>
<path d="M1590.95 273.172L1576.86 273.253V276.125C1576.86 277.716 1575.59 279 1574.01 279C1572.43 279 1571.14 277.714 1571.14 276.127V273.255L1556.96 273.254C1554.41 273.254 1553.06 270.156 1554.75 268.189L1560.91 261.042H1559.56C1557.29 261.042 1556.06 258.366 1557.53 256.63L1562.93 250.267H1561.97C1560.07 250.267 1559.03 248.247 1560.25 246.917L1572.28 233.761C1573.21 232.746 1574.8 232.746 1575.73 233.761L1587.77 246.917C1588.99 248.247 1587.95 250.267 1586.05 250.267H1585.09L1590.48 256.63C1591.95 258.367 1590.72 261.041 1588.45 261.041H1587.1L1593.25 268.189C1594.95 270.173 1593.56 273.172 1590.95 273.172Z" fill="#50AABE"/>
<path d="M1490.95 389.172L1476.86 389.253V392.125C1476.86 393.716 1475.59 395 1474.01 395C1472.43 395 1471.14 393.714 1471.14 392.127V389.255L1456.96 389.254C1454.41 389.254 1453.06 386.156 1454.75 384.189L1460.91 377.042H1459.56C1457.29 377.042 1456.06 374.366 1457.53 372.63L1462.93 366.267H1461.97C1460.07 366.267 1459.03 364.247 1460.25 362.917L1472.28 349.761C1473.21 348.746 1474.8 348.746 1475.73 349.761L1487.77 362.917C1488.99 364.247 1487.95 366.267 1486.05 366.267H1485.09L1490.48 372.63C1491.95 374.367 1490.72 377.041 1488.45 377.041H1487.1L1493.25 384.189C1494.95 386.173 1493.56 389.172 1490.95 389.172Z" fill="#50AABE"/>
<path d="M1547.95 389.172L1533.86 389.253V392.125C1533.86 393.716 1532.59 395 1531.01 395C1529.43 395 1528.14 393.714 1528.14 392.127V389.255L1513.96 389.254C1511.41 389.254 1510.06 386.156 1511.75 384.189L1517.91 377.042H1516.56C1514.29 377.042 1513.06 374.366 1514.53 372.63L1519.93 366.267H1518.97C1517.07 366.267 1516.03 364.247 1517.25 362.917L1529.28 349.761C1530.21 348.746 1531.8 348.746 1532.73 349.761L1544.77 362.917C1545.99 364.247 1544.95 366.267 1543.05 366.267H1542.09L1547.48 372.63C1548.95 374.367 1547.72 377.041 1545.45 377.041H1544.1L1550.25 384.189C1551.95 386.173 1550.56 389.172 1547.95 389.172Z" fill="#50AABE"/>
<path d="M1604.95 389.172L1590.86 389.253V392.125C1590.86 393.716 1589.59 395 1588.01 395C1586.43 395 1585.14 393.714 1585.14 392.127V389.255L1570.96 389.254C1568.41 389.254 1567.06 386.156 1568.75 384.189L1574.91 377.042H1573.56C1571.29 377.042 1570.06 374.366 1571.53 372.63L1576.93 366.267H1575.97C1574.07 366.267 1573.03 364.247 1574.25 362.917L1586.28 349.761C1587.21 348.746 1588.8 348.746 1589.73 349.761L1601.77 362.917C1602.99 364.247 1601.95 366.267 1600.05 366.267H1599.09L1604.48 372.63C1605.95 374.367 1604.72 377.041 1602.45 377.041H1601.1L1607.25 384.189C1608.95 386.173 1607.56 389.172 1604.95 389.172Z" fill="#50AABE"/>
<path d="M1661.95 389.172L1647.86 389.253V392.125C1647.86 393.716 1646.59 395 1645.01 395C1643.43 395 1642.14 393.714 1642.14 392.127V389.255L1627.96 389.254C1625.41 389.254 1624.06 386.156 1625.75 384.189L1631.91 377.042H1630.56C1628.29 377.042 1627.06 374.366 1628.53 372.63L1633.93 366.267H1632.97C1631.07 366.267 1630.03 364.247 1631.25 362.917L1643.28 349.761C1644.21 348.746 1645.8 348.746 1646.73 349.761L1658.77 362.917C1659.99 364.247 1658.95 366.267 1657.05 366.267H1656.09L1661.48 372.63C1662.95 374.367 1661.72 377.041 1659.45 377.041H1658.1L1664.25 384.189C1665.95 386.173 1664.56 389.172 1661.95 389.172Z" fill="#50AABE"/>
<path d="M1618.95 169.172L1604.86 169.253V172.125C1604.86 173.716 1603.59 175 1602.01 175C1600.43 175 1599.14 173.714 1599.14 172.127V169.255L1584.96 169.254C1582.41 169.254 1581.06 166.156 1582.75 164.189L1588.91 157.042H1587.56C1585.29 157.042 1584.06 154.366 1585.53 152.63L1590.93 146.267H1589.97C1588.07 146.267 1587.03 144.247 1588.25 142.917L1600.28 129.761C1601.21 128.746 1602.8 128.746 1603.73 129.761L1615.77 142.917C1616.99 144.247 1615.95 146.267 1614.05 146.267H1613.09L1618.48 152.63C1619.95 154.367 1618.72 157.041 1616.45 157.041H1615.1L1621.25 164.189C1622.95 166.173 1621.56 169.172 1618.95 169.172Z" fill="#50AABE"/>
<path d="M877.981 733.67C877.335 733.335 876.797 732.822 876.432 732.192C873.844 727.728 869.944 724.17 865.263 722C860.581 719.831 855.345 719.155 850.266 720.066C845.188 720.977 840.513 723.43 836.877 727.092C833.242 730.753 830.822 735.446 829.947 740.531M877.981 733.67L877.058 735.445C876.076 734.934 875.259 734.155 874.702 733.197L874.701 733.195C872.32 729.087 868.73 725.812 864.422 723.815C860.113 721.818 855.294 721.197 850.619 722.035C845.945 722.873 841.642 725.131 838.296 728.501C834.951 731.871 832.724 736.189 831.918 740.869M877.981 733.67C878.627 734.006 879.355 734.151 880.08 734.088L881.649 769.898H825.748C822.276 769.898 818.946 768.519 816.491 766.064C814.036 763.608 812.656 760.278 812.656 756.806C812.656 753.334 814.036 750.004 816.491 747.548C818.946 745.093 822.276 743.714 825.748 743.714M877.981 733.67L877.058 735.445C878.041 735.956 879.149 736.176 880.252 736.081L880.259 736.08C880.771 736.034 881.219 736.015 881.637 736.014C885.828 736.067 889.829 737.769 892.775 740.75C895.724 743.734 897.378 747.761 897.378 751.956C897.378 756.152 895.724 760.178 892.775 763.162C889.829 766.144 885.827 767.845 881.636 767.898H825.748C822.807 767.898 819.985 766.73 817.905 764.65C815.825 762.569 814.656 759.748 814.656 756.806C814.656 753.864 815.825 751.043 817.905 748.963C819.973 746.895 822.773 745.728 825.696 745.714M831.918 740.869C831.918 740.868 831.919 740.868 831.919 740.868L829.947 740.531M831.918 740.869C831.918 740.869 831.918 740.87 831.918 740.87L829.947 740.531M831.918 740.869C831.682 742.251 830.956 743.502 829.873 744.393L828.731 743.005L829.873 744.393C828.796 745.279 827.439 745.75 826.046 745.721M829.947 740.531C829.792 741.44 829.314 742.263 828.602 742.849C827.89 743.435 826.99 743.744 826.068 743.721M826.068 743.721V745.721H826.046M826.068 743.721H825.889L825.748 743.714M826.068 743.721L826.018 745.721C826.028 745.721 826.037 745.721 826.046 745.721M826.046 745.721H825.889H825.835L825.78 745.718L825.696 745.714M825.696 745.714C825.714 745.714 825.731 745.714 825.748 745.714V743.714M825.696 745.714L825.64 745.711L825.748 743.714M825.748 779.574H879.649V779.592L881.661 779.579C888.941 779.533 895.908 776.615 901.047 771.459C906.186 766.303 909.082 759.327 909.105 752.048C909.128 744.768 906.276 737.774 901.169 732.586C896.306 727.645 889.771 724.723 882.872 724.376C879.176 719.277 874.161 715.27 868.357 712.793L867.572 714.632L868.357 712.793C862.236 710.181 855.496 709.378 848.933 710.481C842.371 711.584 836.263 714.545 831.332 719.014C826.724 723.191 823.325 728.522 821.48 734.446C816.266 735.445 811.55 738.24 808.166 742.365C804.501 746.832 802.672 752.525 803.048 758.29C803.425 764.056 805.98 769.463 810.194 773.415C814.409 777.367 819.969 779.569 825.747 779.574H825.748Z" fill="#9F9AFF" stroke="#9F9AFF" stroke-width="4"/>
</g>
<defs>
<linearGradient id="paint0_linear_6143_3571" x1="1258" y1="445" x2="1527.45" y2="531.645" gradientUnits="userSpaceOnUse">
<stop stop-color="#6961F6"/>
<stop offset="1" stop-color="#6961F6" stop-opacity="0"/>
</linearGradient>
<linearGradient id="paint1_linear_6143_3571" x1="180.5" y1="662" x2="180.5" y2="828" gradientUnits="userSpaceOnUse">
<stop stop-color="#3E38B9"/>
<stop offset="0.395" stop-color="#4A42DE"/>
</linearGradient>
<linearGradient id="paint2_linear_6143_3571" x1="213" y1="364" x2="213" y2="692" gradientUnits="userSpaceOnUse">
<stop stop-color="#DBD9FF"/>
<stop offset="1" stop-color="#BBB7EF"/>
</linearGradient>
<linearGradient id="paint3_linear_6143_3571" x1="213" y1="364" x2="213" y2="692" gradientUnits="userSpaceOnUse">
<stop stop-color="#6861F1"/>
<stop offset="1" stop-color="#B0ADFA"/>
</linearGradient>
<linearGradient id="paint4_linear_6143_3571" x1="473" y1="413" x2="281" y2="581" gradientUnits="userSpaceOnUse">
<stop stop-color="#63B5FC"/>
<stop offset="1" stop-color="#6A50FD"/>
</linearGradient>
<linearGradient id="paint5_linear_6143_3571" x1="442" y1="168" x2="306" y2="-85" gradientUnits="userSpaceOnUse">
<stop stop-color="#7C6EFF"/>
<stop offset="0.645" stop-color="#2B53E2"/>
</linearGradient>
<linearGradient id="paint6_linear_6143_3571" x1="1210" y1="145" x2="1612" y2="145" gradientUnits="userSpaceOnUse">
<stop stop-color="#A49DFF"/>
<stop offset="1" stop-color="#564FD2" stop-opacity="0.2"/>
</linearGradient>
<linearGradient id="paint7_linear_6143_3571" x1="1210" y1="35" x2="1612" y2="35" gradientUnits="userSpaceOnUse">
<stop stop-color="#A49DFF"/>
<stop offset="1" stop-color="#564FD2" stop-opacity="0.2"/>
</linearGradient>
<linearGradient id="paint8_linear_6143_3571" x1="1210" y1="255" x2="1612" y2="255" gradientUnits="userSpaceOnUse">
<stop stop-color="#A49DFF"/>
<stop offset="1" stop-color="#564FD2" stop-opacity="0.2"/>
</linearGradient>
<linearGradient id="paint9_linear_6143_3571" x1="1210" y1="365" x2="1612" y2="365" gradientUnits="userSpaceOnUse">
<stop stop-color="#A49DFF"/>
<stop offset="1" stop-color="#564FD2" stop-opacity="0.2"/>
</linearGradient>
<clipPath id="clip0_6143_3571">
<rect width="1715" height="764" fill="white"/>
</clipPath>
</defs>
</svg>
