<svg width="190" height="70" viewBox="0 0 190 70" fill="none" xmlns="http://www.w3.org/2000/svg">
<path d="M73.7362 12.2543C131.75 10.5357 164.125 8.74087 180.153 20.4052C210.831 50.6801 161.937 68.1464 140.846 68.1464C119.754 68.1464 69.2344 76.8599 40.1817 56.5023C15.2552 39.036 34.4296 13.4187 73.7362 12.2543Z" fill="#4C97F8"/>
<g clip-path="url(#clip0_6143_2123)">
<path d="M43.7244 13C29.1738 13 17.366 24.6103 17.366 38.9176V44.0828C17.366 58.39 29.1738 70.0003 43.7244 70.0003C58.275 70.0003 70.0828 58.39 70.0828 44.0828V38.9176C70.0828 24.6103 58.275 13 43.7244 13Z" fill="white"/>
<path d="M62.9385 41.7134C68.3944 48.3252 76.742 51.9321 81.7554 53.6401C84.3655 54.5014 84.8315 55.891 82.3951 57.1802C78.2455 59.3158 65.3978 61.7881 50.8846 59.3121" fill="white"/>
<path d="M42.6063 48.6995C42.8388 49.6594 43.2107 49.9794 44.1869 49.7508L47.1621 49.0652C48.1848 48.8366 48.3243 48.3795 48.0919 47.4196L46.7437 41.8887C47.534 41.5687 48.8821 40.8831 49.7189 40.2889C51.8109 38.7804 54.879 35.7636 53.5309 30.3241C51.7644 23.1476 46.3253 21.4106 39.8171 22.9191C34.7034 24.1075 32.658 25.9359 30.566 27.9929C29.8687 28.6785 29.9617 29.0442 30.3801 29.867L31.9142 32.5182C32.3326 33.3409 32.658 33.4324 33.4018 32.701C35.6332 30.4612 37.7251 29.0899 40.7003 28.4043C44.5588 27.4901 47.441 28.8614 48.1383 31.604C49.0216 35.1236 45.721 37.3634 41.3976 38.369C40.3284 38.5976 40.189 38.9633 40.5144 40.1974L42.6063 48.6538V48.6995Z" fill="#71AEFF"/>
<path d="M42.6063 48.6995C42.8388 49.6594 43.2107 49.9794 44.1869 49.7508L47.1621 49.0652C48.1848 48.8366 48.3243 48.3795 48.0919 47.4196L46.7437 41.8887C47.534 41.5687 48.8821 40.8831 49.7189 40.2889C51.8109 38.7804 54.879 35.7636 53.5309 30.3241C51.7644 23.1476 46.3253 21.4106 39.8171 22.9191C34.7034 24.1075 32.658 25.9359 30.566 27.9929C29.8687 28.6785 29.9617 29.0442 30.3801 29.867L31.9142 32.5182C32.3326 33.3409 32.658 33.4324 33.4018 32.701C35.6332 30.4612 37.7251 29.0899 40.7003 28.4043C44.5588 27.4901 47.441 28.8614 48.1383 31.604C49.0216 35.1236 45.721 37.3634 41.3976 38.369C40.3284 38.5976 40.189 38.9633 40.5144 40.1974L42.6063 48.6538V48.6995Z" fill="#71AEFF"/>
<path d="M44.3728 56.9272C44.7912 58.9385 46.5577 60.0355 48.5567 59.6241C50.4626 59.2127 51.6713 57.5215 51.2064 55.5102C50.7416 53.499 48.975 52.4019 47.0691 52.8133C45.0236 53.2247 43.9079 54.916 44.3728 56.9272Z" fill="#71AEFF"/>
<path d="M44.3728 56.9272C44.7912 58.9385 46.5577 60.0355 48.5567 59.6241C50.4626 59.2127 51.6713 57.5215 51.2064 55.5102C50.7416 53.499 48.975 52.4019 47.0691 52.8133C45.0236 53.2247 43.9079 54.916 44.3728 56.9272Z" fill="#71AEFF"/>
<path d="M42.6063 48.6995C42.8388 49.6594 43.2107 49.9794 44.1869 49.7508L47.1621 49.0652C48.1848 48.8366 48.3243 48.3795 48.0919 47.4196L46.7437 41.8887C47.534 41.5687 48.8821 40.8831 49.7189 40.2889C51.8109 38.7804 54.879 35.7636 53.5309 30.3241C51.7644 23.1476 46.3253 21.4106 39.8171 22.9191C34.7034 24.1075 32.658 25.9359 30.566 27.9929C29.8687 28.6785 29.9617 29.0442 30.3801 29.867L31.9142 32.5182C32.3326 33.3409 32.658 33.4324 33.4018 32.701C35.6332 30.4612 37.7251 29.0899 40.7003 28.4043C44.5588 27.4901 47.441 28.8614 48.1383 31.604C49.0216 35.1236 45.721 37.3634 41.3976 38.369C40.3284 38.5976 40.189 38.9633 40.5144 40.1974L42.6063 48.6538V48.6995Z" stroke="white" stroke-width="0.429161"/>
<path d="M42.6063 48.6995C42.8388 49.6594 43.2107 49.9794 44.1869 49.7508L47.1621 49.0652C48.1848 48.8366 48.3243 48.3795 48.0919 47.4196L46.7437 41.8887C47.534 41.5687 48.8821 40.8831 49.7189 40.2889C51.8109 38.7804 54.879 35.7636 53.5309 30.3241C51.7644 23.1476 46.3253 21.4106 39.8171 22.9191C34.7034 24.1075 32.658 25.9359 30.566 27.9929C29.8687 28.6785 29.9617 29.0442 30.3801 29.867L31.9142 32.5182C32.3326 33.3409 32.658 33.4324 33.4018 32.701C35.6332 30.4612 37.7251 29.0899 40.7003 28.4043C44.5588 27.4901 47.441 28.8614 48.1383 31.604C49.0216 35.1236 45.721 37.3634 41.3976 38.369C40.3284 38.5976 40.189 38.9633 40.5144 40.1974L42.6063 48.6538V48.6995Z" stroke="white" stroke-width="0.429161"/>
<path d="M44.3728 56.9272C44.7912 58.9385 46.5577 60.0355 48.5567 59.6241C50.4626 59.2127 51.6713 57.5215 51.2064 55.5102C50.7416 53.499 48.975 52.4019 47.0691 52.8133C45.0236 53.2247 43.9079 54.916 44.3728 56.9272Z" stroke="white" stroke-width="0.429161"/>
<path d="M44.3728 56.9272C44.7912 58.9385 46.5577 60.0355 48.5567 59.6241C50.4626 59.2127 51.6713 57.5215 51.2064 55.5102C50.7416 53.499 48.975 52.4019 47.0691 52.8133C45.0236 53.2247 43.9079 54.916 44.3728 56.9272Z" stroke="white" stroke-width="0.429161"/>
<path d="M5.6001 14.5391L13.853 20.3761" stroke="#10B7EE" stroke-width="5" stroke-linecap="round" stroke-linejoin="round"/>
<path d="M17.7119 7.37305L21.4281 13.5897" stroke="#10B7EE" stroke-width="5" stroke-linecap="round" stroke-linejoin="round"/>
<path d="M9.12256 29.2503L2.41406 28.1113" stroke="#10B7EE" stroke-width="5" stroke-linecap="round" stroke-linejoin="round"/>
</g>
<defs>
<clipPath id="clip0_6143_2123">
<rect width="84.4468" height="70.0003" fill="white"/>
</clipPath>
</defs>
</svg>
