<svg width="63" height="20" viewBox="0 0 63 20" fill="none" xmlns="http://www.w3.org/2000/svg">
<path d="M63 6.02696L58.9811 16.6536L51.7876 7.85979L63 6.02696ZM1 1C1.78234 0.403322 1.78216 0.40309 1.78207 0.402979C1.78217 0.403103 1.78218 0.403112 1.78237 0.40336C1.78275 0.403858 1.7835 0.404837 1.78462 0.406292C1.78686 0.409204 1.79057 0.414026 1.79575 0.420713C1.80611 0.434092 1.82233 0.454939 1.84435 0.482931C1.88839 0.538916 1.9556 0.62347 2.04543 0.733994C2.2251 0.955061 2.49515 1.2799 2.85113 1.68774C3.56328 2.50366 4.61818 3.65045 5.98026 4.96255C8.70767 7.58989 12.6495 10.8634 17.5211 13.4752C27.2237 18.677 40.6017 21.2663 55.587 10.8235L56.7121 12.438C40.9812 23.4003 26.7844 20.6743 16.5913 15.2095C11.515 12.4879 7.42876 9.09024 4.61504 6.37976C3.20655 5.02295 2.11263 3.83417 1.3686 2.98173C0.996485 2.5554 0.7116 2.21287 0.518364 1.97511C0.421737 1.85622 0.348 1.7635 0.297706 1.69956C0.272557 1.66759 0.253267 1.64282 0.239905 1.62556C0.233223 1.61694 0.228023 1.61019 0.224313 1.60536C0.222458 1.60295 0.220976 1.60101 0.219867 1.59956C0.219313 1.59884 0.218761 1.59812 0.218484 1.59776C0.218026 1.59716 0.217662 1.59668 1 1Z" fill="#E4007F"/>
</svg>
